G75*
%MOIN*%
%OFA0B0*%
%FSLAX25Y25*%
%IPPOS*%
%LPD*%
%AMOC8*
5,1,8,0,0,1.08239X$1,22.5*
%
%ADD10R,0.07887X0.07099*%
%ADD11C,0.06800*%
%ADD12R,0.05918X0.06706*%
%ADD13OC8,0.06800*%
%ADD14C,0.09650*%
%ADD15C,0.04737*%
%ADD16R,0.09800X0.20800*%
%ADD17C,0.21800*%
D10*
X0056500Y0194988D03*
X0056500Y0206012D03*
X0057750Y0442488D03*
X0057750Y0453512D03*
D11*
X0076500Y0451250D02*
X0076500Y0457250D01*
X0086500Y0457250D02*
X0086500Y0451250D01*
X0096500Y0451250D02*
X0096500Y0457250D01*
X0055750Y0271750D02*
X0049750Y0271750D01*
X0049750Y0261750D02*
X0055750Y0261750D01*
X0055750Y0251750D02*
X0049750Y0251750D01*
X0049750Y0241750D02*
X0055750Y0241750D01*
X0055750Y0231750D02*
X0049750Y0231750D01*
X0097250Y0179250D02*
X0103250Y0179250D01*
X0103250Y0169250D02*
X0097250Y0169250D01*
X0097250Y0159250D02*
X0103250Y0159250D01*
X0101500Y0235000D02*
X0101500Y0241000D01*
X0111500Y0241000D02*
X0111500Y0235000D01*
X0121500Y0235000D02*
X0121500Y0241000D01*
X0171000Y0199250D02*
X0177000Y0199250D01*
X0177000Y0189250D02*
X0171000Y0189250D01*
X0171000Y0179250D02*
X0177000Y0179250D01*
X0126500Y0031000D02*
X0126500Y0025000D01*
X0116500Y0025000D02*
X0116500Y0031000D01*
X0067750Y0018500D02*
X0067750Y0012500D01*
X0057750Y0012500D02*
X0057750Y0018500D01*
D12*
X0091510Y0150500D03*
X0098990Y0150500D03*
D13*
X0021600Y0316600D03*
X0021600Y0334400D03*
D14*
X0031400Y0339300D03*
X0031400Y0311700D03*
D15*
X0025250Y0209988D03*
X0025250Y0178492D03*
D16*
X0133076Y0465341D03*
X0167876Y0465341D03*
D17*
X0033498Y0018748D03*
X0096490Y0290402D03*
X0032248Y0428256D03*
X0167356Y0018748D03*
M02*
