G75*
%MOIN*%
%OFA0B0*%
%FSLAX25Y25*%
%IPPOS*%
%LPD*%
%AMOC8*
5,1,8,0,0,1.08239X$1,22.5*
%
%ADD10R,0.07087X0.06299*%
%ADD11C,0.06000*%
%ADD12R,0.05118X0.05906*%
%ADD13OC8,0.06000*%
%ADD14C,0.08850*%
%ADD15R,0.09000X0.20000*%
%ADD16C,0.21000*%
%ADD17C,0.01600*%
%ADD18C,0.02781*%
%ADD19C,0.02387*%
%ADD20C,0.01000*%
%ADD21C,0.01969*%
D10*
X0056500Y0194988D03*
X0056500Y0206012D03*
X0057750Y0442488D03*
X0057750Y0453512D03*
D11*
X0076500Y0451250D02*
X0076500Y0457250D01*
X0086500Y0457250D02*
X0086500Y0451250D01*
X0096500Y0451250D02*
X0096500Y0457250D01*
X0055750Y0271750D02*
X0049750Y0271750D01*
X0049750Y0261750D02*
X0055750Y0261750D01*
X0055750Y0251750D02*
X0049750Y0251750D01*
X0049750Y0241750D02*
X0055750Y0241750D01*
X0055750Y0231750D02*
X0049750Y0231750D01*
X0097250Y0179250D02*
X0103250Y0179250D01*
X0103250Y0169250D02*
X0097250Y0169250D01*
X0097250Y0159250D02*
X0103250Y0159250D01*
X0101500Y0235000D02*
X0101500Y0241000D01*
X0111500Y0241000D02*
X0111500Y0235000D01*
X0121500Y0235000D02*
X0121500Y0241000D01*
X0171000Y0199250D02*
X0177000Y0199250D01*
X0177000Y0189250D02*
X0171000Y0189250D01*
X0171000Y0179250D02*
X0177000Y0179250D01*
X0126500Y0031000D02*
X0126500Y0025000D01*
X0116500Y0025000D02*
X0116500Y0031000D01*
X0067750Y0018500D02*
X0067750Y0012500D01*
X0057750Y0012500D02*
X0057750Y0018500D01*
D12*
X0091510Y0150500D03*
X0098990Y0150500D03*
D13*
X0021600Y0316600D03*
X0021600Y0334400D03*
D14*
X0031400Y0339300D03*
X0031400Y0311700D03*
D15*
X0133076Y0465341D03*
X0167876Y0465341D03*
D16*
X0096490Y0290402D03*
X0032248Y0428256D03*
X0033498Y0018748D03*
X0167356Y0018748D03*
D17*
X0027883Y0007800D02*
X0022550Y0007800D01*
X0022550Y0013133D01*
X0022716Y0012789D01*
X0023451Y0011619D01*
X0024312Y0010539D01*
X0025289Y0009562D01*
X0026369Y0008701D01*
X0027539Y0007966D01*
X0027883Y0007800D01*
X0025500Y0009394D02*
X0022550Y0009394D01*
X0022550Y0010993D02*
X0023951Y0010993D01*
X0022840Y0012591D02*
X0022550Y0012591D01*
X0022550Y0024363D02*
X0022550Y0172284D01*
X0023904Y0171724D01*
X0026596Y0171724D01*
X0029084Y0172754D01*
X0030988Y0174658D01*
X0032018Y0177146D01*
X0032018Y0179838D01*
X0030988Y0182326D01*
X0029084Y0184230D01*
X0026596Y0185261D01*
X0023904Y0185261D01*
X0022550Y0184700D01*
X0022550Y0203780D01*
X0023904Y0203220D01*
X0026596Y0203220D01*
X0029084Y0204250D01*
X0030988Y0206154D01*
X0032018Y0208642D01*
X0032018Y0211335D01*
X0030988Y0213822D01*
X0029084Y0215726D01*
X0026596Y0216757D01*
X0023904Y0216757D01*
X0022550Y0216196D01*
X0022550Y0311800D01*
X0023588Y0311800D01*
X0025492Y0313704D01*
X0025175Y0312938D01*
X0025175Y0310462D01*
X0026123Y0308174D01*
X0027874Y0306423D01*
X0030162Y0305475D01*
X0032638Y0305475D01*
X0034926Y0306423D01*
X0035450Y0306947D01*
X0035450Y0182047D01*
X0036797Y0180700D01*
X0043047Y0174450D01*
X0079953Y0174450D01*
X0081300Y0175797D01*
X0087453Y0181950D01*
X0090816Y0181950D01*
X0091054Y0181712D01*
X0092155Y0181256D01*
X0092886Y0181256D01*
X0092450Y0180205D01*
X0092450Y0178295D01*
X0093181Y0176531D01*
X0094531Y0175181D01*
X0096295Y0174450D01*
X0104205Y0174450D01*
X0105969Y0175181D01*
X0107319Y0176531D01*
X0108050Y0178295D01*
X0108050Y0180205D01*
X0107319Y0181969D01*
X0105969Y0183319D01*
X0104205Y0184050D01*
X0096295Y0184050D01*
X0095744Y0183822D01*
X0095744Y0184845D01*
X0095288Y0185946D01*
X0094446Y0186788D01*
X0093345Y0187244D01*
X0092155Y0187244D01*
X0091994Y0187177D01*
X0091994Y0187345D01*
X0091538Y0188446D01*
X0090696Y0189288D01*
X0089595Y0189744D01*
X0088405Y0189744D01*
X0087304Y0189288D01*
X0087066Y0189050D01*
X0084297Y0189050D01*
X0078244Y0182996D01*
X0078244Y0183595D01*
X0077788Y0184696D01*
X0077550Y0184934D01*
X0077550Y0189816D01*
X0077788Y0190054D01*
X0078244Y0191155D01*
X0078244Y0192345D01*
X0077788Y0193446D01*
X0077609Y0193625D01*
X0077788Y0193804D01*
X0078244Y0194905D01*
X0078244Y0196095D01*
X0077788Y0197196D01*
X0077550Y0197434D01*
X0077550Y0198566D01*
X0077788Y0198804D01*
X0078244Y0199905D01*
X0078244Y0200700D01*
X0080538Y0200700D01*
X0080943Y0200295D01*
X0082115Y0199809D01*
X0083385Y0199809D01*
X0084557Y0200295D01*
X0085455Y0201193D01*
X0085941Y0202365D01*
X0085941Y0203635D01*
X0085642Y0204355D01*
X0086797Y0203200D01*
X0086797Y0203200D01*
X0110450Y0179547D01*
X0110450Y0148684D01*
X0110212Y0148446D01*
X0109756Y0147345D01*
X0109756Y0146155D01*
X0110212Y0145054D01*
X0111054Y0144212D01*
X0112155Y0143756D01*
X0113345Y0143756D01*
X0114446Y0144212D01*
X0115288Y0145054D01*
X0115744Y0146155D01*
X0115744Y0147345D01*
X0115288Y0148446D01*
X0115050Y0148684D01*
X0115050Y0181453D01*
X0090145Y0206358D01*
X0090865Y0206059D01*
X0092135Y0206059D01*
X0092272Y0206116D01*
X0092712Y0205054D01*
X0093554Y0204212D01*
X0094655Y0203756D01*
X0095845Y0203756D01*
X0096946Y0204212D01*
X0097788Y0205054D01*
X0098132Y0205884D01*
X0098554Y0205462D01*
X0099655Y0205006D01*
X0100845Y0205006D01*
X0101946Y0205462D01*
X0102788Y0206304D01*
X0103244Y0207405D01*
X0103244Y0208595D01*
X0102788Y0209696D01*
X0102550Y0209934D01*
X0102550Y0217316D01*
X0102788Y0217554D01*
X0103244Y0218655D01*
X0103244Y0219845D01*
X0102788Y0220946D01*
X0101946Y0221788D01*
X0100845Y0222244D01*
X0099655Y0222244D01*
X0098554Y0221788D01*
X0097712Y0220946D01*
X0097550Y0220554D01*
X0097550Y0232162D01*
X0098781Y0230931D01*
X0100545Y0230200D01*
X0102455Y0230200D01*
X0104200Y0230923D01*
X0104200Y0193297D01*
X0105547Y0191950D01*
X0124200Y0173297D01*
X0124200Y0148684D01*
X0123962Y0148446D01*
X0123506Y0147345D01*
X0123506Y0146155D01*
X0123962Y0145054D01*
X0124804Y0144212D01*
X0125905Y0143756D01*
X0127095Y0143756D01*
X0128196Y0144212D01*
X0129038Y0145054D01*
X0129494Y0146155D01*
X0129494Y0147345D01*
X0129038Y0148446D01*
X0128800Y0148684D01*
X0128800Y0175203D01*
X0108800Y0195203D01*
X0108800Y0230923D01*
X0110545Y0230200D01*
X0112455Y0230200D01*
X0114219Y0230931D01*
X0115569Y0232281D01*
X0116300Y0234045D01*
X0116300Y0241955D01*
X0115569Y0243719D01*
X0114219Y0245069D01*
X0112455Y0245800D01*
X0110545Y0245800D01*
X0108800Y0245077D01*
X0108800Y0256453D01*
X0081994Y0283259D01*
X0081994Y0283595D01*
X0081538Y0284696D01*
X0080696Y0285538D01*
X0079595Y0285994D01*
X0078405Y0285994D01*
X0077304Y0285538D01*
X0076462Y0284696D01*
X0076006Y0283595D01*
X0076006Y0282405D01*
X0076462Y0281304D01*
X0077304Y0280462D01*
X0078405Y0280006D01*
X0078741Y0280006D01*
X0104200Y0254547D01*
X0104200Y0245077D01*
X0102455Y0245800D01*
X0100545Y0245800D01*
X0098781Y0245069D01*
X0097431Y0243719D01*
X0096700Y0241955D01*
X0096700Y0234803D01*
X0078800Y0252703D01*
X0077453Y0254050D01*
X0071203Y0254050D01*
X0062550Y0262703D01*
X0061203Y0264050D01*
X0059993Y0264050D01*
X0059819Y0264469D01*
X0058469Y0265819D01*
X0056705Y0266550D01*
X0048795Y0266550D01*
X0047031Y0265819D01*
X0045681Y0264469D01*
X0044950Y0262705D01*
X0044950Y0260795D01*
X0045681Y0259031D01*
X0047031Y0257681D01*
X0048795Y0256950D01*
X0056705Y0256950D01*
X0058469Y0257681D01*
X0059768Y0258980D01*
X0067950Y0250797D01*
X0069297Y0249450D01*
X0075547Y0249450D01*
X0092950Y0232047D01*
X0092950Y0222103D01*
X0092135Y0222441D01*
X0090865Y0222441D01*
X0090050Y0222103D01*
X0090050Y0231453D01*
X0078800Y0242703D01*
X0077453Y0244050D01*
X0059993Y0244050D01*
X0059819Y0244469D01*
X0058469Y0245819D01*
X0056705Y0246550D01*
X0048795Y0246550D01*
X0047031Y0245819D01*
X0045681Y0244469D01*
X0045050Y0242946D01*
X0045050Y0248297D01*
X0045732Y0248980D01*
X0047031Y0247681D01*
X0048795Y0246950D01*
X0056705Y0246950D01*
X0058469Y0247681D01*
X0059819Y0249031D01*
X0060550Y0250795D01*
X0060550Y0252705D01*
X0059819Y0254469D01*
X0058469Y0255819D01*
X0056705Y0256550D01*
X0048795Y0256550D01*
X0047031Y0255819D01*
X0045681Y0254469D01*
X0045507Y0254050D01*
X0044297Y0254050D01*
X0042550Y0252303D01*
X0042550Y0414547D01*
X0046203Y0418200D01*
X0047550Y0419547D01*
X0047550Y0437703D01*
X0037550Y0447703D01*
X0036203Y0449050D01*
X0032184Y0449050D01*
X0031946Y0449288D01*
X0030845Y0449744D01*
X0029655Y0449744D01*
X0028554Y0449288D01*
X0027712Y0448446D01*
X0027256Y0447345D01*
X0027256Y0446155D01*
X0027712Y0445054D01*
X0028554Y0444212D01*
X0029655Y0443756D01*
X0030845Y0443756D01*
X0031946Y0444212D01*
X0032184Y0444450D01*
X0034297Y0444450D01*
X0042950Y0435797D01*
X0042950Y0434343D01*
X0042295Y0435385D01*
X0041434Y0436465D01*
X0040457Y0437442D01*
X0039377Y0438303D01*
X0038207Y0439038D01*
X0036962Y0439638D01*
X0035658Y0440094D01*
X0034312Y0440401D01*
X0033048Y0440544D01*
X0033048Y0429056D01*
X0031448Y0429056D01*
X0031448Y0440544D01*
X0030184Y0440401D01*
X0028838Y0440094D01*
X0027534Y0439638D01*
X0026289Y0439038D01*
X0025119Y0438303D01*
X0024039Y0437442D01*
X0023062Y0436465D01*
X0022550Y0435823D01*
X0022550Y0470641D01*
X0126776Y0470641D01*
X0126776Y0466141D01*
X0132276Y0466141D01*
X0132276Y0464541D01*
X0126776Y0464541D01*
X0126776Y0455104D01*
X0126899Y0454646D01*
X0127136Y0454236D01*
X0127471Y0453901D01*
X0127882Y0453664D01*
X0128339Y0453541D01*
X0132276Y0453541D01*
X0132276Y0464541D01*
X0133876Y0464541D01*
X0133876Y0453541D01*
X0137813Y0453541D01*
X0138271Y0453664D01*
X0138682Y0453901D01*
X0139017Y0454236D01*
X0139254Y0454646D01*
X0139376Y0455104D01*
X0139376Y0464541D01*
X0133876Y0464541D01*
X0133876Y0466141D01*
X0139376Y0466141D01*
X0139376Y0470641D01*
X0161576Y0470641D01*
X0161576Y0466141D01*
X0167076Y0466141D01*
X0167076Y0464541D01*
X0161576Y0464541D01*
X0161576Y0455104D01*
X0161699Y0454646D01*
X0161936Y0454236D01*
X0162271Y0453901D01*
X0162682Y0453664D01*
X0163139Y0453541D01*
X0167076Y0453541D01*
X0167076Y0464541D01*
X0168676Y0464541D01*
X0168676Y0453541D01*
X0172613Y0453541D01*
X0173071Y0453664D01*
X0173482Y0453901D01*
X0173817Y0454236D01*
X0174054Y0454646D01*
X0174176Y0455104D01*
X0174176Y0464541D01*
X0168676Y0464541D01*
X0168676Y0466141D01*
X0174176Y0466141D01*
X0174176Y0470641D01*
X0178304Y0470641D01*
X0178304Y0203873D01*
X0178124Y0203932D01*
X0177378Y0204050D01*
X0174200Y0204050D01*
X0174200Y0199450D01*
X0173800Y0199450D01*
X0173800Y0204050D01*
X0170622Y0204050D01*
X0169876Y0203932D01*
X0169157Y0203698D01*
X0168484Y0203355D01*
X0168034Y0203028D01*
X0168034Y0254347D01*
X0175577Y0261890D01*
X0176360Y0262673D01*
X0176784Y0263696D01*
X0176784Y0286054D01*
X0176360Y0287077D01*
X0167610Y0295827D01*
X0166827Y0296610D01*
X0165804Y0297034D01*
X0116403Y0297034D01*
X0103860Y0309577D01*
X0103077Y0310360D01*
X0102054Y0310784D01*
X0078903Y0310784D01*
X0065931Y0323756D01*
X0067095Y0323756D01*
X0068196Y0324212D01*
X0068434Y0324450D01*
X0083703Y0324450D01*
X0085050Y0325797D01*
X0085050Y0325797D01*
X0087453Y0328200D01*
X0094953Y0328200D01*
X0096300Y0329547D01*
X0105050Y0338297D01*
X0105050Y0349547D01*
X0117550Y0362047D01*
X0117550Y0409547D01*
X0123703Y0415700D01*
X0160538Y0415700D01*
X0160943Y0415295D01*
X0162115Y0414809D01*
X0163385Y0414809D01*
X0164557Y0415295D01*
X0165455Y0416193D01*
X0165941Y0417365D01*
X0165941Y0418635D01*
X0165455Y0419807D01*
X0164557Y0420705D01*
X0163385Y0421191D01*
X0162115Y0421191D01*
X0160943Y0420705D01*
X0160538Y0420300D01*
X0121797Y0420300D01*
X0114297Y0412800D01*
X0112950Y0411453D01*
X0112950Y0371804D01*
X0112788Y0372196D01*
X0112550Y0372434D01*
X0112550Y0427316D01*
X0112788Y0427554D01*
X0113244Y0428655D01*
X0113244Y0429845D01*
X0112788Y0430946D01*
X0111946Y0431788D01*
X0110845Y0432244D01*
X0109655Y0432244D01*
X0108554Y0431788D01*
X0107712Y0430946D01*
X0107256Y0429845D01*
X0107256Y0428655D01*
X0107712Y0427554D01*
X0107950Y0427316D01*
X0107950Y0372434D01*
X0107712Y0372196D01*
X0107256Y0371095D01*
X0107256Y0369905D01*
X0107712Y0368804D01*
X0108554Y0367962D01*
X0109655Y0367506D01*
X0110845Y0367506D01*
X0111946Y0367962D01*
X0112788Y0368804D01*
X0112950Y0369195D01*
X0112950Y0363953D01*
X0101797Y0352800D01*
X0100450Y0351453D01*
X0100450Y0340203D01*
X0093047Y0332800D01*
X0085547Y0332800D01*
X0081797Y0329050D01*
X0081640Y0329050D01*
X0081994Y0329905D01*
X0081994Y0331095D01*
X0081538Y0332196D01*
X0081300Y0332434D01*
X0081300Y0435203D01*
X0080744Y0435759D01*
X0080744Y0436095D01*
X0080288Y0437196D01*
X0079446Y0438038D01*
X0078345Y0438494D01*
X0077155Y0438494D01*
X0076054Y0438038D01*
X0075212Y0437196D01*
X0074756Y0436095D01*
X0074756Y0434905D01*
X0075212Y0433804D01*
X0076054Y0432962D01*
X0076700Y0432695D01*
X0076700Y0332434D01*
X0076462Y0332196D01*
X0076006Y0331095D01*
X0076006Y0329905D01*
X0076360Y0329050D01*
X0068434Y0329050D01*
X0068196Y0329288D01*
X0067095Y0329744D01*
X0065905Y0329744D01*
X0064804Y0329288D01*
X0064284Y0328768D01*
X0064284Y0403884D01*
X0064691Y0404865D01*
X0064691Y0406135D01*
X0064205Y0407307D01*
X0063307Y0408205D01*
X0062135Y0408691D01*
X0060865Y0408691D01*
X0059693Y0408205D01*
X0058795Y0407307D01*
X0058309Y0406135D01*
X0058309Y0404865D01*
X0058716Y0403884D01*
X0058716Y0323696D01*
X0059140Y0322673D01*
X0059923Y0321890D01*
X0076173Y0305640D01*
X0077196Y0305216D01*
X0100347Y0305216D01*
X0113673Y0291890D01*
X0114696Y0291466D01*
X0164097Y0291466D01*
X0171216Y0284347D01*
X0171216Y0272787D01*
X0157550Y0286453D01*
X0156203Y0287800D01*
X0152462Y0287800D01*
X0152057Y0288205D01*
X0150885Y0288691D01*
X0149615Y0288691D01*
X0148443Y0288205D01*
X0147545Y0287307D01*
X0147059Y0286135D01*
X0147059Y0284865D01*
X0147545Y0283693D01*
X0148443Y0282795D01*
X0149615Y0282309D01*
X0150885Y0282309D01*
X0152057Y0282795D01*
X0152462Y0283200D01*
X0154297Y0283200D01*
X0165057Y0272441D01*
X0164615Y0272441D01*
X0163443Y0271955D01*
X0163038Y0271550D01*
X0146203Y0271550D01*
X0129953Y0287800D01*
X0123712Y0287800D01*
X0123307Y0288205D01*
X0122135Y0288691D01*
X0120865Y0288691D01*
X0119693Y0288205D01*
X0119288Y0287800D01*
X0117462Y0287800D01*
X0117057Y0288205D01*
X0115885Y0288691D01*
X0114615Y0288691D01*
X0113443Y0288205D01*
X0112545Y0287307D01*
X0112059Y0286135D01*
X0112059Y0284865D01*
X0112545Y0283693D01*
X0113443Y0282795D01*
X0114615Y0282309D01*
X0115885Y0282309D01*
X0117057Y0282795D01*
X0117462Y0283200D01*
X0119288Y0283200D01*
X0119693Y0282795D01*
X0120865Y0282309D01*
X0122135Y0282309D01*
X0123307Y0282795D01*
X0123712Y0283200D01*
X0128047Y0283200D01*
X0142950Y0268297D01*
X0143447Y0267800D01*
X0132184Y0267800D01*
X0131946Y0268038D01*
X0130845Y0268494D01*
X0129655Y0268494D01*
X0128554Y0268038D01*
X0127712Y0267196D01*
X0127256Y0266095D01*
X0127256Y0264905D01*
X0127712Y0263804D01*
X0128554Y0262962D01*
X0129384Y0262618D01*
X0128962Y0262196D01*
X0128506Y0261095D01*
X0128506Y0260927D01*
X0128345Y0260994D01*
X0127155Y0260994D01*
X0126054Y0260538D01*
X0125212Y0259696D01*
X0124756Y0258595D01*
X0124756Y0258427D01*
X0124595Y0258494D01*
X0123405Y0258494D01*
X0122304Y0258038D01*
X0121462Y0257196D01*
X0121006Y0256095D01*
X0121006Y0254905D01*
X0121462Y0253804D01*
X0122304Y0252962D01*
X0123405Y0252506D01*
X0123741Y0252506D01*
X0124200Y0252047D01*
X0124200Y0244971D01*
X0124016Y0245105D01*
X0123343Y0245448D01*
X0122624Y0245682D01*
X0121878Y0245800D01*
X0121700Y0245800D01*
X0121700Y0238200D01*
X0121300Y0238200D01*
X0121300Y0245800D01*
X0121122Y0245800D01*
X0120376Y0245682D01*
X0119657Y0245448D01*
X0118984Y0245105D01*
X0118373Y0244661D01*
X0117839Y0244127D01*
X0117395Y0243516D01*
X0117052Y0242843D01*
X0116818Y0242124D01*
X0116700Y0241378D01*
X0116700Y0238200D01*
X0121300Y0238200D01*
X0121300Y0237800D01*
X0121700Y0237800D01*
X0121700Y0230200D01*
X0121878Y0230200D01*
X0122624Y0230318D01*
X0123343Y0230552D01*
X0124016Y0230895D01*
X0124200Y0231029D01*
X0124200Y0216453D01*
X0122950Y0215203D01*
X0122950Y0209934D01*
X0122712Y0209696D01*
X0122256Y0208595D01*
X0122256Y0207405D01*
X0122712Y0206304D01*
X0123554Y0205462D01*
X0124655Y0205006D01*
X0125845Y0205006D01*
X0126946Y0205462D01*
X0127788Y0206304D01*
X0128244Y0207405D01*
X0128244Y0208595D01*
X0128177Y0208756D01*
X0128345Y0208756D01*
X0129446Y0209212D01*
X0130250Y0210016D01*
X0131054Y0209212D01*
X0132155Y0208756D01*
X0132323Y0208756D01*
X0132256Y0208595D01*
X0132256Y0207405D01*
X0132712Y0206304D01*
X0133554Y0205462D01*
X0134655Y0205006D01*
X0135845Y0205006D01*
X0136946Y0205462D01*
X0137788Y0206304D01*
X0138244Y0207405D01*
X0138244Y0208595D01*
X0137788Y0209696D01*
X0137550Y0209934D01*
X0137550Y0261066D01*
X0137788Y0261304D01*
X0138244Y0262405D01*
X0138244Y0263200D01*
X0149297Y0263200D01*
X0155450Y0257047D01*
X0155450Y0235554D01*
X0155288Y0235946D01*
X0154446Y0236788D01*
X0153345Y0237244D01*
X0153177Y0237244D01*
X0153244Y0237405D01*
X0153244Y0238595D01*
X0152788Y0239696D01*
X0151946Y0240538D01*
X0150845Y0240994D01*
X0150677Y0240994D01*
X0150744Y0241155D01*
X0150744Y0242345D01*
X0150288Y0243446D01*
X0149446Y0244288D01*
X0148345Y0244744D01*
X0148244Y0244744D01*
X0148244Y0244845D01*
X0147788Y0245946D01*
X0146946Y0246788D01*
X0145845Y0247244D01*
X0144655Y0247244D01*
X0143554Y0246788D01*
X0142712Y0245946D01*
X0142256Y0244845D01*
X0142256Y0243655D01*
X0142712Y0242554D01*
X0142950Y0242316D01*
X0142950Y0218684D01*
X0142712Y0218446D01*
X0142256Y0217345D01*
X0142256Y0216155D01*
X0142712Y0215054D01*
X0143554Y0214212D01*
X0144655Y0213756D01*
X0145450Y0213756D01*
X0145450Y0156184D01*
X0145212Y0155946D01*
X0144756Y0154845D01*
X0144756Y0153655D01*
X0145212Y0152554D01*
X0146054Y0151712D01*
X0147155Y0151256D01*
X0148345Y0151256D01*
X0149446Y0151712D01*
X0150288Y0152554D01*
X0150744Y0153655D01*
X0150744Y0154845D01*
X0150288Y0155946D01*
X0150050Y0156184D01*
X0150050Y0156256D01*
X0150845Y0156256D01*
X0151946Y0156712D01*
X0152788Y0157554D01*
X0153244Y0158655D01*
X0153244Y0158756D01*
X0153345Y0158756D01*
X0154446Y0159212D01*
X0155288Y0160054D01*
X0155744Y0161155D01*
X0155744Y0162023D01*
X0156054Y0161712D01*
X0157155Y0161256D01*
X0158345Y0161256D01*
X0159446Y0161712D01*
X0160288Y0162554D01*
X0160744Y0163655D01*
X0160744Y0163991D01*
X0162466Y0165713D01*
X0162466Y0145403D01*
X0147890Y0130827D01*
X0147466Y0129804D01*
X0147466Y0102116D01*
X0147059Y0101135D01*
X0147059Y0099865D01*
X0147466Y0098884D01*
X0147466Y0049616D01*
X0147059Y0048635D01*
X0147059Y0047365D01*
X0147545Y0046193D01*
X0148443Y0045295D01*
X0149615Y0044809D01*
X0150885Y0044809D01*
X0152057Y0045295D01*
X0152955Y0046193D01*
X0153441Y0047365D01*
X0153441Y0048635D01*
X0153034Y0049616D01*
X0153034Y0098884D01*
X0153441Y0099865D01*
X0153441Y0101135D01*
X0153034Y0102116D01*
X0153034Y0128097D01*
X0166827Y0141890D01*
X0167610Y0142673D01*
X0168034Y0143696D01*
X0168034Y0175428D01*
X0168281Y0175181D01*
X0170045Y0174450D01*
X0177955Y0174450D01*
X0178304Y0174595D01*
X0178304Y0024363D01*
X0178138Y0024707D01*
X0177403Y0025877D01*
X0176542Y0026957D01*
X0175565Y0027934D01*
X0174485Y0028795D01*
X0173315Y0029530D01*
X0172071Y0030130D01*
X0170767Y0030586D01*
X0169420Y0030893D01*
X0168156Y0031036D01*
X0168156Y0019548D01*
X0166556Y0019548D01*
X0166556Y0017948D01*
X0155069Y0017948D01*
X0155211Y0016684D01*
X0155518Y0015338D01*
X0155975Y0014034D01*
X0156574Y0012789D01*
X0157309Y0011619D01*
X0158170Y0010539D01*
X0159147Y0009562D01*
X0160227Y0008701D01*
X0161397Y0007966D01*
X0161742Y0007800D01*
X0068759Y0007800D01*
X0068874Y0007818D01*
X0069593Y0008052D01*
X0070266Y0008395D01*
X0070877Y0008839D01*
X0071411Y0009373D01*
X0071855Y0009984D01*
X0072198Y0010657D01*
X0072432Y0011376D01*
X0072550Y0012122D01*
X0072550Y0015300D01*
X0067950Y0015300D01*
X0067950Y0015700D01*
X0067550Y0015700D01*
X0067550Y0023300D01*
X0067372Y0023300D01*
X0066626Y0023182D01*
X0065907Y0022948D01*
X0065234Y0022605D01*
X0064623Y0022161D01*
X0064089Y0021627D01*
X0063645Y0021016D01*
X0063302Y0020343D01*
X0063068Y0019624D01*
X0062950Y0018878D01*
X0062950Y0015700D01*
X0067550Y0015700D01*
X0067550Y0015300D01*
X0062950Y0015300D01*
X0062950Y0012122D01*
X0063068Y0011376D01*
X0063302Y0010657D01*
X0063645Y0009984D01*
X0064089Y0009373D01*
X0064623Y0008839D01*
X0065234Y0008395D01*
X0065907Y0008052D01*
X0066626Y0007818D01*
X0066741Y0007800D01*
X0058946Y0007800D01*
X0060469Y0008431D01*
X0061819Y0009781D01*
X0062550Y0011545D01*
X0062550Y0019455D01*
X0061819Y0021219D01*
X0060469Y0022569D01*
X0058705Y0023300D01*
X0056795Y0023300D01*
X0055031Y0022569D01*
X0053681Y0021219D01*
X0052950Y0019455D01*
X0052950Y0011545D01*
X0053681Y0009781D01*
X0055031Y0008431D01*
X0056554Y0007800D01*
X0039113Y0007800D01*
X0039457Y0007966D01*
X0040627Y0008701D01*
X0041707Y0009562D01*
X0042684Y0010539D01*
X0043545Y0011619D01*
X0044280Y0012789D01*
X0044880Y0014034D01*
X0045336Y0015338D01*
X0045643Y0016684D01*
X0045786Y0017948D01*
X0034298Y0017948D01*
X0034298Y0019548D01*
X0032698Y0019548D01*
X0032698Y0031036D01*
X0031434Y0030893D01*
X0030088Y0030586D01*
X0028784Y0030130D01*
X0027539Y0029530D01*
X0026369Y0028795D01*
X0025289Y0027934D01*
X0024312Y0026957D01*
X0023451Y0025877D01*
X0022716Y0024707D01*
X0022550Y0024363D01*
X0022550Y0025379D02*
X0023138Y0025379D01*
X0022550Y0026978D02*
X0024333Y0026978D01*
X0026094Y0028576D02*
X0022550Y0028576D01*
X0022550Y0030175D02*
X0028912Y0030175D01*
X0032698Y0030175D02*
X0034298Y0030175D01*
X0034298Y0031036D02*
X0034298Y0019548D01*
X0045786Y0019548D01*
X0045643Y0020812D01*
X0045336Y0022158D01*
X0044880Y0023462D01*
X0044280Y0024707D01*
X0043545Y0025877D01*
X0042684Y0026957D01*
X0041707Y0027934D01*
X0040627Y0028795D01*
X0039457Y0029530D01*
X0038212Y0030130D01*
X0036908Y0030586D01*
X0035562Y0030893D01*
X0034298Y0031036D01*
X0034298Y0028576D02*
X0032698Y0028576D01*
X0032698Y0026978D02*
X0034298Y0026978D01*
X0034298Y0025379D02*
X0032698Y0025379D01*
X0032698Y0023781D02*
X0034298Y0023781D01*
X0034298Y0022182D02*
X0032698Y0022182D01*
X0032698Y0020584D02*
X0034298Y0020584D01*
X0034298Y0018985D02*
X0052950Y0018985D01*
X0052950Y0017387D02*
X0045722Y0017387D01*
X0045439Y0015788D02*
X0052950Y0015788D01*
X0052950Y0014190D02*
X0044934Y0014190D01*
X0044156Y0012591D02*
X0052950Y0012591D01*
X0053179Y0010993D02*
X0043046Y0010993D01*
X0041496Y0009394D02*
X0054068Y0009394D01*
X0053418Y0020584D02*
X0045669Y0020584D01*
X0045328Y0022182D02*
X0054644Y0022182D01*
X0060856Y0022182D02*
X0064652Y0022182D01*
X0063424Y0020584D02*
X0062082Y0020584D01*
X0062550Y0018985D02*
X0062967Y0018985D01*
X0062950Y0017387D02*
X0062550Y0017387D01*
X0062550Y0015788D02*
X0062950Y0015788D01*
X0062950Y0014190D02*
X0062550Y0014190D01*
X0062550Y0012591D02*
X0062950Y0012591D01*
X0063193Y0010993D02*
X0062321Y0010993D01*
X0061432Y0009394D02*
X0064073Y0009394D01*
X0067550Y0015788D02*
X0067950Y0015788D01*
X0067950Y0015700D02*
X0067950Y0023300D01*
X0068128Y0023300D01*
X0068874Y0023182D01*
X0069593Y0022948D01*
X0070266Y0022605D01*
X0070877Y0022161D01*
X0071411Y0021627D01*
X0071855Y0021016D01*
X0072198Y0020343D01*
X0072432Y0019624D01*
X0072550Y0018878D01*
X0072550Y0015700D01*
X0067950Y0015700D01*
X0067950Y0017387D02*
X0067550Y0017387D01*
X0067550Y0018985D02*
X0067950Y0018985D01*
X0067950Y0020584D02*
X0067550Y0020584D01*
X0067550Y0022182D02*
X0067950Y0022182D01*
X0070848Y0022182D02*
X0112530Y0022182D01*
X0112431Y0022281D02*
X0113781Y0020931D01*
X0115545Y0020200D01*
X0117455Y0020200D01*
X0119219Y0020931D01*
X0120569Y0022281D01*
X0121300Y0024045D01*
X0121300Y0031955D01*
X0120569Y0033719D01*
X0119219Y0035069D01*
X0117455Y0035800D01*
X0115545Y0035800D01*
X0113781Y0035069D01*
X0112431Y0033719D01*
X0111700Y0031955D01*
X0111700Y0024045D01*
X0112431Y0022281D01*
X0111810Y0023781D02*
X0080169Y0023781D01*
X0079635Y0023559D02*
X0080807Y0024045D01*
X0081705Y0024943D01*
X0082191Y0026115D01*
X0082191Y0027385D01*
X0081705Y0028557D01*
X0081300Y0028962D01*
X0081300Y0059538D01*
X0081705Y0059943D01*
X0082191Y0061115D01*
X0082191Y0062385D01*
X0081705Y0063557D01*
X0080807Y0064455D01*
X0079635Y0064941D01*
X0078365Y0064941D01*
X0077193Y0064455D01*
X0076788Y0064050D01*
X0067453Y0064050D01*
X0047191Y0084312D01*
X0047191Y0084885D01*
X0046705Y0086057D01*
X0045807Y0086955D01*
X0044635Y0087441D01*
X0043365Y0087441D01*
X0042193Y0086955D01*
X0041295Y0086057D01*
X0040809Y0084885D01*
X0040809Y0083615D01*
X0041295Y0082443D01*
X0042193Y0081545D01*
X0043365Y0081059D01*
X0043938Y0081059D01*
X0065547Y0059450D01*
X0076700Y0059450D01*
X0076700Y0028962D01*
X0076295Y0028557D01*
X0075809Y0027385D01*
X0075809Y0026115D01*
X0076295Y0024943D01*
X0077193Y0024045D01*
X0078365Y0023559D01*
X0079635Y0023559D01*
X0077831Y0023781D02*
X0044726Y0023781D01*
X0043858Y0025379D02*
X0076114Y0025379D01*
X0075809Y0026978D02*
X0042663Y0026978D01*
X0040902Y0028576D02*
X0076314Y0028576D01*
X0076700Y0030175D02*
X0038084Y0030175D01*
X0022550Y0070137D02*
X0054860Y0070137D01*
X0056458Y0068539D02*
X0022550Y0068539D01*
X0022550Y0066940D02*
X0058057Y0066940D01*
X0059655Y0065342D02*
X0022550Y0065342D01*
X0022550Y0063743D02*
X0061254Y0063743D01*
X0062852Y0062145D02*
X0022550Y0062145D01*
X0022550Y0060546D02*
X0064451Y0060546D01*
X0066161Y0065342D02*
X0147466Y0065342D01*
X0147466Y0066940D02*
X0064562Y0066940D01*
X0062964Y0068539D02*
X0147466Y0068539D01*
X0147466Y0070137D02*
X0061365Y0070137D01*
X0059767Y0071736D02*
X0147466Y0071736D01*
X0147466Y0073334D02*
X0058168Y0073334D01*
X0056570Y0074933D02*
X0147466Y0074933D01*
X0147466Y0076532D02*
X0054971Y0076532D01*
X0053373Y0078130D02*
X0147466Y0078130D01*
X0147466Y0079729D02*
X0051774Y0079729D01*
X0050176Y0081327D02*
X0147466Y0081327D01*
X0147466Y0082926D02*
X0051858Y0082926D01*
X0051946Y0082962D02*
X0052788Y0083804D01*
X0053244Y0084905D01*
X0053244Y0085241D01*
X0071203Y0103200D01*
X0103703Y0103200D01*
X0131759Y0131256D01*
X0132095Y0131256D01*
X0133196Y0131712D01*
X0134038Y0132554D01*
X0134200Y0132945D01*
X0134200Y0131453D01*
X0106700Y0103953D01*
X0106700Y0099934D01*
X0106462Y0099696D01*
X0106006Y0098595D01*
X0106006Y0097405D01*
X0106462Y0096304D01*
X0107304Y0095462D01*
X0108405Y0095006D01*
X0109595Y0095006D01*
X0110696Y0095462D01*
X0111538Y0096304D01*
X0111994Y0097405D01*
X0111994Y0098595D01*
X0111538Y0099696D01*
X0111300Y0099934D01*
X0111300Y0102047D01*
X0137453Y0128200D01*
X0138800Y0129547D01*
X0138800Y0152316D01*
X0139038Y0152554D01*
X0139494Y0153655D01*
X0139494Y0154845D01*
X0139038Y0155946D01*
X0138196Y0156788D01*
X0137095Y0157244D01*
X0135905Y0157244D01*
X0134804Y0156788D01*
X0133962Y0155946D01*
X0133506Y0154845D01*
X0133506Y0153655D01*
X0133962Y0152554D01*
X0134200Y0152316D01*
X0134200Y0135554D01*
X0134038Y0135946D01*
X0133196Y0136788D01*
X0132095Y0137244D01*
X0130905Y0137244D01*
X0129804Y0136788D01*
X0128962Y0135946D01*
X0128506Y0134845D01*
X0128506Y0134509D01*
X0101797Y0107800D01*
X0069297Y0107800D01*
X0067950Y0106453D01*
X0049991Y0088494D01*
X0049655Y0088494D01*
X0048554Y0088038D01*
X0047712Y0087196D01*
X0047256Y0086095D01*
X0047256Y0084905D01*
X0047712Y0083804D01*
X0048554Y0082962D01*
X0049655Y0082506D01*
X0050845Y0082506D01*
X0051946Y0082962D01*
X0053086Y0084524D02*
X0147466Y0084524D01*
X0147466Y0086123D02*
X0054125Y0086123D01*
X0055724Y0087721D02*
X0147466Y0087721D01*
X0147466Y0089320D02*
X0057322Y0089320D01*
X0058921Y0090918D02*
X0147466Y0090918D01*
X0147466Y0092517D02*
X0060519Y0092517D01*
X0062118Y0094115D02*
X0147466Y0094115D01*
X0147466Y0095714D02*
X0110947Y0095714D01*
X0111955Y0097312D02*
X0147466Y0097312D01*
X0147455Y0098911D02*
X0111863Y0098911D01*
X0111300Y0100509D02*
X0147059Y0100509D01*
X0147463Y0102108D02*
X0111360Y0102108D01*
X0112959Y0103706D02*
X0147466Y0103706D01*
X0147466Y0105305D02*
X0114557Y0105305D01*
X0116156Y0106903D02*
X0147466Y0106903D01*
X0147466Y0108502D02*
X0117754Y0108502D01*
X0119353Y0110100D02*
X0147466Y0110100D01*
X0147466Y0111699D02*
X0120951Y0111699D01*
X0122550Y0113297D02*
X0147466Y0113297D01*
X0147466Y0114896D02*
X0124148Y0114896D01*
X0125747Y0116494D02*
X0147466Y0116494D01*
X0147466Y0118093D02*
X0127345Y0118093D01*
X0128944Y0119691D02*
X0147466Y0119691D01*
X0147466Y0121290D02*
X0130543Y0121290D01*
X0132141Y0122888D02*
X0147466Y0122888D01*
X0147466Y0124487D02*
X0133740Y0124487D01*
X0135338Y0126085D02*
X0147466Y0126085D01*
X0147466Y0127684D02*
X0136937Y0127684D01*
X0138535Y0129282D02*
X0147466Y0129282D01*
X0147943Y0130881D02*
X0138800Y0130881D01*
X0138800Y0132479D02*
X0149542Y0132479D01*
X0151140Y0134078D02*
X0138800Y0134078D01*
X0138800Y0135676D02*
X0152739Y0135676D01*
X0154337Y0137275D02*
X0138800Y0137275D01*
X0138800Y0138873D02*
X0155936Y0138873D01*
X0157534Y0140472D02*
X0138800Y0140472D01*
X0138800Y0142070D02*
X0159133Y0142070D01*
X0160731Y0143669D02*
X0138800Y0143669D01*
X0138800Y0145268D02*
X0162330Y0145268D01*
X0162466Y0146866D02*
X0138800Y0146866D01*
X0138800Y0148465D02*
X0162466Y0148465D01*
X0162466Y0150063D02*
X0138800Y0150063D01*
X0138800Y0151662D02*
X0146176Y0151662D01*
X0144920Y0153260D02*
X0139330Y0153260D01*
X0139488Y0154859D02*
X0144762Y0154859D01*
X0145450Y0156457D02*
X0138527Y0156457D01*
X0134473Y0156457D02*
X0128800Y0156457D01*
X0128800Y0154859D02*
X0133512Y0154859D01*
X0133670Y0153260D02*
X0128800Y0153260D01*
X0128800Y0151662D02*
X0134200Y0151662D01*
X0134200Y0150063D02*
X0128800Y0150063D01*
X0129019Y0148465D02*
X0134200Y0148465D01*
X0134200Y0146866D02*
X0129494Y0146866D01*
X0129126Y0145268D02*
X0134200Y0145268D01*
X0134200Y0143669D02*
X0054084Y0143669D01*
X0055682Y0142070D02*
X0134200Y0142070D01*
X0134200Y0140472D02*
X0057281Y0140472D01*
X0057550Y0140203D02*
X0050744Y0147009D01*
X0050744Y0147345D01*
X0050288Y0148446D01*
X0049446Y0149288D01*
X0048345Y0149744D01*
X0047155Y0149744D01*
X0046054Y0149288D01*
X0045212Y0148446D01*
X0044756Y0147345D01*
X0044756Y0146155D01*
X0045212Y0145054D01*
X0046054Y0144212D01*
X0047155Y0143756D01*
X0047491Y0143756D01*
X0052950Y0138297D01*
X0052950Y0133297D01*
X0054297Y0131950D01*
X0056797Y0129450D01*
X0063703Y0129450D01*
X0065050Y0130797D01*
X0066203Y0131950D01*
X0090816Y0131950D01*
X0091054Y0131712D01*
X0092155Y0131256D01*
X0093345Y0131256D01*
X0094446Y0131712D01*
X0095288Y0132554D01*
X0095744Y0133655D01*
X0095744Y0134845D01*
X0095288Y0135946D01*
X0094446Y0136788D01*
X0093345Y0137244D01*
X0092155Y0137244D01*
X0091054Y0136788D01*
X0090816Y0136550D01*
X0064297Y0136550D01*
X0061797Y0134050D01*
X0058703Y0134050D01*
X0057550Y0135203D01*
X0057550Y0140203D01*
X0057550Y0138873D02*
X0134200Y0138873D01*
X0134200Y0137275D02*
X0057550Y0137275D01*
X0057550Y0135676D02*
X0063424Y0135676D01*
X0061825Y0134078D02*
X0058675Y0134078D01*
X0055366Y0130881D02*
X0022550Y0130881D01*
X0022550Y0132479D02*
X0053768Y0132479D01*
X0052950Y0134078D02*
X0022550Y0134078D01*
X0022550Y0135676D02*
X0052950Y0135676D01*
X0052950Y0137275D02*
X0022550Y0137275D01*
X0022550Y0138873D02*
X0052374Y0138873D01*
X0050775Y0140472D02*
X0022550Y0140472D01*
X0022550Y0142070D02*
X0049177Y0142070D01*
X0047578Y0143669D02*
X0022550Y0143669D01*
X0022550Y0145268D02*
X0045124Y0145268D01*
X0044756Y0146866D02*
X0022550Y0146866D01*
X0022550Y0148465D02*
X0045231Y0148465D01*
X0050269Y0148465D02*
X0084302Y0148465D01*
X0083962Y0148804D02*
X0084804Y0147962D01*
X0085905Y0147506D01*
X0087095Y0147506D01*
X0087151Y0147529D01*
X0087151Y0146802D01*
X0088205Y0145747D01*
X0094814Y0145747D01*
X0095250Y0146183D01*
X0095326Y0146107D01*
X0095736Y0145870D01*
X0096194Y0145747D01*
X0098511Y0145747D01*
X0098511Y0150020D01*
X0099470Y0150020D01*
X0099470Y0145747D01*
X0101786Y0145747D01*
X0102244Y0145870D01*
X0102654Y0146107D01*
X0102990Y0146442D01*
X0103227Y0146852D01*
X0103349Y0147310D01*
X0103349Y0150020D01*
X0099470Y0150020D01*
X0099470Y0150980D01*
X0103349Y0150980D01*
X0103349Y0153690D01*
X0103227Y0154148D01*
X0103052Y0154450D01*
X0103628Y0154450D01*
X0104374Y0154568D01*
X0105093Y0154802D01*
X0105766Y0155145D01*
X0106377Y0155589D01*
X0106911Y0156123D01*
X0107355Y0156734D01*
X0107698Y0157407D01*
X0107932Y0158126D01*
X0108050Y0158872D01*
X0108050Y0159050D01*
X0100450Y0159050D01*
X0100450Y0159450D01*
X0100050Y0159450D01*
X0100050Y0164050D01*
X0096872Y0164050D01*
X0096126Y0163932D01*
X0095407Y0163698D01*
X0094734Y0163355D01*
X0094123Y0162911D01*
X0093589Y0162377D01*
X0093145Y0161766D01*
X0092802Y0161093D01*
X0092568Y0160374D01*
X0092450Y0159628D01*
X0092450Y0159450D01*
X0100050Y0159450D01*
X0100050Y0159050D01*
X0092450Y0159050D01*
X0092450Y0158872D01*
X0092568Y0158126D01*
X0092802Y0157407D01*
X0093145Y0156734D01*
X0093589Y0156123D01*
X0094123Y0155589D01*
X0094586Y0155253D01*
X0088205Y0155253D01*
X0087151Y0154198D01*
X0087151Y0153471D01*
X0087095Y0153494D01*
X0085905Y0153494D01*
X0084804Y0153038D01*
X0083962Y0152196D01*
X0083506Y0151095D01*
X0083506Y0149905D01*
X0083962Y0148804D01*
X0083506Y0150063D02*
X0075982Y0150063D01*
X0075845Y0150006D02*
X0076946Y0150462D01*
X0077788Y0151304D01*
X0078244Y0152405D01*
X0078244Y0153595D01*
X0077788Y0154696D01*
X0076946Y0155538D01*
X0075845Y0155994D01*
X0074655Y0155994D01*
X0073554Y0155538D01*
X0073316Y0155300D01*
X0037184Y0155300D01*
X0036946Y0155538D01*
X0035845Y0155994D01*
X0034655Y0155994D01*
X0033554Y0155538D01*
X0032712Y0154696D01*
X0032256Y0153595D01*
X0032256Y0152405D01*
X0032712Y0151304D01*
X0033554Y0150462D01*
X0034655Y0150006D01*
X0035845Y0150006D01*
X0036946Y0150462D01*
X0037184Y0150700D01*
X0073316Y0150700D01*
X0073554Y0150462D01*
X0074655Y0150006D01*
X0075845Y0150006D01*
X0074518Y0150063D02*
X0035982Y0150063D01*
X0034518Y0150063D02*
X0022550Y0150063D01*
X0022550Y0151662D02*
X0032564Y0151662D01*
X0032256Y0153260D02*
X0022550Y0153260D01*
X0022550Y0154859D02*
X0032875Y0154859D01*
X0028331Y0172442D02*
X0093654Y0172442D01*
X0093181Y0171969D02*
X0092450Y0170205D01*
X0092450Y0168295D01*
X0093181Y0166531D01*
X0094531Y0165181D01*
X0096295Y0164450D01*
X0104205Y0164450D01*
X0105969Y0165181D01*
X0107319Y0166531D01*
X0108050Y0168295D01*
X0108050Y0170205D01*
X0107319Y0171969D01*
X0105969Y0173319D01*
X0104205Y0174050D01*
X0096295Y0174050D01*
X0094531Y0173319D01*
X0093181Y0171969D01*
X0092715Y0170844D02*
X0022550Y0170844D01*
X0022550Y0169245D02*
X0092450Y0169245D01*
X0092719Y0167647D02*
X0022550Y0167647D01*
X0022550Y0166048D02*
X0093664Y0166048D01*
X0094063Y0162851D02*
X0022550Y0162851D01*
X0022550Y0161253D02*
X0092883Y0161253D01*
X0092454Y0159654D02*
X0022550Y0159654D01*
X0022550Y0158056D02*
X0092591Y0158056D01*
X0093346Y0156457D02*
X0022550Y0156457D01*
X0022550Y0164450D02*
X0110450Y0164450D01*
X0110450Y0166048D02*
X0106836Y0166048D01*
X0107781Y0167647D02*
X0110450Y0167647D01*
X0110450Y0169245D02*
X0108050Y0169245D01*
X0107785Y0170844D02*
X0110450Y0170844D01*
X0110450Y0172442D02*
X0106846Y0172442D01*
X0106427Y0175639D02*
X0110450Y0175639D01*
X0110450Y0174041D02*
X0104227Y0174041D01*
X0107612Y0177238D02*
X0110450Y0177238D01*
X0110450Y0178836D02*
X0108050Y0178836D01*
X0107955Y0180435D02*
X0109563Y0180435D01*
X0107964Y0182033D02*
X0107255Y0182033D01*
X0106366Y0183632D02*
X0105214Y0183632D01*
X0104767Y0185230D02*
X0095584Y0185230D01*
X0094347Y0186829D02*
X0103169Y0186829D01*
X0101570Y0188427D02*
X0091546Y0188427D01*
X0092545Y0180435D02*
X0085937Y0180435D01*
X0084339Y0178836D02*
X0092450Y0178836D01*
X0092888Y0177238D02*
X0082740Y0177238D01*
X0081142Y0175639D02*
X0094073Y0175639D01*
X0096273Y0174041D02*
X0030371Y0174041D01*
X0031394Y0175639D02*
X0041858Y0175639D01*
X0040260Y0177238D02*
X0032018Y0177238D01*
X0032018Y0178836D02*
X0038661Y0178836D01*
X0037063Y0180435D02*
X0031772Y0180435D01*
X0031109Y0182033D02*
X0035464Y0182033D01*
X0035450Y0183632D02*
X0029682Y0183632D01*
X0026670Y0185230D02*
X0035450Y0185230D01*
X0035450Y0186829D02*
X0022550Y0186829D01*
X0022550Y0188427D02*
X0035450Y0188427D01*
X0035450Y0190026D02*
X0022550Y0190026D01*
X0022550Y0191624D02*
X0035450Y0191624D01*
X0035450Y0193223D02*
X0022550Y0193223D01*
X0022550Y0194821D02*
X0035450Y0194821D01*
X0035450Y0196420D02*
X0022550Y0196420D01*
X0022550Y0198018D02*
X0035450Y0198018D01*
X0035450Y0199617D02*
X0022550Y0199617D01*
X0022550Y0201215D02*
X0035450Y0201215D01*
X0035450Y0202814D02*
X0022550Y0202814D01*
X0022550Y0217201D02*
X0035450Y0217201D01*
X0035450Y0218799D02*
X0022550Y0218799D01*
X0022550Y0220398D02*
X0035450Y0220398D01*
X0035450Y0221996D02*
X0022550Y0221996D01*
X0022550Y0223595D02*
X0035450Y0223595D01*
X0035450Y0225193D02*
X0022550Y0225193D01*
X0022550Y0226792D02*
X0035450Y0226792D01*
X0035450Y0228390D02*
X0022550Y0228390D01*
X0022550Y0229989D02*
X0035450Y0229989D01*
X0035450Y0231587D02*
X0022550Y0231587D01*
X0022550Y0233186D02*
X0035450Y0233186D01*
X0035450Y0234784D02*
X0022550Y0234784D01*
X0022550Y0236383D02*
X0035450Y0236383D01*
X0035450Y0237981D02*
X0022550Y0237981D01*
X0022550Y0239580D02*
X0035450Y0239580D01*
X0035450Y0241178D02*
X0022550Y0241178D01*
X0022550Y0242777D02*
X0035450Y0242777D01*
X0035450Y0244375D02*
X0022550Y0244375D01*
X0022550Y0245974D02*
X0035450Y0245974D01*
X0035450Y0247572D02*
X0022550Y0247572D01*
X0022550Y0249171D02*
X0035450Y0249171D01*
X0035450Y0250769D02*
X0022550Y0250769D01*
X0022550Y0252368D02*
X0035450Y0252368D01*
X0035450Y0253966D02*
X0022550Y0253966D01*
X0022550Y0255565D02*
X0035450Y0255565D01*
X0035450Y0257163D02*
X0022550Y0257163D01*
X0022550Y0258762D02*
X0035450Y0258762D01*
X0035450Y0260360D02*
X0022550Y0260360D01*
X0022550Y0261959D02*
X0035450Y0261959D01*
X0035450Y0263557D02*
X0022550Y0263557D01*
X0022550Y0265156D02*
X0035450Y0265156D01*
X0035450Y0266754D02*
X0022550Y0266754D01*
X0022550Y0268353D02*
X0035450Y0268353D01*
X0035450Y0269951D02*
X0022550Y0269951D01*
X0022550Y0271550D02*
X0035450Y0271550D01*
X0035450Y0273148D02*
X0022550Y0273148D01*
X0022550Y0274747D02*
X0035450Y0274747D01*
X0035450Y0276345D02*
X0022550Y0276345D01*
X0022550Y0277944D02*
X0035450Y0277944D01*
X0035450Y0279542D02*
X0022550Y0279542D01*
X0022550Y0281141D02*
X0035450Y0281141D01*
X0035450Y0282739D02*
X0022550Y0282739D01*
X0022550Y0284338D02*
X0035450Y0284338D01*
X0035450Y0285937D02*
X0022550Y0285937D01*
X0022550Y0287535D02*
X0035450Y0287535D01*
X0035450Y0289134D02*
X0022550Y0289134D01*
X0022550Y0290732D02*
X0035450Y0290732D01*
X0035450Y0292331D02*
X0022550Y0292331D01*
X0022550Y0293929D02*
X0035450Y0293929D01*
X0035450Y0295528D02*
X0022550Y0295528D01*
X0022550Y0297126D02*
X0035450Y0297126D01*
X0035450Y0298725D02*
X0022550Y0298725D01*
X0022550Y0300323D02*
X0035450Y0300323D01*
X0035450Y0301922D02*
X0022550Y0301922D01*
X0022550Y0303520D02*
X0035450Y0303520D01*
X0035450Y0305119D02*
X0022550Y0305119D01*
X0022550Y0306717D02*
X0027579Y0306717D01*
X0026064Y0308316D02*
X0022550Y0308316D01*
X0022550Y0309914D02*
X0025402Y0309914D01*
X0025175Y0311513D02*
X0022550Y0311513D01*
X0024899Y0313111D02*
X0025247Y0313111D01*
X0026400Y0315503D02*
X0026400Y0318588D01*
X0023588Y0321400D01*
X0022550Y0321400D01*
X0022550Y0329600D01*
X0023588Y0329600D01*
X0026400Y0332412D01*
X0026400Y0334200D01*
X0022550Y0334200D01*
X0022550Y0334600D01*
X0026400Y0334600D01*
X0026400Y0335497D01*
X0027874Y0334023D01*
X0030162Y0333075D01*
X0032638Y0333075D01*
X0034926Y0334023D01*
X0035450Y0334547D01*
X0035450Y0316453D01*
X0034926Y0316977D01*
X0032638Y0317925D01*
X0030162Y0317925D01*
X0027874Y0316977D01*
X0026400Y0315503D01*
X0026400Y0316308D02*
X0027205Y0316308D01*
X0026400Y0317907D02*
X0030118Y0317907D01*
X0032682Y0317907D02*
X0035450Y0317907D01*
X0035450Y0319505D02*
X0025483Y0319505D01*
X0023884Y0321104D02*
X0035450Y0321104D01*
X0035450Y0322702D02*
X0022550Y0322702D01*
X0022550Y0324301D02*
X0035450Y0324301D01*
X0035450Y0325899D02*
X0022550Y0325899D01*
X0022550Y0327498D02*
X0035450Y0327498D01*
X0035450Y0329096D02*
X0022550Y0329096D01*
X0024683Y0330695D02*
X0035450Y0330695D01*
X0035450Y0332293D02*
X0026282Y0332293D01*
X0026400Y0333892D02*
X0028190Y0333892D01*
X0026406Y0335490D02*
X0026400Y0335490D01*
X0025492Y0337296D02*
X0023588Y0339200D01*
X0022550Y0339200D01*
X0022550Y0420689D01*
X0023062Y0420047D01*
X0024039Y0419070D01*
X0025119Y0418209D01*
X0026289Y0417474D01*
X0027534Y0416874D01*
X0028838Y0416418D01*
X0030184Y0416111D01*
X0031448Y0415968D01*
X0031448Y0427456D01*
X0033048Y0427456D01*
X0033048Y0415968D01*
X0034312Y0416111D01*
X0035658Y0416418D01*
X0036962Y0416874D01*
X0038207Y0417474D01*
X0039377Y0418209D01*
X0040457Y0419070D01*
X0041434Y0420047D01*
X0042295Y0421127D01*
X0042950Y0422169D01*
X0042950Y0421453D01*
X0039297Y0417800D01*
X0037950Y0416453D01*
X0037950Y0413055D01*
X0037788Y0413446D01*
X0036946Y0414288D01*
X0035845Y0414744D01*
X0034655Y0414744D01*
X0033554Y0414288D01*
X0032712Y0413446D01*
X0032256Y0412345D01*
X0032256Y0411155D01*
X0032712Y0410054D01*
X0033554Y0409212D01*
X0034655Y0408756D01*
X0034991Y0408756D01*
X0035450Y0408297D01*
X0035450Y0344053D01*
X0034926Y0344577D01*
X0032638Y0345525D01*
X0030162Y0345525D01*
X0027874Y0344577D01*
X0026123Y0342826D01*
X0025175Y0340538D01*
X0025175Y0338062D01*
X0025492Y0337296D01*
X0025175Y0338687D02*
X0024101Y0338687D01*
X0025175Y0340286D02*
X0022550Y0340286D01*
X0022550Y0341884D02*
X0025733Y0341884D01*
X0026779Y0343483D02*
X0022550Y0343483D01*
X0022550Y0345081D02*
X0029091Y0345081D01*
X0033709Y0345081D02*
X0035450Y0345081D01*
X0035450Y0346680D02*
X0022550Y0346680D01*
X0022550Y0348278D02*
X0035450Y0348278D01*
X0035450Y0349877D02*
X0022550Y0349877D01*
X0022550Y0351475D02*
X0035450Y0351475D01*
X0035450Y0353074D02*
X0022550Y0353074D01*
X0022550Y0354672D02*
X0035450Y0354672D01*
X0035450Y0356271D02*
X0022550Y0356271D01*
X0022550Y0357870D02*
X0035450Y0357870D01*
X0035450Y0359468D02*
X0022550Y0359468D01*
X0022550Y0361067D02*
X0035450Y0361067D01*
X0035450Y0362665D02*
X0022550Y0362665D01*
X0022550Y0364264D02*
X0035450Y0364264D01*
X0035450Y0365862D02*
X0022550Y0365862D01*
X0022550Y0367461D02*
X0035450Y0367461D01*
X0035450Y0369059D02*
X0022550Y0369059D01*
X0022550Y0370658D02*
X0035450Y0370658D01*
X0035450Y0372256D02*
X0022550Y0372256D01*
X0022550Y0373855D02*
X0035450Y0373855D01*
X0035450Y0375453D02*
X0022550Y0375453D01*
X0022550Y0377052D02*
X0035450Y0377052D01*
X0035450Y0378650D02*
X0022550Y0378650D01*
X0022550Y0380249D02*
X0035450Y0380249D01*
X0035450Y0381847D02*
X0022550Y0381847D01*
X0022550Y0383446D02*
X0035450Y0383446D01*
X0035450Y0385044D02*
X0022550Y0385044D01*
X0022550Y0386643D02*
X0035450Y0386643D01*
X0035450Y0388241D02*
X0022550Y0388241D01*
X0022550Y0389840D02*
X0035450Y0389840D01*
X0035450Y0391438D02*
X0022550Y0391438D01*
X0022550Y0393037D02*
X0035450Y0393037D01*
X0035450Y0394635D02*
X0022550Y0394635D01*
X0022550Y0396234D02*
X0035450Y0396234D01*
X0035450Y0397832D02*
X0022550Y0397832D01*
X0022550Y0399431D02*
X0035450Y0399431D01*
X0035450Y0401029D02*
X0022550Y0401029D01*
X0022550Y0402628D02*
X0035450Y0402628D01*
X0035450Y0404226D02*
X0022550Y0404226D01*
X0022550Y0405825D02*
X0035450Y0405825D01*
X0035450Y0407423D02*
X0022550Y0407423D01*
X0022550Y0409022D02*
X0034013Y0409022D01*
X0032478Y0410620D02*
X0022550Y0410620D01*
X0022550Y0412219D02*
X0032256Y0412219D01*
X0033084Y0413817D02*
X0022550Y0413817D01*
X0022550Y0415416D02*
X0037950Y0415416D01*
X0037950Y0413817D02*
X0037416Y0413817D01*
X0037253Y0417014D02*
X0038512Y0417014D01*
X0039297Y0417800D02*
X0039297Y0417800D01*
X0039884Y0418613D02*
X0040110Y0418613D01*
X0041565Y0420211D02*
X0041709Y0420211D01*
X0042724Y0421810D02*
X0042950Y0421810D01*
X0045017Y0417014D02*
X0076700Y0417014D01*
X0076700Y0415416D02*
X0043419Y0415416D01*
X0042550Y0413817D02*
X0076700Y0413817D01*
X0076700Y0412219D02*
X0042550Y0412219D01*
X0042550Y0410620D02*
X0076700Y0410620D01*
X0076700Y0409022D02*
X0042550Y0409022D01*
X0042550Y0407423D02*
X0058911Y0407423D01*
X0058309Y0405825D02*
X0042550Y0405825D01*
X0042550Y0404226D02*
X0058574Y0404226D01*
X0058716Y0402628D02*
X0042550Y0402628D01*
X0042550Y0401029D02*
X0058716Y0401029D01*
X0058716Y0399431D02*
X0042550Y0399431D01*
X0042550Y0397832D02*
X0058716Y0397832D01*
X0058716Y0396234D02*
X0042550Y0396234D01*
X0042550Y0394635D02*
X0058716Y0394635D01*
X0058716Y0393037D02*
X0042550Y0393037D01*
X0042550Y0391438D02*
X0058716Y0391438D01*
X0058716Y0389840D02*
X0042550Y0389840D01*
X0042550Y0388241D02*
X0058716Y0388241D01*
X0058716Y0386643D02*
X0042550Y0386643D01*
X0042550Y0385044D02*
X0058716Y0385044D01*
X0058716Y0383446D02*
X0042550Y0383446D01*
X0042550Y0381847D02*
X0058716Y0381847D01*
X0058716Y0380249D02*
X0042550Y0380249D01*
X0042550Y0378650D02*
X0058716Y0378650D01*
X0058716Y0377052D02*
X0042550Y0377052D01*
X0042550Y0375453D02*
X0058716Y0375453D01*
X0058716Y0373855D02*
X0042550Y0373855D01*
X0042550Y0372256D02*
X0058716Y0372256D01*
X0058716Y0370658D02*
X0042550Y0370658D01*
X0042550Y0369059D02*
X0058716Y0369059D01*
X0058716Y0367461D02*
X0042550Y0367461D01*
X0042550Y0365862D02*
X0058716Y0365862D01*
X0058716Y0364264D02*
X0042550Y0364264D01*
X0042550Y0362665D02*
X0058716Y0362665D01*
X0058716Y0361067D02*
X0042550Y0361067D01*
X0042550Y0359468D02*
X0058716Y0359468D01*
X0058716Y0357870D02*
X0042550Y0357870D01*
X0042550Y0356271D02*
X0058716Y0356271D01*
X0058716Y0354672D02*
X0042550Y0354672D01*
X0042550Y0353074D02*
X0058716Y0353074D01*
X0058716Y0351475D02*
X0042550Y0351475D01*
X0042550Y0349877D02*
X0058716Y0349877D01*
X0058716Y0348278D02*
X0042550Y0348278D01*
X0042550Y0346680D02*
X0058716Y0346680D01*
X0058716Y0345081D02*
X0042550Y0345081D01*
X0042550Y0343483D02*
X0058716Y0343483D01*
X0058716Y0341884D02*
X0042550Y0341884D01*
X0042550Y0340286D02*
X0058716Y0340286D01*
X0058716Y0338687D02*
X0042550Y0338687D01*
X0042550Y0337089D02*
X0058716Y0337089D01*
X0058716Y0335490D02*
X0042550Y0335490D01*
X0042550Y0333892D02*
X0058716Y0333892D01*
X0058716Y0332293D02*
X0042550Y0332293D01*
X0042550Y0330695D02*
X0058716Y0330695D01*
X0058716Y0329096D02*
X0042550Y0329096D01*
X0042550Y0327498D02*
X0058716Y0327498D01*
X0058716Y0325899D02*
X0042550Y0325899D01*
X0042550Y0324301D02*
X0058716Y0324301D01*
X0059127Y0322702D02*
X0042550Y0322702D01*
X0042550Y0321104D02*
X0060709Y0321104D01*
X0062307Y0319505D02*
X0042550Y0319505D01*
X0042550Y0317907D02*
X0063906Y0317907D01*
X0065504Y0316308D02*
X0042550Y0316308D01*
X0042550Y0314710D02*
X0067103Y0314710D01*
X0068701Y0313111D02*
X0042550Y0313111D01*
X0042550Y0311513D02*
X0070300Y0311513D01*
X0071898Y0309914D02*
X0042550Y0309914D01*
X0042550Y0308316D02*
X0073497Y0308316D01*
X0075095Y0306717D02*
X0042550Y0306717D01*
X0042550Y0305119D02*
X0100444Y0305119D01*
X0102042Y0303520D02*
X0042550Y0303520D01*
X0042550Y0301922D02*
X0092171Y0301922D01*
X0091776Y0301783D02*
X0090531Y0301184D01*
X0089361Y0300449D01*
X0088281Y0299587D01*
X0087304Y0298611D01*
X0086443Y0297530D01*
X0085708Y0296361D01*
X0085109Y0295116D01*
X0084652Y0293812D01*
X0084345Y0292465D01*
X0084202Y0291202D01*
X0095690Y0291202D01*
X0095690Y0302689D01*
X0094427Y0302547D01*
X0093080Y0302239D01*
X0091776Y0301783D01*
X0089204Y0300323D02*
X0042550Y0300323D01*
X0042550Y0298725D02*
X0087418Y0298725D01*
X0086189Y0297126D02*
X0042550Y0297126D01*
X0042550Y0295528D02*
X0085307Y0295528D01*
X0084693Y0293929D02*
X0042550Y0293929D01*
X0042550Y0292331D02*
X0084330Y0292331D01*
X0084202Y0289602D02*
X0084345Y0288338D01*
X0084652Y0286991D01*
X0085109Y0285687D01*
X0085708Y0284442D01*
X0086443Y0283273D01*
X0087304Y0282193D01*
X0088281Y0281216D01*
X0089361Y0280354D01*
X0090531Y0279619D01*
X0091776Y0279020D01*
X0093080Y0278564D01*
X0094427Y0278256D01*
X0095690Y0278114D01*
X0095690Y0289602D01*
X0084202Y0289602D01*
X0084255Y0289134D02*
X0042550Y0289134D01*
X0042550Y0290732D02*
X0095690Y0290732D01*
X0095690Y0291202D02*
X0095690Y0289602D01*
X0097290Y0289602D01*
X0097290Y0291202D01*
X0095690Y0291202D01*
X0095690Y0292331D02*
X0097290Y0292331D01*
X0097290Y0291202D02*
X0097290Y0302689D01*
X0098554Y0302547D01*
X0099901Y0302239D01*
X0101205Y0301783D01*
X0102449Y0301184D01*
X0103619Y0300449D01*
X0104699Y0299587D01*
X0105676Y0298611D01*
X0106537Y0297530D01*
X0107272Y0296361D01*
X0107872Y0295116D01*
X0108328Y0293812D01*
X0108635Y0292465D01*
X0108778Y0291202D01*
X0097290Y0291202D01*
X0097290Y0290732D02*
X0164830Y0290732D01*
X0166429Y0289134D02*
X0108725Y0289134D01*
X0108778Y0289602D02*
X0097290Y0289602D01*
X0097290Y0278114D01*
X0098554Y0278256D01*
X0099901Y0278564D01*
X0101205Y0279020D01*
X0102449Y0279619D01*
X0103619Y0280354D01*
X0104699Y0281216D01*
X0105676Y0282193D01*
X0106537Y0283273D01*
X0107272Y0284442D01*
X0107872Y0285687D01*
X0108328Y0286991D01*
X0108635Y0288338D01*
X0108778Y0289602D01*
X0108452Y0287535D02*
X0112773Y0287535D01*
X0112059Y0285937D02*
X0107959Y0285937D01*
X0107207Y0284338D02*
X0112278Y0284338D01*
X0113577Y0282739D02*
X0106112Y0282739D01*
X0104605Y0281141D02*
X0130106Y0281141D01*
X0128508Y0282739D02*
X0123173Y0282739D01*
X0119827Y0282739D02*
X0116923Y0282739D01*
X0113232Y0292331D02*
X0108651Y0292331D01*
X0108287Y0293929D02*
X0111633Y0293929D01*
X0110035Y0295528D02*
X0107674Y0295528D01*
X0108436Y0297126D02*
X0106791Y0297126D01*
X0106838Y0298725D02*
X0105562Y0298725D01*
X0105239Y0300323D02*
X0103777Y0300323D01*
X0103641Y0301922D02*
X0100809Y0301922D01*
X0097290Y0301922D02*
X0095690Y0301922D01*
X0095690Y0300323D02*
X0097290Y0300323D01*
X0097290Y0298725D02*
X0095690Y0298725D01*
X0095690Y0297126D02*
X0097290Y0297126D01*
X0097290Y0295528D02*
X0095690Y0295528D01*
X0095690Y0293929D02*
X0097290Y0293929D01*
X0097290Y0289134D02*
X0095690Y0289134D01*
X0095690Y0287535D02*
X0097290Y0287535D01*
X0097290Y0285937D02*
X0095690Y0285937D01*
X0095690Y0284338D02*
X0097290Y0284338D01*
X0097290Y0282739D02*
X0095690Y0282739D01*
X0095690Y0281141D02*
X0097290Y0281141D01*
X0097290Y0279542D02*
X0095690Y0279542D01*
X0092104Y0273148D02*
X0138099Y0273148D01*
X0139697Y0271550D02*
X0093703Y0271550D01*
X0095301Y0269951D02*
X0141296Y0269951D01*
X0142894Y0268353D02*
X0131185Y0268353D01*
X0129315Y0268353D02*
X0096900Y0268353D01*
X0098498Y0266754D02*
X0127529Y0266754D01*
X0127256Y0265156D02*
X0100097Y0265156D01*
X0101695Y0263557D02*
X0127959Y0263557D01*
X0128864Y0261959D02*
X0103294Y0261959D01*
X0104892Y0260360D02*
X0125877Y0260360D01*
X0124825Y0258762D02*
X0106491Y0258762D01*
X0108089Y0257163D02*
X0121449Y0257163D01*
X0121006Y0255565D02*
X0108800Y0255565D01*
X0108800Y0253966D02*
X0121395Y0253966D01*
X0123880Y0252368D02*
X0108800Y0252368D01*
X0108800Y0250769D02*
X0124200Y0250769D01*
X0124200Y0249171D02*
X0108800Y0249171D01*
X0108800Y0247572D02*
X0124200Y0247572D01*
X0124200Y0245974D02*
X0108800Y0245974D01*
X0104200Y0245974D02*
X0085529Y0245974D01*
X0083930Y0247572D02*
X0104200Y0247572D01*
X0104200Y0249171D02*
X0082332Y0249171D01*
X0080733Y0250769D02*
X0104200Y0250769D01*
X0104200Y0252368D02*
X0079135Y0252368D01*
X0077536Y0253966D02*
X0104200Y0253966D01*
X0103183Y0255565D02*
X0069688Y0255565D01*
X0068089Y0257163D02*
X0101584Y0257163D01*
X0099985Y0258762D02*
X0066491Y0258762D01*
X0064892Y0260360D02*
X0098387Y0260360D01*
X0096788Y0261959D02*
X0063294Y0261959D01*
X0061695Y0263557D02*
X0095190Y0263557D01*
X0093591Y0265156D02*
X0059132Y0265156D01*
X0058469Y0267681D02*
X0059819Y0269031D01*
X0060550Y0270795D01*
X0060550Y0272705D01*
X0059819Y0274469D01*
X0058469Y0275819D01*
X0056705Y0276550D01*
X0048795Y0276550D01*
X0047031Y0275819D01*
X0045681Y0274469D01*
X0044950Y0272705D01*
X0044950Y0270795D01*
X0045681Y0269031D01*
X0047031Y0267681D01*
X0048795Y0266950D01*
X0056705Y0266950D01*
X0058469Y0267681D01*
X0059141Y0268353D02*
X0090394Y0268353D01*
X0088796Y0269951D02*
X0060200Y0269951D01*
X0060550Y0271550D02*
X0087197Y0271550D01*
X0085599Y0273148D02*
X0060366Y0273148D01*
X0059541Y0274747D02*
X0084000Y0274747D01*
X0082402Y0276345D02*
X0057199Y0276345D01*
X0059550Y0258762D02*
X0059985Y0258762D01*
X0061584Y0257163D02*
X0057220Y0257163D01*
X0058723Y0255565D02*
X0063183Y0255565D01*
X0064781Y0253966D02*
X0060027Y0253966D01*
X0060550Y0252368D02*
X0066380Y0252368D01*
X0067978Y0250769D02*
X0060539Y0250769D01*
X0059877Y0249171D02*
X0075827Y0249171D01*
X0077425Y0247572D02*
X0058207Y0247572D01*
X0058096Y0245974D02*
X0079024Y0245974D01*
X0080622Y0244375D02*
X0059858Y0244375D01*
X0059993Y0239450D02*
X0075547Y0239450D01*
X0085450Y0229547D01*
X0085450Y0221062D01*
X0084557Y0221955D01*
X0083385Y0222441D01*
X0082115Y0222441D01*
X0080943Y0221955D01*
X0080045Y0221057D01*
X0079559Y0219885D01*
X0079559Y0218615D01*
X0080045Y0217443D01*
X0080450Y0217038D01*
X0080450Y0205300D01*
X0068047Y0205300D01*
X0062688Y0199941D01*
X0062115Y0199941D01*
X0061175Y0199551D01*
X0060789Y0199938D01*
X0052211Y0199938D01*
X0051157Y0198883D01*
X0051157Y0191093D01*
X0052211Y0190039D01*
X0060789Y0190039D01*
X0061843Y0191093D01*
X0061843Y0192688D01*
X0061941Y0192688D01*
X0062812Y0193559D01*
X0063385Y0193559D01*
X0064557Y0194045D01*
X0065455Y0194943D01*
X0065941Y0196115D01*
X0065941Y0196688D01*
X0069953Y0200700D01*
X0072256Y0200700D01*
X0072256Y0199905D01*
X0072712Y0198804D01*
X0072950Y0198566D01*
X0072950Y0197434D01*
X0072712Y0197196D01*
X0072256Y0196095D01*
X0072256Y0194905D01*
X0072712Y0193804D01*
X0072891Y0193625D01*
X0072712Y0193446D01*
X0072256Y0192345D01*
X0072256Y0191155D01*
X0072712Y0190054D01*
X0072950Y0189816D01*
X0072950Y0184934D01*
X0072712Y0184696D01*
X0072256Y0183595D01*
X0072256Y0182405D01*
X0072610Y0181550D01*
X0046203Y0181550D01*
X0042550Y0185203D01*
X0042550Y0237447D01*
X0045547Y0234450D01*
X0045779Y0234450D01*
X0045645Y0234266D01*
X0045302Y0233593D01*
X0045068Y0232874D01*
X0044950Y0232128D01*
X0044950Y0231950D01*
X0052550Y0231950D01*
X0052550Y0231550D01*
X0052950Y0231550D01*
X0052950Y0231950D01*
X0060550Y0231950D01*
X0060550Y0232128D01*
X0060432Y0232874D01*
X0060198Y0233593D01*
X0059855Y0234266D01*
X0059721Y0234450D01*
X0063047Y0234450D01*
X0072950Y0224547D01*
X0072950Y0211184D01*
X0072712Y0210946D01*
X0072256Y0209845D01*
X0072256Y0208655D01*
X0072712Y0207554D01*
X0073554Y0206712D01*
X0074655Y0206256D01*
X0075845Y0206256D01*
X0076946Y0206712D01*
X0077788Y0207554D01*
X0078244Y0208655D01*
X0078244Y0209845D01*
X0077788Y0210946D01*
X0077550Y0211184D01*
X0077550Y0226453D01*
X0066300Y0237703D01*
X0064953Y0239050D01*
X0059827Y0239050D01*
X0059993Y0239450D01*
X0060331Y0233186D02*
X0064312Y0233186D01*
X0065910Y0231587D02*
X0052950Y0231587D01*
X0052950Y0231550D02*
X0060550Y0231550D01*
X0060550Y0231372D01*
X0060432Y0230626D01*
X0060198Y0229907D01*
X0059855Y0229234D01*
X0059411Y0228623D01*
X0058877Y0228089D01*
X0058266Y0227645D01*
X0057593Y0227302D01*
X0056874Y0227068D01*
X0056128Y0226950D01*
X0052950Y0226950D01*
X0052950Y0231550D01*
X0052550Y0231550D02*
X0052550Y0226950D01*
X0049372Y0226950D01*
X0048626Y0227068D01*
X0047907Y0227302D01*
X0047234Y0227645D01*
X0046623Y0228089D01*
X0046089Y0228623D01*
X0045645Y0229234D01*
X0045302Y0229907D01*
X0045068Y0230626D01*
X0044950Y0231372D01*
X0044950Y0231550D01*
X0052550Y0231550D01*
X0052550Y0231587D02*
X0042550Y0231587D01*
X0042550Y0229989D02*
X0045275Y0229989D01*
X0046322Y0228390D02*
X0042550Y0228390D01*
X0042550Y0226792D02*
X0070706Y0226792D01*
X0069107Y0228390D02*
X0059178Y0228390D01*
X0060225Y0229989D02*
X0067509Y0229989D01*
X0069219Y0234784D02*
X0080213Y0234784D01*
X0078615Y0236383D02*
X0067620Y0236383D01*
X0066022Y0237981D02*
X0077016Y0237981D01*
X0078726Y0242777D02*
X0082221Y0242777D01*
X0083819Y0241178D02*
X0080324Y0241178D01*
X0081923Y0239580D02*
X0085418Y0239580D01*
X0087016Y0237981D02*
X0083522Y0237981D01*
X0085120Y0236383D02*
X0088615Y0236383D01*
X0090213Y0234784D02*
X0086719Y0234784D01*
X0088317Y0233186D02*
X0091812Y0233186D01*
X0092950Y0231587D02*
X0089916Y0231587D01*
X0090050Y0229989D02*
X0092950Y0229989D01*
X0092950Y0228390D02*
X0090050Y0228390D01*
X0090050Y0226792D02*
X0092950Y0226792D01*
X0092950Y0225193D02*
X0090050Y0225193D01*
X0090050Y0223595D02*
X0092950Y0223595D01*
X0095120Y0236383D02*
X0096700Y0236383D01*
X0096700Y0237981D02*
X0093522Y0237981D01*
X0091923Y0239580D02*
X0096700Y0239580D01*
X0096700Y0241178D02*
X0090324Y0241178D01*
X0088726Y0242777D02*
X0097040Y0242777D01*
X0098087Y0244375D02*
X0087127Y0244375D01*
X0081812Y0233186D02*
X0070817Y0233186D01*
X0072416Y0231587D02*
X0083410Y0231587D01*
X0085009Y0229989D02*
X0074014Y0229989D01*
X0075613Y0228390D02*
X0085450Y0228390D01*
X0085450Y0226792D02*
X0077211Y0226792D01*
X0077550Y0225193D02*
X0085450Y0225193D01*
X0085450Y0223595D02*
X0077550Y0223595D01*
X0077550Y0221996D02*
X0081042Y0221996D01*
X0079772Y0220398D02*
X0077550Y0220398D01*
X0077550Y0218799D02*
X0079559Y0218799D01*
X0080287Y0217201D02*
X0077550Y0217201D01*
X0077550Y0215602D02*
X0080450Y0215602D01*
X0080450Y0214003D02*
X0077550Y0214003D01*
X0077550Y0212405D02*
X0080450Y0212405D01*
X0080450Y0210806D02*
X0077846Y0210806D01*
X0078244Y0209208D02*
X0080450Y0209208D01*
X0080450Y0207609D02*
X0077811Y0207609D01*
X0080450Y0206011D02*
X0057275Y0206011D01*
X0057275Y0205237D02*
X0057275Y0206787D01*
X0055725Y0206787D01*
X0055725Y0210961D01*
X0052720Y0210961D01*
X0052262Y0210839D01*
X0051851Y0210602D01*
X0051516Y0210267D01*
X0051279Y0209856D01*
X0051157Y0209398D01*
X0051157Y0206787D01*
X0055725Y0206787D01*
X0055725Y0205237D01*
X0051157Y0205237D01*
X0051157Y0202625D01*
X0051279Y0202167D01*
X0051516Y0201757D01*
X0051851Y0201422D01*
X0052262Y0201185D01*
X0052720Y0201062D01*
X0055725Y0201062D01*
X0055725Y0205237D01*
X0057275Y0205237D01*
X0061843Y0205237D01*
X0061843Y0202625D01*
X0061721Y0202167D01*
X0061484Y0201757D01*
X0061149Y0201422D01*
X0060738Y0201185D01*
X0060280Y0201062D01*
X0057275Y0201062D01*
X0057275Y0205237D01*
X0057275Y0204412D02*
X0055725Y0204412D01*
X0055725Y0202814D02*
X0057275Y0202814D01*
X0057275Y0201215D02*
X0055725Y0201215D01*
X0055725Y0206011D02*
X0042550Y0206011D01*
X0042550Y0207609D02*
X0051157Y0207609D01*
X0051157Y0209208D02*
X0042550Y0209208D01*
X0042550Y0210806D02*
X0052206Y0210806D01*
X0055725Y0210806D02*
X0057275Y0210806D01*
X0057275Y0210961D02*
X0057275Y0206787D01*
X0061843Y0206787D01*
X0061843Y0209398D01*
X0061721Y0209856D01*
X0061484Y0210267D01*
X0061149Y0210602D01*
X0060738Y0210839D01*
X0060280Y0210961D01*
X0057275Y0210961D01*
X0057275Y0209208D02*
X0055725Y0209208D01*
X0055725Y0207609D02*
X0057275Y0207609D01*
X0060794Y0210806D02*
X0072654Y0210806D01*
X0072950Y0212405D02*
X0042550Y0212405D01*
X0042550Y0214003D02*
X0072950Y0214003D01*
X0072950Y0215602D02*
X0042550Y0215602D01*
X0042550Y0217201D02*
X0072950Y0217201D01*
X0072950Y0218799D02*
X0042550Y0218799D01*
X0042550Y0220398D02*
X0072950Y0220398D01*
X0072950Y0221996D02*
X0042550Y0221996D01*
X0042550Y0223595D02*
X0072950Y0223595D01*
X0072304Y0225193D02*
X0042550Y0225193D01*
X0042550Y0233186D02*
X0045169Y0233186D01*
X0045213Y0234784D02*
X0042550Y0234784D01*
X0042550Y0236383D02*
X0043615Y0236383D01*
X0045050Y0244375D02*
X0045642Y0244375D01*
X0045050Y0245974D02*
X0047404Y0245974D01*
X0047293Y0247572D02*
X0045050Y0247572D01*
X0042615Y0252368D02*
X0042550Y0252368D01*
X0042550Y0253966D02*
X0044214Y0253966D01*
X0042550Y0255565D02*
X0046777Y0255565D01*
X0048280Y0257163D02*
X0042550Y0257163D01*
X0042550Y0258762D02*
X0045950Y0258762D01*
X0045130Y0260360D02*
X0042550Y0260360D01*
X0042550Y0261959D02*
X0044950Y0261959D01*
X0045303Y0263557D02*
X0042550Y0263557D01*
X0042550Y0265156D02*
X0046368Y0265156D01*
X0046359Y0268353D02*
X0042550Y0268353D01*
X0042550Y0269951D02*
X0045300Y0269951D01*
X0044950Y0271550D02*
X0042550Y0271550D01*
X0042550Y0273148D02*
X0045134Y0273148D01*
X0045959Y0274747D02*
X0042550Y0274747D01*
X0042550Y0276345D02*
X0048301Y0276345D01*
X0042550Y0277944D02*
X0080803Y0277944D01*
X0079205Y0279542D02*
X0042550Y0279542D01*
X0042550Y0281141D02*
X0076625Y0281141D01*
X0076006Y0282739D02*
X0042550Y0282739D01*
X0042550Y0284338D02*
X0076314Y0284338D01*
X0078266Y0285937D02*
X0042550Y0285937D01*
X0042550Y0287535D02*
X0084528Y0287535D01*
X0085021Y0285937D02*
X0079734Y0285937D01*
X0081686Y0284338D02*
X0085774Y0284338D01*
X0086868Y0282739D02*
X0082513Y0282739D01*
X0084112Y0281141D02*
X0088375Y0281141D01*
X0090691Y0279542D02*
X0085710Y0279542D01*
X0087309Y0277944D02*
X0133303Y0277944D01*
X0131705Y0279542D02*
X0102290Y0279542D01*
X0091993Y0266754D02*
X0042550Y0266754D01*
X0052550Y0229989D02*
X0052950Y0229989D01*
X0052950Y0228390D02*
X0052550Y0228390D01*
X0061843Y0209208D02*
X0072256Y0209208D01*
X0072689Y0207609D02*
X0061843Y0207609D01*
X0061843Y0204412D02*
X0067160Y0204412D01*
X0065561Y0202814D02*
X0061843Y0202814D01*
X0060791Y0201215D02*
X0063963Y0201215D01*
X0061334Y0199617D02*
X0061110Y0199617D01*
X0062476Y0193223D02*
X0072620Y0193223D01*
X0072291Y0194821D02*
X0065333Y0194821D01*
X0065941Y0196420D02*
X0072391Y0196420D01*
X0072950Y0198018D02*
X0067271Y0198018D01*
X0068870Y0199617D02*
X0072375Y0199617D01*
X0072256Y0191624D02*
X0061843Y0191624D01*
X0051890Y0199617D02*
X0042550Y0199617D01*
X0042550Y0201215D02*
X0052209Y0201215D01*
X0051157Y0202814D02*
X0042550Y0202814D01*
X0042550Y0204412D02*
X0051157Y0204412D01*
X0051157Y0198018D02*
X0042550Y0198018D01*
X0042550Y0196420D02*
X0051157Y0196420D01*
X0051157Y0194821D02*
X0042550Y0194821D01*
X0042550Y0193223D02*
X0051157Y0193223D01*
X0051157Y0191624D02*
X0042550Y0191624D01*
X0042550Y0190026D02*
X0072740Y0190026D01*
X0072950Y0188427D02*
X0042550Y0188427D01*
X0042550Y0186829D02*
X0072950Y0186829D01*
X0072950Y0185230D02*
X0042550Y0185230D01*
X0044121Y0183632D02*
X0072271Y0183632D01*
X0072410Y0182033D02*
X0045719Y0182033D01*
X0035450Y0204412D02*
X0029246Y0204412D01*
X0030845Y0206011D02*
X0035450Y0206011D01*
X0035450Y0207609D02*
X0031591Y0207609D01*
X0032018Y0209208D02*
X0035450Y0209208D01*
X0035450Y0210806D02*
X0032018Y0210806D01*
X0031575Y0212405D02*
X0035450Y0212405D01*
X0035450Y0214003D02*
X0030807Y0214003D01*
X0029208Y0215602D02*
X0035450Y0215602D01*
X0023830Y0185230D02*
X0022550Y0185230D01*
X0022550Y0129282D02*
X0123280Y0129282D01*
X0121681Y0127684D02*
X0022550Y0127684D01*
X0022550Y0126085D02*
X0120083Y0126085D01*
X0118484Y0124487D02*
X0022550Y0124487D01*
X0022550Y0122888D02*
X0116886Y0122888D01*
X0115287Y0121290D02*
X0022550Y0121290D01*
X0022550Y0119691D02*
X0113689Y0119691D01*
X0112090Y0118093D02*
X0022550Y0118093D01*
X0022550Y0116494D02*
X0110492Y0116494D01*
X0108893Y0114896D02*
X0022550Y0114896D01*
X0022550Y0113297D02*
X0107295Y0113297D01*
X0105696Y0111699D02*
X0022550Y0111699D01*
X0022550Y0110100D02*
X0104098Y0110100D01*
X0102499Y0108502D02*
X0022550Y0108502D01*
X0022550Y0106903D02*
X0068401Y0106903D01*
X0066802Y0105305D02*
X0022550Y0105305D01*
X0022550Y0103706D02*
X0065204Y0103706D01*
X0063605Y0102108D02*
X0022550Y0102108D01*
X0022550Y0100509D02*
X0062007Y0100509D01*
X0060408Y0098911D02*
X0022550Y0098911D01*
X0022550Y0097312D02*
X0058809Y0097312D01*
X0057211Y0095714D02*
X0022550Y0095714D01*
X0022550Y0094115D02*
X0055612Y0094115D01*
X0054014Y0092517D02*
X0022550Y0092517D01*
X0022550Y0090918D02*
X0052415Y0090918D01*
X0050817Y0089320D02*
X0022550Y0089320D01*
X0022550Y0087721D02*
X0048237Y0087721D01*
X0047268Y0086123D02*
X0046640Y0086123D01*
X0047191Y0084524D02*
X0047414Y0084524D01*
X0048577Y0082926D02*
X0048642Y0082926D01*
X0046867Y0078130D02*
X0022550Y0078130D01*
X0022550Y0076532D02*
X0048466Y0076532D01*
X0050064Y0074933D02*
X0022550Y0074933D01*
X0022550Y0073334D02*
X0051663Y0073334D01*
X0053261Y0071736D02*
X0022550Y0071736D01*
X0022550Y0079729D02*
X0045269Y0079729D01*
X0042719Y0081327D02*
X0022550Y0081327D01*
X0022550Y0082926D02*
X0041095Y0082926D01*
X0040809Y0084524D02*
X0022550Y0084524D01*
X0022550Y0086123D02*
X0041360Y0086123D01*
X0022550Y0058948D02*
X0076700Y0058948D01*
X0076700Y0057349D02*
X0022550Y0057349D01*
X0022550Y0055751D02*
X0076700Y0055751D01*
X0076700Y0054152D02*
X0022550Y0054152D01*
X0022550Y0052554D02*
X0076700Y0052554D01*
X0076700Y0050955D02*
X0022550Y0050955D01*
X0022550Y0049357D02*
X0076700Y0049357D01*
X0076700Y0047758D02*
X0022550Y0047758D01*
X0022550Y0046160D02*
X0076700Y0046160D01*
X0076700Y0044561D02*
X0022550Y0044561D01*
X0022550Y0042963D02*
X0076700Y0042963D01*
X0076700Y0041364D02*
X0022550Y0041364D01*
X0022550Y0039766D02*
X0076700Y0039766D01*
X0076700Y0038167D02*
X0022550Y0038167D01*
X0022550Y0036569D02*
X0076700Y0036569D01*
X0076700Y0034970D02*
X0022550Y0034970D01*
X0022550Y0033372D02*
X0076700Y0033372D01*
X0076700Y0031773D02*
X0022550Y0031773D01*
X0063716Y0095714D02*
X0107053Y0095714D01*
X0106045Y0097312D02*
X0065315Y0097312D01*
X0066913Y0098911D02*
X0106137Y0098911D01*
X0106700Y0100509D02*
X0068512Y0100509D01*
X0070110Y0102108D02*
X0106700Y0102108D01*
X0106700Y0103706D02*
X0104209Y0103706D01*
X0105807Y0105305D02*
X0108052Y0105305D01*
X0107406Y0106903D02*
X0109651Y0106903D01*
X0109004Y0108502D02*
X0111249Y0108502D01*
X0110603Y0110100D02*
X0112848Y0110100D01*
X0112201Y0111699D02*
X0114446Y0111699D01*
X0113800Y0113297D02*
X0116045Y0113297D01*
X0115398Y0114896D02*
X0117643Y0114896D01*
X0116997Y0116494D02*
X0119242Y0116494D01*
X0118595Y0118093D02*
X0120840Y0118093D01*
X0120194Y0119691D02*
X0122439Y0119691D01*
X0121793Y0121290D02*
X0124037Y0121290D01*
X0123391Y0122888D02*
X0125636Y0122888D01*
X0124990Y0124487D02*
X0127234Y0124487D01*
X0126588Y0126085D02*
X0128833Y0126085D01*
X0128187Y0127684D02*
X0130431Y0127684D01*
X0129785Y0129282D02*
X0132030Y0129282D01*
X0131384Y0130881D02*
X0133628Y0130881D01*
X0133963Y0132479D02*
X0134200Y0132479D01*
X0134149Y0135676D02*
X0134200Y0135676D01*
X0128850Y0135676D02*
X0095400Y0135676D01*
X0095744Y0134078D02*
X0128075Y0134078D01*
X0126477Y0132479D02*
X0095213Y0132479D01*
X0098511Y0146866D02*
X0099470Y0146866D01*
X0099470Y0148465D02*
X0098511Y0148465D01*
X0099470Y0150063D02*
X0110450Y0150063D01*
X0110450Y0151662D02*
X0103349Y0151662D01*
X0103349Y0153260D02*
X0110450Y0153260D01*
X0110450Y0154859D02*
X0105204Y0154859D01*
X0107154Y0156457D02*
X0110450Y0156457D01*
X0110450Y0158056D02*
X0107909Y0158056D01*
X0108050Y0159450D02*
X0108050Y0159628D01*
X0107932Y0160374D01*
X0107698Y0161093D01*
X0107355Y0161766D01*
X0106911Y0162377D01*
X0106377Y0162911D01*
X0105766Y0163355D01*
X0105093Y0163698D01*
X0104374Y0163932D01*
X0103628Y0164050D01*
X0100450Y0164050D01*
X0100450Y0159450D01*
X0108050Y0159450D01*
X0108046Y0159654D02*
X0110450Y0159654D01*
X0110450Y0161253D02*
X0107617Y0161253D01*
X0106437Y0162851D02*
X0110450Y0162851D01*
X0115050Y0162851D02*
X0124200Y0162851D01*
X0124200Y0161253D02*
X0115050Y0161253D01*
X0115050Y0159654D02*
X0124200Y0159654D01*
X0124200Y0158056D02*
X0115050Y0158056D01*
X0115050Y0156457D02*
X0124200Y0156457D01*
X0124200Y0154859D02*
X0115050Y0154859D01*
X0115050Y0153260D02*
X0124200Y0153260D01*
X0124200Y0151662D02*
X0115050Y0151662D01*
X0115050Y0150063D02*
X0124200Y0150063D01*
X0123981Y0148465D02*
X0115269Y0148465D01*
X0115744Y0146866D02*
X0123506Y0146866D01*
X0123874Y0145268D02*
X0115376Y0145268D01*
X0110231Y0148465D02*
X0103349Y0148465D01*
X0103230Y0146866D02*
X0109756Y0146866D01*
X0110124Y0145268D02*
X0052485Y0145268D01*
X0050887Y0146866D02*
X0087151Y0146866D01*
X0083741Y0151662D02*
X0077936Y0151662D01*
X0078244Y0153260D02*
X0085340Y0153260D01*
X0087811Y0154859D02*
X0077625Y0154859D01*
X0078229Y0183632D02*
X0078879Y0183632D01*
X0077550Y0185230D02*
X0080478Y0185230D01*
X0082076Y0186829D02*
X0077550Y0186829D01*
X0077550Y0188427D02*
X0083675Y0188427D01*
X0078244Y0191624D02*
X0098373Y0191624D01*
X0099971Y0190026D02*
X0077760Y0190026D01*
X0077880Y0193223D02*
X0096774Y0193223D01*
X0095176Y0194821D02*
X0078209Y0194821D01*
X0078109Y0196420D02*
X0093577Y0196420D01*
X0091979Y0198018D02*
X0077550Y0198018D01*
X0078125Y0199617D02*
X0090380Y0199617D01*
X0088782Y0201215D02*
X0085464Y0201215D01*
X0085941Y0202814D02*
X0087183Y0202814D01*
X0085450Y0204812D02*
X0085050Y0205212D01*
X0085050Y0217038D01*
X0085450Y0217438D01*
X0085450Y0204812D01*
X0085450Y0206011D02*
X0085050Y0206011D01*
X0085050Y0207609D02*
X0085450Y0207609D01*
X0085450Y0209208D02*
X0085050Y0209208D01*
X0085050Y0210806D02*
X0085450Y0210806D01*
X0085450Y0212405D02*
X0085050Y0212405D01*
X0085050Y0214003D02*
X0085450Y0214003D01*
X0085450Y0215602D02*
X0085050Y0215602D01*
X0085213Y0217201D02*
X0085450Y0217201D01*
X0085450Y0221996D02*
X0084458Y0221996D01*
X0090492Y0206011D02*
X0092316Y0206011D01*
X0092090Y0204412D02*
X0093354Y0204412D01*
X0093689Y0202814D02*
X0104200Y0202814D01*
X0104200Y0204412D02*
X0097146Y0204412D01*
X0095287Y0201215D02*
X0104200Y0201215D01*
X0104200Y0199617D02*
X0096886Y0199617D01*
X0098484Y0198018D02*
X0104200Y0198018D01*
X0104200Y0196420D02*
X0100083Y0196420D01*
X0101681Y0194821D02*
X0104200Y0194821D01*
X0104274Y0193223D02*
X0103280Y0193223D01*
X0104878Y0191624D02*
X0105873Y0191624D01*
X0106477Y0190026D02*
X0107471Y0190026D01*
X0108075Y0188427D02*
X0109070Y0188427D01*
X0109674Y0186829D02*
X0110669Y0186829D01*
X0111272Y0185230D02*
X0112267Y0185230D01*
X0112871Y0183632D02*
X0113866Y0183632D01*
X0114469Y0182033D02*
X0115464Y0182033D01*
X0115050Y0180435D02*
X0117063Y0180435D01*
X0118661Y0178836D02*
X0115050Y0178836D01*
X0115050Y0177238D02*
X0120260Y0177238D01*
X0121858Y0175639D02*
X0115050Y0175639D01*
X0115050Y0174041D02*
X0123457Y0174041D01*
X0124200Y0172442D02*
X0115050Y0172442D01*
X0115050Y0170844D02*
X0124200Y0170844D01*
X0124200Y0169245D02*
X0115050Y0169245D01*
X0115050Y0167647D02*
X0124200Y0167647D01*
X0124200Y0166048D02*
X0115050Y0166048D01*
X0115050Y0164450D02*
X0124200Y0164450D01*
X0128800Y0164450D02*
X0145450Y0164450D01*
X0145450Y0166048D02*
X0128800Y0166048D01*
X0128800Y0167647D02*
X0145450Y0167647D01*
X0145450Y0169245D02*
X0128800Y0169245D01*
X0128800Y0170844D02*
X0145450Y0170844D01*
X0145450Y0172442D02*
X0128800Y0172442D01*
X0128800Y0174041D02*
X0145450Y0174041D01*
X0145450Y0175639D02*
X0128363Y0175639D01*
X0126765Y0177238D02*
X0145450Y0177238D01*
X0145450Y0178836D02*
X0125166Y0178836D01*
X0123568Y0180435D02*
X0145450Y0180435D01*
X0145450Y0182033D02*
X0121969Y0182033D01*
X0120371Y0183632D02*
X0145450Y0183632D01*
X0145450Y0185230D02*
X0118772Y0185230D01*
X0117174Y0186829D02*
X0145450Y0186829D01*
X0145450Y0188427D02*
X0115575Y0188427D01*
X0113977Y0190026D02*
X0145450Y0190026D01*
X0145450Y0191624D02*
X0112378Y0191624D01*
X0110780Y0193223D02*
X0145450Y0193223D01*
X0145450Y0194821D02*
X0109181Y0194821D01*
X0108800Y0196420D02*
X0145450Y0196420D01*
X0145450Y0198018D02*
X0108800Y0198018D01*
X0108800Y0199617D02*
X0145450Y0199617D01*
X0145450Y0201215D02*
X0108800Y0201215D01*
X0108800Y0202814D02*
X0145450Y0202814D01*
X0145450Y0204412D02*
X0108800Y0204412D01*
X0108800Y0206011D02*
X0123005Y0206011D01*
X0122256Y0207609D02*
X0108800Y0207609D01*
X0108800Y0209208D02*
X0122510Y0209208D01*
X0122950Y0210806D02*
X0108800Y0210806D01*
X0108800Y0212405D02*
X0122950Y0212405D01*
X0122950Y0214003D02*
X0108800Y0214003D01*
X0108800Y0215602D02*
X0123349Y0215602D01*
X0124200Y0217201D02*
X0108800Y0217201D01*
X0108800Y0218799D02*
X0124200Y0218799D01*
X0124200Y0220398D02*
X0108800Y0220398D01*
X0108800Y0221996D02*
X0124200Y0221996D01*
X0124200Y0223595D02*
X0108800Y0223595D01*
X0108800Y0225193D02*
X0124200Y0225193D01*
X0124200Y0226792D02*
X0108800Y0226792D01*
X0108800Y0228390D02*
X0124200Y0228390D01*
X0124200Y0229989D02*
X0108800Y0229989D01*
X0104200Y0229989D02*
X0097550Y0229989D01*
X0097550Y0231587D02*
X0098125Y0231587D01*
X0097550Y0228390D02*
X0104200Y0228390D01*
X0104200Y0226792D02*
X0097550Y0226792D01*
X0097550Y0225193D02*
X0104200Y0225193D01*
X0104200Y0223595D02*
X0097550Y0223595D01*
X0097550Y0221996D02*
X0099057Y0221996D01*
X0101443Y0221996D02*
X0104200Y0221996D01*
X0104200Y0220398D02*
X0103015Y0220398D01*
X0103244Y0218799D02*
X0104200Y0218799D01*
X0104200Y0217201D02*
X0102550Y0217201D01*
X0102550Y0215602D02*
X0104200Y0215602D01*
X0104200Y0214003D02*
X0102550Y0214003D01*
X0102550Y0212405D02*
X0104200Y0212405D01*
X0104200Y0210806D02*
X0102550Y0210806D01*
X0102990Y0209208D02*
X0104200Y0209208D01*
X0104200Y0207609D02*
X0103244Y0207609D01*
X0102495Y0206011D02*
X0104200Y0206011D01*
X0097950Y0209934D02*
X0097712Y0209696D01*
X0097550Y0209304D01*
X0097550Y0217945D01*
X0097712Y0217554D01*
X0097950Y0217316D01*
X0097950Y0209934D01*
X0097950Y0210806D02*
X0097550Y0210806D01*
X0097550Y0212405D02*
X0097950Y0212405D01*
X0097950Y0214003D02*
X0097550Y0214003D01*
X0097550Y0215602D02*
X0097950Y0215602D01*
X0097950Y0217201D02*
X0097550Y0217201D01*
X0114875Y0231587D02*
X0118125Y0231587D01*
X0118373Y0231339D02*
X0118984Y0230895D01*
X0119657Y0230552D01*
X0120376Y0230318D01*
X0121122Y0230200D01*
X0121300Y0230200D01*
X0121300Y0237800D01*
X0116700Y0237800D01*
X0116700Y0234622D01*
X0116818Y0233876D01*
X0117052Y0233157D01*
X0117395Y0232484D01*
X0117839Y0231873D01*
X0118373Y0231339D01*
X0117042Y0233186D02*
X0115944Y0233186D01*
X0116300Y0234784D02*
X0116700Y0234784D01*
X0116700Y0236383D02*
X0116300Y0236383D01*
X0116300Y0237981D02*
X0121300Y0237981D01*
X0121300Y0236383D02*
X0121700Y0236383D01*
X0121700Y0234784D02*
X0121300Y0234784D01*
X0121300Y0233186D02*
X0121700Y0233186D01*
X0121700Y0231587D02*
X0121300Y0231587D01*
X0121300Y0239580D02*
X0121700Y0239580D01*
X0121700Y0241178D02*
X0121300Y0241178D01*
X0121300Y0242777D02*
X0121700Y0242777D01*
X0121700Y0244375D02*
X0121300Y0244375D01*
X0118087Y0244375D02*
X0114913Y0244375D01*
X0115960Y0242777D02*
X0117030Y0242777D01*
X0116700Y0241178D02*
X0116300Y0241178D01*
X0116300Y0239580D02*
X0116700Y0239580D01*
X0128244Y0207609D02*
X0132256Y0207609D01*
X0133005Y0206011D02*
X0127495Y0206011D01*
X0129436Y0209208D02*
X0131064Y0209208D01*
X0137550Y0210806D02*
X0145450Y0210806D01*
X0145450Y0209208D02*
X0137990Y0209208D01*
X0138244Y0207609D02*
X0145450Y0207609D01*
X0145450Y0206011D02*
X0137495Y0206011D01*
X0137550Y0212405D02*
X0145450Y0212405D01*
X0144058Y0214003D02*
X0137550Y0214003D01*
X0137550Y0215602D02*
X0142485Y0215602D01*
X0142256Y0217201D02*
X0137550Y0217201D01*
X0137550Y0218799D02*
X0142950Y0218799D01*
X0142950Y0220398D02*
X0137550Y0220398D01*
X0137550Y0221996D02*
X0142950Y0221996D01*
X0142950Y0223595D02*
X0137550Y0223595D01*
X0137550Y0225193D02*
X0142950Y0225193D01*
X0142950Y0226792D02*
X0137550Y0226792D01*
X0137550Y0228390D02*
X0142950Y0228390D01*
X0142950Y0229989D02*
X0137550Y0229989D01*
X0137550Y0231587D02*
X0142950Y0231587D01*
X0142950Y0233186D02*
X0137550Y0233186D01*
X0137550Y0234784D02*
X0142950Y0234784D01*
X0142950Y0236383D02*
X0137550Y0236383D01*
X0137550Y0237981D02*
X0142950Y0237981D01*
X0142950Y0239580D02*
X0137550Y0239580D01*
X0137550Y0241178D02*
X0142950Y0241178D01*
X0142620Y0242777D02*
X0137550Y0242777D01*
X0137550Y0244375D02*
X0142256Y0244375D01*
X0142740Y0245974D02*
X0137550Y0245974D01*
X0137550Y0247572D02*
X0155450Y0247572D01*
X0155450Y0245974D02*
X0147760Y0245974D01*
X0149235Y0244375D02*
X0155450Y0244375D01*
X0155450Y0242777D02*
X0150565Y0242777D01*
X0150744Y0241178D02*
X0155450Y0241178D01*
X0155450Y0239580D02*
X0152836Y0239580D01*
X0153244Y0237981D02*
X0155450Y0237981D01*
X0155450Y0236383D02*
X0154851Y0236383D01*
X0155450Y0232945D02*
X0155450Y0215797D01*
X0156700Y0214547D01*
X0156700Y0212703D01*
X0155450Y0211453D01*
X0155450Y0169934D01*
X0155212Y0169696D01*
X0155050Y0169305D01*
X0155050Y0232316D01*
X0155288Y0232554D01*
X0155450Y0232945D01*
X0155450Y0231587D02*
X0155050Y0231587D01*
X0155050Y0229989D02*
X0155450Y0229989D01*
X0155450Y0228390D02*
X0155050Y0228390D01*
X0155050Y0226792D02*
X0155450Y0226792D01*
X0155450Y0225193D02*
X0155050Y0225193D01*
X0155050Y0223595D02*
X0155450Y0223595D01*
X0155450Y0221996D02*
X0155050Y0221996D01*
X0155050Y0220398D02*
X0155450Y0220398D01*
X0155450Y0218799D02*
X0155050Y0218799D01*
X0155050Y0217201D02*
X0155450Y0217201D01*
X0155645Y0215602D02*
X0155050Y0215602D01*
X0155050Y0214003D02*
X0156700Y0214003D01*
X0156402Y0212405D02*
X0155050Y0212405D01*
X0155050Y0210806D02*
X0155450Y0210806D01*
X0155450Y0209208D02*
X0155050Y0209208D01*
X0155050Y0207609D02*
X0155450Y0207609D01*
X0155450Y0206011D02*
X0155050Y0206011D01*
X0155050Y0204412D02*
X0155450Y0204412D01*
X0155450Y0202814D02*
X0155050Y0202814D01*
X0155050Y0201215D02*
X0155450Y0201215D01*
X0155450Y0199617D02*
X0155050Y0199617D01*
X0155050Y0198018D02*
X0155450Y0198018D01*
X0155450Y0196420D02*
X0155050Y0196420D01*
X0155050Y0194821D02*
X0155450Y0194821D01*
X0155450Y0193223D02*
X0155050Y0193223D01*
X0155050Y0191624D02*
X0155450Y0191624D01*
X0155450Y0190026D02*
X0155050Y0190026D01*
X0155050Y0188427D02*
X0155450Y0188427D01*
X0155450Y0186829D02*
X0155050Y0186829D01*
X0155050Y0185230D02*
X0155450Y0185230D01*
X0155450Y0183632D02*
X0155050Y0183632D01*
X0155050Y0182033D02*
X0155450Y0182033D01*
X0155450Y0180435D02*
X0155050Y0180435D01*
X0155050Y0178836D02*
X0155450Y0178836D01*
X0155450Y0177238D02*
X0155050Y0177238D01*
X0155050Y0175639D02*
X0155450Y0175639D01*
X0155450Y0174041D02*
X0155050Y0174041D01*
X0155050Y0172442D02*
X0155450Y0172442D01*
X0155450Y0170844D02*
X0155050Y0170844D01*
X0155050Y0166695D02*
X0155212Y0166304D01*
X0155391Y0166125D01*
X0155212Y0165946D01*
X0155050Y0165555D01*
X0155050Y0166695D01*
X0155050Y0166048D02*
X0155314Y0166048D01*
X0155744Y0161253D02*
X0162466Y0161253D01*
X0162466Y0162851D02*
X0160411Y0162851D01*
X0161202Y0164450D02*
X0162466Y0164450D01*
X0162466Y0159654D02*
X0154888Y0159654D01*
X0152996Y0158056D02*
X0162466Y0158056D01*
X0162466Y0156457D02*
X0151330Y0156457D01*
X0150738Y0154859D02*
X0162466Y0154859D01*
X0162466Y0153260D02*
X0150580Y0153260D01*
X0149324Y0151662D02*
X0162466Y0151662D01*
X0167008Y0142070D02*
X0178304Y0142070D01*
X0178304Y0140472D02*
X0165409Y0140472D01*
X0163811Y0138873D02*
X0178304Y0138873D01*
X0178304Y0137275D02*
X0162212Y0137275D01*
X0160614Y0135676D02*
X0178304Y0135676D01*
X0178304Y0134078D02*
X0159015Y0134078D01*
X0157417Y0132479D02*
X0178304Y0132479D01*
X0178304Y0130881D02*
X0155818Y0130881D01*
X0154220Y0129282D02*
X0178304Y0129282D01*
X0178304Y0127684D02*
X0153034Y0127684D01*
X0153034Y0126085D02*
X0178304Y0126085D01*
X0178304Y0124487D02*
X0153034Y0124487D01*
X0153034Y0122888D02*
X0178304Y0122888D01*
X0178304Y0121290D02*
X0153034Y0121290D01*
X0153034Y0119691D02*
X0178304Y0119691D01*
X0178304Y0118093D02*
X0153034Y0118093D01*
X0153034Y0116494D02*
X0178304Y0116494D01*
X0178304Y0114896D02*
X0153034Y0114896D01*
X0153034Y0113297D02*
X0178304Y0113297D01*
X0178304Y0111699D02*
X0153034Y0111699D01*
X0153034Y0110100D02*
X0178304Y0110100D01*
X0178304Y0108502D02*
X0153034Y0108502D01*
X0153034Y0106903D02*
X0178304Y0106903D01*
X0178304Y0105305D02*
X0153034Y0105305D01*
X0153034Y0103706D02*
X0178304Y0103706D01*
X0178304Y0102108D02*
X0153037Y0102108D01*
X0153441Y0100509D02*
X0178304Y0100509D01*
X0178304Y0098911D02*
X0153045Y0098911D01*
X0153034Y0097312D02*
X0178304Y0097312D01*
X0178304Y0095714D02*
X0153034Y0095714D01*
X0153034Y0094115D02*
X0178304Y0094115D01*
X0178304Y0092517D02*
X0153034Y0092517D01*
X0153034Y0090918D02*
X0178304Y0090918D01*
X0178304Y0089320D02*
X0153034Y0089320D01*
X0153034Y0087721D02*
X0178304Y0087721D01*
X0178304Y0086123D02*
X0153034Y0086123D01*
X0153034Y0084524D02*
X0178304Y0084524D01*
X0178304Y0082926D02*
X0153034Y0082926D01*
X0153034Y0081327D02*
X0178304Y0081327D01*
X0178304Y0079729D02*
X0153034Y0079729D01*
X0153034Y0078130D02*
X0178304Y0078130D01*
X0178304Y0076532D02*
X0153034Y0076532D01*
X0153034Y0074933D02*
X0178304Y0074933D01*
X0178304Y0073334D02*
X0153034Y0073334D01*
X0153034Y0071736D02*
X0178304Y0071736D01*
X0178304Y0070137D02*
X0153034Y0070137D01*
X0153034Y0068539D02*
X0178304Y0068539D01*
X0178304Y0066940D02*
X0153034Y0066940D01*
X0153034Y0065342D02*
X0178304Y0065342D01*
X0178304Y0063743D02*
X0153034Y0063743D01*
X0153034Y0062145D02*
X0178304Y0062145D01*
X0178304Y0060546D02*
X0153034Y0060546D01*
X0153034Y0058948D02*
X0178304Y0058948D01*
X0178304Y0057349D02*
X0153034Y0057349D01*
X0153034Y0055751D02*
X0178304Y0055751D01*
X0178304Y0054152D02*
X0153034Y0054152D01*
X0153034Y0052554D02*
X0178304Y0052554D01*
X0178304Y0050955D02*
X0153034Y0050955D01*
X0153141Y0049357D02*
X0178304Y0049357D01*
X0178304Y0047758D02*
X0153441Y0047758D01*
X0152922Y0046160D02*
X0178304Y0046160D01*
X0178304Y0044561D02*
X0081300Y0044561D01*
X0081300Y0042963D02*
X0178304Y0042963D01*
X0178304Y0041364D02*
X0081300Y0041364D01*
X0081300Y0039766D02*
X0178304Y0039766D01*
X0178304Y0038167D02*
X0081300Y0038167D01*
X0081300Y0036569D02*
X0178304Y0036569D01*
X0178304Y0034970D02*
X0129318Y0034970D01*
X0129219Y0035069D02*
X0127455Y0035800D01*
X0125545Y0035800D01*
X0123781Y0035069D01*
X0122431Y0033719D01*
X0121700Y0031955D01*
X0121700Y0024045D01*
X0122431Y0022281D01*
X0123781Y0020931D01*
X0125545Y0020200D01*
X0127455Y0020200D01*
X0129219Y0020931D01*
X0130569Y0022281D01*
X0131300Y0024045D01*
X0131300Y0031955D01*
X0130569Y0033719D01*
X0129219Y0035069D01*
X0130713Y0033372D02*
X0178304Y0033372D01*
X0178304Y0031773D02*
X0131300Y0031773D01*
X0131300Y0030175D02*
X0162771Y0030175D01*
X0162642Y0030130D02*
X0161397Y0029530D01*
X0160227Y0028795D01*
X0159147Y0027934D01*
X0158170Y0026957D01*
X0157309Y0025877D01*
X0156574Y0024707D01*
X0155975Y0023462D01*
X0155518Y0022158D01*
X0155211Y0020812D01*
X0155069Y0019548D01*
X0166556Y0019548D01*
X0166556Y0031036D01*
X0165293Y0030893D01*
X0163946Y0030586D01*
X0162642Y0030130D01*
X0159953Y0028576D02*
X0131300Y0028576D01*
X0131300Y0026978D02*
X0158191Y0026978D01*
X0156996Y0025379D02*
X0131300Y0025379D01*
X0131190Y0023781D02*
X0156128Y0023781D01*
X0155527Y0022182D02*
X0130470Y0022182D01*
X0128381Y0020584D02*
X0155185Y0020584D01*
X0155132Y0017387D02*
X0072550Y0017387D01*
X0072533Y0018985D02*
X0166556Y0018985D01*
X0166556Y0020584D02*
X0168156Y0020584D01*
X0168156Y0022182D02*
X0166556Y0022182D01*
X0166556Y0023781D02*
X0168156Y0023781D01*
X0168156Y0025379D02*
X0166556Y0025379D01*
X0166556Y0026978D02*
X0168156Y0026978D01*
X0168156Y0028576D02*
X0166556Y0028576D01*
X0166556Y0030175D02*
X0168156Y0030175D01*
X0171942Y0030175D02*
X0178304Y0030175D01*
X0178304Y0028576D02*
X0174760Y0028576D01*
X0176521Y0026978D02*
X0178304Y0026978D01*
X0178304Y0025379D02*
X0177716Y0025379D01*
X0178304Y0013133D02*
X0178304Y0007800D01*
X0172971Y0007800D01*
X0173315Y0007966D01*
X0174485Y0008701D01*
X0175565Y0009562D01*
X0176542Y0010539D01*
X0177403Y0011619D01*
X0178138Y0012789D01*
X0178304Y0013133D01*
X0178304Y0012591D02*
X0178014Y0012591D01*
X0178304Y0010993D02*
X0176904Y0010993D01*
X0178304Y0009394D02*
X0175354Y0009394D01*
X0159358Y0009394D02*
X0071427Y0009394D01*
X0072307Y0010993D02*
X0157809Y0010993D01*
X0156698Y0012591D02*
X0072550Y0012591D01*
X0072550Y0014190D02*
X0155920Y0014190D01*
X0155416Y0015788D02*
X0072550Y0015788D01*
X0072076Y0020584D02*
X0114619Y0020584D01*
X0118381Y0020584D02*
X0124619Y0020584D01*
X0122530Y0022182D02*
X0120470Y0022182D01*
X0121190Y0023781D02*
X0121810Y0023781D01*
X0121700Y0025379D02*
X0121300Y0025379D01*
X0121300Y0026978D02*
X0121700Y0026978D01*
X0121700Y0028576D02*
X0121300Y0028576D01*
X0121300Y0030175D02*
X0121700Y0030175D01*
X0121700Y0031773D02*
X0121300Y0031773D01*
X0120713Y0033372D02*
X0122287Y0033372D01*
X0123682Y0034970D02*
X0119318Y0034970D01*
X0113682Y0034970D02*
X0081300Y0034970D01*
X0081300Y0033372D02*
X0112287Y0033372D01*
X0111700Y0031773D02*
X0081300Y0031773D01*
X0081300Y0030175D02*
X0111700Y0030175D01*
X0111700Y0028576D02*
X0081686Y0028576D01*
X0082191Y0026978D02*
X0111700Y0026978D01*
X0111700Y0025379D02*
X0081886Y0025379D01*
X0081300Y0046160D02*
X0147578Y0046160D01*
X0147059Y0047758D02*
X0081300Y0047758D01*
X0081300Y0049357D02*
X0147359Y0049357D01*
X0147466Y0050955D02*
X0081300Y0050955D01*
X0081300Y0052554D02*
X0147466Y0052554D01*
X0147466Y0054152D02*
X0081300Y0054152D01*
X0081300Y0055751D02*
X0147466Y0055751D01*
X0147466Y0057349D02*
X0081300Y0057349D01*
X0081300Y0058948D02*
X0147466Y0058948D01*
X0147466Y0060546D02*
X0081955Y0060546D01*
X0082191Y0062145D02*
X0147466Y0062145D01*
X0147466Y0063743D02*
X0081519Y0063743D01*
X0065134Y0130881D02*
X0124878Y0130881D01*
X0128800Y0158056D02*
X0145450Y0158056D01*
X0145450Y0159654D02*
X0128800Y0159654D01*
X0128800Y0161253D02*
X0145450Y0161253D01*
X0145450Y0162851D02*
X0128800Y0162851D01*
X0100450Y0162851D02*
X0100050Y0162851D01*
X0100050Y0161253D02*
X0100450Y0161253D01*
X0100450Y0159654D02*
X0100050Y0159654D01*
X0095293Y0154860D02*
X0095118Y0154949D01*
X0095250Y0154817D01*
X0095293Y0154860D01*
X0095291Y0154859D02*
X0095209Y0154859D01*
X0137550Y0249171D02*
X0155450Y0249171D01*
X0155450Y0250769D02*
X0137550Y0250769D01*
X0137550Y0252368D02*
X0155450Y0252368D01*
X0155450Y0253966D02*
X0137550Y0253966D01*
X0137550Y0255565D02*
X0155450Y0255565D01*
X0155334Y0257163D02*
X0137550Y0257163D01*
X0137550Y0258762D02*
X0153735Y0258762D01*
X0152137Y0260360D02*
X0137550Y0260360D01*
X0138059Y0261959D02*
X0150538Y0261959D01*
X0153847Y0265156D02*
X0165403Y0265156D01*
X0165885Y0266059D02*
X0166605Y0266358D01*
X0160450Y0260203D01*
X0160450Y0217303D01*
X0160050Y0217703D01*
X0160050Y0258953D01*
X0158703Y0260300D01*
X0152053Y0266950D01*
X0163038Y0266950D01*
X0163443Y0266545D01*
X0164615Y0266059D01*
X0165885Y0266059D01*
X0163805Y0263557D02*
X0155445Y0263557D01*
X0157044Y0261959D02*
X0162206Y0261959D01*
X0160608Y0260360D02*
X0158642Y0260360D01*
X0160050Y0258762D02*
X0160450Y0258762D01*
X0160450Y0257163D02*
X0160050Y0257163D01*
X0160050Y0255565D02*
X0160450Y0255565D01*
X0160450Y0253966D02*
X0160050Y0253966D01*
X0160050Y0252368D02*
X0160450Y0252368D01*
X0160450Y0250769D02*
X0160050Y0250769D01*
X0160050Y0249171D02*
X0160450Y0249171D01*
X0160450Y0247572D02*
X0160050Y0247572D01*
X0160050Y0245974D02*
X0160450Y0245974D01*
X0160450Y0244375D02*
X0160050Y0244375D01*
X0160050Y0242777D02*
X0160450Y0242777D01*
X0160450Y0241178D02*
X0160050Y0241178D01*
X0160050Y0239580D02*
X0160450Y0239580D01*
X0160450Y0237981D02*
X0160050Y0237981D01*
X0160050Y0236383D02*
X0160450Y0236383D01*
X0160450Y0234784D02*
X0160050Y0234784D01*
X0160050Y0233186D02*
X0160450Y0233186D01*
X0160450Y0231587D02*
X0160050Y0231587D01*
X0160050Y0229989D02*
X0160450Y0229989D01*
X0160450Y0228390D02*
X0160050Y0228390D01*
X0160050Y0226792D02*
X0160450Y0226792D01*
X0160450Y0225193D02*
X0160050Y0225193D01*
X0160050Y0223595D02*
X0160450Y0223595D01*
X0160450Y0221996D02*
X0160050Y0221996D01*
X0160050Y0220398D02*
X0160450Y0220398D01*
X0160450Y0218799D02*
X0160050Y0218799D01*
X0160450Y0209947D02*
X0160050Y0209547D01*
X0160050Y0169934D01*
X0160116Y0169868D01*
X0160450Y0170203D01*
X0160450Y0209947D01*
X0160450Y0209208D02*
X0160050Y0209208D01*
X0160050Y0207609D02*
X0160450Y0207609D01*
X0160450Y0206011D02*
X0160050Y0206011D01*
X0160050Y0204412D02*
X0160450Y0204412D01*
X0160450Y0202814D02*
X0160050Y0202814D01*
X0160050Y0201215D02*
X0160450Y0201215D01*
X0160450Y0199617D02*
X0160050Y0199617D01*
X0160050Y0198018D02*
X0160450Y0198018D01*
X0160450Y0196420D02*
X0160050Y0196420D01*
X0160050Y0194821D02*
X0160450Y0194821D01*
X0160450Y0193223D02*
X0160050Y0193223D01*
X0160050Y0191624D02*
X0160450Y0191624D01*
X0160450Y0190026D02*
X0160050Y0190026D01*
X0160050Y0188427D02*
X0160450Y0188427D01*
X0160450Y0186829D02*
X0160050Y0186829D01*
X0160050Y0185230D02*
X0160450Y0185230D01*
X0160450Y0183632D02*
X0160050Y0183632D01*
X0160050Y0182033D02*
X0160450Y0182033D01*
X0160450Y0180435D02*
X0160050Y0180435D01*
X0160050Y0178836D02*
X0160450Y0178836D01*
X0160450Y0177238D02*
X0160050Y0177238D01*
X0160050Y0175639D02*
X0160450Y0175639D01*
X0160450Y0174041D02*
X0160050Y0174041D01*
X0160050Y0172442D02*
X0160450Y0172442D01*
X0160450Y0170844D02*
X0160050Y0170844D01*
X0168034Y0170844D02*
X0178304Y0170844D01*
X0178304Y0172442D02*
X0168034Y0172442D01*
X0168034Y0174041D02*
X0178304Y0174041D01*
X0178304Y0169245D02*
X0168034Y0169245D01*
X0168034Y0167647D02*
X0178304Y0167647D01*
X0178304Y0166048D02*
X0168034Y0166048D01*
X0168034Y0164450D02*
X0178304Y0164450D01*
X0178304Y0162851D02*
X0168034Y0162851D01*
X0168034Y0161253D02*
X0178304Y0161253D01*
X0178304Y0159654D02*
X0168034Y0159654D01*
X0168034Y0158056D02*
X0178304Y0158056D01*
X0178304Y0156457D02*
X0168034Y0156457D01*
X0168034Y0154859D02*
X0178304Y0154859D01*
X0178304Y0153260D02*
X0168034Y0153260D01*
X0168034Y0151662D02*
X0178304Y0151662D01*
X0178304Y0150063D02*
X0168034Y0150063D01*
X0168034Y0148465D02*
X0178304Y0148465D01*
X0178304Y0146866D02*
X0168034Y0146866D01*
X0168034Y0145268D02*
X0178304Y0145268D01*
X0178304Y0143669D02*
X0168023Y0143669D01*
X0168034Y0183072D02*
X0168034Y0185428D01*
X0168281Y0185181D01*
X0170045Y0184450D01*
X0177955Y0184450D01*
X0178304Y0184595D01*
X0178304Y0183905D01*
X0177955Y0184050D01*
X0170045Y0184050D01*
X0168281Y0183319D01*
X0168034Y0183072D01*
X0168034Y0183632D02*
X0169036Y0183632D01*
X0168231Y0185230D02*
X0168034Y0185230D01*
X0168034Y0193072D02*
X0168034Y0195472D01*
X0168484Y0195145D01*
X0169157Y0194802D01*
X0169876Y0194568D01*
X0170622Y0194450D01*
X0173800Y0194450D01*
X0173800Y0199050D01*
X0174200Y0199050D01*
X0174200Y0194450D01*
X0177378Y0194450D01*
X0178124Y0194568D01*
X0178304Y0194627D01*
X0178304Y0193905D01*
X0177955Y0194050D01*
X0170045Y0194050D01*
X0168281Y0193319D01*
X0168034Y0193072D01*
X0168034Y0193223D02*
X0168185Y0193223D01*
X0168034Y0194821D02*
X0169119Y0194821D01*
X0173800Y0194821D02*
X0174200Y0194821D01*
X0174200Y0196420D02*
X0173800Y0196420D01*
X0173800Y0198018D02*
X0174200Y0198018D01*
X0174200Y0199617D02*
X0173800Y0199617D01*
X0173800Y0201215D02*
X0174200Y0201215D01*
X0174200Y0202814D02*
X0173800Y0202814D01*
X0178304Y0204412D02*
X0168034Y0204412D01*
X0168034Y0206011D02*
X0178304Y0206011D01*
X0178304Y0207609D02*
X0168034Y0207609D01*
X0168034Y0209208D02*
X0178304Y0209208D01*
X0178304Y0210806D02*
X0168034Y0210806D01*
X0168034Y0212405D02*
X0178304Y0212405D01*
X0178304Y0214003D02*
X0168034Y0214003D01*
X0168034Y0215602D02*
X0178304Y0215602D01*
X0178304Y0217201D02*
X0168034Y0217201D01*
X0168034Y0218799D02*
X0178304Y0218799D01*
X0178304Y0220398D02*
X0168034Y0220398D01*
X0168034Y0221996D02*
X0178304Y0221996D01*
X0178304Y0223595D02*
X0168034Y0223595D01*
X0168034Y0225193D02*
X0178304Y0225193D01*
X0178304Y0226792D02*
X0168034Y0226792D01*
X0168034Y0228390D02*
X0178304Y0228390D01*
X0178304Y0229989D02*
X0168034Y0229989D01*
X0168034Y0231587D02*
X0178304Y0231587D01*
X0178304Y0233186D02*
X0168034Y0233186D01*
X0168034Y0234784D02*
X0178304Y0234784D01*
X0178304Y0236383D02*
X0168034Y0236383D01*
X0168034Y0237981D02*
X0178304Y0237981D01*
X0178304Y0239580D02*
X0168034Y0239580D01*
X0168034Y0241178D02*
X0178304Y0241178D01*
X0178304Y0242777D02*
X0168034Y0242777D01*
X0168034Y0244375D02*
X0178304Y0244375D01*
X0178304Y0245974D02*
X0168034Y0245974D01*
X0168034Y0247572D02*
X0178304Y0247572D01*
X0178304Y0249171D02*
X0168034Y0249171D01*
X0168034Y0250769D02*
X0178304Y0250769D01*
X0178304Y0252368D02*
X0168034Y0252368D01*
X0168034Y0253966D02*
X0178304Y0253966D01*
X0178304Y0255565D02*
X0169252Y0255565D01*
X0170851Y0257163D02*
X0178304Y0257163D01*
X0178304Y0258762D02*
X0172449Y0258762D01*
X0174048Y0260360D02*
X0178304Y0260360D01*
X0178304Y0261959D02*
X0175646Y0261959D01*
X0176727Y0263557D02*
X0178304Y0263557D01*
X0178304Y0265156D02*
X0176784Y0265156D01*
X0176784Y0266754D02*
X0178304Y0266754D01*
X0178304Y0268353D02*
X0176784Y0268353D01*
X0176784Y0269951D02*
X0178304Y0269951D01*
X0178304Y0271550D02*
X0176784Y0271550D01*
X0176784Y0273148D02*
X0178304Y0273148D01*
X0178304Y0274747D02*
X0176784Y0274747D01*
X0176784Y0276345D02*
X0178304Y0276345D01*
X0178304Y0277944D02*
X0176784Y0277944D01*
X0176784Y0279542D02*
X0178304Y0279542D01*
X0178304Y0281141D02*
X0176784Y0281141D01*
X0176784Y0282739D02*
X0178304Y0282739D01*
X0178304Y0284338D02*
X0176784Y0284338D01*
X0176784Y0285937D02*
X0178304Y0285937D01*
X0178304Y0287535D02*
X0175902Y0287535D01*
X0174304Y0289134D02*
X0178304Y0289134D01*
X0178304Y0290732D02*
X0172705Y0290732D01*
X0171107Y0292331D02*
X0178304Y0292331D01*
X0178304Y0293929D02*
X0169508Y0293929D01*
X0167910Y0295528D02*
X0178304Y0295528D01*
X0178304Y0297126D02*
X0116311Y0297126D01*
X0114713Y0298725D02*
X0178304Y0298725D01*
X0178304Y0300323D02*
X0113114Y0300323D01*
X0111516Y0301922D02*
X0178304Y0301922D01*
X0178304Y0303520D02*
X0109917Y0303520D01*
X0108319Y0305119D02*
X0178304Y0305119D01*
X0178304Y0306717D02*
X0106720Y0306717D01*
X0105122Y0308316D02*
X0178304Y0308316D01*
X0178304Y0309914D02*
X0103523Y0309914D01*
X0095849Y0329096D02*
X0178304Y0329096D01*
X0178304Y0327498D02*
X0086750Y0327498D01*
X0085152Y0325899D02*
X0178304Y0325899D01*
X0178304Y0324301D02*
X0068285Y0324301D01*
X0066985Y0322702D02*
X0178304Y0322702D01*
X0178304Y0321104D02*
X0068584Y0321104D01*
X0070182Y0319505D02*
X0178304Y0319505D01*
X0178304Y0317907D02*
X0071781Y0317907D01*
X0073379Y0316308D02*
X0178304Y0316308D01*
X0178304Y0314710D02*
X0074978Y0314710D01*
X0076576Y0313111D02*
X0178304Y0313111D01*
X0178304Y0311513D02*
X0078175Y0311513D01*
X0076341Y0329096D02*
X0068387Y0329096D01*
X0064613Y0329096D02*
X0064284Y0329096D01*
X0064284Y0330695D02*
X0076006Y0330695D01*
X0076560Y0332293D02*
X0064284Y0332293D01*
X0064284Y0333892D02*
X0076700Y0333892D01*
X0076700Y0335490D02*
X0064284Y0335490D01*
X0064284Y0337089D02*
X0076700Y0337089D01*
X0076700Y0338687D02*
X0064284Y0338687D01*
X0064284Y0340286D02*
X0076700Y0340286D01*
X0076700Y0341884D02*
X0064284Y0341884D01*
X0064284Y0343483D02*
X0076700Y0343483D01*
X0076700Y0345081D02*
X0064284Y0345081D01*
X0064284Y0346680D02*
X0076700Y0346680D01*
X0076700Y0348278D02*
X0064284Y0348278D01*
X0064284Y0349877D02*
X0076700Y0349877D01*
X0076700Y0351475D02*
X0064284Y0351475D01*
X0064284Y0353074D02*
X0076700Y0353074D01*
X0076700Y0354672D02*
X0064284Y0354672D01*
X0064284Y0356271D02*
X0076700Y0356271D01*
X0076700Y0357870D02*
X0064284Y0357870D01*
X0064284Y0359468D02*
X0076700Y0359468D01*
X0076700Y0361067D02*
X0064284Y0361067D01*
X0064284Y0362665D02*
X0076700Y0362665D01*
X0076700Y0364264D02*
X0064284Y0364264D01*
X0064284Y0365862D02*
X0076700Y0365862D01*
X0076700Y0367461D02*
X0064284Y0367461D01*
X0064284Y0369059D02*
X0076700Y0369059D01*
X0076700Y0370658D02*
X0064284Y0370658D01*
X0064284Y0372256D02*
X0076700Y0372256D01*
X0076700Y0373855D02*
X0064284Y0373855D01*
X0064284Y0375453D02*
X0076700Y0375453D01*
X0076700Y0377052D02*
X0064284Y0377052D01*
X0064284Y0378650D02*
X0076700Y0378650D01*
X0076700Y0380249D02*
X0064284Y0380249D01*
X0064284Y0381847D02*
X0076700Y0381847D01*
X0076700Y0383446D02*
X0064284Y0383446D01*
X0064284Y0385044D02*
X0076700Y0385044D01*
X0076700Y0386643D02*
X0064284Y0386643D01*
X0064284Y0388241D02*
X0076700Y0388241D01*
X0076700Y0389840D02*
X0064284Y0389840D01*
X0064284Y0391438D02*
X0076700Y0391438D01*
X0076700Y0393037D02*
X0064284Y0393037D01*
X0064284Y0394635D02*
X0076700Y0394635D01*
X0076700Y0396234D02*
X0064284Y0396234D01*
X0064284Y0397832D02*
X0076700Y0397832D01*
X0076700Y0399431D02*
X0064284Y0399431D01*
X0064284Y0401029D02*
X0076700Y0401029D01*
X0076700Y0402628D02*
X0064284Y0402628D01*
X0064426Y0404226D02*
X0076700Y0404226D01*
X0076700Y0405825D02*
X0064691Y0405825D01*
X0064089Y0407423D02*
X0076700Y0407423D01*
X0081300Y0407423D02*
X0107950Y0407423D01*
X0107950Y0405825D02*
X0081300Y0405825D01*
X0081300Y0404226D02*
X0107950Y0404226D01*
X0107950Y0402628D02*
X0081300Y0402628D01*
X0081300Y0401029D02*
X0107950Y0401029D01*
X0107950Y0399431D02*
X0081300Y0399431D01*
X0081300Y0397832D02*
X0107950Y0397832D01*
X0107950Y0396234D02*
X0081300Y0396234D01*
X0081300Y0394635D02*
X0107950Y0394635D01*
X0107950Y0393037D02*
X0081300Y0393037D01*
X0081300Y0391438D02*
X0107950Y0391438D01*
X0107950Y0389840D02*
X0081300Y0389840D01*
X0081300Y0388241D02*
X0107950Y0388241D01*
X0107950Y0386643D02*
X0081300Y0386643D01*
X0081300Y0385044D02*
X0107950Y0385044D01*
X0107950Y0383446D02*
X0081300Y0383446D01*
X0081300Y0381847D02*
X0107950Y0381847D01*
X0107950Y0380249D02*
X0081300Y0380249D01*
X0081300Y0378650D02*
X0107950Y0378650D01*
X0107950Y0377052D02*
X0081300Y0377052D01*
X0081300Y0375453D02*
X0107950Y0375453D01*
X0107950Y0373855D02*
X0081300Y0373855D01*
X0081300Y0372256D02*
X0107772Y0372256D01*
X0107256Y0370658D02*
X0081300Y0370658D01*
X0081300Y0369059D02*
X0107606Y0369059D01*
X0110064Y0361067D02*
X0081300Y0361067D01*
X0081300Y0362665D02*
X0111662Y0362665D01*
X0112950Y0364264D02*
X0081300Y0364264D01*
X0081300Y0365862D02*
X0112950Y0365862D01*
X0112950Y0367461D02*
X0081300Y0367461D01*
X0081300Y0359468D02*
X0108465Y0359468D01*
X0106867Y0357870D02*
X0081300Y0357870D01*
X0081300Y0356271D02*
X0105268Y0356271D01*
X0103670Y0354672D02*
X0081300Y0354672D01*
X0081300Y0353074D02*
X0102071Y0353074D01*
X0100473Y0351475D02*
X0081300Y0351475D01*
X0081300Y0349877D02*
X0100450Y0349877D01*
X0100450Y0348278D02*
X0081300Y0348278D01*
X0081300Y0346680D02*
X0100450Y0346680D01*
X0100450Y0345081D02*
X0081300Y0345081D01*
X0081300Y0343483D02*
X0100450Y0343483D01*
X0100450Y0341884D02*
X0081300Y0341884D01*
X0081300Y0340286D02*
X0100450Y0340286D01*
X0098935Y0338687D02*
X0081300Y0338687D01*
X0081300Y0337089D02*
X0097336Y0337089D01*
X0095738Y0335490D02*
X0081300Y0335490D01*
X0081300Y0333892D02*
X0094139Y0333892D01*
X0097448Y0330695D02*
X0178304Y0330695D01*
X0178304Y0332293D02*
X0099046Y0332293D01*
X0100645Y0333892D02*
X0178304Y0333892D01*
X0178304Y0335490D02*
X0102243Y0335490D01*
X0103842Y0337089D02*
X0178304Y0337089D01*
X0178304Y0338687D02*
X0105050Y0338687D01*
X0105050Y0340286D02*
X0178304Y0340286D01*
X0178304Y0341884D02*
X0105050Y0341884D01*
X0105050Y0343483D02*
X0178304Y0343483D01*
X0178304Y0345081D02*
X0105050Y0345081D01*
X0105050Y0346680D02*
X0178304Y0346680D01*
X0178304Y0348278D02*
X0105050Y0348278D01*
X0105380Y0349877D02*
X0178304Y0349877D01*
X0178304Y0351475D02*
X0106978Y0351475D01*
X0108577Y0353074D02*
X0178304Y0353074D01*
X0178304Y0354672D02*
X0110175Y0354672D01*
X0111774Y0356271D02*
X0178304Y0356271D01*
X0178304Y0357870D02*
X0113372Y0357870D01*
X0114971Y0359468D02*
X0178304Y0359468D01*
X0178304Y0361067D02*
X0116569Y0361067D01*
X0117550Y0362665D02*
X0178304Y0362665D01*
X0178304Y0364264D02*
X0117550Y0364264D01*
X0117550Y0365862D02*
X0178304Y0365862D01*
X0178304Y0367461D02*
X0117550Y0367461D01*
X0117550Y0369059D02*
X0178304Y0369059D01*
X0178304Y0370658D02*
X0117550Y0370658D01*
X0117550Y0372256D02*
X0178304Y0372256D01*
X0178304Y0373855D02*
X0117550Y0373855D01*
X0117550Y0375453D02*
X0178304Y0375453D01*
X0178304Y0377052D02*
X0117550Y0377052D01*
X0117550Y0378650D02*
X0178304Y0378650D01*
X0178304Y0380249D02*
X0117550Y0380249D01*
X0117550Y0381847D02*
X0178304Y0381847D01*
X0178304Y0383446D02*
X0117550Y0383446D01*
X0117550Y0385044D02*
X0178304Y0385044D01*
X0178304Y0386643D02*
X0117550Y0386643D01*
X0117550Y0388241D02*
X0178304Y0388241D01*
X0178304Y0389840D02*
X0117550Y0389840D01*
X0117550Y0391438D02*
X0178304Y0391438D01*
X0178304Y0393037D02*
X0117550Y0393037D01*
X0117550Y0394635D02*
X0178304Y0394635D01*
X0178304Y0396234D02*
X0117550Y0396234D01*
X0117550Y0397832D02*
X0178304Y0397832D01*
X0178304Y0399431D02*
X0117550Y0399431D01*
X0117550Y0401029D02*
X0178304Y0401029D01*
X0178304Y0402628D02*
X0117550Y0402628D01*
X0117550Y0404226D02*
X0178304Y0404226D01*
X0178304Y0405825D02*
X0117550Y0405825D01*
X0117550Y0407423D02*
X0178304Y0407423D01*
X0178304Y0409022D02*
X0117550Y0409022D01*
X0118623Y0410620D02*
X0178304Y0410620D01*
X0178304Y0412219D02*
X0120222Y0412219D01*
X0121820Y0413817D02*
X0178304Y0413817D01*
X0178304Y0415416D02*
X0164678Y0415416D01*
X0165795Y0417014D02*
X0178304Y0417014D01*
X0178304Y0418613D02*
X0165941Y0418613D01*
X0165051Y0420211D02*
X0178304Y0420211D01*
X0178304Y0421810D02*
X0112550Y0421810D01*
X0112550Y0423408D02*
X0178304Y0423408D01*
X0178304Y0425007D02*
X0112550Y0425007D01*
X0112550Y0426605D02*
X0178304Y0426605D01*
X0178304Y0428204D02*
X0113057Y0428204D01*
X0113244Y0429803D02*
X0178304Y0429803D01*
X0178304Y0431401D02*
X0112333Y0431401D01*
X0112550Y0420211D02*
X0121709Y0420211D01*
X0120110Y0418613D02*
X0112550Y0418613D01*
X0112550Y0417014D02*
X0118512Y0417014D01*
X0116913Y0415416D02*
X0112550Y0415416D01*
X0112550Y0413817D02*
X0115315Y0413817D01*
X0113716Y0412219D02*
X0112550Y0412219D01*
X0112550Y0410620D02*
X0112950Y0410620D01*
X0112950Y0409022D02*
X0112550Y0409022D01*
X0112550Y0407423D02*
X0112950Y0407423D01*
X0112950Y0405825D02*
X0112550Y0405825D01*
X0112550Y0404226D02*
X0112950Y0404226D01*
X0112950Y0402628D02*
X0112550Y0402628D01*
X0112550Y0401029D02*
X0112950Y0401029D01*
X0112950Y0399431D02*
X0112550Y0399431D01*
X0112550Y0397832D02*
X0112950Y0397832D01*
X0112950Y0396234D02*
X0112550Y0396234D01*
X0112550Y0394635D02*
X0112950Y0394635D01*
X0112950Y0393037D02*
X0112550Y0393037D01*
X0112550Y0391438D02*
X0112950Y0391438D01*
X0112950Y0389840D02*
X0112550Y0389840D01*
X0112550Y0388241D02*
X0112950Y0388241D01*
X0112950Y0386643D02*
X0112550Y0386643D01*
X0112550Y0385044D02*
X0112950Y0385044D01*
X0112950Y0383446D02*
X0112550Y0383446D01*
X0112550Y0381847D02*
X0112950Y0381847D01*
X0112950Y0380249D02*
X0112550Y0380249D01*
X0112550Y0378650D02*
X0112950Y0378650D01*
X0112950Y0377052D02*
X0112550Y0377052D01*
X0112550Y0375453D02*
X0112950Y0375453D01*
X0112950Y0373855D02*
X0112550Y0373855D01*
X0112728Y0372256D02*
X0112950Y0372256D01*
X0112893Y0369059D02*
X0112950Y0369059D01*
X0107950Y0409022D02*
X0081300Y0409022D01*
X0081300Y0410620D02*
X0107950Y0410620D01*
X0107950Y0412219D02*
X0081300Y0412219D01*
X0081300Y0413817D02*
X0107950Y0413817D01*
X0107950Y0415416D02*
X0081300Y0415416D01*
X0081300Y0417014D02*
X0107950Y0417014D01*
X0107950Y0418613D02*
X0081300Y0418613D01*
X0081300Y0420211D02*
X0107950Y0420211D01*
X0107950Y0421810D02*
X0081300Y0421810D01*
X0081300Y0423408D02*
X0107950Y0423408D01*
X0107950Y0425007D02*
X0081300Y0425007D01*
X0081300Y0426605D02*
X0107950Y0426605D01*
X0107443Y0428204D02*
X0081300Y0428204D01*
X0081300Y0429803D02*
X0107256Y0429803D01*
X0108167Y0431401D02*
X0081300Y0431401D01*
X0081300Y0433000D02*
X0178304Y0433000D01*
X0178304Y0434598D02*
X0081300Y0434598D01*
X0080702Y0436197D02*
X0178304Y0436197D01*
X0178304Y0437795D02*
X0079689Y0437795D01*
X0076017Y0433000D02*
X0063512Y0433000D01*
X0063307Y0432795D02*
X0064205Y0433693D01*
X0064691Y0434865D01*
X0064691Y0436135D01*
X0064205Y0437307D01*
X0063307Y0438205D01*
X0062881Y0438381D01*
X0063093Y0438593D01*
X0063093Y0446383D01*
X0062039Y0447438D01*
X0053461Y0447438D01*
X0052407Y0446383D01*
X0052407Y0438593D01*
X0053461Y0437539D01*
X0054966Y0437539D01*
X0054966Y0436196D01*
X0055390Y0435173D01*
X0056173Y0434390D01*
X0057423Y0433140D01*
X0058446Y0432716D01*
X0059884Y0432716D01*
X0060865Y0432309D01*
X0062135Y0432309D01*
X0063307Y0432795D01*
X0064580Y0434598D02*
X0074883Y0434598D01*
X0074798Y0436197D02*
X0064665Y0436197D01*
X0063717Y0437795D02*
X0075811Y0437795D01*
X0075545Y0446450D02*
X0077455Y0446450D01*
X0079219Y0447181D01*
X0080569Y0448531D01*
X0081300Y0450295D01*
X0081300Y0458205D01*
X0080569Y0459969D01*
X0079219Y0461319D01*
X0077455Y0462050D01*
X0075545Y0462050D01*
X0073781Y0461319D01*
X0072431Y0459969D01*
X0071700Y0458205D01*
X0071700Y0456296D01*
X0063093Y0456296D01*
X0063093Y0457407D01*
X0062039Y0458461D01*
X0053461Y0458461D01*
X0052407Y0457407D01*
X0052407Y0449617D01*
X0053461Y0448562D01*
X0062039Y0448562D01*
X0063093Y0449617D01*
X0063093Y0450728D01*
X0071700Y0450728D01*
X0071700Y0450295D01*
X0072431Y0448531D01*
X0073781Y0447181D01*
X0075545Y0446450D01*
X0073576Y0447386D02*
X0062091Y0447386D01*
X0062461Y0448985D02*
X0072243Y0448985D01*
X0071700Y0450583D02*
X0063093Y0450583D01*
X0063093Y0445788D02*
X0178304Y0445788D01*
X0178304Y0447386D02*
X0099348Y0447386D01*
X0099627Y0447589D02*
X0100161Y0448123D01*
X0100605Y0448734D01*
X0100948Y0449407D01*
X0101182Y0450126D01*
X0101300Y0450872D01*
X0101300Y0454050D01*
X0096700Y0454050D01*
X0096700Y0454450D01*
X0096300Y0454450D01*
X0096300Y0462050D01*
X0096122Y0462050D01*
X0095376Y0461932D01*
X0094657Y0461698D01*
X0093984Y0461355D01*
X0093373Y0460911D01*
X0092839Y0460377D01*
X0092395Y0459766D01*
X0092052Y0459093D01*
X0091818Y0458374D01*
X0091700Y0457628D01*
X0091700Y0454450D01*
X0096300Y0454450D01*
X0096300Y0454050D01*
X0091700Y0454050D01*
X0091700Y0450872D01*
X0091818Y0450126D01*
X0092052Y0449407D01*
X0092395Y0448734D01*
X0092839Y0448123D01*
X0093373Y0447589D01*
X0093984Y0447145D01*
X0094657Y0446802D01*
X0095376Y0446568D01*
X0096122Y0446450D01*
X0096300Y0446450D01*
X0096300Y0454050D01*
X0096700Y0454050D01*
X0096700Y0446450D01*
X0096878Y0446450D01*
X0097624Y0446568D01*
X0098343Y0446802D01*
X0099016Y0447145D01*
X0099627Y0447589D01*
X0100733Y0448985D02*
X0178304Y0448985D01*
X0178304Y0450583D02*
X0101254Y0450583D01*
X0101300Y0452182D02*
X0178304Y0452182D01*
X0178304Y0453780D02*
X0173273Y0453780D01*
X0174176Y0455379D02*
X0178304Y0455379D01*
X0178304Y0456977D02*
X0174176Y0456977D01*
X0174176Y0458576D02*
X0178304Y0458576D01*
X0178304Y0460174D02*
X0174176Y0460174D01*
X0174176Y0461773D02*
X0178304Y0461773D01*
X0178304Y0463371D02*
X0174176Y0463371D01*
X0174176Y0466568D02*
X0178304Y0466568D01*
X0178304Y0464970D02*
X0168676Y0464970D01*
X0168676Y0463371D02*
X0167076Y0463371D01*
X0167076Y0461773D02*
X0168676Y0461773D01*
X0168676Y0460174D02*
X0167076Y0460174D01*
X0167076Y0458576D02*
X0168676Y0458576D01*
X0168676Y0456977D02*
X0167076Y0456977D01*
X0167076Y0455379D02*
X0168676Y0455379D01*
X0168676Y0453780D02*
X0167076Y0453780D01*
X0162480Y0453780D02*
X0138473Y0453780D01*
X0139376Y0455379D02*
X0161576Y0455379D01*
X0161576Y0456977D02*
X0139376Y0456977D01*
X0139376Y0458576D02*
X0161576Y0458576D01*
X0161576Y0460174D02*
X0139376Y0460174D01*
X0139376Y0461773D02*
X0161576Y0461773D01*
X0161576Y0463371D02*
X0139376Y0463371D01*
X0139376Y0466568D02*
X0161576Y0466568D01*
X0161576Y0468167D02*
X0139376Y0468167D01*
X0139376Y0469765D02*
X0161576Y0469765D01*
X0167076Y0464970D02*
X0133876Y0464970D01*
X0133876Y0463371D02*
X0132276Y0463371D01*
X0132276Y0461773D02*
X0133876Y0461773D01*
X0133876Y0460174D02*
X0132276Y0460174D01*
X0132276Y0458576D02*
X0133876Y0458576D01*
X0133876Y0456977D02*
X0132276Y0456977D01*
X0132276Y0455379D02*
X0133876Y0455379D01*
X0133876Y0453780D02*
X0132276Y0453780D01*
X0127680Y0453780D02*
X0101300Y0453780D01*
X0101300Y0454450D02*
X0101300Y0457628D01*
X0101182Y0458374D01*
X0100948Y0459093D01*
X0100605Y0459766D01*
X0100161Y0460377D01*
X0099627Y0460911D01*
X0099016Y0461355D01*
X0098343Y0461698D01*
X0097624Y0461932D01*
X0096878Y0462050D01*
X0096700Y0462050D01*
X0096700Y0454450D01*
X0101300Y0454450D01*
X0101300Y0455379D02*
X0126776Y0455379D01*
X0126776Y0456977D02*
X0101300Y0456977D01*
X0101116Y0458576D02*
X0126776Y0458576D01*
X0126776Y0460174D02*
X0100309Y0460174D01*
X0098114Y0461773D02*
X0126776Y0461773D01*
X0126776Y0463371D02*
X0022550Y0463371D01*
X0022550Y0461773D02*
X0074876Y0461773D01*
X0072636Y0460174D02*
X0022550Y0460174D01*
X0022550Y0458576D02*
X0071854Y0458576D01*
X0071700Y0456977D02*
X0063093Y0456977D01*
X0063093Y0444189D02*
X0178304Y0444189D01*
X0178304Y0442591D02*
X0063093Y0442591D01*
X0063093Y0440992D02*
X0178304Y0440992D01*
X0178304Y0439394D02*
X0063093Y0439394D01*
X0057761Y0433000D02*
X0047550Y0433000D01*
X0047550Y0434598D02*
X0055964Y0434598D01*
X0054966Y0436197D02*
X0047550Y0436197D01*
X0047458Y0437795D02*
X0053205Y0437795D01*
X0052407Y0439394D02*
X0045859Y0439394D01*
X0044261Y0440992D02*
X0052407Y0440992D01*
X0052407Y0442591D02*
X0042662Y0442591D01*
X0041064Y0444189D02*
X0052407Y0444189D01*
X0052407Y0445788D02*
X0039465Y0445788D01*
X0037867Y0447386D02*
X0053409Y0447386D01*
X0053039Y0448985D02*
X0036268Y0448985D01*
X0034558Y0444189D02*
X0031890Y0444189D01*
X0028610Y0444189D02*
X0022550Y0444189D01*
X0022550Y0442591D02*
X0036157Y0442591D01*
X0037755Y0440992D02*
X0022550Y0440992D01*
X0022550Y0439394D02*
X0027027Y0439394D01*
X0027408Y0445788D02*
X0022550Y0445788D01*
X0022550Y0447386D02*
X0027273Y0447386D01*
X0028251Y0448985D02*
X0022550Y0448985D01*
X0022550Y0450583D02*
X0052407Y0450583D01*
X0052407Y0452182D02*
X0022550Y0452182D01*
X0022550Y0453780D02*
X0052407Y0453780D01*
X0052407Y0455379D02*
X0022550Y0455379D01*
X0022550Y0456977D02*
X0052407Y0456977D01*
X0042551Y0436197D02*
X0041648Y0436197D01*
X0040952Y0437795D02*
X0040014Y0437795D01*
X0039354Y0439394D02*
X0037469Y0439394D01*
X0033048Y0439394D02*
X0031448Y0439394D01*
X0031448Y0437795D02*
X0033048Y0437795D01*
X0033048Y0436197D02*
X0031448Y0436197D01*
X0031448Y0434598D02*
X0033048Y0434598D01*
X0033048Y0433000D02*
X0031448Y0433000D01*
X0031448Y0431401D02*
X0033048Y0431401D01*
X0033048Y0429803D02*
X0031448Y0429803D01*
X0031448Y0426605D02*
X0033048Y0426605D01*
X0033048Y0425007D02*
X0031448Y0425007D01*
X0031448Y0423408D02*
X0033048Y0423408D01*
X0033048Y0421810D02*
X0031448Y0421810D01*
X0031448Y0420211D02*
X0033048Y0420211D01*
X0033048Y0418613D02*
X0031448Y0418613D01*
X0031448Y0417014D02*
X0033048Y0417014D01*
X0027243Y0417014D02*
X0022550Y0417014D01*
X0022550Y0418613D02*
X0024612Y0418613D01*
X0022931Y0420211D02*
X0022550Y0420211D01*
X0022550Y0436197D02*
X0022848Y0436197D01*
X0022550Y0437795D02*
X0024482Y0437795D01*
X0022550Y0464970D02*
X0132276Y0464970D01*
X0126776Y0466568D02*
X0022550Y0466568D01*
X0022550Y0468167D02*
X0126776Y0468167D01*
X0126776Y0469765D02*
X0022550Y0469765D01*
X0042790Y0434598D02*
X0042950Y0434598D01*
X0047550Y0431401D02*
X0076700Y0431401D01*
X0076700Y0429803D02*
X0047550Y0429803D01*
X0047550Y0428204D02*
X0076700Y0428204D01*
X0076700Y0426605D02*
X0047550Y0426605D01*
X0047550Y0425007D02*
X0076700Y0425007D01*
X0076700Y0423408D02*
X0047550Y0423408D01*
X0047550Y0421810D02*
X0076700Y0421810D01*
X0076700Y0420211D02*
X0047550Y0420211D01*
X0046616Y0418613D02*
X0076700Y0418613D01*
X0085545Y0446450D02*
X0087455Y0446450D01*
X0089219Y0447181D01*
X0090569Y0448531D01*
X0091300Y0450295D01*
X0091300Y0458205D01*
X0090569Y0459969D01*
X0089219Y0461319D01*
X0087455Y0462050D01*
X0085545Y0462050D01*
X0083781Y0461319D01*
X0082431Y0459969D01*
X0081700Y0458205D01*
X0081700Y0450295D01*
X0082431Y0448531D01*
X0083781Y0447181D01*
X0085545Y0446450D01*
X0083576Y0447386D02*
X0079424Y0447386D01*
X0080757Y0448985D02*
X0082243Y0448985D01*
X0081700Y0450583D02*
X0081300Y0450583D01*
X0081300Y0452182D02*
X0081700Y0452182D01*
X0081700Y0453780D02*
X0081300Y0453780D01*
X0081300Y0455379D02*
X0081700Y0455379D01*
X0081700Y0456977D02*
X0081300Y0456977D01*
X0081146Y0458576D02*
X0081854Y0458576D01*
X0082636Y0460174D02*
X0080364Y0460174D01*
X0078124Y0461773D02*
X0084876Y0461773D01*
X0088124Y0461773D02*
X0094886Y0461773D01*
X0096300Y0461773D02*
X0096700Y0461773D01*
X0096700Y0460174D02*
X0096300Y0460174D01*
X0096300Y0458576D02*
X0096700Y0458576D01*
X0096700Y0456977D02*
X0096300Y0456977D01*
X0096300Y0455379D02*
X0096700Y0455379D01*
X0096700Y0453780D02*
X0096300Y0453780D01*
X0096300Y0452182D02*
X0096700Y0452182D01*
X0096700Y0450583D02*
X0096300Y0450583D01*
X0096300Y0448985D02*
X0096700Y0448985D01*
X0096700Y0447386D02*
X0096300Y0447386D01*
X0093652Y0447386D02*
X0089424Y0447386D01*
X0090757Y0448985D02*
X0092267Y0448985D01*
X0091746Y0450583D02*
X0091300Y0450583D01*
X0091300Y0452182D02*
X0091700Y0452182D01*
X0091700Y0453780D02*
X0091300Y0453780D01*
X0091300Y0455379D02*
X0091700Y0455379D01*
X0091700Y0456977D02*
X0091300Y0456977D01*
X0091146Y0458576D02*
X0091884Y0458576D01*
X0092691Y0460174D02*
X0090364Y0460174D01*
X0123419Y0415416D02*
X0160822Y0415416D01*
X0174176Y0468167D02*
X0178304Y0468167D01*
X0178304Y0469765D02*
X0174176Y0469765D01*
X0168027Y0287535D02*
X0156468Y0287535D01*
X0158066Y0285937D02*
X0169626Y0285937D01*
X0171216Y0284338D02*
X0159665Y0284338D01*
X0161263Y0282739D02*
X0171216Y0282739D01*
X0171216Y0281141D02*
X0162862Y0281141D01*
X0164460Y0279542D02*
X0171216Y0279542D01*
X0171216Y0277944D02*
X0166059Y0277944D01*
X0167657Y0276345D02*
X0171216Y0276345D01*
X0171216Y0274747D02*
X0169256Y0274747D01*
X0170854Y0273148D02*
X0171216Y0273148D01*
X0164349Y0273148D02*
X0144604Y0273148D01*
X0143006Y0274747D02*
X0162750Y0274747D01*
X0161152Y0276345D02*
X0141407Y0276345D01*
X0139809Y0277944D02*
X0159553Y0277944D01*
X0157955Y0279542D02*
X0138210Y0279542D01*
X0136612Y0281141D02*
X0156356Y0281141D01*
X0154758Y0282739D02*
X0151923Y0282739D01*
X0148577Y0282739D02*
X0135013Y0282739D01*
X0133415Y0284338D02*
X0147278Y0284338D01*
X0147059Y0285937D02*
X0131816Y0285937D01*
X0130218Y0287535D02*
X0147773Y0287535D01*
X0152248Y0266754D02*
X0163234Y0266754D01*
X0136500Y0274747D02*
X0090506Y0274747D01*
X0088907Y0276345D02*
X0134902Y0276345D01*
X0085041Y0332293D02*
X0081440Y0332293D01*
X0081994Y0330695D02*
X0083442Y0330695D01*
X0081844Y0329096D02*
X0081659Y0329096D01*
X0046203Y0418200D02*
X0046203Y0418200D01*
X0035450Y0333892D02*
X0034610Y0333892D01*
X0035221Y0306717D02*
X0035450Y0306717D01*
D18*
X0061500Y0405500D03*
X0061500Y0435500D03*
X0084000Y0390953D03*
X0089000Y0390953D03*
X0094000Y0393453D03*
X0094000Y0397203D03*
X0094000Y0400953D03*
X0095250Y0408453D03*
X0095250Y0413453D03*
X0095250Y0418453D03*
X0091500Y0423453D03*
X0091500Y0428453D03*
X0091500Y0433453D03*
X0115250Y0417203D03*
X0119000Y0425953D03*
X0122750Y0433453D03*
X0122750Y0440953D03*
X0122750Y0444703D03*
X0122750Y0448453D03*
X0122750Y0452203D03*
X0125250Y0454703D03*
X0125250Y0458453D03*
X0125250Y0462203D03*
X0125250Y0465953D03*
X0125250Y0469703D03*
X0127750Y0452203D03*
X0129000Y0444703D03*
X0127750Y0433453D03*
X0129000Y0427203D03*
X0127750Y0422203D03*
X0132750Y0422203D03*
X0127750Y0414703D03*
X0127750Y0409703D03*
X0127750Y0400953D03*
X0129000Y0397203D03*
X0125250Y0397203D03*
X0124000Y0400953D03*
X0124000Y0409703D03*
X0120250Y0409703D03*
X0120250Y0400953D03*
X0121500Y0397203D03*
X0120250Y0393453D03*
X0120250Y0388453D03*
X0120250Y0383453D03*
X0121500Y0378453D03*
X0126500Y0378453D03*
X0129000Y0367203D03*
X0129000Y0363453D03*
X0132750Y0363453D03*
X0132750Y0367203D03*
X0136500Y0367203D03*
X0136500Y0370953D03*
X0136500Y0378453D03*
X0139000Y0375953D03*
X0140250Y0370953D03*
X0140250Y0367203D03*
X0140250Y0363453D03*
X0140250Y0359703D03*
X0136500Y0359703D03*
X0136500Y0363453D03*
X0131500Y0378453D03*
X0142750Y0375953D03*
X0144000Y0370953D03*
X0144000Y0367203D03*
X0144000Y0363453D03*
X0144000Y0359703D03*
X0151500Y0383453D03*
X0151500Y0388453D03*
X0151500Y0394703D03*
X0151500Y0399703D03*
X0146500Y0399703D03*
X0147750Y0413453D03*
X0147750Y0422203D03*
X0151500Y0424703D03*
X0151500Y0428453D03*
X0151500Y0432203D03*
X0147750Y0433453D03*
X0142750Y0433453D03*
X0142750Y0428453D03*
X0142750Y0422203D03*
X0141500Y0413453D03*
X0137750Y0422203D03*
X0137750Y0433453D03*
X0132750Y0433453D03*
X0140250Y0458453D03*
X0140250Y0462203D03*
X0140250Y0465953D03*
X0140250Y0469703D03*
X0160250Y0469703D03*
X0160250Y0465953D03*
X0160250Y0462203D03*
X0160250Y0458453D03*
X0167750Y0445953D03*
X0169000Y0437203D03*
X0172750Y0433453D03*
X0169000Y0430953D03*
X0162750Y0418000D03*
X0162750Y0412203D03*
X0171500Y0410953D03*
X0172750Y0383453D03*
X0167750Y0383453D03*
X0162750Y0383453D03*
X0162750Y0378453D03*
X0162750Y0372203D03*
X0162750Y0365953D03*
X0161500Y0359703D03*
X0155250Y0359703D03*
X0141500Y0330953D03*
X0141500Y0325953D03*
X0141500Y0305953D03*
X0150250Y0285500D03*
X0141500Y0278000D03*
X0136500Y0273000D03*
X0121500Y0285500D03*
X0115250Y0285500D03*
X0091500Y0219250D03*
X0091500Y0209250D03*
X0082750Y0203000D03*
X0082750Y0219250D03*
X0065250Y0172203D03*
X0060250Y0187203D03*
X0057750Y0183453D03*
X0057750Y0172203D03*
X0062750Y0196750D03*
X0062750Y0200953D03*
X0062750Y0204703D03*
X0077750Y0144703D03*
X0077750Y0140953D03*
X0079000Y0128453D03*
X0080250Y0119703D03*
X0071500Y0120953D03*
X0054000Y0113453D03*
X0044000Y0084250D03*
X0039000Y0107203D03*
X0041500Y0124703D03*
X0040250Y0142203D03*
X0040250Y0159703D03*
X0041500Y0170953D03*
X0027750Y0168453D03*
X0027750Y0148453D03*
X0029000Y0132203D03*
X0027750Y0115953D03*
X0026500Y0097203D03*
X0051500Y0053453D03*
X0051500Y0049703D03*
X0079000Y0061750D03*
X0079000Y0026750D03*
X0027750Y0199703D03*
X0150250Y0100500D03*
X0150250Y0048000D03*
X0165250Y0269250D03*
X0174000Y0447203D03*
X0172750Y0452203D03*
X0175250Y0454703D03*
X0175250Y0458453D03*
X0175250Y0462203D03*
X0175250Y0465953D03*
X0175250Y0469703D03*
D19*
X0169000Y0373453D03*
X0169000Y0355953D03*
X0161500Y0348453D03*
X0161500Y0344703D03*
X0161500Y0340953D03*
X0161500Y0337203D03*
X0161500Y0333453D03*
X0159000Y0330953D03*
X0155250Y0330953D03*
X0155250Y0327203D03*
X0155250Y0323453D03*
X0149000Y0313453D03*
X0160250Y0285953D03*
X0162750Y0289703D03*
X0166500Y0285953D03*
X0162750Y0299703D03*
X0162750Y0303453D03*
X0162750Y0307203D03*
X0162750Y0310953D03*
X0162750Y0314703D03*
X0161500Y0318453D03*
X0170250Y0315953D03*
X0175250Y0304703D03*
X0170250Y0299703D03*
X0176500Y0292203D03*
X0175250Y0259703D03*
X0175250Y0255953D03*
X0175250Y0252203D03*
X0172750Y0227203D03*
X0174000Y0219703D03*
X0175250Y0207203D03*
X0171500Y0207203D03*
X0169000Y0210953D03*
X0156500Y0213453D03*
X0152750Y0234250D03*
X0150250Y0238000D03*
X0147750Y0241750D03*
X0145250Y0244250D03*
X0141500Y0245520D03*
X0140250Y0233453D03*
X0140250Y0223453D03*
X0145250Y0216750D03*
X0144000Y0209703D03*
X0140250Y0204703D03*
X0142750Y0199703D03*
X0136500Y0192203D03*
X0136500Y0182203D03*
X0136500Y0172203D03*
X0136500Y0163453D03*
X0136500Y0154250D03*
X0144000Y0144703D03*
X0147750Y0154250D03*
X0150250Y0159250D03*
X0152750Y0161750D03*
X0152750Y0154703D03*
X0156500Y0159703D03*
X0157750Y0164250D03*
X0157750Y0168000D03*
X0151500Y0145953D03*
X0149000Y0142203D03*
X0154000Y0140953D03*
X0154000Y0125953D03*
X0155250Y0109703D03*
X0155250Y0099703D03*
X0160250Y0090953D03*
X0162750Y0113453D03*
X0162750Y0119703D03*
X0162750Y0128453D03*
X0164000Y0135953D03*
X0169000Y0142203D03*
X0171500Y0144703D03*
X0175250Y0144703D03*
X0176500Y0148453D03*
X0176500Y0152203D03*
X0176500Y0155953D03*
X0171500Y0160953D03*
X0175250Y0167203D03*
X0169000Y0172203D03*
X0172750Y0133453D03*
X0174000Y0109703D03*
X0172750Y0079703D03*
X0160250Y0064703D03*
X0172750Y0049703D03*
X0174000Y0032203D03*
X0157750Y0034703D03*
X0150250Y0017203D03*
X0155250Y0009703D03*
X0145250Y0009703D03*
X0135250Y0025953D03*
X0132750Y0042203D03*
X0125250Y0062203D03*
X0114000Y0060953D03*
X0107750Y0060953D03*
X0100250Y0052203D03*
X0100250Y0048453D03*
X0095250Y0048453D03*
X0095250Y0052203D03*
X0090250Y0063453D03*
X0092750Y0072203D03*
X0084000Y0080953D03*
X0074000Y0097203D03*
X0077750Y0109703D03*
X0084000Y0138453D03*
X0084000Y0142203D03*
X0086500Y0150500D03*
X0089000Y0162203D03*
X0086500Y0168453D03*
X0091500Y0157203D03*
X0092750Y0134250D03*
X0104000Y0147203D03*
X0109000Y0155953D03*
X0109000Y0164703D03*
X0109000Y0174703D03*
X0119000Y0173453D03*
X0119000Y0164703D03*
X0119000Y0155953D03*
X0117750Y0147203D03*
X0121500Y0147203D03*
X0126500Y0146750D03*
X0131500Y0134250D03*
X0137750Y0127203D03*
X0144000Y0128453D03*
X0144000Y0108453D03*
X0137750Y0108453D03*
X0145250Y0093453D03*
X0145250Y0084703D03*
X0145250Y0073453D03*
X0140250Y0062203D03*
X0146500Y0052203D03*
X0144000Y0042203D03*
X0127750Y0010953D03*
X0114000Y0009703D03*
X0109000Y0025953D03*
X0109000Y0030953D03*
X0104000Y0029703D03*
X0104000Y0033453D03*
X0104000Y0037203D03*
X0104000Y0040953D03*
X0104000Y0025953D03*
X0104000Y0022203D03*
X0104000Y0018453D03*
X0104000Y0014703D03*
X0104000Y0010953D03*
X0094000Y0023453D03*
X0092750Y0017203D03*
X0085250Y0012203D03*
X0074000Y0010953D03*
X0062750Y0008453D03*
X0057750Y0044703D03*
X0057750Y0062203D03*
X0052750Y0067203D03*
X0046500Y0063453D03*
X0050250Y0085500D03*
X0054000Y0097203D03*
X0057750Y0082203D03*
X0070250Y0070953D03*
X0065250Y0110953D03*
X0060250Y0134703D03*
X0060250Y0138453D03*
X0067750Y0149703D03*
X0070250Y0164703D03*
X0075250Y0173453D03*
X0075250Y0183000D03*
X0075250Y0191750D03*
X0075250Y0195500D03*
X0075250Y0200500D03*
X0075250Y0209250D03*
X0075250Y0234703D03*
X0075250Y0247203D03*
X0072750Y0257203D03*
X0076500Y0273453D03*
X0079000Y0283000D03*
X0084000Y0284703D03*
X0084000Y0300953D03*
X0091500Y0319703D03*
X0090250Y0334703D03*
X0090250Y0344703D03*
X0091500Y0354703D03*
X0100250Y0353453D03*
X0099000Y0372203D03*
X0104000Y0380953D03*
X0100250Y0389703D03*
X0104000Y0399703D03*
X0102750Y0410953D03*
X0104000Y0418453D03*
X0102750Y0428453D03*
X0102750Y0439703D03*
X0099000Y0445953D03*
X0101500Y0448453D03*
X0102750Y0450953D03*
X0102750Y0454703D03*
X0102750Y0458453D03*
X0101500Y0460953D03*
X0099000Y0463453D03*
X0094000Y0463453D03*
X0091500Y0460953D03*
X0091500Y0448453D03*
X0094000Y0445953D03*
X0087750Y0420953D03*
X0084000Y0420953D03*
X0077750Y0435500D03*
X0071500Y0435953D03*
X0066500Y0435953D03*
X0064000Y0448453D03*
X0070250Y0448453D03*
X0069000Y0459703D03*
X0080250Y0467203D03*
X0075250Y0420953D03*
X0075250Y0410953D03*
X0074000Y0387203D03*
X0069000Y0387203D03*
X0060250Y0410953D03*
X0060250Y0417203D03*
X0060250Y0423453D03*
X0064000Y0420953D03*
X0051500Y0423453D03*
X0049000Y0410953D03*
X0046500Y0387203D03*
X0052750Y0370953D03*
X0047750Y0348453D03*
X0055250Y0334703D03*
X0056500Y0320953D03*
X0055250Y0312203D03*
X0060250Y0293453D03*
X0059000Y0278453D03*
X0062750Y0264703D03*
X0064000Y0249703D03*
X0062750Y0229703D03*
X0052750Y0223453D03*
X0044000Y0220953D03*
X0044000Y0198453D03*
X0030250Y0227203D03*
X0026500Y0237203D03*
X0027750Y0245953D03*
X0025250Y0255953D03*
X0029000Y0265953D03*
X0025250Y0275953D03*
X0029000Y0289703D03*
X0024000Y0298453D03*
X0034000Y0303453D03*
X0027750Y0324703D03*
X0027750Y0330953D03*
X0024000Y0342203D03*
X0032750Y0357203D03*
X0025250Y0369703D03*
X0032750Y0382203D03*
X0026500Y0394703D03*
X0031500Y0405953D03*
X0035250Y0411750D03*
X0024000Y0414703D03*
X0030250Y0446750D03*
X0039000Y0452203D03*
X0031500Y0469703D03*
X0051500Y0437203D03*
X0084000Y0387203D03*
X0089000Y0387203D03*
X0082750Y0350953D03*
X0075250Y0350953D03*
X0071500Y0350953D03*
X0066500Y0350953D03*
X0069000Y0330953D03*
X0066500Y0326750D03*
X0069000Y0323453D03*
X0075250Y0317203D03*
X0079000Y0330500D03*
X0069000Y0304703D03*
X0071500Y0283453D03*
X0089000Y0263453D03*
X0089000Y0247203D03*
X0097750Y0274703D03*
X0105250Y0272203D03*
X0107750Y0275953D03*
X0107750Y0279703D03*
X0110250Y0285953D03*
X0112750Y0290953D03*
X0117750Y0289703D03*
X0121500Y0289703D03*
X0121500Y0298453D03*
X0121500Y0302203D03*
X0121500Y0305953D03*
X0121500Y0309703D03*
X0121500Y0313453D03*
X0121500Y0317203D03*
X0121500Y0320953D03*
X0119000Y0323453D03*
X0116500Y0325953D03*
X0116500Y0329703D03*
X0116500Y0333453D03*
X0112750Y0333453D03*
X0109000Y0334703D03*
X0109000Y0338453D03*
X0109000Y0342203D03*
X0115250Y0344703D03*
X0115250Y0348453D03*
X0115250Y0352203D03*
X0121500Y0363453D03*
X0122750Y0368453D03*
X0122750Y0372203D03*
X0125250Y0363453D03*
X0129000Y0372203D03*
X0126500Y0349703D03*
X0129000Y0329703D03*
X0141500Y0345953D03*
X0142750Y0343453D03*
X0155250Y0352203D03*
X0155250Y0355953D03*
X0159000Y0350953D03*
X0169000Y0342203D03*
X0176500Y0327203D03*
X0156500Y0265953D03*
X0149000Y0259703D03*
X0135250Y0263000D03*
X0131500Y0260500D03*
X0130250Y0265500D03*
X0127750Y0258000D03*
X0126500Y0262203D03*
X0125250Y0265953D03*
X0122750Y0259703D03*
X0120250Y0257203D03*
X0121500Y0265953D03*
X0117750Y0263453D03*
X0114000Y0263453D03*
X0112750Y0257203D03*
X0110250Y0263453D03*
X0109000Y0257203D03*
X0106500Y0262203D03*
X0107750Y0264703D03*
X0107750Y0268453D03*
X0116500Y0257203D03*
X0124000Y0255500D03*
X0122750Y0227203D03*
X0116500Y0227203D03*
X0112750Y0219703D03*
X0115250Y0195953D03*
X0121500Y0189703D03*
X0126500Y0195953D03*
X0125250Y0208000D03*
X0127750Y0211750D03*
X0132750Y0211750D03*
X0135250Y0208000D03*
X0127750Y0182203D03*
X0112750Y0146750D03*
X0110250Y0125953D03*
X0107750Y0115953D03*
X0109000Y0098000D03*
X0116500Y0099703D03*
X0126500Y0104703D03*
X0100250Y0084703D03*
X0096500Y0097203D03*
X0075250Y0148453D03*
X0075250Y0153000D03*
X0089000Y0186750D03*
X0092750Y0184250D03*
X0096500Y0189703D03*
X0090250Y0195953D03*
X0095250Y0206750D03*
X0100250Y0208000D03*
X0102750Y0197203D03*
X0100250Y0219250D03*
X0100250Y0225953D03*
X0112750Y0313453D03*
X0104000Y0325953D03*
X0110250Y0370500D03*
X0110250Y0429250D03*
X0110250Y0442203D03*
X0112750Y0452203D03*
X0111500Y0463453D03*
X0047750Y0304703D03*
X0024000Y0227203D03*
X0035250Y0153000D03*
X0047750Y0146750D03*
X0039000Y0090953D03*
X0032750Y0063453D03*
X0027750Y0077203D03*
X0024000Y0074703D03*
X0024000Y0053453D03*
X0029000Y0044703D03*
X0024000Y0034703D03*
X0047750Y0038453D03*
X0049000Y0024703D03*
X0049000Y0010953D03*
D20*
X0066500Y0061750D02*
X0079000Y0061750D01*
X0079000Y0026750D01*
X0066500Y0061750D02*
X0044000Y0084250D01*
X0050250Y0085500D02*
X0070250Y0105500D01*
X0102750Y0105500D01*
X0131500Y0134250D01*
X0136500Y0130500D02*
X0136500Y0154250D01*
X0126500Y0146750D02*
X0126500Y0174250D01*
X0106500Y0194250D01*
X0106500Y0255500D01*
X0079000Y0283000D01*
X0060250Y0261750D02*
X0070250Y0251750D01*
X0076500Y0251750D01*
X0095250Y0233000D01*
X0095250Y0206750D01*
X0091500Y0209250D02*
X0091500Y0219250D01*
X0087750Y0230500D02*
X0076500Y0241750D01*
X0052750Y0241750D01*
X0052750Y0251750D02*
X0045250Y0251750D01*
X0042750Y0249250D01*
X0042750Y0240500D01*
X0046500Y0236750D01*
X0064000Y0236750D01*
X0075250Y0225500D01*
X0075250Y0209250D01*
X0075250Y0200500D02*
X0075250Y0195500D01*
X0075250Y0191750D02*
X0075250Y0183000D01*
X0077750Y0179250D02*
X0045250Y0179250D01*
X0040250Y0184250D01*
X0040250Y0415500D01*
X0045250Y0420500D01*
X0045250Y0436750D01*
X0035250Y0446750D01*
X0030250Y0446750D01*
X0035250Y0411750D02*
X0037750Y0409250D01*
X0037750Y0183000D01*
X0044000Y0176750D01*
X0079000Y0176750D01*
X0086500Y0184250D01*
X0092750Y0184250D01*
X0089000Y0186750D02*
X0085250Y0186750D01*
X0077750Y0179250D01*
X0062750Y0196750D02*
X0069000Y0203000D01*
X0082750Y0203000D01*
X0082750Y0219250D01*
X0087750Y0230500D02*
X0087750Y0205500D01*
X0112750Y0180500D01*
X0112750Y0146750D01*
X0136500Y0130500D02*
X0109000Y0103000D01*
X0109000Y0098000D01*
X0092750Y0134250D02*
X0065250Y0134250D01*
X0062750Y0131750D01*
X0057750Y0131750D01*
X0055250Y0134250D01*
X0055250Y0139250D01*
X0047750Y0146750D01*
X0035250Y0153000D02*
X0075250Y0153000D01*
X0086500Y0150500D02*
X0091510Y0150500D01*
X0100250Y0208000D02*
X0100250Y0219250D01*
X0125250Y0214250D02*
X0125250Y0208000D01*
X0125250Y0214250D02*
X0126500Y0215500D01*
X0126500Y0253000D01*
X0124000Y0255500D01*
X0127750Y0258000D02*
X0129000Y0256750D01*
X0129000Y0214250D01*
X0127750Y0213000D01*
X0127750Y0211750D01*
X0132750Y0211750D02*
X0132750Y0259250D01*
X0131500Y0260500D01*
X0130250Y0265500D02*
X0150250Y0265500D01*
X0157750Y0258000D01*
X0157750Y0216750D01*
X0159000Y0215500D01*
X0159000Y0211750D01*
X0157750Y0210500D01*
X0157750Y0168000D01*
X0157750Y0164250D02*
X0162750Y0169250D01*
X0162750Y0259250D01*
X0170250Y0266750D01*
X0170250Y0270500D01*
X0155250Y0285500D01*
X0150250Y0285500D01*
X0145250Y0269250D02*
X0165250Y0269250D01*
X0150250Y0238000D02*
X0150250Y0159250D01*
X0152750Y0161750D02*
X0152750Y0234250D01*
X0147750Y0241750D02*
X0147750Y0154250D01*
X0135250Y0208000D02*
X0135250Y0263000D01*
X0145250Y0269250D02*
X0129000Y0285500D01*
X0115250Y0285500D01*
X0094000Y0330500D02*
X0102750Y0339250D01*
X0102750Y0350500D01*
X0115250Y0363000D01*
X0115250Y0410500D01*
X0122750Y0418000D01*
X0162750Y0418000D01*
X0110250Y0429250D02*
X0110250Y0370500D01*
X0094000Y0330500D02*
X0086500Y0330500D01*
X0082750Y0326750D01*
X0066500Y0326750D01*
X0079000Y0330500D02*
X0079000Y0434250D01*
X0077750Y0435500D01*
X0060250Y0261750D02*
X0052750Y0261750D01*
X0062750Y0196750D02*
X0060988Y0194988D01*
X0056500Y0194988D01*
X0145250Y0216750D02*
X0145250Y0244250D01*
D21*
X0165250Y0255500D02*
X0174000Y0264250D01*
X0174000Y0285500D01*
X0165250Y0294250D01*
X0115250Y0294250D01*
X0101500Y0308000D01*
X0077750Y0308000D01*
X0061500Y0324250D01*
X0061500Y0405500D01*
X0061500Y0435500D02*
X0059000Y0435500D01*
X0057750Y0436750D01*
X0057750Y0442488D01*
X0057750Y0453512D02*
X0075762Y0453512D01*
X0076500Y0454250D01*
X0165250Y0255500D02*
X0165250Y0144250D01*
X0150250Y0129250D01*
X0150250Y0100500D01*
X0150250Y0048000D01*
M02*
