G75*
%MOIN*%
%OFA0B0*%
%FSLAX25Y25*%
%IPPOS*%
%LPD*%
%AMOC8*
5,1,8,0,0,1.08239X$1,22.5*
%
%ADD10R,0.07887X0.07099*%
%ADD11R,0.07099X0.07887*%
%ADD12R,0.06706X0.05918*%
%ADD13R,0.05918X0.06706*%
%ADD14R,0.10249X0.10249*%
%ADD15R,0.06706X0.08674*%
%ADD16R,0.15761X0.08674*%
%ADD17R,0.03200X0.09500*%
%ADD18C,0.06800*%
%ADD19R,0.08674X0.07493*%
%ADD20R,0.07493X0.08674*%
%ADD21R,0.06706X0.06706*%
%ADD22R,0.04343X0.03950*%
%ADD23OC8,0.06800*%
%ADD24C,0.09650*%
%ADD25C,0.05800*%
%ADD26R,0.01981X0.05524*%
%ADD27R,0.05524X0.01981*%
%ADD28R,0.07099X0.03556*%
%ADD29R,0.07887X0.05524*%
%ADD30R,0.09461X0.05524*%
%ADD31R,0.06706X0.07099*%
%ADD32C,0.04737*%
%ADD33R,0.09800X0.20800*%
%ADD34C,0.00985*%
%ADD35R,0.11036X0.11036*%
%ADD36R,0.04343X0.05131*%
%ADD37R,0.03400X0.08800*%
%ADD38R,0.05328X0.02965*%
%ADD39R,0.02965X0.05328*%
%ADD40R,0.06706X0.09068*%
%ADD41R,0.02611X0.05721*%
%ADD42R,0.10300X0.07800*%
%ADD43R,0.06312X0.03950*%
%ADD44R,0.06299X0.03937*%
%ADD45C,0.06693*%
%ADD46R,0.05131X0.04737*%
%ADD47R,0.06706X0.05131*%
%ADD48R,0.04343X0.07099*%
%ADD49R,0.05918X0.05918*%
%ADD50R,0.06312X0.05328*%
%ADD51R,0.01981X0.03950*%
%ADD52R,0.04528X0.08661*%
%ADD53R,0.05118X0.12008*%
%ADD54C,0.21800*%
D10*
X0047750Y0032488D03*
X0047750Y0043512D03*
X0057750Y0038512D03*
X0057750Y0027488D03*
X0087750Y0113738D03*
X0087750Y0124762D03*
X0091500Y0224988D03*
X0091500Y0236012D03*
X0082750Y0236012D03*
X0082750Y0224988D03*
X0114000Y0268738D03*
X0114000Y0279762D03*
X0091500Y0363738D03*
X0091500Y0374762D03*
X0134000Y0404988D03*
X0134000Y0416012D03*
X0152750Y0207262D03*
X0152750Y0196238D03*
X0161500Y0192488D03*
X0161500Y0203512D03*
X0139000Y0093512D03*
X0139000Y0082488D03*
D11*
X0122012Y0039250D03*
X0120762Y0016750D03*
X0110988Y0039250D03*
X0109738Y0016750D03*
X0095762Y0030500D03*
X0095762Y0040500D03*
X0084738Y0040500D03*
X0084738Y0030500D03*
X0038262Y0084250D03*
X0027238Y0084250D03*
X0102238Y0248000D03*
X0113262Y0248000D03*
X0123488Y0329250D03*
X0134512Y0329250D03*
X0158488Y0150500D03*
X0169512Y0150500D03*
D12*
X0025250Y0059260D03*
X0025250Y0066740D03*
X0037750Y0041740D03*
X0037750Y0034260D03*
X0057750Y0049260D03*
X0057750Y0056740D03*
X0067750Y0056740D03*
X0067750Y0049260D03*
X0077750Y0049260D03*
X0077750Y0056740D03*
X0087750Y0056740D03*
X0087750Y0049260D03*
X0097750Y0058010D03*
X0097750Y0065490D03*
X0109000Y0083010D03*
X0109000Y0090490D03*
X0116500Y0090490D03*
X0116500Y0083010D03*
X0124000Y0110510D03*
X0124000Y0117990D03*
X0118596Y0125116D03*
X0118596Y0132596D03*
X0131500Y0117990D03*
X0131500Y0110510D03*
X0150250Y0065490D03*
X0150250Y0058010D03*
X0150250Y0034240D03*
X0150250Y0026760D03*
X0071500Y0135510D03*
X0071500Y0142990D03*
X0122750Y0271760D03*
X0122750Y0279240D03*
X0141500Y0298010D03*
X0141500Y0305490D03*
X0141500Y0313010D03*
X0141500Y0320490D03*
X0135250Y0336760D03*
X0135250Y0344240D03*
X0127750Y0344240D03*
X0127750Y0336760D03*
X0110250Y0356760D03*
X0110250Y0364240D03*
X0126500Y0384260D03*
X0126500Y0391740D03*
X0134000Y0391740D03*
X0134000Y0384260D03*
X0149000Y0351740D03*
X0149000Y0344260D03*
X0149000Y0327990D03*
X0149000Y0320510D03*
X0149000Y0305490D03*
X0149000Y0298010D03*
X0156500Y0299240D03*
X0156500Y0305510D03*
X0156500Y0312990D03*
X0156500Y0291760D03*
X0170250Y0280490D03*
X0170250Y0273010D03*
X0156500Y0336760D03*
X0156500Y0344240D03*
X0156500Y0365510D03*
X0156500Y0372990D03*
X0156500Y0410510D03*
X0156500Y0417990D03*
X0170250Y0416760D03*
X0170250Y0424240D03*
X0136500Y0444260D03*
X0136500Y0451740D03*
X0047750Y0454240D03*
X0047750Y0446760D03*
X0024000Y0446760D03*
X0024000Y0454240D03*
X0034000Y0329240D03*
X0034000Y0321760D03*
D13*
X0066510Y0441750D03*
X0073990Y0441750D03*
X0081510Y0441750D03*
X0088990Y0441750D03*
X0120260Y0356750D03*
X0127740Y0356750D03*
X0134010Y0351750D03*
X0141490Y0351750D03*
X0141510Y0336750D03*
X0148990Y0336750D03*
X0133990Y0320500D03*
X0133990Y0313000D03*
X0133990Y0305500D03*
X0133990Y0298000D03*
X0133990Y0290500D03*
X0126510Y0290500D03*
X0126510Y0298000D03*
X0126510Y0305500D03*
X0126510Y0313000D03*
X0126510Y0320500D03*
X0141510Y0291750D03*
X0148990Y0291750D03*
X0164010Y0389250D03*
X0164010Y0396750D03*
X0164010Y0405500D03*
X0171490Y0405500D03*
X0171490Y0396750D03*
X0171490Y0389250D03*
X0150240Y0405500D03*
X0142760Y0405500D03*
X0144010Y0441750D03*
X0144010Y0451750D03*
X0151490Y0451750D03*
X0151490Y0441750D03*
X0159010Y0451750D03*
X0166490Y0451750D03*
X0060240Y0153000D03*
X0052760Y0153000D03*
X0052760Y0120500D03*
X0060240Y0120500D03*
X0066510Y0040500D03*
X0066510Y0030500D03*
X0073990Y0030500D03*
X0073990Y0040500D03*
X0079010Y0020500D03*
X0086490Y0020500D03*
X0124010Y0083000D03*
X0124010Y0091750D03*
X0124010Y0099250D03*
X0131490Y0099250D03*
X0131490Y0091750D03*
X0131490Y0083000D03*
X0137760Y0100500D03*
X0145240Y0100500D03*
X0141510Y0135500D03*
X0148990Y0135500D03*
D14*
X0087593Y0413000D03*
X0067907Y0413000D03*
D15*
X0068695Y0399152D03*
X0077750Y0399152D03*
X0086805Y0399152D03*
X0081805Y0362902D03*
X0072750Y0362902D03*
X0063695Y0362902D03*
D16*
X0072750Y0338098D03*
X0077750Y0374348D03*
D17*
X0047750Y0073300D03*
X0042750Y0073300D03*
X0037750Y0073300D03*
X0032750Y0073300D03*
X0032750Y0052700D03*
X0037750Y0052700D03*
X0042750Y0052700D03*
X0047750Y0052700D03*
D18*
X0057750Y0018500D02*
X0057750Y0012500D01*
X0067750Y0012500D02*
X0067750Y0018500D01*
X0116500Y0025000D02*
X0116500Y0031000D01*
X0126500Y0031000D02*
X0126500Y0025000D01*
X0103250Y0159250D02*
X0097250Y0159250D01*
X0097250Y0169250D02*
X0103250Y0169250D01*
X0103250Y0179250D02*
X0097250Y0179250D01*
X0101500Y0235000D02*
X0101500Y0241000D01*
X0111500Y0241000D02*
X0111500Y0235000D01*
X0121500Y0235000D02*
X0121500Y0241000D01*
X0171000Y0199250D02*
X0177000Y0199250D01*
X0177000Y0189250D02*
X0171000Y0189250D01*
X0171000Y0179250D02*
X0177000Y0179250D01*
X0096500Y0451250D02*
X0096500Y0457250D01*
X0086500Y0457250D02*
X0086500Y0451250D01*
X0076500Y0451250D02*
X0076500Y0457250D01*
X0055750Y0271750D02*
X0049750Y0271750D01*
X0049750Y0261750D02*
X0055750Y0261750D01*
X0055750Y0251750D02*
X0049750Y0251750D01*
X0049750Y0241750D02*
X0055750Y0241750D01*
X0055750Y0231750D02*
X0049750Y0231750D01*
D19*
X0099876Y0113000D03*
X0115624Y0113000D03*
X0139876Y0118000D03*
X0155624Y0118000D03*
D20*
X0139000Y0033374D03*
X0139000Y0017626D03*
D21*
X0062140Y0463000D03*
X0048360Y0463000D03*
X0038390Y0463000D03*
X0024610Y0463000D03*
D22*
X0161313Y0254250D03*
X0169187Y0250510D03*
X0169187Y0257990D03*
D23*
X0021600Y0316600D03*
X0021600Y0334400D03*
D24*
X0031400Y0339300D03*
X0031400Y0311700D03*
D25*
X0151500Y0179250D03*
X0151500Y0170500D03*
D26*
X0135122Y0141238D03*
X0133154Y0141238D03*
X0131185Y0141238D03*
X0129217Y0141238D03*
X0127248Y0141238D03*
X0125280Y0141238D03*
X0123311Y0141238D03*
X0121343Y0141238D03*
X0119374Y0141238D03*
X0117406Y0141238D03*
X0115437Y0141238D03*
X0113469Y0141238D03*
X0111500Y0141238D03*
X0109531Y0141238D03*
X0107563Y0141238D03*
X0105594Y0141238D03*
X0103626Y0141238D03*
X0101657Y0141238D03*
X0099689Y0141238D03*
X0097720Y0141238D03*
X0095752Y0141238D03*
X0093783Y0141238D03*
X0091815Y0141238D03*
X0089846Y0141238D03*
X0087878Y0141238D03*
X0087878Y0202262D03*
X0089846Y0202262D03*
X0091815Y0202262D03*
X0093783Y0202262D03*
X0095752Y0202262D03*
X0097720Y0202262D03*
X0099689Y0202262D03*
X0101657Y0202262D03*
X0103626Y0202262D03*
X0105594Y0202262D03*
X0107563Y0202262D03*
X0109531Y0202262D03*
X0111500Y0202262D03*
X0113469Y0202262D03*
X0115437Y0202262D03*
X0117406Y0202262D03*
X0119374Y0202262D03*
X0121343Y0202262D03*
X0123311Y0202262D03*
X0125280Y0202262D03*
X0127248Y0202262D03*
X0129217Y0202262D03*
X0131185Y0202262D03*
X0133154Y0202262D03*
X0135122Y0202262D03*
D27*
X0142012Y0195372D03*
X0142012Y0193404D03*
X0142012Y0191435D03*
X0142012Y0189467D03*
X0142012Y0187498D03*
X0142012Y0185530D03*
X0142012Y0183561D03*
X0142012Y0181593D03*
X0142012Y0179624D03*
X0142012Y0177656D03*
X0142012Y0175687D03*
X0142012Y0173719D03*
X0142012Y0171750D03*
X0142012Y0169781D03*
X0142012Y0167813D03*
X0142012Y0165844D03*
X0142012Y0163876D03*
X0142012Y0161907D03*
X0142012Y0159939D03*
X0142012Y0157970D03*
X0142012Y0156002D03*
X0142012Y0154033D03*
X0142012Y0152065D03*
X0142012Y0150096D03*
X0142012Y0148128D03*
X0080988Y0148128D03*
X0080988Y0150096D03*
X0080988Y0152065D03*
X0080988Y0154033D03*
X0080988Y0156002D03*
X0080988Y0157970D03*
X0080988Y0159939D03*
X0080988Y0161907D03*
X0080988Y0163876D03*
X0080988Y0165844D03*
X0080988Y0167813D03*
X0080988Y0169781D03*
X0080988Y0171750D03*
X0080988Y0173719D03*
X0080988Y0175687D03*
X0080988Y0177656D03*
X0080988Y0179624D03*
X0080988Y0181593D03*
X0080988Y0183561D03*
X0080988Y0185530D03*
X0080988Y0187498D03*
X0080988Y0189467D03*
X0080988Y0191435D03*
X0080988Y0193404D03*
X0080988Y0195372D03*
D28*
X0068557Y0194634D03*
X0068557Y0198965D03*
X0068557Y0203295D03*
X0068557Y0207626D03*
X0068557Y0211957D03*
X0068557Y0190303D03*
X0068557Y0185972D03*
X0068557Y0181642D03*
D29*
X0063439Y0221012D03*
D30*
X0026825Y0221012D03*
X0026825Y0159988D03*
D31*
X0064423Y0163531D03*
D32*
X0025250Y0178492D03*
X0025250Y0209988D03*
D33*
X0133076Y0465341D03*
X0150476Y0465341D03*
X0167876Y0465341D03*
D34*
X0143357Y0281557D02*
X0142517Y0281557D01*
X0142517Y0284679D01*
X0143357Y0284679D01*
X0143357Y0281557D01*
X0143357Y0282541D02*
X0142517Y0282541D01*
X0142517Y0283525D02*
X0143357Y0283525D01*
X0143357Y0284509D02*
X0142517Y0284509D01*
X0141389Y0281557D02*
X0140549Y0281557D01*
X0140549Y0284679D01*
X0141389Y0284679D01*
X0141389Y0281557D01*
X0141389Y0282541D02*
X0140549Y0282541D01*
X0140549Y0283525D02*
X0141389Y0283525D01*
X0141389Y0284509D02*
X0140549Y0284509D01*
X0139420Y0281557D02*
X0138580Y0281557D01*
X0138580Y0284679D01*
X0139420Y0284679D01*
X0139420Y0281557D01*
X0139420Y0282541D02*
X0138580Y0282541D01*
X0138580Y0283525D02*
X0139420Y0283525D01*
X0139420Y0284509D02*
X0138580Y0284509D01*
X0137451Y0281557D02*
X0136611Y0281557D01*
X0136611Y0284679D01*
X0137451Y0284679D01*
X0137451Y0281557D01*
X0137451Y0282541D02*
X0136611Y0282541D01*
X0136611Y0283525D02*
X0137451Y0283525D01*
X0137451Y0284509D02*
X0136611Y0284509D01*
X0135483Y0281557D02*
X0134643Y0281557D01*
X0134643Y0284679D01*
X0135483Y0284679D01*
X0135483Y0281557D01*
X0135483Y0282541D02*
X0134643Y0282541D01*
X0134643Y0283525D02*
X0135483Y0283525D01*
X0135483Y0284509D02*
X0134643Y0284509D01*
X0132943Y0279857D02*
X0132943Y0279017D01*
X0129821Y0279017D01*
X0129821Y0279857D01*
X0132943Y0279857D01*
X0132943Y0277889D02*
X0132943Y0277049D01*
X0129821Y0277049D01*
X0129821Y0277889D01*
X0132943Y0277889D01*
X0132943Y0275920D02*
X0132943Y0275080D01*
X0129821Y0275080D01*
X0129821Y0275920D01*
X0132943Y0275920D01*
X0132943Y0273951D02*
X0132943Y0273111D01*
X0129821Y0273111D01*
X0129821Y0273951D01*
X0132943Y0273951D01*
X0132943Y0271983D02*
X0132943Y0271143D01*
X0129821Y0271143D01*
X0129821Y0271983D01*
X0132943Y0271983D01*
X0134643Y0269443D02*
X0135483Y0269443D01*
X0135483Y0266321D01*
X0134643Y0266321D01*
X0134643Y0269443D01*
X0134643Y0267305D02*
X0135483Y0267305D01*
X0135483Y0268289D02*
X0134643Y0268289D01*
X0134643Y0269273D02*
X0135483Y0269273D01*
X0136611Y0269443D02*
X0137451Y0269443D01*
X0137451Y0266321D01*
X0136611Y0266321D01*
X0136611Y0269443D01*
X0136611Y0267305D02*
X0137451Y0267305D01*
X0137451Y0268289D02*
X0136611Y0268289D01*
X0136611Y0269273D02*
X0137451Y0269273D01*
X0138580Y0269443D02*
X0139420Y0269443D01*
X0139420Y0266321D01*
X0138580Y0266321D01*
X0138580Y0269443D01*
X0138580Y0267305D02*
X0139420Y0267305D01*
X0139420Y0268289D02*
X0138580Y0268289D01*
X0138580Y0269273D02*
X0139420Y0269273D01*
X0140549Y0269443D02*
X0141389Y0269443D01*
X0141389Y0266321D01*
X0140549Y0266321D01*
X0140549Y0269443D01*
X0140549Y0267305D02*
X0141389Y0267305D01*
X0141389Y0268289D02*
X0140549Y0268289D01*
X0140549Y0269273D02*
X0141389Y0269273D01*
X0142517Y0269443D02*
X0143357Y0269443D01*
X0143357Y0266321D01*
X0142517Y0266321D01*
X0142517Y0269443D01*
X0142517Y0267305D02*
X0143357Y0267305D01*
X0143357Y0268289D02*
X0142517Y0268289D01*
X0142517Y0269273D02*
X0143357Y0269273D01*
X0145057Y0271143D02*
X0145057Y0271983D01*
X0148179Y0271983D01*
X0148179Y0271143D01*
X0145057Y0271143D01*
X0145057Y0273111D02*
X0145057Y0273951D01*
X0148179Y0273951D01*
X0148179Y0273111D01*
X0145057Y0273111D01*
X0145057Y0275080D02*
X0145057Y0275920D01*
X0148179Y0275920D01*
X0148179Y0275080D01*
X0145057Y0275080D01*
X0145057Y0277049D02*
X0145057Y0277889D01*
X0148179Y0277889D01*
X0148179Y0277049D01*
X0145057Y0277049D01*
X0145057Y0279017D02*
X0145057Y0279857D01*
X0148179Y0279857D01*
X0148179Y0279017D01*
X0145057Y0279017D01*
D35*
X0139000Y0275500D03*
D36*
X0153026Y0273797D03*
X0153026Y0279703D03*
X0162474Y0279703D03*
X0162474Y0273797D03*
D37*
X0141500Y0073850D03*
X0136500Y0073850D03*
X0131500Y0073850D03*
X0126500Y0073850D03*
X0121500Y0073850D03*
X0116500Y0073850D03*
X0111500Y0073850D03*
X0106500Y0073850D03*
X0106500Y0049650D03*
X0111500Y0049650D03*
X0116500Y0049650D03*
X0121500Y0049650D03*
X0126500Y0049650D03*
X0131500Y0049650D03*
X0136500Y0049650D03*
X0141500Y0049650D03*
D38*
X0064581Y0128876D03*
X0064581Y0132026D03*
X0064581Y0135175D03*
X0064581Y0138325D03*
X0064581Y0141474D03*
X0064581Y0144624D03*
X0055919Y0144624D03*
X0055919Y0141474D03*
X0055919Y0138325D03*
X0055919Y0135175D03*
X0055919Y0132026D03*
X0055919Y0128876D03*
D39*
X0060250Y0128482D03*
X0060250Y0145018D03*
D40*
X0070663Y0428000D03*
X0084837Y0428000D03*
D41*
X0156411Y0424693D03*
X0158970Y0424693D03*
X0161530Y0424693D03*
X0164089Y0424693D03*
X0164089Y0441307D03*
X0161530Y0441307D03*
X0158970Y0441307D03*
X0156411Y0441307D03*
D42*
X0160250Y0433000D03*
D43*
X0149299Y0371402D03*
X0149299Y0359598D03*
D44*
X0149295Y0365500D03*
D45*
X0142091Y0366484D02*
X0142091Y0364417D01*
X0133528Y0364417D01*
X0133528Y0366484D01*
X0142091Y0366484D01*
D46*
X0156500Y0382154D03*
X0156500Y0388846D03*
X0156500Y0397154D03*
X0156500Y0403846D03*
D47*
X0148921Y0378551D03*
X0139079Y0397449D03*
D48*
X0120762Y0347783D03*
X0109738Y0347783D03*
D49*
X0115250Y0338217D03*
D50*
X0109581Y0132400D03*
X0109581Y0126100D03*
X0100919Y0126100D03*
X0100919Y0132400D03*
D51*
X0143360Y0249093D03*
X0145329Y0249093D03*
X0147297Y0249093D03*
X0149266Y0249093D03*
X0151234Y0249093D03*
X0153203Y0249093D03*
X0155171Y0249093D03*
X0157140Y0249093D03*
D52*
X0169246Y0242793D03*
X0131254Y0242793D03*
D53*
X0135880Y0241120D03*
X0164620Y0241120D03*
D54*
X0096490Y0290402D03*
X0032248Y0428256D03*
X0033498Y0018748D03*
X0167356Y0018748D03*
M02*
