%
M48
M72
T01C0.00787
T02C0.01181
T03C0.03937
T04C0.04000
T05C0.05900
T06C0.11024
%
T01
X24000Y34703
X29000Y44703
X24000Y53453
X24000Y74703
X27750Y77203
X32750Y63453
X39000Y90953
X46500Y63453
X52750Y67203
X57750Y62203
X57750Y82203
X54000Y97203
X50250Y85500
X65250Y110953
X74000Y97203
X77750Y109703
X84000Y138453
X84000Y142203
X86500Y150500
X89000Y162203
X86500Y168453
X91500Y157203
X92750Y134250
X104000Y147203
X109000Y155953
X109000Y164703
X109000Y174703
X119000Y173453
X119000Y164703
X119000Y155953
X117750Y147203
X121500Y147203
X126500Y146750
X131500Y134250
X137750Y127203
X144000Y128453
X149000Y142203
X151500Y145953
X154000Y140953
X152750Y154703
X150250Y159250
X152750Y161750
X156500Y159703
X157750Y164250
X157750Y168000
X169000Y172203
X171500Y160953
X176500Y155953
X176500Y152203
X176500Y148453
X175250Y144703
X171500Y144703
X169000Y142203
X164000Y135953
X162750Y128453
X162750Y119703
X162750Y113453
X155250Y109703
X155250Y99703
X160250Y90953
X160250Y64703
X172750Y79703
X172750Y49703
X174000Y32203
X157750Y34703
X150250Y17203
X155250Y9703
X145250Y9703
X135250Y25953
X132750Y42203
X125250Y62203
X114000Y60953
X107750Y60953
X100250Y52203
X100250Y48453
X95250Y48453
X95250Y52203
X90250Y63453
X92750Y72203
X84000Y80953
X96500Y97203
X100250Y84703
X109000Y98000
X107750Y115953
X110250Y125953
X112750Y146750
X127750Y182203
X126500Y195953
X125250Y208000
X127750Y211750
X132750Y211750
X135250Y208000
X140250Y204703
X142750Y199703
X144000Y209703
X145250Y216750
X140250Y223453
X140250Y233453
X141500Y245520
X145250Y244250
X147750Y241750
X150250Y238000
X152750Y234250
X156500Y213453
X169000Y210953
X171500Y207203
X175250Y207203
X174000Y219703
X172750Y227203
X175250Y252203
X175250Y255953
X175250Y259703
X166500Y285953
X162750Y289703
X160250Y285953
X162750Y299703
X162750Y303453
X162750Y307203
X162750Y310953
X162750Y314703
X161500Y318453
X159000Y330953
X161500Y333453
X161500Y337203
X161500Y340953
X161500Y344703
X161500Y348453
X159000Y350953
X155250Y352203
X155250Y355953
X155250Y330953
X155250Y327203
X155250Y323453
X149000Y313453
X142750Y343453
X141500Y345953
X129000Y329703
X121500Y320953
X119000Y323453
X116500Y325953
X116500Y329703
X116500Y333453
X112750Y333453
X109000Y334703
X109000Y338453
X109000Y342203
X115250Y344703
X115250Y348453
X115250Y352203
X121500Y363453
X122750Y368453
X122750Y372203
X125250Y363453
X129000Y372203
X126500Y349703
X121500Y317203
X121500Y313453
X121500Y309703
X121500Y305953
X121500Y302203
X121500Y298453
X121500Y289703
X117750Y289703
X112750Y290953
X110250Y285953
X107750Y279703
X107750Y275953
X105250Y272203
X107750Y268453
X107750Y264703
X106500Y262203
X109000Y257203
X110250Y263453
X112750Y257203
X114000Y263453
X117750Y263453
X116500Y257203
X120250Y257203
X122750Y259703
X124000Y255500
X127750Y258000
X126500Y262203
X125250Y265953
X121500Y265953
X130250Y265500
X131500Y260500
X135250Y263000
X149000Y259703
X156500Y265953
X170250Y299703
X175250Y304703
X170250Y315953
X176500Y327203
X169000Y342203
X169000Y355953
X169000Y373453
X176500Y292203
X136500Y192203
X136500Y182203
X136500Y172203
X136500Y163453
X136500Y154250
X144000Y144703
X147750Y154250
X154000Y125953
X144000Y108453
X137750Y108453
X145250Y93453
X145250Y84703
X145250Y73453
X140250Y62203
X146500Y52203
X144000Y42203
X127750Y10953
X114000Y9703
X109000Y25953
X109000Y30953
X104000Y29703
X104000Y33453
X104000Y37203
X104000Y40953
X104000Y25953
X104000Y22203
X104000Y18453
X104000Y14703
X104000Y10953
X94000Y23453
X92750Y17203
X85250Y12203
X74000Y10953
X62750Y8453
X57750Y44703
X47750Y38453
X49000Y24703
X49000Y10953
X70250Y70953
X60250Y134703
X60250Y138453
X67750Y149703
X70250Y164703
X75250Y173453
X75250Y183000
X75250Y191750
X75250Y195500
X75250Y200500
X75250Y209250
X75250Y234703
X75250Y247203
X72750Y257203
X76500Y273453
X79000Y283000
X84000Y284703
X84000Y300953
X91500Y319703
X90250Y334703
X90250Y344703
X91500Y354703
X100250Y353453
X99000Y372203
X104000Y380953
X100250Y389703
X104000Y399703
X102750Y410953
X104000Y418453
X102750Y428453
X102750Y439703
X99000Y445953
X101500Y448453
X102750Y450953
X102750Y454703
X102750Y458453
X101500Y460953
X99000Y463453
X94000Y463453
X91500Y460953
X91500Y448453
X94000Y445953
X87750Y420953
X84000Y420953
X77750Y435500
X71500Y435953
X66500Y435953
X64000Y448453
X70250Y448453
X69000Y459703
X80250Y467203
X75250Y420953
X75250Y410953
X74000Y387203
X69000Y387203
X60250Y410953
X60250Y417203
X60250Y423453
X64000Y420953
X51500Y423453
X49000Y410953
X46500Y387203
X52750Y370953
X47750Y348453
X55250Y334703
X56500Y320953
X55250Y312203
X60250Y293453
X59000Y278453
X62750Y264703
X64000Y249703
X62750Y229703
X52750Y223453
X44000Y220953
X44000Y198453
X30250Y227203
X26500Y237203
X27750Y245953
X25250Y255953
X29000Y265953
X25250Y275953
X29000Y289703
X24000Y298453
X34000Y303453
X27750Y324703
X27750Y330953
X24000Y342203
X32750Y357203
X25250Y369703
X32750Y382203
X26500Y394703
X31500Y405953
X35250Y411750
X24000Y414703
X30250Y446750
X39000Y452203
X31500Y469703
X51500Y437203
X84000Y387203
X89000Y387203
X82750Y350953
X75250Y350953
X71500Y350953
X66500Y350953
X69000Y330953
X66500Y326750
X69000Y323453
X75250Y317203
X79000Y330500
X69000Y304703
X71500Y283453
X89000Y263453
X89000Y247203
X97750Y274703
X112750Y313453
X104000Y325953
X110250Y370500
X110250Y429250
X110250Y442203
X112750Y452203
X111500Y463453
X47750Y304703
X24000Y227203
X35250Y153000
X47750Y146750
X75250Y148453
X75250Y153000
X89000Y186750
X92750Y184250
X96500Y189703
X90250Y195953
X95250Y206750
X100250Y208000
X102750Y197203
X100250Y219250
X100250Y225953
X112750Y219703
X116500Y227203
X122750Y227203
X115250Y195953
X121500Y189703
X126500Y104703
X116500Y99703
X172750Y133453
X174000Y109703
X175250Y167203
T02
X150250Y100500
X150250Y48000
X91500Y209250
X91500Y219250
X82750Y219250
X82750Y203000
X65250Y172203
X60250Y187203
X57750Y183453
X57750Y172203
X62750Y196750
X62750Y200953
X62750Y204703
X77750Y144703
X77750Y140953
X79000Y128453
X80250Y119703
X71500Y120953
X54000Y113453
X44000Y84250
X39000Y107203
X41500Y124703
X40250Y142203
X40250Y159703
X41500Y170953
X27750Y168453
X27750Y148453
X29000Y132203
X27750Y115953
X26500Y97203
X51500Y53453
X51500Y49703
X79000Y61750
X79000Y26750
X27750Y199703
X84000Y390953
X89000Y390953
X94000Y393453
X94000Y397203
X94000Y400953
X95250Y408453
X95250Y413453
X95250Y418453
X91500Y423453
X91500Y428453
X91500Y433453
X115250Y417203
X119000Y425953
X122750Y433453
X122750Y440953
X122750Y444703
X122750Y448453
X122750Y452203
X125250Y454703
X125250Y458453
X125250Y462203
X125250Y465953
X125250Y469703
X127750Y452203
X129000Y444703
X127750Y433453
X129000Y427203
X127750Y422203
X132750Y422203
X127750Y414703
X127750Y409703
X127750Y400953
X129000Y397203
X125250Y397203
X124000Y400953
X124000Y409703
X120250Y409703
X120250Y400953
X121500Y397203
X120250Y393453
X120250Y388453
X120250Y383453
X121500Y378453
X126500Y378453
X129000Y367203
X129000Y363453
X132750Y363453
X132750Y367203
X136500Y367203
X136500Y370953
X136500Y378453
X139000Y375953
X140250Y370953
X140250Y367203
X140250Y363453
X140250Y359703
X136500Y359703
X136500Y363453
X131500Y378453
X142750Y375953
X144000Y370953
X144000Y367203
X144000Y363453
X144000Y359703
X151500Y383453
X151500Y388453
X151500Y394703
X151500Y399703
X146500Y399703
X147750Y413453
X147750Y422203
X151500Y424703
X151500Y428453
X151500Y432203
X147750Y433453
X142750Y433453
X142750Y428453
X142750Y422203
X141500Y413453
X137750Y422203
X137750Y433453
X132750Y433453
X140250Y458453
X140250Y462203
X140250Y465953
X140250Y469703
X160250Y469703
X160250Y465953
X160250Y462203
X160250Y458453
X167750Y445953
X169000Y437203
X172750Y433453
X169000Y430953
X162750Y418000
X162750Y412203
X171500Y410953
X172750Y383453
X167750Y383453
X162750Y383453
X162750Y378453
X162750Y372203
X162750Y365953
X161500Y359703
X155250Y359703
X141500Y330953
X141500Y325953
X141500Y305953
X150250Y285500
X141500Y278000
X136500Y273000
X121500Y285500
X115250Y285500
X165250Y269250
X174000Y447203
X172750Y452203
X175250Y454703
X175250Y458453
X175250Y462203
X175250Y465953
X175250Y469703
X61500Y435500
X61500Y405500
T03
X25250Y209988
X25250Y178492
T04
X52750Y231750
X52750Y241750
X52750Y251750
X52750Y261750
X52750Y271750
X21600Y316600
X21600Y334400
X76500Y454250
X86500Y454250
X96500Y454250
X101500Y238000
X111500Y238000
X121500Y238000
X100250Y179250
X100250Y169250
X100250Y159250
X116500Y28000
X126500Y28000
X174000Y179250
X174000Y189250
X174000Y199250
X67750Y15500
X57750Y15500
T05
X31400Y311700
X31400Y339300
T06
X32248Y428256
X96490Y290402
X33498Y18748
X167356Y18748
M30
