G75*
%MOIN*%
%OFA0B0*%
%FSLAX25Y25*%
%IPPOS*%
%LPD*%
%AMOC8*
5,1,8,0,0,1.08239X$1,22.5*
%
%ADD10R,0.16500X0.10500*%
%ADD11C,0.06000*%
%ADD12C,0.02400*%
%ADD13C,0.02781*%
D10*
X0046835Y0024575D03*
X0046835Y0052092D03*
X0128603Y0052092D03*
X0128603Y0024575D03*
D11*
X0095006Y0065333D02*
X0095006Y0071333D01*
X0085006Y0071333D02*
X0085006Y0065333D01*
D12*
X0048035Y0025775D02*
X0048035Y0023375D01*
X0057285Y0023375D01*
X0057285Y0019035D01*
X0057150Y0018533D01*
X0118288Y0018533D01*
X0118153Y0019035D01*
X0118153Y0023375D01*
X0127403Y0023375D01*
X0127403Y0025775D01*
X0118153Y0025775D01*
X0118153Y0030115D01*
X0118303Y0030674D01*
X0118593Y0031176D01*
X0119002Y0031585D01*
X0119504Y0031875D01*
X0120064Y0032025D01*
X0127403Y0032025D01*
X0127403Y0025775D01*
X0129803Y0025775D01*
X0129803Y0032025D01*
X0131731Y0032025D01*
X0131731Y0044642D01*
X0129803Y0044642D01*
X0129803Y0050892D01*
X0127403Y0050892D01*
X0118153Y0050892D01*
X0118153Y0046552D01*
X0118303Y0045992D01*
X0118593Y0045491D01*
X0119002Y0045081D01*
X0119504Y0044792D01*
X0120064Y0044642D01*
X0127403Y0044642D01*
X0127403Y0050892D01*
X0127403Y0053292D01*
X0127403Y0059542D01*
X0120064Y0059542D01*
X0119504Y0059392D01*
X0119002Y0059102D01*
X0118593Y0058692D01*
X0118303Y0058191D01*
X0118153Y0057631D01*
X0118153Y0053292D01*
X0127403Y0053292D01*
X0129803Y0053292D01*
X0129803Y0059542D01*
X0131731Y0059542D01*
X0131731Y0075062D01*
X0098631Y0075062D01*
X0098973Y0074721D01*
X0099454Y0074059D01*
X0099825Y0073329D01*
X0100078Y0072551D01*
X0100206Y0071743D01*
X0100206Y0068333D01*
X0095006Y0068333D01*
X0095006Y0068333D01*
X0095006Y0060133D01*
X0094597Y0060133D01*
X0093789Y0060261D01*
X0093010Y0060514D01*
X0092281Y0060886D01*
X0091619Y0061367D01*
X0091040Y0061946D01*
X0090559Y0062608D01*
X0090187Y0063337D01*
X0090116Y0063558D01*
X0089584Y0062274D01*
X0088065Y0060755D01*
X0086080Y0059933D01*
X0083932Y0059933D01*
X0081947Y0060755D01*
X0080428Y0062274D01*
X0079606Y0064259D01*
X0079606Y0072407D01*
X0080428Y0074392D01*
X0081099Y0075062D01*
X0043706Y0075062D01*
X0043706Y0059542D01*
X0045635Y0059542D01*
X0045635Y0053292D01*
X0048035Y0053292D01*
X0048035Y0059542D01*
X0055374Y0059542D01*
X0055934Y0059392D01*
X0056435Y0059102D01*
X0056845Y0058692D01*
X0057135Y0058191D01*
X0057285Y0057631D01*
X0057285Y0053292D01*
X0048035Y0053292D01*
X0048035Y0050892D01*
X0057285Y0050892D01*
X0057285Y0046552D01*
X0057135Y0045992D01*
X0056845Y0045491D01*
X0056435Y0045081D01*
X0055934Y0044792D01*
X0055374Y0044642D01*
X0048035Y0044642D01*
X0048035Y0050892D01*
X0045635Y0050892D01*
X0045635Y0044642D01*
X0043706Y0044642D01*
X0043706Y0032025D01*
X0045635Y0032025D01*
X0045635Y0025775D01*
X0048035Y0025775D01*
X0057285Y0025775D01*
X0057285Y0030115D01*
X0057135Y0030674D01*
X0056845Y0031176D01*
X0056435Y0031585D01*
X0055934Y0031875D01*
X0055374Y0032025D01*
X0048035Y0032025D01*
X0048035Y0025775D01*
X0048035Y0025326D02*
X0127403Y0025326D01*
X0127403Y0027724D02*
X0129803Y0027724D01*
X0129803Y0030123D02*
X0127403Y0030123D01*
X0131731Y0032521D02*
X0043706Y0032521D01*
X0043706Y0034920D02*
X0131731Y0034920D01*
X0131731Y0037318D02*
X0043706Y0037318D01*
X0043706Y0039717D02*
X0131731Y0039717D01*
X0131731Y0042115D02*
X0043706Y0042115D01*
X0043706Y0044514D02*
X0131731Y0044514D01*
X0129803Y0046912D02*
X0127403Y0046912D01*
X0127403Y0049311D02*
X0129803Y0049311D01*
X0127403Y0051710D02*
X0048035Y0051710D01*
X0048035Y0054108D02*
X0045635Y0054108D01*
X0045635Y0056507D02*
X0048035Y0056507D01*
X0048035Y0058905D02*
X0045635Y0058905D01*
X0043706Y0061304D02*
X0081399Y0061304D01*
X0079837Y0063702D02*
X0043706Y0063702D01*
X0043706Y0066101D02*
X0079606Y0066101D01*
X0079606Y0068499D02*
X0043706Y0068499D01*
X0043706Y0070898D02*
X0079606Y0070898D01*
X0079974Y0073296D02*
X0043706Y0073296D01*
X0056632Y0058905D02*
X0118805Y0058905D01*
X0118153Y0056507D02*
X0057285Y0056507D01*
X0057285Y0054108D02*
X0118153Y0054108D01*
X0127403Y0054108D02*
X0129803Y0054108D01*
X0129803Y0056507D02*
X0127403Y0056507D01*
X0127403Y0058905D02*
X0129803Y0058905D01*
X0131731Y0061304D02*
X0098307Y0061304D01*
X0098394Y0061367D02*
X0098973Y0061946D01*
X0099454Y0062608D01*
X0099825Y0063337D01*
X0100078Y0064116D01*
X0100206Y0064924D01*
X0100206Y0068333D01*
X0095006Y0068333D01*
X0095006Y0060133D01*
X0095416Y0060133D01*
X0096224Y0060261D01*
X0097002Y0060514D01*
X0097732Y0060886D01*
X0098394Y0061367D01*
X0095006Y0061304D02*
X0095006Y0061304D01*
X0091706Y0061304D02*
X0088613Y0061304D01*
X0095006Y0063702D02*
X0095006Y0063702D01*
X0099944Y0063702D02*
X0131731Y0063702D01*
X0131731Y0066101D02*
X0100206Y0066101D01*
X0100206Y0068499D02*
X0131731Y0068499D01*
X0131731Y0070898D02*
X0100206Y0070898D01*
X0099836Y0073296D02*
X0131731Y0073296D01*
X0095006Y0068333D02*
X0095006Y0068333D01*
X0095006Y0066101D02*
X0095006Y0066101D01*
X0090116Y0073109D02*
X0089584Y0074392D01*
X0088914Y0075062D01*
X0091382Y0075062D01*
X0091040Y0074721D01*
X0090559Y0074059D01*
X0090187Y0073329D01*
X0090116Y0073109D01*
X0090176Y0073296D02*
X0090038Y0073296D01*
X0118153Y0049311D02*
X0057285Y0049311D01*
X0057285Y0046912D02*
X0118153Y0046912D01*
X0118155Y0030123D02*
X0057282Y0030123D01*
X0057285Y0027724D02*
X0118153Y0027724D01*
X0118153Y0022927D02*
X0057285Y0022927D01*
X0057285Y0020529D02*
X0118153Y0020529D01*
X0048035Y0027724D02*
X0045635Y0027724D01*
X0045635Y0030123D02*
X0048035Y0030123D01*
X0048035Y0046912D02*
X0045635Y0046912D01*
X0045635Y0049311D02*
X0048035Y0049311D01*
D13*
X0058506Y0050833D03*
X0058506Y0045833D03*
X0063506Y0045833D03*
X0068506Y0045833D03*
X0073506Y0045833D03*
X0078506Y0045833D03*
X0091006Y0045833D03*
X0096006Y0045833D03*
X0098506Y0048333D03*
X0101006Y0045833D03*
X0106006Y0045833D03*
X0111006Y0045833D03*
X0116006Y0045833D03*
X0116006Y0050833D03*
X0116006Y0055833D03*
X0121006Y0060833D03*
X0126006Y0060833D03*
X0131006Y0060833D03*
X0098506Y0058333D03*
X0098506Y0053333D03*
X0088506Y0038333D03*
X0088506Y0030833D03*
X0083506Y0030833D03*
X0078506Y0030833D03*
X0073506Y0030833D03*
X0068506Y0030833D03*
X0063506Y0030833D03*
X0058506Y0030833D03*
X0058506Y0025833D03*
X0058506Y0020833D03*
X0093506Y0030833D03*
X0098506Y0030833D03*
X0103506Y0030833D03*
X0108506Y0030833D03*
X0116006Y0030833D03*
X0116006Y0025833D03*
X0116006Y0020833D03*
X0058506Y0055833D03*
X0056006Y0060833D03*
X0051006Y0060833D03*
X0046006Y0060833D03*
M02*
