%
M48
M72
T01C0.01181
T02C0.04000
%
T01
X58506Y20833
X58506Y25833
X58506Y30833
X63506Y30833
X68506Y30833
X73506Y30833
X78506Y30833
X83506Y30833
X88506Y30833
X93506Y30833
X98506Y30833
X103506Y30833
X108506Y30833
X116006Y30833
X116006Y25833
X116006Y20833
X88506Y38333
X91006Y45833
X96006Y45833
X98506Y48333
X101006Y45833
X106006Y45833
X111006Y45833
X116006Y45833
X116006Y50833
X116006Y55833
X121006Y60833
X126006Y60833
X131006Y60833
X98506Y58333
X98506Y53333
X78506Y45833
X73506Y45833
X68506Y45833
X63506Y45833
X58506Y45833
X58506Y50833
X58506Y55833
X56006Y60833
X51006Y60833
X46006Y60833
T02
X85006Y68333
X95006Y68333
M30
