G04 #@! TF.GenerationSoftware,KiCad,Pcbnew,5.1.6-c6e7f7d~87~ubuntu18.04.1*
G04 #@! TF.CreationDate,2020-07-31T23:24:34+02:00*
G04 #@! TF.ProjectId,HMI,484d492e-6b69-4636-9164-5f7063625858,rev?*
G04 #@! TF.SameCoordinates,Original*
G04 #@! TF.FileFunction,Legend,Top*
G04 #@! TF.FilePolarity,Positive*
%FSLAX46Y46*%
G04 Gerber Fmt 4.6, Leading zero omitted, Abs format (unit mm)*
G04 Created by KiCad (PCBNEW 5.1.6-c6e7f7d~87~ubuntu18.04.1) date 2020-07-31 23:24:34*
%MOMM*%
%LPD*%
G01*
G04 APERTURE LIST*
%ADD10C,0.350000*%
%ADD11C,0.120000*%
%ADD12C,0.125000*%
%ADD13C,0.150000*%
G04 APERTURE END LIST*
D10*
X128016000Y-85344000D02*
X158750000Y-85344000D01*
X128016000Y-49276000D02*
X128016000Y-85344000D01*
X158750000Y-49276000D02*
X158750000Y-85344000D01*
X128016000Y-49276000D02*
X158750000Y-49276000D01*
D11*
X119862600Y-39852600D02*
X121894600Y-39852600D01*
X161100500Y-45439000D02*
X163385500Y-45439000D01*
X161100500Y-43969000D02*
X161100500Y-45439000D01*
X163385500Y-43969000D02*
X161100500Y-43969000D01*
X161100300Y-43000600D02*
X163385300Y-43000600D01*
X161100300Y-41530600D02*
X161100300Y-43000600D01*
X163385300Y-41530600D02*
X161100300Y-41530600D01*
X134694020Y-89793280D02*
X134694020Y-89693280D01*
X130294020Y-91293280D02*
X134694020Y-91293280D01*
X134694020Y-88193280D02*
X130294020Y-88193280D01*
X130294020Y-89793280D02*
X130294020Y-89693280D01*
X156284020Y-124718280D02*
X156284020Y-124618280D01*
X151884020Y-126218280D02*
X156284020Y-126218280D01*
X156284020Y-123118280D02*
X151884020Y-123118280D01*
X151884020Y-124718280D02*
X151884020Y-124618280D01*
X156284020Y-117860280D02*
X156284020Y-117760280D01*
X151884020Y-119360280D02*
X156284020Y-119360280D01*
X156284020Y-116260280D02*
X151884020Y-116260280D01*
X151884020Y-117860280D02*
X151884020Y-117760280D01*
X156284020Y-111002280D02*
X156284020Y-110902280D01*
X151884020Y-112502280D02*
X156284020Y-112502280D01*
X156284020Y-109402280D02*
X151884020Y-109402280D01*
X151884020Y-111002280D02*
X151884020Y-110902280D01*
X156284020Y-104144280D02*
X156284020Y-104044280D01*
X151884020Y-105644280D02*
X156284020Y-105644280D01*
X156284020Y-102544280D02*
X151884020Y-102544280D01*
X151884020Y-104144280D02*
X151884020Y-104044280D01*
X156284020Y-96651280D02*
X156284020Y-96551280D01*
X151884020Y-98151280D02*
X156284020Y-98151280D01*
X156284020Y-95051280D02*
X151884020Y-95051280D01*
X151884020Y-96651280D02*
X151884020Y-96551280D01*
X156284020Y-89793280D02*
X156284020Y-89693280D01*
X151884020Y-91293280D02*
X156284020Y-91293280D01*
X156284020Y-88193280D02*
X151884020Y-88193280D01*
X151884020Y-89793280D02*
X151884020Y-89693280D01*
X145489020Y-124718280D02*
X145489020Y-124618280D01*
X141089020Y-126218280D02*
X145489020Y-126218280D01*
X145489020Y-123118280D02*
X141089020Y-123118280D01*
X141089020Y-124718280D02*
X141089020Y-124618280D01*
X145489020Y-117860280D02*
X145489020Y-117760280D01*
X141089020Y-119360280D02*
X145489020Y-119360280D01*
X145489020Y-116260280D02*
X141089020Y-116260280D01*
X141089020Y-117860280D02*
X141089020Y-117760280D01*
X145489020Y-111002280D02*
X145489020Y-110902280D01*
X141089020Y-112502280D02*
X145489020Y-112502280D01*
X145489020Y-109402280D02*
X141089020Y-109402280D01*
X141089020Y-111002280D02*
X141089020Y-110902280D01*
X145489020Y-104144280D02*
X145489020Y-104044280D01*
X141089020Y-105644280D02*
X145489020Y-105644280D01*
X145489020Y-102544280D02*
X141089020Y-102544280D01*
X141089020Y-104144280D02*
X141089020Y-104044280D01*
X145489020Y-96651280D02*
X145489020Y-96551280D01*
X141089020Y-98151280D02*
X145489020Y-98151280D01*
X145489020Y-95051280D02*
X141089020Y-95051280D01*
X141089020Y-96651280D02*
X141089020Y-96551280D01*
X145489020Y-89793280D02*
X145489020Y-89693280D01*
X141089020Y-91293280D02*
X145489020Y-91293280D01*
X145489020Y-88193280D02*
X141089020Y-88193280D01*
X141089020Y-89793280D02*
X141089020Y-89693280D01*
X134694020Y-124718280D02*
X134694020Y-124618280D01*
X130294020Y-126218280D02*
X134694020Y-126218280D01*
X134694020Y-123118280D02*
X130294020Y-123118280D01*
X130294020Y-124718280D02*
X130294020Y-124618280D01*
X134694020Y-117860280D02*
X134694020Y-117760280D01*
X130294020Y-119360280D02*
X134694020Y-119360280D01*
X134694020Y-116260280D02*
X130294020Y-116260280D01*
X130294020Y-117860280D02*
X130294020Y-117760280D01*
X134694020Y-111002280D02*
X134694020Y-110902280D01*
X130294020Y-112502280D02*
X134694020Y-112502280D01*
X134694020Y-109402280D02*
X130294020Y-109402280D01*
X130294020Y-111002280D02*
X130294020Y-110902280D01*
X134694020Y-104144280D02*
X134694020Y-104044280D01*
X130294020Y-105644280D02*
X134694020Y-105644280D01*
X134694020Y-102544280D02*
X130294020Y-102544280D01*
X130294020Y-104144280D02*
X130294020Y-104044280D01*
X134694020Y-96651280D02*
X134694020Y-96551280D01*
X130294020Y-98151280D02*
X134694020Y-98151280D01*
X134694020Y-95051280D02*
X130294020Y-95051280D01*
X130294020Y-96651280D02*
X130294020Y-96551280D01*
X122375200Y-111000321D02*
X122375200Y-111325879D01*
X123395200Y-111000321D02*
X123395200Y-111325879D01*
X157160279Y-121410000D02*
X156834721Y-121410000D01*
X157160279Y-122430000D02*
X156834721Y-122430000D01*
X157160279Y-114552000D02*
X156834721Y-114552000D01*
X157160279Y-115572000D02*
X156834721Y-115572000D01*
X157160279Y-107694000D02*
X156834721Y-107694000D01*
X157160279Y-108714000D02*
X156834721Y-108714000D01*
X157160279Y-100836000D02*
X156834721Y-100836000D01*
X157160279Y-101856000D02*
X156834721Y-101856000D01*
X157134779Y-93470000D02*
X156809221Y-93470000D01*
X157134779Y-94490000D02*
X156809221Y-94490000D01*
X157160279Y-86612000D02*
X156834721Y-86612000D01*
X157160279Y-87632000D02*
X156834721Y-87632000D01*
X125257679Y-111389700D02*
X124932121Y-111389700D01*
X125257679Y-112409700D02*
X124932121Y-112409700D01*
X125283079Y-116825300D02*
X124957521Y-116825300D01*
X125283079Y-117845300D02*
X124957521Y-117845300D01*
X125257679Y-112888300D02*
X124932121Y-112888300D01*
X125257679Y-113908300D02*
X124932121Y-113908300D01*
X125283079Y-118298500D02*
X124957521Y-118298500D01*
X125283079Y-119318500D02*
X124957521Y-119318500D01*
X124932121Y-116346700D02*
X125257679Y-116346700D01*
X124932121Y-115326700D02*
X125257679Y-115326700D01*
X122375200Y-116410621D02*
X122375200Y-116736179D01*
X123395200Y-116410621D02*
X123395200Y-116736179D01*
X124957521Y-110911100D02*
X125283079Y-110911100D01*
X124957521Y-109891100D02*
X125283079Y-109891100D01*
D12*
X162190952Y-46555790D02*
X162190952Y-46055790D01*
X162310000Y-46055790D01*
X162381428Y-46079600D01*
X162429047Y-46127219D01*
X162452857Y-46174838D01*
X162476666Y-46270076D01*
X162476666Y-46341504D01*
X162452857Y-46436742D01*
X162429047Y-46484361D01*
X162381428Y-46531980D01*
X162310000Y-46555790D01*
X162190952Y-46555790D01*
X162667142Y-46103409D02*
X162690952Y-46079600D01*
X162738571Y-46055790D01*
X162857619Y-46055790D01*
X162905238Y-46079600D01*
X162929047Y-46103409D01*
X162952857Y-46151028D01*
X162952857Y-46198647D01*
X162929047Y-46270076D01*
X162643333Y-46555790D01*
X162952857Y-46555790D01*
X162216252Y-41061790D02*
X162216252Y-40561790D01*
X162335300Y-40561790D01*
X162406728Y-40585600D01*
X162454347Y-40633219D01*
X162478157Y-40680838D01*
X162501966Y-40776076D01*
X162501966Y-40847504D01*
X162478157Y-40942742D01*
X162454347Y-40990361D01*
X162406728Y-41037980D01*
X162335300Y-41061790D01*
X162216252Y-41061790D01*
X162978157Y-41061790D02*
X162692442Y-41061790D01*
X162835300Y-41061790D02*
X162835300Y-40561790D01*
X162787680Y-40633219D01*
X162740061Y-40680838D01*
X162692442Y-40704647D01*
X121132647Y-136365790D02*
X121132647Y-135865790D01*
X121132647Y-136103885D02*
X121418361Y-136103885D01*
X121418361Y-136365790D02*
X121418361Y-135865790D01*
X121918361Y-136365790D02*
X121632647Y-136365790D01*
X121775504Y-136365790D02*
X121775504Y-135865790D01*
X121727885Y-135937219D01*
X121680266Y-135984838D01*
X121632647Y-136008647D01*
D13*
D12*
X159075167Y-36959670D02*
X159075167Y-36459670D01*
X159075167Y-36697765D02*
X159360881Y-36697765D01*
X159360881Y-36959670D02*
X159360881Y-36459670D01*
X159551358Y-36459670D02*
X159860881Y-36459670D01*
X159694215Y-36650146D01*
X159765643Y-36650146D01*
X159813262Y-36673956D01*
X159837072Y-36697765D01*
X159860881Y-36745384D01*
X159860881Y-36864432D01*
X159837072Y-36912051D01*
X159813262Y-36935860D01*
X159765643Y-36959670D01*
X159622786Y-36959670D01*
X159575167Y-36935860D01*
X159551358Y-36912051D01*
D13*
D12*
X124419407Y-37178110D02*
X124419407Y-36678110D01*
X124419407Y-36916205D02*
X124705121Y-36916205D01*
X124705121Y-37178110D02*
X124705121Y-36678110D01*
X124919407Y-36725729D02*
X124943217Y-36701920D01*
X124990836Y-36678110D01*
X125109883Y-36678110D01*
X125157502Y-36701920D01*
X125181312Y-36725729D01*
X125205121Y-36773348D01*
X125205121Y-36820967D01*
X125181312Y-36892396D01*
X124895598Y-37178110D01*
X125205121Y-37178110D01*
D13*
D12*
X158826247Y-140332590D02*
X158826247Y-139832590D01*
X158826247Y-140070685D02*
X159111961Y-140070685D01*
X159111961Y-140332590D02*
X159111961Y-139832590D01*
X159564342Y-139999257D02*
X159564342Y-140332590D01*
X159445295Y-139808780D02*
X159326247Y-140165923D01*
X159635771Y-140165923D01*
D13*
D12*
X129323280Y-90582666D02*
X129347090Y-90511238D01*
X129347090Y-90392190D01*
X129323280Y-90344571D01*
X129299471Y-90320761D01*
X129251852Y-90296952D01*
X129204233Y-90296952D01*
X129156614Y-90320761D01*
X129132804Y-90344571D01*
X129108995Y-90392190D01*
X129085185Y-90487428D01*
X129061376Y-90535047D01*
X129037566Y-90558857D01*
X128989947Y-90582666D01*
X128942328Y-90582666D01*
X128894709Y-90558857D01*
X128870900Y-90535047D01*
X128847090Y-90487428D01*
X128847090Y-90368380D01*
X128870900Y-90296952D01*
X128847090Y-90130285D02*
X129347090Y-90011238D01*
X128989947Y-89916000D01*
X129347090Y-89820761D01*
X128847090Y-89701714D01*
X128894709Y-89535047D02*
X128870900Y-89511238D01*
X128847090Y-89463619D01*
X128847090Y-89344571D01*
X128870900Y-89296952D01*
X128894709Y-89273142D01*
X128942328Y-89249333D01*
X128989947Y-89249333D01*
X129061376Y-89273142D01*
X129347090Y-89558857D01*
X129347090Y-89249333D01*
D13*
D12*
X153179258Y-122420660D02*
X153250686Y-122444470D01*
X153369734Y-122444470D01*
X153417353Y-122420660D01*
X153441162Y-122396851D01*
X153464972Y-122349232D01*
X153464972Y-122301613D01*
X153441162Y-122253994D01*
X153417353Y-122230184D01*
X153369734Y-122206375D01*
X153274496Y-122182565D01*
X153226877Y-122158756D01*
X153203067Y-122134946D01*
X153179258Y-122087327D01*
X153179258Y-122039708D01*
X153203067Y-121992089D01*
X153226877Y-121968280D01*
X153274496Y-121944470D01*
X153393543Y-121944470D01*
X153464972Y-121968280D01*
X153631639Y-121944470D02*
X153750686Y-122444470D01*
X153845924Y-122087327D01*
X153941162Y-122444470D01*
X154060210Y-121944470D01*
X154226877Y-121992089D02*
X154250686Y-121968280D01*
X154298305Y-121944470D01*
X154417353Y-121944470D01*
X154464972Y-121968280D01*
X154488781Y-121992089D01*
X154512591Y-122039708D01*
X154512591Y-122087327D01*
X154488781Y-122158756D01*
X154203067Y-122444470D01*
X154512591Y-122444470D01*
X154822115Y-121944470D02*
X154869734Y-121944470D01*
X154917353Y-121968280D01*
X154941162Y-121992089D01*
X154964972Y-122039708D01*
X154988781Y-122134946D01*
X154988781Y-122253994D01*
X154964972Y-122349232D01*
X154941162Y-122396851D01*
X154917353Y-122420660D01*
X154869734Y-122444470D01*
X154822115Y-122444470D01*
X154774496Y-122420660D01*
X154750686Y-122396851D01*
X154726877Y-122349232D01*
X154703067Y-122253994D01*
X154703067Y-122134946D01*
X154726877Y-122039708D01*
X154750686Y-121992089D01*
X154774496Y-121968280D01*
X154822115Y-121944470D01*
D13*
D12*
X153179258Y-115562660D02*
X153250686Y-115586470D01*
X153369734Y-115586470D01*
X153417353Y-115562660D01*
X153441162Y-115538851D01*
X153464972Y-115491232D01*
X153464972Y-115443613D01*
X153441162Y-115395994D01*
X153417353Y-115372184D01*
X153369734Y-115348375D01*
X153274496Y-115324565D01*
X153226877Y-115300756D01*
X153203067Y-115276946D01*
X153179258Y-115229327D01*
X153179258Y-115181708D01*
X153203067Y-115134089D01*
X153226877Y-115110280D01*
X153274496Y-115086470D01*
X153393543Y-115086470D01*
X153464972Y-115110280D01*
X153631639Y-115086470D02*
X153750686Y-115586470D01*
X153845924Y-115229327D01*
X153941162Y-115586470D01*
X154060210Y-115086470D01*
X154512591Y-115586470D02*
X154226877Y-115586470D01*
X154369734Y-115586470D02*
X154369734Y-115086470D01*
X154322115Y-115157899D01*
X154274496Y-115205518D01*
X154226877Y-115229327D01*
X154750686Y-115586470D02*
X154845924Y-115586470D01*
X154893543Y-115562660D01*
X154917353Y-115538851D01*
X154964972Y-115467422D01*
X154988781Y-115372184D01*
X154988781Y-115181708D01*
X154964972Y-115134089D01*
X154941162Y-115110280D01*
X154893543Y-115086470D01*
X154798305Y-115086470D01*
X154750686Y-115110280D01*
X154726877Y-115134089D01*
X154703067Y-115181708D01*
X154703067Y-115300756D01*
X154726877Y-115348375D01*
X154750686Y-115372184D01*
X154798305Y-115395994D01*
X154893543Y-115395994D01*
X154941162Y-115372184D01*
X154964972Y-115348375D01*
X154988781Y-115300756D01*
D13*
D12*
X153179258Y-108704660D02*
X153250686Y-108728470D01*
X153369734Y-108728470D01*
X153417353Y-108704660D01*
X153441162Y-108680851D01*
X153464972Y-108633232D01*
X153464972Y-108585613D01*
X153441162Y-108537994D01*
X153417353Y-108514184D01*
X153369734Y-108490375D01*
X153274496Y-108466565D01*
X153226877Y-108442756D01*
X153203067Y-108418946D01*
X153179258Y-108371327D01*
X153179258Y-108323708D01*
X153203067Y-108276089D01*
X153226877Y-108252280D01*
X153274496Y-108228470D01*
X153393543Y-108228470D01*
X153464972Y-108252280D01*
X153631639Y-108228470D02*
X153750686Y-108728470D01*
X153845924Y-108371327D01*
X153941162Y-108728470D01*
X154060210Y-108228470D01*
X154512591Y-108728470D02*
X154226877Y-108728470D01*
X154369734Y-108728470D02*
X154369734Y-108228470D01*
X154322115Y-108299899D01*
X154274496Y-108347518D01*
X154226877Y-108371327D01*
X154798305Y-108442756D02*
X154750686Y-108418946D01*
X154726877Y-108395137D01*
X154703067Y-108347518D01*
X154703067Y-108323708D01*
X154726877Y-108276089D01*
X154750686Y-108252280D01*
X154798305Y-108228470D01*
X154893543Y-108228470D01*
X154941162Y-108252280D01*
X154964972Y-108276089D01*
X154988781Y-108323708D01*
X154988781Y-108347518D01*
X154964972Y-108395137D01*
X154941162Y-108418946D01*
X154893543Y-108442756D01*
X154798305Y-108442756D01*
X154750686Y-108466565D01*
X154726877Y-108490375D01*
X154703067Y-108537994D01*
X154703067Y-108633232D01*
X154726877Y-108680851D01*
X154750686Y-108704660D01*
X154798305Y-108728470D01*
X154893543Y-108728470D01*
X154941162Y-108704660D01*
X154964972Y-108680851D01*
X154988781Y-108633232D01*
X154988781Y-108537994D01*
X154964972Y-108490375D01*
X154941162Y-108466565D01*
X154893543Y-108442756D01*
D13*
D12*
X153179258Y-101846660D02*
X153250686Y-101870470D01*
X153369734Y-101870470D01*
X153417353Y-101846660D01*
X153441162Y-101822851D01*
X153464972Y-101775232D01*
X153464972Y-101727613D01*
X153441162Y-101679994D01*
X153417353Y-101656184D01*
X153369734Y-101632375D01*
X153274496Y-101608565D01*
X153226877Y-101584756D01*
X153203067Y-101560946D01*
X153179258Y-101513327D01*
X153179258Y-101465708D01*
X153203067Y-101418089D01*
X153226877Y-101394280D01*
X153274496Y-101370470D01*
X153393543Y-101370470D01*
X153464972Y-101394280D01*
X153631639Y-101370470D02*
X153750686Y-101870470D01*
X153845924Y-101513327D01*
X153941162Y-101870470D01*
X154060210Y-101370470D01*
X154512591Y-101870470D02*
X154226877Y-101870470D01*
X154369734Y-101870470D02*
X154369734Y-101370470D01*
X154322115Y-101441899D01*
X154274496Y-101489518D01*
X154226877Y-101513327D01*
X154679258Y-101370470D02*
X155012591Y-101370470D01*
X154798305Y-101870470D01*
D13*
D12*
X153179258Y-94353660D02*
X153250686Y-94377470D01*
X153369734Y-94377470D01*
X153417353Y-94353660D01*
X153441162Y-94329851D01*
X153464972Y-94282232D01*
X153464972Y-94234613D01*
X153441162Y-94186994D01*
X153417353Y-94163184D01*
X153369734Y-94139375D01*
X153274496Y-94115565D01*
X153226877Y-94091756D01*
X153203067Y-94067946D01*
X153179258Y-94020327D01*
X153179258Y-93972708D01*
X153203067Y-93925089D01*
X153226877Y-93901280D01*
X153274496Y-93877470D01*
X153393543Y-93877470D01*
X153464972Y-93901280D01*
X153631639Y-93877470D02*
X153750686Y-94377470D01*
X153845924Y-94020327D01*
X153941162Y-94377470D01*
X154060210Y-93877470D01*
X154512591Y-94377470D02*
X154226877Y-94377470D01*
X154369734Y-94377470D02*
X154369734Y-93877470D01*
X154322115Y-93948899D01*
X154274496Y-93996518D01*
X154226877Y-94020327D01*
X154941162Y-93877470D02*
X154845924Y-93877470D01*
X154798305Y-93901280D01*
X154774496Y-93925089D01*
X154726877Y-93996518D01*
X154703067Y-94091756D01*
X154703067Y-94282232D01*
X154726877Y-94329851D01*
X154750686Y-94353660D01*
X154798305Y-94377470D01*
X154893543Y-94377470D01*
X154941162Y-94353660D01*
X154964972Y-94329851D01*
X154988781Y-94282232D01*
X154988781Y-94163184D01*
X154964972Y-94115565D01*
X154941162Y-94091756D01*
X154893543Y-94067946D01*
X154798305Y-94067946D01*
X154750686Y-94091756D01*
X154726877Y-94115565D01*
X154703067Y-94163184D01*
D13*
D12*
X151065680Y-90058761D02*
X151089490Y-89987333D01*
X151089490Y-89868285D01*
X151065680Y-89820666D01*
X151041871Y-89796857D01*
X150994252Y-89773047D01*
X150946633Y-89773047D01*
X150899014Y-89796857D01*
X150875204Y-89820666D01*
X150851395Y-89868285D01*
X150827585Y-89963523D01*
X150803776Y-90011142D01*
X150779966Y-90034952D01*
X150732347Y-90058761D01*
X150684728Y-90058761D01*
X150637109Y-90034952D01*
X150613300Y-90011142D01*
X150589490Y-89963523D01*
X150589490Y-89844476D01*
X150613300Y-89773047D01*
X150589490Y-89606380D02*
X151089490Y-89487333D01*
X150732347Y-89392095D01*
X151089490Y-89296857D01*
X150589490Y-89177809D01*
X151089490Y-88725428D02*
X151089490Y-89011142D01*
X151089490Y-88868285D02*
X150589490Y-88868285D01*
X150660919Y-88915904D01*
X150708538Y-88963523D01*
X150732347Y-89011142D01*
X150589490Y-88273047D02*
X150589490Y-88511142D01*
X150827585Y-88534952D01*
X150803776Y-88511142D01*
X150779966Y-88463523D01*
X150779966Y-88344476D01*
X150803776Y-88296857D01*
X150827585Y-88273047D01*
X150875204Y-88249238D01*
X150994252Y-88249238D01*
X151041871Y-88273047D01*
X151065680Y-88296857D01*
X151089490Y-88344476D01*
X151089490Y-88463523D01*
X151065680Y-88511142D01*
X151041871Y-88534952D01*
D13*
D12*
X142384258Y-122420660D02*
X142455686Y-122444470D01*
X142574734Y-122444470D01*
X142622353Y-122420660D01*
X142646162Y-122396851D01*
X142669972Y-122349232D01*
X142669972Y-122301613D01*
X142646162Y-122253994D01*
X142622353Y-122230184D01*
X142574734Y-122206375D01*
X142479496Y-122182565D01*
X142431877Y-122158756D01*
X142408067Y-122134946D01*
X142384258Y-122087327D01*
X142384258Y-122039708D01*
X142408067Y-121992089D01*
X142431877Y-121968280D01*
X142479496Y-121944470D01*
X142598543Y-121944470D01*
X142669972Y-121968280D01*
X142836639Y-121944470D02*
X142955686Y-122444470D01*
X143050924Y-122087327D01*
X143146162Y-122444470D01*
X143265210Y-121944470D01*
X143717591Y-122444470D02*
X143431877Y-122444470D01*
X143574734Y-122444470D02*
X143574734Y-121944470D01*
X143527115Y-122015899D01*
X143479496Y-122063518D01*
X143431877Y-122087327D01*
X143884258Y-121944470D02*
X144193781Y-121944470D01*
X144027115Y-122134946D01*
X144098543Y-122134946D01*
X144146162Y-122158756D01*
X144169972Y-122182565D01*
X144193781Y-122230184D01*
X144193781Y-122349232D01*
X144169972Y-122396851D01*
X144146162Y-122420660D01*
X144098543Y-122444470D01*
X143955686Y-122444470D01*
X143908067Y-122420660D01*
X143884258Y-122396851D01*
D13*
D12*
X142384258Y-115562660D02*
X142455686Y-115586470D01*
X142574734Y-115586470D01*
X142622353Y-115562660D01*
X142646162Y-115538851D01*
X142669972Y-115491232D01*
X142669972Y-115443613D01*
X142646162Y-115395994D01*
X142622353Y-115372184D01*
X142574734Y-115348375D01*
X142479496Y-115324565D01*
X142431877Y-115300756D01*
X142408067Y-115276946D01*
X142384258Y-115229327D01*
X142384258Y-115181708D01*
X142408067Y-115134089D01*
X142431877Y-115110280D01*
X142479496Y-115086470D01*
X142598543Y-115086470D01*
X142669972Y-115110280D01*
X142836639Y-115086470D02*
X142955686Y-115586470D01*
X143050924Y-115229327D01*
X143146162Y-115586470D01*
X143265210Y-115086470D01*
X143717591Y-115586470D02*
X143431877Y-115586470D01*
X143574734Y-115586470D02*
X143574734Y-115086470D01*
X143527115Y-115157899D01*
X143479496Y-115205518D01*
X143431877Y-115229327D01*
X143908067Y-115134089D02*
X143931877Y-115110280D01*
X143979496Y-115086470D01*
X144098543Y-115086470D01*
X144146162Y-115110280D01*
X144169972Y-115134089D01*
X144193781Y-115181708D01*
X144193781Y-115229327D01*
X144169972Y-115300756D01*
X143884258Y-115586470D01*
X144193781Y-115586470D01*
D13*
D12*
X142384258Y-108704660D02*
X142455686Y-108728470D01*
X142574734Y-108728470D01*
X142622353Y-108704660D01*
X142646162Y-108680851D01*
X142669972Y-108633232D01*
X142669972Y-108585613D01*
X142646162Y-108537994D01*
X142622353Y-108514184D01*
X142574734Y-108490375D01*
X142479496Y-108466565D01*
X142431877Y-108442756D01*
X142408067Y-108418946D01*
X142384258Y-108371327D01*
X142384258Y-108323708D01*
X142408067Y-108276089D01*
X142431877Y-108252280D01*
X142479496Y-108228470D01*
X142598543Y-108228470D01*
X142669972Y-108252280D01*
X142836639Y-108228470D02*
X142955686Y-108728470D01*
X143050924Y-108371327D01*
X143146162Y-108728470D01*
X143265210Y-108228470D01*
X143717591Y-108728470D02*
X143431877Y-108728470D01*
X143574734Y-108728470D02*
X143574734Y-108228470D01*
X143527115Y-108299899D01*
X143479496Y-108347518D01*
X143431877Y-108371327D01*
X144193781Y-108728470D02*
X143908067Y-108728470D01*
X144050924Y-108728470D02*
X144050924Y-108228470D01*
X144003305Y-108299899D01*
X143955686Y-108347518D01*
X143908067Y-108371327D01*
D13*
D12*
X142384258Y-101846660D02*
X142455686Y-101870470D01*
X142574734Y-101870470D01*
X142622353Y-101846660D01*
X142646162Y-101822851D01*
X142669972Y-101775232D01*
X142669972Y-101727613D01*
X142646162Y-101679994D01*
X142622353Y-101656184D01*
X142574734Y-101632375D01*
X142479496Y-101608565D01*
X142431877Y-101584756D01*
X142408067Y-101560946D01*
X142384258Y-101513327D01*
X142384258Y-101465708D01*
X142408067Y-101418089D01*
X142431877Y-101394280D01*
X142479496Y-101370470D01*
X142598543Y-101370470D01*
X142669972Y-101394280D01*
X142836639Y-101370470D02*
X142955686Y-101870470D01*
X143050924Y-101513327D01*
X143146162Y-101870470D01*
X143265210Y-101370470D01*
X143717591Y-101870470D02*
X143431877Y-101870470D01*
X143574734Y-101870470D02*
X143574734Y-101370470D01*
X143527115Y-101441899D01*
X143479496Y-101489518D01*
X143431877Y-101513327D01*
X144027115Y-101370470D02*
X144074734Y-101370470D01*
X144122353Y-101394280D01*
X144146162Y-101418089D01*
X144169972Y-101465708D01*
X144193781Y-101560946D01*
X144193781Y-101679994D01*
X144169972Y-101775232D01*
X144146162Y-101822851D01*
X144122353Y-101846660D01*
X144074734Y-101870470D01*
X144027115Y-101870470D01*
X143979496Y-101846660D01*
X143955686Y-101822851D01*
X143931877Y-101775232D01*
X143908067Y-101679994D01*
X143908067Y-101560946D01*
X143931877Y-101465708D01*
X143955686Y-101418089D01*
X143979496Y-101394280D01*
X144027115Y-101370470D01*
D13*
D12*
X142622353Y-94353660D02*
X142693781Y-94377470D01*
X142812829Y-94377470D01*
X142860448Y-94353660D01*
X142884258Y-94329851D01*
X142908067Y-94282232D01*
X142908067Y-94234613D01*
X142884258Y-94186994D01*
X142860448Y-94163184D01*
X142812829Y-94139375D01*
X142717591Y-94115565D01*
X142669972Y-94091756D01*
X142646162Y-94067946D01*
X142622353Y-94020327D01*
X142622353Y-93972708D01*
X142646162Y-93925089D01*
X142669972Y-93901280D01*
X142717591Y-93877470D01*
X142836639Y-93877470D01*
X142908067Y-93901280D01*
X143074734Y-93877470D02*
X143193781Y-94377470D01*
X143289020Y-94020327D01*
X143384258Y-94377470D01*
X143503305Y-93877470D01*
X143717591Y-94377470D02*
X143812829Y-94377470D01*
X143860448Y-94353660D01*
X143884258Y-94329851D01*
X143931877Y-94258422D01*
X143955686Y-94163184D01*
X143955686Y-93972708D01*
X143931877Y-93925089D01*
X143908067Y-93901280D01*
X143860448Y-93877470D01*
X143765210Y-93877470D01*
X143717591Y-93901280D01*
X143693781Y-93925089D01*
X143669972Y-93972708D01*
X143669972Y-94091756D01*
X143693781Y-94139375D01*
X143717591Y-94163184D01*
X143765210Y-94186994D01*
X143860448Y-94186994D01*
X143908067Y-94163184D01*
X143931877Y-94139375D01*
X143955686Y-94091756D01*
D13*
D12*
X139940480Y-89820666D02*
X139964290Y-89749238D01*
X139964290Y-89630190D01*
X139940480Y-89582571D01*
X139916671Y-89558761D01*
X139869052Y-89534952D01*
X139821433Y-89534952D01*
X139773814Y-89558761D01*
X139750004Y-89582571D01*
X139726195Y-89630190D01*
X139702385Y-89725428D01*
X139678576Y-89773047D01*
X139654766Y-89796857D01*
X139607147Y-89820666D01*
X139559528Y-89820666D01*
X139511909Y-89796857D01*
X139488100Y-89773047D01*
X139464290Y-89725428D01*
X139464290Y-89606380D01*
X139488100Y-89534952D01*
X139464290Y-89368285D02*
X139964290Y-89249238D01*
X139607147Y-89154000D01*
X139964290Y-89058761D01*
X139464290Y-88939714D01*
X139678576Y-88677809D02*
X139654766Y-88725428D01*
X139630957Y-88749238D01*
X139583338Y-88773047D01*
X139559528Y-88773047D01*
X139511909Y-88749238D01*
X139488100Y-88725428D01*
X139464290Y-88677809D01*
X139464290Y-88582571D01*
X139488100Y-88534952D01*
X139511909Y-88511142D01*
X139559528Y-88487333D01*
X139583338Y-88487333D01*
X139630957Y-88511142D01*
X139654766Y-88534952D01*
X139678576Y-88582571D01*
X139678576Y-88677809D01*
X139702385Y-88725428D01*
X139726195Y-88749238D01*
X139773814Y-88773047D01*
X139869052Y-88773047D01*
X139916671Y-88749238D01*
X139940480Y-88725428D01*
X139964290Y-88677809D01*
X139964290Y-88582571D01*
X139940480Y-88534952D01*
X139916671Y-88511142D01*
X139869052Y-88487333D01*
X139773814Y-88487333D01*
X139726195Y-88511142D01*
X139702385Y-88534952D01*
X139678576Y-88582571D01*
D13*
D12*
X131827353Y-122420660D02*
X131898781Y-122444470D01*
X132017829Y-122444470D01*
X132065448Y-122420660D01*
X132089258Y-122396851D01*
X132113067Y-122349232D01*
X132113067Y-122301613D01*
X132089258Y-122253994D01*
X132065448Y-122230184D01*
X132017829Y-122206375D01*
X131922591Y-122182565D01*
X131874972Y-122158756D01*
X131851162Y-122134946D01*
X131827353Y-122087327D01*
X131827353Y-122039708D01*
X131851162Y-121992089D01*
X131874972Y-121968280D01*
X131922591Y-121944470D01*
X132041639Y-121944470D01*
X132113067Y-121968280D01*
X132279734Y-121944470D02*
X132398781Y-122444470D01*
X132494020Y-122087327D01*
X132589258Y-122444470D01*
X132708305Y-121944470D01*
X132851162Y-121944470D02*
X133184496Y-121944470D01*
X132970210Y-122444470D01*
D13*
D12*
X131827353Y-115562660D02*
X131898781Y-115586470D01*
X132017829Y-115586470D01*
X132065448Y-115562660D01*
X132089258Y-115538851D01*
X132113067Y-115491232D01*
X132113067Y-115443613D01*
X132089258Y-115395994D01*
X132065448Y-115372184D01*
X132017829Y-115348375D01*
X131922591Y-115324565D01*
X131874972Y-115300756D01*
X131851162Y-115276946D01*
X131827353Y-115229327D01*
X131827353Y-115181708D01*
X131851162Y-115134089D01*
X131874972Y-115110280D01*
X131922591Y-115086470D01*
X132041639Y-115086470D01*
X132113067Y-115110280D01*
X132279734Y-115086470D02*
X132398781Y-115586470D01*
X132494020Y-115229327D01*
X132589258Y-115586470D01*
X132708305Y-115086470D01*
X133113067Y-115086470D02*
X133017829Y-115086470D01*
X132970210Y-115110280D01*
X132946400Y-115134089D01*
X132898781Y-115205518D01*
X132874972Y-115300756D01*
X132874972Y-115491232D01*
X132898781Y-115538851D01*
X132922591Y-115562660D01*
X132970210Y-115586470D01*
X133065448Y-115586470D01*
X133113067Y-115562660D01*
X133136877Y-115538851D01*
X133160686Y-115491232D01*
X133160686Y-115372184D01*
X133136877Y-115324565D01*
X133113067Y-115300756D01*
X133065448Y-115276946D01*
X132970210Y-115276946D01*
X132922591Y-115300756D01*
X132898781Y-115324565D01*
X132874972Y-115372184D01*
D13*
D12*
X131827353Y-108704660D02*
X131898781Y-108728470D01*
X132017829Y-108728470D01*
X132065448Y-108704660D01*
X132089258Y-108680851D01*
X132113067Y-108633232D01*
X132113067Y-108585613D01*
X132089258Y-108537994D01*
X132065448Y-108514184D01*
X132017829Y-108490375D01*
X131922591Y-108466565D01*
X131874972Y-108442756D01*
X131851162Y-108418946D01*
X131827353Y-108371327D01*
X131827353Y-108323708D01*
X131851162Y-108276089D01*
X131874972Y-108252280D01*
X131922591Y-108228470D01*
X132041639Y-108228470D01*
X132113067Y-108252280D01*
X132279734Y-108228470D02*
X132398781Y-108728470D01*
X132494020Y-108371327D01*
X132589258Y-108728470D01*
X132708305Y-108228470D01*
X133136877Y-108228470D02*
X132898781Y-108228470D01*
X132874972Y-108466565D01*
X132898781Y-108442756D01*
X132946400Y-108418946D01*
X133065448Y-108418946D01*
X133113067Y-108442756D01*
X133136877Y-108466565D01*
X133160686Y-108514184D01*
X133160686Y-108633232D01*
X133136877Y-108680851D01*
X133113067Y-108704660D01*
X133065448Y-108728470D01*
X132946400Y-108728470D01*
X132898781Y-108704660D01*
X132874972Y-108680851D01*
D13*
D12*
X131827353Y-101846660D02*
X131898781Y-101870470D01*
X132017829Y-101870470D01*
X132065448Y-101846660D01*
X132089258Y-101822851D01*
X132113067Y-101775232D01*
X132113067Y-101727613D01*
X132089258Y-101679994D01*
X132065448Y-101656184D01*
X132017829Y-101632375D01*
X131922591Y-101608565D01*
X131874972Y-101584756D01*
X131851162Y-101560946D01*
X131827353Y-101513327D01*
X131827353Y-101465708D01*
X131851162Y-101418089D01*
X131874972Y-101394280D01*
X131922591Y-101370470D01*
X132041639Y-101370470D01*
X132113067Y-101394280D01*
X132279734Y-101370470D02*
X132398781Y-101870470D01*
X132494020Y-101513327D01*
X132589258Y-101870470D01*
X132708305Y-101370470D01*
X133113067Y-101537137D02*
X133113067Y-101870470D01*
X132994020Y-101346660D02*
X132874972Y-101703803D01*
X133184496Y-101703803D01*
D13*
D12*
X131827353Y-94353660D02*
X131898781Y-94377470D01*
X132017829Y-94377470D01*
X132065448Y-94353660D01*
X132089258Y-94329851D01*
X132113067Y-94282232D01*
X132113067Y-94234613D01*
X132089258Y-94186994D01*
X132065448Y-94163184D01*
X132017829Y-94139375D01*
X131922591Y-94115565D01*
X131874972Y-94091756D01*
X131851162Y-94067946D01*
X131827353Y-94020327D01*
X131827353Y-93972708D01*
X131851162Y-93925089D01*
X131874972Y-93901280D01*
X131922591Y-93877470D01*
X132041639Y-93877470D01*
X132113067Y-93901280D01*
X132279734Y-93877470D02*
X132398781Y-94377470D01*
X132494020Y-94020327D01*
X132589258Y-94377470D01*
X132708305Y-93877470D01*
X132851162Y-93877470D02*
X133160686Y-93877470D01*
X132994020Y-94067946D01*
X133065448Y-94067946D01*
X133113067Y-94091756D01*
X133136877Y-94115565D01*
X133160686Y-94163184D01*
X133160686Y-94282232D01*
X133136877Y-94329851D01*
X133113067Y-94353660D01*
X133065448Y-94377470D01*
X132922591Y-94377470D01*
X132874972Y-94353660D01*
X132851162Y-94329851D01*
D13*
D12*
X121946171Y-111398833D02*
X121969980Y-111422642D01*
X121993790Y-111494071D01*
X121993790Y-111541690D01*
X121969980Y-111613119D01*
X121922361Y-111660738D01*
X121874742Y-111684547D01*
X121779504Y-111708357D01*
X121708076Y-111708357D01*
X121612838Y-111684547D01*
X121565219Y-111660738D01*
X121517600Y-111613119D01*
X121493790Y-111541690D01*
X121493790Y-111494071D01*
X121517600Y-111422642D01*
X121541409Y-111398833D01*
X121541409Y-111208357D02*
X121517600Y-111184547D01*
X121493790Y-111136928D01*
X121493790Y-111017880D01*
X121517600Y-110970261D01*
X121541409Y-110946452D01*
X121589028Y-110922642D01*
X121636647Y-110922642D01*
X121708076Y-110946452D01*
X121993790Y-111232166D01*
X121993790Y-110922642D01*
D13*
D12*
X156569391Y-120667910D02*
X156402724Y-120429815D01*
X156283677Y-120667910D02*
X156283677Y-120167910D01*
X156474153Y-120167910D01*
X156521772Y-120191720D01*
X156545581Y-120215529D01*
X156569391Y-120263148D01*
X156569391Y-120334577D01*
X156545581Y-120382196D01*
X156521772Y-120406005D01*
X156474153Y-120429815D01*
X156283677Y-120429815D01*
X157045581Y-120667910D02*
X156759867Y-120667910D01*
X156902724Y-120667910D02*
X156902724Y-120167910D01*
X156855105Y-120239339D01*
X156807486Y-120286958D01*
X156759867Y-120310767D01*
X157236058Y-120215529D02*
X157259867Y-120191720D01*
X157307486Y-120167910D01*
X157426534Y-120167910D01*
X157474153Y-120191720D01*
X157497962Y-120215529D01*
X157521772Y-120263148D01*
X157521772Y-120310767D01*
X157497962Y-120382196D01*
X157212248Y-120667910D01*
X157521772Y-120667910D01*
D13*
D12*
X156493191Y-113708310D02*
X156326524Y-113470215D01*
X156207477Y-113708310D02*
X156207477Y-113208310D01*
X156397953Y-113208310D01*
X156445572Y-113232120D01*
X156469381Y-113255929D01*
X156493191Y-113303548D01*
X156493191Y-113374977D01*
X156469381Y-113422596D01*
X156445572Y-113446405D01*
X156397953Y-113470215D01*
X156207477Y-113470215D01*
X156969381Y-113708310D02*
X156683667Y-113708310D01*
X156826524Y-113708310D02*
X156826524Y-113208310D01*
X156778905Y-113279739D01*
X156731286Y-113327358D01*
X156683667Y-113351167D01*
X157445572Y-113708310D02*
X157159858Y-113708310D01*
X157302715Y-113708310D02*
X157302715Y-113208310D01*
X157255096Y-113279739D01*
X157207477Y-113327358D01*
X157159858Y-113351167D01*
D13*
D12*
X156696391Y-106774110D02*
X156529724Y-106536015D01*
X156410677Y-106774110D02*
X156410677Y-106274110D01*
X156601153Y-106274110D01*
X156648772Y-106297920D01*
X156672581Y-106321729D01*
X156696391Y-106369348D01*
X156696391Y-106440777D01*
X156672581Y-106488396D01*
X156648772Y-106512205D01*
X156601153Y-106536015D01*
X156410677Y-106536015D01*
X157172581Y-106774110D02*
X156886867Y-106774110D01*
X157029724Y-106774110D02*
X157029724Y-106274110D01*
X156982105Y-106345539D01*
X156934486Y-106393158D01*
X156886867Y-106416967D01*
X157482105Y-106274110D02*
X157529724Y-106274110D01*
X157577343Y-106297920D01*
X157601153Y-106321729D01*
X157624962Y-106369348D01*
X157648772Y-106464586D01*
X157648772Y-106583634D01*
X157624962Y-106678872D01*
X157601153Y-106726491D01*
X157577343Y-106750300D01*
X157529724Y-106774110D01*
X157482105Y-106774110D01*
X157434486Y-106750300D01*
X157410677Y-106726491D01*
X157386867Y-106678872D01*
X157363058Y-106583634D01*
X157363058Y-106464586D01*
X157386867Y-106369348D01*
X157410677Y-106321729D01*
X157434486Y-106297920D01*
X157482105Y-106274110D01*
D13*
D12*
X156858286Y-100170110D02*
X156691620Y-99932015D01*
X156572572Y-100170110D02*
X156572572Y-99670110D01*
X156763048Y-99670110D01*
X156810667Y-99693920D01*
X156834477Y-99717729D01*
X156858286Y-99765348D01*
X156858286Y-99836777D01*
X156834477Y-99884396D01*
X156810667Y-99908205D01*
X156763048Y-99932015D01*
X156572572Y-99932015D01*
X157096381Y-100170110D02*
X157191620Y-100170110D01*
X157239239Y-100146300D01*
X157263048Y-100122491D01*
X157310667Y-100051062D01*
X157334477Y-99955824D01*
X157334477Y-99765348D01*
X157310667Y-99717729D01*
X157286858Y-99693920D01*
X157239239Y-99670110D01*
X157144000Y-99670110D01*
X157096381Y-99693920D01*
X157072572Y-99717729D01*
X157048762Y-99765348D01*
X157048762Y-99884396D01*
X157072572Y-99932015D01*
X157096381Y-99955824D01*
X157144000Y-99979634D01*
X157239239Y-99979634D01*
X157286858Y-99955824D01*
X157310667Y-99932015D01*
X157334477Y-99884396D01*
D13*
D12*
X156908986Y-92575510D02*
X156742320Y-92337415D01*
X156623272Y-92575510D02*
X156623272Y-92075510D01*
X156813748Y-92075510D01*
X156861367Y-92099320D01*
X156885177Y-92123129D01*
X156908986Y-92170748D01*
X156908986Y-92242177D01*
X156885177Y-92289796D01*
X156861367Y-92313605D01*
X156813748Y-92337415D01*
X156623272Y-92337415D01*
X157194700Y-92289796D02*
X157147081Y-92265986D01*
X157123272Y-92242177D01*
X157099462Y-92194558D01*
X157099462Y-92170748D01*
X157123272Y-92123129D01*
X157147081Y-92099320D01*
X157194700Y-92075510D01*
X157289939Y-92075510D01*
X157337558Y-92099320D01*
X157361367Y-92123129D01*
X157385177Y-92170748D01*
X157385177Y-92194558D01*
X157361367Y-92242177D01*
X157337558Y-92265986D01*
X157289939Y-92289796D01*
X157194700Y-92289796D01*
X157147081Y-92313605D01*
X157123272Y-92337415D01*
X157099462Y-92385034D01*
X157099462Y-92480272D01*
X157123272Y-92527891D01*
X157147081Y-92551700D01*
X157194700Y-92575510D01*
X157289939Y-92575510D01*
X157337558Y-92551700D01*
X157361367Y-92527891D01*
X157385177Y-92480272D01*
X157385177Y-92385034D01*
X157361367Y-92337415D01*
X157337558Y-92313605D01*
X157289939Y-92289796D01*
D13*
D12*
X156883686Y-85819110D02*
X156717020Y-85581015D01*
X156597972Y-85819110D02*
X156597972Y-85319110D01*
X156788448Y-85319110D01*
X156836067Y-85342920D01*
X156859877Y-85366729D01*
X156883686Y-85414348D01*
X156883686Y-85485777D01*
X156859877Y-85533396D01*
X156836067Y-85557205D01*
X156788448Y-85581015D01*
X156597972Y-85581015D01*
X157050353Y-85319110D02*
X157383686Y-85319110D01*
X157169400Y-85819110D01*
D13*
D12*
X127116685Y-111909966D02*
X127116685Y-112076633D01*
X127378590Y-112076633D02*
X126878590Y-112076633D01*
X126878590Y-111838538D01*
X127116685Y-111481395D02*
X127140495Y-111409966D01*
X127164304Y-111386157D01*
X127211923Y-111362347D01*
X127283352Y-111362347D01*
X127330971Y-111386157D01*
X127354780Y-111409966D01*
X127378590Y-111457585D01*
X127378590Y-111648061D01*
X126878590Y-111648061D01*
X126878590Y-111481395D01*
X126902400Y-111433776D01*
X126926209Y-111409966D01*
X126973828Y-111386157D01*
X127021447Y-111386157D01*
X127069066Y-111409966D01*
X127092876Y-111433776D01*
X127116685Y-111481395D01*
X127116685Y-111648061D01*
X126926209Y-111171871D02*
X126902400Y-111148061D01*
X126878590Y-111100442D01*
X126878590Y-110981395D01*
X126902400Y-110933776D01*
X126926209Y-110909966D01*
X126973828Y-110886157D01*
X127021447Y-110886157D01*
X127092876Y-110909966D01*
X127378590Y-111195680D01*
X127378590Y-110886157D01*
D13*
D12*
X127167485Y-117447166D02*
X127167485Y-117613833D01*
X127429390Y-117613833D02*
X126929390Y-117613833D01*
X126929390Y-117375738D01*
X127167485Y-117018595D02*
X127191295Y-116947166D01*
X127215104Y-116923357D01*
X127262723Y-116899547D01*
X127334152Y-116899547D01*
X127381771Y-116923357D01*
X127405580Y-116947166D01*
X127429390Y-116994785D01*
X127429390Y-117185261D01*
X126929390Y-117185261D01*
X126929390Y-117018595D01*
X126953200Y-116970976D01*
X126977009Y-116947166D01*
X127024628Y-116923357D01*
X127072247Y-116923357D01*
X127119866Y-116947166D01*
X127143676Y-116970976D01*
X127167485Y-117018595D01*
X127167485Y-117185261D01*
X127429390Y-116423357D02*
X127429390Y-116709071D01*
X127429390Y-116566214D02*
X126929390Y-116566214D01*
X127000819Y-116613833D01*
X127048438Y-116661452D01*
X127072247Y-116709071D01*
D13*
D12*
X124579866Y-114516671D02*
X124556057Y-114540480D01*
X124484628Y-114564290D01*
X124437009Y-114564290D01*
X124365580Y-114540480D01*
X124317961Y-114492861D01*
X124294152Y-114445242D01*
X124270342Y-114350004D01*
X124270342Y-114278576D01*
X124294152Y-114183338D01*
X124317961Y-114135719D01*
X124365580Y-114088100D01*
X124437009Y-114064290D01*
X124484628Y-114064290D01*
X124556057Y-114088100D01*
X124579866Y-114111909D01*
X124865580Y-114278576D02*
X124817961Y-114254766D01*
X124794152Y-114230957D01*
X124770342Y-114183338D01*
X124770342Y-114159528D01*
X124794152Y-114111909D01*
X124817961Y-114088100D01*
X124865580Y-114064290D01*
X124960819Y-114064290D01*
X125008438Y-114088100D01*
X125032247Y-114111909D01*
X125056057Y-114159528D01*
X125056057Y-114183338D01*
X125032247Y-114230957D01*
X125008438Y-114254766D01*
X124960819Y-114278576D01*
X124865580Y-114278576D01*
X124817961Y-114302385D01*
X124794152Y-114326195D01*
X124770342Y-114373814D01*
X124770342Y-114469052D01*
X124794152Y-114516671D01*
X124817961Y-114540480D01*
X124865580Y-114564290D01*
X124960819Y-114564290D01*
X125008438Y-114540480D01*
X125032247Y-114516671D01*
X125056057Y-114469052D01*
X125056057Y-114373814D01*
X125032247Y-114326195D01*
X125008438Y-114302385D01*
X124960819Y-114278576D01*
D13*
D12*
X125748266Y-120053871D02*
X125724457Y-120077680D01*
X125653028Y-120101490D01*
X125605409Y-120101490D01*
X125533980Y-120077680D01*
X125486361Y-120030061D01*
X125462552Y-119982442D01*
X125438742Y-119887204D01*
X125438742Y-119815776D01*
X125462552Y-119720538D01*
X125486361Y-119672919D01*
X125533980Y-119625300D01*
X125605409Y-119601490D01*
X125653028Y-119601490D01*
X125724457Y-119625300D01*
X125748266Y-119649109D01*
X125914933Y-119601490D02*
X126248266Y-119601490D01*
X126033980Y-120101490D01*
D13*
D12*
X126281666Y-114897671D02*
X126257857Y-114921480D01*
X126186428Y-114945290D01*
X126138809Y-114945290D01*
X126067380Y-114921480D01*
X126019761Y-114873861D01*
X125995952Y-114826242D01*
X125972142Y-114731004D01*
X125972142Y-114659576D01*
X125995952Y-114564338D01*
X126019761Y-114516719D01*
X126067380Y-114469100D01*
X126138809Y-114445290D01*
X126186428Y-114445290D01*
X126257857Y-114469100D01*
X126281666Y-114492909D01*
X126734047Y-114445290D02*
X126495952Y-114445290D01*
X126472142Y-114683385D01*
X126495952Y-114659576D01*
X126543571Y-114635766D01*
X126662619Y-114635766D01*
X126710238Y-114659576D01*
X126734047Y-114683385D01*
X126757857Y-114731004D01*
X126757857Y-114850052D01*
X126734047Y-114897671D01*
X126710238Y-114921480D01*
X126662619Y-114945290D01*
X126543571Y-114945290D01*
X126495952Y-114921480D01*
X126472142Y-114897671D01*
D13*
D12*
X122827266Y-118631471D02*
X122803457Y-118655280D01*
X122732028Y-118679090D01*
X122684409Y-118679090D01*
X122612980Y-118655280D01*
X122565361Y-118607661D01*
X122541552Y-118560042D01*
X122517742Y-118464804D01*
X122517742Y-118393376D01*
X122541552Y-118298138D01*
X122565361Y-118250519D01*
X122612980Y-118202900D01*
X122684409Y-118179090D01*
X122732028Y-118179090D01*
X122803457Y-118202900D01*
X122827266Y-118226709D01*
X123255838Y-118345757D02*
X123255838Y-118679090D01*
X123136790Y-118155280D02*
X123017742Y-118512423D01*
X123327266Y-118512423D01*
D13*
D12*
X125138666Y-109614471D02*
X125114857Y-109638280D01*
X125043428Y-109662090D01*
X124995809Y-109662090D01*
X124924380Y-109638280D01*
X124876761Y-109590661D01*
X124852952Y-109543042D01*
X124829142Y-109447804D01*
X124829142Y-109376376D01*
X124852952Y-109281138D01*
X124876761Y-109233519D01*
X124924380Y-109185900D01*
X124995809Y-109162090D01*
X125043428Y-109162090D01*
X125114857Y-109185900D01*
X125138666Y-109209709D01*
X125305333Y-109162090D02*
X125614857Y-109162090D01*
X125448190Y-109352566D01*
X125519619Y-109352566D01*
X125567238Y-109376376D01*
X125591047Y-109400185D01*
X125614857Y-109447804D01*
X125614857Y-109566852D01*
X125591047Y-109614471D01*
X125567238Y-109638280D01*
X125519619Y-109662090D01*
X125376761Y-109662090D01*
X125329142Y-109638280D01*
X125305333Y-109614471D01*
D13*
M02*
