M48
; DRILL file {KiCad 5.1.6-c6e7f7d~87~ubuntu18.04.1} date Fri Jul 31 10:56:10 2020
; FORMAT={-:-/ absolute / inch / decimal}
; #@! TF.CreationDate,2020-07-31T10:56:10+02:00
; #@! TF.GenerationSoftware,Kicad,Pcbnew,5.1.6-c6e7f7d~87~ubuntu18.04.1
; #@! TF.FileFunction,Plated,1,2,PTH
FMAT,2
INCH
T1C0.0079
T2C0.0157
T3C0.0256
T4C0.0394
T5C0.0512
T6C0.0866
%
G90
G05
T1
X4.866Y-2.644
X4.872Y-2.956
X4.876Y-2.802
X4.894Y-2.272
X4.907Y-4.2885
X4.912Y-4.3925
X4.922Y-1.938
X4.926Y-2.346
X4.928Y-4.4705
X4.94Y-2.872
X4.95Y-2.388
X4.953Y-4.2285
X4.953Y-4.6145
X4.954Y-4.5245
X4.956Y-3.156
X4.96Y-2.494
X4.982Y-3.072
X4.998Y-1.792
X5.001Y-4.6655
X5.002Y-2.3
X5.003Y-3.3765
X5.008Y-4.1815
X5.008Y-4.4245
X5.012Y-2.09
X5.014Y-2.186
X5.015Y-3.3425
X5.02Y-1.898
X5.027Y-4.4045
X5.04Y-4.4465
X5.042Y-4.7225
X5.043Y-2.5645
X5.049Y-2.7555
X5.051Y-3.9215
X5.054Y-3.7065
X5.056Y-2.056
X5.057Y-3.7915
X5.058Y-2.252
X5.062Y-1.944
X5.062Y-2.394
X5.064Y-1.814
X5.07Y-4.4765
X5.075Y-3.6245
X5.08Y-3.2825
X5.082Y-4.0945
X5.085Y-4.0105
X5.092Y-4.7315
X5.104Y-2.478
X5.122Y-1.868
X5.132Y-2.8385
X5.133Y-4.4825
X5.14Y-3.5665
X5.143Y-4.2515
X5.146Y-2.5675
X5.148Y-1.938
X5.148Y-2.19
X5.15Y-2.284
X5.154Y-2.02
X5.154Y-2.376
X5.16Y-2.094
X5.16Y-4.2295
X5.16Y-4.7275
X5.172Y-4.5935
X5.176Y-3.266
X5.183Y-3.4745
X5.1835Y-4.2617
X5.192Y-4.4385
X5.194Y-4.2015
X5.195Y-4.4765
X5.196Y-2.96
X5.196Y-4.3955
X5.196Y-4.5045
X5.198Y-4.5335
X5.201Y-2.9075
X5.204Y-3.188
X5.21Y-3.054
X5.211Y-4.2965
X5.215Y-2.6625
X5.219Y-4.6965
X5.28Y-4.7145
X5.282Y-4.6835
X5.283Y-4.2725
X5.285Y-4.3165
X5.292Y-2.7315
X5.3213Y-3.9052
X5.3227Y-3.9688
X5.3227Y-4.1398
X5.3235Y-4.3876
X5.3249Y-4.1878
X5.3249Y-4.339
X5.3291Y-4.74
X5.33Y-2.094
X5.3303Y-4.787
X5.332Y-3.338
X5.338Y-2.19
X5.338Y-2.7835
X5.352Y-1.958
X5.3533Y-3.3682
X5.356Y-1.814
X5.381Y-2.7405
X5.393Y-2.8825
X5.393Y-3.0035
X5.407Y-3.1285
X5.424Y-3.0955
X5.435Y-2.8055
X5.438Y-1.8
X5.443Y-3.7085
X5.443Y-3.7845
X5.444Y-3.5135
X5.449Y-3.3385
X5.459Y-4.8065
X5.461Y-4.5426
X5.461Y-4.5885
X5.47Y-1.93
X5.4714Y-3.2511
X5.4719Y-3.298
X5.472Y-2.256
X5.474Y-2.056
X5.474Y-2.16
X5.476Y-2.38
X5.477Y-3.7105
X5.477Y-3.7845
X5.48Y-2.636
X5.482Y-2.57
X5.485Y-2.8385
X5.486Y-2.494
X5.4977Y-3.275
X5.503Y-2.9235
X5.515Y-3.6305
X5.5239Y-3.1864
X5.5429Y-1.7971
X5.553Y-3.2276
X5.5538Y-4.1637
X5.5789Y-3.0041
X5.5887Y-3.966
X5.5887Y-4.137
X5.5919Y-3.9084
X5.5937Y-4.1859
X5.5937Y-4.3384
X5.5953Y-4.3868
X5.598Y-4.5391
X5.598Y-4.5859
X5.5983Y-4.7859
X5.5983Y-4.7426
X5.6Y-1.792
X5.602Y-2.4
X5.602Y-2.638
X5.604Y-2.124
X5.604Y-2.27
X5.604Y-2.506
X5.604Y-2.8485
X5.606Y-1.918
X5.606Y-2.018
X5.6074Y-3.23
X5.6173Y-4.3638
X5.635Y-3.3785
X5.638Y-1.792
X5.638Y-2.446
X5.638Y-2.56
X5.64Y-4.5635
X5.64Y-2.212
X5.64Y-2.33
X5.641Y-4.2585
X5.641Y-4.3426
X5.65Y-1.918
X5.661Y-3.4005
X5.6698Y-3.2276
X5.67Y-2.018
X5.6726Y-3.1887
X5.673Y-3.2705
X5.674Y-2.638
X5.676Y-2.122
X5.676Y-2.274
X5.676Y-2.404
X5.678Y-1.792
X5.678Y-2.508
X5.688Y-2.8755
X5.689Y-2.8245
X5.692Y-1.918
X5.716Y-1.792
X5.717Y-4.3905
X5.719Y-3.5855
X5.724Y-1.918
X5.734Y-3.6955
X5.741Y-4.8075
X5.747Y-4.3859
X5.747Y-4.5405
X5.747Y-4.5859
X5.751Y-3.8025
X5.756Y-1.792
X5.771Y-2.8625
X5.781Y-3.4685
X5.7821Y-2.9147
X5.7933Y-3.0412
X5.817Y-3.1345
X5.8177Y-2.9123
X5.825Y-1.895
X5.836Y-3.0935
X5.837Y-2.8405
X5.8485Y-3.0399
X5.8524Y-2.9114
X5.854Y-2.65
X5.868Y-1.788
X5.8703Y-4.5376
X5.8709Y-3.9066
X5.8709Y-4.5859
X5.8714Y-3.9643
X5.8715Y-4.1364
X5.8715Y-4.1866
X5.8725Y-4.3374
X5.8725Y-4.3859
X5.873Y-3.6825
X5.874Y-2.702
X5.8829Y-4.7882
X5.885Y-3.0375
X5.8854Y-4.7365
X5.892Y-2.238
X5.892Y-2.404
X5.892Y-2.494
X5.894Y-2.068
X5.894Y-2.166
X5.896Y-2.312
X5.902Y-2.598
X5.9026Y-2.9109
X5.911Y-3.4545
X5.913Y-3.0875
X5.915Y-2.8125
X5.916Y-2.7425
X5.941Y-3.0585
X5.954Y-1.824
X5.958Y-2.658
X5.9677Y-2.9123
X5.968Y-2.074
X5.968Y-2.19
X5.97Y-2.288
X5.971Y-3.1565
X5.972Y-2.394
X5.972Y-2.52
X5.976Y-1.918
X5.977Y-3.4875
X5.982Y-1.996
X5.996Y-3.2955
X6.012Y-2.578
X6.016Y-4.8805
X6.019Y-3.0225
X6.021Y-3.6835
X6.022Y-3.2265
X6.024Y-2.9118
X6.032Y-2.732
X6.036Y-1.864
X6.042Y-3.0595
X6.068Y-3.4255
X6.0751Y-2.9128
X6.079Y-3.0895
X6.082Y-2.634
X6.095Y-2.9985
X6.101Y-4.2085
X6.101Y-4.3155
X6.102Y-3.8215
X6.102Y-4.7365
X6.103Y-4.0495
X6.104Y-4.6545
X6.107Y-3.2915
X6.108Y-3.4215
X6.108Y-4.8315
X6.109Y-3.5035
X6.11Y-3.2235
X6.12Y-2.812
X6.153Y-4.6585
X6.18Y-2.742
X6.23Y-4.6105
X6.246Y-2.81
X6.267Y-4.5665
X6.3225Y-2.8725
X6.325Y-3.2475
X6.325Y-4.3225
X6.325Y-4.4325
X6.325Y-4.53
X6.3275Y-3.01
X6.3275Y-3.14
X6.3275Y-3.385
X6.3275Y-3.51
X6.3275Y-3.63
X6.3275Y-3.92
X6.3275Y-4.0525
X6.33Y-4.175
X6.3325Y-3.7825
T2
X5.285Y-3.4225
X5.792Y-2.644
X5.826Y-2.7395
X6.33Y-1.782
X6.334Y-1.656
X6.432Y-1.714
T3
X5.206Y-2.702
X5.206Y-2.752
X5.206Y-2.802
X5.206Y-2.852
T4
X4.7336Y-1.6912
X4.7336Y-1.8684
X4.7296Y-2.0796
X4.7296Y-2.2568
T5
X4.832Y-1.642
X4.832Y-1.9176
X4.828Y-2.0304
X4.828Y-2.306
T6
X4.794Y-1.484
X6.384Y-5.474
X6.384Y-1.484
X4.784Y-5.474
T0
M30
