G04 #@! TF.GenerationSoftware,KiCad,Pcbnew,5.1.6-c6e7f7d~87~ubuntu18.04.1*
G04 #@! TF.CreationDate,2020-07-31T10:56:06+02:00*
G04 #@! TF.ProjectId,HMI,484d492e-6b69-4636-9164-5f7063625858,rev?*
G04 #@! TF.SameCoordinates,Original*
G04 #@! TF.FileFunction,Paste,Top*
G04 #@! TF.FilePolarity,Positive*
%FSLAX46Y46*%
G04 Gerber Fmt 4.6, Leading zero omitted, Abs format (unit mm)*
G04 Created by KiCad (PCBNEW 5.1.6-c6e7f7d~87~ubuntu18.04.1) date 2020-07-31 10:56:06*
%MOMM*%
%LPD*%
G01*
G04 APERTURE LIST*
%ADD10R,0.900000X1.000000*%
G04 APERTURE END LIST*
G36*
G01*
X162935500Y-44960250D02*
X162935500Y-44447750D01*
G75*
G02*
X163154250Y-44229000I218750J0D01*
G01*
X163591750Y-44229000D01*
G75*
G02*
X163810500Y-44447750I0J-218750D01*
G01*
X163810500Y-44960250D01*
G75*
G02*
X163591750Y-45179000I-218750J0D01*
G01*
X163154250Y-45179000D01*
G75*
G02*
X162935500Y-44960250I0J218750D01*
G01*
G37*
G36*
G01*
X161360500Y-44960250D02*
X161360500Y-44447750D01*
G75*
G02*
X161579250Y-44229000I218750J0D01*
G01*
X162016750Y-44229000D01*
G75*
G02*
X162235500Y-44447750I0J-218750D01*
G01*
X162235500Y-44960250D01*
G75*
G02*
X162016750Y-45179000I-218750J0D01*
G01*
X161579250Y-45179000D01*
G75*
G02*
X161360500Y-44960250I0J218750D01*
G01*
G37*
G36*
G01*
X162935300Y-42521850D02*
X162935300Y-42009350D01*
G75*
G02*
X163154050Y-41790600I218750J0D01*
G01*
X163591550Y-41790600D01*
G75*
G02*
X163810300Y-42009350I0J-218750D01*
G01*
X163810300Y-42521850D01*
G75*
G02*
X163591550Y-42740600I-218750J0D01*
G01*
X163154050Y-42740600D01*
G75*
G02*
X162935300Y-42521850I0J218750D01*
G01*
G37*
G36*
G01*
X161360300Y-42521850D02*
X161360300Y-42009350D01*
G75*
G02*
X161579050Y-41790600I218750J0D01*
G01*
X162016550Y-41790600D01*
G75*
G02*
X162235300Y-42009350I0J-218750D01*
G01*
X162235300Y-42521850D01*
G75*
G02*
X162016550Y-42740600I-218750J0D01*
G01*
X161579050Y-42740600D01*
G75*
G02*
X161360300Y-42521850I0J218750D01*
G01*
G37*
D10*
X137274520Y-96575780D03*
X137274520Y-94975780D03*
X133174520Y-96575780D03*
X133174520Y-94975780D03*
X151244520Y-122610780D03*
X151244520Y-121010780D03*
X147144520Y-122610780D03*
X147144520Y-121010780D03*
X151244520Y-117530780D03*
X151244520Y-115930780D03*
X147144520Y-117530780D03*
X147144520Y-115930780D03*
X151244520Y-112450780D03*
X151244520Y-110850780D03*
X147144520Y-112450780D03*
X147144520Y-110850780D03*
X151244520Y-107370780D03*
X151244520Y-105770780D03*
X147144520Y-107370780D03*
X147144520Y-105770780D03*
X151244520Y-101655780D03*
X151244520Y-100055780D03*
X147144520Y-101655780D03*
X147144520Y-100055780D03*
X151244520Y-96575780D03*
X151244520Y-94975780D03*
X147144520Y-96575780D03*
X147144520Y-94975780D03*
X144259520Y-122610780D03*
X144259520Y-121010780D03*
X140159520Y-122610780D03*
X140159520Y-121010780D03*
X144259520Y-117530780D03*
X144259520Y-115930780D03*
X140159520Y-117530780D03*
X140159520Y-115930780D03*
X144259520Y-112450780D03*
X144259520Y-110850780D03*
X140159520Y-112450780D03*
X140159520Y-110850780D03*
X144259520Y-107370780D03*
X144259520Y-105770780D03*
X140159520Y-107370780D03*
X140159520Y-105770780D03*
X144259520Y-101655780D03*
X144259520Y-100055780D03*
X140159520Y-101655780D03*
X140159520Y-100055780D03*
X144259520Y-96575780D03*
X144259520Y-94975780D03*
X140159520Y-96575780D03*
X140159520Y-94975780D03*
X137274520Y-122610780D03*
X137274520Y-121010780D03*
X133174520Y-122610780D03*
X133174520Y-121010780D03*
X137274520Y-117530780D03*
X137274520Y-115930780D03*
X133174520Y-117530780D03*
X133174520Y-115930780D03*
X137274520Y-112450780D03*
X137274520Y-110850780D03*
X133174520Y-112450780D03*
X133174520Y-110850780D03*
X137274520Y-107370780D03*
X137274520Y-105770780D03*
X133174520Y-107370780D03*
X133174520Y-105770780D03*
X137274520Y-101655780D03*
X137274520Y-100055780D03*
X133174520Y-101655780D03*
X133174520Y-100055780D03*
G36*
G01*
X127454950Y-110624100D02*
X127967450Y-110624100D01*
G75*
G02*
X128186200Y-110842850I0J-218750D01*
G01*
X128186200Y-111280350D01*
G75*
G02*
X127967450Y-111499100I-218750J0D01*
G01*
X127454950Y-111499100D01*
G75*
G02*
X127236200Y-111280350I0J218750D01*
G01*
X127236200Y-110842850D01*
G75*
G02*
X127454950Y-110624100I218750J0D01*
G01*
G37*
G36*
G01*
X127454950Y-109049100D02*
X127967450Y-109049100D01*
G75*
G02*
X128186200Y-109267850I0J-218750D01*
G01*
X128186200Y-109705350D01*
G75*
G02*
X127967450Y-109924100I-218750J0D01*
G01*
X127454950Y-109924100D01*
G75*
G02*
X127236200Y-109705350I0J218750D01*
G01*
X127236200Y-109267850D01*
G75*
G02*
X127454950Y-109049100I218750J0D01*
G01*
G37*
G36*
G01*
X153260770Y-121460780D02*
X152748270Y-121460780D01*
G75*
G02*
X152529520Y-121242030I0J218750D01*
G01*
X152529520Y-120804530D01*
G75*
G02*
X152748270Y-120585780I218750J0D01*
G01*
X153260770Y-120585780D01*
G75*
G02*
X153479520Y-120804530I0J-218750D01*
G01*
X153479520Y-121242030D01*
G75*
G02*
X153260770Y-121460780I-218750J0D01*
G01*
G37*
G36*
G01*
X153260770Y-123035780D02*
X152748270Y-123035780D01*
G75*
G02*
X152529520Y-122817030I0J218750D01*
G01*
X152529520Y-122379530D01*
G75*
G02*
X152748270Y-122160780I218750J0D01*
G01*
X153260770Y-122160780D01*
G75*
G02*
X153479520Y-122379530I0J-218750D01*
G01*
X153479520Y-122817030D01*
G75*
G02*
X153260770Y-123035780I-218750J0D01*
G01*
G37*
G36*
G01*
X153260770Y-116380780D02*
X152748270Y-116380780D01*
G75*
G02*
X152529520Y-116162030I0J218750D01*
G01*
X152529520Y-115724530D01*
G75*
G02*
X152748270Y-115505780I218750J0D01*
G01*
X153260770Y-115505780D01*
G75*
G02*
X153479520Y-115724530I0J-218750D01*
G01*
X153479520Y-116162030D01*
G75*
G02*
X153260770Y-116380780I-218750J0D01*
G01*
G37*
G36*
G01*
X153260770Y-117955780D02*
X152748270Y-117955780D01*
G75*
G02*
X152529520Y-117737030I0J218750D01*
G01*
X152529520Y-117299530D01*
G75*
G02*
X152748270Y-117080780I218750J0D01*
G01*
X153260770Y-117080780D01*
G75*
G02*
X153479520Y-117299530I0J-218750D01*
G01*
X153479520Y-117737030D01*
G75*
G02*
X153260770Y-117955780I-218750J0D01*
G01*
G37*
G36*
G01*
X153260770Y-111300780D02*
X152748270Y-111300780D01*
G75*
G02*
X152529520Y-111082030I0J218750D01*
G01*
X152529520Y-110644530D01*
G75*
G02*
X152748270Y-110425780I218750J0D01*
G01*
X153260770Y-110425780D01*
G75*
G02*
X153479520Y-110644530I0J-218750D01*
G01*
X153479520Y-111082030D01*
G75*
G02*
X153260770Y-111300780I-218750J0D01*
G01*
G37*
G36*
G01*
X153260770Y-112875780D02*
X152748270Y-112875780D01*
G75*
G02*
X152529520Y-112657030I0J218750D01*
G01*
X152529520Y-112219530D01*
G75*
G02*
X152748270Y-112000780I218750J0D01*
G01*
X153260770Y-112000780D01*
G75*
G02*
X153479520Y-112219530I0J-218750D01*
G01*
X153479520Y-112657030D01*
G75*
G02*
X153260770Y-112875780I-218750J0D01*
G01*
G37*
G36*
G01*
X153260770Y-106220780D02*
X152748270Y-106220780D01*
G75*
G02*
X152529520Y-106002030I0J218750D01*
G01*
X152529520Y-105564530D01*
G75*
G02*
X152748270Y-105345780I218750J0D01*
G01*
X153260770Y-105345780D01*
G75*
G02*
X153479520Y-105564530I0J-218750D01*
G01*
X153479520Y-106002030D01*
G75*
G02*
X153260770Y-106220780I-218750J0D01*
G01*
G37*
G36*
G01*
X153260770Y-107795780D02*
X152748270Y-107795780D01*
G75*
G02*
X152529520Y-107577030I0J218750D01*
G01*
X152529520Y-107139530D01*
G75*
G02*
X152748270Y-106920780I218750J0D01*
G01*
X153260770Y-106920780D01*
G75*
G02*
X153479520Y-107139530I0J-218750D01*
G01*
X153479520Y-107577030D01*
G75*
G02*
X153260770Y-107795780I-218750J0D01*
G01*
G37*
G36*
G01*
X153260770Y-100505780D02*
X152748270Y-100505780D01*
G75*
G02*
X152529520Y-100287030I0J218750D01*
G01*
X152529520Y-99849530D01*
G75*
G02*
X152748270Y-99630780I218750J0D01*
G01*
X153260770Y-99630780D01*
G75*
G02*
X153479520Y-99849530I0J-218750D01*
G01*
X153479520Y-100287030D01*
G75*
G02*
X153260770Y-100505780I-218750J0D01*
G01*
G37*
G36*
G01*
X153260770Y-102080780D02*
X152748270Y-102080780D01*
G75*
G02*
X152529520Y-101862030I0J218750D01*
G01*
X152529520Y-101424530D01*
G75*
G02*
X152748270Y-101205780I218750J0D01*
G01*
X153260770Y-101205780D01*
G75*
G02*
X153479520Y-101424530I0J-218750D01*
G01*
X153479520Y-101862030D01*
G75*
G02*
X153260770Y-102080780I-218750J0D01*
G01*
G37*
G36*
G01*
X153260770Y-95425780D02*
X152748270Y-95425780D01*
G75*
G02*
X152529520Y-95207030I0J218750D01*
G01*
X152529520Y-94769530D01*
G75*
G02*
X152748270Y-94550780I218750J0D01*
G01*
X153260770Y-94550780D01*
G75*
G02*
X153479520Y-94769530I0J-218750D01*
G01*
X153479520Y-95207030D01*
G75*
G02*
X153260770Y-95425780I-218750J0D01*
G01*
G37*
G36*
G01*
X153260770Y-97000780D02*
X152748270Y-97000780D01*
G75*
G02*
X152529520Y-96782030I0J218750D01*
G01*
X152529520Y-96344530D01*
G75*
G02*
X152748270Y-96125780I218750J0D01*
G01*
X153260770Y-96125780D01*
G75*
G02*
X153479520Y-96344530I0J-218750D01*
G01*
X153479520Y-96782030D01*
G75*
G02*
X153260770Y-97000780I-218750J0D01*
G01*
G37*
G36*
G01*
X129570900Y-110754450D02*
X129570900Y-111266950D01*
G75*
G02*
X129352150Y-111485700I-218750J0D01*
G01*
X128914650Y-111485700D01*
G75*
G02*
X128695900Y-111266950I0J218750D01*
G01*
X128695900Y-110754450D01*
G75*
G02*
X128914650Y-110535700I218750J0D01*
G01*
X129352150Y-110535700D01*
G75*
G02*
X129570900Y-110754450I0J-218750D01*
G01*
G37*
G36*
G01*
X131145900Y-110754450D02*
X131145900Y-111266950D01*
G75*
G02*
X130927150Y-111485700I-218750J0D01*
G01*
X130489650Y-111485700D01*
G75*
G02*
X130270900Y-111266950I0J218750D01*
G01*
X130270900Y-110754450D01*
G75*
G02*
X130489650Y-110535700I218750J0D01*
G01*
X130927150Y-110535700D01*
G75*
G02*
X131145900Y-110754450I0J-218750D01*
G01*
G37*
G36*
G01*
X129596300Y-116190050D02*
X129596300Y-116702550D01*
G75*
G02*
X129377550Y-116921300I-218750J0D01*
G01*
X128940050Y-116921300D01*
G75*
G02*
X128721300Y-116702550I0J218750D01*
G01*
X128721300Y-116190050D01*
G75*
G02*
X128940050Y-115971300I218750J0D01*
G01*
X129377550Y-115971300D01*
G75*
G02*
X129596300Y-116190050I0J-218750D01*
G01*
G37*
G36*
G01*
X131171300Y-116190050D02*
X131171300Y-116702550D01*
G75*
G02*
X130952550Y-116921300I-218750J0D01*
G01*
X130515050Y-116921300D01*
G75*
G02*
X130296300Y-116702550I0J218750D01*
G01*
X130296300Y-116190050D01*
G75*
G02*
X130515050Y-115971300I218750J0D01*
G01*
X130952550Y-115971300D01*
G75*
G02*
X131171300Y-116190050I0J-218750D01*
G01*
G37*
G36*
G01*
X129570900Y-112253050D02*
X129570900Y-112765550D01*
G75*
G02*
X129352150Y-112984300I-218750J0D01*
G01*
X128914650Y-112984300D01*
G75*
G02*
X128695900Y-112765550I0J218750D01*
G01*
X128695900Y-112253050D01*
G75*
G02*
X128914650Y-112034300I218750J0D01*
G01*
X129352150Y-112034300D01*
G75*
G02*
X129570900Y-112253050I0J-218750D01*
G01*
G37*
G36*
G01*
X131145900Y-112253050D02*
X131145900Y-112765550D01*
G75*
G02*
X130927150Y-112984300I-218750J0D01*
G01*
X130489650Y-112984300D01*
G75*
G02*
X130270900Y-112765550I0J218750D01*
G01*
X130270900Y-112253050D01*
G75*
G02*
X130489650Y-112034300I218750J0D01*
G01*
X130927150Y-112034300D01*
G75*
G02*
X131145900Y-112253050I0J-218750D01*
G01*
G37*
G36*
G01*
X129596300Y-117663250D02*
X129596300Y-118175750D01*
G75*
G02*
X129377550Y-118394500I-218750J0D01*
G01*
X128940050Y-118394500D01*
G75*
G02*
X128721300Y-118175750I0J218750D01*
G01*
X128721300Y-117663250D01*
G75*
G02*
X128940050Y-117444500I218750J0D01*
G01*
X129377550Y-117444500D01*
G75*
G02*
X129596300Y-117663250I0J-218750D01*
G01*
G37*
G36*
G01*
X131171300Y-117663250D02*
X131171300Y-118175750D01*
G75*
G02*
X130952550Y-118394500I-218750J0D01*
G01*
X130515050Y-118394500D01*
G75*
G02*
X130296300Y-118175750I0J218750D01*
G01*
X130296300Y-117663250D01*
G75*
G02*
X130515050Y-117444500I218750J0D01*
G01*
X130952550Y-117444500D01*
G75*
G02*
X131171300Y-117663250I0J-218750D01*
G01*
G37*
G36*
G01*
X130270900Y-115203950D02*
X130270900Y-114691450D01*
G75*
G02*
X130489650Y-114472700I218750J0D01*
G01*
X130927150Y-114472700D01*
G75*
G02*
X131145900Y-114691450I0J-218750D01*
G01*
X131145900Y-115203950D01*
G75*
G02*
X130927150Y-115422700I-218750J0D01*
G01*
X130489650Y-115422700D01*
G75*
G02*
X130270900Y-115203950I0J218750D01*
G01*
G37*
G36*
G01*
X128695900Y-115203950D02*
X128695900Y-114691450D01*
G75*
G02*
X128914650Y-114472700I218750J0D01*
G01*
X129352150Y-114472700D01*
G75*
G02*
X129570900Y-114691450I0J-218750D01*
G01*
X129570900Y-115203950D01*
G75*
G02*
X129352150Y-115422700I-218750J0D01*
G01*
X128914650Y-115422700D01*
G75*
G02*
X128695900Y-115203950I0J218750D01*
G01*
G37*
G36*
G01*
X127454950Y-116034400D02*
X127967450Y-116034400D01*
G75*
G02*
X128186200Y-116253150I0J-218750D01*
G01*
X128186200Y-116690650D01*
G75*
G02*
X127967450Y-116909400I-218750J0D01*
G01*
X127454950Y-116909400D01*
G75*
G02*
X127236200Y-116690650I0J218750D01*
G01*
X127236200Y-116253150D01*
G75*
G02*
X127454950Y-116034400I218750J0D01*
G01*
G37*
G36*
G01*
X127454950Y-114459400D02*
X127967450Y-114459400D01*
G75*
G02*
X128186200Y-114678150I0J-218750D01*
G01*
X128186200Y-115115650D01*
G75*
G02*
X127967450Y-115334400I-218750J0D01*
G01*
X127454950Y-115334400D01*
G75*
G02*
X127236200Y-115115650I0J218750D01*
G01*
X127236200Y-114678150D01*
G75*
G02*
X127454950Y-114459400I218750J0D01*
G01*
G37*
G36*
G01*
X130296300Y-109768350D02*
X130296300Y-109255850D01*
G75*
G02*
X130515050Y-109037100I218750J0D01*
G01*
X130952550Y-109037100D01*
G75*
G02*
X131171300Y-109255850I0J-218750D01*
G01*
X131171300Y-109768350D01*
G75*
G02*
X130952550Y-109987100I-218750J0D01*
G01*
X130515050Y-109987100D01*
G75*
G02*
X130296300Y-109768350I0J218750D01*
G01*
G37*
G36*
G01*
X128721300Y-109768350D02*
X128721300Y-109255850D01*
G75*
G02*
X128940050Y-109037100I218750J0D01*
G01*
X129377550Y-109037100D01*
G75*
G02*
X129596300Y-109255850I0J-218750D01*
G01*
X129596300Y-109768350D01*
G75*
G02*
X129377550Y-109987100I-218750J0D01*
G01*
X128940050Y-109987100D01*
G75*
G02*
X128721300Y-109768350I0J218750D01*
G01*
G37*
M02*
