G04 #@! TF.GenerationSoftware,KiCad,Pcbnew,5.1.6-c6e7f7d~87~ubuntu18.04.1*
G04 #@! TF.CreationDate,2020-07-31T23:24:34+02:00*
G04 #@! TF.ProjectId,HMI,484d492e-6b69-4636-9164-5f7063625858,rev?*
G04 #@! TF.SameCoordinates,Original*
G04 #@! TF.FileFunction,Soldermask,Top*
G04 #@! TF.FilePolarity,Negative*
%FSLAX46Y46*%
G04 Gerber Fmt 4.6, Leading zero omitted, Abs format (unit mm)*
G04 Created by KiCad (PCBNEW 5.1.6-c6e7f7d~87~ubuntu18.04.1) date 2020-07-31 23:24:34*
%MOMM*%
%LPD*%
G01*
G04 APERTURE LIST*
%ADD10C,0.100000*%
G04 APERTURE END LIST*
D10*
X123875800Y-41706800D02*
G75*
G03*
X123875800Y-41706800I-1143000J0D01*
G01*
X121121800Y-47456800D02*
G75*
G03*
X121121800Y-47456800I-889000J0D01*
G01*
X121121800Y-42956800D02*
G75*
G03*
X121121800Y-42956800I-889000J0D01*
G01*
X123875800Y-48706800D02*
G75*
G03*
X123875800Y-48706800I-1143000J0D01*
G01*
X123774200Y-51572400D02*
G75*
G03*
X123774200Y-51572400I-1143000J0D01*
G01*
X121020200Y-57322400D02*
G75*
G03*
X121020200Y-57322400I-889000J0D01*
G01*
X121020200Y-52822400D02*
G75*
G03*
X121020200Y-52822400I-889000J0D01*
G01*
X123774200Y-58572400D02*
G75*
G03*
X123774200Y-58572400I-1143000J0D01*
G01*
G36*
X162722685Y-137163575D02*
G01*
X163077743Y-137310645D01*
X163077745Y-137310646D01*
X163397290Y-137524159D01*
X163669041Y-137795910D01*
X163882554Y-138115455D01*
X163882555Y-138115457D01*
X164029625Y-138470515D01*
X164104600Y-138847442D01*
X164104600Y-139231758D01*
X164029625Y-139608685D01*
X163882555Y-139963743D01*
X163882554Y-139963745D01*
X163669041Y-140283290D01*
X163397290Y-140555041D01*
X163077745Y-140768554D01*
X163077744Y-140768555D01*
X163077743Y-140768555D01*
X162722685Y-140915625D01*
X162345758Y-140990600D01*
X161961442Y-140990600D01*
X161584515Y-140915625D01*
X161229457Y-140768555D01*
X161229456Y-140768555D01*
X161229455Y-140768554D01*
X160909910Y-140555041D01*
X160638159Y-140283290D01*
X160424646Y-139963745D01*
X160424645Y-139963743D01*
X160277575Y-139608685D01*
X160202600Y-139231758D01*
X160202600Y-138847442D01*
X160277575Y-138470515D01*
X160424645Y-138115457D01*
X160424646Y-138115455D01*
X160638159Y-137795910D01*
X160909910Y-137524159D01*
X161229455Y-137310646D01*
X161229457Y-137310645D01*
X161584515Y-137163575D01*
X161961442Y-137088600D01*
X162345758Y-137088600D01*
X162722685Y-137163575D01*
G37*
G36*
X122082685Y-137163575D02*
G01*
X122437743Y-137310645D01*
X122437745Y-137310646D01*
X122757290Y-137524159D01*
X123029041Y-137795910D01*
X123242554Y-138115455D01*
X123242555Y-138115457D01*
X123389625Y-138470515D01*
X123464600Y-138847442D01*
X123464600Y-139231758D01*
X123389625Y-139608685D01*
X123242555Y-139963743D01*
X123242554Y-139963745D01*
X123029041Y-140283290D01*
X122757290Y-140555041D01*
X122437745Y-140768554D01*
X122437744Y-140768555D01*
X122437743Y-140768555D01*
X122082685Y-140915625D01*
X121705758Y-140990600D01*
X121321442Y-140990600D01*
X120944515Y-140915625D01*
X120589457Y-140768555D01*
X120589456Y-140768555D01*
X120589455Y-140768554D01*
X120269910Y-140555041D01*
X119998159Y-140283290D01*
X119784646Y-139963745D01*
X119784645Y-139963743D01*
X119637575Y-139608685D01*
X119562600Y-139231758D01*
X119562600Y-138847442D01*
X119637575Y-138470515D01*
X119784645Y-138115457D01*
X119784646Y-138115455D01*
X119998159Y-137795910D01*
X120269910Y-137524159D01*
X120589455Y-137310646D01*
X120589457Y-137310645D01*
X120944515Y-137163575D01*
X121321442Y-137088600D01*
X121705758Y-137088600D01*
X122082685Y-137163575D01*
G37*
G36*
X145840020Y-126019280D02*
G01*
X144838020Y-126019280D01*
X144838020Y-124917280D01*
X145840020Y-124917280D01*
X145840020Y-126019280D01*
G37*
G36*
X141740020Y-126019280D02*
G01*
X140738020Y-126019280D01*
X140738020Y-124917280D01*
X141740020Y-124917280D01*
X141740020Y-126019280D01*
G37*
G36*
X156635020Y-126019280D02*
G01*
X155633020Y-126019280D01*
X155633020Y-124917280D01*
X156635020Y-124917280D01*
X156635020Y-126019280D01*
G37*
G36*
X135045020Y-126019280D02*
G01*
X134043020Y-126019280D01*
X134043020Y-124917280D01*
X135045020Y-124917280D01*
X135045020Y-126019280D01*
G37*
G36*
X152535020Y-126019280D02*
G01*
X151533020Y-126019280D01*
X151533020Y-124917280D01*
X152535020Y-124917280D01*
X152535020Y-126019280D01*
G37*
G36*
X130945020Y-126019280D02*
G01*
X129943020Y-126019280D01*
X129943020Y-124917280D01*
X130945020Y-124917280D01*
X130945020Y-126019280D01*
G37*
G36*
X152535020Y-124419280D02*
G01*
X151533020Y-124419280D01*
X151533020Y-123317280D01*
X152535020Y-123317280D01*
X152535020Y-124419280D01*
G37*
G36*
X141740020Y-124419280D02*
G01*
X140738020Y-124419280D01*
X140738020Y-123317280D01*
X141740020Y-123317280D01*
X141740020Y-124419280D01*
G37*
G36*
X156635020Y-124419280D02*
G01*
X155633020Y-124419280D01*
X155633020Y-123317280D01*
X156635020Y-123317280D01*
X156635020Y-124419280D01*
G37*
G36*
X135045020Y-124419280D02*
G01*
X134043020Y-124419280D01*
X134043020Y-123317280D01*
X135045020Y-123317280D01*
X135045020Y-124419280D01*
G37*
G36*
X130945020Y-124419280D02*
G01*
X129943020Y-124419280D01*
X129943020Y-123317280D01*
X130945020Y-123317280D01*
X130945020Y-124419280D01*
G37*
G36*
X145840020Y-124419280D02*
G01*
X144838020Y-124419280D01*
X144838020Y-123317280D01*
X145840020Y-123317280D01*
X145840020Y-124419280D01*
G37*
G36*
X156552091Y-121398085D02*
G01*
X156586069Y-121408393D01*
X156617390Y-121425134D01*
X156644839Y-121447661D01*
X156667366Y-121475110D01*
X156684107Y-121506431D01*
X156694415Y-121540409D01*
X156698500Y-121581890D01*
X156698500Y-122258110D01*
X156694415Y-122299591D01*
X156684107Y-122333569D01*
X156667366Y-122364890D01*
X156644839Y-122392339D01*
X156617390Y-122414866D01*
X156586069Y-122431607D01*
X156552091Y-122441915D01*
X156510610Y-122446000D01*
X155909390Y-122446000D01*
X155867909Y-122441915D01*
X155833931Y-122431607D01*
X155802610Y-122414866D01*
X155775161Y-122392339D01*
X155752634Y-122364890D01*
X155735893Y-122333569D01*
X155725585Y-122299591D01*
X155721500Y-122258110D01*
X155721500Y-121581890D01*
X155725585Y-121540409D01*
X155735893Y-121506431D01*
X155752634Y-121475110D01*
X155775161Y-121447661D01*
X155802610Y-121425134D01*
X155833931Y-121408393D01*
X155867909Y-121398085D01*
X155909390Y-121394000D01*
X156510610Y-121394000D01*
X156552091Y-121398085D01*
G37*
G36*
X158127091Y-121398085D02*
G01*
X158161069Y-121408393D01*
X158192390Y-121425134D01*
X158219839Y-121447661D01*
X158242366Y-121475110D01*
X158259107Y-121506431D01*
X158269415Y-121540409D01*
X158273500Y-121581890D01*
X158273500Y-122258110D01*
X158269415Y-122299591D01*
X158259107Y-122333569D01*
X158242366Y-122364890D01*
X158219839Y-122392339D01*
X158192390Y-122414866D01*
X158161069Y-122431607D01*
X158127091Y-122441915D01*
X158085610Y-122446000D01*
X157484390Y-122446000D01*
X157442909Y-122441915D01*
X157408931Y-122431607D01*
X157377610Y-122414866D01*
X157350161Y-122392339D01*
X157327634Y-122364890D01*
X157310893Y-122333569D01*
X157300585Y-122299591D01*
X157296500Y-122258110D01*
X157296500Y-121581890D01*
X157300585Y-121540409D01*
X157310893Y-121506431D01*
X157327634Y-121475110D01*
X157350161Y-121447661D01*
X157377610Y-121425134D01*
X157408931Y-121408393D01*
X157442909Y-121398085D01*
X157484390Y-121394000D01*
X158085610Y-121394000D01*
X158127091Y-121398085D01*
G37*
G36*
X126249891Y-118286585D02*
G01*
X126283869Y-118296893D01*
X126315190Y-118313634D01*
X126342639Y-118336161D01*
X126365166Y-118363610D01*
X126381907Y-118394931D01*
X126392215Y-118428909D01*
X126396300Y-118470390D01*
X126396300Y-119146610D01*
X126392215Y-119188091D01*
X126381907Y-119222069D01*
X126365166Y-119253390D01*
X126342639Y-119280839D01*
X126315190Y-119303366D01*
X126283869Y-119320107D01*
X126249891Y-119330415D01*
X126208410Y-119334500D01*
X125607190Y-119334500D01*
X125565709Y-119330415D01*
X125531731Y-119320107D01*
X125500410Y-119303366D01*
X125472961Y-119280839D01*
X125450434Y-119253390D01*
X125433693Y-119222069D01*
X125423385Y-119188091D01*
X125419300Y-119146610D01*
X125419300Y-118470390D01*
X125423385Y-118428909D01*
X125433693Y-118394931D01*
X125450434Y-118363610D01*
X125472961Y-118336161D01*
X125500410Y-118313634D01*
X125531731Y-118296893D01*
X125565709Y-118286585D01*
X125607190Y-118282500D01*
X126208410Y-118282500D01*
X126249891Y-118286585D01*
G37*
G36*
X124674891Y-118286585D02*
G01*
X124708869Y-118296893D01*
X124740190Y-118313634D01*
X124767639Y-118336161D01*
X124790166Y-118363610D01*
X124806907Y-118394931D01*
X124817215Y-118428909D01*
X124821300Y-118470390D01*
X124821300Y-119146610D01*
X124817215Y-119188091D01*
X124806907Y-119222069D01*
X124790166Y-119253390D01*
X124767639Y-119280839D01*
X124740190Y-119303366D01*
X124708869Y-119320107D01*
X124674891Y-119330415D01*
X124633410Y-119334500D01*
X124032190Y-119334500D01*
X123990709Y-119330415D01*
X123956731Y-119320107D01*
X123925410Y-119303366D01*
X123897961Y-119280839D01*
X123875434Y-119253390D01*
X123858693Y-119222069D01*
X123848385Y-119188091D01*
X123844300Y-119146610D01*
X123844300Y-118470390D01*
X123848385Y-118428909D01*
X123858693Y-118394931D01*
X123875434Y-118363610D01*
X123897961Y-118336161D01*
X123925410Y-118313634D01*
X123956731Y-118296893D01*
X123990709Y-118286585D01*
X124032190Y-118282500D01*
X124633410Y-118282500D01*
X124674891Y-118286585D01*
G37*
G36*
X152535020Y-119161280D02*
G01*
X151533020Y-119161280D01*
X151533020Y-118059280D01*
X152535020Y-118059280D01*
X152535020Y-119161280D01*
G37*
G36*
X141740020Y-119161280D02*
G01*
X140738020Y-119161280D01*
X140738020Y-118059280D01*
X141740020Y-118059280D01*
X141740020Y-119161280D01*
G37*
G36*
X145840020Y-119161280D02*
G01*
X144838020Y-119161280D01*
X144838020Y-118059280D01*
X145840020Y-118059280D01*
X145840020Y-119161280D01*
G37*
G36*
X156635020Y-119161280D02*
G01*
X155633020Y-119161280D01*
X155633020Y-118059280D01*
X156635020Y-118059280D01*
X156635020Y-119161280D01*
G37*
G36*
X135045020Y-119161280D02*
G01*
X134043020Y-119161280D01*
X134043020Y-118059280D01*
X135045020Y-118059280D01*
X135045020Y-119161280D01*
G37*
G36*
X130945020Y-119161280D02*
G01*
X129943020Y-119161280D01*
X129943020Y-118059280D01*
X130945020Y-118059280D01*
X130945020Y-119161280D01*
G37*
G36*
X124674891Y-116813385D02*
G01*
X124708869Y-116823693D01*
X124740190Y-116840434D01*
X124767639Y-116862961D01*
X124790166Y-116890410D01*
X124806907Y-116921731D01*
X124817215Y-116955709D01*
X124821300Y-116997190D01*
X124821300Y-117673410D01*
X124817215Y-117714891D01*
X124806907Y-117748869D01*
X124790166Y-117780190D01*
X124767639Y-117807639D01*
X124740190Y-117830166D01*
X124708869Y-117846907D01*
X124674891Y-117857215D01*
X124633410Y-117861300D01*
X124032190Y-117861300D01*
X123990709Y-117857215D01*
X123956731Y-117846907D01*
X123925410Y-117830166D01*
X123897961Y-117807639D01*
X123875434Y-117780190D01*
X123858693Y-117748869D01*
X123848385Y-117714891D01*
X123844300Y-117673410D01*
X123844300Y-116997190D01*
X123848385Y-116955709D01*
X123858693Y-116921731D01*
X123875434Y-116890410D01*
X123897961Y-116862961D01*
X123925410Y-116840434D01*
X123956731Y-116823693D01*
X123990709Y-116813385D01*
X124032190Y-116809300D01*
X124633410Y-116809300D01*
X124674891Y-116813385D01*
G37*
G36*
X126249891Y-116813385D02*
G01*
X126283869Y-116823693D01*
X126315190Y-116840434D01*
X126342639Y-116862961D01*
X126365166Y-116890410D01*
X126381907Y-116921731D01*
X126392215Y-116955709D01*
X126396300Y-116997190D01*
X126396300Y-117673410D01*
X126392215Y-117714891D01*
X126381907Y-117748869D01*
X126365166Y-117780190D01*
X126342639Y-117807639D01*
X126315190Y-117830166D01*
X126283869Y-117846907D01*
X126249891Y-117857215D01*
X126208410Y-117861300D01*
X125607190Y-117861300D01*
X125565709Y-117857215D01*
X125531731Y-117846907D01*
X125500410Y-117830166D01*
X125472961Y-117807639D01*
X125450434Y-117780190D01*
X125433693Y-117748869D01*
X125423385Y-117714891D01*
X125419300Y-117673410D01*
X125419300Y-116997190D01*
X125423385Y-116955709D01*
X125433693Y-116921731D01*
X125450434Y-116890410D01*
X125472961Y-116862961D01*
X125500410Y-116840434D01*
X125531731Y-116823693D01*
X125565709Y-116813385D01*
X125607190Y-116809300D01*
X126208410Y-116809300D01*
X126249891Y-116813385D01*
G37*
G36*
X123264791Y-116876485D02*
G01*
X123298769Y-116886793D01*
X123330090Y-116903534D01*
X123357539Y-116926061D01*
X123380066Y-116953510D01*
X123396807Y-116984831D01*
X123407115Y-117018809D01*
X123411200Y-117060290D01*
X123411200Y-117661510D01*
X123407115Y-117702991D01*
X123396807Y-117736969D01*
X123380066Y-117768290D01*
X123357539Y-117795739D01*
X123330090Y-117818266D01*
X123298769Y-117835007D01*
X123264791Y-117845315D01*
X123223310Y-117849400D01*
X122547090Y-117849400D01*
X122505609Y-117845315D01*
X122471631Y-117835007D01*
X122440310Y-117818266D01*
X122412861Y-117795739D01*
X122390334Y-117768290D01*
X122373593Y-117736969D01*
X122363285Y-117702991D01*
X122359200Y-117661510D01*
X122359200Y-117060290D01*
X122363285Y-117018809D01*
X122373593Y-116984831D01*
X122390334Y-116953510D01*
X122412861Y-116926061D01*
X122440310Y-116903534D01*
X122471631Y-116886793D01*
X122505609Y-116876485D01*
X122547090Y-116872400D01*
X123223310Y-116872400D01*
X123264791Y-116876485D01*
G37*
G36*
X156635020Y-117561280D02*
G01*
X155633020Y-117561280D01*
X155633020Y-116459280D01*
X156635020Y-116459280D01*
X156635020Y-117561280D01*
G37*
G36*
X152535020Y-117561280D02*
G01*
X151533020Y-117561280D01*
X151533020Y-116459280D01*
X152535020Y-116459280D01*
X152535020Y-117561280D01*
G37*
G36*
X135045020Y-117561280D02*
G01*
X134043020Y-117561280D01*
X134043020Y-116459280D01*
X135045020Y-116459280D01*
X135045020Y-117561280D01*
G37*
G36*
X141740020Y-117561280D02*
G01*
X140738020Y-117561280D01*
X140738020Y-116459280D01*
X141740020Y-116459280D01*
X141740020Y-117561280D01*
G37*
G36*
X130945020Y-117561280D02*
G01*
X129943020Y-117561280D01*
X129943020Y-116459280D01*
X130945020Y-116459280D01*
X130945020Y-117561280D01*
G37*
G36*
X145840020Y-117561280D02*
G01*
X144838020Y-117561280D01*
X144838020Y-116459280D01*
X145840020Y-116459280D01*
X145840020Y-117561280D01*
G37*
G36*
X124649491Y-115314785D02*
G01*
X124683469Y-115325093D01*
X124714790Y-115341834D01*
X124742239Y-115364361D01*
X124764766Y-115391810D01*
X124781507Y-115423131D01*
X124791815Y-115457109D01*
X124795900Y-115498590D01*
X124795900Y-116174810D01*
X124791815Y-116216291D01*
X124781507Y-116250269D01*
X124764766Y-116281590D01*
X124742239Y-116309039D01*
X124714790Y-116331566D01*
X124683469Y-116348307D01*
X124649491Y-116358615D01*
X124608010Y-116362700D01*
X124006790Y-116362700D01*
X123965309Y-116358615D01*
X123931331Y-116348307D01*
X123900010Y-116331566D01*
X123872561Y-116309039D01*
X123850034Y-116281590D01*
X123833293Y-116250269D01*
X123822985Y-116216291D01*
X123818900Y-116174810D01*
X123818900Y-115498590D01*
X123822985Y-115457109D01*
X123833293Y-115423131D01*
X123850034Y-115391810D01*
X123872561Y-115364361D01*
X123900010Y-115341834D01*
X123931331Y-115325093D01*
X123965309Y-115314785D01*
X124006790Y-115310700D01*
X124608010Y-115310700D01*
X124649491Y-115314785D01*
G37*
G36*
X126224491Y-115314785D02*
G01*
X126258469Y-115325093D01*
X126289790Y-115341834D01*
X126317239Y-115364361D01*
X126339766Y-115391810D01*
X126356507Y-115423131D01*
X126366815Y-115457109D01*
X126370900Y-115498590D01*
X126370900Y-116174810D01*
X126366815Y-116216291D01*
X126356507Y-116250269D01*
X126339766Y-116281590D01*
X126317239Y-116309039D01*
X126289790Y-116331566D01*
X126258469Y-116348307D01*
X126224491Y-116358615D01*
X126183010Y-116362700D01*
X125581790Y-116362700D01*
X125540309Y-116358615D01*
X125506331Y-116348307D01*
X125475010Y-116331566D01*
X125447561Y-116309039D01*
X125425034Y-116281590D01*
X125408293Y-116250269D01*
X125397985Y-116216291D01*
X125393900Y-116174810D01*
X125393900Y-115498590D01*
X125397985Y-115457109D01*
X125408293Y-115423131D01*
X125425034Y-115391810D01*
X125447561Y-115364361D01*
X125475010Y-115341834D01*
X125506331Y-115325093D01*
X125540309Y-115314785D01*
X125581790Y-115310700D01*
X126183010Y-115310700D01*
X126224491Y-115314785D01*
G37*
G36*
X123264791Y-115301485D02*
G01*
X123298769Y-115311793D01*
X123330090Y-115328534D01*
X123357539Y-115351061D01*
X123380066Y-115378510D01*
X123396807Y-115409831D01*
X123407115Y-115443809D01*
X123411200Y-115485290D01*
X123411200Y-116086510D01*
X123407115Y-116127991D01*
X123396807Y-116161969D01*
X123380066Y-116193290D01*
X123357539Y-116220739D01*
X123330090Y-116243266D01*
X123298769Y-116260007D01*
X123264791Y-116270315D01*
X123223310Y-116274400D01*
X122547090Y-116274400D01*
X122505609Y-116270315D01*
X122471631Y-116260007D01*
X122440310Y-116243266D01*
X122412861Y-116220739D01*
X122390334Y-116193290D01*
X122373593Y-116161969D01*
X122363285Y-116127991D01*
X122359200Y-116086510D01*
X122359200Y-115485290D01*
X122363285Y-115443809D01*
X122373593Y-115409831D01*
X122390334Y-115378510D01*
X122412861Y-115351061D01*
X122440310Y-115328534D01*
X122471631Y-115311793D01*
X122505609Y-115301485D01*
X122547090Y-115297400D01*
X123223310Y-115297400D01*
X123264791Y-115301485D01*
G37*
G36*
X158127091Y-114540085D02*
G01*
X158161069Y-114550393D01*
X158192390Y-114567134D01*
X158219839Y-114589661D01*
X158242366Y-114617110D01*
X158259107Y-114648431D01*
X158269415Y-114682409D01*
X158273500Y-114723890D01*
X158273500Y-115400110D01*
X158269415Y-115441591D01*
X158259107Y-115475569D01*
X158242366Y-115506890D01*
X158219839Y-115534339D01*
X158192390Y-115556866D01*
X158161069Y-115573607D01*
X158127091Y-115583915D01*
X158085610Y-115588000D01*
X157484390Y-115588000D01*
X157442909Y-115583915D01*
X157408931Y-115573607D01*
X157377610Y-115556866D01*
X157350161Y-115534339D01*
X157327634Y-115506890D01*
X157310893Y-115475569D01*
X157300585Y-115441591D01*
X157296500Y-115400110D01*
X157296500Y-114723890D01*
X157300585Y-114682409D01*
X157310893Y-114648431D01*
X157327634Y-114617110D01*
X157350161Y-114589661D01*
X157377610Y-114567134D01*
X157408931Y-114550393D01*
X157442909Y-114540085D01*
X157484390Y-114536000D01*
X158085610Y-114536000D01*
X158127091Y-114540085D01*
G37*
G36*
X156552091Y-114540085D02*
G01*
X156586069Y-114550393D01*
X156617390Y-114567134D01*
X156644839Y-114589661D01*
X156667366Y-114617110D01*
X156684107Y-114648431D01*
X156694415Y-114682409D01*
X156698500Y-114723890D01*
X156698500Y-115400110D01*
X156694415Y-115441591D01*
X156684107Y-115475569D01*
X156667366Y-115506890D01*
X156644839Y-115534339D01*
X156617390Y-115556866D01*
X156586069Y-115573607D01*
X156552091Y-115583915D01*
X156510610Y-115588000D01*
X155909390Y-115588000D01*
X155867909Y-115583915D01*
X155833931Y-115573607D01*
X155802610Y-115556866D01*
X155775161Y-115534339D01*
X155752634Y-115506890D01*
X155735893Y-115475569D01*
X155725585Y-115441591D01*
X155721500Y-115400110D01*
X155721500Y-114723890D01*
X155725585Y-114682409D01*
X155735893Y-114648431D01*
X155752634Y-114617110D01*
X155775161Y-114589661D01*
X155802610Y-114567134D01*
X155833931Y-114550393D01*
X155867909Y-114540085D01*
X155909390Y-114536000D01*
X156510610Y-114536000D01*
X156552091Y-114540085D01*
G37*
G36*
X124649491Y-112876385D02*
G01*
X124683469Y-112886693D01*
X124714790Y-112903434D01*
X124742239Y-112925961D01*
X124764766Y-112953410D01*
X124781507Y-112984731D01*
X124791815Y-113018709D01*
X124795900Y-113060190D01*
X124795900Y-113736410D01*
X124791815Y-113777891D01*
X124781507Y-113811869D01*
X124764766Y-113843190D01*
X124742239Y-113870639D01*
X124714790Y-113893166D01*
X124683469Y-113909907D01*
X124649491Y-113920215D01*
X124608010Y-113924300D01*
X124006790Y-113924300D01*
X123965309Y-113920215D01*
X123931331Y-113909907D01*
X123900010Y-113893166D01*
X123872561Y-113870639D01*
X123850034Y-113843190D01*
X123833293Y-113811869D01*
X123822985Y-113777891D01*
X123818900Y-113736410D01*
X123818900Y-113060190D01*
X123822985Y-113018709D01*
X123833293Y-112984731D01*
X123850034Y-112953410D01*
X123872561Y-112925961D01*
X123900010Y-112903434D01*
X123931331Y-112886693D01*
X123965309Y-112876385D01*
X124006790Y-112872300D01*
X124608010Y-112872300D01*
X124649491Y-112876385D01*
G37*
G36*
X126224491Y-112876385D02*
G01*
X126258469Y-112886693D01*
X126289790Y-112903434D01*
X126317239Y-112925961D01*
X126339766Y-112953410D01*
X126356507Y-112984731D01*
X126366815Y-113018709D01*
X126370900Y-113060190D01*
X126370900Y-113736410D01*
X126366815Y-113777891D01*
X126356507Y-113811869D01*
X126339766Y-113843190D01*
X126317239Y-113870639D01*
X126289790Y-113893166D01*
X126258469Y-113909907D01*
X126224491Y-113920215D01*
X126183010Y-113924300D01*
X125581790Y-113924300D01*
X125540309Y-113920215D01*
X125506331Y-113909907D01*
X125475010Y-113893166D01*
X125447561Y-113870639D01*
X125425034Y-113843190D01*
X125408293Y-113811869D01*
X125397985Y-113777891D01*
X125393900Y-113736410D01*
X125393900Y-113060190D01*
X125397985Y-113018709D01*
X125408293Y-112984731D01*
X125425034Y-112953410D01*
X125447561Y-112925961D01*
X125475010Y-112903434D01*
X125506331Y-112886693D01*
X125540309Y-112876385D01*
X125581790Y-112872300D01*
X126183010Y-112872300D01*
X126224491Y-112876385D01*
G37*
G36*
X123264791Y-111466185D02*
G01*
X123298769Y-111476493D01*
X123330090Y-111493234D01*
X123357539Y-111515761D01*
X123380066Y-111543210D01*
X123396807Y-111574531D01*
X123407115Y-111608509D01*
X123411200Y-111649990D01*
X123411200Y-112251210D01*
X123407115Y-112292691D01*
X123396807Y-112326669D01*
X123380066Y-112357990D01*
X123357539Y-112385439D01*
X123330090Y-112407966D01*
X123298769Y-112424707D01*
X123264791Y-112435015D01*
X123223310Y-112439100D01*
X122547090Y-112439100D01*
X122505609Y-112435015D01*
X122471631Y-112424707D01*
X122440310Y-112407966D01*
X122412861Y-112385439D01*
X122390334Y-112357990D01*
X122373593Y-112326669D01*
X122363285Y-112292691D01*
X122359200Y-112251210D01*
X122359200Y-111649990D01*
X122363285Y-111608509D01*
X122373593Y-111574531D01*
X122390334Y-111543210D01*
X122412861Y-111515761D01*
X122440310Y-111493234D01*
X122471631Y-111476493D01*
X122505609Y-111466185D01*
X122547090Y-111462100D01*
X123223310Y-111462100D01*
X123264791Y-111466185D01*
G37*
G36*
X126224491Y-111377785D02*
G01*
X126258469Y-111388093D01*
X126289790Y-111404834D01*
X126317239Y-111427361D01*
X126339766Y-111454810D01*
X126356507Y-111486131D01*
X126366815Y-111520109D01*
X126370900Y-111561590D01*
X126370900Y-112237810D01*
X126366815Y-112279291D01*
X126356507Y-112313269D01*
X126339766Y-112344590D01*
X126317239Y-112372039D01*
X126289790Y-112394566D01*
X126258469Y-112411307D01*
X126224491Y-112421615D01*
X126183010Y-112425700D01*
X125581790Y-112425700D01*
X125540309Y-112421615D01*
X125506331Y-112411307D01*
X125475010Y-112394566D01*
X125447561Y-112372039D01*
X125425034Y-112344590D01*
X125408293Y-112313269D01*
X125397985Y-112279291D01*
X125393900Y-112237810D01*
X125393900Y-111561590D01*
X125397985Y-111520109D01*
X125408293Y-111486131D01*
X125425034Y-111454810D01*
X125447561Y-111427361D01*
X125475010Y-111404834D01*
X125506331Y-111388093D01*
X125540309Y-111377785D01*
X125581790Y-111373700D01*
X126183010Y-111373700D01*
X126224491Y-111377785D01*
G37*
G36*
X124649491Y-111377785D02*
G01*
X124683469Y-111388093D01*
X124714790Y-111404834D01*
X124742239Y-111427361D01*
X124764766Y-111454810D01*
X124781507Y-111486131D01*
X124791815Y-111520109D01*
X124795900Y-111561590D01*
X124795900Y-112237810D01*
X124791815Y-112279291D01*
X124781507Y-112313269D01*
X124764766Y-112344590D01*
X124742239Y-112372039D01*
X124714790Y-112394566D01*
X124683469Y-112411307D01*
X124649491Y-112421615D01*
X124608010Y-112425700D01*
X124006790Y-112425700D01*
X123965309Y-112421615D01*
X123931331Y-112411307D01*
X123900010Y-112394566D01*
X123872561Y-112372039D01*
X123850034Y-112344590D01*
X123833293Y-112313269D01*
X123822985Y-112279291D01*
X123818900Y-112237810D01*
X123818900Y-111561590D01*
X123822985Y-111520109D01*
X123833293Y-111486131D01*
X123850034Y-111454810D01*
X123872561Y-111427361D01*
X123900010Y-111404834D01*
X123931331Y-111388093D01*
X123965309Y-111377785D01*
X124006790Y-111373700D01*
X124608010Y-111373700D01*
X124649491Y-111377785D01*
G37*
G36*
X130945020Y-112303280D02*
G01*
X129943020Y-112303280D01*
X129943020Y-111201280D01*
X130945020Y-111201280D01*
X130945020Y-112303280D01*
G37*
G36*
X152535020Y-112303280D02*
G01*
X151533020Y-112303280D01*
X151533020Y-111201280D01*
X152535020Y-111201280D01*
X152535020Y-112303280D01*
G37*
G36*
X156635020Y-112303280D02*
G01*
X155633020Y-112303280D01*
X155633020Y-111201280D01*
X156635020Y-111201280D01*
X156635020Y-112303280D01*
G37*
G36*
X145840020Y-112303280D02*
G01*
X144838020Y-112303280D01*
X144838020Y-111201280D01*
X145840020Y-111201280D01*
X145840020Y-112303280D01*
G37*
G36*
X135045020Y-112303280D02*
G01*
X134043020Y-112303280D01*
X134043020Y-111201280D01*
X135045020Y-111201280D01*
X135045020Y-112303280D01*
G37*
G36*
X141740020Y-112303280D02*
G01*
X140738020Y-112303280D01*
X140738020Y-111201280D01*
X141740020Y-111201280D01*
X141740020Y-112303280D01*
G37*
G36*
X126249891Y-109879185D02*
G01*
X126283869Y-109889493D01*
X126315190Y-109906234D01*
X126342639Y-109928761D01*
X126365166Y-109956210D01*
X126381907Y-109987531D01*
X126392215Y-110021509D01*
X126396300Y-110062990D01*
X126396300Y-110739210D01*
X126392215Y-110780691D01*
X126381907Y-110814669D01*
X126365166Y-110845990D01*
X126342639Y-110873439D01*
X126315190Y-110895966D01*
X126283869Y-110912707D01*
X126249891Y-110923015D01*
X126208410Y-110927100D01*
X125607190Y-110927100D01*
X125565709Y-110923015D01*
X125531731Y-110912707D01*
X125500410Y-110895966D01*
X125472961Y-110873439D01*
X125450434Y-110845990D01*
X125433693Y-110814669D01*
X125423385Y-110780691D01*
X125419300Y-110739210D01*
X125419300Y-110062990D01*
X125423385Y-110021509D01*
X125433693Y-109987531D01*
X125450434Y-109956210D01*
X125472961Y-109928761D01*
X125500410Y-109906234D01*
X125531731Y-109889493D01*
X125565709Y-109879185D01*
X125607190Y-109875100D01*
X126208410Y-109875100D01*
X126249891Y-109879185D01*
G37*
G36*
X124674891Y-109879185D02*
G01*
X124708869Y-109889493D01*
X124740190Y-109906234D01*
X124767639Y-109928761D01*
X124790166Y-109956210D01*
X124806907Y-109987531D01*
X124817215Y-110021509D01*
X124821300Y-110062990D01*
X124821300Y-110739210D01*
X124817215Y-110780691D01*
X124806907Y-110814669D01*
X124790166Y-110845990D01*
X124767639Y-110873439D01*
X124740190Y-110895966D01*
X124708869Y-110912707D01*
X124674891Y-110923015D01*
X124633410Y-110927100D01*
X124032190Y-110927100D01*
X123990709Y-110923015D01*
X123956731Y-110912707D01*
X123925410Y-110895966D01*
X123897961Y-110873439D01*
X123875434Y-110845990D01*
X123858693Y-110814669D01*
X123848385Y-110780691D01*
X123844300Y-110739210D01*
X123844300Y-110062990D01*
X123848385Y-110021509D01*
X123858693Y-109987531D01*
X123875434Y-109956210D01*
X123897961Y-109928761D01*
X123925410Y-109906234D01*
X123956731Y-109889493D01*
X123990709Y-109879185D01*
X124032190Y-109875100D01*
X124633410Y-109875100D01*
X124674891Y-109879185D01*
G37*
G36*
X123264791Y-109891185D02*
G01*
X123298769Y-109901493D01*
X123330090Y-109918234D01*
X123357539Y-109940761D01*
X123380066Y-109968210D01*
X123396807Y-109999531D01*
X123407115Y-110033509D01*
X123411200Y-110074990D01*
X123411200Y-110676210D01*
X123407115Y-110717691D01*
X123396807Y-110751669D01*
X123380066Y-110782990D01*
X123357539Y-110810439D01*
X123330090Y-110832966D01*
X123298769Y-110849707D01*
X123264791Y-110860015D01*
X123223310Y-110864100D01*
X122547090Y-110864100D01*
X122505609Y-110860015D01*
X122471631Y-110849707D01*
X122440310Y-110832966D01*
X122412861Y-110810439D01*
X122390334Y-110782990D01*
X122373593Y-110751669D01*
X122363285Y-110717691D01*
X122359200Y-110676210D01*
X122359200Y-110074990D01*
X122363285Y-110033509D01*
X122373593Y-109999531D01*
X122390334Y-109968210D01*
X122412861Y-109940761D01*
X122440310Y-109918234D01*
X122471631Y-109901493D01*
X122505609Y-109891185D01*
X122547090Y-109887100D01*
X123223310Y-109887100D01*
X123264791Y-109891185D01*
G37*
G36*
X156635020Y-110703280D02*
G01*
X155633020Y-110703280D01*
X155633020Y-109601280D01*
X156635020Y-109601280D01*
X156635020Y-110703280D01*
G37*
G36*
X130945020Y-110703280D02*
G01*
X129943020Y-110703280D01*
X129943020Y-109601280D01*
X130945020Y-109601280D01*
X130945020Y-110703280D01*
G37*
G36*
X135045020Y-110703280D02*
G01*
X134043020Y-110703280D01*
X134043020Y-109601280D01*
X135045020Y-109601280D01*
X135045020Y-110703280D01*
G37*
G36*
X141740020Y-110703280D02*
G01*
X140738020Y-110703280D01*
X140738020Y-109601280D01*
X141740020Y-109601280D01*
X141740020Y-110703280D01*
G37*
G36*
X145840020Y-110703280D02*
G01*
X144838020Y-110703280D01*
X144838020Y-109601280D01*
X145840020Y-109601280D01*
X145840020Y-110703280D01*
G37*
G36*
X152535020Y-110703280D02*
G01*
X151533020Y-110703280D01*
X151533020Y-109601280D01*
X152535020Y-109601280D01*
X152535020Y-110703280D01*
G37*
G36*
X156552091Y-107682085D02*
G01*
X156586069Y-107692393D01*
X156617390Y-107709134D01*
X156644839Y-107731661D01*
X156667366Y-107759110D01*
X156684107Y-107790431D01*
X156694415Y-107824409D01*
X156698500Y-107865890D01*
X156698500Y-108542110D01*
X156694415Y-108583591D01*
X156684107Y-108617569D01*
X156667366Y-108648890D01*
X156644839Y-108676339D01*
X156617390Y-108698866D01*
X156586069Y-108715607D01*
X156552091Y-108725915D01*
X156510610Y-108730000D01*
X155909390Y-108730000D01*
X155867909Y-108725915D01*
X155833931Y-108715607D01*
X155802610Y-108698866D01*
X155775161Y-108676339D01*
X155752634Y-108648890D01*
X155735893Y-108617569D01*
X155725585Y-108583591D01*
X155721500Y-108542110D01*
X155721500Y-107865890D01*
X155725585Y-107824409D01*
X155735893Y-107790431D01*
X155752634Y-107759110D01*
X155775161Y-107731661D01*
X155802610Y-107709134D01*
X155833931Y-107692393D01*
X155867909Y-107682085D01*
X155909390Y-107678000D01*
X156510610Y-107678000D01*
X156552091Y-107682085D01*
G37*
G36*
X158127091Y-107682085D02*
G01*
X158161069Y-107692393D01*
X158192390Y-107709134D01*
X158219839Y-107731661D01*
X158242366Y-107759110D01*
X158259107Y-107790431D01*
X158269415Y-107824409D01*
X158273500Y-107865890D01*
X158273500Y-108542110D01*
X158269415Y-108583591D01*
X158259107Y-108617569D01*
X158242366Y-108648890D01*
X158219839Y-108676339D01*
X158192390Y-108698866D01*
X158161069Y-108715607D01*
X158127091Y-108725915D01*
X158085610Y-108730000D01*
X157484390Y-108730000D01*
X157442909Y-108725915D01*
X157408931Y-108715607D01*
X157377610Y-108698866D01*
X157350161Y-108676339D01*
X157327634Y-108648890D01*
X157310893Y-108617569D01*
X157300585Y-108583591D01*
X157296500Y-108542110D01*
X157296500Y-107865890D01*
X157300585Y-107824409D01*
X157310893Y-107790431D01*
X157327634Y-107759110D01*
X157350161Y-107731661D01*
X157377610Y-107709134D01*
X157408931Y-107692393D01*
X157442909Y-107682085D01*
X157484390Y-107678000D01*
X158085610Y-107678000D01*
X158127091Y-107682085D01*
G37*
G36*
X156635020Y-105445280D02*
G01*
X155633020Y-105445280D01*
X155633020Y-104343280D01*
X156635020Y-104343280D01*
X156635020Y-105445280D01*
G37*
G36*
X145840020Y-105445280D02*
G01*
X144838020Y-105445280D01*
X144838020Y-104343280D01*
X145840020Y-104343280D01*
X145840020Y-105445280D01*
G37*
G36*
X141740020Y-105445280D02*
G01*
X140738020Y-105445280D01*
X140738020Y-104343280D01*
X141740020Y-104343280D01*
X141740020Y-105445280D01*
G37*
G36*
X152535020Y-105445280D02*
G01*
X151533020Y-105445280D01*
X151533020Y-104343280D01*
X152535020Y-104343280D01*
X152535020Y-105445280D01*
G37*
G36*
X135045020Y-105445280D02*
G01*
X134043020Y-105445280D01*
X134043020Y-104343280D01*
X135045020Y-104343280D01*
X135045020Y-105445280D01*
G37*
G36*
X130945020Y-105445280D02*
G01*
X129943020Y-105445280D01*
X129943020Y-104343280D01*
X130945020Y-104343280D01*
X130945020Y-105445280D01*
G37*
G36*
X145840020Y-103845280D02*
G01*
X144838020Y-103845280D01*
X144838020Y-102743280D01*
X145840020Y-102743280D01*
X145840020Y-103845280D01*
G37*
G36*
X152535020Y-103845280D02*
G01*
X151533020Y-103845280D01*
X151533020Y-102743280D01*
X152535020Y-102743280D01*
X152535020Y-103845280D01*
G37*
G36*
X135045020Y-103845280D02*
G01*
X134043020Y-103845280D01*
X134043020Y-102743280D01*
X135045020Y-102743280D01*
X135045020Y-103845280D01*
G37*
G36*
X156635020Y-103845280D02*
G01*
X155633020Y-103845280D01*
X155633020Y-102743280D01*
X156635020Y-102743280D01*
X156635020Y-103845280D01*
G37*
G36*
X141740020Y-103845280D02*
G01*
X140738020Y-103845280D01*
X140738020Y-102743280D01*
X141740020Y-102743280D01*
X141740020Y-103845280D01*
G37*
G36*
X130945020Y-103845280D02*
G01*
X129943020Y-103845280D01*
X129943020Y-102743280D01*
X130945020Y-102743280D01*
X130945020Y-103845280D01*
G37*
G36*
X156552091Y-100824085D02*
G01*
X156586069Y-100834393D01*
X156617390Y-100851134D01*
X156644839Y-100873661D01*
X156667366Y-100901110D01*
X156684107Y-100932431D01*
X156694415Y-100966409D01*
X156698500Y-101007890D01*
X156698500Y-101684110D01*
X156694415Y-101725591D01*
X156684107Y-101759569D01*
X156667366Y-101790890D01*
X156644839Y-101818339D01*
X156617390Y-101840866D01*
X156586069Y-101857607D01*
X156552091Y-101867915D01*
X156510610Y-101872000D01*
X155909390Y-101872000D01*
X155867909Y-101867915D01*
X155833931Y-101857607D01*
X155802610Y-101840866D01*
X155775161Y-101818339D01*
X155752634Y-101790890D01*
X155735893Y-101759569D01*
X155725585Y-101725591D01*
X155721500Y-101684110D01*
X155721500Y-101007890D01*
X155725585Y-100966409D01*
X155735893Y-100932431D01*
X155752634Y-100901110D01*
X155775161Y-100873661D01*
X155802610Y-100851134D01*
X155833931Y-100834393D01*
X155867909Y-100824085D01*
X155909390Y-100820000D01*
X156510610Y-100820000D01*
X156552091Y-100824085D01*
G37*
G36*
X158127091Y-100824085D02*
G01*
X158161069Y-100834393D01*
X158192390Y-100851134D01*
X158219839Y-100873661D01*
X158242366Y-100901110D01*
X158259107Y-100932431D01*
X158269415Y-100966409D01*
X158273500Y-101007890D01*
X158273500Y-101684110D01*
X158269415Y-101725591D01*
X158259107Y-101759569D01*
X158242366Y-101790890D01*
X158219839Y-101818339D01*
X158192390Y-101840866D01*
X158161069Y-101857607D01*
X158127091Y-101867915D01*
X158085610Y-101872000D01*
X157484390Y-101872000D01*
X157442909Y-101867915D01*
X157408931Y-101857607D01*
X157377610Y-101840866D01*
X157350161Y-101818339D01*
X157327634Y-101790890D01*
X157310893Y-101759569D01*
X157300585Y-101725591D01*
X157296500Y-101684110D01*
X157296500Y-101007890D01*
X157300585Y-100966409D01*
X157310893Y-100932431D01*
X157327634Y-100901110D01*
X157350161Y-100873661D01*
X157377610Y-100851134D01*
X157408931Y-100834393D01*
X157442909Y-100824085D01*
X157484390Y-100820000D01*
X158085610Y-100820000D01*
X158127091Y-100824085D01*
G37*
G36*
X141740020Y-97952280D02*
G01*
X140738020Y-97952280D01*
X140738020Y-96850280D01*
X141740020Y-96850280D01*
X141740020Y-97952280D01*
G37*
G36*
X130945020Y-97952280D02*
G01*
X129943020Y-97952280D01*
X129943020Y-96850280D01*
X130945020Y-96850280D01*
X130945020Y-97952280D01*
G37*
G36*
X135045020Y-97952280D02*
G01*
X134043020Y-97952280D01*
X134043020Y-96850280D01*
X135045020Y-96850280D01*
X135045020Y-97952280D01*
G37*
G36*
X156635020Y-97952280D02*
G01*
X155633020Y-97952280D01*
X155633020Y-96850280D01*
X156635020Y-96850280D01*
X156635020Y-97952280D01*
G37*
G36*
X152535020Y-97952280D02*
G01*
X151533020Y-97952280D01*
X151533020Y-96850280D01*
X152535020Y-96850280D01*
X152535020Y-97952280D01*
G37*
G36*
X145840020Y-97952280D02*
G01*
X144838020Y-97952280D01*
X144838020Y-96850280D01*
X145840020Y-96850280D01*
X145840020Y-97952280D01*
G37*
G36*
X145840020Y-96352280D02*
G01*
X144838020Y-96352280D01*
X144838020Y-95250280D01*
X145840020Y-95250280D01*
X145840020Y-96352280D01*
G37*
G36*
X156635020Y-96352280D02*
G01*
X155633020Y-96352280D01*
X155633020Y-95250280D01*
X156635020Y-95250280D01*
X156635020Y-96352280D01*
G37*
G36*
X152535020Y-96352280D02*
G01*
X151533020Y-96352280D01*
X151533020Y-95250280D01*
X152535020Y-95250280D01*
X152535020Y-96352280D01*
G37*
G36*
X141740020Y-96352280D02*
G01*
X140738020Y-96352280D01*
X140738020Y-95250280D01*
X141740020Y-95250280D01*
X141740020Y-96352280D01*
G37*
G36*
X135045020Y-96352280D02*
G01*
X134043020Y-96352280D01*
X134043020Y-95250280D01*
X135045020Y-95250280D01*
X135045020Y-96352280D01*
G37*
G36*
X130945020Y-96352280D02*
G01*
X129943020Y-96352280D01*
X129943020Y-95250280D01*
X130945020Y-95250280D01*
X130945020Y-96352280D01*
G37*
G36*
X158101591Y-93458085D02*
G01*
X158135569Y-93468393D01*
X158166890Y-93485134D01*
X158194339Y-93507661D01*
X158216866Y-93535110D01*
X158233607Y-93566431D01*
X158243915Y-93600409D01*
X158248000Y-93641890D01*
X158248000Y-94318110D01*
X158243915Y-94359591D01*
X158233607Y-94393569D01*
X158216866Y-94424890D01*
X158194339Y-94452339D01*
X158166890Y-94474866D01*
X158135569Y-94491607D01*
X158101591Y-94501915D01*
X158060110Y-94506000D01*
X157458890Y-94506000D01*
X157417409Y-94501915D01*
X157383431Y-94491607D01*
X157352110Y-94474866D01*
X157324661Y-94452339D01*
X157302134Y-94424890D01*
X157285393Y-94393569D01*
X157275085Y-94359591D01*
X157271000Y-94318110D01*
X157271000Y-93641890D01*
X157275085Y-93600409D01*
X157285393Y-93566431D01*
X157302134Y-93535110D01*
X157324661Y-93507661D01*
X157352110Y-93485134D01*
X157383431Y-93468393D01*
X157417409Y-93458085D01*
X157458890Y-93454000D01*
X158060110Y-93454000D01*
X158101591Y-93458085D01*
G37*
G36*
X156526591Y-93458085D02*
G01*
X156560569Y-93468393D01*
X156591890Y-93485134D01*
X156619339Y-93507661D01*
X156641866Y-93535110D01*
X156658607Y-93566431D01*
X156668915Y-93600409D01*
X156673000Y-93641890D01*
X156673000Y-94318110D01*
X156668915Y-94359591D01*
X156658607Y-94393569D01*
X156641866Y-94424890D01*
X156619339Y-94452339D01*
X156591890Y-94474866D01*
X156560569Y-94491607D01*
X156526591Y-94501915D01*
X156485110Y-94506000D01*
X155883890Y-94506000D01*
X155842409Y-94501915D01*
X155808431Y-94491607D01*
X155777110Y-94474866D01*
X155749661Y-94452339D01*
X155727134Y-94424890D01*
X155710393Y-94393569D01*
X155700085Y-94359591D01*
X155696000Y-94318110D01*
X155696000Y-93641890D01*
X155700085Y-93600409D01*
X155710393Y-93566431D01*
X155727134Y-93535110D01*
X155749661Y-93507661D01*
X155777110Y-93485134D01*
X155808431Y-93468393D01*
X155842409Y-93458085D01*
X155883890Y-93454000D01*
X156485110Y-93454000D01*
X156526591Y-93458085D01*
G37*
G36*
X156635020Y-91094280D02*
G01*
X155633020Y-91094280D01*
X155633020Y-89992280D01*
X156635020Y-89992280D01*
X156635020Y-91094280D01*
G37*
G36*
X145840020Y-91094280D02*
G01*
X144838020Y-91094280D01*
X144838020Y-89992280D01*
X145840020Y-89992280D01*
X145840020Y-91094280D01*
G37*
G36*
X152535020Y-91094280D02*
G01*
X151533020Y-91094280D01*
X151533020Y-89992280D01*
X152535020Y-89992280D01*
X152535020Y-91094280D01*
G37*
G36*
X135045020Y-91094280D02*
G01*
X134043020Y-91094280D01*
X134043020Y-89992280D01*
X135045020Y-89992280D01*
X135045020Y-91094280D01*
G37*
G36*
X130945020Y-91094280D02*
G01*
X129943020Y-91094280D01*
X129943020Y-89992280D01*
X130945020Y-89992280D01*
X130945020Y-91094280D01*
G37*
G36*
X141740020Y-91094280D02*
G01*
X140738020Y-91094280D01*
X140738020Y-89992280D01*
X141740020Y-89992280D01*
X141740020Y-91094280D01*
G37*
G36*
X152535020Y-89494280D02*
G01*
X151533020Y-89494280D01*
X151533020Y-88392280D01*
X152535020Y-88392280D01*
X152535020Y-89494280D01*
G37*
G36*
X156635020Y-89494280D02*
G01*
X155633020Y-89494280D01*
X155633020Y-88392280D01*
X156635020Y-88392280D01*
X156635020Y-89494280D01*
G37*
G36*
X130945020Y-89494280D02*
G01*
X129943020Y-89494280D01*
X129943020Y-88392280D01*
X130945020Y-88392280D01*
X130945020Y-89494280D01*
G37*
G36*
X135045020Y-89494280D02*
G01*
X134043020Y-89494280D01*
X134043020Y-88392280D01*
X135045020Y-88392280D01*
X135045020Y-89494280D01*
G37*
G36*
X141740020Y-89494280D02*
G01*
X140738020Y-89494280D01*
X140738020Y-88392280D01*
X141740020Y-88392280D01*
X141740020Y-89494280D01*
G37*
G36*
X145840020Y-89494280D02*
G01*
X144838020Y-89494280D01*
X144838020Y-88392280D01*
X145840020Y-88392280D01*
X145840020Y-89494280D01*
G37*
G36*
X158127091Y-86600085D02*
G01*
X158161069Y-86610393D01*
X158192390Y-86627134D01*
X158219839Y-86649661D01*
X158242366Y-86677110D01*
X158259107Y-86708431D01*
X158269415Y-86742409D01*
X158273500Y-86783890D01*
X158273500Y-87460110D01*
X158269415Y-87501591D01*
X158259107Y-87535569D01*
X158242366Y-87566890D01*
X158219839Y-87594339D01*
X158192390Y-87616866D01*
X158161069Y-87633607D01*
X158127091Y-87643915D01*
X158085610Y-87648000D01*
X157484390Y-87648000D01*
X157442909Y-87643915D01*
X157408931Y-87633607D01*
X157377610Y-87616866D01*
X157350161Y-87594339D01*
X157327634Y-87566890D01*
X157310893Y-87535569D01*
X157300585Y-87501591D01*
X157296500Y-87460110D01*
X157296500Y-86783890D01*
X157300585Y-86742409D01*
X157310893Y-86708431D01*
X157327634Y-86677110D01*
X157350161Y-86649661D01*
X157377610Y-86627134D01*
X157408931Y-86610393D01*
X157442909Y-86600085D01*
X157484390Y-86596000D01*
X158085610Y-86596000D01*
X158127091Y-86600085D01*
G37*
G36*
X156552091Y-86600085D02*
G01*
X156586069Y-86610393D01*
X156617390Y-86627134D01*
X156644839Y-86649661D01*
X156667366Y-86677110D01*
X156684107Y-86708431D01*
X156694415Y-86742409D01*
X156698500Y-86783890D01*
X156698500Y-87460110D01*
X156694415Y-87501591D01*
X156684107Y-87535569D01*
X156667366Y-87566890D01*
X156644839Y-87594339D01*
X156617390Y-87616866D01*
X156586069Y-87633607D01*
X156552091Y-87643915D01*
X156510610Y-87648000D01*
X155909390Y-87648000D01*
X155867909Y-87643915D01*
X155833931Y-87633607D01*
X155802610Y-87616866D01*
X155775161Y-87594339D01*
X155752634Y-87566890D01*
X155735893Y-87535569D01*
X155725585Y-87501591D01*
X155721500Y-87460110D01*
X155721500Y-86783890D01*
X155725585Y-86742409D01*
X155735893Y-86708431D01*
X155752634Y-86677110D01*
X155775161Y-86649661D01*
X155802610Y-86627134D01*
X155833931Y-86610393D01*
X155867909Y-86600085D01*
X155909390Y-86596000D01*
X156510610Y-86596000D01*
X156552091Y-86600085D01*
G37*
G36*
X132393121Y-68100974D02*
G01*
X132493395Y-68142509D01*
X132493396Y-68142510D01*
X132583642Y-68202810D01*
X132660390Y-68279558D01*
X132660391Y-68279560D01*
X132720691Y-68369805D01*
X132762226Y-68470079D01*
X132783400Y-68576530D01*
X132783400Y-68685070D01*
X132762226Y-68791521D01*
X132720691Y-68891795D01*
X132720690Y-68891796D01*
X132660390Y-68982042D01*
X132583642Y-69058790D01*
X132538212Y-69089145D01*
X132493395Y-69119091D01*
X132418011Y-69150316D01*
X132396400Y-69161867D01*
X132377459Y-69177412D01*
X132361913Y-69196354D01*
X132350362Y-69217965D01*
X132343249Y-69241414D01*
X132340847Y-69265800D01*
X132343249Y-69290186D01*
X132350362Y-69313635D01*
X132361913Y-69335246D01*
X132377458Y-69354187D01*
X132396400Y-69369733D01*
X132418011Y-69381284D01*
X132493395Y-69412509D01*
X132493396Y-69412510D01*
X132583642Y-69472810D01*
X132660390Y-69549558D01*
X132660391Y-69549560D01*
X132720691Y-69639805D01*
X132762226Y-69740079D01*
X132783400Y-69846530D01*
X132783400Y-69955070D01*
X132762226Y-70061521D01*
X132720691Y-70161795D01*
X132720690Y-70161796D01*
X132660390Y-70252042D01*
X132583642Y-70328790D01*
X132538212Y-70359145D01*
X132493395Y-70389091D01*
X132418011Y-70420316D01*
X132396400Y-70431867D01*
X132377459Y-70447412D01*
X132361913Y-70466354D01*
X132350362Y-70487965D01*
X132343249Y-70511414D01*
X132340847Y-70535800D01*
X132343249Y-70560186D01*
X132350362Y-70583635D01*
X132361913Y-70605246D01*
X132377458Y-70624187D01*
X132396400Y-70639733D01*
X132418011Y-70651284D01*
X132493395Y-70682509D01*
X132493396Y-70682510D01*
X132583642Y-70742810D01*
X132660390Y-70819558D01*
X132660391Y-70819560D01*
X132720691Y-70909805D01*
X132762226Y-71010079D01*
X132783400Y-71116530D01*
X132783400Y-71225070D01*
X132762226Y-71331521D01*
X132720691Y-71431795D01*
X132720690Y-71431796D01*
X132660390Y-71522042D01*
X132583642Y-71598790D01*
X132552216Y-71619788D01*
X132490736Y-71660868D01*
X132471794Y-71676414D01*
X132456249Y-71695356D01*
X132444698Y-71716967D01*
X132437585Y-71740415D01*
X132435183Y-71764802D01*
X132437585Y-71789188D01*
X132444698Y-71812637D01*
X132456249Y-71834247D01*
X132471795Y-71853189D01*
X132490737Y-71868734D01*
X132512348Y-71880285D01*
X132535796Y-71887398D01*
X132560182Y-71889800D01*
X132783400Y-71889800D01*
X132783400Y-72991800D01*
X131681400Y-72991800D01*
X131681400Y-71889800D01*
X131904618Y-71889800D01*
X131929004Y-71887398D01*
X131952453Y-71880285D01*
X131974064Y-71868734D01*
X131993006Y-71853189D01*
X132008551Y-71834247D01*
X132020102Y-71812636D01*
X132027215Y-71789187D01*
X132029617Y-71764801D01*
X132027215Y-71740415D01*
X132020102Y-71716966D01*
X132008551Y-71695355D01*
X131993006Y-71676413D01*
X131974064Y-71660868D01*
X131912584Y-71619788D01*
X131881158Y-71598790D01*
X131804410Y-71522042D01*
X131744110Y-71431796D01*
X131744109Y-71431795D01*
X131702574Y-71331521D01*
X131681400Y-71225070D01*
X131681400Y-71116530D01*
X131702574Y-71010079D01*
X131744109Y-70909805D01*
X131804409Y-70819560D01*
X131804410Y-70819558D01*
X131881158Y-70742810D01*
X131971404Y-70682510D01*
X131971405Y-70682509D01*
X132046789Y-70651284D01*
X132068400Y-70639733D01*
X132087341Y-70624188D01*
X132102887Y-70605246D01*
X132114438Y-70583635D01*
X132121551Y-70560186D01*
X132123953Y-70535800D01*
X132121551Y-70511414D01*
X132114438Y-70487965D01*
X132102887Y-70466354D01*
X132087342Y-70447413D01*
X132068400Y-70431867D01*
X132046789Y-70420316D01*
X131971405Y-70389091D01*
X131926588Y-70359145D01*
X131881158Y-70328790D01*
X131804410Y-70252042D01*
X131744110Y-70161796D01*
X131744109Y-70161795D01*
X131702574Y-70061521D01*
X131681400Y-69955070D01*
X131681400Y-69846530D01*
X131702574Y-69740079D01*
X131744109Y-69639805D01*
X131804409Y-69549560D01*
X131804410Y-69549558D01*
X131881158Y-69472810D01*
X131971404Y-69412510D01*
X131971405Y-69412509D01*
X132046789Y-69381284D01*
X132068400Y-69369733D01*
X132087341Y-69354188D01*
X132102887Y-69335246D01*
X132114438Y-69313635D01*
X132121551Y-69290186D01*
X132123953Y-69265800D01*
X132121551Y-69241414D01*
X132114438Y-69217965D01*
X132102887Y-69196354D01*
X132087342Y-69177413D01*
X132068400Y-69161867D01*
X132046789Y-69150316D01*
X131971405Y-69119091D01*
X131926588Y-69089145D01*
X131881158Y-69058790D01*
X131804410Y-68982042D01*
X131744110Y-68891796D01*
X131744109Y-68891795D01*
X131702574Y-68791521D01*
X131681400Y-68685070D01*
X131681400Y-68576530D01*
X131702574Y-68470079D01*
X131744109Y-68369805D01*
X131804409Y-68279560D01*
X131804410Y-68279558D01*
X131881158Y-68202810D01*
X131971404Y-68142510D01*
X131971405Y-68142509D01*
X132071679Y-68100974D01*
X132178130Y-68079800D01*
X132286670Y-68079800D01*
X132393121Y-68100974D01*
G37*
G36*
X122855749Y-57443516D02*
G01*
X122966934Y-57465632D01*
X123176403Y-57552397D01*
X123364920Y-57678360D01*
X123525240Y-57838680D01*
X123651203Y-58027197D01*
X123737968Y-58236666D01*
X123782200Y-58459036D01*
X123782200Y-58685764D01*
X123737968Y-58908134D01*
X123651203Y-59117603D01*
X123525240Y-59306120D01*
X123364920Y-59466440D01*
X123176403Y-59592403D01*
X122966934Y-59679168D01*
X122855749Y-59701284D01*
X122744565Y-59723400D01*
X122517835Y-59723400D01*
X122406651Y-59701284D01*
X122295466Y-59679168D01*
X122085997Y-59592403D01*
X121897480Y-59466440D01*
X121737160Y-59306120D01*
X121611197Y-59117603D01*
X121524432Y-58908134D01*
X121480200Y-58685764D01*
X121480200Y-58459036D01*
X121524432Y-58236666D01*
X121611197Y-58027197D01*
X121737160Y-57838680D01*
X121897480Y-57678360D01*
X122085997Y-57552397D01*
X122295466Y-57465632D01*
X122406651Y-57443516D01*
X122517835Y-57421400D01*
X122744565Y-57421400D01*
X122855749Y-57443516D01*
G37*
G36*
X120244712Y-56426327D02*
G01*
X120394012Y-56456024D01*
X120557984Y-56523944D01*
X120705554Y-56622547D01*
X120831053Y-56748046D01*
X120929656Y-56895616D01*
X120997576Y-57059588D01*
X121027273Y-57208888D01*
X121032200Y-57233658D01*
X121032200Y-57411142D01*
X121027273Y-57435912D01*
X120997576Y-57585212D01*
X120929656Y-57749184D01*
X120831053Y-57896754D01*
X120705554Y-58022253D01*
X120557984Y-58120856D01*
X120394012Y-58188776D01*
X120244712Y-58218473D01*
X120219942Y-58223400D01*
X120042458Y-58223400D01*
X120017688Y-58218473D01*
X119868388Y-58188776D01*
X119704416Y-58120856D01*
X119556846Y-58022253D01*
X119431347Y-57896754D01*
X119332744Y-57749184D01*
X119264824Y-57585212D01*
X119235127Y-57435912D01*
X119230200Y-57411142D01*
X119230200Y-57233658D01*
X119235127Y-57208888D01*
X119264824Y-57059588D01*
X119332744Y-56895616D01*
X119431347Y-56748046D01*
X119556846Y-56622547D01*
X119704416Y-56523944D01*
X119868388Y-56456024D01*
X120017688Y-56426327D01*
X120042458Y-56421400D01*
X120219942Y-56421400D01*
X120244712Y-56426327D01*
G37*
G36*
X120244712Y-51926327D02*
G01*
X120394012Y-51956024D01*
X120557984Y-52023944D01*
X120705554Y-52122547D01*
X120831053Y-52248046D01*
X120929656Y-52395616D01*
X120997576Y-52559588D01*
X121021361Y-52679168D01*
X121030160Y-52723400D01*
X121032200Y-52733659D01*
X121032200Y-52911141D01*
X120997576Y-53085212D01*
X120929656Y-53249184D01*
X120831053Y-53396754D01*
X120705554Y-53522253D01*
X120557984Y-53620856D01*
X120394012Y-53688776D01*
X120244712Y-53718473D01*
X120219942Y-53723400D01*
X120042458Y-53723400D01*
X120017688Y-53718473D01*
X119868388Y-53688776D01*
X119704416Y-53620856D01*
X119556846Y-53522253D01*
X119431347Y-53396754D01*
X119332744Y-53249184D01*
X119264824Y-53085212D01*
X119230200Y-52911141D01*
X119230200Y-52733659D01*
X119232241Y-52723400D01*
X119241039Y-52679168D01*
X119264824Y-52559588D01*
X119332744Y-52395616D01*
X119431347Y-52248046D01*
X119556846Y-52122547D01*
X119704416Y-52023944D01*
X119868388Y-51956024D01*
X120017688Y-51926327D01*
X120042458Y-51921400D01*
X120219942Y-51921400D01*
X120244712Y-51926327D01*
G37*
G36*
X122855749Y-50443516D02*
G01*
X122966934Y-50465632D01*
X123176403Y-50552397D01*
X123364920Y-50678360D01*
X123525240Y-50838680D01*
X123651203Y-51027197D01*
X123737968Y-51236666D01*
X123782200Y-51459036D01*
X123782200Y-51685764D01*
X123737968Y-51908134D01*
X123651203Y-52117603D01*
X123525240Y-52306120D01*
X123364920Y-52466440D01*
X123176403Y-52592403D01*
X122966934Y-52679168D01*
X122855749Y-52701284D01*
X122744565Y-52723400D01*
X122517835Y-52723400D01*
X122406651Y-52701284D01*
X122295466Y-52679168D01*
X122085997Y-52592403D01*
X121897480Y-52466440D01*
X121737160Y-52306120D01*
X121611197Y-52117603D01*
X121524432Y-51908134D01*
X121480200Y-51685764D01*
X121480200Y-51459036D01*
X121524432Y-51236666D01*
X121611197Y-51027197D01*
X121737160Y-50838680D01*
X121897480Y-50678360D01*
X122085997Y-50552397D01*
X122295466Y-50465632D01*
X122406651Y-50443516D01*
X122517835Y-50421400D01*
X122744565Y-50421400D01*
X122855749Y-50443516D01*
G37*
G36*
X122957349Y-47577916D02*
G01*
X123068534Y-47600032D01*
X123278003Y-47686797D01*
X123466520Y-47812760D01*
X123626840Y-47973080D01*
X123752803Y-48161597D01*
X123839568Y-48371066D01*
X123883800Y-48593436D01*
X123883800Y-48820164D01*
X123839568Y-49042534D01*
X123752803Y-49252003D01*
X123626840Y-49440520D01*
X123466520Y-49600840D01*
X123278003Y-49726803D01*
X123068534Y-49813568D01*
X122957349Y-49835684D01*
X122846165Y-49857800D01*
X122619435Y-49857800D01*
X122508251Y-49835684D01*
X122397066Y-49813568D01*
X122187597Y-49726803D01*
X121999080Y-49600840D01*
X121838760Y-49440520D01*
X121712797Y-49252003D01*
X121626032Y-49042534D01*
X121581800Y-48820164D01*
X121581800Y-48593436D01*
X121626032Y-48371066D01*
X121712797Y-48161597D01*
X121838760Y-47973080D01*
X121999080Y-47812760D01*
X122187597Y-47686797D01*
X122397066Y-47600032D01*
X122508251Y-47577916D01*
X122619435Y-47555800D01*
X122846165Y-47555800D01*
X122957349Y-47577916D01*
G37*
G36*
X120346312Y-46560727D02*
G01*
X120495612Y-46590424D01*
X120659584Y-46658344D01*
X120807154Y-46756947D01*
X120932653Y-46882446D01*
X121031256Y-47030016D01*
X121099176Y-47193988D01*
X121128873Y-47343288D01*
X121133800Y-47368058D01*
X121133800Y-47545542D01*
X121128873Y-47570312D01*
X121099176Y-47719612D01*
X121031256Y-47883584D01*
X120932653Y-48031154D01*
X120807154Y-48156653D01*
X120659584Y-48255256D01*
X120495612Y-48323176D01*
X120346312Y-48352873D01*
X120321542Y-48357800D01*
X120144058Y-48357800D01*
X120119288Y-48352873D01*
X119969988Y-48323176D01*
X119806016Y-48255256D01*
X119658446Y-48156653D01*
X119532947Y-48031154D01*
X119434344Y-47883584D01*
X119366424Y-47719612D01*
X119336727Y-47570312D01*
X119331800Y-47545542D01*
X119331800Y-47368058D01*
X119336727Y-47343288D01*
X119366424Y-47193988D01*
X119434344Y-47030016D01*
X119532947Y-46882446D01*
X119658446Y-46756947D01*
X119806016Y-46658344D01*
X119969988Y-46590424D01*
X120119288Y-46560727D01*
X120144058Y-46555800D01*
X120321542Y-46555800D01*
X120346312Y-46560727D01*
G37*
G36*
X162140091Y-44182085D02*
G01*
X162174069Y-44192393D01*
X162205390Y-44209134D01*
X162232839Y-44231661D01*
X162255366Y-44259110D01*
X162272107Y-44290431D01*
X162282415Y-44324409D01*
X162286500Y-44365890D01*
X162286500Y-45042110D01*
X162282415Y-45083591D01*
X162272107Y-45117569D01*
X162255366Y-45148890D01*
X162232839Y-45176339D01*
X162205390Y-45198866D01*
X162174069Y-45215607D01*
X162140091Y-45225915D01*
X162098610Y-45230000D01*
X161497390Y-45230000D01*
X161455909Y-45225915D01*
X161421931Y-45215607D01*
X161390610Y-45198866D01*
X161363161Y-45176339D01*
X161340634Y-45148890D01*
X161323893Y-45117569D01*
X161313585Y-45083591D01*
X161309500Y-45042110D01*
X161309500Y-44365890D01*
X161313585Y-44324409D01*
X161323893Y-44290431D01*
X161340634Y-44259110D01*
X161363161Y-44231661D01*
X161390610Y-44209134D01*
X161421931Y-44192393D01*
X161455909Y-44182085D01*
X161497390Y-44178000D01*
X162098610Y-44178000D01*
X162140091Y-44182085D01*
G37*
G36*
X163715091Y-44182085D02*
G01*
X163749069Y-44192393D01*
X163780390Y-44209134D01*
X163807839Y-44231661D01*
X163830366Y-44259110D01*
X163847107Y-44290431D01*
X163857415Y-44324409D01*
X163861500Y-44365890D01*
X163861500Y-45042110D01*
X163857415Y-45083591D01*
X163847107Y-45117569D01*
X163830366Y-45148890D01*
X163807839Y-45176339D01*
X163780390Y-45198866D01*
X163749069Y-45215607D01*
X163715091Y-45225915D01*
X163673610Y-45230000D01*
X163072390Y-45230000D01*
X163030909Y-45225915D01*
X162996931Y-45215607D01*
X162965610Y-45198866D01*
X162938161Y-45176339D01*
X162915634Y-45148890D01*
X162898893Y-45117569D01*
X162888585Y-45083591D01*
X162884500Y-45042110D01*
X162884500Y-44365890D01*
X162888585Y-44324409D01*
X162898893Y-44290431D01*
X162915634Y-44259110D01*
X162938161Y-44231661D01*
X162965610Y-44209134D01*
X162996931Y-44192393D01*
X163030909Y-44182085D01*
X163072390Y-44178000D01*
X163673610Y-44178000D01*
X163715091Y-44182085D01*
G37*
G36*
X120346312Y-42060727D02*
G01*
X120495612Y-42090424D01*
X120659584Y-42158344D01*
X120807154Y-42256947D01*
X120932653Y-42382446D01*
X121031256Y-42530016D01*
X121099176Y-42693988D01*
X121122961Y-42813568D01*
X121131760Y-42857800D01*
X121133800Y-42868059D01*
X121133800Y-43045541D01*
X121099176Y-43219612D01*
X121031256Y-43383584D01*
X120932653Y-43531154D01*
X120807154Y-43656653D01*
X120659584Y-43755256D01*
X120495612Y-43823176D01*
X120346312Y-43852873D01*
X120321542Y-43857800D01*
X120144058Y-43857800D01*
X120119288Y-43852873D01*
X119969988Y-43823176D01*
X119806016Y-43755256D01*
X119658446Y-43656653D01*
X119532947Y-43531154D01*
X119434344Y-43383584D01*
X119366424Y-43219612D01*
X119331800Y-43045541D01*
X119331800Y-42868059D01*
X119333841Y-42857800D01*
X119342639Y-42813568D01*
X119366424Y-42693988D01*
X119434344Y-42530016D01*
X119532947Y-42382446D01*
X119658446Y-42256947D01*
X119806016Y-42158344D01*
X119969988Y-42090424D01*
X120119288Y-42060727D01*
X120144058Y-42055800D01*
X120321542Y-42055800D01*
X120346312Y-42060727D01*
G37*
G36*
X122957349Y-40577916D02*
G01*
X123068534Y-40600032D01*
X123278003Y-40686797D01*
X123466520Y-40812760D01*
X123626840Y-40973080D01*
X123752803Y-41161597D01*
X123752804Y-41161599D01*
X123839568Y-41371067D01*
X123883800Y-41593435D01*
X123883800Y-41820165D01*
X123878233Y-41848152D01*
X123839568Y-42042534D01*
X123752803Y-42252003D01*
X123626840Y-42440520D01*
X123466520Y-42600840D01*
X123278003Y-42726803D01*
X123278002Y-42726804D01*
X123278001Y-42726804D01*
X123220948Y-42750436D01*
X123068534Y-42813568D01*
X122957349Y-42835684D01*
X122846165Y-42857800D01*
X122619435Y-42857800D01*
X122508251Y-42835684D01*
X122397066Y-42813568D01*
X122244652Y-42750436D01*
X122187599Y-42726804D01*
X122187598Y-42726804D01*
X122187597Y-42726803D01*
X121999080Y-42600840D01*
X121838760Y-42440520D01*
X121712797Y-42252003D01*
X121626032Y-42042534D01*
X121587367Y-41848152D01*
X121581800Y-41820165D01*
X121581800Y-41593435D01*
X121626032Y-41371067D01*
X121712796Y-41161599D01*
X121712797Y-41161597D01*
X121838760Y-40973080D01*
X121999080Y-40812760D01*
X122187597Y-40686797D01*
X122397066Y-40600032D01*
X122508251Y-40577916D01*
X122619435Y-40555800D01*
X122846165Y-40555800D01*
X122957349Y-40577916D01*
G37*
G36*
X163714891Y-41743685D02*
G01*
X163748869Y-41753993D01*
X163780190Y-41770734D01*
X163807639Y-41793261D01*
X163830166Y-41820710D01*
X163846907Y-41852031D01*
X163857215Y-41886009D01*
X163861300Y-41927490D01*
X163861300Y-42603710D01*
X163857215Y-42645191D01*
X163846907Y-42679169D01*
X163830166Y-42710490D01*
X163807639Y-42737939D01*
X163780190Y-42760466D01*
X163748869Y-42777207D01*
X163714891Y-42787515D01*
X163673410Y-42791600D01*
X163072190Y-42791600D01*
X163030709Y-42787515D01*
X162996731Y-42777207D01*
X162965410Y-42760466D01*
X162937961Y-42737939D01*
X162915434Y-42710490D01*
X162898693Y-42679169D01*
X162888385Y-42645191D01*
X162884300Y-42603710D01*
X162884300Y-41927490D01*
X162888385Y-41886009D01*
X162898693Y-41852031D01*
X162915434Y-41820710D01*
X162937961Y-41793261D01*
X162965410Y-41770734D01*
X162996731Y-41753993D01*
X163030709Y-41743685D01*
X163072190Y-41739600D01*
X163673410Y-41739600D01*
X163714891Y-41743685D01*
G37*
G36*
X162139891Y-41743685D02*
G01*
X162173869Y-41753993D01*
X162205190Y-41770734D01*
X162232639Y-41793261D01*
X162255166Y-41820710D01*
X162271907Y-41852031D01*
X162282215Y-41886009D01*
X162286300Y-41927490D01*
X162286300Y-42603710D01*
X162282215Y-42645191D01*
X162271907Y-42679169D01*
X162255166Y-42710490D01*
X162232639Y-42737939D01*
X162205190Y-42760466D01*
X162173869Y-42777207D01*
X162139891Y-42787515D01*
X162098410Y-42791600D01*
X161497190Y-42791600D01*
X161455709Y-42787515D01*
X161421731Y-42777207D01*
X161390410Y-42760466D01*
X161362961Y-42737939D01*
X161340434Y-42710490D01*
X161323693Y-42679169D01*
X161313385Y-42645191D01*
X161309300Y-42603710D01*
X161309300Y-41927490D01*
X161313385Y-41886009D01*
X161323693Y-41852031D01*
X161340434Y-41820710D01*
X161362961Y-41793261D01*
X161390410Y-41770734D01*
X161421731Y-41753993D01*
X161455709Y-41743685D01*
X161497190Y-41739600D01*
X162098410Y-41739600D01*
X162139891Y-41743685D01*
G37*
G36*
X122336685Y-35817575D02*
G01*
X122691743Y-35964645D01*
X122691745Y-35964646D01*
X123011290Y-36178159D01*
X123283041Y-36449910D01*
X123496554Y-36769455D01*
X123496555Y-36769457D01*
X123643625Y-37124515D01*
X123718600Y-37501442D01*
X123718600Y-37885758D01*
X123643625Y-38262685D01*
X123496555Y-38617743D01*
X123496554Y-38617745D01*
X123283041Y-38937290D01*
X123011290Y-39209041D01*
X122691745Y-39422554D01*
X122691744Y-39422555D01*
X122691743Y-39422555D01*
X122336685Y-39569625D01*
X121959758Y-39644600D01*
X121575442Y-39644600D01*
X121198515Y-39569625D01*
X120843457Y-39422555D01*
X120843456Y-39422555D01*
X120843455Y-39422554D01*
X120523910Y-39209041D01*
X120252159Y-38937290D01*
X120038646Y-38617745D01*
X120038645Y-38617743D01*
X119891575Y-38262685D01*
X119816600Y-37885758D01*
X119816600Y-37501442D01*
X119891575Y-37124515D01*
X120038645Y-36769457D01*
X120038646Y-36769455D01*
X120252159Y-36449910D01*
X120523910Y-36178159D01*
X120843455Y-35964646D01*
X120843457Y-35964645D01*
X121198515Y-35817575D01*
X121575442Y-35742600D01*
X121959758Y-35742600D01*
X122336685Y-35817575D01*
G37*
G36*
X162722685Y-35817575D02*
G01*
X163077743Y-35964645D01*
X163077745Y-35964646D01*
X163397290Y-36178159D01*
X163669041Y-36449910D01*
X163882554Y-36769455D01*
X163882555Y-36769457D01*
X164029625Y-37124515D01*
X164104600Y-37501442D01*
X164104600Y-37885758D01*
X164029625Y-38262685D01*
X163882555Y-38617743D01*
X163882554Y-38617745D01*
X163669041Y-38937290D01*
X163397290Y-39209041D01*
X163077745Y-39422554D01*
X163077744Y-39422555D01*
X163077743Y-39422555D01*
X162722685Y-39569625D01*
X162345758Y-39644600D01*
X161961442Y-39644600D01*
X161584515Y-39569625D01*
X161229457Y-39422555D01*
X161229456Y-39422555D01*
X161229455Y-39422554D01*
X160909910Y-39209041D01*
X160638159Y-38937290D01*
X160424646Y-38617745D01*
X160424645Y-38617743D01*
X160277575Y-38262685D01*
X160202600Y-37885758D01*
X160202600Y-37501442D01*
X160277575Y-37124515D01*
X160424645Y-36769457D01*
X160424646Y-36769455D01*
X160638159Y-36449910D01*
X160909910Y-36178159D01*
X161229455Y-35964646D01*
X161229457Y-35964645D01*
X161584515Y-35817575D01*
X161961442Y-35742600D01*
X162345758Y-35742600D01*
X162722685Y-35817575D01*
G37*
M02*
