G04 #@! TF.GenerationSoftware,KiCad,Pcbnew,5.1.6-c6e7f7d~87~ubuntu18.04.1*
G04 #@! TF.CreationDate,2020-07-31T23:24:34+02:00*
G04 #@! TF.ProjectId,HMI,484d492e-6b69-4636-9164-5f7063625858,rev?*
G04 #@! TF.SameCoordinates,Original*
G04 #@! TF.FileFunction,Copper,L1,Top*
G04 #@! TF.FilePolarity,Positive*
%FSLAX46Y46*%
G04 Gerber Fmt 4.6, Leading zero omitted, Abs format (unit mm)*
G04 Created by KiCad (PCBNEW 5.1.6-c6e7f7d~87~ubuntu18.04.1) date 2020-07-31 23:24:34*
%MOMM*%
%LPD*%
G01*
G04 APERTURE LIST*
G04 #@! TA.AperFunction,ComponentPad*
%ADD10C,3.800000*%
G04 #@! TD*
G04 #@! TA.AperFunction,SMDPad,CuDef*
%ADD11R,0.900000X1.000000*%
G04 #@! TD*
G04 #@! TA.AperFunction,ComponentPad*
%ADD12C,1.700000*%
G04 #@! TD*
G04 #@! TA.AperFunction,ComponentPad*
%ADD13C,2.200000*%
G04 #@! TD*
G04 #@! TA.AperFunction,ComponentPad*
%ADD14O,1.000000X1.000000*%
G04 #@! TD*
G04 #@! TA.AperFunction,ComponentPad*
%ADD15R,1.000000X1.000000*%
G04 #@! TD*
G04 #@! TA.AperFunction,ViaPad*
%ADD16C,0.450000*%
G04 #@! TD*
G04 #@! TA.AperFunction,ViaPad*
%ADD17C,0.800000*%
G04 #@! TD*
G04 #@! TA.AperFunction,Conductor*
%ADD18C,0.600000*%
G04 #@! TD*
G04 #@! TA.AperFunction,Conductor*
%ADD19C,0.300000*%
G04 #@! TD*
G04 #@! TA.AperFunction,Conductor*
%ADD20C,0.350000*%
G04 #@! TD*
G04 #@! TA.AperFunction,Conductor*
%ADD21C,0.250000*%
G04 #@! TD*
G04 #@! TA.AperFunction,Conductor*
%ADD22C,0.254000*%
G04 #@! TD*
G04 APERTURE END LIST*
G04 #@! TA.AperFunction,SMDPad,CuDef*
G36*
G01*
X162935500Y-44960250D02*
X162935500Y-44447750D01*
G75*
G02*
X163154250Y-44229000I218750J0D01*
G01*
X163591750Y-44229000D01*
G75*
G02*
X163810500Y-44447750I0J-218750D01*
G01*
X163810500Y-44960250D01*
G75*
G02*
X163591750Y-45179000I-218750J0D01*
G01*
X163154250Y-45179000D01*
G75*
G02*
X162935500Y-44960250I0J218750D01*
G01*
G37*
G04 #@! TD.AperFunction*
G04 #@! TA.AperFunction,SMDPad,CuDef*
G36*
G01*
X161360500Y-44960250D02*
X161360500Y-44447750D01*
G75*
G02*
X161579250Y-44229000I218750J0D01*
G01*
X162016750Y-44229000D01*
G75*
G02*
X162235500Y-44447750I0J-218750D01*
G01*
X162235500Y-44960250D01*
G75*
G02*
X162016750Y-45179000I-218750J0D01*
G01*
X161579250Y-45179000D01*
G75*
G02*
X161360500Y-44960250I0J218750D01*
G01*
G37*
G04 #@! TD.AperFunction*
G04 #@! TA.AperFunction,SMDPad,CuDef*
G36*
G01*
X162935300Y-42521850D02*
X162935300Y-42009350D01*
G75*
G02*
X163154050Y-41790600I218750J0D01*
G01*
X163591550Y-41790600D01*
G75*
G02*
X163810300Y-42009350I0J-218750D01*
G01*
X163810300Y-42521850D01*
G75*
G02*
X163591550Y-42740600I-218750J0D01*
G01*
X163154050Y-42740600D01*
G75*
G02*
X162935300Y-42521850I0J218750D01*
G01*
G37*
G04 #@! TD.AperFunction*
G04 #@! TA.AperFunction,SMDPad,CuDef*
G36*
G01*
X161360300Y-42521850D02*
X161360300Y-42009350D01*
G75*
G02*
X161579050Y-41790600I218750J0D01*
G01*
X162016550Y-41790600D01*
G75*
G02*
X162235300Y-42009350I0J-218750D01*
G01*
X162235300Y-42521850D01*
G75*
G02*
X162016550Y-42740600I-218750J0D01*
G01*
X161579050Y-42740600D01*
G75*
G02*
X161360300Y-42521850I0J218750D01*
G01*
G37*
G04 #@! TD.AperFunction*
D10*
X121513600Y-139039600D03*
X162153600Y-37693600D03*
X121767600Y-37693600D03*
X162153600Y-139039600D03*
D11*
X134544020Y-90543280D03*
X134544020Y-88943280D03*
X130444020Y-90543280D03*
X130444020Y-88943280D03*
X156134020Y-125468280D03*
X156134020Y-123868280D03*
X152034020Y-125468280D03*
X152034020Y-123868280D03*
X156134020Y-118610280D03*
X156134020Y-117010280D03*
X152034020Y-118610280D03*
X152034020Y-117010280D03*
X156134020Y-111752280D03*
X156134020Y-110152280D03*
X152034020Y-111752280D03*
X152034020Y-110152280D03*
X156134020Y-104894280D03*
X156134020Y-103294280D03*
X152034020Y-104894280D03*
X152034020Y-103294280D03*
X156134020Y-97401280D03*
X156134020Y-95801280D03*
X152034020Y-97401280D03*
X152034020Y-95801280D03*
X156134020Y-90543280D03*
X156134020Y-88943280D03*
X152034020Y-90543280D03*
X152034020Y-88943280D03*
X145339020Y-125468280D03*
X145339020Y-123868280D03*
X141239020Y-125468280D03*
X141239020Y-123868280D03*
X145339020Y-118610280D03*
X145339020Y-117010280D03*
X141239020Y-118610280D03*
X141239020Y-117010280D03*
X145339020Y-111752280D03*
X145339020Y-110152280D03*
X141239020Y-111752280D03*
X141239020Y-110152280D03*
X145339020Y-104894280D03*
X145339020Y-103294280D03*
X141239020Y-104894280D03*
X141239020Y-103294280D03*
X145339020Y-97401280D03*
X145339020Y-95801280D03*
X141239020Y-97401280D03*
X141239020Y-95801280D03*
X145339020Y-90543280D03*
X145339020Y-88943280D03*
X141239020Y-90543280D03*
X141239020Y-88943280D03*
X134544020Y-125468280D03*
X134544020Y-123868280D03*
X130444020Y-125468280D03*
X130444020Y-123868280D03*
X134544020Y-118610280D03*
X134544020Y-117010280D03*
X130444020Y-118610280D03*
X130444020Y-117010280D03*
X134544020Y-111752280D03*
X134544020Y-110152280D03*
X130444020Y-111752280D03*
X130444020Y-110152280D03*
X134544020Y-104894280D03*
X134544020Y-103294280D03*
X130444020Y-104894280D03*
X130444020Y-103294280D03*
X134544020Y-97401280D03*
X134544020Y-95801280D03*
X130444020Y-97401280D03*
X130444020Y-95801280D03*
G04 #@! TA.AperFunction,SMDPad,CuDef*
G36*
G01*
X122628950Y-111513100D02*
X123141450Y-111513100D01*
G75*
G02*
X123360200Y-111731850I0J-218750D01*
G01*
X123360200Y-112169350D01*
G75*
G02*
X123141450Y-112388100I-218750J0D01*
G01*
X122628950Y-112388100D01*
G75*
G02*
X122410200Y-112169350I0J218750D01*
G01*
X122410200Y-111731850D01*
G75*
G02*
X122628950Y-111513100I218750J0D01*
G01*
G37*
G04 #@! TD.AperFunction*
G04 #@! TA.AperFunction,SMDPad,CuDef*
G36*
G01*
X122628950Y-109938100D02*
X123141450Y-109938100D01*
G75*
G02*
X123360200Y-110156850I0J-218750D01*
G01*
X123360200Y-110594350D01*
G75*
G02*
X123141450Y-110813100I-218750J0D01*
G01*
X122628950Y-110813100D01*
G75*
G02*
X122410200Y-110594350I0J218750D01*
G01*
X122410200Y-110156850D01*
G75*
G02*
X122628950Y-109938100I218750J0D01*
G01*
G37*
G04 #@! TD.AperFunction*
D12*
X120232800Y-42956800D03*
X120232800Y-47456800D03*
D13*
X122732800Y-41706800D03*
X122732800Y-48706800D03*
D12*
X120131200Y-52822400D03*
X120131200Y-57322400D03*
D13*
X122631200Y-51572400D03*
X122631200Y-58572400D03*
G04 #@! TA.AperFunction,SMDPad,CuDef*
G36*
G01*
X156647500Y-121663750D02*
X156647500Y-122176250D01*
G75*
G02*
X156428750Y-122395000I-218750J0D01*
G01*
X155991250Y-122395000D01*
G75*
G02*
X155772500Y-122176250I0J218750D01*
G01*
X155772500Y-121663750D01*
G75*
G02*
X155991250Y-121445000I218750J0D01*
G01*
X156428750Y-121445000D01*
G75*
G02*
X156647500Y-121663750I0J-218750D01*
G01*
G37*
G04 #@! TD.AperFunction*
G04 #@! TA.AperFunction,SMDPad,CuDef*
G36*
G01*
X158222500Y-121663750D02*
X158222500Y-122176250D01*
G75*
G02*
X158003750Y-122395000I-218750J0D01*
G01*
X157566250Y-122395000D01*
G75*
G02*
X157347500Y-122176250I0J218750D01*
G01*
X157347500Y-121663750D01*
G75*
G02*
X157566250Y-121445000I218750J0D01*
G01*
X158003750Y-121445000D01*
G75*
G02*
X158222500Y-121663750I0J-218750D01*
G01*
G37*
G04 #@! TD.AperFunction*
G04 #@! TA.AperFunction,SMDPad,CuDef*
G36*
G01*
X156647500Y-114805750D02*
X156647500Y-115318250D01*
G75*
G02*
X156428750Y-115537000I-218750J0D01*
G01*
X155991250Y-115537000D01*
G75*
G02*
X155772500Y-115318250I0J218750D01*
G01*
X155772500Y-114805750D01*
G75*
G02*
X155991250Y-114587000I218750J0D01*
G01*
X156428750Y-114587000D01*
G75*
G02*
X156647500Y-114805750I0J-218750D01*
G01*
G37*
G04 #@! TD.AperFunction*
G04 #@! TA.AperFunction,SMDPad,CuDef*
G36*
G01*
X158222500Y-114805750D02*
X158222500Y-115318250D01*
G75*
G02*
X158003750Y-115537000I-218750J0D01*
G01*
X157566250Y-115537000D01*
G75*
G02*
X157347500Y-115318250I0J218750D01*
G01*
X157347500Y-114805750D01*
G75*
G02*
X157566250Y-114587000I218750J0D01*
G01*
X158003750Y-114587000D01*
G75*
G02*
X158222500Y-114805750I0J-218750D01*
G01*
G37*
G04 #@! TD.AperFunction*
G04 #@! TA.AperFunction,SMDPad,CuDef*
G36*
G01*
X156647500Y-107947750D02*
X156647500Y-108460250D01*
G75*
G02*
X156428750Y-108679000I-218750J0D01*
G01*
X155991250Y-108679000D01*
G75*
G02*
X155772500Y-108460250I0J218750D01*
G01*
X155772500Y-107947750D01*
G75*
G02*
X155991250Y-107729000I218750J0D01*
G01*
X156428750Y-107729000D01*
G75*
G02*
X156647500Y-107947750I0J-218750D01*
G01*
G37*
G04 #@! TD.AperFunction*
G04 #@! TA.AperFunction,SMDPad,CuDef*
G36*
G01*
X158222500Y-107947750D02*
X158222500Y-108460250D01*
G75*
G02*
X158003750Y-108679000I-218750J0D01*
G01*
X157566250Y-108679000D01*
G75*
G02*
X157347500Y-108460250I0J218750D01*
G01*
X157347500Y-107947750D01*
G75*
G02*
X157566250Y-107729000I218750J0D01*
G01*
X158003750Y-107729000D01*
G75*
G02*
X158222500Y-107947750I0J-218750D01*
G01*
G37*
G04 #@! TD.AperFunction*
G04 #@! TA.AperFunction,SMDPad,CuDef*
G36*
G01*
X156647500Y-101089750D02*
X156647500Y-101602250D01*
G75*
G02*
X156428750Y-101821000I-218750J0D01*
G01*
X155991250Y-101821000D01*
G75*
G02*
X155772500Y-101602250I0J218750D01*
G01*
X155772500Y-101089750D01*
G75*
G02*
X155991250Y-100871000I218750J0D01*
G01*
X156428750Y-100871000D01*
G75*
G02*
X156647500Y-101089750I0J-218750D01*
G01*
G37*
G04 #@! TD.AperFunction*
G04 #@! TA.AperFunction,SMDPad,CuDef*
G36*
G01*
X158222500Y-101089750D02*
X158222500Y-101602250D01*
G75*
G02*
X158003750Y-101821000I-218750J0D01*
G01*
X157566250Y-101821000D01*
G75*
G02*
X157347500Y-101602250I0J218750D01*
G01*
X157347500Y-101089750D01*
G75*
G02*
X157566250Y-100871000I218750J0D01*
G01*
X158003750Y-100871000D01*
G75*
G02*
X158222500Y-101089750I0J-218750D01*
G01*
G37*
G04 #@! TD.AperFunction*
G04 #@! TA.AperFunction,SMDPad,CuDef*
G36*
G01*
X156622000Y-93723750D02*
X156622000Y-94236250D01*
G75*
G02*
X156403250Y-94455000I-218750J0D01*
G01*
X155965750Y-94455000D01*
G75*
G02*
X155747000Y-94236250I0J218750D01*
G01*
X155747000Y-93723750D01*
G75*
G02*
X155965750Y-93505000I218750J0D01*
G01*
X156403250Y-93505000D01*
G75*
G02*
X156622000Y-93723750I0J-218750D01*
G01*
G37*
G04 #@! TD.AperFunction*
G04 #@! TA.AperFunction,SMDPad,CuDef*
G36*
G01*
X158197000Y-93723750D02*
X158197000Y-94236250D01*
G75*
G02*
X157978250Y-94455000I-218750J0D01*
G01*
X157540750Y-94455000D01*
G75*
G02*
X157322000Y-94236250I0J218750D01*
G01*
X157322000Y-93723750D01*
G75*
G02*
X157540750Y-93505000I218750J0D01*
G01*
X157978250Y-93505000D01*
G75*
G02*
X158197000Y-93723750I0J-218750D01*
G01*
G37*
G04 #@! TD.AperFunction*
G04 #@! TA.AperFunction,SMDPad,CuDef*
G36*
G01*
X156647500Y-86865750D02*
X156647500Y-87378250D01*
G75*
G02*
X156428750Y-87597000I-218750J0D01*
G01*
X155991250Y-87597000D01*
G75*
G02*
X155772500Y-87378250I0J218750D01*
G01*
X155772500Y-86865750D01*
G75*
G02*
X155991250Y-86647000I218750J0D01*
G01*
X156428750Y-86647000D01*
G75*
G02*
X156647500Y-86865750I0J-218750D01*
G01*
G37*
G04 #@! TD.AperFunction*
G04 #@! TA.AperFunction,SMDPad,CuDef*
G36*
G01*
X158222500Y-86865750D02*
X158222500Y-87378250D01*
G75*
G02*
X158003750Y-87597000I-218750J0D01*
G01*
X157566250Y-87597000D01*
G75*
G02*
X157347500Y-87378250I0J218750D01*
G01*
X157347500Y-86865750D01*
G75*
G02*
X157566250Y-86647000I218750J0D01*
G01*
X158003750Y-86647000D01*
G75*
G02*
X158222500Y-86865750I0J-218750D01*
G01*
G37*
G04 #@! TD.AperFunction*
D14*
X132232400Y-68630800D03*
X132232400Y-69900800D03*
X132232400Y-71170800D03*
D15*
X132232400Y-72440800D03*
G04 #@! TA.AperFunction,SMDPad,CuDef*
G36*
G01*
X124744900Y-111643450D02*
X124744900Y-112155950D01*
G75*
G02*
X124526150Y-112374700I-218750J0D01*
G01*
X124088650Y-112374700D01*
G75*
G02*
X123869900Y-112155950I0J218750D01*
G01*
X123869900Y-111643450D01*
G75*
G02*
X124088650Y-111424700I218750J0D01*
G01*
X124526150Y-111424700D01*
G75*
G02*
X124744900Y-111643450I0J-218750D01*
G01*
G37*
G04 #@! TD.AperFunction*
G04 #@! TA.AperFunction,SMDPad,CuDef*
G36*
G01*
X126319900Y-111643450D02*
X126319900Y-112155950D01*
G75*
G02*
X126101150Y-112374700I-218750J0D01*
G01*
X125663650Y-112374700D01*
G75*
G02*
X125444900Y-112155950I0J218750D01*
G01*
X125444900Y-111643450D01*
G75*
G02*
X125663650Y-111424700I218750J0D01*
G01*
X126101150Y-111424700D01*
G75*
G02*
X126319900Y-111643450I0J-218750D01*
G01*
G37*
G04 #@! TD.AperFunction*
G04 #@! TA.AperFunction,SMDPad,CuDef*
G36*
G01*
X124770300Y-117079050D02*
X124770300Y-117591550D01*
G75*
G02*
X124551550Y-117810300I-218750J0D01*
G01*
X124114050Y-117810300D01*
G75*
G02*
X123895300Y-117591550I0J218750D01*
G01*
X123895300Y-117079050D01*
G75*
G02*
X124114050Y-116860300I218750J0D01*
G01*
X124551550Y-116860300D01*
G75*
G02*
X124770300Y-117079050I0J-218750D01*
G01*
G37*
G04 #@! TD.AperFunction*
G04 #@! TA.AperFunction,SMDPad,CuDef*
G36*
G01*
X126345300Y-117079050D02*
X126345300Y-117591550D01*
G75*
G02*
X126126550Y-117810300I-218750J0D01*
G01*
X125689050Y-117810300D01*
G75*
G02*
X125470300Y-117591550I0J218750D01*
G01*
X125470300Y-117079050D01*
G75*
G02*
X125689050Y-116860300I218750J0D01*
G01*
X126126550Y-116860300D01*
G75*
G02*
X126345300Y-117079050I0J-218750D01*
G01*
G37*
G04 #@! TD.AperFunction*
G04 #@! TA.AperFunction,SMDPad,CuDef*
G36*
G01*
X124744900Y-113142050D02*
X124744900Y-113654550D01*
G75*
G02*
X124526150Y-113873300I-218750J0D01*
G01*
X124088650Y-113873300D01*
G75*
G02*
X123869900Y-113654550I0J218750D01*
G01*
X123869900Y-113142050D01*
G75*
G02*
X124088650Y-112923300I218750J0D01*
G01*
X124526150Y-112923300D01*
G75*
G02*
X124744900Y-113142050I0J-218750D01*
G01*
G37*
G04 #@! TD.AperFunction*
G04 #@! TA.AperFunction,SMDPad,CuDef*
G36*
G01*
X126319900Y-113142050D02*
X126319900Y-113654550D01*
G75*
G02*
X126101150Y-113873300I-218750J0D01*
G01*
X125663650Y-113873300D01*
G75*
G02*
X125444900Y-113654550I0J218750D01*
G01*
X125444900Y-113142050D01*
G75*
G02*
X125663650Y-112923300I218750J0D01*
G01*
X126101150Y-112923300D01*
G75*
G02*
X126319900Y-113142050I0J-218750D01*
G01*
G37*
G04 #@! TD.AperFunction*
G04 #@! TA.AperFunction,SMDPad,CuDef*
G36*
G01*
X124770300Y-118552250D02*
X124770300Y-119064750D01*
G75*
G02*
X124551550Y-119283500I-218750J0D01*
G01*
X124114050Y-119283500D01*
G75*
G02*
X123895300Y-119064750I0J218750D01*
G01*
X123895300Y-118552250D01*
G75*
G02*
X124114050Y-118333500I218750J0D01*
G01*
X124551550Y-118333500D01*
G75*
G02*
X124770300Y-118552250I0J-218750D01*
G01*
G37*
G04 #@! TD.AperFunction*
G04 #@! TA.AperFunction,SMDPad,CuDef*
G36*
G01*
X126345300Y-118552250D02*
X126345300Y-119064750D01*
G75*
G02*
X126126550Y-119283500I-218750J0D01*
G01*
X125689050Y-119283500D01*
G75*
G02*
X125470300Y-119064750I0J218750D01*
G01*
X125470300Y-118552250D01*
G75*
G02*
X125689050Y-118333500I218750J0D01*
G01*
X126126550Y-118333500D01*
G75*
G02*
X126345300Y-118552250I0J-218750D01*
G01*
G37*
G04 #@! TD.AperFunction*
G04 #@! TA.AperFunction,SMDPad,CuDef*
G36*
G01*
X125444900Y-116092950D02*
X125444900Y-115580450D01*
G75*
G02*
X125663650Y-115361700I218750J0D01*
G01*
X126101150Y-115361700D01*
G75*
G02*
X126319900Y-115580450I0J-218750D01*
G01*
X126319900Y-116092950D01*
G75*
G02*
X126101150Y-116311700I-218750J0D01*
G01*
X125663650Y-116311700D01*
G75*
G02*
X125444900Y-116092950I0J218750D01*
G01*
G37*
G04 #@! TD.AperFunction*
G04 #@! TA.AperFunction,SMDPad,CuDef*
G36*
G01*
X123869900Y-116092950D02*
X123869900Y-115580450D01*
G75*
G02*
X124088650Y-115361700I218750J0D01*
G01*
X124526150Y-115361700D01*
G75*
G02*
X124744900Y-115580450I0J-218750D01*
G01*
X124744900Y-116092950D01*
G75*
G02*
X124526150Y-116311700I-218750J0D01*
G01*
X124088650Y-116311700D01*
G75*
G02*
X123869900Y-116092950I0J218750D01*
G01*
G37*
G04 #@! TD.AperFunction*
G04 #@! TA.AperFunction,SMDPad,CuDef*
G36*
G01*
X122628950Y-116923400D02*
X123141450Y-116923400D01*
G75*
G02*
X123360200Y-117142150I0J-218750D01*
G01*
X123360200Y-117579650D01*
G75*
G02*
X123141450Y-117798400I-218750J0D01*
G01*
X122628950Y-117798400D01*
G75*
G02*
X122410200Y-117579650I0J218750D01*
G01*
X122410200Y-117142150D01*
G75*
G02*
X122628950Y-116923400I218750J0D01*
G01*
G37*
G04 #@! TD.AperFunction*
G04 #@! TA.AperFunction,SMDPad,CuDef*
G36*
G01*
X122628950Y-115348400D02*
X123141450Y-115348400D01*
G75*
G02*
X123360200Y-115567150I0J-218750D01*
G01*
X123360200Y-116004650D01*
G75*
G02*
X123141450Y-116223400I-218750J0D01*
G01*
X122628950Y-116223400D01*
G75*
G02*
X122410200Y-116004650I0J218750D01*
G01*
X122410200Y-115567150D01*
G75*
G02*
X122628950Y-115348400I218750J0D01*
G01*
G37*
G04 #@! TD.AperFunction*
G04 #@! TA.AperFunction,SMDPad,CuDef*
G36*
G01*
X125470300Y-110657350D02*
X125470300Y-110144850D01*
G75*
G02*
X125689050Y-109926100I218750J0D01*
G01*
X126126550Y-109926100D01*
G75*
G02*
X126345300Y-110144850I0J-218750D01*
G01*
X126345300Y-110657350D01*
G75*
G02*
X126126550Y-110876100I-218750J0D01*
G01*
X125689050Y-110876100D01*
G75*
G02*
X125470300Y-110657350I0J218750D01*
G01*
G37*
G04 #@! TD.AperFunction*
G04 #@! TA.AperFunction,SMDPad,CuDef*
G36*
G01*
X123895300Y-110657350D02*
X123895300Y-110144850D01*
G75*
G02*
X124114050Y-109926100I218750J0D01*
G01*
X124551550Y-109926100D01*
G75*
G02*
X124770300Y-110144850I0J-218750D01*
G01*
X124770300Y-110657350D01*
G75*
G02*
X124551550Y-110876100I-218750J0D01*
G01*
X124114050Y-110876100D01*
G75*
G02*
X123895300Y-110657350I0J218750D01*
G01*
G37*
G04 #@! TD.AperFunction*
D16*
X154406600Y-78473300D03*
X153466800Y-77711300D03*
X150901400Y-77685900D03*
X149479000Y-77152500D03*
X147149820Y-77246480D03*
X148234400Y-78574900D03*
X150190200Y-78422500D03*
X151663400Y-80175100D03*
X152958800Y-81953100D03*
X155194000Y-81876900D03*
X155117800Y-83604100D03*
X155194000Y-117957600D03*
X137769600Y-78625700D03*
X141704060Y-76304140D03*
X139776200Y-74256900D03*
X139319000Y-72097900D03*
X136982200Y-73215500D03*
X136982200Y-76288900D03*
X138049000Y-71259700D03*
X136677400Y-69608700D03*
X135585200Y-70700900D03*
X132105400Y-73850500D03*
X130352800Y-72097900D03*
X128092200Y-65138300D03*
X130708400Y-65214500D03*
X132461000Y-67627500D03*
X134416800Y-69380100D03*
X129032000Y-83375500D03*
X127381000Y-84899500D03*
X127076200Y-85763100D03*
X152933400Y-93560900D03*
X146837400Y-88099900D03*
X144475200Y-73037700D03*
X144348200Y-71932800D03*
X142341600Y-72351900D03*
X150241000Y-71437500D03*
X150266400Y-69659500D03*
X154307540Y-73985120D03*
X153009600Y-73959720D03*
X151579580Y-73972420D03*
X149926040Y-73936860D03*
X148650960Y-73949560D03*
X146865340Y-74033380D03*
X147769580Y-73972420D03*
X138973560Y-82577940D03*
X139641580Y-83185000D03*
X144084040Y-80992980D03*
X144012920Y-81981040D03*
X140307060Y-80934560D03*
X141046200Y-81981040D03*
X142427960Y-82042000D03*
X148551900Y-77213460D03*
X140788800Y-45647200D03*
X142240000Y-45516800D03*
X143205200Y-45516800D03*
X144221200Y-45516800D03*
X145186400Y-45516800D03*
X146202400Y-45516800D03*
X145389600Y-48717200D03*
X144576800Y-48717200D03*
X143510000Y-48717200D03*
X142392400Y-48717200D03*
X144018000Y-51257200D03*
X142341600Y-53949600D03*
X142392400Y-51257200D03*
X144170400Y-53898800D03*
X143256000Y-56184800D03*
X143256000Y-59182000D03*
X143205200Y-62128400D03*
X144170400Y-57759600D03*
X142341600Y-57658000D03*
X144170400Y-61061600D03*
X142290800Y-60960000D03*
X144119600Y-67005200D03*
X142290800Y-67005200D03*
X143205200Y-65024000D03*
X144221200Y-63703200D03*
X142341600Y-63652400D03*
X139192000Y-66954400D03*
X139242800Y-65278000D03*
X139344400Y-63347600D03*
X139090400Y-60452000D03*
X138988800Y-57302400D03*
X139039600Y-54864000D03*
X139039600Y-52222400D03*
X138938000Y-49022000D03*
X138125200Y-45720000D03*
X136042400Y-46075600D03*
X135940800Y-49733200D03*
X155448000Y-71424800D03*
X153212800Y-69392800D03*
X151333200Y-67513200D03*
X149199600Y-68630800D03*
X149910800Y-65989200D03*
X149758400Y-58724800D03*
X149656800Y-61061600D03*
X149656800Y-63347600D03*
X149707600Y-52527200D03*
X149707600Y-55016400D03*
X149656800Y-56845200D03*
X151688800Y-64008000D03*
X151688800Y-60807600D03*
X151638000Y-58115200D03*
X151587200Y-55626000D03*
X151587200Y-52679600D03*
X151942800Y-50698400D03*
X151790400Y-48717200D03*
X149047200Y-45415200D03*
X151231600Y-46329600D03*
X153314400Y-47345600D03*
X127304800Y-53086000D03*
X127355600Y-55524400D03*
X130759200Y-55626000D03*
X131064000Y-53187600D03*
X135382000Y-53187600D03*
X135585200Y-55626000D03*
X131216400Y-82651600D03*
X126542800Y-78028800D03*
X125476000Y-72948800D03*
X125984000Y-63347600D03*
X128574800Y-60807600D03*
X128473200Y-57200800D03*
X127508000Y-48209200D03*
X128574800Y-49377600D03*
X128422400Y-52222400D03*
X126949200Y-45516800D03*
X128625600Y-46075600D03*
X130098800Y-47447200D03*
X130759200Y-49225200D03*
X130911600Y-51308000D03*
X130810000Y-58013600D03*
X130911600Y-60350400D03*
X129641600Y-62941200D03*
X127050800Y-58420000D03*
X125730000Y-60655200D03*
X124307600Y-57708800D03*
X123596400Y-67157600D03*
X123850400Y-71170800D03*
X123748800Y-75082400D03*
X125882400Y-80162400D03*
X135432800Y-84785200D03*
X132181600Y-80975200D03*
X132334000Y-77571600D03*
X131978400Y-75184000D03*
X128244600Y-69989700D03*
X152704800Y-65481200D03*
X154482800Y-66903600D03*
X156972000Y-69646800D03*
X158648400Y-71374000D03*
X144145000Y-69926200D03*
X142240000Y-69215000D03*
X159359600Y-111810800D03*
X159232600Y-108280200D03*
X159461200Y-104698800D03*
X159359600Y-100126800D03*
X159486600Y-96647000D03*
X159410400Y-91846400D03*
X159283400Y-85801200D03*
X159131000Y-82169000D03*
X137414000Y-117983000D03*
X139293600Y-119710200D03*
X133959600Y-120345200D03*
X134442200Y-122351800D03*
X136499600Y-122707400D03*
X139598400Y-122783600D03*
X142544800Y-121386600D03*
X144119600Y-120370600D03*
X147040600Y-120370600D03*
X149275800Y-119075200D03*
X152527000Y-120015000D03*
X155346400Y-119964200D03*
X152298400Y-122250200D03*
X150012400Y-122758200D03*
X146735800Y-122859800D03*
X138506200Y-109093000D03*
X134569200Y-108737400D03*
X134264400Y-106299000D03*
X135966200Y-104165400D03*
X135966200Y-106045000D03*
X138633200Y-104267000D03*
X140055600Y-105537000D03*
X140944600Y-106680000D03*
X140157200Y-108000800D03*
X145364200Y-107010200D03*
X146532600Y-109321600D03*
X147345400Y-104292400D03*
X150749000Y-104394000D03*
X155981400Y-106299000D03*
X154787600Y-106299000D03*
X154863800Y-107670600D03*
X150749000Y-105308400D03*
X153263600Y-106553000D03*
X151460200Y-108508800D03*
X148488400Y-106603800D03*
X150139400Y-108178600D03*
X153365200Y-98958400D03*
X150596600Y-96545400D03*
X147523200Y-96824800D03*
X147447000Y-102285800D03*
X147523200Y-99441000D03*
X150825200Y-102260400D03*
X151765000Y-101549200D03*
X135991600Y-96774000D03*
X139547600Y-96672400D03*
X133375400Y-99034600D03*
X134823200Y-101777800D03*
X133756400Y-100711000D03*
X137236200Y-102057200D03*
X139471400Y-102057200D03*
X139700000Y-99364800D03*
X134137400Y-91973400D03*
X134645400Y-94361000D03*
X136474200Y-94792800D03*
X138963400Y-94767400D03*
X139369800Y-92837000D03*
X139369800Y-90932000D03*
X138633200Y-115671600D03*
X135712200Y-111074200D03*
X137668000Y-111048800D03*
X139420600Y-111074200D03*
X136956800Y-116535200D03*
X147345400Y-111201200D03*
X141452600Y-115392200D03*
X139242800Y-115951000D03*
X146608800Y-117602000D03*
X146608800Y-118414800D03*
X147523200Y-117906800D03*
X147243800Y-115544600D03*
X147726400Y-116128800D03*
X142290800Y-116001800D03*
X149809200Y-118033800D03*
X147777200Y-111023400D03*
X145542000Y-108864400D03*
X146710400Y-108762800D03*
X158445200Y-117144800D03*
X158470600Y-119100600D03*
X159486600Y-121640600D03*
X158115000Y-123393200D03*
X157911800Y-125171200D03*
X157708600Y-126771400D03*
X154863800Y-127025400D03*
X152933400Y-127025400D03*
X151130000Y-126974600D03*
X150571200Y-125704600D03*
X150774400Y-124815600D03*
X148691600Y-124866400D03*
X146659600Y-124764800D03*
X146812000Y-126390400D03*
X145364200Y-127254000D03*
X143764000Y-126923800D03*
X142113000Y-127000000D03*
X141274800Y-127406400D03*
X139954000Y-126974600D03*
X139954000Y-124815600D03*
X138099800Y-124764800D03*
X135864600Y-124815600D03*
X135991600Y-126390400D03*
X134772400Y-127558800D03*
X132410200Y-127076200D03*
X130454400Y-127584200D03*
X128371600Y-127076200D03*
X128625600Y-125425200D03*
X128727200Y-123393200D03*
X129641600Y-122275600D03*
X130937000Y-122377200D03*
X135839200Y-119684800D03*
X146380200Y-63703200D03*
X146304000Y-60604400D03*
X146227800Y-57581800D03*
X146177000Y-54686200D03*
X146126200Y-51968400D03*
X146278600Y-50596800D03*
X146735800Y-62052200D03*
X146685000Y-59182000D03*
X146735800Y-56337200D03*
X127127000Y-91795600D03*
X125425200Y-93573600D03*
X125120400Y-97104200D03*
X125298200Y-100482400D03*
X125247400Y-103505000D03*
X125120400Y-105867200D03*
X124256800Y-108534200D03*
X125933200Y-108508800D03*
X127279400Y-108839000D03*
X128016000Y-110439200D03*
X128371600Y-111836200D03*
X127228600Y-94005400D03*
X128600200Y-95859600D03*
X129057400Y-97383600D03*
X129819400Y-99034600D03*
X129057400Y-102844600D03*
X129057400Y-105333800D03*
X129540000Y-106705400D03*
X121564400Y-105943400D03*
X121437400Y-103200200D03*
X121437400Y-100076000D03*
X121412000Y-97231200D03*
X121183400Y-93472000D03*
X121920000Y-91033600D03*
X124079000Y-88747600D03*
X125653800Y-87274400D03*
X145237200Y-94183200D03*
X145237200Y-98933000D03*
X145211800Y-100076000D03*
X145211800Y-101854000D03*
X164236400Y-114858800D03*
X161747200Y-115900200D03*
X159893000Y-115951000D03*
X164388800Y-79121000D03*
X162763200Y-77673200D03*
X163068000Y-75869800D03*
X161188400Y-73507600D03*
X136804400Y-89992200D03*
D17*
X134239000Y-86931500D03*
D16*
X147751800Y-79616300D03*
X150139400Y-87744300D03*
D17*
X147980400Y-69583300D03*
X147116800Y-67157600D03*
D16*
X147955000Y-48133000D03*
X125018800Y-49225200D03*
X125120400Y-59588400D03*
X148691600Y-67310000D03*
D17*
X127101600Y-117563900D03*
X126682500Y-113474500D03*
D16*
X137337800Y-79463900D03*
X144094200Y-83070700D03*
X148259800Y-72148700D03*
X146583400Y-72707500D03*
X154813000Y-76161900D03*
X152882600Y-76771500D03*
X148691600Y-115874800D03*
X148691600Y-111048800D03*
X147726400Y-109016800D03*
X149301200Y-104140000D03*
X149301200Y-102463600D03*
X149301200Y-96723200D03*
X149301200Y-93421200D03*
X152730200Y-92303600D03*
X156895800Y-81991200D03*
X161391600Y-76098400D03*
X138404600Y-84797900D03*
X128320800Y-90322400D03*
X140190120Y-103294280D03*
X143759580Y-110143081D03*
X139768680Y-110152280D03*
X144360900Y-105689400D03*
X144360900Y-109602280D03*
X146291300Y-110820200D03*
X152806400Y-123964700D03*
X150863300Y-110702280D03*
X150863300Y-116408200D03*
X150863300Y-117560280D03*
X132465980Y-96552920D03*
X132430420Y-94937480D03*
X132522060Y-103893720D03*
X132465980Y-102674320D03*
X132486300Y-110746440D03*
X132522060Y-109512200D03*
X132659020Y-124447400D03*
X132628740Y-123253600D03*
X143129000Y-85813900D03*
X135521700Y-90093800D03*
X135978900Y-117627400D03*
X135978900Y-116460280D03*
X137058400Y-88341200D03*
X143276220Y-124418280D03*
X143276420Y-123318280D03*
X143268700Y-117560280D03*
X143268700Y-116372640D03*
X143200020Y-110726320D03*
X143159580Y-109496960D03*
X143159580Y-103844280D03*
X143032380Y-102603200D03*
X143032380Y-96482000D03*
X143113860Y-95018760D03*
X145999200Y-90627200D03*
X154010260Y-94973040D03*
X154023060Y-96438720D03*
X154025500Y-102588160D03*
X154025500Y-103863040D03*
X154050900Y-109471360D03*
X154050900Y-110702280D03*
X153995220Y-116334640D03*
X154010460Y-117560280D03*
X154315060Y-124477680D03*
X154378660Y-123164600D03*
X150964900Y-90551000D03*
D17*
X160883600Y-42062400D03*
X163372800Y-43535600D03*
X160782000Y-45262800D03*
D18*
X124307400Y-110426500D02*
X124332800Y-110401100D01*
X124307400Y-111899700D02*
X124307400Y-110426500D01*
X122910700Y-110401100D02*
X122885200Y-110375600D01*
X123596400Y-110401100D02*
X122910700Y-110401100D01*
X124332800Y-110401100D02*
X123596400Y-110401100D01*
X134239000Y-86931500D02*
X134239000Y-80987900D01*
X134239000Y-80987900D02*
X137642600Y-77584300D01*
X137642600Y-77584300D02*
X145719800Y-77584300D01*
X145719800Y-77584300D02*
X147599400Y-79463900D01*
X147599400Y-79463900D02*
X147751800Y-79616300D01*
X147751800Y-79616300D02*
X147751800Y-87185500D01*
X147751800Y-87185500D02*
X148310600Y-87744300D01*
X148310600Y-87744300D02*
X150139400Y-87744300D01*
X145719800Y-71843900D02*
X147980400Y-69583300D01*
X145719800Y-77584300D02*
X145719800Y-71843900D01*
X147980400Y-69583300D02*
X147980400Y-69583300D01*
X147980400Y-69583300D02*
X147980400Y-69583300D01*
X147116800Y-67157600D02*
X147929600Y-66344800D01*
D19*
X125018800Y-49225200D02*
X125882400Y-50088800D01*
X125882400Y-58826400D02*
X125120400Y-59588400D01*
X126051001Y-54288999D02*
X137481001Y-54288999D01*
X125882400Y-54457600D02*
X125882400Y-58826400D01*
X125882400Y-54457600D02*
X126051001Y-54288999D01*
X125882400Y-50088800D02*
X125882400Y-54457600D01*
X137481001Y-54288999D02*
X138582400Y-53187600D01*
X138582400Y-53187600D02*
X141173200Y-53187600D01*
X141258599Y-53102201D02*
X147895001Y-53102201D01*
X147895001Y-53102201D02*
X147929600Y-53136800D01*
D18*
X147929600Y-66344800D02*
X147929600Y-53136800D01*
D19*
X141173200Y-53187600D02*
X141258599Y-53102201D01*
D18*
X147929600Y-53136800D02*
X147929600Y-48158400D01*
X122885200Y-110375600D02*
X122885200Y-107873800D01*
X122885200Y-107873800D02*
X123507500Y-107251500D01*
X123507500Y-107251500D02*
X123507500Y-93218000D01*
X123507500Y-93218000D02*
X127952500Y-88773000D01*
D20*
X157785000Y-121920000D02*
X157785000Y-121767800D01*
X157785000Y-121767800D02*
X157099000Y-121081800D01*
X157099000Y-115748000D02*
X157785000Y-115062000D01*
X157099000Y-121081800D02*
X157099000Y-115748000D01*
X157099000Y-108890000D02*
X157785000Y-108204000D01*
X157099000Y-115748000D02*
X157099000Y-108890000D01*
X157099000Y-102032000D02*
X157785000Y-101346000D01*
X157099000Y-108890000D02*
X157099000Y-102032000D01*
X157099000Y-94640500D02*
X157759500Y-93980000D01*
X157099000Y-102032000D02*
X157099000Y-94640500D01*
X157099000Y-94640500D02*
X157099000Y-88062000D01*
X150139400Y-87744300D02*
X151168100Y-87744300D01*
X151168100Y-87744300D02*
X152755600Y-86156800D01*
X152755600Y-86156800D02*
X156718000Y-86156800D01*
X157099000Y-86537800D02*
X157099000Y-88062000D01*
X156718000Y-86156800D02*
X157099000Y-86537800D01*
D18*
X127952500Y-88773000D02*
X127952500Y-88734900D01*
X129755900Y-86931500D02*
X134239000Y-86931500D01*
X127952500Y-88734900D02*
X129755900Y-86931500D01*
D21*
X157785000Y-87376000D02*
X157099000Y-88062000D01*
X157785000Y-87122000D02*
X157785000Y-87376000D01*
D18*
X124332800Y-115862100D02*
X124307400Y-115836700D01*
X124332800Y-117335300D02*
X124332800Y-115862100D01*
X122936000Y-115836700D02*
X122885200Y-115785900D01*
D19*
X123571000Y-115811300D02*
X123545600Y-115836700D01*
D18*
X124307400Y-115836700D02*
X123545600Y-115836700D01*
X123545600Y-115836700D02*
X122936000Y-115836700D01*
D19*
X147599400Y-68135500D02*
X147612100Y-68135500D01*
X147599400Y-68135500D02*
X147866100Y-68135500D01*
X147866100Y-68135500D02*
X148691600Y-67310000D01*
X123545600Y-115481100D02*
X123545600Y-115836700D01*
X122707400Y-114642900D02*
X123545600Y-115481100D01*
X122250200Y-114642900D02*
X122707400Y-114642900D01*
X147599400Y-68135500D02*
X139573000Y-68135500D01*
X139573000Y-68135500D02*
X133121400Y-74587100D01*
X133121400Y-74587100D02*
X133121400Y-82156402D01*
X121437400Y-113830100D02*
X122250200Y-114642900D01*
X122497901Y-106864099D02*
X122497901Y-92779901D01*
X121437400Y-107924600D02*
X122497901Y-106864099D01*
X133121400Y-82156402D02*
X122497901Y-92779901D01*
X121437400Y-107924600D02*
X121437400Y-113830100D01*
D18*
X125907800Y-117335300D02*
X125907800Y-118808500D01*
D19*
X126034800Y-117462300D02*
X125907800Y-117335300D01*
X125907800Y-117335300D02*
X126288800Y-117335300D01*
X126288800Y-117335300D02*
X126517400Y-117563900D01*
X126517400Y-117563900D02*
X126542800Y-117563900D01*
X126517400Y-117563900D02*
X127101600Y-117563900D01*
D18*
X125882400Y-111899700D02*
X125882400Y-113398300D01*
D19*
X125958600Y-113474500D02*
X125882400Y-113398300D01*
X126682500Y-113474500D02*
X125958600Y-113474500D01*
X137337800Y-79463900D02*
X140944600Y-83070700D01*
X140944600Y-83070700D02*
X144094200Y-83070700D01*
D21*
X148259800Y-72148700D02*
X147866100Y-72148700D01*
X147307300Y-72707500D02*
X146583400Y-72707500D01*
X147866100Y-72148700D02*
X147307300Y-72707500D01*
X154813000Y-76161900D02*
X154101800Y-76161900D01*
X154101800Y-76161900D02*
X153492200Y-76771500D01*
X153492200Y-76771500D02*
X152882600Y-76771500D01*
X148691600Y-115874800D02*
X148691600Y-110998000D01*
X148691600Y-110998000D02*
X148691600Y-111048800D01*
X147726400Y-109016800D02*
X149301200Y-107442000D01*
X149301200Y-107442000D02*
X149301200Y-104140000D01*
X149301200Y-102463600D02*
X149301200Y-96723200D01*
X149301200Y-93421200D02*
X150012400Y-92710000D01*
X150012400Y-92710000D02*
X150418800Y-92303600D01*
X150418800Y-92303600D02*
X152730200Y-92303600D01*
X156895800Y-81991200D02*
X156895800Y-81127600D01*
X156895800Y-81127600D02*
X161391600Y-76631800D01*
X161391600Y-76631800D02*
X161391600Y-76098400D01*
X141939020Y-88943280D02*
X145339020Y-88943280D01*
X141239020Y-88943280D02*
X141939020Y-88943280D01*
X152734020Y-88943280D02*
X156134020Y-88943280D01*
X152034020Y-88943280D02*
X152734020Y-88943280D01*
D19*
X138404600Y-84797900D02*
X137274520Y-85927980D01*
D21*
X146039020Y-88943280D02*
X145339020Y-88943280D01*
X152034020Y-88943280D02*
X146039020Y-88943280D01*
X137429020Y-88943280D02*
X141239020Y-88943280D01*
D19*
X137274520Y-85927980D02*
X137274520Y-85940680D01*
X136483399Y-88934599D02*
X136492080Y-88943280D01*
X136483399Y-86731801D02*
X136483399Y-88934599D01*
X137274520Y-85940680D02*
X136483399Y-86731801D01*
D21*
X134544020Y-88943280D02*
X136492080Y-88943280D01*
X136492080Y-88943280D02*
X137429020Y-88943280D01*
X156134020Y-88943280D02*
X156134020Y-87451980D01*
X130444020Y-88943280D02*
X134544020Y-88943280D01*
X156210000Y-87376000D02*
X156134020Y-87451980D01*
X156210000Y-87122000D02*
X156210000Y-87376000D01*
X131144020Y-95801280D02*
X134544020Y-95801280D01*
X130444020Y-95801280D02*
X131144020Y-95801280D01*
X141939020Y-95801280D02*
X145339020Y-95801280D01*
X141239020Y-95801280D02*
X141939020Y-95801280D01*
X149149020Y-95801280D02*
X152034020Y-95801280D01*
X152734020Y-95801280D02*
X156134020Y-95801280D01*
X152034020Y-95801280D02*
X152734020Y-95801280D01*
X137429020Y-95801280D02*
X141239020Y-95801280D01*
X134544020Y-95801280D02*
X137429020Y-95801280D01*
X149149020Y-95801280D02*
X145339020Y-95801280D01*
D19*
X130444020Y-95801280D02*
X130243680Y-95801280D01*
X130243680Y-95801280D02*
X128320800Y-93878400D01*
X128320800Y-93878400D02*
X128320800Y-90322400D01*
D21*
X156134020Y-94030480D02*
X156184500Y-93980000D01*
X156134020Y-95801280D02*
X156134020Y-94030480D01*
X131144020Y-103294280D02*
X134544020Y-103294280D01*
X130444020Y-103294280D02*
X131144020Y-103294280D01*
X134544020Y-103294280D02*
X137429020Y-103294280D01*
X141939020Y-103294280D02*
X145339020Y-103294280D01*
X141239020Y-103294280D02*
X141939020Y-103294280D01*
X149149020Y-103294280D02*
X152034020Y-103294280D01*
X152734020Y-103294280D02*
X156134020Y-103294280D01*
X152034020Y-103294280D02*
X152734020Y-103294280D01*
X149149020Y-103294280D02*
X145339020Y-103294280D01*
X137429020Y-103294280D02*
X140190120Y-103294280D01*
X140190120Y-103294280D02*
X141239020Y-103294280D01*
X156134020Y-101421980D02*
X156210000Y-101346000D01*
X156134020Y-103294280D02*
X156134020Y-101421980D01*
X131144020Y-110152280D02*
X134544020Y-110152280D01*
X130444020Y-110152280D02*
X131144020Y-110152280D01*
X134544020Y-110152280D02*
X137429020Y-110152280D01*
X141939020Y-110152280D02*
X145339020Y-110152280D01*
X141239020Y-110152280D02*
X141939020Y-110152280D01*
X149149020Y-110152280D02*
X152034020Y-110152280D01*
X152734020Y-110152280D02*
X156134020Y-110152280D01*
X152034020Y-110152280D02*
X152734020Y-110152280D01*
X149149020Y-110152280D02*
X145339020Y-110152280D01*
X141239020Y-110152280D02*
X139768680Y-110152280D01*
X139768680Y-110152280D02*
X137429020Y-110152280D01*
X156134020Y-108279980D02*
X156210000Y-108204000D01*
X156134020Y-110152280D02*
X156134020Y-108279980D01*
X131144020Y-117010280D02*
X134544020Y-117010280D01*
X130444020Y-117010280D02*
X131144020Y-117010280D01*
X134544020Y-117010280D02*
X137429020Y-117010280D01*
X141939020Y-117010280D02*
X145339020Y-117010280D01*
X141239020Y-117010280D02*
X141939020Y-117010280D01*
D19*
X146291300Y-116058000D02*
X145339020Y-117010280D01*
X146291300Y-112598200D02*
X146291300Y-116058000D01*
D21*
X147243580Y-117010280D02*
X146291300Y-116058000D01*
X152034020Y-117010280D02*
X147243580Y-117010280D01*
D19*
X146291300Y-112598200D02*
X146291300Y-110820200D01*
D21*
X137429020Y-117010280D02*
X141239020Y-117010280D01*
X152034020Y-117010280D02*
X152734020Y-117010280D01*
X152734020Y-117010280D02*
X156134020Y-117010280D01*
D19*
X144360900Y-109601000D02*
X144360900Y-109602280D01*
X144360900Y-105689400D02*
X144360900Y-109601000D01*
D21*
X156134020Y-115137980D02*
X156210000Y-115062000D01*
X156134020Y-117010280D02*
X156134020Y-115137980D01*
X131144020Y-123868280D02*
X134544020Y-123868280D01*
X130444020Y-123868280D02*
X131144020Y-123868280D01*
X134544020Y-123868280D02*
X137429020Y-123868280D01*
X141239020Y-123868280D02*
X141939020Y-123868280D01*
X152734020Y-123868280D02*
X156134020Y-123868280D01*
X152034020Y-123868280D02*
X152734020Y-123868280D01*
X141939020Y-123868280D02*
X144353380Y-123868280D01*
X144353380Y-123868280D02*
X145339020Y-123868280D01*
D19*
X150863300Y-112480280D02*
X150863300Y-116408200D01*
D21*
X150957380Y-123868280D02*
X152034020Y-123868280D01*
X149149020Y-123868280D02*
X150957380Y-123868280D01*
X137429020Y-123868280D02*
X141239020Y-123868280D01*
D19*
X150957380Y-117654360D02*
X150863300Y-117560280D01*
X150957380Y-123868280D02*
X150957380Y-117654360D01*
D21*
X149149020Y-123868280D02*
X145339020Y-123868280D01*
D19*
X150863300Y-110702280D02*
X150863300Y-112480280D01*
D21*
X156134020Y-121995980D02*
X156210000Y-121920000D01*
X156134020Y-123868280D02*
X156134020Y-121995980D01*
X130444020Y-125468280D02*
X131144020Y-125468280D01*
X130444020Y-118610280D02*
X131144020Y-118610280D01*
X130444020Y-104894280D02*
X131144020Y-104894280D01*
X130444020Y-111752280D02*
X131144020Y-111752280D01*
X130444020Y-97401280D02*
X131144020Y-97401280D01*
X130444020Y-90543280D02*
X131144020Y-90543280D01*
X132659020Y-125468280D02*
X134544020Y-125468280D01*
X131144020Y-125468280D02*
X132659020Y-125468280D01*
X130444020Y-90543280D02*
X130068220Y-90543280D01*
D20*
X132465980Y-97401280D02*
X132465980Y-96552920D01*
D21*
X132465980Y-97401280D02*
X134544020Y-97401280D01*
X131144020Y-97401280D02*
X132465980Y-97401280D01*
D20*
X132430420Y-92321280D02*
X132430420Y-94937480D01*
D21*
X132430420Y-90543280D02*
X134544020Y-90543280D01*
X131144020Y-90543280D02*
X132430420Y-90543280D01*
X132522060Y-104894280D02*
X134544020Y-104894280D01*
D20*
X132522060Y-104894280D02*
X132522060Y-103893720D01*
D21*
X131144020Y-104894280D02*
X132522060Y-104894280D01*
D20*
X132465980Y-99179280D02*
X132465980Y-102674320D01*
X132486300Y-111752280D02*
X132486300Y-110746440D01*
D21*
X131144020Y-111752280D02*
X132486300Y-111752280D01*
D20*
X132522060Y-106672280D02*
X132522060Y-109512200D01*
D21*
X131144020Y-118610280D02*
X132628740Y-118610280D01*
D20*
X132659020Y-125468280D02*
X132659020Y-124447400D01*
X132628740Y-120388280D02*
X132628740Y-123253600D01*
D19*
X135072220Y-90543280D02*
X135521700Y-90093800D01*
X134544020Y-90543280D02*
X135072220Y-90543280D01*
D21*
X133675220Y-111752280D02*
X134544020Y-111752280D01*
X132486300Y-111752280D02*
X133675220Y-111752280D01*
X133624420Y-118610280D02*
X134544020Y-118610280D01*
X132628740Y-118610280D02*
X133624420Y-118610280D01*
D19*
X134544020Y-118610280D02*
X135199220Y-118610280D01*
X135199220Y-118610280D02*
X135978900Y-117830600D01*
X135978900Y-117830600D02*
X135978900Y-117627400D01*
X134544020Y-115025400D02*
X135978900Y-116460280D01*
X134544020Y-113530280D02*
X134544020Y-115025400D01*
D20*
X132430420Y-92321280D02*
X132430420Y-90543280D01*
X132465980Y-99179280D02*
X132465980Y-97401280D01*
X132522060Y-106672280D02*
X132522060Y-104894280D01*
D19*
X134544020Y-113530280D02*
X134544020Y-111752280D01*
D20*
X132628740Y-120388280D02*
X132628740Y-118610280D01*
D21*
X143129000Y-85813900D02*
X140042900Y-85813900D01*
X140042900Y-85813900D02*
X139839700Y-85813900D01*
X139585700Y-85813900D02*
X137058400Y-88341200D01*
X139839700Y-85813900D02*
X139585700Y-85813900D01*
X141239020Y-125468280D02*
X141939020Y-125468280D01*
X141239020Y-104894280D02*
X141939020Y-104894280D01*
X141239020Y-111752280D02*
X141939020Y-111752280D01*
X141239020Y-118610280D02*
X141939020Y-118610280D01*
X141239020Y-97401280D02*
X141939020Y-97401280D01*
X141239020Y-90543280D02*
X141939020Y-90543280D01*
D20*
X143276220Y-125468280D02*
X143276220Y-124416920D01*
D21*
X143276220Y-125468280D02*
X145339020Y-125468280D01*
X141939020Y-125468280D02*
X143276220Y-125468280D01*
D20*
X143276220Y-124416920D02*
X143276220Y-124418280D01*
D21*
X143276420Y-118610280D02*
X145339020Y-118610280D01*
X141939020Y-118610280D02*
X143276420Y-118610280D01*
D20*
X143276420Y-118610280D02*
X143276420Y-117569080D01*
X143276420Y-117569080D02*
X143276420Y-117568000D01*
X143276420Y-117568000D02*
X143268700Y-117560280D01*
X143200020Y-116303960D02*
X143268700Y-116372640D01*
X143200020Y-113530280D02*
X143200020Y-116303960D01*
D21*
X143200020Y-111752280D02*
X145339020Y-111752280D01*
X141939020Y-111752280D02*
X143200020Y-111752280D01*
D20*
X143200020Y-111752280D02*
X143200020Y-110726320D01*
X143159580Y-106672280D02*
X143159580Y-109496960D01*
D21*
X143159580Y-104894280D02*
X145339020Y-104894280D01*
X141939020Y-104894280D02*
X143159580Y-104894280D01*
D20*
X143159580Y-104894280D02*
X143159580Y-103832560D01*
X143159580Y-103832560D02*
X143159580Y-103844280D01*
X143032380Y-99179280D02*
X143032380Y-102603200D01*
D21*
X143032380Y-97401280D02*
X145339020Y-97401280D01*
X141939020Y-97401280D02*
X143032380Y-97401280D01*
D20*
X143126460Y-102697280D02*
X143032380Y-102603200D01*
X143032380Y-97401280D02*
X143032380Y-96482000D01*
X143113860Y-92321280D02*
X143113860Y-95018760D01*
D21*
X143113860Y-90543280D02*
X145339020Y-90543280D01*
X141939020Y-90543280D02*
X143113860Y-90543280D01*
D20*
X143113860Y-92321280D02*
X143113860Y-90543280D01*
X143276420Y-120388280D02*
X143276420Y-118610280D01*
X143276420Y-123318280D02*
X143276420Y-120388280D01*
X143200020Y-113530280D02*
X143200020Y-111752280D01*
X143159580Y-106672280D02*
X143159580Y-104894280D01*
X143032380Y-99179280D02*
X143032380Y-97401280D01*
D19*
X145915280Y-90543280D02*
X145999200Y-90627200D01*
X145339020Y-90543280D02*
X145915280Y-90543280D01*
D21*
X152034020Y-125468280D02*
X152734020Y-125468280D01*
X152034020Y-104894280D02*
X152734020Y-104894280D01*
X152034020Y-111752280D02*
X152734020Y-111752280D01*
X152034020Y-118610280D02*
X152734020Y-118610280D01*
X152034020Y-97401280D02*
X152734020Y-97401280D01*
X152034020Y-90543280D02*
X152734020Y-90543280D01*
D20*
X151640220Y-97795080D02*
X152034020Y-97401280D01*
X154010260Y-92321280D02*
X154010260Y-94973040D01*
D21*
X154010260Y-90543280D02*
X156134020Y-90543280D01*
X152734020Y-90543280D02*
X154010260Y-90543280D01*
D20*
X154010260Y-94973040D02*
X154057021Y-94926279D01*
X154025500Y-97401280D02*
X154025500Y-96441160D01*
D21*
X154025500Y-97401280D02*
X156134020Y-97401280D01*
D20*
X154025500Y-96441160D02*
X154023060Y-96438720D01*
D21*
X152734020Y-97401280D02*
X154025500Y-97401280D01*
D20*
X154025500Y-99179280D02*
X154025500Y-102588160D01*
X154050900Y-103888440D02*
X154025500Y-103863040D01*
D21*
X154050900Y-104894280D02*
X156134020Y-104894280D01*
D20*
X154050900Y-104894280D02*
X154050900Y-103888440D01*
D21*
X152734020Y-104894280D02*
X154050900Y-104894280D01*
D20*
X154050900Y-106672280D02*
X154050900Y-109471360D01*
X153995220Y-110757960D02*
X154050900Y-110702280D01*
X153995220Y-111752280D02*
X153995220Y-110757960D01*
D21*
X153995220Y-111752280D02*
X156134020Y-111752280D01*
X152734020Y-111752280D02*
X153995220Y-111752280D01*
D20*
X153995220Y-113530280D02*
X153995220Y-116334640D01*
X154010460Y-118610280D02*
X154010460Y-117518280D01*
D21*
X154010460Y-118610280D02*
X156134020Y-118610280D01*
X152734020Y-118610280D02*
X154010460Y-118610280D01*
D20*
X154010460Y-117518280D02*
X154010460Y-117560280D01*
X154315060Y-125468280D02*
X154315060Y-124477680D01*
D21*
X154315060Y-125468280D02*
X156134020Y-125468280D01*
X152734020Y-125468280D02*
X154315060Y-125468280D01*
D19*
X152026300Y-90551000D02*
X152034020Y-90543280D01*
X150964900Y-90551000D02*
X152026300Y-90551000D01*
D20*
X154378660Y-123164600D02*
X154338020Y-123123960D01*
X154010460Y-118930520D02*
X154010460Y-118610280D01*
X154338020Y-119258080D02*
X154010460Y-118930520D01*
X154338020Y-123123960D02*
X154338020Y-119258080D01*
X153995220Y-113530280D02*
X153995220Y-111752280D01*
X154050900Y-106672280D02*
X154050900Y-104894280D01*
X154025500Y-99179280D02*
X154025500Y-97401280D01*
X154010260Y-92321280D02*
X154010260Y-90543280D01*
D19*
X161086800Y-42265600D02*
X160883600Y-42062400D01*
X161797800Y-42265600D02*
X161086800Y-42265600D01*
X163372800Y-44703800D02*
X163373000Y-44704000D01*
X163372800Y-42265600D02*
X163372800Y-44703800D01*
X161798000Y-45008800D02*
X161544000Y-45262800D01*
X161798000Y-44704000D02*
X161798000Y-45008800D01*
X160782000Y-45262800D02*
X161544000Y-45262800D01*
D22*
G36*
X121195263Y-40884969D02*
G01*
X121064475Y-41200719D01*
X120997800Y-41535917D01*
X120997800Y-41877683D01*
X121064475Y-42212881D01*
X121195263Y-42528631D01*
X121385137Y-42812798D01*
X121626802Y-43054463D01*
X121910969Y-43244337D01*
X122226719Y-43375125D01*
X122561917Y-43441800D01*
X122903683Y-43441800D01*
X123238881Y-43375125D01*
X123554631Y-43244337D01*
X123838798Y-43054463D01*
X124080463Y-42812798D01*
X124270337Y-42528631D01*
X124401125Y-42212881D01*
X124467800Y-41877683D01*
X124467800Y-41535917D01*
X124401125Y-41200719D01*
X124270337Y-40884969D01*
X124191513Y-40767000D01*
X164566670Y-40767000D01*
X164617330Y-132969000D01*
X120548330Y-132969000D01*
X120514799Y-71940800D01*
X131094328Y-71940800D01*
X131094328Y-72940800D01*
X131106588Y-73065282D01*
X131142898Y-73184980D01*
X131201863Y-73295294D01*
X131281215Y-73391985D01*
X131377906Y-73471337D01*
X131488220Y-73530302D01*
X131607918Y-73566612D01*
X131732400Y-73578872D01*
X132732400Y-73578872D01*
X132856882Y-73566612D01*
X132976580Y-73530302D01*
X133086894Y-73471337D01*
X133183585Y-73391985D01*
X133262937Y-73295294D01*
X133321902Y-73184980D01*
X133358212Y-73065282D01*
X133370472Y-72940800D01*
X133370472Y-71940800D01*
X133358212Y-71816318D01*
X133321902Y-71696620D01*
X133277512Y-71613574D01*
X133323783Y-71501867D01*
X133367400Y-71282588D01*
X133367400Y-71059012D01*
X133323783Y-70839733D01*
X133238224Y-70633176D01*
X133173159Y-70535800D01*
X133238224Y-70438424D01*
X133323783Y-70231867D01*
X133367400Y-70012588D01*
X133367400Y-69789012D01*
X133323783Y-69569733D01*
X133238224Y-69363176D01*
X133114012Y-69177280D01*
X132955920Y-69019188D01*
X132770024Y-68894976D01*
X132563467Y-68809417D01*
X132344188Y-68765800D01*
X132120612Y-68765800D01*
X131901333Y-68809417D01*
X131694776Y-68894976D01*
X131508880Y-69019188D01*
X131350788Y-69177280D01*
X131226576Y-69363176D01*
X131141017Y-69569733D01*
X131097400Y-69789012D01*
X131097400Y-70012588D01*
X131141017Y-70231867D01*
X131226576Y-70438424D01*
X131291641Y-70535800D01*
X131226576Y-70633176D01*
X131141017Y-70839733D01*
X131097400Y-71059012D01*
X131097400Y-71282588D01*
X131141017Y-71501867D01*
X131187288Y-71613574D01*
X131142898Y-71696620D01*
X131106588Y-71816318D01*
X131094328Y-71940800D01*
X120514799Y-71940800D01*
X120507557Y-58761630D01*
X120564358Y-58750332D01*
X120834611Y-58638390D01*
X120896200Y-58597238D01*
X120896200Y-58743283D01*
X120962875Y-59078481D01*
X121093663Y-59394231D01*
X121283537Y-59678398D01*
X121525202Y-59920063D01*
X121809369Y-60109937D01*
X122125119Y-60240725D01*
X122460317Y-60307400D01*
X122802083Y-60307400D01*
X123137281Y-60240725D01*
X123453031Y-60109937D01*
X123737198Y-59920063D01*
X123978863Y-59678398D01*
X124168737Y-59394231D01*
X124299525Y-59078481D01*
X124366200Y-58743283D01*
X124366200Y-58401517D01*
X124299525Y-58066319D01*
X124168737Y-57750569D01*
X123978863Y-57466402D01*
X123737198Y-57224737D01*
X123453031Y-57034863D01*
X123137281Y-56904075D01*
X122802083Y-56837400D01*
X122460317Y-56837400D01*
X122125119Y-56904075D01*
X121809369Y-57034863D01*
X121614057Y-57165366D01*
X121559132Y-56889242D01*
X121447190Y-56618989D01*
X121284675Y-56375768D01*
X121077832Y-56168925D01*
X120834611Y-56006410D01*
X120564358Y-55894468D01*
X120505975Y-55882855D01*
X120502148Y-48917316D01*
X120665958Y-48884732D01*
X120936211Y-48772790D01*
X120997800Y-48731638D01*
X120997800Y-48877683D01*
X121064475Y-49212881D01*
X121195263Y-49528631D01*
X121385137Y-49812798D01*
X121626802Y-50054463D01*
X121703419Y-50105657D01*
X121525202Y-50224737D01*
X121283537Y-50466402D01*
X121093663Y-50750569D01*
X120962875Y-51066319D01*
X120896200Y-51401517D01*
X120896200Y-51743283D01*
X120962875Y-52078481D01*
X121093663Y-52394231D01*
X121283537Y-52678398D01*
X121525202Y-52920063D01*
X121809369Y-53109937D01*
X122125119Y-53240725D01*
X122460317Y-53307400D01*
X122802083Y-53307400D01*
X123137281Y-53240725D01*
X123453031Y-53109937D01*
X123737198Y-52920063D01*
X123978863Y-52678398D01*
X124168737Y-52394231D01*
X124299525Y-52078481D01*
X124366200Y-51743283D01*
X124366200Y-51401517D01*
X124299525Y-51066319D01*
X124168737Y-50750569D01*
X123978863Y-50466402D01*
X123737198Y-50224737D01*
X123660581Y-50173543D01*
X123838798Y-50054463D01*
X124080463Y-49812798D01*
X124235330Y-49581024D01*
X124256678Y-49632563D01*
X124350795Y-49773418D01*
X124470582Y-49893205D01*
X124611437Y-49987322D01*
X124712717Y-50029274D01*
X125097400Y-50413957D01*
X125097401Y-54419030D01*
X125097400Y-54419040D01*
X125097400Y-54419047D01*
X125093603Y-54457600D01*
X125097400Y-54496153D01*
X125097401Y-58501242D01*
X124814317Y-58784326D01*
X124713037Y-58826278D01*
X124572182Y-58920395D01*
X124452395Y-59040182D01*
X124358278Y-59181037D01*
X124293449Y-59337547D01*
X124260400Y-59503697D01*
X124260400Y-59673103D01*
X124293449Y-59839253D01*
X124358278Y-59995763D01*
X124452395Y-60136618D01*
X124572182Y-60256405D01*
X124713037Y-60350522D01*
X124869547Y-60415351D01*
X125035697Y-60448400D01*
X125205103Y-60448400D01*
X125371253Y-60415351D01*
X125527763Y-60350522D01*
X125668618Y-60256405D01*
X125788405Y-60136618D01*
X125882522Y-59995763D01*
X125924474Y-59894483D01*
X126410210Y-59408747D01*
X126440164Y-59384164D01*
X126538262Y-59264633D01*
X126611154Y-59128260D01*
X126656042Y-58980287D01*
X126663420Y-58905374D01*
X126667400Y-58864961D01*
X126667400Y-58864956D01*
X126671197Y-58826400D01*
X126667400Y-58787844D01*
X126667400Y-55073999D01*
X137442448Y-55073999D01*
X137481001Y-55077796D01*
X137519554Y-55073999D01*
X137519562Y-55073999D01*
X137634888Y-55062640D01*
X137782861Y-55017753D01*
X137919234Y-54944861D01*
X138038765Y-54846763D01*
X138063348Y-54816809D01*
X138907558Y-53972600D01*
X141134647Y-53972600D01*
X141173200Y-53976397D01*
X141211753Y-53972600D01*
X141211761Y-53972600D01*
X141327087Y-53961241D01*
X141475060Y-53916354D01*
X141529602Y-53887201D01*
X146994601Y-53887201D01*
X146994600Y-65957511D01*
X146771942Y-66180169D01*
X146626544Y-66240395D01*
X146457026Y-66353663D01*
X146312863Y-66497826D01*
X146199595Y-66667344D01*
X146121574Y-66855702D01*
X146081800Y-67055661D01*
X146081800Y-67259539D01*
X146099893Y-67350500D01*
X139611552Y-67350500D01*
X139572999Y-67346703D01*
X139534446Y-67350500D01*
X139534439Y-67350500D01*
X139433490Y-67360443D01*
X139419112Y-67361859D01*
X139384672Y-67372306D01*
X139271140Y-67406746D01*
X139134767Y-67479638D01*
X139074559Y-67529050D01*
X139045187Y-67553155D01*
X139045184Y-67553158D01*
X139015236Y-67577736D01*
X138990658Y-67607684D01*
X132593590Y-74004753D01*
X132563636Y-74029336D01*
X132465538Y-74148868D01*
X132392646Y-74285241D01*
X132347759Y-74433214D01*
X132336400Y-74548540D01*
X132336400Y-74548547D01*
X132332603Y-74587100D01*
X132336400Y-74625653D01*
X132336401Y-81831243D01*
X121970086Y-92197559D01*
X121940138Y-92222137D01*
X121915560Y-92252085D01*
X121915556Y-92252089D01*
X121887953Y-92285724D01*
X121842040Y-92341668D01*
X121803078Y-92414561D01*
X121769147Y-92478042D01*
X121724260Y-92626015D01*
X121709104Y-92779901D01*
X121712902Y-92818464D01*
X121712901Y-106538941D01*
X120909590Y-107342253D01*
X120879636Y-107366836D01*
X120781538Y-107486368D01*
X120708646Y-107622741D01*
X120663759Y-107770714D01*
X120652400Y-107886040D01*
X120652400Y-107886047D01*
X120648603Y-107924600D01*
X120652400Y-107963153D01*
X120652401Y-113791537D01*
X120648603Y-113830100D01*
X120663759Y-113983986D01*
X120708646Y-114131959D01*
X120742577Y-114195440D01*
X120781539Y-114268333D01*
X120810746Y-114303921D01*
X120855055Y-114357912D01*
X120855059Y-114357916D01*
X120879637Y-114387864D01*
X120909585Y-114412442D01*
X121667853Y-115170710D01*
X121692436Y-115200664D01*
X121811967Y-115298762D01*
X121818277Y-115302135D01*
X121788592Y-115399992D01*
X121772128Y-115567150D01*
X121772128Y-116004650D01*
X121788592Y-116171808D01*
X121837350Y-116332542D01*
X121916529Y-116480675D01*
X122023085Y-116610515D01*
X122152925Y-116717071D01*
X122301058Y-116796250D01*
X122461792Y-116845008D01*
X122628950Y-116861472D01*
X123141450Y-116861472D01*
X123293531Y-116846493D01*
X123273692Y-116911892D01*
X123257228Y-117079050D01*
X123257228Y-117591550D01*
X123273692Y-117758708D01*
X123322450Y-117919442D01*
X123401629Y-118067575D01*
X123508185Y-118197415D01*
X123638025Y-118303971D01*
X123786158Y-118383150D01*
X123946892Y-118431908D01*
X124114050Y-118448372D01*
X124551550Y-118448372D01*
X124718708Y-118431908D01*
X124847942Y-118392705D01*
X124832228Y-118552250D01*
X124832228Y-119064750D01*
X124848692Y-119231908D01*
X124897450Y-119392642D01*
X124976629Y-119540775D01*
X125083185Y-119670615D01*
X125213025Y-119777171D01*
X125361158Y-119856350D01*
X125521892Y-119905108D01*
X125689050Y-119921572D01*
X126126550Y-119921572D01*
X126293708Y-119905108D01*
X126454442Y-119856350D01*
X126602575Y-119777171D01*
X126732415Y-119670615D01*
X126838971Y-119540775D01*
X126918150Y-119392642D01*
X126966908Y-119231908D01*
X126983372Y-119064750D01*
X126983372Y-118595660D01*
X126999661Y-118598900D01*
X127203539Y-118598900D01*
X127403498Y-118559126D01*
X127591856Y-118481105D01*
X127761374Y-118367837D01*
X127905537Y-118223674D01*
X128018805Y-118054156D01*
X128096826Y-117865798D01*
X128136600Y-117665839D01*
X128136600Y-117461961D01*
X128096826Y-117262002D01*
X128018805Y-117073644D01*
X127905537Y-116904126D01*
X127761374Y-116759963D01*
X127591856Y-116646695D01*
X127403498Y-116568674D01*
X127203539Y-116528900D01*
X126999661Y-116528900D01*
X126809225Y-116566780D01*
X126732415Y-116473185D01*
X126602575Y-116366629D01*
X126454442Y-116287450D01*
X126293708Y-116238692D01*
X126126550Y-116222228D01*
X125689050Y-116222228D01*
X125521892Y-116238692D01*
X125361158Y-116287450D01*
X125357644Y-116289328D01*
X125366508Y-116260108D01*
X125382972Y-116092950D01*
X125382972Y-115580450D01*
X125366508Y-115413292D01*
X125317750Y-115252558D01*
X125238571Y-115104425D01*
X125132015Y-114974585D01*
X125002175Y-114868029D01*
X124854042Y-114788850D01*
X124693308Y-114740092D01*
X124526150Y-114723628D01*
X124088650Y-114723628D01*
X123921492Y-114740092D01*
X123916318Y-114741661D01*
X123289745Y-114115088D01*
X123265164Y-114085136D01*
X123145633Y-113987038D01*
X123009260Y-113914146D01*
X122861287Y-113869259D01*
X122745961Y-113857900D01*
X122745953Y-113857900D01*
X122707400Y-113854103D01*
X122668847Y-113857900D01*
X122575357Y-113857900D01*
X122222400Y-113504943D01*
X122222400Y-111343906D01*
X122301058Y-111385950D01*
X122461792Y-111434708D01*
X122628950Y-111451172D01*
X123141450Y-111451172D01*
X123259437Y-111439551D01*
X123248292Y-111476292D01*
X123231828Y-111643450D01*
X123231828Y-112155950D01*
X123248292Y-112323108D01*
X123297050Y-112483842D01*
X123376229Y-112631975D01*
X123482785Y-112761815D01*
X123612625Y-112868371D01*
X123760758Y-112947550D01*
X123921492Y-112996308D01*
X124088650Y-113012772D01*
X124526150Y-113012772D01*
X124693308Y-112996308D01*
X124829310Y-112955052D01*
X124823292Y-112974892D01*
X124806828Y-113142050D01*
X124806828Y-113654550D01*
X124823292Y-113821708D01*
X124872050Y-113982442D01*
X124951229Y-114130575D01*
X125057785Y-114260415D01*
X125187625Y-114366971D01*
X125335758Y-114446150D01*
X125496492Y-114494908D01*
X125663650Y-114511372D01*
X126101150Y-114511372D01*
X126268308Y-114494908D01*
X126368224Y-114464599D01*
X126380602Y-114469726D01*
X126580561Y-114509500D01*
X126784439Y-114509500D01*
X126984398Y-114469726D01*
X127172756Y-114391705D01*
X127342274Y-114278437D01*
X127486437Y-114134274D01*
X127599705Y-113964756D01*
X127677726Y-113776398D01*
X127717500Y-113576439D01*
X127717500Y-113372561D01*
X127677726Y-113172602D01*
X127599705Y-112984244D01*
X127486437Y-112814726D01*
X127342274Y-112670563D01*
X127172756Y-112557295D01*
X126984398Y-112479274D01*
X126899272Y-112462342D01*
X126941508Y-112323108D01*
X126957972Y-112155950D01*
X126957972Y-111643450D01*
X126941508Y-111476292D01*
X126892750Y-111315558D01*
X126813571Y-111167425D01*
X126707015Y-111037585D01*
X126577175Y-110931029D01*
X126429042Y-110851850D01*
X126268308Y-110803092D01*
X126101150Y-110786628D01*
X125663650Y-110786628D01*
X125496492Y-110803092D01*
X125388464Y-110835862D01*
X125391908Y-110824508D01*
X125408372Y-110657350D01*
X125408372Y-110144850D01*
X125391908Y-109977692D01*
X125343150Y-109816958D01*
X125263971Y-109668825D01*
X125157415Y-109538985D01*
X125027575Y-109432429D01*
X124879442Y-109353250D01*
X124718708Y-109304492D01*
X124551550Y-109288028D01*
X124114050Y-109288028D01*
X123946892Y-109304492D01*
X123820200Y-109342923D01*
X123820200Y-108261089D01*
X124136160Y-107945129D01*
X124171844Y-107915844D01*
X124288686Y-107773472D01*
X124375507Y-107611040D01*
X124423740Y-107452037D01*
X124428971Y-107434793D01*
X124447024Y-107251501D01*
X124442500Y-107205569D01*
X124442500Y-93605289D01*
X127490645Y-90557145D01*
X127493849Y-90573253D01*
X127535801Y-90674533D01*
X127535800Y-93839847D01*
X127532003Y-93878400D01*
X127535800Y-93916953D01*
X127535800Y-93916960D01*
X127547159Y-94032286D01*
X127592046Y-94180259D01*
X127664938Y-94316632D01*
X127763036Y-94436164D01*
X127792990Y-94460747D01*
X129355948Y-96023706D01*
X129355948Y-96301280D01*
X129368208Y-96425762D01*
X129404518Y-96545460D01*
X129434355Y-96601280D01*
X129404518Y-96657100D01*
X129368208Y-96776798D01*
X129355948Y-96901280D01*
X129355948Y-97901280D01*
X129368208Y-98025762D01*
X129404518Y-98145460D01*
X129463483Y-98255774D01*
X129542835Y-98352465D01*
X129639526Y-98431817D01*
X129749840Y-98490782D01*
X129869538Y-98527092D01*
X129994020Y-98539352D01*
X130894020Y-98539352D01*
X131018502Y-98527092D01*
X131138200Y-98490782D01*
X131248514Y-98431817D01*
X131345205Y-98352465D01*
X131424557Y-98255774D01*
X131475066Y-98161280D01*
X131655981Y-98161280D01*
X131655980Y-99139489D01*
X131655980Y-99139490D01*
X131655981Y-102382542D01*
X131639029Y-102423467D01*
X131616987Y-102534280D01*
X131475066Y-102534280D01*
X131424557Y-102439786D01*
X131345205Y-102343095D01*
X131248514Y-102263743D01*
X131138200Y-102204778D01*
X131018502Y-102168468D01*
X130894020Y-102156208D01*
X129994020Y-102156208D01*
X129869538Y-102168468D01*
X129749840Y-102204778D01*
X129639526Y-102263743D01*
X129542835Y-102343095D01*
X129463483Y-102439786D01*
X129404518Y-102550100D01*
X129368208Y-102669798D01*
X129355948Y-102794280D01*
X129355948Y-103794280D01*
X129368208Y-103918762D01*
X129404518Y-104038460D01*
X129434355Y-104094280D01*
X129404518Y-104150100D01*
X129368208Y-104269798D01*
X129355948Y-104394280D01*
X129355948Y-105394280D01*
X129368208Y-105518762D01*
X129404518Y-105638460D01*
X129463483Y-105748774D01*
X129542835Y-105845465D01*
X129639526Y-105924817D01*
X129749840Y-105983782D01*
X129869538Y-106020092D01*
X129994020Y-106032352D01*
X130894020Y-106032352D01*
X131018502Y-106020092D01*
X131138200Y-105983782D01*
X131248514Y-105924817D01*
X131345205Y-105845465D01*
X131424557Y-105748774D01*
X131475066Y-105654280D01*
X131712061Y-105654280D01*
X131712060Y-106632489D01*
X131712060Y-106632490D01*
X131712061Y-109220422D01*
X131695109Y-109261347D01*
X131669065Y-109392280D01*
X131475066Y-109392280D01*
X131424557Y-109297786D01*
X131345205Y-109201095D01*
X131248514Y-109121743D01*
X131138200Y-109062778D01*
X131018502Y-109026468D01*
X130894020Y-109014208D01*
X129994020Y-109014208D01*
X129869538Y-109026468D01*
X129749840Y-109062778D01*
X129639526Y-109121743D01*
X129542835Y-109201095D01*
X129463483Y-109297786D01*
X129404518Y-109408100D01*
X129368208Y-109527798D01*
X129355948Y-109652280D01*
X129355948Y-110652280D01*
X129368208Y-110776762D01*
X129404518Y-110896460D01*
X129434355Y-110952280D01*
X129404518Y-111008100D01*
X129368208Y-111127798D01*
X129355948Y-111252280D01*
X129355948Y-112252280D01*
X129368208Y-112376762D01*
X129404518Y-112496460D01*
X129463483Y-112606774D01*
X129542835Y-112703465D01*
X129639526Y-112782817D01*
X129749840Y-112841782D01*
X129869538Y-112878092D01*
X129994020Y-112890352D01*
X130894020Y-112890352D01*
X131018502Y-112878092D01*
X131138200Y-112841782D01*
X131248514Y-112782817D01*
X131345205Y-112703465D01*
X131424557Y-112606774D01*
X131475066Y-112512280D01*
X132201321Y-112512280D01*
X132327512Y-112550560D01*
X132486300Y-112566199D01*
X132645087Y-112550560D01*
X132771278Y-112512280D01*
X133512974Y-112512280D01*
X133563483Y-112606774D01*
X133642835Y-112703465D01*
X133739526Y-112782817D01*
X133759020Y-112793237D01*
X133759020Y-113491720D01*
X133759021Y-114986838D01*
X133755223Y-115025400D01*
X133770379Y-115179286D01*
X133815266Y-115327259D01*
X133849197Y-115390740D01*
X133888159Y-115463633D01*
X133924315Y-115507689D01*
X133961675Y-115553212D01*
X133961679Y-115553216D01*
X133986257Y-115583164D01*
X134016205Y-115607742D01*
X134280671Y-115872208D01*
X134094020Y-115872208D01*
X133969538Y-115884468D01*
X133849840Y-115920778D01*
X133739526Y-115979743D01*
X133642835Y-116059095D01*
X133563483Y-116155786D01*
X133512974Y-116250280D01*
X131475066Y-116250280D01*
X131424557Y-116155786D01*
X131345205Y-116059095D01*
X131248514Y-115979743D01*
X131138200Y-115920778D01*
X131018502Y-115884468D01*
X130894020Y-115872208D01*
X129994020Y-115872208D01*
X129869538Y-115884468D01*
X129749840Y-115920778D01*
X129639526Y-115979743D01*
X129542835Y-116059095D01*
X129463483Y-116155786D01*
X129404518Y-116266100D01*
X129368208Y-116385798D01*
X129355948Y-116510280D01*
X129355948Y-117510280D01*
X129368208Y-117634762D01*
X129404518Y-117754460D01*
X129434355Y-117810280D01*
X129404518Y-117866100D01*
X129368208Y-117985798D01*
X129355948Y-118110280D01*
X129355948Y-119110280D01*
X129368208Y-119234762D01*
X129404518Y-119354460D01*
X129463483Y-119464774D01*
X129542835Y-119561465D01*
X129639526Y-119640817D01*
X129749840Y-119699782D01*
X129869538Y-119736092D01*
X129994020Y-119748352D01*
X130894020Y-119748352D01*
X131018502Y-119736092D01*
X131138200Y-119699782D01*
X131248514Y-119640817D01*
X131345205Y-119561465D01*
X131424557Y-119464774D01*
X131475066Y-119370280D01*
X131818741Y-119370280D01*
X131818740Y-120348489D01*
X131818740Y-120348490D01*
X131818741Y-122961822D01*
X131801789Y-123002747D01*
X131780797Y-123108280D01*
X131475066Y-123108280D01*
X131424557Y-123013786D01*
X131345205Y-122917095D01*
X131248514Y-122837743D01*
X131138200Y-122778778D01*
X131018502Y-122742468D01*
X130894020Y-122730208D01*
X129994020Y-122730208D01*
X129869538Y-122742468D01*
X129749840Y-122778778D01*
X129639526Y-122837743D01*
X129542835Y-122917095D01*
X129463483Y-123013786D01*
X129404518Y-123124100D01*
X129368208Y-123243798D01*
X129355948Y-123368280D01*
X129355948Y-124368280D01*
X129368208Y-124492762D01*
X129404518Y-124612460D01*
X129434355Y-124668280D01*
X129404518Y-124724100D01*
X129368208Y-124843798D01*
X129355948Y-124968280D01*
X129355948Y-125968280D01*
X129368208Y-126092762D01*
X129404518Y-126212460D01*
X129463483Y-126322774D01*
X129542835Y-126419465D01*
X129639526Y-126498817D01*
X129749840Y-126557782D01*
X129869538Y-126594092D01*
X129994020Y-126606352D01*
X130894020Y-126606352D01*
X131018502Y-126594092D01*
X131138200Y-126557782D01*
X131248514Y-126498817D01*
X131345205Y-126419465D01*
X131424557Y-126322774D01*
X131475066Y-126228280D01*
X132374041Y-126228280D01*
X132500232Y-126266560D01*
X132659020Y-126282199D01*
X132817807Y-126266560D01*
X132943998Y-126228280D01*
X133512974Y-126228280D01*
X133563483Y-126322774D01*
X133642835Y-126419465D01*
X133739526Y-126498817D01*
X133849840Y-126557782D01*
X133969538Y-126594092D01*
X134094020Y-126606352D01*
X134994020Y-126606352D01*
X135118502Y-126594092D01*
X135238200Y-126557782D01*
X135348514Y-126498817D01*
X135445205Y-126419465D01*
X135524557Y-126322774D01*
X135583522Y-126212460D01*
X135619832Y-126092762D01*
X135632092Y-125968280D01*
X135632092Y-124968280D01*
X135619832Y-124843798D01*
X135583522Y-124724100D01*
X135553685Y-124668280D01*
X135575066Y-124628280D01*
X140207974Y-124628280D01*
X140229355Y-124668280D01*
X140199518Y-124724100D01*
X140163208Y-124843798D01*
X140150948Y-124968280D01*
X140150948Y-125968280D01*
X140163208Y-126092762D01*
X140199518Y-126212460D01*
X140258483Y-126322774D01*
X140337835Y-126419465D01*
X140434526Y-126498817D01*
X140544840Y-126557782D01*
X140664538Y-126594092D01*
X140789020Y-126606352D01*
X141689020Y-126606352D01*
X141813502Y-126594092D01*
X141933200Y-126557782D01*
X142043514Y-126498817D01*
X142140205Y-126419465D01*
X142219557Y-126322774D01*
X142270066Y-126228280D01*
X142991241Y-126228280D01*
X143117432Y-126266560D01*
X143276220Y-126282199D01*
X143435007Y-126266560D01*
X143561198Y-126228280D01*
X144307974Y-126228280D01*
X144358483Y-126322774D01*
X144437835Y-126419465D01*
X144534526Y-126498817D01*
X144644840Y-126557782D01*
X144764538Y-126594092D01*
X144889020Y-126606352D01*
X145789020Y-126606352D01*
X145913502Y-126594092D01*
X146033200Y-126557782D01*
X146143514Y-126498817D01*
X146240205Y-126419465D01*
X146319557Y-126322774D01*
X146378522Y-126212460D01*
X146414832Y-126092762D01*
X146427092Y-125968280D01*
X146427092Y-124968280D01*
X146414832Y-124843798D01*
X146378522Y-124724100D01*
X146348685Y-124668280D01*
X146370066Y-124628280D01*
X150758525Y-124628280D01*
X150803493Y-124641921D01*
X150957380Y-124657078D01*
X151015317Y-124651371D01*
X151024355Y-124668280D01*
X150994518Y-124724100D01*
X150958208Y-124843798D01*
X150945948Y-124968280D01*
X150945948Y-125968280D01*
X150958208Y-126092762D01*
X150994518Y-126212460D01*
X151053483Y-126322774D01*
X151132835Y-126419465D01*
X151229526Y-126498817D01*
X151339840Y-126557782D01*
X151459538Y-126594092D01*
X151584020Y-126606352D01*
X152484020Y-126606352D01*
X152608502Y-126594092D01*
X152728200Y-126557782D01*
X152838514Y-126498817D01*
X152935205Y-126419465D01*
X153014557Y-126322774D01*
X153065066Y-126228280D01*
X154030081Y-126228280D01*
X154156272Y-126266560D01*
X154315060Y-126282199D01*
X154473847Y-126266560D01*
X154600038Y-126228280D01*
X155102974Y-126228280D01*
X155153483Y-126322774D01*
X155232835Y-126419465D01*
X155329526Y-126498817D01*
X155439840Y-126557782D01*
X155559538Y-126594092D01*
X155684020Y-126606352D01*
X156584020Y-126606352D01*
X156708502Y-126594092D01*
X156828200Y-126557782D01*
X156938514Y-126498817D01*
X157035205Y-126419465D01*
X157114557Y-126322774D01*
X157173522Y-126212460D01*
X157209832Y-126092762D01*
X157222092Y-125968280D01*
X157222092Y-124968280D01*
X157209832Y-124843798D01*
X157173522Y-124724100D01*
X157143685Y-124668280D01*
X157173522Y-124612460D01*
X157209832Y-124492762D01*
X157222092Y-124368280D01*
X157222092Y-123368280D01*
X157209832Y-123243798D01*
X157173522Y-123124100D01*
X157114557Y-123013786D01*
X157035205Y-122917095D01*
X156952673Y-122849363D01*
X156997500Y-122812574D01*
X157090225Y-122888671D01*
X157238358Y-122967850D01*
X157399092Y-123016608D01*
X157566250Y-123033072D01*
X158003750Y-123033072D01*
X158170908Y-123016608D01*
X158331642Y-122967850D01*
X158479775Y-122888671D01*
X158609615Y-122782115D01*
X158716171Y-122652275D01*
X158795350Y-122504142D01*
X158844108Y-122343408D01*
X158860572Y-122176250D01*
X158860572Y-121663750D01*
X158844108Y-121496592D01*
X158795350Y-121335858D01*
X158716171Y-121187725D01*
X158609615Y-121057885D01*
X158479775Y-120951329D01*
X158331642Y-120872150D01*
X158170908Y-120823392D01*
X158003750Y-120806928D01*
X157969640Y-120806928D01*
X157909000Y-120746288D01*
X157909000Y-116175072D01*
X158003750Y-116175072D01*
X158170908Y-116158608D01*
X158331642Y-116109850D01*
X158479775Y-116030671D01*
X158609615Y-115924115D01*
X158716171Y-115794275D01*
X158795350Y-115646142D01*
X158844108Y-115485408D01*
X158860572Y-115318250D01*
X158860572Y-114805750D01*
X158844108Y-114638592D01*
X158795350Y-114477858D01*
X158716171Y-114329725D01*
X158609615Y-114199885D01*
X158479775Y-114093329D01*
X158331642Y-114014150D01*
X158170908Y-113965392D01*
X158003750Y-113948928D01*
X157909000Y-113948928D01*
X157909000Y-109317072D01*
X158003750Y-109317072D01*
X158170908Y-109300608D01*
X158331642Y-109251850D01*
X158479775Y-109172671D01*
X158609615Y-109066115D01*
X158716171Y-108936275D01*
X158795350Y-108788142D01*
X158844108Y-108627408D01*
X158860572Y-108460250D01*
X158860572Y-107947750D01*
X158844108Y-107780592D01*
X158795350Y-107619858D01*
X158716171Y-107471725D01*
X158609615Y-107341885D01*
X158479775Y-107235329D01*
X158331642Y-107156150D01*
X158170908Y-107107392D01*
X158003750Y-107090928D01*
X157909000Y-107090928D01*
X157909000Y-102459072D01*
X158003750Y-102459072D01*
X158170908Y-102442608D01*
X158331642Y-102393850D01*
X158479775Y-102314671D01*
X158609615Y-102208115D01*
X158716171Y-102078275D01*
X158795350Y-101930142D01*
X158844108Y-101769408D01*
X158860572Y-101602250D01*
X158860572Y-101089750D01*
X158844108Y-100922592D01*
X158795350Y-100761858D01*
X158716171Y-100613725D01*
X158609615Y-100483885D01*
X158479775Y-100377329D01*
X158331642Y-100298150D01*
X158170908Y-100249392D01*
X158003750Y-100232928D01*
X157909000Y-100232928D01*
X157909000Y-95093072D01*
X157978250Y-95093072D01*
X158145408Y-95076608D01*
X158306142Y-95027850D01*
X158454275Y-94948671D01*
X158584115Y-94842115D01*
X158690671Y-94712275D01*
X158769850Y-94564142D01*
X158818608Y-94403408D01*
X158835072Y-94236250D01*
X158835072Y-93723750D01*
X158818608Y-93556592D01*
X158769850Y-93395858D01*
X158690671Y-93247725D01*
X158584115Y-93117885D01*
X158454275Y-93011329D01*
X158306142Y-92932150D01*
X158145408Y-92883392D01*
X157978250Y-92866928D01*
X157909000Y-92866928D01*
X157909000Y-88326801D01*
X158000730Y-88235072D01*
X158003750Y-88235072D01*
X158170908Y-88218608D01*
X158331642Y-88169850D01*
X158479775Y-88090671D01*
X158609615Y-87984115D01*
X158716171Y-87854275D01*
X158795350Y-87706142D01*
X158844108Y-87545408D01*
X158860572Y-87378250D01*
X158860572Y-86865750D01*
X158844108Y-86698592D01*
X158795350Y-86537858D01*
X158716171Y-86389725D01*
X158609615Y-86259885D01*
X158479775Y-86153329D01*
X158331642Y-86074150D01*
X158170908Y-86025392D01*
X158003750Y-86008928D01*
X157712817Y-86008928D01*
X157674528Y-85962272D01*
X157643614Y-85936902D01*
X157318900Y-85612188D01*
X157293528Y-85581272D01*
X157170189Y-85480051D01*
X157029473Y-85404837D01*
X156876788Y-85358520D01*
X156757791Y-85346800D01*
X156757788Y-85346800D01*
X156718000Y-85342881D01*
X156678212Y-85346800D01*
X152795387Y-85346800D01*
X152755599Y-85342881D01*
X152715811Y-85346800D01*
X152715809Y-85346800D01*
X152596812Y-85358520D01*
X152444127Y-85404837D01*
X152440947Y-85406537D01*
X152303410Y-85480051D01*
X152252718Y-85521653D01*
X152180072Y-85581272D01*
X152154705Y-85612182D01*
X150832588Y-86934300D01*
X150607464Y-86934300D01*
X150498940Y-86876293D01*
X150322692Y-86822829D01*
X150185332Y-86809300D01*
X148697888Y-86809300D01*
X148686800Y-86798211D01*
X148686800Y-81906497D01*
X156035800Y-81906497D01*
X156035800Y-82075903D01*
X156068849Y-82242053D01*
X156133678Y-82398563D01*
X156227795Y-82539418D01*
X156347582Y-82659205D01*
X156488437Y-82753322D01*
X156644947Y-82818151D01*
X156811097Y-82851200D01*
X156980503Y-82851200D01*
X157146653Y-82818151D01*
X157303163Y-82753322D01*
X157444018Y-82659205D01*
X157563805Y-82539418D01*
X157657922Y-82398563D01*
X157722751Y-82242053D01*
X157755800Y-82075903D01*
X157755800Y-81906497D01*
X157722751Y-81740347D01*
X157657922Y-81583837D01*
X157655800Y-81580661D01*
X157655800Y-81442401D01*
X161902604Y-77195598D01*
X161931601Y-77171801D01*
X162026574Y-77056076D01*
X162097146Y-76924047D01*
X162140603Y-76780786D01*
X162151600Y-76669133D01*
X162151600Y-76669124D01*
X162155276Y-76631801D01*
X162151600Y-76594478D01*
X162151600Y-76508939D01*
X162153722Y-76505763D01*
X162218551Y-76349253D01*
X162251600Y-76183103D01*
X162251600Y-76013697D01*
X162218551Y-75847547D01*
X162153722Y-75691037D01*
X162059605Y-75550182D01*
X161939818Y-75430395D01*
X161798963Y-75336278D01*
X161642453Y-75271449D01*
X161476303Y-75238400D01*
X161306897Y-75238400D01*
X161140747Y-75271449D01*
X160984237Y-75336278D01*
X160843382Y-75430395D01*
X160723595Y-75550182D01*
X160629478Y-75691037D01*
X160564649Y-75847547D01*
X160531600Y-76013697D01*
X160531600Y-76183103D01*
X160564649Y-76349253D01*
X160574811Y-76373787D01*
X156384798Y-80563801D01*
X156355800Y-80587599D01*
X156332002Y-80616597D01*
X156332001Y-80616598D01*
X156260826Y-80703324D01*
X156190254Y-80835354D01*
X156159980Y-80935158D01*
X156146798Y-80978614D01*
X156135800Y-81090267D01*
X156135800Y-81090278D01*
X156132124Y-81127600D01*
X156135800Y-81164922D01*
X156135800Y-81580661D01*
X156133678Y-81583837D01*
X156068849Y-81740347D01*
X156035800Y-81906497D01*
X148686800Y-81906497D01*
X148686800Y-79662231D01*
X148691324Y-79616299D01*
X148673271Y-79433008D01*
X148619807Y-79256760D01*
X148532986Y-79094328D01*
X148416144Y-78951956D01*
X148380460Y-78922671D01*
X146654800Y-77197011D01*
X146654800Y-76686797D01*
X152022600Y-76686797D01*
X152022600Y-76856203D01*
X152055649Y-77022353D01*
X152120478Y-77178863D01*
X152214595Y-77319718D01*
X152334382Y-77439505D01*
X152475237Y-77533622D01*
X152631747Y-77598451D01*
X152797897Y-77631500D01*
X152967303Y-77631500D01*
X153133453Y-77598451D01*
X153289963Y-77533622D01*
X153293139Y-77531500D01*
X153454878Y-77531500D01*
X153492200Y-77535176D01*
X153529522Y-77531500D01*
X153529533Y-77531500D01*
X153641186Y-77520503D01*
X153784447Y-77477046D01*
X153916476Y-77406474D01*
X154032201Y-77311501D01*
X154056003Y-77282498D01*
X154411890Y-76926612D01*
X154562147Y-76988851D01*
X154728297Y-77021900D01*
X154897703Y-77021900D01*
X155063853Y-76988851D01*
X155220363Y-76924022D01*
X155361218Y-76829905D01*
X155481005Y-76710118D01*
X155575122Y-76569263D01*
X155639951Y-76412753D01*
X155673000Y-76246603D01*
X155673000Y-76077197D01*
X155639951Y-75911047D01*
X155575122Y-75754537D01*
X155481005Y-75613682D01*
X155361218Y-75493895D01*
X155220363Y-75399778D01*
X155063853Y-75334949D01*
X154897703Y-75301900D01*
X154728297Y-75301900D01*
X154562147Y-75334949D01*
X154405637Y-75399778D01*
X154402461Y-75401900D01*
X154139133Y-75401900D01*
X154101800Y-75398223D01*
X154064467Y-75401900D01*
X153952814Y-75412897D01*
X153809553Y-75456354D01*
X153677524Y-75526926D01*
X153561799Y-75621899D01*
X153538000Y-75650898D01*
X153211869Y-75977030D01*
X153133453Y-75944549D01*
X152967303Y-75911500D01*
X152797897Y-75911500D01*
X152631747Y-75944549D01*
X152475237Y-76009378D01*
X152334382Y-76103495D01*
X152214595Y-76223282D01*
X152120478Y-76364137D01*
X152055649Y-76520647D01*
X152022600Y-76686797D01*
X146654800Y-76686797D01*
X146654800Y-73567500D01*
X146668103Y-73567500D01*
X146834253Y-73534451D01*
X146990763Y-73469622D01*
X146993939Y-73467500D01*
X147269978Y-73467500D01*
X147307300Y-73471176D01*
X147344622Y-73467500D01*
X147344633Y-73467500D01*
X147456286Y-73456503D01*
X147599547Y-73413046D01*
X147731576Y-73342474D01*
X147847301Y-73247501D01*
X147871103Y-73218498D01*
X148096529Y-72993072D01*
X148175097Y-73008700D01*
X148344503Y-73008700D01*
X148510653Y-72975651D01*
X148667163Y-72910822D01*
X148808018Y-72816705D01*
X148927805Y-72696918D01*
X149021922Y-72556063D01*
X149086751Y-72399553D01*
X149119800Y-72233403D01*
X149119800Y-72063997D01*
X149086751Y-71897847D01*
X149021922Y-71741337D01*
X148927805Y-71600482D01*
X148808018Y-71480695D01*
X148667163Y-71386578D01*
X148510653Y-71321749D01*
X148344503Y-71288700D01*
X148175097Y-71288700D01*
X148008947Y-71321749D01*
X147853100Y-71386303D01*
X147828767Y-71388700D01*
X147717114Y-71399697D01*
X147573853Y-71443154D01*
X147441824Y-71513726D01*
X147326099Y-71608699D01*
X147302300Y-71637698D01*
X146993075Y-71946923D01*
X146990763Y-71945378D01*
X146955300Y-71930689D01*
X148325259Y-70560731D01*
X148470656Y-70500505D01*
X148640174Y-70387237D01*
X148784337Y-70243074D01*
X148897605Y-70073556D01*
X148975626Y-69885198D01*
X149015400Y-69685239D01*
X149015400Y-69481361D01*
X148975626Y-69281402D01*
X148897605Y-69093044D01*
X148784337Y-68923526D01*
X148640174Y-68779363D01*
X148470656Y-68666095D01*
X148452983Y-68658774D01*
X148997684Y-68114073D01*
X149098963Y-68072122D01*
X149239818Y-67978005D01*
X149359605Y-67858218D01*
X149453722Y-67717363D01*
X149518551Y-67560853D01*
X149551600Y-67394703D01*
X149551600Y-67225297D01*
X149518551Y-67059147D01*
X149453722Y-66902637D01*
X149359605Y-66761782D01*
X149239818Y-66641995D01*
X149098963Y-66547878D01*
X148942453Y-66483049D01*
X148857179Y-66466087D01*
X148869124Y-66344800D01*
X148864600Y-66298865D01*
X148864600Y-48112468D01*
X148851071Y-47975108D01*
X148797607Y-47798860D01*
X148710786Y-47636428D01*
X148593944Y-47494056D01*
X148451572Y-47377214D01*
X148289140Y-47290393D01*
X148112892Y-47236929D01*
X147929600Y-47218876D01*
X147746309Y-47236929D01*
X147570061Y-47290393D01*
X147407629Y-47377214D01*
X147265257Y-47494056D01*
X147148415Y-47636428D01*
X147061594Y-47798860D01*
X147008130Y-47975108D01*
X146994601Y-48112468D01*
X146994600Y-52317201D01*
X141297151Y-52317201D01*
X141258598Y-52313404D01*
X141220045Y-52317201D01*
X141220038Y-52317201D01*
X141104712Y-52328560D01*
X140956739Y-52373447D01*
X140902197Y-52402600D01*
X138620952Y-52402600D01*
X138582399Y-52398803D01*
X138543846Y-52402600D01*
X138543839Y-52402600D01*
X138442890Y-52412543D01*
X138428512Y-52413959D01*
X138394072Y-52424406D01*
X138280540Y-52458846D01*
X138144167Y-52531738D01*
X138083959Y-52581150D01*
X138054587Y-52605255D01*
X138054584Y-52605258D01*
X138024636Y-52629836D01*
X138000058Y-52659785D01*
X137155844Y-53503999D01*
X126667400Y-53503999D01*
X126667400Y-50127356D01*
X126671197Y-50088800D01*
X126667400Y-50050240D01*
X126667400Y-50050239D01*
X126661203Y-49987322D01*
X126656042Y-49934913D01*
X126611154Y-49786940D01*
X126593019Y-49753012D01*
X126538262Y-49650567D01*
X126440164Y-49531036D01*
X126410211Y-49506454D01*
X125822874Y-48919117D01*
X125780922Y-48817837D01*
X125686805Y-48676982D01*
X125567018Y-48557195D01*
X125426163Y-48463078D01*
X125269653Y-48398249D01*
X125103503Y-48365200D01*
X124934097Y-48365200D01*
X124767947Y-48398249D01*
X124611437Y-48463078D01*
X124470582Y-48557195D01*
X124467800Y-48559977D01*
X124467800Y-48535917D01*
X124401125Y-48200719D01*
X124270337Y-47884969D01*
X124080463Y-47600802D01*
X123838798Y-47359137D01*
X123554631Y-47169263D01*
X123238881Y-47038475D01*
X122903683Y-46971800D01*
X122561917Y-46971800D01*
X122226719Y-47038475D01*
X121910969Y-47169263D01*
X121715657Y-47299766D01*
X121660732Y-47023642D01*
X121548790Y-46753389D01*
X121386275Y-46510168D01*
X121179432Y-46303325D01*
X120936211Y-46140810D01*
X120665958Y-46028868D01*
X120500543Y-45995965D01*
X120500085Y-45160861D01*
X159747000Y-45160861D01*
X159747000Y-45364739D01*
X159786774Y-45564698D01*
X159864795Y-45753056D01*
X159978063Y-45922574D01*
X160122226Y-46066737D01*
X160291744Y-46180005D01*
X160480102Y-46258026D01*
X160680061Y-46297800D01*
X160883939Y-46297800D01*
X161083898Y-46258026D01*
X161272256Y-46180005D01*
X161441774Y-46066737D01*
X161460711Y-46047800D01*
X161505447Y-46047800D01*
X161544000Y-46051597D01*
X161582553Y-46047800D01*
X161582561Y-46047800D01*
X161697887Y-46036441D01*
X161845860Y-45991554D01*
X161982233Y-45918662D01*
X162101764Y-45820564D01*
X162112358Y-45807655D01*
X162183908Y-45800608D01*
X162344642Y-45751850D01*
X162492775Y-45672671D01*
X162585500Y-45596574D01*
X162678225Y-45672671D01*
X162826358Y-45751850D01*
X162987092Y-45800608D01*
X163154250Y-45817072D01*
X163591750Y-45817072D01*
X163758908Y-45800608D01*
X163919642Y-45751850D01*
X164067775Y-45672671D01*
X164197615Y-45566115D01*
X164304171Y-45436275D01*
X164383350Y-45288142D01*
X164432108Y-45127408D01*
X164448572Y-44960250D01*
X164448572Y-44447750D01*
X164432108Y-44280592D01*
X164383350Y-44119858D01*
X164308822Y-43980427D01*
X164368026Y-43837498D01*
X164407800Y-43637539D01*
X164407800Y-43433661D01*
X164368026Y-43233702D01*
X164290005Y-43045344D01*
X164278790Y-43028559D01*
X164303971Y-42997875D01*
X164383150Y-42849742D01*
X164431908Y-42689008D01*
X164448372Y-42521850D01*
X164448372Y-42009350D01*
X164431908Y-41842192D01*
X164383150Y-41681458D01*
X164303971Y-41533325D01*
X164197415Y-41403485D01*
X164067575Y-41296929D01*
X163919442Y-41217750D01*
X163758708Y-41168992D01*
X163591550Y-41152528D01*
X163154050Y-41152528D01*
X162986892Y-41168992D01*
X162826158Y-41217750D01*
X162678025Y-41296929D01*
X162585300Y-41373026D01*
X162492575Y-41296929D01*
X162344442Y-41217750D01*
X162183708Y-41168992D01*
X162016550Y-41152528D01*
X161579050Y-41152528D01*
X161411892Y-41168992D01*
X161410227Y-41169497D01*
X161373856Y-41145195D01*
X161185498Y-41067174D01*
X160985539Y-41027400D01*
X160781661Y-41027400D01*
X160581702Y-41067174D01*
X160393344Y-41145195D01*
X160223826Y-41258463D01*
X160079663Y-41402626D01*
X159966395Y-41572144D01*
X159888374Y-41760502D01*
X159848600Y-41960461D01*
X159848600Y-42164339D01*
X159888374Y-42364298D01*
X159966395Y-42552656D01*
X160079663Y-42722174D01*
X160223826Y-42866337D01*
X160393344Y-42979605D01*
X160581702Y-43057626D01*
X160781661Y-43097400D01*
X160948306Y-43097400D01*
X160973185Y-43127715D01*
X161103025Y-43234271D01*
X161251158Y-43313450D01*
X161411892Y-43362208D01*
X161579050Y-43378672D01*
X162016550Y-43378672D01*
X162183708Y-43362208D01*
X162344442Y-43313450D01*
X162363766Y-43303121D01*
X162337800Y-43433661D01*
X162337800Y-43637539D01*
X162341300Y-43655136D01*
X162183908Y-43607392D01*
X162016750Y-43590928D01*
X161579250Y-43590928D01*
X161412092Y-43607392D01*
X161251358Y-43656150D01*
X161103225Y-43735329D01*
X160973385Y-43841885D01*
X160866829Y-43971725D01*
X160787650Y-44119858D01*
X160754906Y-44227800D01*
X160680061Y-44227800D01*
X160480102Y-44267574D01*
X160291744Y-44345595D01*
X160122226Y-44458863D01*
X159978063Y-44603026D01*
X159864795Y-44772544D01*
X159786774Y-44960902D01*
X159747000Y-45160861D01*
X120500085Y-45160861D01*
X120497670Y-40767000D01*
X121274087Y-40767000D01*
X121195263Y-40884969D01*
G37*
X121195263Y-40884969D02*
X121064475Y-41200719D01*
X120997800Y-41535917D01*
X120997800Y-41877683D01*
X121064475Y-42212881D01*
X121195263Y-42528631D01*
X121385137Y-42812798D01*
X121626802Y-43054463D01*
X121910969Y-43244337D01*
X122226719Y-43375125D01*
X122561917Y-43441800D01*
X122903683Y-43441800D01*
X123238881Y-43375125D01*
X123554631Y-43244337D01*
X123838798Y-43054463D01*
X124080463Y-42812798D01*
X124270337Y-42528631D01*
X124401125Y-42212881D01*
X124467800Y-41877683D01*
X124467800Y-41535917D01*
X124401125Y-41200719D01*
X124270337Y-40884969D01*
X124191513Y-40767000D01*
X164566670Y-40767000D01*
X164617330Y-132969000D01*
X120548330Y-132969000D01*
X120514799Y-71940800D01*
X131094328Y-71940800D01*
X131094328Y-72940800D01*
X131106588Y-73065282D01*
X131142898Y-73184980D01*
X131201863Y-73295294D01*
X131281215Y-73391985D01*
X131377906Y-73471337D01*
X131488220Y-73530302D01*
X131607918Y-73566612D01*
X131732400Y-73578872D01*
X132732400Y-73578872D01*
X132856882Y-73566612D01*
X132976580Y-73530302D01*
X133086894Y-73471337D01*
X133183585Y-73391985D01*
X133262937Y-73295294D01*
X133321902Y-73184980D01*
X133358212Y-73065282D01*
X133370472Y-72940800D01*
X133370472Y-71940800D01*
X133358212Y-71816318D01*
X133321902Y-71696620D01*
X133277512Y-71613574D01*
X133323783Y-71501867D01*
X133367400Y-71282588D01*
X133367400Y-71059012D01*
X133323783Y-70839733D01*
X133238224Y-70633176D01*
X133173159Y-70535800D01*
X133238224Y-70438424D01*
X133323783Y-70231867D01*
X133367400Y-70012588D01*
X133367400Y-69789012D01*
X133323783Y-69569733D01*
X133238224Y-69363176D01*
X133114012Y-69177280D01*
X132955920Y-69019188D01*
X132770024Y-68894976D01*
X132563467Y-68809417D01*
X132344188Y-68765800D01*
X132120612Y-68765800D01*
X131901333Y-68809417D01*
X131694776Y-68894976D01*
X131508880Y-69019188D01*
X131350788Y-69177280D01*
X131226576Y-69363176D01*
X131141017Y-69569733D01*
X131097400Y-69789012D01*
X131097400Y-70012588D01*
X131141017Y-70231867D01*
X131226576Y-70438424D01*
X131291641Y-70535800D01*
X131226576Y-70633176D01*
X131141017Y-70839733D01*
X131097400Y-71059012D01*
X131097400Y-71282588D01*
X131141017Y-71501867D01*
X131187288Y-71613574D01*
X131142898Y-71696620D01*
X131106588Y-71816318D01*
X131094328Y-71940800D01*
X120514799Y-71940800D01*
X120507557Y-58761630D01*
X120564358Y-58750332D01*
X120834611Y-58638390D01*
X120896200Y-58597238D01*
X120896200Y-58743283D01*
X120962875Y-59078481D01*
X121093663Y-59394231D01*
X121283537Y-59678398D01*
X121525202Y-59920063D01*
X121809369Y-60109937D01*
X122125119Y-60240725D01*
X122460317Y-60307400D01*
X122802083Y-60307400D01*
X123137281Y-60240725D01*
X123453031Y-60109937D01*
X123737198Y-59920063D01*
X123978863Y-59678398D01*
X124168737Y-59394231D01*
X124299525Y-59078481D01*
X124366200Y-58743283D01*
X124366200Y-58401517D01*
X124299525Y-58066319D01*
X124168737Y-57750569D01*
X123978863Y-57466402D01*
X123737198Y-57224737D01*
X123453031Y-57034863D01*
X123137281Y-56904075D01*
X122802083Y-56837400D01*
X122460317Y-56837400D01*
X122125119Y-56904075D01*
X121809369Y-57034863D01*
X121614057Y-57165366D01*
X121559132Y-56889242D01*
X121447190Y-56618989D01*
X121284675Y-56375768D01*
X121077832Y-56168925D01*
X120834611Y-56006410D01*
X120564358Y-55894468D01*
X120505975Y-55882855D01*
X120502148Y-48917316D01*
X120665958Y-48884732D01*
X120936211Y-48772790D01*
X120997800Y-48731638D01*
X120997800Y-48877683D01*
X121064475Y-49212881D01*
X121195263Y-49528631D01*
X121385137Y-49812798D01*
X121626802Y-50054463D01*
X121703419Y-50105657D01*
X121525202Y-50224737D01*
X121283537Y-50466402D01*
X121093663Y-50750569D01*
X120962875Y-51066319D01*
X120896200Y-51401517D01*
X120896200Y-51743283D01*
X120962875Y-52078481D01*
X121093663Y-52394231D01*
X121283537Y-52678398D01*
X121525202Y-52920063D01*
X121809369Y-53109937D01*
X122125119Y-53240725D01*
X122460317Y-53307400D01*
X122802083Y-53307400D01*
X123137281Y-53240725D01*
X123453031Y-53109937D01*
X123737198Y-52920063D01*
X123978863Y-52678398D01*
X124168737Y-52394231D01*
X124299525Y-52078481D01*
X124366200Y-51743283D01*
X124366200Y-51401517D01*
X124299525Y-51066319D01*
X124168737Y-50750569D01*
X123978863Y-50466402D01*
X123737198Y-50224737D01*
X123660581Y-50173543D01*
X123838798Y-50054463D01*
X124080463Y-49812798D01*
X124235330Y-49581024D01*
X124256678Y-49632563D01*
X124350795Y-49773418D01*
X124470582Y-49893205D01*
X124611437Y-49987322D01*
X124712717Y-50029274D01*
X125097400Y-50413957D01*
X125097401Y-54419030D01*
X125097400Y-54419040D01*
X125097400Y-54419047D01*
X125093603Y-54457600D01*
X125097400Y-54496153D01*
X125097401Y-58501242D01*
X124814317Y-58784326D01*
X124713037Y-58826278D01*
X124572182Y-58920395D01*
X124452395Y-59040182D01*
X124358278Y-59181037D01*
X124293449Y-59337547D01*
X124260400Y-59503697D01*
X124260400Y-59673103D01*
X124293449Y-59839253D01*
X124358278Y-59995763D01*
X124452395Y-60136618D01*
X124572182Y-60256405D01*
X124713037Y-60350522D01*
X124869547Y-60415351D01*
X125035697Y-60448400D01*
X125205103Y-60448400D01*
X125371253Y-60415351D01*
X125527763Y-60350522D01*
X125668618Y-60256405D01*
X125788405Y-60136618D01*
X125882522Y-59995763D01*
X125924474Y-59894483D01*
X126410210Y-59408747D01*
X126440164Y-59384164D01*
X126538262Y-59264633D01*
X126611154Y-59128260D01*
X126656042Y-58980287D01*
X126663420Y-58905374D01*
X126667400Y-58864961D01*
X126667400Y-58864956D01*
X126671197Y-58826400D01*
X126667400Y-58787844D01*
X126667400Y-55073999D01*
X137442448Y-55073999D01*
X137481001Y-55077796D01*
X137519554Y-55073999D01*
X137519562Y-55073999D01*
X137634888Y-55062640D01*
X137782861Y-55017753D01*
X137919234Y-54944861D01*
X138038765Y-54846763D01*
X138063348Y-54816809D01*
X138907558Y-53972600D01*
X141134647Y-53972600D01*
X141173200Y-53976397D01*
X141211753Y-53972600D01*
X141211761Y-53972600D01*
X141327087Y-53961241D01*
X141475060Y-53916354D01*
X141529602Y-53887201D01*
X146994601Y-53887201D01*
X146994600Y-65957511D01*
X146771942Y-66180169D01*
X146626544Y-66240395D01*
X146457026Y-66353663D01*
X146312863Y-66497826D01*
X146199595Y-66667344D01*
X146121574Y-66855702D01*
X146081800Y-67055661D01*
X146081800Y-67259539D01*
X146099893Y-67350500D01*
X139611552Y-67350500D01*
X139572999Y-67346703D01*
X139534446Y-67350500D01*
X139534439Y-67350500D01*
X139433490Y-67360443D01*
X139419112Y-67361859D01*
X139384672Y-67372306D01*
X139271140Y-67406746D01*
X139134767Y-67479638D01*
X139074559Y-67529050D01*
X139045187Y-67553155D01*
X139045184Y-67553158D01*
X139015236Y-67577736D01*
X138990658Y-67607684D01*
X132593590Y-74004753D01*
X132563636Y-74029336D01*
X132465538Y-74148868D01*
X132392646Y-74285241D01*
X132347759Y-74433214D01*
X132336400Y-74548540D01*
X132336400Y-74548547D01*
X132332603Y-74587100D01*
X132336400Y-74625653D01*
X132336401Y-81831243D01*
X121970086Y-92197559D01*
X121940138Y-92222137D01*
X121915560Y-92252085D01*
X121915556Y-92252089D01*
X121887953Y-92285724D01*
X121842040Y-92341668D01*
X121803078Y-92414561D01*
X121769147Y-92478042D01*
X121724260Y-92626015D01*
X121709104Y-92779901D01*
X121712902Y-92818464D01*
X121712901Y-106538941D01*
X120909590Y-107342253D01*
X120879636Y-107366836D01*
X120781538Y-107486368D01*
X120708646Y-107622741D01*
X120663759Y-107770714D01*
X120652400Y-107886040D01*
X120652400Y-107886047D01*
X120648603Y-107924600D01*
X120652400Y-107963153D01*
X120652401Y-113791537D01*
X120648603Y-113830100D01*
X120663759Y-113983986D01*
X120708646Y-114131959D01*
X120742577Y-114195440D01*
X120781539Y-114268333D01*
X120810746Y-114303921D01*
X120855055Y-114357912D01*
X120855059Y-114357916D01*
X120879637Y-114387864D01*
X120909585Y-114412442D01*
X121667853Y-115170710D01*
X121692436Y-115200664D01*
X121811967Y-115298762D01*
X121818277Y-115302135D01*
X121788592Y-115399992D01*
X121772128Y-115567150D01*
X121772128Y-116004650D01*
X121788592Y-116171808D01*
X121837350Y-116332542D01*
X121916529Y-116480675D01*
X122023085Y-116610515D01*
X122152925Y-116717071D01*
X122301058Y-116796250D01*
X122461792Y-116845008D01*
X122628950Y-116861472D01*
X123141450Y-116861472D01*
X123293531Y-116846493D01*
X123273692Y-116911892D01*
X123257228Y-117079050D01*
X123257228Y-117591550D01*
X123273692Y-117758708D01*
X123322450Y-117919442D01*
X123401629Y-118067575D01*
X123508185Y-118197415D01*
X123638025Y-118303971D01*
X123786158Y-118383150D01*
X123946892Y-118431908D01*
X124114050Y-118448372D01*
X124551550Y-118448372D01*
X124718708Y-118431908D01*
X124847942Y-118392705D01*
X124832228Y-118552250D01*
X124832228Y-119064750D01*
X124848692Y-119231908D01*
X124897450Y-119392642D01*
X124976629Y-119540775D01*
X125083185Y-119670615D01*
X125213025Y-119777171D01*
X125361158Y-119856350D01*
X125521892Y-119905108D01*
X125689050Y-119921572D01*
X126126550Y-119921572D01*
X126293708Y-119905108D01*
X126454442Y-119856350D01*
X126602575Y-119777171D01*
X126732415Y-119670615D01*
X126838971Y-119540775D01*
X126918150Y-119392642D01*
X126966908Y-119231908D01*
X126983372Y-119064750D01*
X126983372Y-118595660D01*
X126999661Y-118598900D01*
X127203539Y-118598900D01*
X127403498Y-118559126D01*
X127591856Y-118481105D01*
X127761374Y-118367837D01*
X127905537Y-118223674D01*
X128018805Y-118054156D01*
X128096826Y-117865798D01*
X128136600Y-117665839D01*
X128136600Y-117461961D01*
X128096826Y-117262002D01*
X128018805Y-117073644D01*
X127905537Y-116904126D01*
X127761374Y-116759963D01*
X127591856Y-116646695D01*
X127403498Y-116568674D01*
X127203539Y-116528900D01*
X126999661Y-116528900D01*
X126809225Y-116566780D01*
X126732415Y-116473185D01*
X126602575Y-116366629D01*
X126454442Y-116287450D01*
X126293708Y-116238692D01*
X126126550Y-116222228D01*
X125689050Y-116222228D01*
X125521892Y-116238692D01*
X125361158Y-116287450D01*
X125357644Y-116289328D01*
X125366508Y-116260108D01*
X125382972Y-116092950D01*
X125382972Y-115580450D01*
X125366508Y-115413292D01*
X125317750Y-115252558D01*
X125238571Y-115104425D01*
X125132015Y-114974585D01*
X125002175Y-114868029D01*
X124854042Y-114788850D01*
X124693308Y-114740092D01*
X124526150Y-114723628D01*
X124088650Y-114723628D01*
X123921492Y-114740092D01*
X123916318Y-114741661D01*
X123289745Y-114115088D01*
X123265164Y-114085136D01*
X123145633Y-113987038D01*
X123009260Y-113914146D01*
X122861287Y-113869259D01*
X122745961Y-113857900D01*
X122745953Y-113857900D01*
X122707400Y-113854103D01*
X122668847Y-113857900D01*
X122575357Y-113857900D01*
X122222400Y-113504943D01*
X122222400Y-111343906D01*
X122301058Y-111385950D01*
X122461792Y-111434708D01*
X122628950Y-111451172D01*
X123141450Y-111451172D01*
X123259437Y-111439551D01*
X123248292Y-111476292D01*
X123231828Y-111643450D01*
X123231828Y-112155950D01*
X123248292Y-112323108D01*
X123297050Y-112483842D01*
X123376229Y-112631975D01*
X123482785Y-112761815D01*
X123612625Y-112868371D01*
X123760758Y-112947550D01*
X123921492Y-112996308D01*
X124088650Y-113012772D01*
X124526150Y-113012772D01*
X124693308Y-112996308D01*
X124829310Y-112955052D01*
X124823292Y-112974892D01*
X124806828Y-113142050D01*
X124806828Y-113654550D01*
X124823292Y-113821708D01*
X124872050Y-113982442D01*
X124951229Y-114130575D01*
X125057785Y-114260415D01*
X125187625Y-114366971D01*
X125335758Y-114446150D01*
X125496492Y-114494908D01*
X125663650Y-114511372D01*
X126101150Y-114511372D01*
X126268308Y-114494908D01*
X126368224Y-114464599D01*
X126380602Y-114469726D01*
X126580561Y-114509500D01*
X126784439Y-114509500D01*
X126984398Y-114469726D01*
X127172756Y-114391705D01*
X127342274Y-114278437D01*
X127486437Y-114134274D01*
X127599705Y-113964756D01*
X127677726Y-113776398D01*
X127717500Y-113576439D01*
X127717500Y-113372561D01*
X127677726Y-113172602D01*
X127599705Y-112984244D01*
X127486437Y-112814726D01*
X127342274Y-112670563D01*
X127172756Y-112557295D01*
X126984398Y-112479274D01*
X126899272Y-112462342D01*
X126941508Y-112323108D01*
X126957972Y-112155950D01*
X126957972Y-111643450D01*
X126941508Y-111476292D01*
X126892750Y-111315558D01*
X126813571Y-111167425D01*
X126707015Y-111037585D01*
X126577175Y-110931029D01*
X126429042Y-110851850D01*
X126268308Y-110803092D01*
X126101150Y-110786628D01*
X125663650Y-110786628D01*
X125496492Y-110803092D01*
X125388464Y-110835862D01*
X125391908Y-110824508D01*
X125408372Y-110657350D01*
X125408372Y-110144850D01*
X125391908Y-109977692D01*
X125343150Y-109816958D01*
X125263971Y-109668825D01*
X125157415Y-109538985D01*
X125027575Y-109432429D01*
X124879442Y-109353250D01*
X124718708Y-109304492D01*
X124551550Y-109288028D01*
X124114050Y-109288028D01*
X123946892Y-109304492D01*
X123820200Y-109342923D01*
X123820200Y-108261089D01*
X124136160Y-107945129D01*
X124171844Y-107915844D01*
X124288686Y-107773472D01*
X124375507Y-107611040D01*
X124423740Y-107452037D01*
X124428971Y-107434793D01*
X124447024Y-107251501D01*
X124442500Y-107205569D01*
X124442500Y-93605289D01*
X127490645Y-90557145D01*
X127493849Y-90573253D01*
X127535801Y-90674533D01*
X127535800Y-93839847D01*
X127532003Y-93878400D01*
X127535800Y-93916953D01*
X127535800Y-93916960D01*
X127547159Y-94032286D01*
X127592046Y-94180259D01*
X127664938Y-94316632D01*
X127763036Y-94436164D01*
X127792990Y-94460747D01*
X129355948Y-96023706D01*
X129355948Y-96301280D01*
X129368208Y-96425762D01*
X129404518Y-96545460D01*
X129434355Y-96601280D01*
X129404518Y-96657100D01*
X129368208Y-96776798D01*
X129355948Y-96901280D01*
X129355948Y-97901280D01*
X129368208Y-98025762D01*
X129404518Y-98145460D01*
X129463483Y-98255774D01*
X129542835Y-98352465D01*
X129639526Y-98431817D01*
X129749840Y-98490782D01*
X129869538Y-98527092D01*
X129994020Y-98539352D01*
X130894020Y-98539352D01*
X131018502Y-98527092D01*
X131138200Y-98490782D01*
X131248514Y-98431817D01*
X131345205Y-98352465D01*
X131424557Y-98255774D01*
X131475066Y-98161280D01*
X131655981Y-98161280D01*
X131655980Y-99139489D01*
X131655980Y-99139490D01*
X131655981Y-102382542D01*
X131639029Y-102423467D01*
X131616987Y-102534280D01*
X131475066Y-102534280D01*
X131424557Y-102439786D01*
X131345205Y-102343095D01*
X131248514Y-102263743D01*
X131138200Y-102204778D01*
X131018502Y-102168468D01*
X130894020Y-102156208D01*
X129994020Y-102156208D01*
X129869538Y-102168468D01*
X129749840Y-102204778D01*
X129639526Y-102263743D01*
X129542835Y-102343095D01*
X129463483Y-102439786D01*
X129404518Y-102550100D01*
X129368208Y-102669798D01*
X129355948Y-102794280D01*
X129355948Y-103794280D01*
X129368208Y-103918762D01*
X129404518Y-104038460D01*
X129434355Y-104094280D01*
X129404518Y-104150100D01*
X129368208Y-104269798D01*
X129355948Y-104394280D01*
X129355948Y-105394280D01*
X129368208Y-105518762D01*
X129404518Y-105638460D01*
X129463483Y-105748774D01*
X129542835Y-105845465D01*
X129639526Y-105924817D01*
X129749840Y-105983782D01*
X129869538Y-106020092D01*
X129994020Y-106032352D01*
X130894020Y-106032352D01*
X131018502Y-106020092D01*
X131138200Y-105983782D01*
X131248514Y-105924817D01*
X131345205Y-105845465D01*
X131424557Y-105748774D01*
X131475066Y-105654280D01*
X131712061Y-105654280D01*
X131712060Y-106632489D01*
X131712060Y-106632490D01*
X131712061Y-109220422D01*
X131695109Y-109261347D01*
X131669065Y-109392280D01*
X131475066Y-109392280D01*
X131424557Y-109297786D01*
X131345205Y-109201095D01*
X131248514Y-109121743D01*
X131138200Y-109062778D01*
X131018502Y-109026468D01*
X130894020Y-109014208D01*
X129994020Y-109014208D01*
X129869538Y-109026468D01*
X129749840Y-109062778D01*
X129639526Y-109121743D01*
X129542835Y-109201095D01*
X129463483Y-109297786D01*
X129404518Y-109408100D01*
X129368208Y-109527798D01*
X129355948Y-109652280D01*
X129355948Y-110652280D01*
X129368208Y-110776762D01*
X129404518Y-110896460D01*
X129434355Y-110952280D01*
X129404518Y-111008100D01*
X129368208Y-111127798D01*
X129355948Y-111252280D01*
X129355948Y-112252280D01*
X129368208Y-112376762D01*
X129404518Y-112496460D01*
X129463483Y-112606774D01*
X129542835Y-112703465D01*
X129639526Y-112782817D01*
X129749840Y-112841782D01*
X129869538Y-112878092D01*
X129994020Y-112890352D01*
X130894020Y-112890352D01*
X131018502Y-112878092D01*
X131138200Y-112841782D01*
X131248514Y-112782817D01*
X131345205Y-112703465D01*
X131424557Y-112606774D01*
X131475066Y-112512280D01*
X132201321Y-112512280D01*
X132327512Y-112550560D01*
X132486300Y-112566199D01*
X132645087Y-112550560D01*
X132771278Y-112512280D01*
X133512974Y-112512280D01*
X133563483Y-112606774D01*
X133642835Y-112703465D01*
X133739526Y-112782817D01*
X133759020Y-112793237D01*
X133759020Y-113491720D01*
X133759021Y-114986838D01*
X133755223Y-115025400D01*
X133770379Y-115179286D01*
X133815266Y-115327259D01*
X133849197Y-115390740D01*
X133888159Y-115463633D01*
X133924315Y-115507689D01*
X133961675Y-115553212D01*
X133961679Y-115553216D01*
X133986257Y-115583164D01*
X134016205Y-115607742D01*
X134280671Y-115872208D01*
X134094020Y-115872208D01*
X133969538Y-115884468D01*
X133849840Y-115920778D01*
X133739526Y-115979743D01*
X133642835Y-116059095D01*
X133563483Y-116155786D01*
X133512974Y-116250280D01*
X131475066Y-116250280D01*
X131424557Y-116155786D01*
X131345205Y-116059095D01*
X131248514Y-115979743D01*
X131138200Y-115920778D01*
X131018502Y-115884468D01*
X130894020Y-115872208D01*
X129994020Y-115872208D01*
X129869538Y-115884468D01*
X129749840Y-115920778D01*
X129639526Y-115979743D01*
X129542835Y-116059095D01*
X129463483Y-116155786D01*
X129404518Y-116266100D01*
X129368208Y-116385798D01*
X129355948Y-116510280D01*
X129355948Y-117510280D01*
X129368208Y-117634762D01*
X129404518Y-117754460D01*
X129434355Y-117810280D01*
X129404518Y-117866100D01*
X129368208Y-117985798D01*
X129355948Y-118110280D01*
X129355948Y-119110280D01*
X129368208Y-119234762D01*
X129404518Y-119354460D01*
X129463483Y-119464774D01*
X129542835Y-119561465D01*
X129639526Y-119640817D01*
X129749840Y-119699782D01*
X129869538Y-119736092D01*
X129994020Y-119748352D01*
X130894020Y-119748352D01*
X131018502Y-119736092D01*
X131138200Y-119699782D01*
X131248514Y-119640817D01*
X131345205Y-119561465D01*
X131424557Y-119464774D01*
X131475066Y-119370280D01*
X131818741Y-119370280D01*
X131818740Y-120348489D01*
X131818740Y-120348490D01*
X131818741Y-122961822D01*
X131801789Y-123002747D01*
X131780797Y-123108280D01*
X131475066Y-123108280D01*
X131424557Y-123013786D01*
X131345205Y-122917095D01*
X131248514Y-122837743D01*
X131138200Y-122778778D01*
X131018502Y-122742468D01*
X130894020Y-122730208D01*
X129994020Y-122730208D01*
X129869538Y-122742468D01*
X129749840Y-122778778D01*
X129639526Y-122837743D01*
X129542835Y-122917095D01*
X129463483Y-123013786D01*
X129404518Y-123124100D01*
X129368208Y-123243798D01*
X129355948Y-123368280D01*
X129355948Y-124368280D01*
X129368208Y-124492762D01*
X129404518Y-124612460D01*
X129434355Y-124668280D01*
X129404518Y-124724100D01*
X129368208Y-124843798D01*
X129355948Y-124968280D01*
X129355948Y-125968280D01*
X129368208Y-126092762D01*
X129404518Y-126212460D01*
X129463483Y-126322774D01*
X129542835Y-126419465D01*
X129639526Y-126498817D01*
X129749840Y-126557782D01*
X129869538Y-126594092D01*
X129994020Y-126606352D01*
X130894020Y-126606352D01*
X131018502Y-126594092D01*
X131138200Y-126557782D01*
X131248514Y-126498817D01*
X131345205Y-126419465D01*
X131424557Y-126322774D01*
X131475066Y-126228280D01*
X132374041Y-126228280D01*
X132500232Y-126266560D01*
X132659020Y-126282199D01*
X132817807Y-126266560D01*
X132943998Y-126228280D01*
X133512974Y-126228280D01*
X133563483Y-126322774D01*
X133642835Y-126419465D01*
X133739526Y-126498817D01*
X133849840Y-126557782D01*
X133969538Y-126594092D01*
X134094020Y-126606352D01*
X134994020Y-126606352D01*
X135118502Y-126594092D01*
X135238200Y-126557782D01*
X135348514Y-126498817D01*
X135445205Y-126419465D01*
X135524557Y-126322774D01*
X135583522Y-126212460D01*
X135619832Y-126092762D01*
X135632092Y-125968280D01*
X135632092Y-124968280D01*
X135619832Y-124843798D01*
X135583522Y-124724100D01*
X135553685Y-124668280D01*
X135575066Y-124628280D01*
X140207974Y-124628280D01*
X140229355Y-124668280D01*
X140199518Y-124724100D01*
X140163208Y-124843798D01*
X140150948Y-124968280D01*
X140150948Y-125968280D01*
X140163208Y-126092762D01*
X140199518Y-126212460D01*
X140258483Y-126322774D01*
X140337835Y-126419465D01*
X140434526Y-126498817D01*
X140544840Y-126557782D01*
X140664538Y-126594092D01*
X140789020Y-126606352D01*
X141689020Y-126606352D01*
X141813502Y-126594092D01*
X141933200Y-126557782D01*
X142043514Y-126498817D01*
X142140205Y-126419465D01*
X142219557Y-126322774D01*
X142270066Y-126228280D01*
X142991241Y-126228280D01*
X143117432Y-126266560D01*
X143276220Y-126282199D01*
X143435007Y-126266560D01*
X143561198Y-126228280D01*
X144307974Y-126228280D01*
X144358483Y-126322774D01*
X144437835Y-126419465D01*
X144534526Y-126498817D01*
X144644840Y-126557782D01*
X144764538Y-126594092D01*
X144889020Y-126606352D01*
X145789020Y-126606352D01*
X145913502Y-126594092D01*
X146033200Y-126557782D01*
X146143514Y-126498817D01*
X146240205Y-126419465D01*
X146319557Y-126322774D01*
X146378522Y-126212460D01*
X146414832Y-126092762D01*
X146427092Y-125968280D01*
X146427092Y-124968280D01*
X146414832Y-124843798D01*
X146378522Y-124724100D01*
X146348685Y-124668280D01*
X146370066Y-124628280D01*
X150758525Y-124628280D01*
X150803493Y-124641921D01*
X150957380Y-124657078D01*
X151015317Y-124651371D01*
X151024355Y-124668280D01*
X150994518Y-124724100D01*
X150958208Y-124843798D01*
X150945948Y-124968280D01*
X150945948Y-125968280D01*
X150958208Y-126092762D01*
X150994518Y-126212460D01*
X151053483Y-126322774D01*
X151132835Y-126419465D01*
X151229526Y-126498817D01*
X151339840Y-126557782D01*
X151459538Y-126594092D01*
X151584020Y-126606352D01*
X152484020Y-126606352D01*
X152608502Y-126594092D01*
X152728200Y-126557782D01*
X152838514Y-126498817D01*
X152935205Y-126419465D01*
X153014557Y-126322774D01*
X153065066Y-126228280D01*
X154030081Y-126228280D01*
X154156272Y-126266560D01*
X154315060Y-126282199D01*
X154473847Y-126266560D01*
X154600038Y-126228280D01*
X155102974Y-126228280D01*
X155153483Y-126322774D01*
X155232835Y-126419465D01*
X155329526Y-126498817D01*
X155439840Y-126557782D01*
X155559538Y-126594092D01*
X155684020Y-126606352D01*
X156584020Y-126606352D01*
X156708502Y-126594092D01*
X156828200Y-126557782D01*
X156938514Y-126498817D01*
X157035205Y-126419465D01*
X157114557Y-126322774D01*
X157173522Y-126212460D01*
X157209832Y-126092762D01*
X157222092Y-125968280D01*
X157222092Y-124968280D01*
X157209832Y-124843798D01*
X157173522Y-124724100D01*
X157143685Y-124668280D01*
X157173522Y-124612460D01*
X157209832Y-124492762D01*
X157222092Y-124368280D01*
X157222092Y-123368280D01*
X157209832Y-123243798D01*
X157173522Y-123124100D01*
X157114557Y-123013786D01*
X157035205Y-122917095D01*
X156952673Y-122849363D01*
X156997500Y-122812574D01*
X157090225Y-122888671D01*
X157238358Y-122967850D01*
X157399092Y-123016608D01*
X157566250Y-123033072D01*
X158003750Y-123033072D01*
X158170908Y-123016608D01*
X158331642Y-122967850D01*
X158479775Y-122888671D01*
X158609615Y-122782115D01*
X158716171Y-122652275D01*
X158795350Y-122504142D01*
X158844108Y-122343408D01*
X158860572Y-122176250D01*
X158860572Y-121663750D01*
X158844108Y-121496592D01*
X158795350Y-121335858D01*
X158716171Y-121187725D01*
X158609615Y-121057885D01*
X158479775Y-120951329D01*
X158331642Y-120872150D01*
X158170908Y-120823392D01*
X158003750Y-120806928D01*
X157969640Y-120806928D01*
X157909000Y-120746288D01*
X157909000Y-116175072D01*
X158003750Y-116175072D01*
X158170908Y-116158608D01*
X158331642Y-116109850D01*
X158479775Y-116030671D01*
X158609615Y-115924115D01*
X158716171Y-115794275D01*
X158795350Y-115646142D01*
X158844108Y-115485408D01*
X158860572Y-115318250D01*
X158860572Y-114805750D01*
X158844108Y-114638592D01*
X158795350Y-114477858D01*
X158716171Y-114329725D01*
X158609615Y-114199885D01*
X158479775Y-114093329D01*
X158331642Y-114014150D01*
X158170908Y-113965392D01*
X158003750Y-113948928D01*
X157909000Y-113948928D01*
X157909000Y-109317072D01*
X158003750Y-109317072D01*
X158170908Y-109300608D01*
X158331642Y-109251850D01*
X158479775Y-109172671D01*
X158609615Y-109066115D01*
X158716171Y-108936275D01*
X158795350Y-108788142D01*
X158844108Y-108627408D01*
X158860572Y-108460250D01*
X158860572Y-107947750D01*
X158844108Y-107780592D01*
X158795350Y-107619858D01*
X158716171Y-107471725D01*
X158609615Y-107341885D01*
X158479775Y-107235329D01*
X158331642Y-107156150D01*
X158170908Y-107107392D01*
X158003750Y-107090928D01*
X157909000Y-107090928D01*
X157909000Y-102459072D01*
X158003750Y-102459072D01*
X158170908Y-102442608D01*
X158331642Y-102393850D01*
X158479775Y-102314671D01*
X158609615Y-102208115D01*
X158716171Y-102078275D01*
X158795350Y-101930142D01*
X158844108Y-101769408D01*
X158860572Y-101602250D01*
X158860572Y-101089750D01*
X158844108Y-100922592D01*
X158795350Y-100761858D01*
X158716171Y-100613725D01*
X158609615Y-100483885D01*
X158479775Y-100377329D01*
X158331642Y-100298150D01*
X158170908Y-100249392D01*
X158003750Y-100232928D01*
X157909000Y-100232928D01*
X157909000Y-95093072D01*
X157978250Y-95093072D01*
X158145408Y-95076608D01*
X158306142Y-95027850D01*
X158454275Y-94948671D01*
X158584115Y-94842115D01*
X158690671Y-94712275D01*
X158769850Y-94564142D01*
X158818608Y-94403408D01*
X158835072Y-94236250D01*
X158835072Y-93723750D01*
X158818608Y-93556592D01*
X158769850Y-93395858D01*
X158690671Y-93247725D01*
X158584115Y-93117885D01*
X158454275Y-93011329D01*
X158306142Y-92932150D01*
X158145408Y-92883392D01*
X157978250Y-92866928D01*
X157909000Y-92866928D01*
X157909000Y-88326801D01*
X158000730Y-88235072D01*
X158003750Y-88235072D01*
X158170908Y-88218608D01*
X158331642Y-88169850D01*
X158479775Y-88090671D01*
X158609615Y-87984115D01*
X158716171Y-87854275D01*
X158795350Y-87706142D01*
X158844108Y-87545408D01*
X158860572Y-87378250D01*
X158860572Y-86865750D01*
X158844108Y-86698592D01*
X158795350Y-86537858D01*
X158716171Y-86389725D01*
X158609615Y-86259885D01*
X158479775Y-86153329D01*
X158331642Y-86074150D01*
X158170908Y-86025392D01*
X158003750Y-86008928D01*
X157712817Y-86008928D01*
X157674528Y-85962272D01*
X157643614Y-85936902D01*
X157318900Y-85612188D01*
X157293528Y-85581272D01*
X157170189Y-85480051D01*
X157029473Y-85404837D01*
X156876788Y-85358520D01*
X156757791Y-85346800D01*
X156757788Y-85346800D01*
X156718000Y-85342881D01*
X156678212Y-85346800D01*
X152795387Y-85346800D01*
X152755599Y-85342881D01*
X152715811Y-85346800D01*
X152715809Y-85346800D01*
X152596812Y-85358520D01*
X152444127Y-85404837D01*
X152440947Y-85406537D01*
X152303410Y-85480051D01*
X152252718Y-85521653D01*
X152180072Y-85581272D01*
X152154705Y-85612182D01*
X150832588Y-86934300D01*
X150607464Y-86934300D01*
X150498940Y-86876293D01*
X150322692Y-86822829D01*
X150185332Y-86809300D01*
X148697888Y-86809300D01*
X148686800Y-86798211D01*
X148686800Y-81906497D01*
X156035800Y-81906497D01*
X156035800Y-82075903D01*
X156068849Y-82242053D01*
X156133678Y-82398563D01*
X156227795Y-82539418D01*
X156347582Y-82659205D01*
X156488437Y-82753322D01*
X156644947Y-82818151D01*
X156811097Y-82851200D01*
X156980503Y-82851200D01*
X157146653Y-82818151D01*
X157303163Y-82753322D01*
X157444018Y-82659205D01*
X157563805Y-82539418D01*
X157657922Y-82398563D01*
X157722751Y-82242053D01*
X157755800Y-82075903D01*
X157755800Y-81906497D01*
X157722751Y-81740347D01*
X157657922Y-81583837D01*
X157655800Y-81580661D01*
X157655800Y-81442401D01*
X161902604Y-77195598D01*
X161931601Y-77171801D01*
X162026574Y-77056076D01*
X162097146Y-76924047D01*
X162140603Y-76780786D01*
X162151600Y-76669133D01*
X162151600Y-76669124D01*
X162155276Y-76631801D01*
X162151600Y-76594478D01*
X162151600Y-76508939D01*
X162153722Y-76505763D01*
X162218551Y-76349253D01*
X162251600Y-76183103D01*
X162251600Y-76013697D01*
X162218551Y-75847547D01*
X162153722Y-75691037D01*
X162059605Y-75550182D01*
X161939818Y-75430395D01*
X161798963Y-75336278D01*
X161642453Y-75271449D01*
X161476303Y-75238400D01*
X161306897Y-75238400D01*
X161140747Y-75271449D01*
X160984237Y-75336278D01*
X160843382Y-75430395D01*
X160723595Y-75550182D01*
X160629478Y-75691037D01*
X160564649Y-75847547D01*
X160531600Y-76013697D01*
X160531600Y-76183103D01*
X160564649Y-76349253D01*
X160574811Y-76373787D01*
X156384798Y-80563801D01*
X156355800Y-80587599D01*
X156332002Y-80616597D01*
X156332001Y-80616598D01*
X156260826Y-80703324D01*
X156190254Y-80835354D01*
X156159980Y-80935158D01*
X156146798Y-80978614D01*
X156135800Y-81090267D01*
X156135800Y-81090278D01*
X156132124Y-81127600D01*
X156135800Y-81164922D01*
X156135800Y-81580661D01*
X156133678Y-81583837D01*
X156068849Y-81740347D01*
X156035800Y-81906497D01*
X148686800Y-81906497D01*
X148686800Y-79662231D01*
X148691324Y-79616299D01*
X148673271Y-79433008D01*
X148619807Y-79256760D01*
X148532986Y-79094328D01*
X148416144Y-78951956D01*
X148380460Y-78922671D01*
X146654800Y-77197011D01*
X146654800Y-76686797D01*
X152022600Y-76686797D01*
X152022600Y-76856203D01*
X152055649Y-77022353D01*
X152120478Y-77178863D01*
X152214595Y-77319718D01*
X152334382Y-77439505D01*
X152475237Y-77533622D01*
X152631747Y-77598451D01*
X152797897Y-77631500D01*
X152967303Y-77631500D01*
X153133453Y-77598451D01*
X153289963Y-77533622D01*
X153293139Y-77531500D01*
X153454878Y-77531500D01*
X153492200Y-77535176D01*
X153529522Y-77531500D01*
X153529533Y-77531500D01*
X153641186Y-77520503D01*
X153784447Y-77477046D01*
X153916476Y-77406474D01*
X154032201Y-77311501D01*
X154056003Y-77282498D01*
X154411890Y-76926612D01*
X154562147Y-76988851D01*
X154728297Y-77021900D01*
X154897703Y-77021900D01*
X155063853Y-76988851D01*
X155220363Y-76924022D01*
X155361218Y-76829905D01*
X155481005Y-76710118D01*
X155575122Y-76569263D01*
X155639951Y-76412753D01*
X155673000Y-76246603D01*
X155673000Y-76077197D01*
X155639951Y-75911047D01*
X155575122Y-75754537D01*
X155481005Y-75613682D01*
X155361218Y-75493895D01*
X155220363Y-75399778D01*
X155063853Y-75334949D01*
X154897703Y-75301900D01*
X154728297Y-75301900D01*
X154562147Y-75334949D01*
X154405637Y-75399778D01*
X154402461Y-75401900D01*
X154139133Y-75401900D01*
X154101800Y-75398223D01*
X154064467Y-75401900D01*
X153952814Y-75412897D01*
X153809553Y-75456354D01*
X153677524Y-75526926D01*
X153561799Y-75621899D01*
X153538000Y-75650898D01*
X153211869Y-75977030D01*
X153133453Y-75944549D01*
X152967303Y-75911500D01*
X152797897Y-75911500D01*
X152631747Y-75944549D01*
X152475237Y-76009378D01*
X152334382Y-76103495D01*
X152214595Y-76223282D01*
X152120478Y-76364137D01*
X152055649Y-76520647D01*
X152022600Y-76686797D01*
X146654800Y-76686797D01*
X146654800Y-73567500D01*
X146668103Y-73567500D01*
X146834253Y-73534451D01*
X146990763Y-73469622D01*
X146993939Y-73467500D01*
X147269978Y-73467500D01*
X147307300Y-73471176D01*
X147344622Y-73467500D01*
X147344633Y-73467500D01*
X147456286Y-73456503D01*
X147599547Y-73413046D01*
X147731576Y-73342474D01*
X147847301Y-73247501D01*
X147871103Y-73218498D01*
X148096529Y-72993072D01*
X148175097Y-73008700D01*
X148344503Y-73008700D01*
X148510653Y-72975651D01*
X148667163Y-72910822D01*
X148808018Y-72816705D01*
X148927805Y-72696918D01*
X149021922Y-72556063D01*
X149086751Y-72399553D01*
X149119800Y-72233403D01*
X149119800Y-72063997D01*
X149086751Y-71897847D01*
X149021922Y-71741337D01*
X148927805Y-71600482D01*
X148808018Y-71480695D01*
X148667163Y-71386578D01*
X148510653Y-71321749D01*
X148344503Y-71288700D01*
X148175097Y-71288700D01*
X148008947Y-71321749D01*
X147853100Y-71386303D01*
X147828767Y-71388700D01*
X147717114Y-71399697D01*
X147573853Y-71443154D01*
X147441824Y-71513726D01*
X147326099Y-71608699D01*
X147302300Y-71637698D01*
X146993075Y-71946923D01*
X146990763Y-71945378D01*
X146955300Y-71930689D01*
X148325259Y-70560731D01*
X148470656Y-70500505D01*
X148640174Y-70387237D01*
X148784337Y-70243074D01*
X148897605Y-70073556D01*
X148975626Y-69885198D01*
X149015400Y-69685239D01*
X149015400Y-69481361D01*
X148975626Y-69281402D01*
X148897605Y-69093044D01*
X148784337Y-68923526D01*
X148640174Y-68779363D01*
X148470656Y-68666095D01*
X148452983Y-68658774D01*
X148997684Y-68114073D01*
X149098963Y-68072122D01*
X149239818Y-67978005D01*
X149359605Y-67858218D01*
X149453722Y-67717363D01*
X149518551Y-67560853D01*
X149551600Y-67394703D01*
X149551600Y-67225297D01*
X149518551Y-67059147D01*
X149453722Y-66902637D01*
X149359605Y-66761782D01*
X149239818Y-66641995D01*
X149098963Y-66547878D01*
X148942453Y-66483049D01*
X148857179Y-66466087D01*
X148869124Y-66344800D01*
X148864600Y-66298865D01*
X148864600Y-48112468D01*
X148851071Y-47975108D01*
X148797607Y-47798860D01*
X148710786Y-47636428D01*
X148593944Y-47494056D01*
X148451572Y-47377214D01*
X148289140Y-47290393D01*
X148112892Y-47236929D01*
X147929600Y-47218876D01*
X147746309Y-47236929D01*
X147570061Y-47290393D01*
X147407629Y-47377214D01*
X147265257Y-47494056D01*
X147148415Y-47636428D01*
X147061594Y-47798860D01*
X147008130Y-47975108D01*
X146994601Y-48112468D01*
X146994600Y-52317201D01*
X141297151Y-52317201D01*
X141258598Y-52313404D01*
X141220045Y-52317201D01*
X141220038Y-52317201D01*
X141104712Y-52328560D01*
X140956739Y-52373447D01*
X140902197Y-52402600D01*
X138620952Y-52402600D01*
X138582399Y-52398803D01*
X138543846Y-52402600D01*
X138543839Y-52402600D01*
X138442890Y-52412543D01*
X138428512Y-52413959D01*
X138394072Y-52424406D01*
X138280540Y-52458846D01*
X138144167Y-52531738D01*
X138083959Y-52581150D01*
X138054587Y-52605255D01*
X138054584Y-52605258D01*
X138024636Y-52629836D01*
X138000058Y-52659785D01*
X137155844Y-53503999D01*
X126667400Y-53503999D01*
X126667400Y-50127356D01*
X126671197Y-50088800D01*
X126667400Y-50050240D01*
X126667400Y-50050239D01*
X126661203Y-49987322D01*
X126656042Y-49934913D01*
X126611154Y-49786940D01*
X126593019Y-49753012D01*
X126538262Y-49650567D01*
X126440164Y-49531036D01*
X126410211Y-49506454D01*
X125822874Y-48919117D01*
X125780922Y-48817837D01*
X125686805Y-48676982D01*
X125567018Y-48557195D01*
X125426163Y-48463078D01*
X125269653Y-48398249D01*
X125103503Y-48365200D01*
X124934097Y-48365200D01*
X124767947Y-48398249D01*
X124611437Y-48463078D01*
X124470582Y-48557195D01*
X124467800Y-48559977D01*
X124467800Y-48535917D01*
X124401125Y-48200719D01*
X124270337Y-47884969D01*
X124080463Y-47600802D01*
X123838798Y-47359137D01*
X123554631Y-47169263D01*
X123238881Y-47038475D01*
X122903683Y-46971800D01*
X122561917Y-46971800D01*
X122226719Y-47038475D01*
X121910969Y-47169263D01*
X121715657Y-47299766D01*
X121660732Y-47023642D01*
X121548790Y-46753389D01*
X121386275Y-46510168D01*
X121179432Y-46303325D01*
X120936211Y-46140810D01*
X120665958Y-46028868D01*
X120500543Y-45995965D01*
X120500085Y-45160861D01*
X159747000Y-45160861D01*
X159747000Y-45364739D01*
X159786774Y-45564698D01*
X159864795Y-45753056D01*
X159978063Y-45922574D01*
X160122226Y-46066737D01*
X160291744Y-46180005D01*
X160480102Y-46258026D01*
X160680061Y-46297800D01*
X160883939Y-46297800D01*
X161083898Y-46258026D01*
X161272256Y-46180005D01*
X161441774Y-46066737D01*
X161460711Y-46047800D01*
X161505447Y-46047800D01*
X161544000Y-46051597D01*
X161582553Y-46047800D01*
X161582561Y-46047800D01*
X161697887Y-46036441D01*
X161845860Y-45991554D01*
X161982233Y-45918662D01*
X162101764Y-45820564D01*
X162112358Y-45807655D01*
X162183908Y-45800608D01*
X162344642Y-45751850D01*
X162492775Y-45672671D01*
X162585500Y-45596574D01*
X162678225Y-45672671D01*
X162826358Y-45751850D01*
X162987092Y-45800608D01*
X163154250Y-45817072D01*
X163591750Y-45817072D01*
X163758908Y-45800608D01*
X163919642Y-45751850D01*
X164067775Y-45672671D01*
X164197615Y-45566115D01*
X164304171Y-45436275D01*
X164383350Y-45288142D01*
X164432108Y-45127408D01*
X164448572Y-44960250D01*
X164448572Y-44447750D01*
X164432108Y-44280592D01*
X164383350Y-44119858D01*
X164308822Y-43980427D01*
X164368026Y-43837498D01*
X164407800Y-43637539D01*
X164407800Y-43433661D01*
X164368026Y-43233702D01*
X164290005Y-43045344D01*
X164278790Y-43028559D01*
X164303971Y-42997875D01*
X164383150Y-42849742D01*
X164431908Y-42689008D01*
X164448372Y-42521850D01*
X164448372Y-42009350D01*
X164431908Y-41842192D01*
X164383150Y-41681458D01*
X164303971Y-41533325D01*
X164197415Y-41403485D01*
X164067575Y-41296929D01*
X163919442Y-41217750D01*
X163758708Y-41168992D01*
X163591550Y-41152528D01*
X163154050Y-41152528D01*
X162986892Y-41168992D01*
X162826158Y-41217750D01*
X162678025Y-41296929D01*
X162585300Y-41373026D01*
X162492575Y-41296929D01*
X162344442Y-41217750D01*
X162183708Y-41168992D01*
X162016550Y-41152528D01*
X161579050Y-41152528D01*
X161411892Y-41168992D01*
X161410227Y-41169497D01*
X161373856Y-41145195D01*
X161185498Y-41067174D01*
X160985539Y-41027400D01*
X160781661Y-41027400D01*
X160581702Y-41067174D01*
X160393344Y-41145195D01*
X160223826Y-41258463D01*
X160079663Y-41402626D01*
X159966395Y-41572144D01*
X159888374Y-41760502D01*
X159848600Y-41960461D01*
X159848600Y-42164339D01*
X159888374Y-42364298D01*
X159966395Y-42552656D01*
X160079663Y-42722174D01*
X160223826Y-42866337D01*
X160393344Y-42979605D01*
X160581702Y-43057626D01*
X160781661Y-43097400D01*
X160948306Y-43097400D01*
X160973185Y-43127715D01*
X161103025Y-43234271D01*
X161251158Y-43313450D01*
X161411892Y-43362208D01*
X161579050Y-43378672D01*
X162016550Y-43378672D01*
X162183708Y-43362208D01*
X162344442Y-43313450D01*
X162363766Y-43303121D01*
X162337800Y-43433661D01*
X162337800Y-43637539D01*
X162341300Y-43655136D01*
X162183908Y-43607392D01*
X162016750Y-43590928D01*
X161579250Y-43590928D01*
X161412092Y-43607392D01*
X161251358Y-43656150D01*
X161103225Y-43735329D01*
X160973385Y-43841885D01*
X160866829Y-43971725D01*
X160787650Y-44119858D01*
X160754906Y-44227800D01*
X160680061Y-44227800D01*
X160480102Y-44267574D01*
X160291744Y-44345595D01*
X160122226Y-44458863D01*
X159978063Y-44603026D01*
X159864795Y-44772544D01*
X159786774Y-44960902D01*
X159747000Y-45160861D01*
X120500085Y-45160861D01*
X120497670Y-40767000D01*
X121274087Y-40767000D01*
X121195263Y-40884969D01*
G36*
X146679781Y-117521283D02*
G01*
X146703579Y-117550281D01*
X146819304Y-117645254D01*
X146951333Y-117715826D01*
X147094594Y-117759283D01*
X147206247Y-117770280D01*
X147206256Y-117770280D01*
X147243579Y-117773956D01*
X147280902Y-117770280D01*
X150028223Y-117770280D01*
X150036349Y-117811133D01*
X150101178Y-117967643D01*
X150172381Y-118074205D01*
X150172380Y-123108280D01*
X146370066Y-123108280D01*
X146319557Y-123013786D01*
X146240205Y-122917095D01*
X146143514Y-122837743D01*
X146033200Y-122778778D01*
X145913502Y-122742468D01*
X145789020Y-122730208D01*
X144889020Y-122730208D01*
X144764538Y-122742468D01*
X144644840Y-122778778D01*
X144534526Y-122837743D01*
X144437835Y-122917095D01*
X144358483Y-123013786D01*
X144307974Y-123108280D01*
X144111497Y-123108280D01*
X144103371Y-123067427D01*
X144086420Y-123026504D01*
X144086420Y-119370280D01*
X144307974Y-119370280D01*
X144358483Y-119464774D01*
X144437835Y-119561465D01*
X144534526Y-119640817D01*
X144644840Y-119699782D01*
X144764538Y-119736092D01*
X144889020Y-119748352D01*
X145789020Y-119748352D01*
X145913502Y-119736092D01*
X146033200Y-119699782D01*
X146143514Y-119640817D01*
X146240205Y-119561465D01*
X146319557Y-119464774D01*
X146378522Y-119354460D01*
X146414832Y-119234762D01*
X146427092Y-119110280D01*
X146427092Y-118110280D01*
X146414832Y-117985798D01*
X146378522Y-117866100D01*
X146348685Y-117810280D01*
X146378522Y-117754460D01*
X146414832Y-117634762D01*
X146427092Y-117510280D01*
X146427092Y-117268594D01*
X146679781Y-117521283D01*
G37*
X146679781Y-117521283D02*
X146703579Y-117550281D01*
X146819304Y-117645254D01*
X146951333Y-117715826D01*
X147094594Y-117759283D01*
X147206247Y-117770280D01*
X147206256Y-117770280D01*
X147243579Y-117773956D01*
X147280902Y-117770280D01*
X150028223Y-117770280D01*
X150036349Y-117811133D01*
X150101178Y-117967643D01*
X150172381Y-118074205D01*
X150172380Y-123108280D01*
X146370066Y-123108280D01*
X146319557Y-123013786D01*
X146240205Y-122917095D01*
X146143514Y-122837743D01*
X146033200Y-122778778D01*
X145913502Y-122742468D01*
X145789020Y-122730208D01*
X144889020Y-122730208D01*
X144764538Y-122742468D01*
X144644840Y-122778778D01*
X144534526Y-122837743D01*
X144437835Y-122917095D01*
X144358483Y-123013786D01*
X144307974Y-123108280D01*
X144111497Y-123108280D01*
X144103371Y-123067427D01*
X144086420Y-123026504D01*
X144086420Y-119370280D01*
X144307974Y-119370280D01*
X144358483Y-119464774D01*
X144437835Y-119561465D01*
X144534526Y-119640817D01*
X144644840Y-119699782D01*
X144764538Y-119736092D01*
X144889020Y-119748352D01*
X145789020Y-119748352D01*
X145913502Y-119736092D01*
X146033200Y-119699782D01*
X146143514Y-119640817D01*
X146240205Y-119561465D01*
X146319557Y-119464774D01*
X146378522Y-119354460D01*
X146414832Y-119234762D01*
X146427092Y-119110280D01*
X146427092Y-118110280D01*
X146414832Y-117985798D01*
X146378522Y-117866100D01*
X146348685Y-117810280D01*
X146378522Y-117754460D01*
X146414832Y-117634762D01*
X146427092Y-117510280D01*
X146427092Y-117268594D01*
X146679781Y-117521283D01*
G36*
X153333711Y-119382709D02*
G01*
X153344028Y-119395280D01*
X153434932Y-119506048D01*
X153465848Y-119531420D01*
X153528021Y-119593593D01*
X153528020Y-123032841D01*
X153518660Y-123079897D01*
X153518660Y-123108280D01*
X153065066Y-123108280D01*
X153014557Y-123013786D01*
X152935205Y-122917095D01*
X152838514Y-122837743D01*
X152728200Y-122778778D01*
X152608502Y-122742468D01*
X152484020Y-122730208D01*
X151742380Y-122730208D01*
X151742380Y-119748352D01*
X152484020Y-119748352D01*
X152608502Y-119736092D01*
X152728200Y-119699782D01*
X152838514Y-119640817D01*
X152935205Y-119561465D01*
X153014557Y-119464774D01*
X153065066Y-119370280D01*
X153327068Y-119370280D01*
X153333711Y-119382709D01*
G37*
X153333711Y-119382709D02*
X153344028Y-119395280D01*
X153434932Y-119506048D01*
X153465848Y-119531420D01*
X153528021Y-119593593D01*
X153528020Y-123032841D01*
X153518660Y-123079897D01*
X153518660Y-123108280D01*
X153065066Y-123108280D01*
X153014557Y-123013786D01*
X152935205Y-122917095D01*
X152838514Y-122837743D01*
X152728200Y-122778778D01*
X152608502Y-122742468D01*
X152484020Y-122730208D01*
X151742380Y-122730208D01*
X151742380Y-119748352D01*
X152484020Y-119748352D01*
X152608502Y-119736092D01*
X152728200Y-119699782D01*
X152838514Y-119640817D01*
X152935205Y-119561465D01*
X153014557Y-119464774D01*
X153065066Y-119370280D01*
X153327068Y-119370280D01*
X153333711Y-119382709D01*
G36*
X140229355Y-117810280D02*
G01*
X140199518Y-117866100D01*
X140163208Y-117985798D01*
X140150948Y-118110280D01*
X140150948Y-119110280D01*
X140163208Y-119234762D01*
X140199518Y-119354460D01*
X140258483Y-119464774D01*
X140337835Y-119561465D01*
X140434526Y-119640817D01*
X140544840Y-119699782D01*
X140664538Y-119736092D01*
X140789020Y-119748352D01*
X141689020Y-119748352D01*
X141813502Y-119736092D01*
X141933200Y-119699782D01*
X142043514Y-119640817D01*
X142140205Y-119561465D01*
X142219557Y-119464774D01*
X142270066Y-119370280D01*
X142466421Y-119370280D01*
X142466420Y-120428070D01*
X142466421Y-120428080D01*
X142466420Y-123026504D01*
X142449469Y-123067427D01*
X142441343Y-123108280D01*
X142270066Y-123108280D01*
X142219557Y-123013786D01*
X142140205Y-122917095D01*
X142043514Y-122837743D01*
X141933200Y-122778778D01*
X141813502Y-122742468D01*
X141689020Y-122730208D01*
X140789020Y-122730208D01*
X140664538Y-122742468D01*
X140544840Y-122778778D01*
X140434526Y-122837743D01*
X140337835Y-122917095D01*
X140258483Y-123013786D01*
X140207974Y-123108280D01*
X135575066Y-123108280D01*
X135524557Y-123013786D01*
X135445205Y-122917095D01*
X135348514Y-122837743D01*
X135238200Y-122778778D01*
X135118502Y-122742468D01*
X134994020Y-122730208D01*
X134094020Y-122730208D01*
X133969538Y-122742468D01*
X133849840Y-122778778D01*
X133739526Y-122837743D01*
X133642835Y-122917095D01*
X133563483Y-123013786D01*
X133512974Y-123108280D01*
X133476683Y-123108280D01*
X133455691Y-123002747D01*
X133438740Y-122961824D01*
X133438740Y-119370280D01*
X133512974Y-119370280D01*
X133563483Y-119464774D01*
X133642835Y-119561465D01*
X133739526Y-119640817D01*
X133849840Y-119699782D01*
X133969538Y-119736092D01*
X134094020Y-119748352D01*
X134994020Y-119748352D01*
X135118502Y-119736092D01*
X135238200Y-119699782D01*
X135348514Y-119640817D01*
X135445205Y-119561465D01*
X135524557Y-119464774D01*
X135583522Y-119354460D01*
X135605061Y-119283456D01*
X135637453Y-119266142D01*
X135756984Y-119168044D01*
X135781567Y-119138091D01*
X136506717Y-118412941D01*
X136536664Y-118388364D01*
X136564052Y-118354993D01*
X136602273Y-118308420D01*
X136634762Y-118268833D01*
X136707654Y-118132460D01*
X136734187Y-118044992D01*
X136741022Y-118034763D01*
X136805851Y-117878253D01*
X136827328Y-117770280D01*
X140207974Y-117770280D01*
X140229355Y-117810280D01*
G37*
X140229355Y-117810280D02*
X140199518Y-117866100D01*
X140163208Y-117985798D01*
X140150948Y-118110280D01*
X140150948Y-119110280D01*
X140163208Y-119234762D01*
X140199518Y-119354460D01*
X140258483Y-119464774D01*
X140337835Y-119561465D01*
X140434526Y-119640817D01*
X140544840Y-119699782D01*
X140664538Y-119736092D01*
X140789020Y-119748352D01*
X141689020Y-119748352D01*
X141813502Y-119736092D01*
X141933200Y-119699782D01*
X142043514Y-119640817D01*
X142140205Y-119561465D01*
X142219557Y-119464774D01*
X142270066Y-119370280D01*
X142466421Y-119370280D01*
X142466420Y-120428070D01*
X142466421Y-120428080D01*
X142466420Y-123026504D01*
X142449469Y-123067427D01*
X142441343Y-123108280D01*
X142270066Y-123108280D01*
X142219557Y-123013786D01*
X142140205Y-122917095D01*
X142043514Y-122837743D01*
X141933200Y-122778778D01*
X141813502Y-122742468D01*
X141689020Y-122730208D01*
X140789020Y-122730208D01*
X140664538Y-122742468D01*
X140544840Y-122778778D01*
X140434526Y-122837743D01*
X140337835Y-122917095D01*
X140258483Y-123013786D01*
X140207974Y-123108280D01*
X135575066Y-123108280D01*
X135524557Y-123013786D01*
X135445205Y-122917095D01*
X135348514Y-122837743D01*
X135238200Y-122778778D01*
X135118502Y-122742468D01*
X134994020Y-122730208D01*
X134094020Y-122730208D01*
X133969538Y-122742468D01*
X133849840Y-122778778D01*
X133739526Y-122837743D01*
X133642835Y-122917095D01*
X133563483Y-123013786D01*
X133512974Y-123108280D01*
X133476683Y-123108280D01*
X133455691Y-123002747D01*
X133438740Y-122961824D01*
X133438740Y-119370280D01*
X133512974Y-119370280D01*
X133563483Y-119464774D01*
X133642835Y-119561465D01*
X133739526Y-119640817D01*
X133849840Y-119699782D01*
X133969538Y-119736092D01*
X134094020Y-119748352D01*
X134994020Y-119748352D01*
X135118502Y-119736092D01*
X135238200Y-119699782D01*
X135348514Y-119640817D01*
X135445205Y-119561465D01*
X135524557Y-119464774D01*
X135583522Y-119354460D01*
X135605061Y-119283456D01*
X135637453Y-119266142D01*
X135756984Y-119168044D01*
X135781567Y-119138091D01*
X136506717Y-118412941D01*
X136536664Y-118388364D01*
X136564052Y-118354993D01*
X136602273Y-118308420D01*
X136634762Y-118268833D01*
X136707654Y-118132460D01*
X136734187Y-118044992D01*
X136741022Y-118034763D01*
X136805851Y-117878253D01*
X136827328Y-117770280D01*
X140207974Y-117770280D01*
X140229355Y-117810280D01*
G36*
X155153483Y-119464774D02*
G01*
X155232835Y-119561465D01*
X155329526Y-119640817D01*
X155439840Y-119699782D01*
X155559538Y-119736092D01*
X155684020Y-119748352D01*
X156289000Y-119748352D01*
X156289000Y-120806928D01*
X155991250Y-120806928D01*
X155824092Y-120823392D01*
X155663358Y-120872150D01*
X155515225Y-120951329D01*
X155385385Y-121057885D01*
X155278829Y-121187725D01*
X155199650Y-121335858D01*
X155150892Y-121496592D01*
X155148020Y-121525751D01*
X155148020Y-119454554D01*
X155153483Y-119464774D01*
G37*
X155153483Y-119464774D02*
X155232835Y-119561465D01*
X155329526Y-119640817D01*
X155439840Y-119699782D01*
X155559538Y-119736092D01*
X155684020Y-119748352D01*
X156289000Y-119748352D01*
X156289000Y-120806928D01*
X155991250Y-120806928D01*
X155824092Y-120823392D01*
X155663358Y-120872150D01*
X155515225Y-120951329D01*
X155385385Y-121057885D01*
X155278829Y-121187725D01*
X155199650Y-121335858D01*
X155150892Y-121496592D01*
X155148020Y-121525751D01*
X155148020Y-119454554D01*
X155153483Y-119464774D01*
G36*
X139361317Y-110914402D02*
G01*
X139517827Y-110979231D01*
X139683977Y-111012280D01*
X139853383Y-111012280D01*
X140019533Y-110979231D01*
X140176043Y-110914402D01*
X140179219Y-110912280D01*
X140207974Y-110912280D01*
X140229355Y-110952280D01*
X140199518Y-111008100D01*
X140163208Y-111127798D01*
X140150948Y-111252280D01*
X140150948Y-112252280D01*
X140163208Y-112376762D01*
X140199518Y-112496460D01*
X140258483Y-112606774D01*
X140337835Y-112703465D01*
X140434526Y-112782817D01*
X140544840Y-112841782D01*
X140664538Y-112878092D01*
X140789020Y-112890352D01*
X141689020Y-112890352D01*
X141813502Y-112878092D01*
X141933200Y-112841782D01*
X142043514Y-112782817D01*
X142140205Y-112703465D01*
X142219557Y-112606774D01*
X142270066Y-112512280D01*
X142390021Y-112512280D01*
X142390020Y-113490489D01*
X142390020Y-113490490D01*
X142390021Y-116250280D01*
X142270066Y-116250280D01*
X142219557Y-116155786D01*
X142140205Y-116059095D01*
X142043514Y-115979743D01*
X141933200Y-115920778D01*
X141813502Y-115884468D01*
X141689020Y-115872208D01*
X140789020Y-115872208D01*
X140664538Y-115884468D01*
X140544840Y-115920778D01*
X140434526Y-115979743D01*
X140337835Y-116059095D01*
X140258483Y-116155786D01*
X140207974Y-116250280D01*
X136813977Y-116250280D01*
X136805851Y-116209427D01*
X136741022Y-116052917D01*
X136646905Y-115912062D01*
X136527118Y-115792275D01*
X136386263Y-115698158D01*
X136284983Y-115656206D01*
X135329020Y-114700243D01*
X135329020Y-112793237D01*
X135348514Y-112782817D01*
X135445205Y-112703465D01*
X135524557Y-112606774D01*
X135583522Y-112496460D01*
X135619832Y-112376762D01*
X135632092Y-112252280D01*
X135632092Y-111252280D01*
X135619832Y-111127798D01*
X135583522Y-111008100D01*
X135553685Y-110952280D01*
X135575066Y-110912280D01*
X139358141Y-110912280D01*
X139361317Y-110914402D01*
G37*
X139361317Y-110914402D02*
X139517827Y-110979231D01*
X139683977Y-111012280D01*
X139853383Y-111012280D01*
X140019533Y-110979231D01*
X140176043Y-110914402D01*
X140179219Y-110912280D01*
X140207974Y-110912280D01*
X140229355Y-110952280D01*
X140199518Y-111008100D01*
X140163208Y-111127798D01*
X140150948Y-111252280D01*
X140150948Y-112252280D01*
X140163208Y-112376762D01*
X140199518Y-112496460D01*
X140258483Y-112606774D01*
X140337835Y-112703465D01*
X140434526Y-112782817D01*
X140544840Y-112841782D01*
X140664538Y-112878092D01*
X140789020Y-112890352D01*
X141689020Y-112890352D01*
X141813502Y-112878092D01*
X141933200Y-112841782D01*
X142043514Y-112782817D01*
X142140205Y-112703465D01*
X142219557Y-112606774D01*
X142270066Y-112512280D01*
X142390021Y-112512280D01*
X142390020Y-113490489D01*
X142390020Y-113490490D01*
X142390021Y-116250280D01*
X142270066Y-116250280D01*
X142219557Y-116155786D01*
X142140205Y-116059095D01*
X142043514Y-115979743D01*
X141933200Y-115920778D01*
X141813502Y-115884468D01*
X141689020Y-115872208D01*
X140789020Y-115872208D01*
X140664538Y-115884468D01*
X140544840Y-115920778D01*
X140434526Y-115979743D01*
X140337835Y-116059095D01*
X140258483Y-116155786D01*
X140207974Y-116250280D01*
X136813977Y-116250280D01*
X136805851Y-116209427D01*
X136741022Y-116052917D01*
X136646905Y-115912062D01*
X136527118Y-115792275D01*
X136386263Y-115698158D01*
X136284983Y-115656206D01*
X135329020Y-114700243D01*
X135329020Y-112793237D01*
X135348514Y-112782817D01*
X135445205Y-112703465D01*
X135524557Y-112606774D01*
X135583522Y-112496460D01*
X135619832Y-112376762D01*
X135632092Y-112252280D01*
X135632092Y-111252280D01*
X135619832Y-111127798D01*
X135583522Y-111008100D01*
X135553685Y-110952280D01*
X135575066Y-110912280D01*
X139358141Y-110912280D01*
X139361317Y-110914402D01*
G36*
X147831600Y-110964097D02*
G01*
X147831600Y-111133503D01*
X147864649Y-111299653D01*
X147929478Y-111456163D01*
X147931601Y-111459340D01*
X147931600Y-115464261D01*
X147929478Y-115467437D01*
X147864649Y-115623947D01*
X147831600Y-115790097D01*
X147831600Y-115959503D01*
X147864649Y-116125653D01*
X147916272Y-116250280D01*
X147558382Y-116250280D01*
X147076300Y-115768199D01*
X147076300Y-111172331D01*
X147118251Y-111071053D01*
X147149833Y-110912280D01*
X147841907Y-110912280D01*
X147831600Y-110964097D01*
G37*
X147831600Y-110964097D02*
X147831600Y-111133503D01*
X147864649Y-111299653D01*
X147929478Y-111456163D01*
X147931601Y-111459340D01*
X147931600Y-115464261D01*
X147929478Y-115467437D01*
X147864649Y-115623947D01*
X147831600Y-115790097D01*
X147831600Y-115959503D01*
X147864649Y-116125653D01*
X147916272Y-116250280D01*
X147558382Y-116250280D01*
X147076300Y-115768199D01*
X147076300Y-111172331D01*
X147118251Y-111071053D01*
X147149833Y-110912280D01*
X147841907Y-110912280D01*
X147831600Y-110964097D01*
G36*
X148441200Y-104055297D02*
G01*
X148441200Y-104224703D01*
X148474249Y-104390853D01*
X148539078Y-104547363D01*
X148541201Y-104550540D01*
X148541200Y-107127198D01*
X147479295Y-108189103D01*
X147475547Y-108189849D01*
X147319037Y-108254678D01*
X147178182Y-108348795D01*
X147058395Y-108468582D01*
X146964278Y-108609437D01*
X146899449Y-108765947D01*
X146866400Y-108932097D01*
X146866400Y-109101503D01*
X146899449Y-109267653D01*
X146951072Y-109392280D01*
X146370066Y-109392280D01*
X146319557Y-109297786D01*
X146240205Y-109201095D01*
X146143514Y-109121743D01*
X146033200Y-109062778D01*
X145913502Y-109026468D01*
X145789020Y-109014208D01*
X145145900Y-109014208D01*
X145145900Y-106041531D01*
X145149702Y-106032352D01*
X145789020Y-106032352D01*
X145913502Y-106020092D01*
X146033200Y-105983782D01*
X146143514Y-105924817D01*
X146240205Y-105845465D01*
X146319557Y-105748774D01*
X146378522Y-105638460D01*
X146414832Y-105518762D01*
X146427092Y-105394280D01*
X146427092Y-104394280D01*
X146414832Y-104269798D01*
X146378522Y-104150100D01*
X146348685Y-104094280D01*
X146370066Y-104054280D01*
X148441402Y-104054280D01*
X148441200Y-104055297D01*
G37*
X148441200Y-104055297D02*
X148441200Y-104224703D01*
X148474249Y-104390853D01*
X148539078Y-104547363D01*
X148541201Y-104550540D01*
X148541200Y-107127198D01*
X147479295Y-108189103D01*
X147475547Y-108189849D01*
X147319037Y-108254678D01*
X147178182Y-108348795D01*
X147058395Y-108468582D01*
X146964278Y-108609437D01*
X146899449Y-108765947D01*
X146866400Y-108932097D01*
X146866400Y-109101503D01*
X146899449Y-109267653D01*
X146951072Y-109392280D01*
X146370066Y-109392280D01*
X146319557Y-109297786D01*
X146240205Y-109201095D01*
X146143514Y-109121743D01*
X146033200Y-109062778D01*
X145913502Y-109026468D01*
X145789020Y-109014208D01*
X145145900Y-109014208D01*
X145145900Y-106041531D01*
X145149702Y-106032352D01*
X145789020Y-106032352D01*
X145913502Y-106020092D01*
X146033200Y-105983782D01*
X146143514Y-105924817D01*
X146240205Y-105845465D01*
X146319557Y-105748774D01*
X146378522Y-105638460D01*
X146414832Y-105518762D01*
X146427092Y-105394280D01*
X146427092Y-104394280D01*
X146414832Y-104269798D01*
X146378522Y-104150100D01*
X146348685Y-104094280D01*
X146370066Y-104054280D01*
X148441402Y-104054280D01*
X148441200Y-104055297D01*
G36*
X139782757Y-104056402D02*
G01*
X139939267Y-104121231D01*
X140105417Y-104154280D01*
X140198250Y-104154280D01*
X140163208Y-104269798D01*
X140150948Y-104394280D01*
X140150948Y-105394280D01*
X140163208Y-105518762D01*
X140199518Y-105638460D01*
X140258483Y-105748774D01*
X140337835Y-105845465D01*
X140434526Y-105924817D01*
X140544840Y-105983782D01*
X140664538Y-106020092D01*
X140789020Y-106032352D01*
X141689020Y-106032352D01*
X141813502Y-106020092D01*
X141933200Y-105983782D01*
X142043514Y-105924817D01*
X142140205Y-105845465D01*
X142219557Y-105748774D01*
X142270066Y-105654280D01*
X142349581Y-105654280D01*
X142349580Y-106632489D01*
X142349580Y-106632490D01*
X142349581Y-109205182D01*
X142332629Y-109246107D01*
X142303554Y-109392280D01*
X142270066Y-109392280D01*
X142219557Y-109297786D01*
X142140205Y-109201095D01*
X142043514Y-109121743D01*
X141933200Y-109062778D01*
X141813502Y-109026468D01*
X141689020Y-109014208D01*
X140789020Y-109014208D01*
X140664538Y-109026468D01*
X140544840Y-109062778D01*
X140434526Y-109121743D01*
X140337835Y-109201095D01*
X140258483Y-109297786D01*
X140207974Y-109392280D01*
X140179219Y-109392280D01*
X140176043Y-109390158D01*
X140019533Y-109325329D01*
X139853383Y-109292280D01*
X139683977Y-109292280D01*
X139517827Y-109325329D01*
X139361317Y-109390158D01*
X139358141Y-109392280D01*
X135575066Y-109392280D01*
X135524557Y-109297786D01*
X135445205Y-109201095D01*
X135348514Y-109121743D01*
X135238200Y-109062778D01*
X135118502Y-109026468D01*
X134994020Y-109014208D01*
X134094020Y-109014208D01*
X133969538Y-109026468D01*
X133849840Y-109062778D01*
X133739526Y-109121743D01*
X133642835Y-109201095D01*
X133563483Y-109297786D01*
X133512974Y-109392280D01*
X133375055Y-109392280D01*
X133349011Y-109261347D01*
X133332060Y-109220424D01*
X133332060Y-105654280D01*
X133512974Y-105654280D01*
X133563483Y-105748774D01*
X133642835Y-105845465D01*
X133739526Y-105924817D01*
X133849840Y-105983782D01*
X133969538Y-106020092D01*
X134094020Y-106032352D01*
X134994020Y-106032352D01*
X135118502Y-106020092D01*
X135238200Y-105983782D01*
X135348514Y-105924817D01*
X135445205Y-105845465D01*
X135524557Y-105748774D01*
X135583522Y-105638460D01*
X135619832Y-105518762D01*
X135632092Y-105394280D01*
X135632092Y-104394280D01*
X135619832Y-104269798D01*
X135583522Y-104150100D01*
X135553685Y-104094280D01*
X135575066Y-104054280D01*
X139779581Y-104054280D01*
X139782757Y-104056402D01*
G37*
X139782757Y-104056402D02*
X139939267Y-104121231D01*
X140105417Y-104154280D01*
X140198250Y-104154280D01*
X140163208Y-104269798D01*
X140150948Y-104394280D01*
X140150948Y-105394280D01*
X140163208Y-105518762D01*
X140199518Y-105638460D01*
X140258483Y-105748774D01*
X140337835Y-105845465D01*
X140434526Y-105924817D01*
X140544840Y-105983782D01*
X140664538Y-106020092D01*
X140789020Y-106032352D01*
X141689020Y-106032352D01*
X141813502Y-106020092D01*
X141933200Y-105983782D01*
X142043514Y-105924817D01*
X142140205Y-105845465D01*
X142219557Y-105748774D01*
X142270066Y-105654280D01*
X142349581Y-105654280D01*
X142349580Y-106632489D01*
X142349580Y-106632490D01*
X142349581Y-109205182D01*
X142332629Y-109246107D01*
X142303554Y-109392280D01*
X142270066Y-109392280D01*
X142219557Y-109297786D01*
X142140205Y-109201095D01*
X142043514Y-109121743D01*
X141933200Y-109062778D01*
X141813502Y-109026468D01*
X141689020Y-109014208D01*
X140789020Y-109014208D01*
X140664538Y-109026468D01*
X140544840Y-109062778D01*
X140434526Y-109121743D01*
X140337835Y-109201095D01*
X140258483Y-109297786D01*
X140207974Y-109392280D01*
X140179219Y-109392280D01*
X140176043Y-109390158D01*
X140019533Y-109325329D01*
X139853383Y-109292280D01*
X139683977Y-109292280D01*
X139517827Y-109325329D01*
X139361317Y-109390158D01*
X139358141Y-109392280D01*
X135575066Y-109392280D01*
X135524557Y-109297786D01*
X135445205Y-109201095D01*
X135348514Y-109121743D01*
X135238200Y-109062778D01*
X135118502Y-109026468D01*
X134994020Y-109014208D01*
X134094020Y-109014208D01*
X133969538Y-109026468D01*
X133849840Y-109062778D01*
X133739526Y-109121743D01*
X133642835Y-109201095D01*
X133563483Y-109297786D01*
X133512974Y-109392280D01*
X133375055Y-109392280D01*
X133349011Y-109261347D01*
X133332060Y-109220424D01*
X133332060Y-105654280D01*
X133512974Y-105654280D01*
X133563483Y-105748774D01*
X133642835Y-105845465D01*
X133739526Y-105924817D01*
X133849840Y-105983782D01*
X133969538Y-106020092D01*
X134094020Y-106032352D01*
X134994020Y-106032352D01*
X135118502Y-106020092D01*
X135238200Y-105983782D01*
X135348514Y-105924817D01*
X135445205Y-105845465D01*
X135524557Y-105748774D01*
X135583522Y-105638460D01*
X135619832Y-105518762D01*
X135632092Y-105394280D01*
X135632092Y-104394280D01*
X135619832Y-104269798D01*
X135583522Y-104150100D01*
X135553685Y-104094280D01*
X135575066Y-104054280D01*
X139779581Y-104054280D01*
X139782757Y-104056402D01*
G36*
X155153483Y-105748774D02*
G01*
X155232835Y-105845465D01*
X155329526Y-105924817D01*
X155439840Y-105983782D01*
X155559538Y-106020092D01*
X155684020Y-106032352D01*
X156289000Y-106032352D01*
X156289000Y-107090928D01*
X155991250Y-107090928D01*
X155824092Y-107107392D01*
X155663358Y-107156150D01*
X155515225Y-107235329D01*
X155385385Y-107341885D01*
X155278829Y-107471725D01*
X155199650Y-107619858D01*
X155150892Y-107780592D01*
X155134428Y-107947750D01*
X155134428Y-108460250D01*
X155150892Y-108627408D01*
X155199650Y-108788142D01*
X155278829Y-108936275D01*
X155374021Y-109052267D01*
X155374021Y-109097960D01*
X155329526Y-109121743D01*
X155232835Y-109201095D01*
X155153483Y-109297786D01*
X155102974Y-109392280D01*
X154910900Y-109392280D01*
X154910900Y-109386657D01*
X154877851Y-109220507D01*
X154860900Y-109179584D01*
X154860900Y-105654280D01*
X155102974Y-105654280D01*
X155153483Y-105748774D01*
G37*
X155153483Y-105748774D02*
X155232835Y-105845465D01*
X155329526Y-105924817D01*
X155439840Y-105983782D01*
X155559538Y-106020092D01*
X155684020Y-106032352D01*
X156289000Y-106032352D01*
X156289000Y-107090928D01*
X155991250Y-107090928D01*
X155824092Y-107107392D01*
X155663358Y-107156150D01*
X155515225Y-107235329D01*
X155385385Y-107341885D01*
X155278829Y-107471725D01*
X155199650Y-107619858D01*
X155150892Y-107780592D01*
X155134428Y-107947750D01*
X155134428Y-108460250D01*
X155150892Y-108627408D01*
X155199650Y-108788142D01*
X155278829Y-108936275D01*
X155374021Y-109052267D01*
X155374021Y-109097960D01*
X155329526Y-109121743D01*
X155232835Y-109201095D01*
X155153483Y-109297786D01*
X155102974Y-109392280D01*
X154910900Y-109392280D01*
X154910900Y-109386657D01*
X154877851Y-109220507D01*
X154860900Y-109179584D01*
X154860900Y-105654280D01*
X155102974Y-105654280D01*
X155153483Y-105748774D01*
G36*
X151024355Y-104094280D02*
G01*
X150994518Y-104150100D01*
X150958208Y-104269798D01*
X150945948Y-104394280D01*
X150945948Y-105394280D01*
X150958208Y-105518762D01*
X150994518Y-105638460D01*
X151053483Y-105748774D01*
X151132835Y-105845465D01*
X151229526Y-105924817D01*
X151339840Y-105983782D01*
X151459538Y-106020092D01*
X151584020Y-106032352D01*
X152484020Y-106032352D01*
X152608502Y-106020092D01*
X152728200Y-105983782D01*
X152838514Y-105924817D01*
X152935205Y-105845465D01*
X153014557Y-105748774D01*
X153065066Y-105654280D01*
X153240901Y-105654280D01*
X153240900Y-106632489D01*
X153240900Y-106632490D01*
X153240901Y-109179582D01*
X153223949Y-109220507D01*
X153190900Y-109386657D01*
X153190900Y-109392280D01*
X153065066Y-109392280D01*
X153014557Y-109297786D01*
X152935205Y-109201095D01*
X152838514Y-109121743D01*
X152728200Y-109062778D01*
X152608502Y-109026468D01*
X152484020Y-109014208D01*
X151584020Y-109014208D01*
X151459538Y-109026468D01*
X151339840Y-109062778D01*
X151229526Y-109121743D01*
X151132835Y-109201095D01*
X151053483Y-109297786D01*
X151002974Y-109392280D01*
X148501728Y-109392280D01*
X148553351Y-109267653D01*
X148554097Y-109263905D01*
X149812204Y-108005798D01*
X149841201Y-107982001D01*
X149936174Y-107866276D01*
X150006746Y-107734247D01*
X150050203Y-107590986D01*
X150061200Y-107479333D01*
X150061200Y-107479332D01*
X150064877Y-107442000D01*
X150061200Y-107404667D01*
X150061200Y-104550539D01*
X150063322Y-104547363D01*
X150128151Y-104390853D01*
X150161200Y-104224703D01*
X150161200Y-104055297D01*
X150160998Y-104054280D01*
X151002974Y-104054280D01*
X151024355Y-104094280D01*
G37*
X151024355Y-104094280D02*
X150994518Y-104150100D01*
X150958208Y-104269798D01*
X150945948Y-104394280D01*
X150945948Y-105394280D01*
X150958208Y-105518762D01*
X150994518Y-105638460D01*
X151053483Y-105748774D01*
X151132835Y-105845465D01*
X151229526Y-105924817D01*
X151339840Y-105983782D01*
X151459538Y-106020092D01*
X151584020Y-106032352D01*
X152484020Y-106032352D01*
X152608502Y-106020092D01*
X152728200Y-105983782D01*
X152838514Y-105924817D01*
X152935205Y-105845465D01*
X153014557Y-105748774D01*
X153065066Y-105654280D01*
X153240901Y-105654280D01*
X153240900Y-106632489D01*
X153240900Y-106632490D01*
X153240901Y-109179582D01*
X153223949Y-109220507D01*
X153190900Y-109386657D01*
X153190900Y-109392280D01*
X153065066Y-109392280D01*
X153014557Y-109297786D01*
X152935205Y-109201095D01*
X152838514Y-109121743D01*
X152728200Y-109062778D01*
X152608502Y-109026468D01*
X152484020Y-109014208D01*
X151584020Y-109014208D01*
X151459538Y-109026468D01*
X151339840Y-109062778D01*
X151229526Y-109121743D01*
X151132835Y-109201095D01*
X151053483Y-109297786D01*
X151002974Y-109392280D01*
X148501728Y-109392280D01*
X148553351Y-109267653D01*
X148554097Y-109263905D01*
X149812204Y-108005798D01*
X149841201Y-107982001D01*
X149936174Y-107866276D01*
X150006746Y-107734247D01*
X150050203Y-107590986D01*
X150061200Y-107479333D01*
X150061200Y-107479332D01*
X150064877Y-107442000D01*
X150061200Y-107404667D01*
X150061200Y-104550539D01*
X150063322Y-104547363D01*
X150128151Y-104390853D01*
X150161200Y-104224703D01*
X150161200Y-104055297D01*
X150160998Y-104054280D01*
X151002974Y-104054280D01*
X151024355Y-104094280D01*
G36*
X148441200Y-96638497D02*
G01*
X148441200Y-96807903D01*
X148474249Y-96974053D01*
X148539078Y-97130563D01*
X148541201Y-97133740D01*
X148541200Y-102053061D01*
X148539078Y-102056237D01*
X148474249Y-102212747D01*
X148441200Y-102378897D01*
X148441200Y-102534280D01*
X146370066Y-102534280D01*
X146319557Y-102439786D01*
X146240205Y-102343095D01*
X146143514Y-102263743D01*
X146033200Y-102204778D01*
X145913502Y-102168468D01*
X145789020Y-102156208D01*
X144889020Y-102156208D01*
X144764538Y-102168468D01*
X144644840Y-102204778D01*
X144534526Y-102263743D01*
X144437835Y-102343095D01*
X144358483Y-102439786D01*
X144307974Y-102534280D01*
X143923461Y-102534280D01*
X143878422Y-102385807D01*
X143855176Y-102342316D01*
X143842380Y-102311424D01*
X143842380Y-98161280D01*
X144307974Y-98161280D01*
X144358483Y-98255774D01*
X144437835Y-98352465D01*
X144534526Y-98431817D01*
X144644840Y-98490782D01*
X144764538Y-98527092D01*
X144889020Y-98539352D01*
X145789020Y-98539352D01*
X145913502Y-98527092D01*
X146033200Y-98490782D01*
X146143514Y-98431817D01*
X146240205Y-98352465D01*
X146319557Y-98255774D01*
X146378522Y-98145460D01*
X146414832Y-98025762D01*
X146427092Y-97901280D01*
X146427092Y-96901280D01*
X146414832Y-96776798D01*
X146378522Y-96657100D01*
X146348685Y-96601280D01*
X146370066Y-96561280D01*
X148456559Y-96561280D01*
X148441200Y-96638497D01*
G37*
X148441200Y-96638497D02*
X148441200Y-96807903D01*
X148474249Y-96974053D01*
X148539078Y-97130563D01*
X148541201Y-97133740D01*
X148541200Y-102053061D01*
X148539078Y-102056237D01*
X148474249Y-102212747D01*
X148441200Y-102378897D01*
X148441200Y-102534280D01*
X146370066Y-102534280D01*
X146319557Y-102439786D01*
X146240205Y-102343095D01*
X146143514Y-102263743D01*
X146033200Y-102204778D01*
X145913502Y-102168468D01*
X145789020Y-102156208D01*
X144889020Y-102156208D01*
X144764538Y-102168468D01*
X144644840Y-102204778D01*
X144534526Y-102263743D01*
X144437835Y-102343095D01*
X144358483Y-102439786D01*
X144307974Y-102534280D01*
X143923461Y-102534280D01*
X143878422Y-102385807D01*
X143855176Y-102342316D01*
X143842380Y-102311424D01*
X143842380Y-98161280D01*
X144307974Y-98161280D01*
X144358483Y-98255774D01*
X144437835Y-98352465D01*
X144534526Y-98431817D01*
X144644840Y-98490782D01*
X144764538Y-98527092D01*
X144889020Y-98539352D01*
X145789020Y-98539352D01*
X145913502Y-98527092D01*
X146033200Y-98490782D01*
X146143514Y-98431817D01*
X146240205Y-98352465D01*
X146319557Y-98255774D01*
X146378522Y-98145460D01*
X146414832Y-98025762D01*
X146427092Y-97901280D01*
X146427092Y-96901280D01*
X146414832Y-96776798D01*
X146378522Y-96657100D01*
X146348685Y-96601280D01*
X146370066Y-96561280D01*
X148456559Y-96561280D01*
X148441200Y-96638497D01*
G36*
X140229355Y-96601280D02*
G01*
X140199518Y-96657100D01*
X140163208Y-96776798D01*
X140150948Y-96901280D01*
X140150948Y-97901280D01*
X140163208Y-98025762D01*
X140199518Y-98145460D01*
X140258483Y-98255774D01*
X140337835Y-98352465D01*
X140434526Y-98431817D01*
X140544840Y-98490782D01*
X140664538Y-98527092D01*
X140789020Y-98539352D01*
X141689020Y-98539352D01*
X141813502Y-98527092D01*
X141933200Y-98490782D01*
X142043514Y-98431817D01*
X142140205Y-98352465D01*
X142219557Y-98255774D01*
X142222381Y-98250492D01*
X142222380Y-99139489D01*
X142222380Y-99139490D01*
X142222381Y-102311422D01*
X142205429Y-102352347D01*
X142194186Y-102408871D01*
X142140205Y-102343095D01*
X142043514Y-102263743D01*
X141933200Y-102204778D01*
X141813502Y-102168468D01*
X141689020Y-102156208D01*
X140789020Y-102156208D01*
X140664538Y-102168468D01*
X140544840Y-102204778D01*
X140434526Y-102263743D01*
X140337835Y-102343095D01*
X140263002Y-102434280D01*
X140105417Y-102434280D01*
X139939267Y-102467329D01*
X139782757Y-102532158D01*
X139779581Y-102534280D01*
X135575066Y-102534280D01*
X135524557Y-102439786D01*
X135445205Y-102343095D01*
X135348514Y-102263743D01*
X135238200Y-102204778D01*
X135118502Y-102168468D01*
X134994020Y-102156208D01*
X134094020Y-102156208D01*
X133969538Y-102168468D01*
X133849840Y-102204778D01*
X133739526Y-102263743D01*
X133642835Y-102343095D01*
X133563483Y-102439786D01*
X133512974Y-102534280D01*
X133314973Y-102534280D01*
X133292931Y-102423467D01*
X133275980Y-102382544D01*
X133275980Y-98161280D01*
X133512974Y-98161280D01*
X133563483Y-98255774D01*
X133642835Y-98352465D01*
X133739526Y-98431817D01*
X133849840Y-98490782D01*
X133969538Y-98527092D01*
X134094020Y-98539352D01*
X134994020Y-98539352D01*
X135118502Y-98527092D01*
X135238200Y-98490782D01*
X135348514Y-98431817D01*
X135445205Y-98352465D01*
X135524557Y-98255774D01*
X135583522Y-98145460D01*
X135619832Y-98025762D01*
X135632092Y-97901280D01*
X135632092Y-96901280D01*
X135619832Y-96776798D01*
X135583522Y-96657100D01*
X135553685Y-96601280D01*
X135575066Y-96561280D01*
X140207974Y-96561280D01*
X140229355Y-96601280D01*
G37*
X140229355Y-96601280D02*
X140199518Y-96657100D01*
X140163208Y-96776798D01*
X140150948Y-96901280D01*
X140150948Y-97901280D01*
X140163208Y-98025762D01*
X140199518Y-98145460D01*
X140258483Y-98255774D01*
X140337835Y-98352465D01*
X140434526Y-98431817D01*
X140544840Y-98490782D01*
X140664538Y-98527092D01*
X140789020Y-98539352D01*
X141689020Y-98539352D01*
X141813502Y-98527092D01*
X141933200Y-98490782D01*
X142043514Y-98431817D01*
X142140205Y-98352465D01*
X142219557Y-98255774D01*
X142222381Y-98250492D01*
X142222380Y-99139489D01*
X142222380Y-99139490D01*
X142222381Y-102311422D01*
X142205429Y-102352347D01*
X142194186Y-102408871D01*
X142140205Y-102343095D01*
X142043514Y-102263743D01*
X141933200Y-102204778D01*
X141813502Y-102168468D01*
X141689020Y-102156208D01*
X140789020Y-102156208D01*
X140664538Y-102168468D01*
X140544840Y-102204778D01*
X140434526Y-102263743D01*
X140337835Y-102343095D01*
X140263002Y-102434280D01*
X140105417Y-102434280D01*
X139939267Y-102467329D01*
X139782757Y-102532158D01*
X139779581Y-102534280D01*
X135575066Y-102534280D01*
X135524557Y-102439786D01*
X135445205Y-102343095D01*
X135348514Y-102263743D01*
X135238200Y-102204778D01*
X135118502Y-102168468D01*
X134994020Y-102156208D01*
X134094020Y-102156208D01*
X133969538Y-102168468D01*
X133849840Y-102204778D01*
X133739526Y-102263743D01*
X133642835Y-102343095D01*
X133563483Y-102439786D01*
X133512974Y-102534280D01*
X133314973Y-102534280D01*
X133292931Y-102423467D01*
X133275980Y-102382544D01*
X133275980Y-98161280D01*
X133512974Y-98161280D01*
X133563483Y-98255774D01*
X133642835Y-98352465D01*
X133739526Y-98431817D01*
X133849840Y-98490782D01*
X133969538Y-98527092D01*
X134094020Y-98539352D01*
X134994020Y-98539352D01*
X135118502Y-98527092D01*
X135238200Y-98490782D01*
X135348514Y-98431817D01*
X135445205Y-98352465D01*
X135524557Y-98255774D01*
X135583522Y-98145460D01*
X135619832Y-98025762D01*
X135632092Y-97901280D01*
X135632092Y-96901280D01*
X135619832Y-96776798D01*
X135583522Y-96657100D01*
X135553685Y-96601280D01*
X135575066Y-96561280D01*
X140207974Y-96561280D01*
X140229355Y-96601280D01*
G36*
X151024355Y-96601280D02*
G01*
X150994518Y-96657100D01*
X150958208Y-96776798D01*
X150945948Y-96901280D01*
X150945948Y-97375675D01*
X150888258Y-97483607D01*
X150841941Y-97636293D01*
X150826301Y-97795080D01*
X150841941Y-97953867D01*
X150888258Y-98106553D01*
X150963471Y-98247269D01*
X151064693Y-98370607D01*
X151188031Y-98471829D01*
X151328747Y-98547042D01*
X151481433Y-98593359D01*
X151640220Y-98608999D01*
X151799007Y-98593359D01*
X151951693Y-98547042D01*
X151966080Y-98539352D01*
X152484020Y-98539352D01*
X152608502Y-98527092D01*
X152728200Y-98490782D01*
X152838514Y-98431817D01*
X152935205Y-98352465D01*
X153014557Y-98255774D01*
X153065066Y-98161280D01*
X153215501Y-98161280D01*
X153215500Y-99139489D01*
X153215500Y-99139490D01*
X153215501Y-102296382D01*
X153198549Y-102337307D01*
X153165500Y-102503457D01*
X153165500Y-102534280D01*
X153065066Y-102534280D01*
X153014557Y-102439786D01*
X152935205Y-102343095D01*
X152838514Y-102263743D01*
X152728200Y-102204778D01*
X152608502Y-102168468D01*
X152484020Y-102156208D01*
X151584020Y-102156208D01*
X151459538Y-102168468D01*
X151339840Y-102204778D01*
X151229526Y-102263743D01*
X151132835Y-102343095D01*
X151053483Y-102439786D01*
X151002974Y-102534280D01*
X150161200Y-102534280D01*
X150161200Y-102378897D01*
X150128151Y-102212747D01*
X150063322Y-102056237D01*
X150061200Y-102053061D01*
X150061200Y-97133739D01*
X150063322Y-97130563D01*
X150128151Y-96974053D01*
X150161200Y-96807903D01*
X150161200Y-96638497D01*
X150145841Y-96561280D01*
X151002974Y-96561280D01*
X151024355Y-96601280D01*
G37*
X151024355Y-96601280D02*
X150994518Y-96657100D01*
X150958208Y-96776798D01*
X150945948Y-96901280D01*
X150945948Y-97375675D01*
X150888258Y-97483607D01*
X150841941Y-97636293D01*
X150826301Y-97795080D01*
X150841941Y-97953867D01*
X150888258Y-98106553D01*
X150963471Y-98247269D01*
X151064693Y-98370607D01*
X151188031Y-98471829D01*
X151328747Y-98547042D01*
X151481433Y-98593359D01*
X151640220Y-98608999D01*
X151799007Y-98593359D01*
X151951693Y-98547042D01*
X151966080Y-98539352D01*
X152484020Y-98539352D01*
X152608502Y-98527092D01*
X152728200Y-98490782D01*
X152838514Y-98431817D01*
X152935205Y-98352465D01*
X153014557Y-98255774D01*
X153065066Y-98161280D01*
X153215501Y-98161280D01*
X153215500Y-99139489D01*
X153215500Y-99139490D01*
X153215501Y-102296382D01*
X153198549Y-102337307D01*
X153165500Y-102503457D01*
X153165500Y-102534280D01*
X153065066Y-102534280D01*
X153014557Y-102439786D01*
X152935205Y-102343095D01*
X152838514Y-102263743D01*
X152728200Y-102204778D01*
X152608502Y-102168468D01*
X152484020Y-102156208D01*
X151584020Y-102156208D01*
X151459538Y-102168468D01*
X151339840Y-102204778D01*
X151229526Y-102263743D01*
X151132835Y-102343095D01*
X151053483Y-102439786D01*
X151002974Y-102534280D01*
X150161200Y-102534280D01*
X150161200Y-102378897D01*
X150128151Y-102212747D01*
X150063322Y-102056237D01*
X150061200Y-102053061D01*
X150061200Y-97133739D01*
X150063322Y-97130563D01*
X150128151Y-96974053D01*
X150161200Y-96807903D01*
X150161200Y-96638497D01*
X150145841Y-96561280D01*
X151002974Y-96561280D01*
X151024355Y-96601280D01*
G36*
X136338194Y-89716922D02*
G01*
X136492080Y-89732077D01*
X136645967Y-89716922D01*
X136690937Y-89703280D01*
X140207974Y-89703280D01*
X140229355Y-89743280D01*
X140199518Y-89799100D01*
X140163208Y-89918798D01*
X140150948Y-90043280D01*
X140150948Y-91043280D01*
X140163208Y-91167762D01*
X140199518Y-91287460D01*
X140258483Y-91397774D01*
X140337835Y-91494465D01*
X140434526Y-91573817D01*
X140544840Y-91632782D01*
X140664538Y-91669092D01*
X140789020Y-91681352D01*
X141689020Y-91681352D01*
X141813502Y-91669092D01*
X141933200Y-91632782D01*
X142043514Y-91573817D01*
X142140205Y-91494465D01*
X142219557Y-91397774D01*
X142270066Y-91303280D01*
X142303861Y-91303280D01*
X142303860Y-92281489D01*
X142303860Y-92281490D01*
X142303861Y-94726982D01*
X142286909Y-94767907D01*
X142253860Y-94934057D01*
X142253860Y-95010961D01*
X142219557Y-94946786D01*
X142140205Y-94850095D01*
X142043514Y-94770743D01*
X141933200Y-94711778D01*
X141813502Y-94675468D01*
X141689020Y-94663208D01*
X140789020Y-94663208D01*
X140664538Y-94675468D01*
X140544840Y-94711778D01*
X140434526Y-94770743D01*
X140337835Y-94850095D01*
X140258483Y-94946786D01*
X140207974Y-95041280D01*
X135575066Y-95041280D01*
X135524557Y-94946786D01*
X135445205Y-94850095D01*
X135348514Y-94770743D01*
X135238200Y-94711778D01*
X135118502Y-94675468D01*
X134994020Y-94663208D01*
X134094020Y-94663208D01*
X133969538Y-94675468D01*
X133849840Y-94711778D01*
X133739526Y-94770743D01*
X133642835Y-94850095D01*
X133563483Y-94946786D01*
X133512974Y-95041280D01*
X133286621Y-95041280D01*
X133290420Y-95022183D01*
X133290420Y-94852777D01*
X133257371Y-94686627D01*
X133240420Y-94645704D01*
X133240420Y-91303280D01*
X133512974Y-91303280D01*
X133563483Y-91397774D01*
X133642835Y-91494465D01*
X133739526Y-91573817D01*
X133849840Y-91632782D01*
X133969538Y-91669092D01*
X134094020Y-91681352D01*
X134994020Y-91681352D01*
X135118502Y-91669092D01*
X135238200Y-91632782D01*
X135348514Y-91573817D01*
X135445205Y-91494465D01*
X135524557Y-91397774D01*
X135583522Y-91287460D01*
X135619832Y-91167762D01*
X135626088Y-91104241D01*
X135629984Y-91101044D01*
X135654567Y-91071090D01*
X135827783Y-90897874D01*
X135929063Y-90855922D01*
X136069918Y-90761805D01*
X136189705Y-90642018D01*
X136283822Y-90501163D01*
X136348651Y-90344653D01*
X136381700Y-90178503D01*
X136381700Y-90009097D01*
X136348651Y-89842947D01*
X136290799Y-89703280D01*
X136293223Y-89703280D01*
X136338194Y-89716922D01*
G37*
X136338194Y-89716922D02*
X136492080Y-89732077D01*
X136645967Y-89716922D01*
X136690937Y-89703280D01*
X140207974Y-89703280D01*
X140229355Y-89743280D01*
X140199518Y-89799100D01*
X140163208Y-89918798D01*
X140150948Y-90043280D01*
X140150948Y-91043280D01*
X140163208Y-91167762D01*
X140199518Y-91287460D01*
X140258483Y-91397774D01*
X140337835Y-91494465D01*
X140434526Y-91573817D01*
X140544840Y-91632782D01*
X140664538Y-91669092D01*
X140789020Y-91681352D01*
X141689020Y-91681352D01*
X141813502Y-91669092D01*
X141933200Y-91632782D01*
X142043514Y-91573817D01*
X142140205Y-91494465D01*
X142219557Y-91397774D01*
X142270066Y-91303280D01*
X142303861Y-91303280D01*
X142303860Y-92281489D01*
X142303860Y-92281490D01*
X142303861Y-94726982D01*
X142286909Y-94767907D01*
X142253860Y-94934057D01*
X142253860Y-95010961D01*
X142219557Y-94946786D01*
X142140205Y-94850095D01*
X142043514Y-94770743D01*
X141933200Y-94711778D01*
X141813502Y-94675468D01*
X141689020Y-94663208D01*
X140789020Y-94663208D01*
X140664538Y-94675468D01*
X140544840Y-94711778D01*
X140434526Y-94770743D01*
X140337835Y-94850095D01*
X140258483Y-94946786D01*
X140207974Y-95041280D01*
X135575066Y-95041280D01*
X135524557Y-94946786D01*
X135445205Y-94850095D01*
X135348514Y-94770743D01*
X135238200Y-94711778D01*
X135118502Y-94675468D01*
X134994020Y-94663208D01*
X134094020Y-94663208D01*
X133969538Y-94675468D01*
X133849840Y-94711778D01*
X133739526Y-94770743D01*
X133642835Y-94850095D01*
X133563483Y-94946786D01*
X133512974Y-95041280D01*
X133286621Y-95041280D01*
X133290420Y-95022183D01*
X133290420Y-94852777D01*
X133257371Y-94686627D01*
X133240420Y-94645704D01*
X133240420Y-91303280D01*
X133512974Y-91303280D01*
X133563483Y-91397774D01*
X133642835Y-91494465D01*
X133739526Y-91573817D01*
X133849840Y-91632782D01*
X133969538Y-91669092D01*
X134094020Y-91681352D01*
X134994020Y-91681352D01*
X135118502Y-91669092D01*
X135238200Y-91632782D01*
X135348514Y-91573817D01*
X135445205Y-91494465D01*
X135524557Y-91397774D01*
X135583522Y-91287460D01*
X135619832Y-91167762D01*
X135626088Y-91104241D01*
X135629984Y-91101044D01*
X135654567Y-91071090D01*
X135827783Y-90897874D01*
X135929063Y-90855922D01*
X136069918Y-90761805D01*
X136189705Y-90642018D01*
X136283822Y-90501163D01*
X136348651Y-90344653D01*
X136381700Y-90178503D01*
X136381700Y-90009097D01*
X136348651Y-89842947D01*
X136290799Y-89703280D01*
X136293223Y-89703280D01*
X136338194Y-89716922D01*
G36*
X150714047Y-89724049D02*
G01*
X150557537Y-89788878D01*
X150416682Y-89882995D01*
X150296895Y-90002782D01*
X150202778Y-90143637D01*
X150137949Y-90300147D01*
X150104900Y-90466297D01*
X150104900Y-90635703D01*
X150137949Y-90801853D01*
X150202778Y-90958363D01*
X150296895Y-91099218D01*
X150416682Y-91219005D01*
X150557537Y-91313122D01*
X150714047Y-91377951D01*
X150880197Y-91411000D01*
X151049603Y-91411000D01*
X151062270Y-91408480D01*
X151132835Y-91494465D01*
X151192706Y-91543600D01*
X150456122Y-91543600D01*
X150418799Y-91539924D01*
X150381476Y-91543600D01*
X150381467Y-91543600D01*
X150269814Y-91554597D01*
X150126553Y-91598054D01*
X149994524Y-91668626D01*
X149878799Y-91763599D01*
X149855000Y-91792598D01*
X149501402Y-92146197D01*
X149501397Y-92146201D01*
X149054095Y-92593503D01*
X149050347Y-92594249D01*
X148893837Y-92659078D01*
X148752982Y-92753195D01*
X148633195Y-92872982D01*
X148539078Y-93013837D01*
X148474249Y-93170347D01*
X148441200Y-93336497D01*
X148441200Y-93505903D01*
X148474249Y-93672053D01*
X148539078Y-93828563D01*
X148633195Y-93969418D01*
X148752982Y-94089205D01*
X148893837Y-94183322D01*
X149050347Y-94248151D01*
X149216497Y-94281200D01*
X149385903Y-94281200D01*
X149552053Y-94248151D01*
X149708563Y-94183322D01*
X149849418Y-94089205D01*
X149969205Y-93969418D01*
X150063322Y-93828563D01*
X150128151Y-93672053D01*
X150128897Y-93668305D01*
X150576199Y-93221003D01*
X150576203Y-93220998D01*
X150733601Y-93063600D01*
X152319661Y-93063600D01*
X152322837Y-93065722D01*
X152479347Y-93130551D01*
X152645497Y-93163600D01*
X152814903Y-93163600D01*
X152981053Y-93130551D01*
X153137563Y-93065722D01*
X153200260Y-93023829D01*
X153200261Y-94681262D01*
X153183309Y-94722187D01*
X153150260Y-94888337D01*
X153150260Y-95041280D01*
X153065066Y-95041280D01*
X153014557Y-94946786D01*
X152935205Y-94850095D01*
X152838514Y-94770743D01*
X152728200Y-94711778D01*
X152608502Y-94675468D01*
X152484020Y-94663208D01*
X151584020Y-94663208D01*
X151459538Y-94675468D01*
X151339840Y-94711778D01*
X151229526Y-94770743D01*
X151132835Y-94850095D01*
X151053483Y-94946786D01*
X151002974Y-95041280D01*
X146370066Y-95041280D01*
X146319557Y-94946786D01*
X146240205Y-94850095D01*
X146143514Y-94770743D01*
X146033200Y-94711778D01*
X145913502Y-94675468D01*
X145789020Y-94663208D01*
X144889020Y-94663208D01*
X144764538Y-94675468D01*
X144644840Y-94711778D01*
X144534526Y-94770743D01*
X144437835Y-94850095D01*
X144358483Y-94946786D01*
X144307974Y-95041280D01*
X143973860Y-95041280D01*
X143973860Y-94934057D01*
X143940811Y-94767907D01*
X143923860Y-94726984D01*
X143923860Y-91303280D01*
X144307974Y-91303280D01*
X144358483Y-91397774D01*
X144437835Y-91494465D01*
X144534526Y-91573817D01*
X144644840Y-91632782D01*
X144764538Y-91669092D01*
X144889020Y-91681352D01*
X145789020Y-91681352D01*
X145913502Y-91669092D01*
X146033200Y-91632782D01*
X146143514Y-91573817D01*
X146240205Y-91494465D01*
X146285257Y-91439569D01*
X146406563Y-91389322D01*
X146547418Y-91295205D01*
X146667205Y-91175418D01*
X146761322Y-91034563D01*
X146826151Y-90878053D01*
X146859200Y-90711903D01*
X146859200Y-90542497D01*
X146826151Y-90376347D01*
X146761322Y-90219837D01*
X146667205Y-90078982D01*
X146547418Y-89959195D01*
X146406563Y-89865078D01*
X146397383Y-89861275D01*
X146378522Y-89799100D01*
X146348685Y-89743280D01*
X146370066Y-89703280D01*
X150818461Y-89703280D01*
X150714047Y-89724049D01*
G37*
X150714047Y-89724049D02*
X150557537Y-89788878D01*
X150416682Y-89882995D01*
X150296895Y-90002782D01*
X150202778Y-90143637D01*
X150137949Y-90300147D01*
X150104900Y-90466297D01*
X150104900Y-90635703D01*
X150137949Y-90801853D01*
X150202778Y-90958363D01*
X150296895Y-91099218D01*
X150416682Y-91219005D01*
X150557537Y-91313122D01*
X150714047Y-91377951D01*
X150880197Y-91411000D01*
X151049603Y-91411000D01*
X151062270Y-91408480D01*
X151132835Y-91494465D01*
X151192706Y-91543600D01*
X150456122Y-91543600D01*
X150418799Y-91539924D01*
X150381476Y-91543600D01*
X150381467Y-91543600D01*
X150269814Y-91554597D01*
X150126553Y-91598054D01*
X149994524Y-91668626D01*
X149878799Y-91763599D01*
X149855000Y-91792598D01*
X149501402Y-92146197D01*
X149501397Y-92146201D01*
X149054095Y-92593503D01*
X149050347Y-92594249D01*
X148893837Y-92659078D01*
X148752982Y-92753195D01*
X148633195Y-92872982D01*
X148539078Y-93013837D01*
X148474249Y-93170347D01*
X148441200Y-93336497D01*
X148441200Y-93505903D01*
X148474249Y-93672053D01*
X148539078Y-93828563D01*
X148633195Y-93969418D01*
X148752982Y-94089205D01*
X148893837Y-94183322D01*
X149050347Y-94248151D01*
X149216497Y-94281200D01*
X149385903Y-94281200D01*
X149552053Y-94248151D01*
X149708563Y-94183322D01*
X149849418Y-94089205D01*
X149969205Y-93969418D01*
X150063322Y-93828563D01*
X150128151Y-93672053D01*
X150128897Y-93668305D01*
X150576199Y-93221003D01*
X150576203Y-93220998D01*
X150733601Y-93063600D01*
X152319661Y-93063600D01*
X152322837Y-93065722D01*
X152479347Y-93130551D01*
X152645497Y-93163600D01*
X152814903Y-93163600D01*
X152981053Y-93130551D01*
X153137563Y-93065722D01*
X153200260Y-93023829D01*
X153200261Y-94681262D01*
X153183309Y-94722187D01*
X153150260Y-94888337D01*
X153150260Y-95041280D01*
X153065066Y-95041280D01*
X153014557Y-94946786D01*
X152935205Y-94850095D01*
X152838514Y-94770743D01*
X152728200Y-94711778D01*
X152608502Y-94675468D01*
X152484020Y-94663208D01*
X151584020Y-94663208D01*
X151459538Y-94675468D01*
X151339840Y-94711778D01*
X151229526Y-94770743D01*
X151132835Y-94850095D01*
X151053483Y-94946786D01*
X151002974Y-95041280D01*
X146370066Y-95041280D01*
X146319557Y-94946786D01*
X146240205Y-94850095D01*
X146143514Y-94770743D01*
X146033200Y-94711778D01*
X145913502Y-94675468D01*
X145789020Y-94663208D01*
X144889020Y-94663208D01*
X144764538Y-94675468D01*
X144644840Y-94711778D01*
X144534526Y-94770743D01*
X144437835Y-94850095D01*
X144358483Y-94946786D01*
X144307974Y-95041280D01*
X143973860Y-95041280D01*
X143973860Y-94934057D01*
X143940811Y-94767907D01*
X143923860Y-94726984D01*
X143923860Y-91303280D01*
X144307974Y-91303280D01*
X144358483Y-91397774D01*
X144437835Y-91494465D01*
X144534526Y-91573817D01*
X144644840Y-91632782D01*
X144764538Y-91669092D01*
X144889020Y-91681352D01*
X145789020Y-91681352D01*
X145913502Y-91669092D01*
X146033200Y-91632782D01*
X146143514Y-91573817D01*
X146240205Y-91494465D01*
X146285257Y-91439569D01*
X146406563Y-91389322D01*
X146547418Y-91295205D01*
X146667205Y-91175418D01*
X146761322Y-91034563D01*
X146826151Y-90878053D01*
X146859200Y-90711903D01*
X146859200Y-90542497D01*
X146826151Y-90376347D01*
X146761322Y-90219837D01*
X146667205Y-90078982D01*
X146547418Y-89959195D01*
X146406563Y-89865078D01*
X146397383Y-89861275D01*
X146378522Y-89799100D01*
X146348685Y-89743280D01*
X146370066Y-89703280D01*
X150818461Y-89703280D01*
X150714047Y-89724049D01*
G36*
X146816800Y-80003589D02*
G01*
X146816801Y-87139558D01*
X146812276Y-87185500D01*
X146830329Y-87368791D01*
X146871782Y-87505442D01*
X146883794Y-87545040D01*
X146970615Y-87707472D01*
X147087457Y-87849844D01*
X147123137Y-87879126D01*
X147427292Y-88183280D01*
X146370066Y-88183280D01*
X146319557Y-88088786D01*
X146240205Y-87992095D01*
X146143514Y-87912743D01*
X146033200Y-87853778D01*
X145913502Y-87817468D01*
X145789020Y-87805208D01*
X144889020Y-87805208D01*
X144764538Y-87817468D01*
X144644840Y-87853778D01*
X144534526Y-87912743D01*
X144437835Y-87992095D01*
X144358483Y-88088786D01*
X144307974Y-88183280D01*
X142270066Y-88183280D01*
X142219557Y-88088786D01*
X142140205Y-87992095D01*
X142043514Y-87912743D01*
X141933200Y-87853778D01*
X141813502Y-87817468D01*
X141689020Y-87805208D01*
X140789020Y-87805208D01*
X140664538Y-87817468D01*
X140544840Y-87853778D01*
X140434526Y-87912743D01*
X140337835Y-87992095D01*
X140258483Y-88088786D01*
X140207974Y-88183280D01*
X138291121Y-88183280D01*
X139900502Y-86573900D01*
X142718461Y-86573900D01*
X142721637Y-86576022D01*
X142878147Y-86640851D01*
X143044297Y-86673900D01*
X143213703Y-86673900D01*
X143379853Y-86640851D01*
X143536363Y-86576022D01*
X143677218Y-86481905D01*
X143797005Y-86362118D01*
X143891122Y-86221263D01*
X143955951Y-86064753D01*
X143989000Y-85898603D01*
X143989000Y-85729197D01*
X143955951Y-85563047D01*
X143891122Y-85406537D01*
X143797005Y-85265682D01*
X143677218Y-85145895D01*
X143536363Y-85051778D01*
X143379853Y-84986949D01*
X143213703Y-84953900D01*
X143044297Y-84953900D01*
X142878147Y-84986949D01*
X142721637Y-85051778D01*
X142718461Y-85053900D01*
X139623023Y-85053900D01*
X139585700Y-85050224D01*
X139548377Y-85053900D01*
X139548367Y-85053900D01*
X139436714Y-85064897D01*
X139293453Y-85108354D01*
X139182240Y-85167799D01*
X139231551Y-85048753D01*
X139264600Y-84882603D01*
X139264600Y-84713197D01*
X139231551Y-84547047D01*
X139166722Y-84390537D01*
X139072605Y-84249682D01*
X138952818Y-84129895D01*
X138811963Y-84035778D01*
X138655453Y-83970949D01*
X138489303Y-83937900D01*
X138319897Y-83937900D01*
X138153747Y-83970949D01*
X137997237Y-84035778D01*
X137856382Y-84129895D01*
X137736595Y-84249682D01*
X137642478Y-84390537D01*
X137600527Y-84491815D01*
X136746710Y-85345633D01*
X136716756Y-85370216D01*
X136634054Y-85470989D01*
X135955588Y-86149454D01*
X135925635Y-86174037D01*
X135827537Y-86293569D01*
X135754645Y-86429942D01*
X135709758Y-86577915D01*
X135698399Y-86693241D01*
X135698399Y-86693248D01*
X135694602Y-86731801D01*
X135698399Y-86770354D01*
X135698400Y-88183280D01*
X135575066Y-88183280D01*
X135524557Y-88088786D01*
X135445205Y-87992095D01*
X135348514Y-87912743D01*
X135238200Y-87853778D01*
X135118502Y-87817468D01*
X134994020Y-87805208D01*
X134794354Y-87805208D01*
X134898774Y-87735437D01*
X135042937Y-87591274D01*
X135156205Y-87421756D01*
X135234226Y-87233398D01*
X135274000Y-87033439D01*
X135274000Y-86829561D01*
X135234226Y-86629602D01*
X135174000Y-86484205D01*
X135174000Y-81375189D01*
X136616633Y-79932556D01*
X136669795Y-80012118D01*
X136789582Y-80131905D01*
X136930437Y-80226022D01*
X137031717Y-80267974D01*
X140362258Y-83598516D01*
X140386836Y-83628464D01*
X140416784Y-83653042D01*
X140416787Y-83653045D01*
X140446159Y-83677150D01*
X140506367Y-83726562D01*
X140642740Y-83799454D01*
X140752740Y-83832822D01*
X140790712Y-83844341D01*
X140805090Y-83845757D01*
X140906039Y-83855700D01*
X140906046Y-83855700D01*
X140944599Y-83859497D01*
X140983152Y-83855700D01*
X143742069Y-83855700D01*
X143843347Y-83897651D01*
X144009497Y-83930700D01*
X144178903Y-83930700D01*
X144345053Y-83897651D01*
X144501563Y-83832822D01*
X144642418Y-83738705D01*
X144762205Y-83618918D01*
X144856322Y-83478063D01*
X144921151Y-83321553D01*
X144954200Y-83155403D01*
X144954200Y-82985997D01*
X144921151Y-82819847D01*
X144856322Y-82663337D01*
X144762205Y-82522482D01*
X144642418Y-82402695D01*
X144501563Y-82308578D01*
X144345053Y-82243749D01*
X144178903Y-82210700D01*
X144009497Y-82210700D01*
X143843347Y-82243749D01*
X143742069Y-82285700D01*
X141269758Y-82285700D01*
X138141874Y-79157817D01*
X138099922Y-79056537D01*
X138005805Y-78915682D01*
X137886018Y-78795895D01*
X137806457Y-78742733D01*
X138029890Y-78519300D01*
X145332511Y-78519300D01*
X146816800Y-80003589D01*
G37*
X146816800Y-80003589D02*
X146816801Y-87139558D01*
X146812276Y-87185500D01*
X146830329Y-87368791D01*
X146871782Y-87505442D01*
X146883794Y-87545040D01*
X146970615Y-87707472D01*
X147087457Y-87849844D01*
X147123137Y-87879126D01*
X147427292Y-88183280D01*
X146370066Y-88183280D01*
X146319557Y-88088786D01*
X146240205Y-87992095D01*
X146143514Y-87912743D01*
X146033200Y-87853778D01*
X145913502Y-87817468D01*
X145789020Y-87805208D01*
X144889020Y-87805208D01*
X144764538Y-87817468D01*
X144644840Y-87853778D01*
X144534526Y-87912743D01*
X144437835Y-87992095D01*
X144358483Y-88088786D01*
X144307974Y-88183280D01*
X142270066Y-88183280D01*
X142219557Y-88088786D01*
X142140205Y-87992095D01*
X142043514Y-87912743D01*
X141933200Y-87853778D01*
X141813502Y-87817468D01*
X141689020Y-87805208D01*
X140789020Y-87805208D01*
X140664538Y-87817468D01*
X140544840Y-87853778D01*
X140434526Y-87912743D01*
X140337835Y-87992095D01*
X140258483Y-88088786D01*
X140207974Y-88183280D01*
X138291121Y-88183280D01*
X139900502Y-86573900D01*
X142718461Y-86573900D01*
X142721637Y-86576022D01*
X142878147Y-86640851D01*
X143044297Y-86673900D01*
X143213703Y-86673900D01*
X143379853Y-86640851D01*
X143536363Y-86576022D01*
X143677218Y-86481905D01*
X143797005Y-86362118D01*
X143891122Y-86221263D01*
X143955951Y-86064753D01*
X143989000Y-85898603D01*
X143989000Y-85729197D01*
X143955951Y-85563047D01*
X143891122Y-85406537D01*
X143797005Y-85265682D01*
X143677218Y-85145895D01*
X143536363Y-85051778D01*
X143379853Y-84986949D01*
X143213703Y-84953900D01*
X143044297Y-84953900D01*
X142878147Y-84986949D01*
X142721637Y-85051778D01*
X142718461Y-85053900D01*
X139623023Y-85053900D01*
X139585700Y-85050224D01*
X139548377Y-85053900D01*
X139548367Y-85053900D01*
X139436714Y-85064897D01*
X139293453Y-85108354D01*
X139182240Y-85167799D01*
X139231551Y-85048753D01*
X139264600Y-84882603D01*
X139264600Y-84713197D01*
X139231551Y-84547047D01*
X139166722Y-84390537D01*
X139072605Y-84249682D01*
X138952818Y-84129895D01*
X138811963Y-84035778D01*
X138655453Y-83970949D01*
X138489303Y-83937900D01*
X138319897Y-83937900D01*
X138153747Y-83970949D01*
X137997237Y-84035778D01*
X137856382Y-84129895D01*
X137736595Y-84249682D01*
X137642478Y-84390537D01*
X137600527Y-84491815D01*
X136746710Y-85345633D01*
X136716756Y-85370216D01*
X136634054Y-85470989D01*
X135955588Y-86149454D01*
X135925635Y-86174037D01*
X135827537Y-86293569D01*
X135754645Y-86429942D01*
X135709758Y-86577915D01*
X135698399Y-86693241D01*
X135698399Y-86693248D01*
X135694602Y-86731801D01*
X135698399Y-86770354D01*
X135698400Y-88183280D01*
X135575066Y-88183280D01*
X135524557Y-88088786D01*
X135445205Y-87992095D01*
X135348514Y-87912743D01*
X135238200Y-87853778D01*
X135118502Y-87817468D01*
X134994020Y-87805208D01*
X134794354Y-87805208D01*
X134898774Y-87735437D01*
X135042937Y-87591274D01*
X135156205Y-87421756D01*
X135234226Y-87233398D01*
X135274000Y-87033439D01*
X135274000Y-86829561D01*
X135234226Y-86629602D01*
X135174000Y-86484205D01*
X135174000Y-81375189D01*
X136616633Y-79932556D01*
X136669795Y-80012118D01*
X136789582Y-80131905D01*
X136930437Y-80226022D01*
X137031717Y-80267974D01*
X140362258Y-83598516D01*
X140386836Y-83628464D01*
X140416784Y-83653042D01*
X140416787Y-83653045D01*
X140446159Y-83677150D01*
X140506367Y-83726562D01*
X140642740Y-83799454D01*
X140752740Y-83832822D01*
X140790712Y-83844341D01*
X140805090Y-83845757D01*
X140906039Y-83855700D01*
X140906046Y-83855700D01*
X140944599Y-83859497D01*
X140983152Y-83855700D01*
X143742069Y-83855700D01*
X143843347Y-83897651D01*
X144009497Y-83930700D01*
X144178903Y-83930700D01*
X144345053Y-83897651D01*
X144501563Y-83832822D01*
X144642418Y-83738705D01*
X144762205Y-83618918D01*
X144856322Y-83478063D01*
X144921151Y-83321553D01*
X144954200Y-83155403D01*
X144954200Y-82985997D01*
X144921151Y-82819847D01*
X144856322Y-82663337D01*
X144762205Y-82522482D01*
X144642418Y-82402695D01*
X144501563Y-82308578D01*
X144345053Y-82243749D01*
X144178903Y-82210700D01*
X144009497Y-82210700D01*
X143843347Y-82243749D01*
X143742069Y-82285700D01*
X141269758Y-82285700D01*
X138141874Y-79157817D01*
X138099922Y-79056537D01*
X138005805Y-78915682D01*
X137886018Y-78795895D01*
X137806457Y-78742733D01*
X138029890Y-78519300D01*
X145332511Y-78519300D01*
X146816800Y-80003589D01*
G36*
X147176463Y-68923526D02*
G01*
X147063195Y-69093044D01*
X147002969Y-69238441D01*
X145091136Y-71150275D01*
X145055457Y-71179556D01*
X144938615Y-71321928D01*
X144873819Y-71443154D01*
X144851794Y-71484360D01*
X144798329Y-71660609D01*
X144780276Y-71843900D01*
X144784801Y-71889842D01*
X144784800Y-76649300D01*
X137688531Y-76649300D01*
X137642599Y-76644776D01*
X137459307Y-76662829D01*
X137438526Y-76669133D01*
X137283060Y-76716293D01*
X137120628Y-76803114D01*
X136978256Y-76919956D01*
X136948974Y-76955636D01*
X133906400Y-79998211D01*
X133906400Y-74912257D01*
X139898158Y-68920500D01*
X147179489Y-68920500D01*
X147176463Y-68923526D01*
G37*
X147176463Y-68923526D02*
X147063195Y-69093044D01*
X147002969Y-69238441D01*
X145091136Y-71150275D01*
X145055457Y-71179556D01*
X144938615Y-71321928D01*
X144873819Y-71443154D01*
X144851794Y-71484360D01*
X144798329Y-71660609D01*
X144780276Y-71843900D01*
X144784801Y-71889842D01*
X144784800Y-76649300D01*
X137688531Y-76649300D01*
X137642599Y-76644776D01*
X137459307Y-76662829D01*
X137438526Y-76669133D01*
X137283060Y-76716293D01*
X137120628Y-76803114D01*
X136978256Y-76919956D01*
X136948974Y-76955636D01*
X133906400Y-79998211D01*
X133906400Y-74912257D01*
X139898158Y-68920500D01*
X147179489Y-68920500D01*
X147176463Y-68923526D01*
M02*
