G04 #@! TF.GenerationSoftware,KiCad,Pcbnew,5.1.6-c6e7f7d~87~ubuntu18.04.1*
G04 #@! TF.CreationDate,2020-07-22T21:50:42+02:00*
G04 #@! TF.ProjectId,HMI,484d492e-6b69-4636-9164-5f7063625858,rev?*
G04 #@! TF.SameCoordinates,Original*
G04 #@! TF.FileFunction,Legend,Top*
G04 #@! TF.FilePolarity,Positive*
%FSLAX46Y46*%
G04 Gerber Fmt 4.6, Leading zero omitted, Abs format (unit mm)*
G04 Created by KiCad (PCBNEW 5.1.6-c6e7f7d~87~ubuntu18.04.1) date 2020-07-22 21:50:42*
%MOMM*%
%LPD*%
G01*
G04 APERTURE LIST*
%ADD10C,0.350000*%
%ADD11C,0.120000*%
%ADD12C,0.125000*%
%ADD13C,0.150000*%
G04 APERTURE END LIST*
D10*
X76454000Y-81915000D02*
X76454000Y-45720000D01*
X107315000Y-81915000D02*
X76454000Y-81915000D01*
X107315000Y-45720000D02*
X107315000Y-81915000D01*
X76454000Y-45720000D02*
X107315000Y-45720000D01*
D11*
X75719400Y-98821021D02*
X75719400Y-99146579D01*
X74699400Y-98821021D02*
X74699400Y-99146579D01*
X75935960Y-61657480D02*
X75585960Y-61657480D01*
X75935960Y-60767480D02*
X75935960Y-61657480D01*
X75635960Y-60767480D02*
X75935960Y-60767480D01*
X72995960Y-60767480D02*
X69145960Y-60767480D01*
X69145960Y-60767480D02*
X69145960Y-68507480D01*
X69145960Y-68507480D02*
X72995960Y-68507480D01*
X73385960Y-67127480D02*
X73385960Y-62147480D01*
X75935960Y-67617480D02*
X75935960Y-68507480D01*
X75935960Y-67617480D02*
X75585960Y-67617480D01*
X75635960Y-68507480D02*
X75935960Y-68507480D01*
X75986760Y-71426320D02*
X75636760Y-71426320D01*
X75986760Y-70536320D02*
X75986760Y-71426320D01*
X75686760Y-70536320D02*
X75986760Y-70536320D01*
X73046760Y-70536320D02*
X69196760Y-70536320D01*
X69196760Y-70536320D02*
X69196760Y-78276320D01*
X69196760Y-78276320D02*
X73046760Y-78276320D01*
X73436760Y-76896320D02*
X73436760Y-71916320D01*
X75986760Y-77386320D02*
X75986760Y-78276320D01*
X75986760Y-77386320D02*
X75636760Y-77386320D01*
X75686760Y-78276320D02*
X75986760Y-78276320D01*
X98892720Y-110570480D02*
X98892720Y-110470480D01*
X94492720Y-112070480D02*
X98892720Y-112070480D01*
X98892720Y-108970480D02*
X94492720Y-108970480D01*
X94492720Y-110570480D02*
X94492720Y-110470480D01*
X98892720Y-105490480D02*
X98892720Y-105390480D01*
X94492720Y-106990480D02*
X98892720Y-106990480D01*
X98892720Y-103890480D02*
X94492720Y-103890480D01*
X94492720Y-105490480D02*
X94492720Y-105390480D01*
X98892720Y-100410480D02*
X98892720Y-100310480D01*
X94492720Y-101910480D02*
X98892720Y-101910480D01*
X98892720Y-98810480D02*
X94492720Y-98810480D01*
X94492720Y-100410480D02*
X94492720Y-100310480D01*
X98892720Y-95330480D02*
X98892720Y-95230480D01*
X94492720Y-96830480D02*
X98892720Y-96830480D01*
X98892720Y-93730480D02*
X94492720Y-93730480D01*
X94492720Y-95330480D02*
X94492720Y-95230480D01*
X98892720Y-89615480D02*
X98892720Y-89515480D01*
X94492720Y-91115480D02*
X98892720Y-91115480D01*
X98892720Y-88015480D02*
X94492720Y-88015480D01*
X94492720Y-89615480D02*
X94492720Y-89515480D01*
X98892720Y-84535480D02*
X98892720Y-84435480D01*
X94492720Y-86035480D02*
X98892720Y-86035480D01*
X98892720Y-82935480D02*
X94492720Y-82935480D01*
X94492720Y-84535480D02*
X94492720Y-84435480D01*
X91907720Y-110570480D02*
X91907720Y-110470480D01*
X87507720Y-112070480D02*
X91907720Y-112070480D01*
X91907720Y-108970480D02*
X87507720Y-108970480D01*
X87507720Y-110570480D02*
X87507720Y-110470480D01*
X91907720Y-105490480D02*
X91907720Y-105390480D01*
X87507720Y-106990480D02*
X91907720Y-106990480D01*
X91907720Y-103890480D02*
X87507720Y-103890480D01*
X87507720Y-105490480D02*
X87507720Y-105390480D01*
X91907720Y-100410480D02*
X91907720Y-100310480D01*
X87507720Y-101910480D02*
X91907720Y-101910480D01*
X91907720Y-98810480D02*
X87507720Y-98810480D01*
X87507720Y-100410480D02*
X87507720Y-100310480D01*
X91907720Y-95330480D02*
X91907720Y-95230480D01*
X87507720Y-96830480D02*
X91907720Y-96830480D01*
X91907720Y-93730480D02*
X87507720Y-93730480D01*
X87507720Y-95330480D02*
X87507720Y-95230480D01*
X91907720Y-89615480D02*
X91907720Y-89515480D01*
X87507720Y-91115480D02*
X91907720Y-91115480D01*
X91907720Y-88015480D02*
X87507720Y-88015480D01*
X87507720Y-89615480D02*
X87507720Y-89515480D01*
X91907720Y-84535480D02*
X91907720Y-84435480D01*
X87507720Y-86035480D02*
X91907720Y-86035480D01*
X91907720Y-82935480D02*
X87507720Y-82935480D01*
X87507720Y-84535480D02*
X87507720Y-84435480D01*
X84922720Y-110570480D02*
X84922720Y-110470480D01*
X80522720Y-112070480D02*
X84922720Y-112070480D01*
X84922720Y-108970480D02*
X80522720Y-108970480D01*
X80522720Y-110570480D02*
X80522720Y-110470480D01*
X84922720Y-105490480D02*
X84922720Y-105390480D01*
X80522720Y-106990480D02*
X84922720Y-106990480D01*
X84922720Y-103890480D02*
X80522720Y-103890480D01*
X80522720Y-105490480D02*
X80522720Y-105390480D01*
X84922720Y-100410480D02*
X84922720Y-100310480D01*
X80522720Y-101910480D02*
X84922720Y-101910480D01*
X84922720Y-98810480D02*
X80522720Y-98810480D01*
X80522720Y-100410480D02*
X80522720Y-100310480D01*
X84922720Y-95330480D02*
X84922720Y-95230480D01*
X80522720Y-96830480D02*
X84922720Y-96830480D01*
X84922720Y-93730480D02*
X80522720Y-93730480D01*
X80522720Y-95330480D02*
X80522720Y-95230480D01*
X84922720Y-89615480D02*
X84922720Y-89515480D01*
X80522720Y-91115480D02*
X84922720Y-91115480D01*
X84922720Y-88015480D02*
X80522720Y-88015480D01*
X80522720Y-89615480D02*
X80522720Y-89515480D01*
X84922720Y-84535480D02*
X84922720Y-84435480D01*
X80522720Y-86035480D02*
X84922720Y-86035480D01*
X84922720Y-82935480D02*
X80522720Y-82935480D01*
X80522720Y-84535480D02*
X80522720Y-84435480D01*
X99992720Y-110683259D02*
X99992720Y-110357701D01*
X101012720Y-110683259D02*
X101012720Y-110357701D01*
X99992720Y-105603259D02*
X99992720Y-105277701D01*
X101012720Y-105603259D02*
X101012720Y-105277701D01*
X99992720Y-100523259D02*
X99992720Y-100197701D01*
X101012720Y-100523259D02*
X101012720Y-100197701D01*
X99992720Y-95443259D02*
X99992720Y-95117701D01*
X101012720Y-95443259D02*
X101012720Y-95117701D01*
X99992720Y-89728259D02*
X99992720Y-89402701D01*
X101012720Y-89728259D02*
X101012720Y-89402701D01*
X99992720Y-84648259D02*
X99992720Y-84322701D01*
X101012720Y-84648259D02*
X101012720Y-84322701D01*
X74135000Y-52975200D02*
X73332530Y-52975200D01*
X72717470Y-52975200D02*
X71915000Y-52975200D01*
X74135000Y-56720200D02*
X74135000Y-52975200D01*
X71915000Y-56720200D02*
X71915000Y-52975200D01*
X74135000Y-56720200D02*
X73588471Y-56720200D01*
X72461529Y-56720200D02*
X71915000Y-56720200D01*
X74135000Y-57480200D02*
X74135000Y-58240200D01*
X74135000Y-58240200D02*
X73025000Y-58240200D01*
X77581879Y-100230400D02*
X77256321Y-100230400D01*
X77581879Y-99210400D02*
X77256321Y-99210400D01*
X77607279Y-105666000D02*
X77281721Y-105666000D01*
X77607279Y-104646000D02*
X77281721Y-104646000D01*
X77581879Y-101729000D02*
X77256321Y-101729000D01*
X77581879Y-100709000D02*
X77256321Y-100709000D01*
X77607279Y-107139200D02*
X77281721Y-107139200D01*
X77607279Y-106119200D02*
X77281721Y-106119200D01*
X77256321Y-103147400D02*
X77581879Y-103147400D01*
X77256321Y-104167400D02*
X77581879Y-104167400D01*
X75719400Y-104231321D02*
X75719400Y-104556879D01*
X74699400Y-104231321D02*
X74699400Y-104556879D01*
X77281721Y-97711800D02*
X77607279Y-97711800D01*
X77281721Y-98731800D02*
X77607279Y-98731800D01*
D12*
X74270371Y-99219533D02*
X74294180Y-99243342D01*
X74317990Y-99314771D01*
X74317990Y-99362390D01*
X74294180Y-99433819D01*
X74246561Y-99481438D01*
X74198942Y-99505247D01*
X74103704Y-99529057D01*
X74032276Y-99529057D01*
X73937038Y-99505247D01*
X73889419Y-99481438D01*
X73841800Y-99433819D01*
X73817990Y-99362390D01*
X73817990Y-99314771D01*
X73841800Y-99243342D01*
X73865609Y-99219533D01*
X73865609Y-99029057D02*
X73841800Y-99005247D01*
X73817990Y-98957628D01*
X73817990Y-98838580D01*
X73841800Y-98790961D01*
X73865609Y-98767152D01*
X73913228Y-98743342D01*
X73960847Y-98743342D01*
X74032276Y-98767152D01*
X74317990Y-99052866D01*
X74317990Y-98743342D01*
D13*
D12*
X76910380Y-68976761D02*
X76934190Y-68905333D01*
X76934190Y-68786285D01*
X76910380Y-68738666D01*
X76886571Y-68714857D01*
X76838952Y-68691047D01*
X76791333Y-68691047D01*
X76743714Y-68714857D01*
X76719904Y-68738666D01*
X76696095Y-68786285D01*
X76672285Y-68881523D01*
X76648476Y-68929142D01*
X76624666Y-68952952D01*
X76577047Y-68976761D01*
X76529428Y-68976761D01*
X76481809Y-68952952D01*
X76458000Y-68929142D01*
X76434190Y-68881523D01*
X76434190Y-68762476D01*
X76458000Y-68691047D01*
X76434190Y-68524380D02*
X76934190Y-68405333D01*
X76577047Y-68310095D01*
X76934190Y-68214857D01*
X76434190Y-68095809D01*
X76934190Y-67643428D02*
X76934190Y-67929142D01*
X76934190Y-67786285D02*
X76434190Y-67786285D01*
X76505619Y-67833904D01*
X76553238Y-67881523D01*
X76577047Y-67929142D01*
X76600857Y-67214857D02*
X76934190Y-67214857D01*
X76410380Y-67333904D02*
X76767523Y-67452952D01*
X76767523Y-67143428D01*
D13*
D12*
X76910380Y-78644666D02*
X76934190Y-78573238D01*
X76934190Y-78454190D01*
X76910380Y-78406571D01*
X76886571Y-78382761D01*
X76838952Y-78358952D01*
X76791333Y-78358952D01*
X76743714Y-78382761D01*
X76719904Y-78406571D01*
X76696095Y-78454190D01*
X76672285Y-78549428D01*
X76648476Y-78597047D01*
X76624666Y-78620857D01*
X76577047Y-78644666D01*
X76529428Y-78644666D01*
X76481809Y-78620857D01*
X76458000Y-78597047D01*
X76434190Y-78549428D01*
X76434190Y-78430380D01*
X76458000Y-78358952D01*
X76434190Y-78192285D02*
X76934190Y-78073238D01*
X76577047Y-77978000D01*
X76934190Y-77882761D01*
X76434190Y-77763714D01*
X76934190Y-77311333D02*
X76934190Y-77597047D01*
X76934190Y-77454190D02*
X76434190Y-77454190D01*
X76505619Y-77501809D01*
X76553238Y-77549428D01*
X76577047Y-77597047D01*
D13*
D12*
X95787958Y-108272860D02*
X95859386Y-108296670D01*
X95978434Y-108296670D01*
X96026053Y-108272860D01*
X96049862Y-108249051D01*
X96073672Y-108201432D01*
X96073672Y-108153813D01*
X96049862Y-108106194D01*
X96026053Y-108082384D01*
X95978434Y-108058575D01*
X95883196Y-108034765D01*
X95835577Y-108010956D01*
X95811767Y-107987146D01*
X95787958Y-107939527D01*
X95787958Y-107891908D01*
X95811767Y-107844289D01*
X95835577Y-107820480D01*
X95883196Y-107796670D01*
X96002243Y-107796670D01*
X96073672Y-107820480D01*
X96240339Y-107796670D02*
X96359386Y-108296670D01*
X96454624Y-107939527D01*
X96549862Y-108296670D01*
X96668910Y-107796670D01*
X96835577Y-107844289D02*
X96859386Y-107820480D01*
X96907005Y-107796670D01*
X97026053Y-107796670D01*
X97073672Y-107820480D01*
X97097481Y-107844289D01*
X97121291Y-107891908D01*
X97121291Y-107939527D01*
X97097481Y-108010956D01*
X96811767Y-108296670D01*
X97121291Y-108296670D01*
X97430815Y-107796670D02*
X97478434Y-107796670D01*
X97526053Y-107820480D01*
X97549862Y-107844289D01*
X97573672Y-107891908D01*
X97597481Y-107987146D01*
X97597481Y-108106194D01*
X97573672Y-108201432D01*
X97549862Y-108249051D01*
X97526053Y-108272860D01*
X97478434Y-108296670D01*
X97430815Y-108296670D01*
X97383196Y-108272860D01*
X97359386Y-108249051D01*
X97335577Y-108201432D01*
X97311767Y-108106194D01*
X97311767Y-107987146D01*
X97335577Y-107891908D01*
X97359386Y-107844289D01*
X97383196Y-107820480D01*
X97430815Y-107796670D01*
D13*
D12*
X95787958Y-103192860D02*
X95859386Y-103216670D01*
X95978434Y-103216670D01*
X96026053Y-103192860D01*
X96049862Y-103169051D01*
X96073672Y-103121432D01*
X96073672Y-103073813D01*
X96049862Y-103026194D01*
X96026053Y-103002384D01*
X95978434Y-102978575D01*
X95883196Y-102954765D01*
X95835577Y-102930956D01*
X95811767Y-102907146D01*
X95787958Y-102859527D01*
X95787958Y-102811908D01*
X95811767Y-102764289D01*
X95835577Y-102740480D01*
X95883196Y-102716670D01*
X96002243Y-102716670D01*
X96073672Y-102740480D01*
X96240339Y-102716670D02*
X96359386Y-103216670D01*
X96454624Y-102859527D01*
X96549862Y-103216670D01*
X96668910Y-102716670D01*
X97121291Y-103216670D02*
X96835577Y-103216670D01*
X96978434Y-103216670D02*
X96978434Y-102716670D01*
X96930815Y-102788099D01*
X96883196Y-102835718D01*
X96835577Y-102859527D01*
X97359386Y-103216670D02*
X97454624Y-103216670D01*
X97502243Y-103192860D01*
X97526053Y-103169051D01*
X97573672Y-103097622D01*
X97597481Y-103002384D01*
X97597481Y-102811908D01*
X97573672Y-102764289D01*
X97549862Y-102740480D01*
X97502243Y-102716670D01*
X97407005Y-102716670D01*
X97359386Y-102740480D01*
X97335577Y-102764289D01*
X97311767Y-102811908D01*
X97311767Y-102930956D01*
X97335577Y-102978575D01*
X97359386Y-103002384D01*
X97407005Y-103026194D01*
X97502243Y-103026194D01*
X97549862Y-103002384D01*
X97573672Y-102978575D01*
X97597481Y-102930956D01*
D13*
D12*
X95787958Y-98112860D02*
X95859386Y-98136670D01*
X95978434Y-98136670D01*
X96026053Y-98112860D01*
X96049862Y-98089051D01*
X96073672Y-98041432D01*
X96073672Y-97993813D01*
X96049862Y-97946194D01*
X96026053Y-97922384D01*
X95978434Y-97898575D01*
X95883196Y-97874765D01*
X95835577Y-97850956D01*
X95811767Y-97827146D01*
X95787958Y-97779527D01*
X95787958Y-97731908D01*
X95811767Y-97684289D01*
X95835577Y-97660480D01*
X95883196Y-97636670D01*
X96002243Y-97636670D01*
X96073672Y-97660480D01*
X96240339Y-97636670D02*
X96359386Y-98136670D01*
X96454624Y-97779527D01*
X96549862Y-98136670D01*
X96668910Y-97636670D01*
X97121291Y-98136670D02*
X96835577Y-98136670D01*
X96978434Y-98136670D02*
X96978434Y-97636670D01*
X96930815Y-97708099D01*
X96883196Y-97755718D01*
X96835577Y-97779527D01*
X97407005Y-97850956D02*
X97359386Y-97827146D01*
X97335577Y-97803337D01*
X97311767Y-97755718D01*
X97311767Y-97731908D01*
X97335577Y-97684289D01*
X97359386Y-97660480D01*
X97407005Y-97636670D01*
X97502243Y-97636670D01*
X97549862Y-97660480D01*
X97573672Y-97684289D01*
X97597481Y-97731908D01*
X97597481Y-97755718D01*
X97573672Y-97803337D01*
X97549862Y-97827146D01*
X97502243Y-97850956D01*
X97407005Y-97850956D01*
X97359386Y-97874765D01*
X97335577Y-97898575D01*
X97311767Y-97946194D01*
X97311767Y-98041432D01*
X97335577Y-98089051D01*
X97359386Y-98112860D01*
X97407005Y-98136670D01*
X97502243Y-98136670D01*
X97549862Y-98112860D01*
X97573672Y-98089051D01*
X97597481Y-98041432D01*
X97597481Y-97946194D01*
X97573672Y-97898575D01*
X97549862Y-97874765D01*
X97502243Y-97850956D01*
D13*
D12*
X95787958Y-93032860D02*
X95859386Y-93056670D01*
X95978434Y-93056670D01*
X96026053Y-93032860D01*
X96049862Y-93009051D01*
X96073672Y-92961432D01*
X96073672Y-92913813D01*
X96049862Y-92866194D01*
X96026053Y-92842384D01*
X95978434Y-92818575D01*
X95883196Y-92794765D01*
X95835577Y-92770956D01*
X95811767Y-92747146D01*
X95787958Y-92699527D01*
X95787958Y-92651908D01*
X95811767Y-92604289D01*
X95835577Y-92580480D01*
X95883196Y-92556670D01*
X96002243Y-92556670D01*
X96073672Y-92580480D01*
X96240339Y-92556670D02*
X96359386Y-93056670D01*
X96454624Y-92699527D01*
X96549862Y-93056670D01*
X96668910Y-92556670D01*
X97121291Y-93056670D02*
X96835577Y-93056670D01*
X96978434Y-93056670D02*
X96978434Y-92556670D01*
X96930815Y-92628099D01*
X96883196Y-92675718D01*
X96835577Y-92699527D01*
X97287958Y-92556670D02*
X97621291Y-92556670D01*
X97407005Y-93056670D01*
D13*
D12*
X95787958Y-87317860D02*
X95859386Y-87341670D01*
X95978434Y-87341670D01*
X96026053Y-87317860D01*
X96049862Y-87294051D01*
X96073672Y-87246432D01*
X96073672Y-87198813D01*
X96049862Y-87151194D01*
X96026053Y-87127384D01*
X95978434Y-87103575D01*
X95883196Y-87079765D01*
X95835577Y-87055956D01*
X95811767Y-87032146D01*
X95787958Y-86984527D01*
X95787958Y-86936908D01*
X95811767Y-86889289D01*
X95835577Y-86865480D01*
X95883196Y-86841670D01*
X96002243Y-86841670D01*
X96073672Y-86865480D01*
X96240339Y-86841670D02*
X96359386Y-87341670D01*
X96454624Y-86984527D01*
X96549862Y-87341670D01*
X96668910Y-86841670D01*
X97121291Y-87341670D02*
X96835577Y-87341670D01*
X96978434Y-87341670D02*
X96978434Y-86841670D01*
X96930815Y-86913099D01*
X96883196Y-86960718D01*
X96835577Y-86984527D01*
X97549862Y-86841670D02*
X97454624Y-86841670D01*
X97407005Y-86865480D01*
X97383196Y-86889289D01*
X97335577Y-86960718D01*
X97311767Y-87055956D01*
X97311767Y-87246432D01*
X97335577Y-87294051D01*
X97359386Y-87317860D01*
X97407005Y-87341670D01*
X97502243Y-87341670D01*
X97549862Y-87317860D01*
X97573672Y-87294051D01*
X97597481Y-87246432D01*
X97597481Y-87127384D01*
X97573672Y-87079765D01*
X97549862Y-87055956D01*
X97502243Y-87032146D01*
X97407005Y-87032146D01*
X97359386Y-87055956D01*
X97335577Y-87079765D01*
X97311767Y-87127384D01*
D13*
D12*
X93674380Y-84800961D02*
X93698190Y-84729533D01*
X93698190Y-84610485D01*
X93674380Y-84562866D01*
X93650571Y-84539057D01*
X93602952Y-84515247D01*
X93555333Y-84515247D01*
X93507714Y-84539057D01*
X93483904Y-84562866D01*
X93460095Y-84610485D01*
X93436285Y-84705723D01*
X93412476Y-84753342D01*
X93388666Y-84777152D01*
X93341047Y-84800961D01*
X93293428Y-84800961D01*
X93245809Y-84777152D01*
X93222000Y-84753342D01*
X93198190Y-84705723D01*
X93198190Y-84586676D01*
X93222000Y-84515247D01*
X93198190Y-84348580D02*
X93698190Y-84229533D01*
X93341047Y-84134295D01*
X93698190Y-84039057D01*
X93198190Y-83920009D01*
X93698190Y-83467628D02*
X93698190Y-83753342D01*
X93698190Y-83610485D02*
X93198190Y-83610485D01*
X93269619Y-83658104D01*
X93317238Y-83705723D01*
X93341047Y-83753342D01*
X93198190Y-83015247D02*
X93198190Y-83253342D01*
X93436285Y-83277152D01*
X93412476Y-83253342D01*
X93388666Y-83205723D01*
X93388666Y-83086676D01*
X93412476Y-83039057D01*
X93436285Y-83015247D01*
X93483904Y-82991438D01*
X93602952Y-82991438D01*
X93650571Y-83015247D01*
X93674380Y-83039057D01*
X93698190Y-83086676D01*
X93698190Y-83205723D01*
X93674380Y-83253342D01*
X93650571Y-83277152D01*
D13*
D12*
X88802958Y-108272860D02*
X88874386Y-108296670D01*
X88993434Y-108296670D01*
X89041053Y-108272860D01*
X89064862Y-108249051D01*
X89088672Y-108201432D01*
X89088672Y-108153813D01*
X89064862Y-108106194D01*
X89041053Y-108082384D01*
X88993434Y-108058575D01*
X88898196Y-108034765D01*
X88850577Y-108010956D01*
X88826767Y-107987146D01*
X88802958Y-107939527D01*
X88802958Y-107891908D01*
X88826767Y-107844289D01*
X88850577Y-107820480D01*
X88898196Y-107796670D01*
X89017243Y-107796670D01*
X89088672Y-107820480D01*
X89255339Y-107796670D02*
X89374386Y-108296670D01*
X89469624Y-107939527D01*
X89564862Y-108296670D01*
X89683910Y-107796670D01*
X90136291Y-108296670D02*
X89850577Y-108296670D01*
X89993434Y-108296670D02*
X89993434Y-107796670D01*
X89945815Y-107868099D01*
X89898196Y-107915718D01*
X89850577Y-107939527D01*
X90302958Y-107796670D02*
X90612481Y-107796670D01*
X90445815Y-107987146D01*
X90517243Y-107987146D01*
X90564862Y-108010956D01*
X90588672Y-108034765D01*
X90612481Y-108082384D01*
X90612481Y-108201432D01*
X90588672Y-108249051D01*
X90564862Y-108272860D01*
X90517243Y-108296670D01*
X90374386Y-108296670D01*
X90326767Y-108272860D01*
X90302958Y-108249051D01*
D13*
D12*
X88802958Y-103192860D02*
X88874386Y-103216670D01*
X88993434Y-103216670D01*
X89041053Y-103192860D01*
X89064862Y-103169051D01*
X89088672Y-103121432D01*
X89088672Y-103073813D01*
X89064862Y-103026194D01*
X89041053Y-103002384D01*
X88993434Y-102978575D01*
X88898196Y-102954765D01*
X88850577Y-102930956D01*
X88826767Y-102907146D01*
X88802958Y-102859527D01*
X88802958Y-102811908D01*
X88826767Y-102764289D01*
X88850577Y-102740480D01*
X88898196Y-102716670D01*
X89017243Y-102716670D01*
X89088672Y-102740480D01*
X89255339Y-102716670D02*
X89374386Y-103216670D01*
X89469624Y-102859527D01*
X89564862Y-103216670D01*
X89683910Y-102716670D01*
X90136291Y-103216670D02*
X89850577Y-103216670D01*
X89993434Y-103216670D02*
X89993434Y-102716670D01*
X89945815Y-102788099D01*
X89898196Y-102835718D01*
X89850577Y-102859527D01*
X90326767Y-102764289D02*
X90350577Y-102740480D01*
X90398196Y-102716670D01*
X90517243Y-102716670D01*
X90564862Y-102740480D01*
X90588672Y-102764289D01*
X90612481Y-102811908D01*
X90612481Y-102859527D01*
X90588672Y-102930956D01*
X90302958Y-103216670D01*
X90612481Y-103216670D01*
D13*
D12*
X88802958Y-98112860D02*
X88874386Y-98136670D01*
X88993434Y-98136670D01*
X89041053Y-98112860D01*
X89064862Y-98089051D01*
X89088672Y-98041432D01*
X89088672Y-97993813D01*
X89064862Y-97946194D01*
X89041053Y-97922384D01*
X88993434Y-97898575D01*
X88898196Y-97874765D01*
X88850577Y-97850956D01*
X88826767Y-97827146D01*
X88802958Y-97779527D01*
X88802958Y-97731908D01*
X88826767Y-97684289D01*
X88850577Y-97660480D01*
X88898196Y-97636670D01*
X89017243Y-97636670D01*
X89088672Y-97660480D01*
X89255339Y-97636670D02*
X89374386Y-98136670D01*
X89469624Y-97779527D01*
X89564862Y-98136670D01*
X89683910Y-97636670D01*
X90136291Y-98136670D02*
X89850577Y-98136670D01*
X89993434Y-98136670D02*
X89993434Y-97636670D01*
X89945815Y-97708099D01*
X89898196Y-97755718D01*
X89850577Y-97779527D01*
X90612481Y-98136670D02*
X90326767Y-98136670D01*
X90469624Y-98136670D02*
X90469624Y-97636670D01*
X90422005Y-97708099D01*
X90374386Y-97755718D01*
X90326767Y-97779527D01*
D13*
D12*
X88802958Y-93032860D02*
X88874386Y-93056670D01*
X88993434Y-93056670D01*
X89041053Y-93032860D01*
X89064862Y-93009051D01*
X89088672Y-92961432D01*
X89088672Y-92913813D01*
X89064862Y-92866194D01*
X89041053Y-92842384D01*
X88993434Y-92818575D01*
X88898196Y-92794765D01*
X88850577Y-92770956D01*
X88826767Y-92747146D01*
X88802958Y-92699527D01*
X88802958Y-92651908D01*
X88826767Y-92604289D01*
X88850577Y-92580480D01*
X88898196Y-92556670D01*
X89017243Y-92556670D01*
X89088672Y-92580480D01*
X89255339Y-92556670D02*
X89374386Y-93056670D01*
X89469624Y-92699527D01*
X89564862Y-93056670D01*
X89683910Y-92556670D01*
X90136291Y-93056670D02*
X89850577Y-93056670D01*
X89993434Y-93056670D02*
X89993434Y-92556670D01*
X89945815Y-92628099D01*
X89898196Y-92675718D01*
X89850577Y-92699527D01*
X90445815Y-92556670D02*
X90493434Y-92556670D01*
X90541053Y-92580480D01*
X90564862Y-92604289D01*
X90588672Y-92651908D01*
X90612481Y-92747146D01*
X90612481Y-92866194D01*
X90588672Y-92961432D01*
X90564862Y-93009051D01*
X90541053Y-93032860D01*
X90493434Y-93056670D01*
X90445815Y-93056670D01*
X90398196Y-93032860D01*
X90374386Y-93009051D01*
X90350577Y-92961432D01*
X90326767Y-92866194D01*
X90326767Y-92747146D01*
X90350577Y-92651908D01*
X90374386Y-92604289D01*
X90398196Y-92580480D01*
X90445815Y-92556670D01*
D13*
D12*
X89041053Y-87317860D02*
X89112481Y-87341670D01*
X89231529Y-87341670D01*
X89279148Y-87317860D01*
X89302958Y-87294051D01*
X89326767Y-87246432D01*
X89326767Y-87198813D01*
X89302958Y-87151194D01*
X89279148Y-87127384D01*
X89231529Y-87103575D01*
X89136291Y-87079765D01*
X89088672Y-87055956D01*
X89064862Y-87032146D01*
X89041053Y-86984527D01*
X89041053Y-86936908D01*
X89064862Y-86889289D01*
X89088672Y-86865480D01*
X89136291Y-86841670D01*
X89255339Y-86841670D01*
X89326767Y-86865480D01*
X89493434Y-86841670D02*
X89612481Y-87341670D01*
X89707720Y-86984527D01*
X89802958Y-87341670D01*
X89922005Y-86841670D01*
X90136291Y-87341670D02*
X90231529Y-87341670D01*
X90279148Y-87317860D01*
X90302958Y-87294051D01*
X90350577Y-87222622D01*
X90374386Y-87127384D01*
X90374386Y-86936908D01*
X90350577Y-86889289D01*
X90326767Y-86865480D01*
X90279148Y-86841670D01*
X90183910Y-86841670D01*
X90136291Y-86865480D01*
X90112481Y-86889289D01*
X90088672Y-86936908D01*
X90088672Y-87055956D01*
X90112481Y-87103575D01*
X90136291Y-87127384D01*
X90183910Y-87151194D01*
X90279148Y-87151194D01*
X90326767Y-87127384D01*
X90350577Y-87103575D01*
X90374386Y-87055956D01*
D13*
D12*
X86359180Y-84562866D02*
X86382990Y-84491438D01*
X86382990Y-84372390D01*
X86359180Y-84324771D01*
X86335371Y-84300961D01*
X86287752Y-84277152D01*
X86240133Y-84277152D01*
X86192514Y-84300961D01*
X86168704Y-84324771D01*
X86144895Y-84372390D01*
X86121085Y-84467628D01*
X86097276Y-84515247D01*
X86073466Y-84539057D01*
X86025847Y-84562866D01*
X85978228Y-84562866D01*
X85930609Y-84539057D01*
X85906800Y-84515247D01*
X85882990Y-84467628D01*
X85882990Y-84348580D01*
X85906800Y-84277152D01*
X85882990Y-84110485D02*
X86382990Y-83991438D01*
X86025847Y-83896200D01*
X86382990Y-83800961D01*
X85882990Y-83681914D01*
X86097276Y-83420009D02*
X86073466Y-83467628D01*
X86049657Y-83491438D01*
X86002038Y-83515247D01*
X85978228Y-83515247D01*
X85930609Y-83491438D01*
X85906800Y-83467628D01*
X85882990Y-83420009D01*
X85882990Y-83324771D01*
X85906800Y-83277152D01*
X85930609Y-83253342D01*
X85978228Y-83229533D01*
X86002038Y-83229533D01*
X86049657Y-83253342D01*
X86073466Y-83277152D01*
X86097276Y-83324771D01*
X86097276Y-83420009D01*
X86121085Y-83467628D01*
X86144895Y-83491438D01*
X86192514Y-83515247D01*
X86287752Y-83515247D01*
X86335371Y-83491438D01*
X86359180Y-83467628D01*
X86382990Y-83420009D01*
X86382990Y-83324771D01*
X86359180Y-83277152D01*
X86335371Y-83253342D01*
X86287752Y-83229533D01*
X86192514Y-83229533D01*
X86144895Y-83253342D01*
X86121085Y-83277152D01*
X86097276Y-83324771D01*
D13*
D12*
X82056053Y-108272860D02*
X82127481Y-108296670D01*
X82246529Y-108296670D01*
X82294148Y-108272860D01*
X82317958Y-108249051D01*
X82341767Y-108201432D01*
X82341767Y-108153813D01*
X82317958Y-108106194D01*
X82294148Y-108082384D01*
X82246529Y-108058575D01*
X82151291Y-108034765D01*
X82103672Y-108010956D01*
X82079862Y-107987146D01*
X82056053Y-107939527D01*
X82056053Y-107891908D01*
X82079862Y-107844289D01*
X82103672Y-107820480D01*
X82151291Y-107796670D01*
X82270339Y-107796670D01*
X82341767Y-107820480D01*
X82508434Y-107796670D02*
X82627481Y-108296670D01*
X82722720Y-107939527D01*
X82817958Y-108296670D01*
X82937005Y-107796670D01*
X83079862Y-107796670D02*
X83413196Y-107796670D01*
X83198910Y-108296670D01*
D13*
D12*
X82056053Y-103192860D02*
X82127481Y-103216670D01*
X82246529Y-103216670D01*
X82294148Y-103192860D01*
X82317958Y-103169051D01*
X82341767Y-103121432D01*
X82341767Y-103073813D01*
X82317958Y-103026194D01*
X82294148Y-103002384D01*
X82246529Y-102978575D01*
X82151291Y-102954765D01*
X82103672Y-102930956D01*
X82079862Y-102907146D01*
X82056053Y-102859527D01*
X82056053Y-102811908D01*
X82079862Y-102764289D01*
X82103672Y-102740480D01*
X82151291Y-102716670D01*
X82270339Y-102716670D01*
X82341767Y-102740480D01*
X82508434Y-102716670D02*
X82627481Y-103216670D01*
X82722720Y-102859527D01*
X82817958Y-103216670D01*
X82937005Y-102716670D01*
X83341767Y-102716670D02*
X83246529Y-102716670D01*
X83198910Y-102740480D01*
X83175100Y-102764289D01*
X83127481Y-102835718D01*
X83103672Y-102930956D01*
X83103672Y-103121432D01*
X83127481Y-103169051D01*
X83151291Y-103192860D01*
X83198910Y-103216670D01*
X83294148Y-103216670D01*
X83341767Y-103192860D01*
X83365577Y-103169051D01*
X83389386Y-103121432D01*
X83389386Y-103002384D01*
X83365577Y-102954765D01*
X83341767Y-102930956D01*
X83294148Y-102907146D01*
X83198910Y-102907146D01*
X83151291Y-102930956D01*
X83127481Y-102954765D01*
X83103672Y-103002384D01*
D13*
D12*
X82056053Y-98112860D02*
X82127481Y-98136670D01*
X82246529Y-98136670D01*
X82294148Y-98112860D01*
X82317958Y-98089051D01*
X82341767Y-98041432D01*
X82341767Y-97993813D01*
X82317958Y-97946194D01*
X82294148Y-97922384D01*
X82246529Y-97898575D01*
X82151291Y-97874765D01*
X82103672Y-97850956D01*
X82079862Y-97827146D01*
X82056053Y-97779527D01*
X82056053Y-97731908D01*
X82079862Y-97684289D01*
X82103672Y-97660480D01*
X82151291Y-97636670D01*
X82270339Y-97636670D01*
X82341767Y-97660480D01*
X82508434Y-97636670D02*
X82627481Y-98136670D01*
X82722720Y-97779527D01*
X82817958Y-98136670D01*
X82937005Y-97636670D01*
X83365577Y-97636670D02*
X83127481Y-97636670D01*
X83103672Y-97874765D01*
X83127481Y-97850956D01*
X83175100Y-97827146D01*
X83294148Y-97827146D01*
X83341767Y-97850956D01*
X83365577Y-97874765D01*
X83389386Y-97922384D01*
X83389386Y-98041432D01*
X83365577Y-98089051D01*
X83341767Y-98112860D01*
X83294148Y-98136670D01*
X83175100Y-98136670D01*
X83127481Y-98112860D01*
X83103672Y-98089051D01*
D13*
D12*
X82056053Y-93032860D02*
X82127481Y-93056670D01*
X82246529Y-93056670D01*
X82294148Y-93032860D01*
X82317958Y-93009051D01*
X82341767Y-92961432D01*
X82341767Y-92913813D01*
X82317958Y-92866194D01*
X82294148Y-92842384D01*
X82246529Y-92818575D01*
X82151291Y-92794765D01*
X82103672Y-92770956D01*
X82079862Y-92747146D01*
X82056053Y-92699527D01*
X82056053Y-92651908D01*
X82079862Y-92604289D01*
X82103672Y-92580480D01*
X82151291Y-92556670D01*
X82270339Y-92556670D01*
X82341767Y-92580480D01*
X82508434Y-92556670D02*
X82627481Y-93056670D01*
X82722720Y-92699527D01*
X82817958Y-93056670D01*
X82937005Y-92556670D01*
X83341767Y-92723337D02*
X83341767Y-93056670D01*
X83222720Y-92532860D02*
X83103672Y-92890003D01*
X83413196Y-92890003D01*
D13*
D12*
X82056053Y-87317860D02*
X82127481Y-87341670D01*
X82246529Y-87341670D01*
X82294148Y-87317860D01*
X82317958Y-87294051D01*
X82341767Y-87246432D01*
X82341767Y-87198813D01*
X82317958Y-87151194D01*
X82294148Y-87127384D01*
X82246529Y-87103575D01*
X82151291Y-87079765D01*
X82103672Y-87055956D01*
X82079862Y-87032146D01*
X82056053Y-86984527D01*
X82056053Y-86936908D01*
X82079862Y-86889289D01*
X82103672Y-86865480D01*
X82151291Y-86841670D01*
X82270339Y-86841670D01*
X82341767Y-86865480D01*
X82508434Y-86841670D02*
X82627481Y-87341670D01*
X82722720Y-86984527D01*
X82817958Y-87341670D01*
X82937005Y-86841670D01*
X83079862Y-86841670D02*
X83389386Y-86841670D01*
X83222720Y-87032146D01*
X83294148Y-87032146D01*
X83341767Y-87055956D01*
X83365577Y-87079765D01*
X83389386Y-87127384D01*
X83389386Y-87246432D01*
X83365577Y-87294051D01*
X83341767Y-87317860D01*
X83294148Y-87341670D01*
X83151291Y-87341670D01*
X83103672Y-87317860D01*
X83079862Y-87294051D01*
D13*
D12*
X79551980Y-85324866D02*
X79575790Y-85253438D01*
X79575790Y-85134390D01*
X79551980Y-85086771D01*
X79528171Y-85062961D01*
X79480552Y-85039152D01*
X79432933Y-85039152D01*
X79385314Y-85062961D01*
X79361504Y-85086771D01*
X79337695Y-85134390D01*
X79313885Y-85229628D01*
X79290076Y-85277247D01*
X79266266Y-85301057D01*
X79218647Y-85324866D01*
X79171028Y-85324866D01*
X79123409Y-85301057D01*
X79099600Y-85277247D01*
X79075790Y-85229628D01*
X79075790Y-85110580D01*
X79099600Y-85039152D01*
X79075790Y-84872485D02*
X79575790Y-84753438D01*
X79218647Y-84658200D01*
X79575790Y-84562961D01*
X79075790Y-84443914D01*
X79123409Y-84277247D02*
X79099600Y-84253438D01*
X79075790Y-84205819D01*
X79075790Y-84086771D01*
X79099600Y-84039152D01*
X79123409Y-84015342D01*
X79171028Y-83991533D01*
X79218647Y-83991533D01*
X79290076Y-84015342D01*
X79575790Y-84301057D01*
X79575790Y-83991533D01*
D13*
D12*
X102207190Y-110735228D02*
X101969095Y-110901895D01*
X102207190Y-111020942D02*
X101707190Y-111020942D01*
X101707190Y-110830466D01*
X101731000Y-110782847D01*
X101754809Y-110759038D01*
X101802428Y-110735228D01*
X101873857Y-110735228D01*
X101921476Y-110759038D01*
X101945285Y-110782847D01*
X101969095Y-110830466D01*
X101969095Y-111020942D01*
X102207190Y-110259038D02*
X102207190Y-110544752D01*
X102207190Y-110401895D02*
X101707190Y-110401895D01*
X101778619Y-110449514D01*
X101826238Y-110497133D01*
X101850047Y-110544752D01*
X101754809Y-110068561D02*
X101731000Y-110044752D01*
X101707190Y-109997133D01*
X101707190Y-109878085D01*
X101731000Y-109830466D01*
X101754809Y-109806657D01*
X101802428Y-109782847D01*
X101850047Y-109782847D01*
X101921476Y-109806657D01*
X102207190Y-110092371D01*
X102207190Y-109782847D01*
D13*
D12*
X102308790Y-105579028D02*
X102070695Y-105745695D01*
X102308790Y-105864742D02*
X101808790Y-105864742D01*
X101808790Y-105674266D01*
X101832600Y-105626647D01*
X101856409Y-105602838D01*
X101904028Y-105579028D01*
X101975457Y-105579028D01*
X102023076Y-105602838D01*
X102046885Y-105626647D01*
X102070695Y-105674266D01*
X102070695Y-105864742D01*
X102308790Y-105102838D02*
X102308790Y-105388552D01*
X102308790Y-105245695D02*
X101808790Y-105245695D01*
X101880219Y-105293314D01*
X101927838Y-105340933D01*
X101951647Y-105388552D01*
X102308790Y-104626647D02*
X102308790Y-104912361D01*
X102308790Y-104769504D02*
X101808790Y-104769504D01*
X101880219Y-104817123D01*
X101927838Y-104864742D01*
X101951647Y-104912361D01*
D13*
D12*
X102384990Y-100702228D02*
X102146895Y-100868895D01*
X102384990Y-100987942D02*
X101884990Y-100987942D01*
X101884990Y-100797466D01*
X101908800Y-100749847D01*
X101932609Y-100726038D01*
X101980228Y-100702228D01*
X102051657Y-100702228D01*
X102099276Y-100726038D01*
X102123085Y-100749847D01*
X102146895Y-100797466D01*
X102146895Y-100987942D01*
X102384990Y-100226038D02*
X102384990Y-100511752D01*
X102384990Y-100368895D02*
X101884990Y-100368895D01*
X101956419Y-100416514D01*
X102004038Y-100464133D01*
X102027847Y-100511752D01*
X101884990Y-99916514D02*
X101884990Y-99868895D01*
X101908800Y-99821276D01*
X101932609Y-99797466D01*
X101980228Y-99773657D01*
X102075466Y-99749847D01*
X102194514Y-99749847D01*
X102289752Y-99773657D01*
X102337371Y-99797466D01*
X102361180Y-99821276D01*
X102384990Y-99868895D01*
X102384990Y-99916514D01*
X102361180Y-99964133D01*
X102337371Y-99987942D01*
X102289752Y-100011752D01*
X102194514Y-100035561D01*
X102075466Y-100035561D01*
X101980228Y-100011752D01*
X101932609Y-99987942D01*
X101908800Y-99964133D01*
X101884990Y-99916514D01*
D13*
D12*
X102130990Y-95307933D02*
X101892895Y-95474600D01*
X102130990Y-95593647D02*
X101630990Y-95593647D01*
X101630990Y-95403171D01*
X101654800Y-95355552D01*
X101678609Y-95331742D01*
X101726228Y-95307933D01*
X101797657Y-95307933D01*
X101845276Y-95331742D01*
X101869085Y-95355552D01*
X101892895Y-95403171D01*
X101892895Y-95593647D01*
X102130990Y-95069838D02*
X102130990Y-94974600D01*
X102107180Y-94926980D01*
X102083371Y-94903171D01*
X102011942Y-94855552D01*
X101916704Y-94831742D01*
X101726228Y-94831742D01*
X101678609Y-94855552D01*
X101654800Y-94879361D01*
X101630990Y-94926980D01*
X101630990Y-95022219D01*
X101654800Y-95069838D01*
X101678609Y-95093647D01*
X101726228Y-95117457D01*
X101845276Y-95117457D01*
X101892895Y-95093647D01*
X101916704Y-95069838D01*
X101940514Y-95022219D01*
X101940514Y-94926980D01*
X101916704Y-94879361D01*
X101892895Y-94855552D01*
X101845276Y-94831742D01*
D13*
D12*
X102359590Y-89669133D02*
X102121495Y-89835800D01*
X102359590Y-89954847D02*
X101859590Y-89954847D01*
X101859590Y-89764371D01*
X101883400Y-89716752D01*
X101907209Y-89692942D01*
X101954828Y-89669133D01*
X102026257Y-89669133D01*
X102073876Y-89692942D01*
X102097685Y-89716752D01*
X102121495Y-89764371D01*
X102121495Y-89954847D01*
X102073876Y-89383419D02*
X102050066Y-89431038D01*
X102026257Y-89454847D01*
X101978638Y-89478657D01*
X101954828Y-89478657D01*
X101907209Y-89454847D01*
X101883400Y-89431038D01*
X101859590Y-89383419D01*
X101859590Y-89288180D01*
X101883400Y-89240561D01*
X101907209Y-89216752D01*
X101954828Y-89192942D01*
X101978638Y-89192942D01*
X102026257Y-89216752D01*
X102050066Y-89240561D01*
X102073876Y-89288180D01*
X102073876Y-89383419D01*
X102097685Y-89431038D01*
X102121495Y-89454847D01*
X102169114Y-89478657D01*
X102264352Y-89478657D01*
X102311971Y-89454847D01*
X102335780Y-89431038D01*
X102359590Y-89383419D01*
X102359590Y-89288180D01*
X102335780Y-89240561D01*
X102311971Y-89216752D01*
X102264352Y-89192942D01*
X102169114Y-89192942D01*
X102121495Y-89216752D01*
X102097685Y-89240561D01*
X102073876Y-89288180D01*
D13*
D12*
X102257990Y-84538333D02*
X102019895Y-84705000D01*
X102257990Y-84824047D02*
X101757990Y-84824047D01*
X101757990Y-84633571D01*
X101781800Y-84585952D01*
X101805609Y-84562142D01*
X101853228Y-84538333D01*
X101924657Y-84538333D01*
X101972276Y-84562142D01*
X101996085Y-84585952D01*
X102019895Y-84633571D01*
X102019895Y-84824047D01*
X101757990Y-84371666D02*
X101757990Y-84038333D01*
X102257990Y-84252619D01*
D13*
D12*
X72858333Y-58901390D02*
X72858333Y-59258533D01*
X72834523Y-59329961D01*
X72786904Y-59377580D01*
X72715476Y-59401390D01*
X72667857Y-59401390D01*
X73072619Y-58949009D02*
X73096428Y-58925200D01*
X73144047Y-58901390D01*
X73263095Y-58901390D01*
X73310714Y-58925200D01*
X73334523Y-58949009D01*
X73358333Y-58996628D01*
X73358333Y-59044247D01*
X73334523Y-59115676D01*
X73048809Y-59401390D01*
X73358333Y-59401390D01*
D13*
D12*
X79440885Y-99730666D02*
X79440885Y-99897333D01*
X79702790Y-99897333D02*
X79202790Y-99897333D01*
X79202790Y-99659238D01*
X79440885Y-99302095D02*
X79464695Y-99230666D01*
X79488504Y-99206857D01*
X79536123Y-99183047D01*
X79607552Y-99183047D01*
X79655171Y-99206857D01*
X79678980Y-99230666D01*
X79702790Y-99278285D01*
X79702790Y-99468761D01*
X79202790Y-99468761D01*
X79202790Y-99302095D01*
X79226600Y-99254476D01*
X79250409Y-99230666D01*
X79298028Y-99206857D01*
X79345647Y-99206857D01*
X79393266Y-99230666D01*
X79417076Y-99254476D01*
X79440885Y-99302095D01*
X79440885Y-99468761D01*
X79250409Y-98992571D02*
X79226600Y-98968761D01*
X79202790Y-98921142D01*
X79202790Y-98802095D01*
X79226600Y-98754476D01*
X79250409Y-98730666D01*
X79298028Y-98706857D01*
X79345647Y-98706857D01*
X79417076Y-98730666D01*
X79702790Y-99016380D01*
X79702790Y-98706857D01*
D13*
D12*
X79491685Y-105267866D02*
X79491685Y-105434533D01*
X79753590Y-105434533D02*
X79253590Y-105434533D01*
X79253590Y-105196438D01*
X79491685Y-104839295D02*
X79515495Y-104767866D01*
X79539304Y-104744057D01*
X79586923Y-104720247D01*
X79658352Y-104720247D01*
X79705971Y-104744057D01*
X79729780Y-104767866D01*
X79753590Y-104815485D01*
X79753590Y-105005961D01*
X79253590Y-105005961D01*
X79253590Y-104839295D01*
X79277400Y-104791676D01*
X79301209Y-104767866D01*
X79348828Y-104744057D01*
X79396447Y-104744057D01*
X79444066Y-104767866D01*
X79467876Y-104791676D01*
X79491685Y-104839295D01*
X79491685Y-105005961D01*
X79753590Y-104244057D02*
X79753590Y-104529771D01*
X79753590Y-104386914D02*
X79253590Y-104386914D01*
X79325019Y-104434533D01*
X79372638Y-104482152D01*
X79396447Y-104529771D01*
D13*
D12*
X76904066Y-102337371D02*
X76880257Y-102361180D01*
X76808828Y-102384990D01*
X76761209Y-102384990D01*
X76689780Y-102361180D01*
X76642161Y-102313561D01*
X76618352Y-102265942D01*
X76594542Y-102170704D01*
X76594542Y-102099276D01*
X76618352Y-102004038D01*
X76642161Y-101956419D01*
X76689780Y-101908800D01*
X76761209Y-101884990D01*
X76808828Y-101884990D01*
X76880257Y-101908800D01*
X76904066Y-101932609D01*
X77189780Y-102099276D02*
X77142161Y-102075466D01*
X77118352Y-102051657D01*
X77094542Y-102004038D01*
X77094542Y-101980228D01*
X77118352Y-101932609D01*
X77142161Y-101908800D01*
X77189780Y-101884990D01*
X77285019Y-101884990D01*
X77332638Y-101908800D01*
X77356447Y-101932609D01*
X77380257Y-101980228D01*
X77380257Y-102004038D01*
X77356447Y-102051657D01*
X77332638Y-102075466D01*
X77285019Y-102099276D01*
X77189780Y-102099276D01*
X77142161Y-102123085D01*
X77118352Y-102146895D01*
X77094542Y-102194514D01*
X77094542Y-102289752D01*
X77118352Y-102337371D01*
X77142161Y-102361180D01*
X77189780Y-102384990D01*
X77285019Y-102384990D01*
X77332638Y-102361180D01*
X77356447Y-102337371D01*
X77380257Y-102289752D01*
X77380257Y-102194514D01*
X77356447Y-102146895D01*
X77332638Y-102123085D01*
X77285019Y-102099276D01*
D13*
D12*
X78072466Y-107874571D02*
X78048657Y-107898380D01*
X77977228Y-107922190D01*
X77929609Y-107922190D01*
X77858180Y-107898380D01*
X77810561Y-107850761D01*
X77786752Y-107803142D01*
X77762942Y-107707904D01*
X77762942Y-107636476D01*
X77786752Y-107541238D01*
X77810561Y-107493619D01*
X77858180Y-107446000D01*
X77929609Y-107422190D01*
X77977228Y-107422190D01*
X78048657Y-107446000D01*
X78072466Y-107469809D01*
X78239133Y-107422190D02*
X78572466Y-107422190D01*
X78358180Y-107922190D01*
D13*
D12*
X78605866Y-102718371D02*
X78582057Y-102742180D01*
X78510628Y-102765990D01*
X78463009Y-102765990D01*
X78391580Y-102742180D01*
X78343961Y-102694561D01*
X78320152Y-102646942D01*
X78296342Y-102551704D01*
X78296342Y-102480276D01*
X78320152Y-102385038D01*
X78343961Y-102337419D01*
X78391580Y-102289800D01*
X78463009Y-102265990D01*
X78510628Y-102265990D01*
X78582057Y-102289800D01*
X78605866Y-102313609D01*
X79058247Y-102265990D02*
X78820152Y-102265990D01*
X78796342Y-102504085D01*
X78820152Y-102480276D01*
X78867771Y-102456466D01*
X78986819Y-102456466D01*
X79034438Y-102480276D01*
X79058247Y-102504085D01*
X79082057Y-102551704D01*
X79082057Y-102670752D01*
X79058247Y-102718371D01*
X79034438Y-102742180D01*
X78986819Y-102765990D01*
X78867771Y-102765990D01*
X78820152Y-102742180D01*
X78796342Y-102718371D01*
D13*
D12*
X75151466Y-106452171D02*
X75127657Y-106475980D01*
X75056228Y-106499790D01*
X75008609Y-106499790D01*
X74937180Y-106475980D01*
X74889561Y-106428361D01*
X74865752Y-106380742D01*
X74841942Y-106285504D01*
X74841942Y-106214076D01*
X74865752Y-106118838D01*
X74889561Y-106071219D01*
X74937180Y-106023600D01*
X75008609Y-105999790D01*
X75056228Y-105999790D01*
X75127657Y-106023600D01*
X75151466Y-106047409D01*
X75580038Y-106166457D02*
X75580038Y-106499790D01*
X75460990Y-105975980D02*
X75341942Y-106333123D01*
X75651466Y-106333123D01*
D13*
D12*
X77462866Y-97435171D02*
X77439057Y-97458980D01*
X77367628Y-97482790D01*
X77320009Y-97482790D01*
X77248580Y-97458980D01*
X77200961Y-97411361D01*
X77177152Y-97363742D01*
X77153342Y-97268504D01*
X77153342Y-97197076D01*
X77177152Y-97101838D01*
X77200961Y-97054219D01*
X77248580Y-97006600D01*
X77320009Y-96982790D01*
X77367628Y-96982790D01*
X77439057Y-97006600D01*
X77462866Y-97030409D01*
X77629533Y-96982790D02*
X77939057Y-96982790D01*
X77772390Y-97173266D01*
X77843819Y-97173266D01*
X77891438Y-97197076D01*
X77915247Y-97220885D01*
X77939057Y-97268504D01*
X77939057Y-97387552D01*
X77915247Y-97435171D01*
X77891438Y-97458980D01*
X77843819Y-97482790D01*
X77700961Y-97482790D01*
X77653342Y-97458980D01*
X77629533Y-97435171D01*
D13*
M02*
