M48
; DRILL file {KiCad 5.1.6-c6e7f7d~87~ubuntu18.04.1} date Wed Jul 22 21:50:47 2020
; FORMAT={-:-/ absolute / inch / decimal}
; #@! TF.CreationDate,2020-07-22T21:50:47+02:00
; #@! TF.GenerationSoftware,Kicad,Pcbnew,5.1.6-c6e7f7d~87~ubuntu18.04.1
; #@! TF.FileFunction,Plated,1,2,PTH
FMAT,2
INCH
T1C0.0079
T2C0.0157
T3C0.0256
T4C0.0394
T5C0.0512
%
G90
G05
T1
X2.84Y-3.844
X2.845Y-3.948
X2.861Y-4.026
X2.871Y-2.934
X2.886Y-3.784
X2.886Y-4.17
X2.887Y-4.08
X2.934Y-4.221
X2.936Y-2.932
X2.941Y-3.737
X2.941Y-3.98
X2.948Y-2.898
X2.96Y-3.96
X2.973Y-4.002
X2.975Y-4.278
X2.976Y-2.12
X2.982Y-2.311
X2.984Y-3.477
X2.987Y-3.262
X2.99Y-3.347
X3.003Y-4.032
X3.008Y-3.18
X3.013Y-2.838
X3.015Y-3.65
X3.018Y-3.566
X3.025Y-4.287
X3.065Y-2.394
X3.066Y-4.038
X3.073Y-3.122
X3.076Y-3.807
X3.079Y-2.123
X3.093Y-3.785
X3.093Y-4.283
X3.105Y-4.149
X3.116Y-3.03
X3.1165Y-3.8172
X3.125Y-3.994
X3.127Y-3.757
X3.128Y-4.032
X3.129Y-3.951
X3.129Y-4.06
X3.131Y-4.089
X3.134Y-2.463
X3.144Y-3.852
X3.148Y-2.218
X3.152Y-4.252
X3.213Y-4.27
X3.215Y-4.239
X3.216Y-3.828
X3.218Y-2.744
X3.218Y-3.872
X3.225Y-2.287
X3.2543Y-3.4607
X3.2557Y-3.5243
X3.2557Y-3.6953
X3.2565Y-3.9431
X3.2579Y-3.7433
X3.2579Y-3.8945
X3.2621Y-4.2955
X3.2633Y-4.3425
X3.271Y-2.339
X3.2863Y-2.9237
X3.314Y-2.296
X3.326Y-2.438
X3.326Y-2.559
X3.34Y-2.684
X3.357Y-2.651
X3.368Y-2.361
X3.376Y-3.264
X3.376Y-3.34
X3.377Y-3.069
X3.382Y-2.894
X3.392Y-4.362
X3.394Y-4.0981
X3.394Y-4.144
X3.4044Y-2.8066
X3.4049Y-2.8535
X3.41Y-3.266
X3.41Y-3.34
X3.418Y-2.394
X3.4307Y-2.8305
X3.436Y-2.479
X3.448Y-3.186
X3.456Y-2.276
X3.4569Y-2.7419
X3.46Y-2.2
X3.486Y-2.7831
X3.4868Y-3.7192
X3.497Y-2.276
X3.5119Y-2.5596
X3.5217Y-3.5215
X3.5217Y-3.6925
X3.5249Y-3.4639
X3.5267Y-3.7414
X3.5267Y-3.8939
X3.5283Y-3.9423
X3.531Y-4.0946
X3.531Y-4.1414
X3.5313Y-4.3414
X3.5313Y-4.2981
X3.537Y-2.404
X3.54Y-2.279
X3.5404Y-2.7855
X3.549Y-2.198
X3.5503Y-3.9193
X3.568Y-2.934
X3.573Y-4.119
X3.574Y-3.814
X3.574Y-3.8981
X3.586Y-2.282
X3.594Y-2.956
X3.6028Y-2.7831
X3.6056Y-2.7442
X3.606Y-2.826
X3.621Y-2.431
X3.622Y-2.38
X3.629Y-2.282
X3.65Y-3.946
X3.652Y-3.141
X3.653Y-2.195
X3.667Y-3.251
X3.671Y-2.278
X3.674Y-4.363
X3.68Y-3.9414
X3.68Y-4.096
X3.68Y-4.1414
X3.684Y-3.358
X3.701Y-2.274
X3.704Y-2.418
X3.714Y-3.024
X3.7151Y-2.4702
X3.7263Y-2.5967
X3.731Y-2.193
X3.731Y-2.277
X3.75Y-2.69
X3.7507Y-2.4678
X3.759Y-2.295
X3.769Y-2.649
X3.77Y-2.396
X3.7815Y-2.5954
X3.7854Y-2.4669
X3.7892Y-2.2839
X3.792Y-2.227
X3.8033Y-4.0931
X3.8039Y-3.4621
X3.8039Y-4.1414
X3.8044Y-3.5198
X3.8045Y-3.6919
X3.8045Y-3.7421
X3.8055Y-3.8929
X3.8055Y-3.9414
X3.806Y-3.238
X3.8159Y-4.3437
X3.818Y-2.593
X3.8184Y-4.292
X3.8356Y-2.4664
X3.844Y-3.01
X3.846Y-2.643
X3.848Y-2.368
X3.849Y-2.298
X3.874Y-2.614
X3.9007Y-2.4678
X3.904Y-2.712
X3.91Y-3.043
X3.929Y-2.851
X3.949Y-4.436
X3.952Y-2.578
X3.954Y-3.239
X3.955Y-2.782
X3.957Y-2.4673
X3.975Y-2.615
X4.001Y-2.981
X4.0081Y-2.4683
X4.012Y-2.645
X4.028Y-2.554
X4.034Y-3.764
X4.034Y-3.871
X4.035Y-3.377
X4.035Y-4.292
X4.036Y-3.605
X4.037Y-4.21
X4.04Y-2.847
X4.041Y-2.977
X4.041Y-4.387
X4.042Y-3.059
X4.043Y-2.779
X4.086Y-4.214
X4.163Y-4.166
X4.2Y-4.122
T2
X3.218Y-2.978
T3
X2.875Y-2.113
X2.875Y-2.163
X2.875Y-2.213
X2.875Y-2.263
T4
X2.8274Y-2.4562
X2.8274Y-2.6334
X2.8294Y-2.8408
X2.8294Y-3.018
T5
X2.9258Y-2.407
X2.9258Y-2.6826
X2.9278Y-2.7916
X2.9278Y-3.0672
T0
M30
