G04 #@! TF.GenerationSoftware,KiCad,Pcbnew,5.1.6-c6e7f7d~87~ubuntu18.04.1*
G04 #@! TF.CreationDate,2020-07-22T21:50:42+02:00*
G04 #@! TF.ProjectId,HMI,484d492e-6b69-4636-9164-5f7063625858,rev?*
G04 #@! TF.SameCoordinates,Original*
G04 #@! TF.FileFunction,Paste,Top*
G04 #@! TF.FilePolarity,Positive*
%FSLAX46Y46*%
G04 Gerber Fmt 4.6, Leading zero omitted, Abs format (unit mm)*
G04 Created by KiCad (PCBNEW 5.1.6-c6e7f7d~87~ubuntu18.04.1) date 2020-07-22 21:50:42*
%MOMM*%
%LPD*%
G01*
G04 APERTURE LIST*
%ADD10R,0.900000X1.000000*%
G04 APERTURE END LIST*
G36*
G01*
X74953150Y-99333800D02*
X75465650Y-99333800D01*
G75*
G02*
X75684400Y-99552550I0J-218750D01*
G01*
X75684400Y-99990050D01*
G75*
G02*
X75465650Y-100208800I-218750J0D01*
G01*
X74953150Y-100208800D01*
G75*
G02*
X74734400Y-99990050I0J218750D01*
G01*
X74734400Y-99552550D01*
G75*
G02*
X74953150Y-99333800I218750J0D01*
G01*
G37*
G36*
G01*
X74953150Y-97758800D02*
X75465650Y-97758800D01*
G75*
G02*
X75684400Y-97977550I0J-218750D01*
G01*
X75684400Y-98415050D01*
G75*
G02*
X75465650Y-98633800I-218750J0D01*
G01*
X74953150Y-98633800D01*
G75*
G02*
X74734400Y-98415050I0J218750D01*
G01*
X74734400Y-97977550D01*
G75*
G02*
X74953150Y-97758800I218750J0D01*
G01*
G37*
D10*
X98742720Y-111320480D03*
X98742720Y-109720480D03*
X94642720Y-111320480D03*
X94642720Y-109720480D03*
X98742720Y-106240480D03*
X98742720Y-104640480D03*
X94642720Y-106240480D03*
X94642720Y-104640480D03*
X98742720Y-101160480D03*
X98742720Y-99560480D03*
X94642720Y-101160480D03*
X94642720Y-99560480D03*
X98742720Y-96080480D03*
X98742720Y-94480480D03*
X94642720Y-96080480D03*
X94642720Y-94480480D03*
X98742720Y-90365480D03*
X98742720Y-88765480D03*
X94642720Y-90365480D03*
X94642720Y-88765480D03*
X98742720Y-85285480D03*
X98742720Y-83685480D03*
X94642720Y-85285480D03*
X94642720Y-83685480D03*
X91757720Y-111320480D03*
X91757720Y-109720480D03*
X87657720Y-111320480D03*
X87657720Y-109720480D03*
X91757720Y-106240480D03*
X91757720Y-104640480D03*
X87657720Y-106240480D03*
X87657720Y-104640480D03*
X91757720Y-101160480D03*
X91757720Y-99560480D03*
X87657720Y-101160480D03*
X87657720Y-99560480D03*
X91757720Y-96080480D03*
X91757720Y-94480480D03*
X87657720Y-96080480D03*
X87657720Y-94480480D03*
X91757720Y-90365480D03*
X91757720Y-88765480D03*
X87657720Y-90365480D03*
X87657720Y-88765480D03*
X91757720Y-85285480D03*
X91757720Y-83685480D03*
X87657720Y-85285480D03*
X87657720Y-83685480D03*
X84772720Y-111320480D03*
X84772720Y-109720480D03*
X80672720Y-111320480D03*
X80672720Y-109720480D03*
X84772720Y-106240480D03*
X84772720Y-104640480D03*
X80672720Y-106240480D03*
X80672720Y-104640480D03*
X84772720Y-101160480D03*
X84772720Y-99560480D03*
X80672720Y-101160480D03*
X80672720Y-99560480D03*
X84772720Y-96080480D03*
X84772720Y-94480480D03*
X80672720Y-96080480D03*
X80672720Y-94480480D03*
X84772720Y-90365480D03*
X84772720Y-88765480D03*
X80672720Y-90365480D03*
X80672720Y-88765480D03*
X84772720Y-85285480D03*
X84772720Y-83685480D03*
X80672720Y-85285480D03*
X80672720Y-83685480D03*
G36*
G01*
X100758970Y-110170480D02*
X100246470Y-110170480D01*
G75*
G02*
X100027720Y-109951730I0J218750D01*
G01*
X100027720Y-109514230D01*
G75*
G02*
X100246470Y-109295480I218750J0D01*
G01*
X100758970Y-109295480D01*
G75*
G02*
X100977720Y-109514230I0J-218750D01*
G01*
X100977720Y-109951730D01*
G75*
G02*
X100758970Y-110170480I-218750J0D01*
G01*
G37*
G36*
G01*
X100758970Y-111745480D02*
X100246470Y-111745480D01*
G75*
G02*
X100027720Y-111526730I0J218750D01*
G01*
X100027720Y-111089230D01*
G75*
G02*
X100246470Y-110870480I218750J0D01*
G01*
X100758970Y-110870480D01*
G75*
G02*
X100977720Y-111089230I0J-218750D01*
G01*
X100977720Y-111526730D01*
G75*
G02*
X100758970Y-111745480I-218750J0D01*
G01*
G37*
G36*
G01*
X100758970Y-105090480D02*
X100246470Y-105090480D01*
G75*
G02*
X100027720Y-104871730I0J218750D01*
G01*
X100027720Y-104434230D01*
G75*
G02*
X100246470Y-104215480I218750J0D01*
G01*
X100758970Y-104215480D01*
G75*
G02*
X100977720Y-104434230I0J-218750D01*
G01*
X100977720Y-104871730D01*
G75*
G02*
X100758970Y-105090480I-218750J0D01*
G01*
G37*
G36*
G01*
X100758970Y-106665480D02*
X100246470Y-106665480D01*
G75*
G02*
X100027720Y-106446730I0J218750D01*
G01*
X100027720Y-106009230D01*
G75*
G02*
X100246470Y-105790480I218750J0D01*
G01*
X100758970Y-105790480D01*
G75*
G02*
X100977720Y-106009230I0J-218750D01*
G01*
X100977720Y-106446730D01*
G75*
G02*
X100758970Y-106665480I-218750J0D01*
G01*
G37*
G36*
G01*
X100758970Y-100010480D02*
X100246470Y-100010480D01*
G75*
G02*
X100027720Y-99791730I0J218750D01*
G01*
X100027720Y-99354230D01*
G75*
G02*
X100246470Y-99135480I218750J0D01*
G01*
X100758970Y-99135480D01*
G75*
G02*
X100977720Y-99354230I0J-218750D01*
G01*
X100977720Y-99791730D01*
G75*
G02*
X100758970Y-100010480I-218750J0D01*
G01*
G37*
G36*
G01*
X100758970Y-101585480D02*
X100246470Y-101585480D01*
G75*
G02*
X100027720Y-101366730I0J218750D01*
G01*
X100027720Y-100929230D01*
G75*
G02*
X100246470Y-100710480I218750J0D01*
G01*
X100758970Y-100710480D01*
G75*
G02*
X100977720Y-100929230I0J-218750D01*
G01*
X100977720Y-101366730D01*
G75*
G02*
X100758970Y-101585480I-218750J0D01*
G01*
G37*
G36*
G01*
X100758970Y-94930480D02*
X100246470Y-94930480D01*
G75*
G02*
X100027720Y-94711730I0J218750D01*
G01*
X100027720Y-94274230D01*
G75*
G02*
X100246470Y-94055480I218750J0D01*
G01*
X100758970Y-94055480D01*
G75*
G02*
X100977720Y-94274230I0J-218750D01*
G01*
X100977720Y-94711730D01*
G75*
G02*
X100758970Y-94930480I-218750J0D01*
G01*
G37*
G36*
G01*
X100758970Y-96505480D02*
X100246470Y-96505480D01*
G75*
G02*
X100027720Y-96286730I0J218750D01*
G01*
X100027720Y-95849230D01*
G75*
G02*
X100246470Y-95630480I218750J0D01*
G01*
X100758970Y-95630480D01*
G75*
G02*
X100977720Y-95849230I0J-218750D01*
G01*
X100977720Y-96286730D01*
G75*
G02*
X100758970Y-96505480I-218750J0D01*
G01*
G37*
G36*
G01*
X100758970Y-89215480D02*
X100246470Y-89215480D01*
G75*
G02*
X100027720Y-88996730I0J218750D01*
G01*
X100027720Y-88559230D01*
G75*
G02*
X100246470Y-88340480I218750J0D01*
G01*
X100758970Y-88340480D01*
G75*
G02*
X100977720Y-88559230I0J-218750D01*
G01*
X100977720Y-88996730D01*
G75*
G02*
X100758970Y-89215480I-218750J0D01*
G01*
G37*
G36*
G01*
X100758970Y-90790480D02*
X100246470Y-90790480D01*
G75*
G02*
X100027720Y-90571730I0J218750D01*
G01*
X100027720Y-90134230D01*
G75*
G02*
X100246470Y-89915480I218750J0D01*
G01*
X100758970Y-89915480D01*
G75*
G02*
X100977720Y-90134230I0J-218750D01*
G01*
X100977720Y-90571730D01*
G75*
G02*
X100758970Y-90790480I-218750J0D01*
G01*
G37*
G36*
G01*
X100758970Y-84135480D02*
X100246470Y-84135480D01*
G75*
G02*
X100027720Y-83916730I0J218750D01*
G01*
X100027720Y-83479230D01*
G75*
G02*
X100246470Y-83260480I218750J0D01*
G01*
X100758970Y-83260480D01*
G75*
G02*
X100977720Y-83479230I0J-218750D01*
G01*
X100977720Y-83916730D01*
G75*
G02*
X100758970Y-84135480I-218750J0D01*
G01*
G37*
G36*
G01*
X100758970Y-85710480D02*
X100246470Y-85710480D01*
G75*
G02*
X100027720Y-85491730I0J218750D01*
G01*
X100027720Y-85054230D01*
G75*
G02*
X100246470Y-84835480I218750J0D01*
G01*
X100758970Y-84835480D01*
G75*
G02*
X100977720Y-85054230I0J-218750D01*
G01*
X100977720Y-85491730D01*
G75*
G02*
X100758970Y-85710480I-218750J0D01*
G01*
G37*
G36*
G01*
X77069100Y-99464150D02*
X77069100Y-99976650D01*
G75*
G02*
X76850350Y-100195400I-218750J0D01*
G01*
X76412850Y-100195400D01*
G75*
G02*
X76194100Y-99976650I0J218750D01*
G01*
X76194100Y-99464150D01*
G75*
G02*
X76412850Y-99245400I218750J0D01*
G01*
X76850350Y-99245400D01*
G75*
G02*
X77069100Y-99464150I0J-218750D01*
G01*
G37*
G36*
G01*
X78644100Y-99464150D02*
X78644100Y-99976650D01*
G75*
G02*
X78425350Y-100195400I-218750J0D01*
G01*
X77987850Y-100195400D01*
G75*
G02*
X77769100Y-99976650I0J218750D01*
G01*
X77769100Y-99464150D01*
G75*
G02*
X77987850Y-99245400I218750J0D01*
G01*
X78425350Y-99245400D01*
G75*
G02*
X78644100Y-99464150I0J-218750D01*
G01*
G37*
G36*
G01*
X77094500Y-104899750D02*
X77094500Y-105412250D01*
G75*
G02*
X76875750Y-105631000I-218750J0D01*
G01*
X76438250Y-105631000D01*
G75*
G02*
X76219500Y-105412250I0J218750D01*
G01*
X76219500Y-104899750D01*
G75*
G02*
X76438250Y-104681000I218750J0D01*
G01*
X76875750Y-104681000D01*
G75*
G02*
X77094500Y-104899750I0J-218750D01*
G01*
G37*
G36*
G01*
X78669500Y-104899750D02*
X78669500Y-105412250D01*
G75*
G02*
X78450750Y-105631000I-218750J0D01*
G01*
X78013250Y-105631000D01*
G75*
G02*
X77794500Y-105412250I0J218750D01*
G01*
X77794500Y-104899750D01*
G75*
G02*
X78013250Y-104681000I218750J0D01*
G01*
X78450750Y-104681000D01*
G75*
G02*
X78669500Y-104899750I0J-218750D01*
G01*
G37*
G36*
G01*
X77069100Y-100962750D02*
X77069100Y-101475250D01*
G75*
G02*
X76850350Y-101694000I-218750J0D01*
G01*
X76412850Y-101694000D01*
G75*
G02*
X76194100Y-101475250I0J218750D01*
G01*
X76194100Y-100962750D01*
G75*
G02*
X76412850Y-100744000I218750J0D01*
G01*
X76850350Y-100744000D01*
G75*
G02*
X77069100Y-100962750I0J-218750D01*
G01*
G37*
G36*
G01*
X78644100Y-100962750D02*
X78644100Y-101475250D01*
G75*
G02*
X78425350Y-101694000I-218750J0D01*
G01*
X77987850Y-101694000D01*
G75*
G02*
X77769100Y-101475250I0J218750D01*
G01*
X77769100Y-100962750D01*
G75*
G02*
X77987850Y-100744000I218750J0D01*
G01*
X78425350Y-100744000D01*
G75*
G02*
X78644100Y-100962750I0J-218750D01*
G01*
G37*
G36*
G01*
X77094500Y-106372950D02*
X77094500Y-106885450D01*
G75*
G02*
X76875750Y-107104200I-218750J0D01*
G01*
X76438250Y-107104200D01*
G75*
G02*
X76219500Y-106885450I0J218750D01*
G01*
X76219500Y-106372950D01*
G75*
G02*
X76438250Y-106154200I218750J0D01*
G01*
X76875750Y-106154200D01*
G75*
G02*
X77094500Y-106372950I0J-218750D01*
G01*
G37*
G36*
G01*
X78669500Y-106372950D02*
X78669500Y-106885450D01*
G75*
G02*
X78450750Y-107104200I-218750J0D01*
G01*
X78013250Y-107104200D01*
G75*
G02*
X77794500Y-106885450I0J218750D01*
G01*
X77794500Y-106372950D01*
G75*
G02*
X78013250Y-106154200I218750J0D01*
G01*
X78450750Y-106154200D01*
G75*
G02*
X78669500Y-106372950I0J-218750D01*
G01*
G37*
G36*
G01*
X77769100Y-103913650D02*
X77769100Y-103401150D01*
G75*
G02*
X77987850Y-103182400I218750J0D01*
G01*
X78425350Y-103182400D01*
G75*
G02*
X78644100Y-103401150I0J-218750D01*
G01*
X78644100Y-103913650D01*
G75*
G02*
X78425350Y-104132400I-218750J0D01*
G01*
X77987850Y-104132400D01*
G75*
G02*
X77769100Y-103913650I0J218750D01*
G01*
G37*
G36*
G01*
X76194100Y-103913650D02*
X76194100Y-103401150D01*
G75*
G02*
X76412850Y-103182400I218750J0D01*
G01*
X76850350Y-103182400D01*
G75*
G02*
X77069100Y-103401150I0J-218750D01*
G01*
X77069100Y-103913650D01*
G75*
G02*
X76850350Y-104132400I-218750J0D01*
G01*
X76412850Y-104132400D01*
G75*
G02*
X76194100Y-103913650I0J218750D01*
G01*
G37*
G36*
G01*
X74953150Y-104744100D02*
X75465650Y-104744100D01*
G75*
G02*
X75684400Y-104962850I0J-218750D01*
G01*
X75684400Y-105400350D01*
G75*
G02*
X75465650Y-105619100I-218750J0D01*
G01*
X74953150Y-105619100D01*
G75*
G02*
X74734400Y-105400350I0J218750D01*
G01*
X74734400Y-104962850D01*
G75*
G02*
X74953150Y-104744100I218750J0D01*
G01*
G37*
G36*
G01*
X74953150Y-103169100D02*
X75465650Y-103169100D01*
G75*
G02*
X75684400Y-103387850I0J-218750D01*
G01*
X75684400Y-103825350D01*
G75*
G02*
X75465650Y-104044100I-218750J0D01*
G01*
X74953150Y-104044100D01*
G75*
G02*
X74734400Y-103825350I0J218750D01*
G01*
X74734400Y-103387850D01*
G75*
G02*
X74953150Y-103169100I218750J0D01*
G01*
G37*
G36*
G01*
X77794500Y-98478050D02*
X77794500Y-97965550D01*
G75*
G02*
X78013250Y-97746800I218750J0D01*
G01*
X78450750Y-97746800D01*
G75*
G02*
X78669500Y-97965550I0J-218750D01*
G01*
X78669500Y-98478050D01*
G75*
G02*
X78450750Y-98696800I-218750J0D01*
G01*
X78013250Y-98696800D01*
G75*
G02*
X77794500Y-98478050I0J218750D01*
G01*
G37*
G36*
G01*
X76219500Y-98478050D02*
X76219500Y-97965550D01*
G75*
G02*
X76438250Y-97746800I218750J0D01*
G01*
X76875750Y-97746800D01*
G75*
G02*
X77094500Y-97965550I0J-218750D01*
G01*
X77094500Y-98478050D01*
G75*
G02*
X76875750Y-98696800I-218750J0D01*
G01*
X76438250Y-98696800D01*
G75*
G02*
X76219500Y-98478050I0J218750D01*
G01*
G37*
M02*
