M48
; DRILL file {KiCad 5.1.6-c6e7f7d~87~ubuntu18.04.1} date Fri Jul 31 23:24:37 2020
; FORMAT={-:-/ absolute / inch / decimal}
; #@! TF.CreationDate,2020-07-31T23:24:37+02:00
; #@! TF.GenerationSoftware,Kicad,Pcbnew,5.1.6-c6e7f7d~87~ubuntu18.04.1
; #@! TF.FileFunction,Plated,1,2,PTH
FMAT,2
INCH
T1C0.0079
T2C0.0157
T3C0.0256
T4C0.0394
T5C0.0512
T6C0.0866
%
G90
G05
T1
X4.771Y-3.68
X4.78Y-3.828
X4.781Y-3.94
X4.781Y-4.063
X4.786Y-4.171
X4.8Y-3.584
X4.866Y-2.644
X4.872Y-2.956
X4.876Y-2.802
X4.885Y-3.494
X4.892Y-4.273
X4.894Y-2.272
X4.922Y-1.938
X4.926Y-2.346
X4.926Y-3.823
X4.926Y-4.168
X4.931Y-4.075
X4.933Y-3.956
X4.938Y-3.684
X4.94Y-2.872
X4.947Y-3.436
X4.95Y-2.388
X4.956Y-3.156
X4.958Y-4.272
X4.96Y-2.494
X4.982Y-3.072
X4.998Y-1.792
X5.002Y-2.3
X5.003Y-3.3765
X5.005Y-3.614
X5.009Y-3.701
X5.011Y-4.285
X5.012Y-2.09
X5.014Y-2.186
X5.015Y-3.3425
X5.02Y-1.898
X5.04Y-4.348
X5.043Y-2.5645
X5.049Y-2.7555
X5.052Y-3.556
X5.054Y-4.403
X5.054Y-5.003
X5.056Y-2.056
X5.058Y-2.252
X5.062Y-1.944
X5.062Y-2.394
X5.063Y-3.774
X5.064Y-1.814
X5.064Y-4.938
X5.068Y-4.858
X5.08Y-3.2825
X5.081Y-3.834
X5.081Y-4.049
X5.081Y-4.147
X5.1Y-4.201
X5.104Y-2.478
X5.104Y-4.814
X5.111Y-3.899
X5.122Y-1.868
X5.132Y-2.8385
X5.136Y-5.023
X5.146Y-2.5675
X5.148Y-1.938
X5.148Y-2.19
X5.15Y-2.284
X5.154Y-2.02
X5.154Y-2.376
X5.155Y-4.818
X5.16Y-2.094
X5.166Y-3.254
X5.196Y-2.96
X5.201Y-2.9075
X5.204Y-3.188
X5.21Y-3.054
X5.213Y-5.003
X5.2138Y-3.7377
X5.215Y-2.6625
X5.2152Y-3.8013
X5.2152Y-4.0423
X5.216Y-4.3601
X5.2174Y-4.0903
X5.2174Y-4.3115
X5.2216Y-4.8525
X5.2228Y-4.8995
X5.251Y-3.899
X5.266Y-3.965
X5.274Y-4.738
X5.281Y-3.621
X5.286Y-4.185
X5.292Y-2.7315
X5.293Y-4.817
X5.298Y-4.281
X5.301Y-3.715
X5.306Y-5.022
X5.308Y-4.007
X5.33Y-2.094
X5.332Y-3.338
X5.3355Y-3.547
X5.338Y-2.19
X5.338Y-2.7835
X5.343Y-4.373
X5.348Y-4.712
X5.349Y-4.914
X5.352Y-1.958
X5.353Y-4.101
X5.353Y-4.175
X5.3535Y-4.5851
X5.3535Y-4.631
X5.354Y-3.81
X5.354Y-4.976
X5.356Y-1.814
X5.373Y-3.732
X5.374Y-4.831
X5.381Y-2.7405
X5.386Y-3.543
X5.392Y-4.588
X5.393Y-2.8825
X5.393Y-3.0035
X5.396Y-3.478
X5.403Y-4.018
X5.407Y-3.1285
X5.41Y-4.645
X5.42Y-4.372
X5.424Y-3.0955
X5.435Y-2.8055
X5.437Y-4.912
X5.438Y-1.8
X5.449Y-3.3385
X5.453Y-4.295
X5.458Y-4.105
X5.458Y-4.554
X5.47Y-1.93
X5.471Y-3.731
X5.4714Y-3.2511
X5.472Y-2.256
X5.474Y-2.056
X5.474Y-2.16
X5.476Y-2.38
X5.48Y-2.636
X5.482Y-2.57
X5.482Y-4.565
X5.484Y-4.713
X5.485Y-2.8385
X5.486Y-2.494
X5.487Y-3.58
X5.487Y-3.655
X5.489Y-4.373
X5.491Y-4.018
X5.494Y-3.806
X5.496Y-4.834
X5.4977Y-3.275
X5.5Y-3.912
X5.5027Y-4.3367
X5.503Y-2.9235
X5.51Y-4.914
X5.51Y-4.999
X5.514Y-4.155
X5.518Y-4.252
X5.5193Y-4.0667
X5.5239Y-3.1864
X5.5429Y-1.7971
X5.549Y-4.2
X5.553Y-3.2276
X5.562Y-5.016
X5.569Y-4.543
X5.5789Y-3.0041
X5.595Y-5.0
X5.6Y-1.792
X5.6Y-2.725
X5.602Y-2.4
X5.602Y-2.638
X5.602Y-4.567
X5.604Y-2.124
X5.604Y-2.27
X5.604Y-2.506
X5.604Y-2.8485
X5.606Y-1.918
X5.606Y-2.018
X5.6074Y-3.23
X5.612Y-4.779
X5.6312Y-3.7985
X5.6312Y-4.0395
X5.6344Y-3.7409
X5.635Y-3.3785
X5.6362Y-4.0884
X5.6362Y-4.3109
X5.6378Y-4.3593
X5.638Y-1.792
X5.638Y-2.446
X5.638Y-2.56
X5.64Y-2.212
X5.64Y-2.33
X5.6405Y-4.5816
X5.6405Y-4.6284
X5.6408Y-4.8984
X5.6408Y-4.8551
X5.65Y-1.918
X5.6598Y-4.3363
X5.66Y-4.997
X5.6698Y-3.2276
X5.67Y-2.018
X5.6726Y-3.1887
X5.673Y-3.2705
X5.674Y-2.638
X5.674Y-4.739
X5.675Y-2.753
X5.676Y-2.122
X5.676Y-2.274
X5.676Y-2.404
X5.678Y-1.792
X5.678Y-2.508
X5.683Y-2.832
X5.6835Y-4.161
X5.6835Y-4.3151
X5.688Y-2.8755
X5.692Y-1.918
X5.716Y-1.792
X5.717Y-3.94
X5.717Y-4.01
X5.718Y-3.708
X5.718Y-3.895
X5.723Y-4.213
X5.723Y-5.01
X5.724Y-1.918
X5.73Y-4.286
X5.748Y-3.568
X5.753Y-2.046
X5.755Y-2.153
X5.756Y-1.792
X5.757Y-2.267
X5.759Y-1.992
X5.7595Y-4.363
X5.76Y-2.386
X5.763Y-2.508
X5.769Y-4.304
X5.771Y-2.8625
X5.772Y-4.63
X5.772Y-4.662
X5.774Y-4.912
X5.775Y-2.33
X5.776Y-4.282
X5.777Y-2.218
X5.777Y-2.443
X5.777Y-4.837
X5.78Y-4.976
X5.781Y-3.4685
X5.7821Y-2.9147
X5.789Y-4.739
X5.7933Y-3.0412
X5.797Y-4.549
X5.801Y-4.106
X5.801Y-4.378
X5.805Y-4.027
X5.808Y-3.812
X5.808Y-3.915
X5.808Y-4.642
X5.816Y-4.292
X5.816Y-4.572
X5.817Y-3.1345
X5.8177Y-2.9123
X5.818Y-4.371
X5.825Y-1.895
X5.836Y-3.0935
X5.837Y-2.8405
X5.846Y-4.197
X5.8485Y-3.0399
X5.8524Y-2.9114
X5.854Y-2.65
X5.854Y-4.372
X5.854Y-4.562
X5.854Y-4.916
X5.868Y-1.788
X5.874Y-2.702
X5.877Y-4.688
X5.878Y-3.678
X5.878Y-3.808
X5.878Y-4.034
X5.878Y-4.1
X5.885Y-3.0375
X5.892Y-2.238
X5.892Y-2.404
X5.892Y-2.494
X5.894Y-2.068
X5.894Y-2.166
X5.896Y-2.312
X5.898Y-4.647
X5.902Y-2.598
X5.9026Y-2.9109
X5.906Y-4.833
X5.911Y-3.4545
X5.911Y-4.259
X5.913Y-3.0875
X5.915Y-2.8125
X5.916Y-2.7425
X5.928Y-4.949
X5.929Y-3.801
X5.935Y-4.11
X5.935Y-4.146
X5.936Y-4.914
X5.938Y-4.026
X5.9395Y-4.3584
X5.9395Y-4.583
X5.9395Y-4.6284
X5.941Y-3.0585
X5.9435Y-3.565
X5.95Y-4.999
X5.954Y-1.824
X5.958Y-2.658
X5.963Y-4.272
X5.9677Y-2.9123
X5.968Y-2.074
X5.968Y-2.19
X5.97Y-2.288
X5.971Y-3.1565
X5.972Y-2.394
X5.972Y-2.52
X5.975Y-3.998
X5.976Y-1.918
X5.982Y-1.996
X5.996Y-4.813
X6.005Y-4.725
X6.012Y-2.578
X6.013Y-3.634
X6.016Y-4.8805
X6.019Y-3.0225
X6.021Y-3.6835
X6.021Y-5.001
X6.022Y-3.2265
X6.024Y-2.9118
X6.032Y-2.732
X6.034Y-4.195
X6.036Y-1.864
X6.038Y-3.896
X6.042Y-3.0595
X6.0628Y-4.5801
X6.0634Y-3.7391
X6.0634Y-4.6284
X6.0639Y-3.7968
X6.064Y-4.0389
X6.064Y-4.0891
X6.065Y-4.3099
X6.065Y-4.3584
X6.0751Y-2.9128
X6.0754Y-4.9007
X6.0779Y-4.849
X6.079Y-3.0895
X6.082Y-2.634
X6.094Y-4.185
X6.095Y-2.9985
X6.097Y-4.239
X6.097Y-5.001
X6.107Y-3.2915
X6.11Y-3.2235
X6.11Y-4.644
X6.116Y-4.723
X6.12Y-2.812
X6.141Y-4.185
X6.177Y-3.228
X6.18Y-2.742
X6.209Y-4.991
X6.217Y-4.928
X6.225Y-4.858
X6.238Y-4.612
X6.239Y-4.689
X6.246Y-2.81
X6.265Y-3.235
X6.269Y-4.263
X6.271Y-3.378
X6.274Y-3.942
X6.274Y-4.402
X6.276Y-3.616
X6.278Y-4.122
X6.279Y-3.805
X6.279Y-4.789
X6.295Y-4.565
X6.346Y-2.894
X6.354Y-2.996
X6.368Y-4.563
X6.408Y-3.058
X6.42Y-2.987
X6.466Y-4.522
X6.472Y-3.115
T2
X4.9875Y-4.4675
X5.004Y-4.6285
X5.285Y-3.4225
X5.792Y-2.644
X5.826Y-2.7395
X6.33Y-1.782
X6.334Y-1.656
X6.432Y-1.714
T3
X5.206Y-2.702
X5.206Y-2.752
X5.206Y-2.802
X5.206Y-2.852
T4
X4.7336Y-1.6912
X4.7336Y-1.8684
X4.7296Y-2.0796
X4.7296Y-2.2568
T5
X4.832Y-1.642
X4.832Y-1.9176
X4.828Y-2.0304
X4.828Y-2.306
T6
X4.794Y-1.484
X6.384Y-5.474
X6.384Y-1.484
X4.784Y-5.474
T0
M30
