G04 #@! TF.GenerationSoftware,KiCad,Pcbnew,5.1.10*
G04 #@! TF.CreationDate,2021-08-13T22:21:08+02:00*
G04 #@! TF.ProjectId,HMI,484d492e-6b69-4636-9164-5f7063625858,rev?*
G04 #@! TF.SameCoordinates,Original*
G04 #@! TF.FileFunction,Soldermask,Top*
G04 #@! TF.FilePolarity,Negative*
%FSLAX46Y46*%
G04 Gerber Fmt 4.6, Leading zero omitted, Abs format (unit mm)*
G04 Created by KiCad (PCBNEW 5.1.10) date 2021-08-13 22:21:08*
%MOMM*%
%LPD*%
G01*
G04 APERTURE LIST*
%ADD10O,1.102000X1.102000*%
%ADD11C,1.802000*%
%ADD12C,2.302000*%
%ADD13C,3.902000*%
%ADD14C,0.100000*%
G04 APERTURE END LIST*
D10*
X125000000Y-76057200D03*
X125000000Y-77327200D03*
X125000000Y-78597200D03*
G36*
G01*
X124449000Y-80367200D02*
X124449000Y-79367200D01*
G75*
G02*
X124500000Y-79316200I51000J0D01*
G01*
X125500000Y-79316200D01*
G75*
G02*
X125551000Y-79367200I0J-51000D01*
G01*
X125551000Y-80367200D01*
G75*
G02*
X125500000Y-80418200I-51000J0D01*
G01*
X124500000Y-80418200D01*
G75*
G02*
X124449000Y-80367200I0J51000D01*
G01*
G37*
D11*
X120647200Y-52186600D03*
X120647200Y-56686600D03*
D12*
X123147200Y-50936600D03*
X123147200Y-57936600D03*
D11*
X120698000Y-42427600D03*
X120698000Y-46927600D03*
D12*
X123198000Y-41177600D03*
X123198000Y-48177600D03*
D13*
X161750000Y-139000000D03*
X161750000Y-37500000D03*
X121250000Y-37500000D03*
X121250000Y-139000000D03*
G36*
G01*
X126799000Y-46031750D02*
X126799000Y-45468250D01*
G75*
G02*
X127043250Y-45224000I244250J0D01*
G01*
X127531750Y-45224000D01*
G75*
G02*
X127776000Y-45468250I0J-244250D01*
G01*
X127776000Y-46031750D01*
G75*
G02*
X127531750Y-46276000I-244250J0D01*
G01*
X127043250Y-46276000D01*
G75*
G02*
X126799000Y-46031750I0J244250D01*
G01*
G37*
G36*
G01*
X125224000Y-46031750D02*
X125224000Y-45468250D01*
G75*
G02*
X125468250Y-45224000I244250J0D01*
G01*
X125956750Y-45224000D01*
G75*
G02*
X126201000Y-45468250I0J-244250D01*
G01*
X126201000Y-46031750D01*
G75*
G02*
X125956750Y-46276000I-244250J0D01*
G01*
X125468250Y-46276000D01*
G75*
G02*
X125224000Y-46031750I0J244250D01*
G01*
G37*
G36*
G01*
X162333700Y-43903150D02*
X162333700Y-43339650D01*
G75*
G02*
X162577950Y-43095400I244250J0D01*
G01*
X163066450Y-43095400D01*
G75*
G02*
X163310700Y-43339650I0J-244250D01*
G01*
X163310700Y-43903150D01*
G75*
G02*
X163066450Y-44147400I-244250J0D01*
G01*
X162577950Y-44147400D01*
G75*
G02*
X162333700Y-43903150I0J244250D01*
G01*
G37*
G36*
G01*
X160758700Y-43903150D02*
X160758700Y-43339650D01*
G75*
G02*
X161002950Y-43095400I244250J0D01*
G01*
X161491450Y-43095400D01*
G75*
G02*
X161735700Y-43339650I0J-244250D01*
G01*
X161735700Y-43903150D01*
G75*
G02*
X161491450Y-44147400I-244250J0D01*
G01*
X161002950Y-44147400D01*
G75*
G02*
X160758700Y-43903150I0J244250D01*
G01*
G37*
G36*
G01*
X162333500Y-41464750D02*
X162333500Y-40901250D01*
G75*
G02*
X162577750Y-40657000I244250J0D01*
G01*
X163066250Y-40657000D01*
G75*
G02*
X163310500Y-40901250I0J-244250D01*
G01*
X163310500Y-41464750D01*
G75*
G02*
X163066250Y-41709000I-244250J0D01*
G01*
X162577750Y-41709000D01*
G75*
G02*
X162333500Y-41464750I0J244250D01*
G01*
G37*
G36*
G01*
X160758500Y-41464750D02*
X160758500Y-40901250D01*
G75*
G02*
X161002750Y-40657000I244250J0D01*
G01*
X161491250Y-40657000D01*
G75*
G02*
X161735500Y-40901250I0J-244250D01*
G01*
X161735500Y-41464750D01*
G75*
G02*
X161491250Y-41709000I-244250J0D01*
G01*
X161002750Y-41709000D01*
G75*
G02*
X160758500Y-41464750I0J244250D01*
G01*
G37*
G36*
G01*
X133543020Y-98300000D02*
X133543020Y-97300000D01*
G75*
G02*
X133594020Y-97249000I51000J0D01*
G01*
X134494020Y-97249000D01*
G75*
G02*
X134545020Y-97300000I0J-51000D01*
G01*
X134545020Y-98300000D01*
G75*
G02*
X134494020Y-98351000I-51000J0D01*
G01*
X133594020Y-98351000D01*
G75*
G02*
X133543020Y-98300000I0J51000D01*
G01*
G37*
G36*
G01*
X133543020Y-96700000D02*
X133543020Y-95700000D01*
G75*
G02*
X133594020Y-95649000I51000J0D01*
G01*
X134494020Y-95649000D01*
G75*
G02*
X134545020Y-95700000I0J-51000D01*
G01*
X134545020Y-96700000D01*
G75*
G02*
X134494020Y-96751000I-51000J0D01*
G01*
X133594020Y-96751000D01*
G75*
G02*
X133543020Y-96700000I0J51000D01*
G01*
G37*
G36*
G01*
X129443020Y-98300000D02*
X129443020Y-97300000D01*
G75*
G02*
X129494020Y-97249000I51000J0D01*
G01*
X130394020Y-97249000D01*
G75*
G02*
X130445020Y-97300000I0J-51000D01*
G01*
X130445020Y-98300000D01*
G75*
G02*
X130394020Y-98351000I-51000J0D01*
G01*
X129494020Y-98351000D01*
G75*
G02*
X129443020Y-98300000I0J51000D01*
G01*
G37*
G36*
G01*
X129443020Y-96700000D02*
X129443020Y-95700000D01*
G75*
G02*
X129494020Y-95649000I51000J0D01*
G01*
X130394020Y-95649000D01*
G75*
G02*
X130445020Y-95700000I0J-51000D01*
G01*
X130445020Y-96700000D01*
G75*
G02*
X130394020Y-96751000I-51000J0D01*
G01*
X129494020Y-96751000D01*
G75*
G02*
X129443020Y-96700000I0J51000D01*
G01*
G37*
G36*
G01*
X155549000Y-133300000D02*
X155549000Y-132300000D01*
G75*
G02*
X155600000Y-132249000I51000J0D01*
G01*
X156500000Y-132249000D01*
G75*
G02*
X156551000Y-132300000I0J-51000D01*
G01*
X156551000Y-133300000D01*
G75*
G02*
X156500000Y-133351000I-51000J0D01*
G01*
X155600000Y-133351000D01*
G75*
G02*
X155549000Y-133300000I0J51000D01*
G01*
G37*
G36*
G01*
X155549000Y-131700000D02*
X155549000Y-130700000D01*
G75*
G02*
X155600000Y-130649000I51000J0D01*
G01*
X156500000Y-130649000D01*
G75*
G02*
X156551000Y-130700000I0J-51000D01*
G01*
X156551000Y-131700000D01*
G75*
G02*
X156500000Y-131751000I-51000J0D01*
G01*
X155600000Y-131751000D01*
G75*
G02*
X155549000Y-131700000I0J51000D01*
G01*
G37*
G36*
G01*
X151449000Y-133300000D02*
X151449000Y-132300000D01*
G75*
G02*
X151500000Y-132249000I51000J0D01*
G01*
X152400000Y-132249000D01*
G75*
G02*
X152451000Y-132300000I0J-51000D01*
G01*
X152451000Y-133300000D01*
G75*
G02*
X152400000Y-133351000I-51000J0D01*
G01*
X151500000Y-133351000D01*
G75*
G02*
X151449000Y-133300000I0J51000D01*
G01*
G37*
G36*
G01*
X151449000Y-131700000D02*
X151449000Y-130700000D01*
G75*
G02*
X151500000Y-130649000I51000J0D01*
G01*
X152400000Y-130649000D01*
G75*
G02*
X152451000Y-130700000I0J-51000D01*
G01*
X152451000Y-131700000D01*
G75*
G02*
X152400000Y-131751000I-51000J0D01*
G01*
X151500000Y-131751000D01*
G75*
G02*
X151449000Y-131700000I0J51000D01*
G01*
G37*
G36*
G01*
X155549000Y-126300000D02*
X155549000Y-125300000D01*
G75*
G02*
X155600000Y-125249000I51000J0D01*
G01*
X156500000Y-125249000D01*
G75*
G02*
X156551000Y-125300000I0J-51000D01*
G01*
X156551000Y-126300000D01*
G75*
G02*
X156500000Y-126351000I-51000J0D01*
G01*
X155600000Y-126351000D01*
G75*
G02*
X155549000Y-126300000I0J51000D01*
G01*
G37*
G36*
G01*
X155549000Y-124700000D02*
X155549000Y-123700000D01*
G75*
G02*
X155600000Y-123649000I51000J0D01*
G01*
X156500000Y-123649000D01*
G75*
G02*
X156551000Y-123700000I0J-51000D01*
G01*
X156551000Y-124700000D01*
G75*
G02*
X156500000Y-124751000I-51000J0D01*
G01*
X155600000Y-124751000D01*
G75*
G02*
X155549000Y-124700000I0J51000D01*
G01*
G37*
G36*
G01*
X151449000Y-126300000D02*
X151449000Y-125300000D01*
G75*
G02*
X151500000Y-125249000I51000J0D01*
G01*
X152400000Y-125249000D01*
G75*
G02*
X152451000Y-125300000I0J-51000D01*
G01*
X152451000Y-126300000D01*
G75*
G02*
X152400000Y-126351000I-51000J0D01*
G01*
X151500000Y-126351000D01*
G75*
G02*
X151449000Y-126300000I0J51000D01*
G01*
G37*
G36*
G01*
X151449000Y-124700000D02*
X151449000Y-123700000D01*
G75*
G02*
X151500000Y-123649000I51000J0D01*
G01*
X152400000Y-123649000D01*
G75*
G02*
X152451000Y-123700000I0J-51000D01*
G01*
X152451000Y-124700000D01*
G75*
G02*
X152400000Y-124751000I-51000J0D01*
G01*
X151500000Y-124751000D01*
G75*
G02*
X151449000Y-124700000I0J51000D01*
G01*
G37*
G36*
G01*
X155549000Y-119300000D02*
X155549000Y-118300000D01*
G75*
G02*
X155600000Y-118249000I51000J0D01*
G01*
X156500000Y-118249000D01*
G75*
G02*
X156551000Y-118300000I0J-51000D01*
G01*
X156551000Y-119300000D01*
G75*
G02*
X156500000Y-119351000I-51000J0D01*
G01*
X155600000Y-119351000D01*
G75*
G02*
X155549000Y-119300000I0J51000D01*
G01*
G37*
G36*
G01*
X155549000Y-117700000D02*
X155549000Y-116700000D01*
G75*
G02*
X155600000Y-116649000I51000J0D01*
G01*
X156500000Y-116649000D01*
G75*
G02*
X156551000Y-116700000I0J-51000D01*
G01*
X156551000Y-117700000D01*
G75*
G02*
X156500000Y-117751000I-51000J0D01*
G01*
X155600000Y-117751000D01*
G75*
G02*
X155549000Y-117700000I0J51000D01*
G01*
G37*
G36*
G01*
X151449000Y-119300000D02*
X151449000Y-118300000D01*
G75*
G02*
X151500000Y-118249000I51000J0D01*
G01*
X152400000Y-118249000D01*
G75*
G02*
X152451000Y-118300000I0J-51000D01*
G01*
X152451000Y-119300000D01*
G75*
G02*
X152400000Y-119351000I-51000J0D01*
G01*
X151500000Y-119351000D01*
G75*
G02*
X151449000Y-119300000I0J51000D01*
G01*
G37*
G36*
G01*
X151449000Y-117700000D02*
X151449000Y-116700000D01*
G75*
G02*
X151500000Y-116649000I51000J0D01*
G01*
X152400000Y-116649000D01*
G75*
G02*
X152451000Y-116700000I0J-51000D01*
G01*
X152451000Y-117700000D01*
G75*
G02*
X152400000Y-117751000I-51000J0D01*
G01*
X151500000Y-117751000D01*
G75*
G02*
X151449000Y-117700000I0J51000D01*
G01*
G37*
G36*
G01*
X155549000Y-112300000D02*
X155549000Y-111300000D01*
G75*
G02*
X155600000Y-111249000I51000J0D01*
G01*
X156500000Y-111249000D01*
G75*
G02*
X156551000Y-111300000I0J-51000D01*
G01*
X156551000Y-112300000D01*
G75*
G02*
X156500000Y-112351000I-51000J0D01*
G01*
X155600000Y-112351000D01*
G75*
G02*
X155549000Y-112300000I0J51000D01*
G01*
G37*
G36*
G01*
X155549000Y-110700000D02*
X155549000Y-109700000D01*
G75*
G02*
X155600000Y-109649000I51000J0D01*
G01*
X156500000Y-109649000D01*
G75*
G02*
X156551000Y-109700000I0J-51000D01*
G01*
X156551000Y-110700000D01*
G75*
G02*
X156500000Y-110751000I-51000J0D01*
G01*
X155600000Y-110751000D01*
G75*
G02*
X155549000Y-110700000I0J51000D01*
G01*
G37*
G36*
G01*
X151449000Y-112300000D02*
X151449000Y-111300000D01*
G75*
G02*
X151500000Y-111249000I51000J0D01*
G01*
X152400000Y-111249000D01*
G75*
G02*
X152451000Y-111300000I0J-51000D01*
G01*
X152451000Y-112300000D01*
G75*
G02*
X152400000Y-112351000I-51000J0D01*
G01*
X151500000Y-112351000D01*
G75*
G02*
X151449000Y-112300000I0J51000D01*
G01*
G37*
G36*
G01*
X151449000Y-110700000D02*
X151449000Y-109700000D01*
G75*
G02*
X151500000Y-109649000I51000J0D01*
G01*
X152400000Y-109649000D01*
G75*
G02*
X152451000Y-109700000I0J-51000D01*
G01*
X152451000Y-110700000D01*
G75*
G02*
X152400000Y-110751000I-51000J0D01*
G01*
X151500000Y-110751000D01*
G75*
G02*
X151449000Y-110700000I0J51000D01*
G01*
G37*
G36*
G01*
X155549000Y-105300000D02*
X155549000Y-104300000D01*
G75*
G02*
X155600000Y-104249000I51000J0D01*
G01*
X156500000Y-104249000D01*
G75*
G02*
X156551000Y-104300000I0J-51000D01*
G01*
X156551000Y-105300000D01*
G75*
G02*
X156500000Y-105351000I-51000J0D01*
G01*
X155600000Y-105351000D01*
G75*
G02*
X155549000Y-105300000I0J51000D01*
G01*
G37*
G36*
G01*
X155549000Y-103700000D02*
X155549000Y-102700000D01*
G75*
G02*
X155600000Y-102649000I51000J0D01*
G01*
X156500000Y-102649000D01*
G75*
G02*
X156551000Y-102700000I0J-51000D01*
G01*
X156551000Y-103700000D01*
G75*
G02*
X156500000Y-103751000I-51000J0D01*
G01*
X155600000Y-103751000D01*
G75*
G02*
X155549000Y-103700000I0J51000D01*
G01*
G37*
G36*
G01*
X151449000Y-105300000D02*
X151449000Y-104300000D01*
G75*
G02*
X151500000Y-104249000I51000J0D01*
G01*
X152400000Y-104249000D01*
G75*
G02*
X152451000Y-104300000I0J-51000D01*
G01*
X152451000Y-105300000D01*
G75*
G02*
X152400000Y-105351000I-51000J0D01*
G01*
X151500000Y-105351000D01*
G75*
G02*
X151449000Y-105300000I0J51000D01*
G01*
G37*
G36*
G01*
X151449000Y-103700000D02*
X151449000Y-102700000D01*
G75*
G02*
X151500000Y-102649000I51000J0D01*
G01*
X152400000Y-102649000D01*
G75*
G02*
X152451000Y-102700000I0J-51000D01*
G01*
X152451000Y-103700000D01*
G75*
G02*
X152400000Y-103751000I-51000J0D01*
G01*
X151500000Y-103751000D01*
G75*
G02*
X151449000Y-103700000I0J51000D01*
G01*
G37*
G36*
G01*
X155549000Y-98300000D02*
X155549000Y-97300000D01*
G75*
G02*
X155600000Y-97249000I51000J0D01*
G01*
X156500000Y-97249000D01*
G75*
G02*
X156551000Y-97300000I0J-51000D01*
G01*
X156551000Y-98300000D01*
G75*
G02*
X156500000Y-98351000I-51000J0D01*
G01*
X155600000Y-98351000D01*
G75*
G02*
X155549000Y-98300000I0J51000D01*
G01*
G37*
G36*
G01*
X155549000Y-96700000D02*
X155549000Y-95700000D01*
G75*
G02*
X155600000Y-95649000I51000J0D01*
G01*
X156500000Y-95649000D01*
G75*
G02*
X156551000Y-95700000I0J-51000D01*
G01*
X156551000Y-96700000D01*
G75*
G02*
X156500000Y-96751000I-51000J0D01*
G01*
X155600000Y-96751000D01*
G75*
G02*
X155549000Y-96700000I0J51000D01*
G01*
G37*
G36*
G01*
X151449000Y-98300000D02*
X151449000Y-97300000D01*
G75*
G02*
X151500000Y-97249000I51000J0D01*
G01*
X152400000Y-97249000D01*
G75*
G02*
X152451000Y-97300000I0J-51000D01*
G01*
X152451000Y-98300000D01*
G75*
G02*
X152400000Y-98351000I-51000J0D01*
G01*
X151500000Y-98351000D01*
G75*
G02*
X151449000Y-98300000I0J51000D01*
G01*
G37*
G36*
G01*
X151449000Y-96700000D02*
X151449000Y-95700000D01*
G75*
G02*
X151500000Y-95649000I51000J0D01*
G01*
X152400000Y-95649000D01*
G75*
G02*
X152451000Y-95700000I0J-51000D01*
G01*
X152451000Y-96700000D01*
G75*
G02*
X152400000Y-96751000I-51000J0D01*
G01*
X151500000Y-96751000D01*
G75*
G02*
X151449000Y-96700000I0J51000D01*
G01*
G37*
G36*
G01*
X140449000Y-131700000D02*
X140449000Y-130700000D01*
G75*
G02*
X140500000Y-130649000I51000J0D01*
G01*
X141400000Y-130649000D01*
G75*
G02*
X141451000Y-130700000I0J-51000D01*
G01*
X141451000Y-131700000D01*
G75*
G02*
X141400000Y-131751000I-51000J0D01*
G01*
X140500000Y-131751000D01*
G75*
G02*
X140449000Y-131700000I0J51000D01*
G01*
G37*
G36*
G01*
X140449000Y-133300000D02*
X140449000Y-132300000D01*
G75*
G02*
X140500000Y-132249000I51000J0D01*
G01*
X141400000Y-132249000D01*
G75*
G02*
X141451000Y-132300000I0J-51000D01*
G01*
X141451000Y-133300000D01*
G75*
G02*
X141400000Y-133351000I-51000J0D01*
G01*
X140500000Y-133351000D01*
G75*
G02*
X140449000Y-133300000I0J51000D01*
G01*
G37*
G36*
G01*
X144549000Y-131700000D02*
X144549000Y-130700000D01*
G75*
G02*
X144600000Y-130649000I51000J0D01*
G01*
X145500000Y-130649000D01*
G75*
G02*
X145551000Y-130700000I0J-51000D01*
G01*
X145551000Y-131700000D01*
G75*
G02*
X145500000Y-131751000I-51000J0D01*
G01*
X144600000Y-131751000D01*
G75*
G02*
X144549000Y-131700000I0J51000D01*
G01*
G37*
G36*
G01*
X144549000Y-133300000D02*
X144549000Y-132300000D01*
G75*
G02*
X144600000Y-132249000I51000J0D01*
G01*
X145500000Y-132249000D01*
G75*
G02*
X145551000Y-132300000I0J-51000D01*
G01*
X145551000Y-133300000D01*
G75*
G02*
X145500000Y-133351000I-51000J0D01*
G01*
X144600000Y-133351000D01*
G75*
G02*
X144549000Y-133300000I0J51000D01*
G01*
G37*
G36*
G01*
X140449000Y-124700000D02*
X140449000Y-123700000D01*
G75*
G02*
X140500000Y-123649000I51000J0D01*
G01*
X141400000Y-123649000D01*
G75*
G02*
X141451000Y-123700000I0J-51000D01*
G01*
X141451000Y-124700000D01*
G75*
G02*
X141400000Y-124751000I-51000J0D01*
G01*
X140500000Y-124751000D01*
G75*
G02*
X140449000Y-124700000I0J51000D01*
G01*
G37*
G36*
G01*
X140449000Y-126300000D02*
X140449000Y-125300000D01*
G75*
G02*
X140500000Y-125249000I51000J0D01*
G01*
X141400000Y-125249000D01*
G75*
G02*
X141451000Y-125300000I0J-51000D01*
G01*
X141451000Y-126300000D01*
G75*
G02*
X141400000Y-126351000I-51000J0D01*
G01*
X140500000Y-126351000D01*
G75*
G02*
X140449000Y-126300000I0J51000D01*
G01*
G37*
G36*
G01*
X144549000Y-124700000D02*
X144549000Y-123700000D01*
G75*
G02*
X144600000Y-123649000I51000J0D01*
G01*
X145500000Y-123649000D01*
G75*
G02*
X145551000Y-123700000I0J-51000D01*
G01*
X145551000Y-124700000D01*
G75*
G02*
X145500000Y-124751000I-51000J0D01*
G01*
X144600000Y-124751000D01*
G75*
G02*
X144549000Y-124700000I0J51000D01*
G01*
G37*
G36*
G01*
X144549000Y-126300000D02*
X144549000Y-125300000D01*
G75*
G02*
X144600000Y-125249000I51000J0D01*
G01*
X145500000Y-125249000D01*
G75*
G02*
X145551000Y-125300000I0J-51000D01*
G01*
X145551000Y-126300000D01*
G75*
G02*
X145500000Y-126351000I-51000J0D01*
G01*
X144600000Y-126351000D01*
G75*
G02*
X144549000Y-126300000I0J51000D01*
G01*
G37*
G36*
G01*
X140449000Y-117700000D02*
X140449000Y-116700000D01*
G75*
G02*
X140500000Y-116649000I51000J0D01*
G01*
X141400000Y-116649000D01*
G75*
G02*
X141451000Y-116700000I0J-51000D01*
G01*
X141451000Y-117700000D01*
G75*
G02*
X141400000Y-117751000I-51000J0D01*
G01*
X140500000Y-117751000D01*
G75*
G02*
X140449000Y-117700000I0J51000D01*
G01*
G37*
G36*
G01*
X140449000Y-119300000D02*
X140449000Y-118300000D01*
G75*
G02*
X140500000Y-118249000I51000J0D01*
G01*
X141400000Y-118249000D01*
G75*
G02*
X141451000Y-118300000I0J-51000D01*
G01*
X141451000Y-119300000D01*
G75*
G02*
X141400000Y-119351000I-51000J0D01*
G01*
X140500000Y-119351000D01*
G75*
G02*
X140449000Y-119300000I0J51000D01*
G01*
G37*
G36*
G01*
X144549000Y-117700000D02*
X144549000Y-116700000D01*
G75*
G02*
X144600000Y-116649000I51000J0D01*
G01*
X145500000Y-116649000D01*
G75*
G02*
X145551000Y-116700000I0J-51000D01*
G01*
X145551000Y-117700000D01*
G75*
G02*
X145500000Y-117751000I-51000J0D01*
G01*
X144600000Y-117751000D01*
G75*
G02*
X144549000Y-117700000I0J51000D01*
G01*
G37*
G36*
G01*
X144549000Y-119300000D02*
X144549000Y-118300000D01*
G75*
G02*
X144600000Y-118249000I51000J0D01*
G01*
X145500000Y-118249000D01*
G75*
G02*
X145551000Y-118300000I0J-51000D01*
G01*
X145551000Y-119300000D01*
G75*
G02*
X145500000Y-119351000I-51000J0D01*
G01*
X144600000Y-119351000D01*
G75*
G02*
X144549000Y-119300000I0J51000D01*
G01*
G37*
G36*
G01*
X140449000Y-110700000D02*
X140449000Y-109700000D01*
G75*
G02*
X140500000Y-109649000I51000J0D01*
G01*
X141400000Y-109649000D01*
G75*
G02*
X141451000Y-109700000I0J-51000D01*
G01*
X141451000Y-110700000D01*
G75*
G02*
X141400000Y-110751000I-51000J0D01*
G01*
X140500000Y-110751000D01*
G75*
G02*
X140449000Y-110700000I0J51000D01*
G01*
G37*
G36*
G01*
X140449000Y-112300000D02*
X140449000Y-111300000D01*
G75*
G02*
X140500000Y-111249000I51000J0D01*
G01*
X141400000Y-111249000D01*
G75*
G02*
X141451000Y-111300000I0J-51000D01*
G01*
X141451000Y-112300000D01*
G75*
G02*
X141400000Y-112351000I-51000J0D01*
G01*
X140500000Y-112351000D01*
G75*
G02*
X140449000Y-112300000I0J51000D01*
G01*
G37*
G36*
G01*
X144549000Y-110700000D02*
X144549000Y-109700000D01*
G75*
G02*
X144600000Y-109649000I51000J0D01*
G01*
X145500000Y-109649000D01*
G75*
G02*
X145551000Y-109700000I0J-51000D01*
G01*
X145551000Y-110700000D01*
G75*
G02*
X145500000Y-110751000I-51000J0D01*
G01*
X144600000Y-110751000D01*
G75*
G02*
X144549000Y-110700000I0J51000D01*
G01*
G37*
G36*
G01*
X144549000Y-112300000D02*
X144549000Y-111300000D01*
G75*
G02*
X144600000Y-111249000I51000J0D01*
G01*
X145500000Y-111249000D01*
G75*
G02*
X145551000Y-111300000I0J-51000D01*
G01*
X145551000Y-112300000D01*
G75*
G02*
X145500000Y-112351000I-51000J0D01*
G01*
X144600000Y-112351000D01*
G75*
G02*
X144549000Y-112300000I0J51000D01*
G01*
G37*
G36*
G01*
X140449000Y-103700000D02*
X140449000Y-102700000D01*
G75*
G02*
X140500000Y-102649000I51000J0D01*
G01*
X141400000Y-102649000D01*
G75*
G02*
X141451000Y-102700000I0J-51000D01*
G01*
X141451000Y-103700000D01*
G75*
G02*
X141400000Y-103751000I-51000J0D01*
G01*
X140500000Y-103751000D01*
G75*
G02*
X140449000Y-103700000I0J51000D01*
G01*
G37*
G36*
G01*
X140449000Y-105300000D02*
X140449000Y-104300000D01*
G75*
G02*
X140500000Y-104249000I51000J0D01*
G01*
X141400000Y-104249000D01*
G75*
G02*
X141451000Y-104300000I0J-51000D01*
G01*
X141451000Y-105300000D01*
G75*
G02*
X141400000Y-105351000I-51000J0D01*
G01*
X140500000Y-105351000D01*
G75*
G02*
X140449000Y-105300000I0J51000D01*
G01*
G37*
G36*
G01*
X144549000Y-103700000D02*
X144549000Y-102700000D01*
G75*
G02*
X144600000Y-102649000I51000J0D01*
G01*
X145500000Y-102649000D01*
G75*
G02*
X145551000Y-102700000I0J-51000D01*
G01*
X145551000Y-103700000D01*
G75*
G02*
X145500000Y-103751000I-51000J0D01*
G01*
X144600000Y-103751000D01*
G75*
G02*
X144549000Y-103700000I0J51000D01*
G01*
G37*
G36*
G01*
X144549000Y-105300000D02*
X144549000Y-104300000D01*
G75*
G02*
X144600000Y-104249000I51000J0D01*
G01*
X145500000Y-104249000D01*
G75*
G02*
X145551000Y-104300000I0J-51000D01*
G01*
X145551000Y-105300000D01*
G75*
G02*
X145500000Y-105351000I-51000J0D01*
G01*
X144600000Y-105351000D01*
G75*
G02*
X144549000Y-105300000I0J51000D01*
G01*
G37*
G36*
G01*
X140449000Y-96700000D02*
X140449000Y-95700000D01*
G75*
G02*
X140500000Y-95649000I51000J0D01*
G01*
X141400000Y-95649000D01*
G75*
G02*
X141451000Y-95700000I0J-51000D01*
G01*
X141451000Y-96700000D01*
G75*
G02*
X141400000Y-96751000I-51000J0D01*
G01*
X140500000Y-96751000D01*
G75*
G02*
X140449000Y-96700000I0J51000D01*
G01*
G37*
G36*
G01*
X140449000Y-98300000D02*
X140449000Y-97300000D01*
G75*
G02*
X140500000Y-97249000I51000J0D01*
G01*
X141400000Y-97249000D01*
G75*
G02*
X141451000Y-97300000I0J-51000D01*
G01*
X141451000Y-98300000D01*
G75*
G02*
X141400000Y-98351000I-51000J0D01*
G01*
X140500000Y-98351000D01*
G75*
G02*
X140449000Y-98300000I0J51000D01*
G01*
G37*
G36*
G01*
X144549000Y-96700000D02*
X144549000Y-95700000D01*
G75*
G02*
X144600000Y-95649000I51000J0D01*
G01*
X145500000Y-95649000D01*
G75*
G02*
X145551000Y-95700000I0J-51000D01*
G01*
X145551000Y-96700000D01*
G75*
G02*
X145500000Y-96751000I-51000J0D01*
G01*
X144600000Y-96751000D01*
G75*
G02*
X144549000Y-96700000I0J51000D01*
G01*
G37*
G36*
G01*
X144549000Y-98300000D02*
X144549000Y-97300000D01*
G75*
G02*
X144600000Y-97249000I51000J0D01*
G01*
X145500000Y-97249000D01*
G75*
G02*
X145551000Y-97300000I0J-51000D01*
G01*
X145551000Y-98300000D01*
G75*
G02*
X145500000Y-98351000I-51000J0D01*
G01*
X144600000Y-98351000D01*
G75*
G02*
X144549000Y-98300000I0J51000D01*
G01*
G37*
G36*
G01*
X133543020Y-133300000D02*
X133543020Y-132300000D01*
G75*
G02*
X133594020Y-132249000I51000J0D01*
G01*
X134494020Y-132249000D01*
G75*
G02*
X134545020Y-132300000I0J-51000D01*
G01*
X134545020Y-133300000D01*
G75*
G02*
X134494020Y-133351000I-51000J0D01*
G01*
X133594020Y-133351000D01*
G75*
G02*
X133543020Y-133300000I0J51000D01*
G01*
G37*
G36*
G01*
X133543020Y-131700000D02*
X133543020Y-130700000D01*
G75*
G02*
X133594020Y-130649000I51000J0D01*
G01*
X134494020Y-130649000D01*
G75*
G02*
X134545020Y-130700000I0J-51000D01*
G01*
X134545020Y-131700000D01*
G75*
G02*
X134494020Y-131751000I-51000J0D01*
G01*
X133594020Y-131751000D01*
G75*
G02*
X133543020Y-131700000I0J51000D01*
G01*
G37*
G36*
G01*
X129443020Y-133300000D02*
X129443020Y-132300000D01*
G75*
G02*
X129494020Y-132249000I51000J0D01*
G01*
X130394020Y-132249000D01*
G75*
G02*
X130445020Y-132300000I0J-51000D01*
G01*
X130445020Y-133300000D01*
G75*
G02*
X130394020Y-133351000I-51000J0D01*
G01*
X129494020Y-133351000D01*
G75*
G02*
X129443020Y-133300000I0J51000D01*
G01*
G37*
G36*
G01*
X129443020Y-131700000D02*
X129443020Y-130700000D01*
G75*
G02*
X129494020Y-130649000I51000J0D01*
G01*
X130394020Y-130649000D01*
G75*
G02*
X130445020Y-130700000I0J-51000D01*
G01*
X130445020Y-131700000D01*
G75*
G02*
X130394020Y-131751000I-51000J0D01*
G01*
X129494020Y-131751000D01*
G75*
G02*
X129443020Y-131700000I0J51000D01*
G01*
G37*
G36*
G01*
X133543020Y-126300000D02*
X133543020Y-125300000D01*
G75*
G02*
X133594020Y-125249000I51000J0D01*
G01*
X134494020Y-125249000D01*
G75*
G02*
X134545020Y-125300000I0J-51000D01*
G01*
X134545020Y-126300000D01*
G75*
G02*
X134494020Y-126351000I-51000J0D01*
G01*
X133594020Y-126351000D01*
G75*
G02*
X133543020Y-126300000I0J51000D01*
G01*
G37*
G36*
G01*
X133543020Y-124700000D02*
X133543020Y-123700000D01*
G75*
G02*
X133594020Y-123649000I51000J0D01*
G01*
X134494020Y-123649000D01*
G75*
G02*
X134545020Y-123700000I0J-51000D01*
G01*
X134545020Y-124700000D01*
G75*
G02*
X134494020Y-124751000I-51000J0D01*
G01*
X133594020Y-124751000D01*
G75*
G02*
X133543020Y-124700000I0J51000D01*
G01*
G37*
G36*
G01*
X129443020Y-126300000D02*
X129443020Y-125300000D01*
G75*
G02*
X129494020Y-125249000I51000J0D01*
G01*
X130394020Y-125249000D01*
G75*
G02*
X130445020Y-125300000I0J-51000D01*
G01*
X130445020Y-126300000D01*
G75*
G02*
X130394020Y-126351000I-51000J0D01*
G01*
X129494020Y-126351000D01*
G75*
G02*
X129443020Y-126300000I0J51000D01*
G01*
G37*
G36*
G01*
X129443020Y-124700000D02*
X129443020Y-123700000D01*
G75*
G02*
X129494020Y-123649000I51000J0D01*
G01*
X130394020Y-123649000D01*
G75*
G02*
X130445020Y-123700000I0J-51000D01*
G01*
X130445020Y-124700000D01*
G75*
G02*
X130394020Y-124751000I-51000J0D01*
G01*
X129494020Y-124751000D01*
G75*
G02*
X129443020Y-124700000I0J51000D01*
G01*
G37*
G36*
G01*
X133549000Y-119300000D02*
X133549000Y-118300000D01*
G75*
G02*
X133600000Y-118249000I51000J0D01*
G01*
X134500000Y-118249000D01*
G75*
G02*
X134551000Y-118300000I0J-51000D01*
G01*
X134551000Y-119300000D01*
G75*
G02*
X134500000Y-119351000I-51000J0D01*
G01*
X133600000Y-119351000D01*
G75*
G02*
X133549000Y-119300000I0J51000D01*
G01*
G37*
G36*
G01*
X133549000Y-117700000D02*
X133549000Y-116700000D01*
G75*
G02*
X133600000Y-116649000I51000J0D01*
G01*
X134500000Y-116649000D01*
G75*
G02*
X134551000Y-116700000I0J-51000D01*
G01*
X134551000Y-117700000D01*
G75*
G02*
X134500000Y-117751000I-51000J0D01*
G01*
X133600000Y-117751000D01*
G75*
G02*
X133549000Y-117700000I0J51000D01*
G01*
G37*
G36*
G01*
X129449000Y-119300000D02*
X129449000Y-118300000D01*
G75*
G02*
X129500000Y-118249000I51000J0D01*
G01*
X130400000Y-118249000D01*
G75*
G02*
X130451000Y-118300000I0J-51000D01*
G01*
X130451000Y-119300000D01*
G75*
G02*
X130400000Y-119351000I-51000J0D01*
G01*
X129500000Y-119351000D01*
G75*
G02*
X129449000Y-119300000I0J51000D01*
G01*
G37*
G36*
G01*
X129449000Y-117700000D02*
X129449000Y-116700000D01*
G75*
G02*
X129500000Y-116649000I51000J0D01*
G01*
X130400000Y-116649000D01*
G75*
G02*
X130451000Y-116700000I0J-51000D01*
G01*
X130451000Y-117700000D01*
G75*
G02*
X130400000Y-117751000I-51000J0D01*
G01*
X129500000Y-117751000D01*
G75*
G02*
X129449000Y-117700000I0J51000D01*
G01*
G37*
G36*
G01*
X133549000Y-112300000D02*
X133549000Y-111300000D01*
G75*
G02*
X133600000Y-111249000I51000J0D01*
G01*
X134500000Y-111249000D01*
G75*
G02*
X134551000Y-111300000I0J-51000D01*
G01*
X134551000Y-112300000D01*
G75*
G02*
X134500000Y-112351000I-51000J0D01*
G01*
X133600000Y-112351000D01*
G75*
G02*
X133549000Y-112300000I0J51000D01*
G01*
G37*
G36*
G01*
X133549000Y-110700000D02*
X133549000Y-109700000D01*
G75*
G02*
X133600000Y-109649000I51000J0D01*
G01*
X134500000Y-109649000D01*
G75*
G02*
X134551000Y-109700000I0J-51000D01*
G01*
X134551000Y-110700000D01*
G75*
G02*
X134500000Y-110751000I-51000J0D01*
G01*
X133600000Y-110751000D01*
G75*
G02*
X133549000Y-110700000I0J51000D01*
G01*
G37*
G36*
G01*
X129449000Y-112300000D02*
X129449000Y-111300000D01*
G75*
G02*
X129500000Y-111249000I51000J0D01*
G01*
X130400000Y-111249000D01*
G75*
G02*
X130451000Y-111300000I0J-51000D01*
G01*
X130451000Y-112300000D01*
G75*
G02*
X130400000Y-112351000I-51000J0D01*
G01*
X129500000Y-112351000D01*
G75*
G02*
X129449000Y-112300000I0J51000D01*
G01*
G37*
G36*
G01*
X129449000Y-110700000D02*
X129449000Y-109700000D01*
G75*
G02*
X129500000Y-109649000I51000J0D01*
G01*
X130400000Y-109649000D01*
G75*
G02*
X130451000Y-109700000I0J-51000D01*
G01*
X130451000Y-110700000D01*
G75*
G02*
X130400000Y-110751000I-51000J0D01*
G01*
X129500000Y-110751000D01*
G75*
G02*
X129449000Y-110700000I0J51000D01*
G01*
G37*
G36*
G01*
X133543020Y-105300000D02*
X133543020Y-104300000D01*
G75*
G02*
X133594020Y-104249000I51000J0D01*
G01*
X134494020Y-104249000D01*
G75*
G02*
X134545020Y-104300000I0J-51000D01*
G01*
X134545020Y-105300000D01*
G75*
G02*
X134494020Y-105351000I-51000J0D01*
G01*
X133594020Y-105351000D01*
G75*
G02*
X133543020Y-105300000I0J51000D01*
G01*
G37*
G36*
G01*
X133543020Y-103700000D02*
X133543020Y-102700000D01*
G75*
G02*
X133594020Y-102649000I51000J0D01*
G01*
X134494020Y-102649000D01*
G75*
G02*
X134545020Y-102700000I0J-51000D01*
G01*
X134545020Y-103700000D01*
G75*
G02*
X134494020Y-103751000I-51000J0D01*
G01*
X133594020Y-103751000D01*
G75*
G02*
X133543020Y-103700000I0J51000D01*
G01*
G37*
G36*
G01*
X129443020Y-105300000D02*
X129443020Y-104300000D01*
G75*
G02*
X129494020Y-104249000I51000J0D01*
G01*
X130394020Y-104249000D01*
G75*
G02*
X130445020Y-104300000I0J-51000D01*
G01*
X130445020Y-105300000D01*
G75*
G02*
X130394020Y-105351000I-51000J0D01*
G01*
X129494020Y-105351000D01*
G75*
G02*
X129443020Y-105300000I0J51000D01*
G01*
G37*
G36*
G01*
X129443020Y-103700000D02*
X129443020Y-102700000D01*
G75*
G02*
X129494020Y-102649000I51000J0D01*
G01*
X130394020Y-102649000D01*
G75*
G02*
X130445020Y-102700000I0J-51000D01*
G01*
X130445020Y-103700000D01*
G75*
G02*
X130394020Y-103751000I-51000J0D01*
G01*
X129494020Y-103751000D01*
G75*
G02*
X129443020Y-103700000I0J51000D01*
G01*
G37*
G36*
G01*
X123246450Y-109681000D02*
X123809950Y-109681000D01*
G75*
G02*
X124054200Y-109925250I0J-244250D01*
G01*
X124054200Y-110413750D01*
G75*
G02*
X123809950Y-110658000I-244250J0D01*
G01*
X123246450Y-110658000D01*
G75*
G02*
X123002200Y-110413750I0J244250D01*
G01*
X123002200Y-109925250D01*
G75*
G02*
X123246450Y-109681000I244250J0D01*
G01*
G37*
G36*
G01*
X123246450Y-108106000D02*
X123809950Y-108106000D01*
G75*
G02*
X124054200Y-108350250I0J-244250D01*
G01*
X124054200Y-108838750D01*
G75*
G02*
X123809950Y-109083000I-244250J0D01*
G01*
X123246450Y-109083000D01*
G75*
G02*
X123002200Y-108838750I0J244250D01*
G01*
X123002200Y-108350250D01*
G75*
G02*
X123246450Y-108106000I244250J0D01*
G01*
G37*
G36*
G01*
X123000600Y-45447850D02*
X123000600Y-46011350D01*
G75*
G02*
X122756350Y-46255600I-244250J0D01*
G01*
X122267850Y-46255600D01*
G75*
G02*
X122023600Y-46011350I0J244250D01*
G01*
X122023600Y-45447850D01*
G75*
G02*
X122267850Y-45203600I244250J0D01*
G01*
X122756350Y-45203600D01*
G75*
G02*
X123000600Y-45447850I0J-244250D01*
G01*
G37*
G36*
G01*
X124575600Y-45447850D02*
X124575600Y-46011350D01*
G75*
G02*
X124331350Y-46255600I-244250J0D01*
G01*
X123842850Y-46255600D01*
G75*
G02*
X123598600Y-46011350I0J244250D01*
G01*
X123598600Y-45447850D01*
G75*
G02*
X123842850Y-45203600I244250J0D01*
G01*
X124331350Y-45203600D01*
G75*
G02*
X124575600Y-45447850I0J-244250D01*
G01*
G37*
G36*
G01*
X123559400Y-55506250D02*
X123559400Y-56069750D01*
G75*
G02*
X123315150Y-56314000I-244250J0D01*
G01*
X122826650Y-56314000D01*
G75*
G02*
X122582400Y-56069750I0J244250D01*
G01*
X122582400Y-55506250D01*
G75*
G02*
X122826650Y-55262000I244250J0D01*
G01*
X123315150Y-55262000D01*
G75*
G02*
X123559400Y-55506250I0J-244250D01*
G01*
G37*
G36*
G01*
X125134400Y-55506250D02*
X125134400Y-56069750D01*
G75*
G02*
X124890150Y-56314000I-244250J0D01*
G01*
X124401650Y-56314000D01*
G75*
G02*
X124157400Y-56069750I0J244250D01*
G01*
X124157400Y-55506250D01*
G75*
G02*
X124401650Y-55262000I244250J0D01*
G01*
X124890150Y-55262000D01*
G75*
G02*
X125134400Y-55506250I0J-244250D01*
G01*
G37*
G36*
G01*
X156701000Y-128968250D02*
X156701000Y-129531750D01*
G75*
G02*
X156456750Y-129776000I-244250J0D01*
G01*
X155968250Y-129776000D01*
G75*
G02*
X155724000Y-129531750I0J244250D01*
G01*
X155724000Y-128968250D01*
G75*
G02*
X155968250Y-128724000I244250J0D01*
G01*
X156456750Y-128724000D01*
G75*
G02*
X156701000Y-128968250I0J-244250D01*
G01*
G37*
G36*
G01*
X158276000Y-128968250D02*
X158276000Y-129531750D01*
G75*
G02*
X158031750Y-129776000I-244250J0D01*
G01*
X157543250Y-129776000D01*
G75*
G02*
X157299000Y-129531750I0J244250D01*
G01*
X157299000Y-128968250D01*
G75*
G02*
X157543250Y-128724000I244250J0D01*
G01*
X158031750Y-128724000D01*
G75*
G02*
X158276000Y-128968250I0J-244250D01*
G01*
G37*
G36*
G01*
X156701000Y-121968250D02*
X156701000Y-122531750D01*
G75*
G02*
X156456750Y-122776000I-244250J0D01*
G01*
X155968250Y-122776000D01*
G75*
G02*
X155724000Y-122531750I0J244250D01*
G01*
X155724000Y-121968250D01*
G75*
G02*
X155968250Y-121724000I244250J0D01*
G01*
X156456750Y-121724000D01*
G75*
G02*
X156701000Y-121968250I0J-244250D01*
G01*
G37*
G36*
G01*
X158276000Y-121968250D02*
X158276000Y-122531750D01*
G75*
G02*
X158031750Y-122776000I-244250J0D01*
G01*
X157543250Y-122776000D01*
G75*
G02*
X157299000Y-122531750I0J244250D01*
G01*
X157299000Y-121968250D01*
G75*
G02*
X157543250Y-121724000I244250J0D01*
G01*
X158031750Y-121724000D01*
G75*
G02*
X158276000Y-121968250I0J-244250D01*
G01*
G37*
G36*
G01*
X156701000Y-114968250D02*
X156701000Y-115531750D01*
G75*
G02*
X156456750Y-115776000I-244250J0D01*
G01*
X155968250Y-115776000D01*
G75*
G02*
X155724000Y-115531750I0J244250D01*
G01*
X155724000Y-114968250D01*
G75*
G02*
X155968250Y-114724000I244250J0D01*
G01*
X156456750Y-114724000D01*
G75*
G02*
X156701000Y-114968250I0J-244250D01*
G01*
G37*
G36*
G01*
X158276000Y-114968250D02*
X158276000Y-115531750D01*
G75*
G02*
X158031750Y-115776000I-244250J0D01*
G01*
X157543250Y-115776000D01*
G75*
G02*
X157299000Y-115531750I0J244250D01*
G01*
X157299000Y-114968250D01*
G75*
G02*
X157543250Y-114724000I244250J0D01*
G01*
X158031750Y-114724000D01*
G75*
G02*
X158276000Y-114968250I0J-244250D01*
G01*
G37*
G36*
G01*
X156701000Y-107968250D02*
X156701000Y-108531750D01*
G75*
G02*
X156456750Y-108776000I-244250J0D01*
G01*
X155968250Y-108776000D01*
G75*
G02*
X155724000Y-108531750I0J244250D01*
G01*
X155724000Y-107968250D01*
G75*
G02*
X155968250Y-107724000I244250J0D01*
G01*
X156456750Y-107724000D01*
G75*
G02*
X156701000Y-107968250I0J-244250D01*
G01*
G37*
G36*
G01*
X158276000Y-107968250D02*
X158276000Y-108531750D01*
G75*
G02*
X158031750Y-108776000I-244250J0D01*
G01*
X157543250Y-108776000D01*
G75*
G02*
X157299000Y-108531750I0J244250D01*
G01*
X157299000Y-107968250D01*
G75*
G02*
X157543250Y-107724000I244250J0D01*
G01*
X158031750Y-107724000D01*
G75*
G02*
X158276000Y-107968250I0J-244250D01*
G01*
G37*
G36*
G01*
X156701000Y-100968250D02*
X156701000Y-101531750D01*
G75*
G02*
X156456750Y-101776000I-244250J0D01*
G01*
X155968250Y-101776000D01*
G75*
G02*
X155724000Y-101531750I0J244250D01*
G01*
X155724000Y-100968250D01*
G75*
G02*
X155968250Y-100724000I244250J0D01*
G01*
X156456750Y-100724000D01*
G75*
G02*
X156701000Y-100968250I0J-244250D01*
G01*
G37*
G36*
G01*
X158276000Y-100968250D02*
X158276000Y-101531750D01*
G75*
G02*
X158031750Y-101776000I-244250J0D01*
G01*
X157543250Y-101776000D01*
G75*
G02*
X157299000Y-101531750I0J244250D01*
G01*
X157299000Y-100968250D01*
G75*
G02*
X157543250Y-100724000I244250J0D01*
G01*
X158031750Y-100724000D01*
G75*
G02*
X158276000Y-100968250I0J-244250D01*
G01*
G37*
G36*
G01*
X156701000Y-93968250D02*
X156701000Y-94531750D01*
G75*
G02*
X156456750Y-94776000I-244250J0D01*
G01*
X155968250Y-94776000D01*
G75*
G02*
X155724000Y-94531750I0J244250D01*
G01*
X155724000Y-93968250D01*
G75*
G02*
X155968250Y-93724000I244250J0D01*
G01*
X156456750Y-93724000D01*
G75*
G02*
X156701000Y-93968250I0J-244250D01*
G01*
G37*
G36*
G01*
X158276000Y-93968250D02*
X158276000Y-94531750D01*
G75*
G02*
X158031750Y-94776000I-244250J0D01*
G01*
X157543250Y-94776000D01*
G75*
G02*
X157299000Y-94531750I0J244250D01*
G01*
X157299000Y-93968250D01*
G75*
G02*
X157543250Y-93724000I244250J0D01*
G01*
X158031750Y-93724000D01*
G75*
G02*
X158276000Y-93968250I0J-244250D01*
G01*
G37*
G36*
G01*
X125451000Y-109836850D02*
X125451000Y-110400350D01*
G75*
G02*
X125206750Y-110644600I-244250J0D01*
G01*
X124718250Y-110644600D01*
G75*
G02*
X124474000Y-110400350I0J244250D01*
G01*
X124474000Y-109836850D01*
G75*
G02*
X124718250Y-109592600I244250J0D01*
G01*
X125206750Y-109592600D01*
G75*
G02*
X125451000Y-109836850I0J-244250D01*
G01*
G37*
G36*
G01*
X127026000Y-109836850D02*
X127026000Y-110400350D01*
G75*
G02*
X126781750Y-110644600I-244250J0D01*
G01*
X126293250Y-110644600D01*
G75*
G02*
X126049000Y-110400350I0J244250D01*
G01*
X126049000Y-109836850D01*
G75*
G02*
X126293250Y-109592600I244250J0D01*
G01*
X126781750Y-109592600D01*
G75*
G02*
X127026000Y-109836850I0J-244250D01*
G01*
G37*
G36*
G01*
X125464300Y-115272450D02*
X125464300Y-115835950D01*
G75*
G02*
X125220050Y-116080200I-244250J0D01*
G01*
X124731550Y-116080200D01*
G75*
G02*
X124487300Y-115835950I0J244250D01*
G01*
X124487300Y-115272450D01*
G75*
G02*
X124731550Y-115028200I244250J0D01*
G01*
X125220050Y-115028200D01*
G75*
G02*
X125464300Y-115272450I0J-244250D01*
G01*
G37*
G36*
G01*
X127039300Y-115272450D02*
X127039300Y-115835950D01*
G75*
G02*
X126795050Y-116080200I-244250J0D01*
G01*
X126306550Y-116080200D01*
G75*
G02*
X126062300Y-115835950I0J244250D01*
G01*
X126062300Y-115272450D01*
G75*
G02*
X126306550Y-115028200I244250J0D01*
G01*
X126795050Y-115028200D01*
G75*
G02*
X127039300Y-115272450I0J-244250D01*
G01*
G37*
G36*
G01*
X125438900Y-111335450D02*
X125438900Y-111898950D01*
G75*
G02*
X125194650Y-112143200I-244250J0D01*
G01*
X124706150Y-112143200D01*
G75*
G02*
X124461900Y-111898950I0J244250D01*
G01*
X124461900Y-111335450D01*
G75*
G02*
X124706150Y-111091200I244250J0D01*
G01*
X125194650Y-111091200D01*
G75*
G02*
X125438900Y-111335450I0J-244250D01*
G01*
G37*
G36*
G01*
X127013900Y-111335450D02*
X127013900Y-111898950D01*
G75*
G02*
X126769650Y-112143200I-244250J0D01*
G01*
X126281150Y-112143200D01*
G75*
G02*
X126036900Y-111898950I0J244250D01*
G01*
X126036900Y-111335450D01*
G75*
G02*
X126281150Y-111091200I244250J0D01*
G01*
X126769650Y-111091200D01*
G75*
G02*
X127013900Y-111335450I0J-244250D01*
G01*
G37*
G36*
G01*
X125464300Y-116745650D02*
X125464300Y-117309150D01*
G75*
G02*
X125220050Y-117553400I-244250J0D01*
G01*
X124731550Y-117553400D01*
G75*
G02*
X124487300Y-117309150I0J244250D01*
G01*
X124487300Y-116745650D01*
G75*
G02*
X124731550Y-116501400I244250J0D01*
G01*
X125220050Y-116501400D01*
G75*
G02*
X125464300Y-116745650I0J-244250D01*
G01*
G37*
G36*
G01*
X127039300Y-116745650D02*
X127039300Y-117309150D01*
G75*
G02*
X126795050Y-117553400I-244250J0D01*
G01*
X126306550Y-117553400D01*
G75*
G02*
X126062300Y-117309150I0J244250D01*
G01*
X126062300Y-116745650D01*
G75*
G02*
X126306550Y-116501400I244250J0D01*
G01*
X126795050Y-116501400D01*
G75*
G02*
X127039300Y-116745650I0J-244250D01*
G01*
G37*
G36*
G01*
X126049000Y-114337350D02*
X126049000Y-113773850D01*
G75*
G02*
X126293250Y-113529600I244250J0D01*
G01*
X126781750Y-113529600D01*
G75*
G02*
X127026000Y-113773850I0J-244250D01*
G01*
X127026000Y-114337350D01*
G75*
G02*
X126781750Y-114581600I-244250J0D01*
G01*
X126293250Y-114581600D01*
G75*
G02*
X126049000Y-114337350I0J244250D01*
G01*
G37*
G36*
G01*
X124474000Y-114337350D02*
X124474000Y-113773850D01*
G75*
G02*
X124718250Y-113529600I244250J0D01*
G01*
X125206750Y-113529600D01*
G75*
G02*
X125451000Y-113773850I0J-244250D01*
G01*
X125451000Y-114337350D01*
G75*
G02*
X125206750Y-114581600I-244250J0D01*
G01*
X124718250Y-114581600D01*
G75*
G02*
X124474000Y-114337350I0J244250D01*
G01*
G37*
G36*
G01*
X123246450Y-115091300D02*
X123809950Y-115091300D01*
G75*
G02*
X124054200Y-115335550I0J-244250D01*
G01*
X124054200Y-115824050D01*
G75*
G02*
X123809950Y-116068300I-244250J0D01*
G01*
X123246450Y-116068300D01*
G75*
G02*
X123002200Y-115824050I0J244250D01*
G01*
X123002200Y-115335550D01*
G75*
G02*
X123246450Y-115091300I244250J0D01*
G01*
G37*
G36*
G01*
X123246450Y-113516300D02*
X123809950Y-113516300D01*
G75*
G02*
X124054200Y-113760550I0J-244250D01*
G01*
X124054200Y-114249050D01*
G75*
G02*
X123809950Y-114493300I-244250J0D01*
G01*
X123246450Y-114493300D01*
G75*
G02*
X123002200Y-114249050I0J244250D01*
G01*
X123002200Y-113760550D01*
G75*
G02*
X123246450Y-113516300I244250J0D01*
G01*
G37*
G36*
G01*
X126062300Y-108901750D02*
X126062300Y-108338250D01*
G75*
G02*
X126306550Y-108094000I244250J0D01*
G01*
X126795050Y-108094000D01*
G75*
G02*
X127039300Y-108338250I0J-244250D01*
G01*
X127039300Y-108901750D01*
G75*
G02*
X126795050Y-109146000I-244250J0D01*
G01*
X126306550Y-109146000D01*
G75*
G02*
X126062300Y-108901750I0J244250D01*
G01*
G37*
G36*
G01*
X124487300Y-108901750D02*
X124487300Y-108338250D01*
G75*
G02*
X124731550Y-108094000I244250J0D01*
G01*
X125220050Y-108094000D01*
G75*
G02*
X125464300Y-108338250I0J-244250D01*
G01*
X125464300Y-108901750D01*
G75*
G02*
X125220050Y-109146000I-244250J0D01*
G01*
X124731550Y-109146000D01*
G75*
G02*
X124487300Y-108901750I0J244250D01*
G01*
G37*
D14*
G36*
X125258105Y-79082734D02*
G01*
X125258870Y-79084582D01*
X125257998Y-79085984D01*
X125253670Y-79088876D01*
X125234955Y-79104235D01*
X125219660Y-79122872D01*
X125208295Y-79144135D01*
X125201295Y-79167210D01*
X125198932Y-79191201D01*
X125201295Y-79215193D01*
X125208295Y-79238268D01*
X125219660Y-79259531D01*
X125234956Y-79278168D01*
X125253593Y-79293463D01*
X125274856Y-79304828D01*
X125297931Y-79311828D01*
X125322118Y-79314210D01*
X125323744Y-79315375D01*
X125323548Y-79317365D01*
X125321922Y-79318200D01*
X124678078Y-79318200D01*
X124676346Y-79317200D01*
X124676346Y-79315200D01*
X124677882Y-79314210D01*
X124702069Y-79311828D01*
X124725144Y-79304828D01*
X124746408Y-79293463D01*
X124765045Y-79278168D01*
X124780340Y-79259531D01*
X124791705Y-79238267D01*
X124798705Y-79215192D01*
X124801068Y-79191201D01*
X124798705Y-79167210D01*
X124791705Y-79144135D01*
X124780340Y-79122871D01*
X124765045Y-79104234D01*
X124746330Y-79088876D01*
X124742002Y-79085984D01*
X124741117Y-79084190D01*
X124742228Y-79082527D01*
X124743878Y-79082473D01*
X124840635Y-79122550D01*
X124946192Y-79143547D01*
X125053808Y-79143547D01*
X125159365Y-79122550D01*
X125256122Y-79082473D01*
X125258105Y-79082734D01*
G37*
G36*
X125172906Y-77848024D02*
G01*
X125173671Y-77849872D01*
X125172631Y-77851375D01*
X125156609Y-77859938D01*
X125137972Y-77875233D01*
X125122677Y-77893870D01*
X125111312Y-77915134D01*
X125104312Y-77938209D01*
X125101949Y-77962200D01*
X125104312Y-77986191D01*
X125111312Y-78009266D01*
X125122677Y-78030530D01*
X125137972Y-78049167D01*
X125156609Y-78064462D01*
X125172631Y-78073025D01*
X125173687Y-78074724D01*
X125172744Y-78076487D01*
X125170923Y-78076637D01*
X125159365Y-78071850D01*
X125053808Y-78050853D01*
X124946192Y-78050853D01*
X124840635Y-78071850D01*
X124829077Y-78076637D01*
X124827094Y-78076376D01*
X124826329Y-78074528D01*
X124827369Y-78073025D01*
X124843391Y-78064462D01*
X124862028Y-78049167D01*
X124877323Y-78030530D01*
X124888688Y-78009266D01*
X124895688Y-77986191D01*
X124898051Y-77962200D01*
X124895688Y-77938209D01*
X124888688Y-77915134D01*
X124877323Y-77893870D01*
X124862028Y-77875233D01*
X124843391Y-77859938D01*
X124827369Y-77851375D01*
X124826313Y-77849676D01*
X124827256Y-77847913D01*
X124829077Y-77847763D01*
X124840635Y-77852550D01*
X124946192Y-77873547D01*
X125053808Y-77873547D01*
X125159365Y-77852550D01*
X125170923Y-77847763D01*
X125172906Y-77848024D01*
G37*
G36*
X125172906Y-76578024D02*
G01*
X125173671Y-76579872D01*
X125172631Y-76581375D01*
X125156609Y-76589938D01*
X125137972Y-76605233D01*
X125122677Y-76623870D01*
X125111312Y-76645134D01*
X125104312Y-76668209D01*
X125101949Y-76692200D01*
X125104312Y-76716191D01*
X125111312Y-76739266D01*
X125122677Y-76760530D01*
X125137972Y-76779167D01*
X125156609Y-76794462D01*
X125172631Y-76803025D01*
X125173687Y-76804724D01*
X125172744Y-76806487D01*
X125170923Y-76806637D01*
X125159365Y-76801850D01*
X125053808Y-76780853D01*
X124946192Y-76780853D01*
X124840635Y-76801850D01*
X124829077Y-76806637D01*
X124827094Y-76806376D01*
X124826329Y-76804528D01*
X124827369Y-76803025D01*
X124843391Y-76794462D01*
X124862028Y-76779167D01*
X124877323Y-76760530D01*
X124888688Y-76739266D01*
X124895688Y-76716191D01*
X124898051Y-76692200D01*
X124895688Y-76668209D01*
X124888688Y-76645134D01*
X124877323Y-76623870D01*
X124862028Y-76605233D01*
X124843391Y-76589938D01*
X124827369Y-76581375D01*
X124826313Y-76579676D01*
X124827256Y-76577913D01*
X124829077Y-76577763D01*
X124840635Y-76582550D01*
X124946192Y-76603547D01*
X125053808Y-76603547D01*
X125159365Y-76582550D01*
X125170923Y-76577763D01*
X125172906Y-76578024D01*
G37*
M02*
