G04 #@! TF.GenerationSoftware,KiCad,Pcbnew,5.1.6-c6e7f7d~87~ubuntu18.04.1*
G04 #@! TF.CreationDate,2020-07-31T23:24:34+02:00*
G04 #@! TF.ProjectId,HMI,484d492e-6b69-4636-9164-5f7063625858,rev?*
G04 #@! TF.SameCoordinates,Original*
G04 #@! TF.FileFunction,Soldermask,Bot*
G04 #@! TF.FilePolarity,Negative*
%FSLAX46Y46*%
G04 Gerber Fmt 4.6, Leading zero omitted, Abs format (unit mm)*
G04 Created by KiCad (PCBNEW 5.1.6-c6e7f7d~87~ubuntu18.04.1) date 2020-07-31 23:24:34*
%MOMM*%
%LPD*%
G01*
G04 APERTURE LIST*
%ADD10C,0.100000*%
G04 APERTURE END LIST*
D10*
X123367800Y-41706800D02*
G75*
G03*
X123367800Y-41706800I-635000J0D01*
G01*
X123367800Y-48706800D02*
G75*
G03*
X123367800Y-48706800I-635000J0D01*
G01*
X120677300Y-47456800D02*
G75*
G03*
X120677300Y-47456800I-444500J0D01*
G01*
X120677300Y-42956800D02*
G75*
G03*
X120677300Y-42956800I-444500J0D01*
G01*
X123266200Y-51572400D02*
G75*
G03*
X123266200Y-51572400I-635000J0D01*
G01*
X123266200Y-58572400D02*
G75*
G03*
X123266200Y-58572400I-635000J0D01*
G01*
X120575700Y-57322400D02*
G75*
G03*
X120575700Y-57322400I-444500J0D01*
G01*
X120575700Y-52822400D02*
G75*
G03*
X120575700Y-52822400I-444500J0D01*
G01*
G36*
X162722685Y-137163575D02*
G01*
X163077743Y-137310645D01*
X163077745Y-137310646D01*
X163397290Y-137524159D01*
X163669041Y-137795910D01*
X163882554Y-138115455D01*
X163882555Y-138115457D01*
X164029625Y-138470515D01*
X164104600Y-138847442D01*
X164104600Y-139231758D01*
X164029625Y-139608685D01*
X163882555Y-139963743D01*
X163882554Y-139963745D01*
X163669041Y-140283290D01*
X163397290Y-140555041D01*
X163077745Y-140768554D01*
X163077744Y-140768555D01*
X163077743Y-140768555D01*
X162722685Y-140915625D01*
X162345758Y-140990600D01*
X161961442Y-140990600D01*
X161584515Y-140915625D01*
X161229457Y-140768555D01*
X161229456Y-140768555D01*
X161229455Y-140768554D01*
X160909910Y-140555041D01*
X160638159Y-140283290D01*
X160424646Y-139963745D01*
X160424645Y-139963743D01*
X160277575Y-139608685D01*
X160202600Y-139231758D01*
X160202600Y-138847442D01*
X160277575Y-138470515D01*
X160424645Y-138115457D01*
X160424646Y-138115455D01*
X160638159Y-137795910D01*
X160909910Y-137524159D01*
X161229455Y-137310646D01*
X161229457Y-137310645D01*
X161584515Y-137163575D01*
X161961442Y-137088600D01*
X162345758Y-137088600D01*
X162722685Y-137163575D01*
G37*
G36*
X122082685Y-137163575D02*
G01*
X122437743Y-137310645D01*
X122437745Y-137310646D01*
X122757290Y-137524159D01*
X123029041Y-137795910D01*
X123242554Y-138115455D01*
X123242555Y-138115457D01*
X123389625Y-138470515D01*
X123464600Y-138847442D01*
X123464600Y-139231758D01*
X123389625Y-139608685D01*
X123242555Y-139963743D01*
X123242554Y-139963745D01*
X123029041Y-140283290D01*
X122757290Y-140555041D01*
X122437745Y-140768554D01*
X122437744Y-140768555D01*
X122437743Y-140768555D01*
X122082685Y-140915625D01*
X121705758Y-140990600D01*
X121321442Y-140990600D01*
X120944515Y-140915625D01*
X120589457Y-140768555D01*
X120589456Y-140768555D01*
X120589455Y-140768554D01*
X120269910Y-140555041D01*
X119998159Y-140283290D01*
X119784646Y-139963745D01*
X119784645Y-139963743D01*
X119637575Y-139608685D01*
X119562600Y-139231758D01*
X119562600Y-138847442D01*
X119637575Y-138470515D01*
X119784645Y-138115457D01*
X119784646Y-138115455D01*
X119998159Y-137795910D01*
X120269910Y-137524159D01*
X120589455Y-137310646D01*
X120589457Y-137310645D01*
X120944515Y-137163575D01*
X121321442Y-137088600D01*
X121705758Y-137088600D01*
X122082685Y-137163575D01*
G37*
G36*
X131199000Y-119042500D02*
G01*
X128897000Y-119042500D01*
X128897000Y-117140500D01*
X131199000Y-117140500D01*
X131199000Y-119042500D01*
G37*
G36*
X133999000Y-116392500D02*
G01*
X132597000Y-116392500D01*
X132597000Y-111490500D01*
X133999000Y-111490500D01*
X133999000Y-116392500D01*
G37*
G36*
X131199000Y-110742500D02*
G01*
X128897000Y-110742500D01*
X128897000Y-108840500D01*
X131199000Y-108840500D01*
X131199000Y-110742500D01*
G37*
G36*
X135939391Y-87894985D02*
G01*
X135973369Y-87905293D01*
X136004690Y-87922034D01*
X136032139Y-87944561D01*
X136054666Y-87972010D01*
X136071407Y-88003331D01*
X136081715Y-88037309D01*
X136085800Y-88078790D01*
X136085800Y-88680010D01*
X136081715Y-88721491D01*
X136071407Y-88755469D01*
X136054666Y-88786790D01*
X136032139Y-88814239D01*
X136004690Y-88836766D01*
X135973369Y-88853507D01*
X135939391Y-88863815D01*
X135897910Y-88867900D01*
X135221690Y-88867900D01*
X135180209Y-88863815D01*
X135146231Y-88853507D01*
X135114910Y-88836766D01*
X135087461Y-88814239D01*
X135064934Y-88786790D01*
X135048193Y-88755469D01*
X135037885Y-88721491D01*
X135033800Y-88680010D01*
X135033800Y-88078790D01*
X135037885Y-88037309D01*
X135048193Y-88003331D01*
X135064934Y-87972010D01*
X135087461Y-87944561D01*
X135114910Y-87922034D01*
X135146231Y-87905293D01*
X135180209Y-87894985D01*
X135221690Y-87890900D01*
X135897910Y-87890900D01*
X135939391Y-87894985D01*
G37*
G36*
X138942851Y-86929584D02*
G01*
X138959243Y-86934557D01*
X138974355Y-86942634D01*
X138987598Y-86953502D01*
X138998467Y-86966747D01*
X139002561Y-86974406D01*
X139016174Y-86994780D01*
X139033501Y-87012107D01*
X139053876Y-87025721D01*
X139076514Y-87035098D01*
X139100548Y-87039879D01*
X139125052Y-87039879D01*
X139149085Y-87035099D01*
X139171724Y-87025721D01*
X139192098Y-87012108D01*
X139209425Y-86994781D01*
X139223039Y-86974406D01*
X139227133Y-86966747D01*
X139238002Y-86953502D01*
X139251245Y-86942634D01*
X139266357Y-86934557D01*
X139282749Y-86929584D01*
X139305941Y-86927300D01*
X139719659Y-86927300D01*
X139742851Y-86929584D01*
X139759243Y-86934557D01*
X139774355Y-86942634D01*
X139787598Y-86953502D01*
X139798467Y-86966747D01*
X139802561Y-86974406D01*
X139816174Y-86994780D01*
X139833501Y-87012107D01*
X139853876Y-87025721D01*
X139876514Y-87035098D01*
X139900548Y-87039879D01*
X139925052Y-87039879D01*
X139949085Y-87035099D01*
X139971724Y-87025721D01*
X139992098Y-87012108D01*
X140009425Y-86994781D01*
X140023039Y-86974406D01*
X140027133Y-86966747D01*
X140038002Y-86953502D01*
X140051245Y-86942634D01*
X140066357Y-86934557D01*
X140082749Y-86929584D01*
X140105941Y-86927300D01*
X140519659Y-86927300D01*
X140542851Y-86929584D01*
X140559243Y-86934557D01*
X140574355Y-86942634D01*
X140587598Y-86953502D01*
X140598467Y-86966747D01*
X140602561Y-86974406D01*
X140616174Y-86994780D01*
X140633501Y-87012107D01*
X140653876Y-87025721D01*
X140676514Y-87035098D01*
X140700548Y-87039879D01*
X140725052Y-87039879D01*
X140749085Y-87035099D01*
X140771724Y-87025721D01*
X140792098Y-87012108D01*
X140809425Y-86994781D01*
X140823039Y-86974406D01*
X140827133Y-86966747D01*
X140838002Y-86953502D01*
X140851245Y-86942634D01*
X140866357Y-86934557D01*
X140882749Y-86929584D01*
X140905941Y-86927300D01*
X141319659Y-86927300D01*
X141342851Y-86929584D01*
X141359243Y-86934557D01*
X141374355Y-86942634D01*
X141387598Y-86953502D01*
X141398467Y-86966747D01*
X141402561Y-86974406D01*
X141416174Y-86994780D01*
X141433501Y-87012107D01*
X141453876Y-87025721D01*
X141476514Y-87035098D01*
X141500548Y-87039879D01*
X141525052Y-87039879D01*
X141549085Y-87035099D01*
X141571724Y-87025721D01*
X141592098Y-87012108D01*
X141609425Y-86994781D01*
X141623039Y-86974406D01*
X141627133Y-86966747D01*
X141638002Y-86953502D01*
X141651245Y-86942634D01*
X141666357Y-86934557D01*
X141682749Y-86929584D01*
X141705941Y-86927300D01*
X142119659Y-86927300D01*
X142142851Y-86929584D01*
X142159243Y-86934557D01*
X142174355Y-86942634D01*
X142187598Y-86953502D01*
X142198467Y-86966747D01*
X142202561Y-86974406D01*
X142216174Y-86994780D01*
X142233501Y-87012107D01*
X142253876Y-87025721D01*
X142276514Y-87035098D01*
X142300548Y-87039879D01*
X142325052Y-87039879D01*
X142349085Y-87035099D01*
X142371724Y-87025721D01*
X142392098Y-87012108D01*
X142409425Y-86994781D01*
X142423039Y-86974406D01*
X142427133Y-86966747D01*
X142438002Y-86953502D01*
X142451245Y-86942634D01*
X142466357Y-86934557D01*
X142482749Y-86929584D01*
X142505941Y-86927300D01*
X142919659Y-86927300D01*
X142942851Y-86929584D01*
X142959243Y-86934557D01*
X142974355Y-86942634D01*
X142987598Y-86953502D01*
X142998467Y-86966747D01*
X143002561Y-86974406D01*
X143016174Y-86994780D01*
X143033501Y-87012107D01*
X143053876Y-87025721D01*
X143076514Y-87035098D01*
X143100548Y-87039879D01*
X143125052Y-87039879D01*
X143149085Y-87035099D01*
X143171724Y-87025721D01*
X143192098Y-87012108D01*
X143209425Y-86994781D01*
X143223039Y-86974406D01*
X143227133Y-86966747D01*
X143238002Y-86953502D01*
X143251245Y-86942634D01*
X143266357Y-86934557D01*
X143282749Y-86929584D01*
X143305941Y-86927300D01*
X143719659Y-86927300D01*
X143742851Y-86929584D01*
X143759243Y-86934557D01*
X143774355Y-86942634D01*
X143787598Y-86953502D01*
X143798467Y-86966747D01*
X143802561Y-86974406D01*
X143816174Y-86994780D01*
X143833501Y-87012107D01*
X143853876Y-87025721D01*
X143876514Y-87035098D01*
X143900548Y-87039879D01*
X143925052Y-87039879D01*
X143949085Y-87035099D01*
X143971724Y-87025721D01*
X143992098Y-87012108D01*
X144009425Y-86994781D01*
X144023039Y-86974406D01*
X144027133Y-86966747D01*
X144038002Y-86953502D01*
X144051245Y-86942634D01*
X144066357Y-86934557D01*
X144082749Y-86929584D01*
X144105941Y-86927300D01*
X144519659Y-86927300D01*
X144542851Y-86929584D01*
X144559243Y-86934557D01*
X144574355Y-86942634D01*
X144587598Y-86953502D01*
X144598466Y-86966745D01*
X144606543Y-86981857D01*
X144611516Y-86998249D01*
X144613800Y-87021441D01*
X144613800Y-88435159D01*
X144611516Y-88458351D01*
X144606543Y-88474743D01*
X144598466Y-88489855D01*
X144587598Y-88503098D01*
X144574355Y-88513966D01*
X144559243Y-88522043D01*
X144542851Y-88527016D01*
X144519659Y-88529300D01*
X144105941Y-88529300D01*
X144082749Y-88527016D01*
X144066357Y-88522043D01*
X144051245Y-88513966D01*
X144038002Y-88503098D01*
X144027133Y-88489853D01*
X144023039Y-88482194D01*
X144009426Y-88461820D01*
X143992099Y-88444493D01*
X143971724Y-88430879D01*
X143949086Y-88421502D01*
X143925052Y-88416721D01*
X143900548Y-88416721D01*
X143876515Y-88421501D01*
X143853876Y-88430879D01*
X143833502Y-88444492D01*
X143816175Y-88461819D01*
X143802561Y-88482194D01*
X143798467Y-88489853D01*
X143787598Y-88503098D01*
X143774355Y-88513966D01*
X143759243Y-88522043D01*
X143742851Y-88527016D01*
X143719659Y-88529300D01*
X143305941Y-88529300D01*
X143282749Y-88527016D01*
X143266357Y-88522043D01*
X143251245Y-88513966D01*
X143238002Y-88503098D01*
X143227133Y-88489853D01*
X143223039Y-88482194D01*
X143209426Y-88461820D01*
X143192099Y-88444493D01*
X143171724Y-88430879D01*
X143149086Y-88421502D01*
X143125052Y-88416721D01*
X143100548Y-88416721D01*
X143076515Y-88421501D01*
X143053876Y-88430879D01*
X143033502Y-88444492D01*
X143016175Y-88461819D01*
X143002561Y-88482194D01*
X142998467Y-88489853D01*
X142987598Y-88503098D01*
X142974355Y-88513966D01*
X142959243Y-88522043D01*
X142942851Y-88527016D01*
X142919659Y-88529300D01*
X142505941Y-88529300D01*
X142482749Y-88527016D01*
X142466357Y-88522043D01*
X142451245Y-88513966D01*
X142438002Y-88503098D01*
X142427133Y-88489853D01*
X142423039Y-88482194D01*
X142409426Y-88461820D01*
X142392099Y-88444493D01*
X142371724Y-88430879D01*
X142349086Y-88421502D01*
X142325052Y-88416721D01*
X142300548Y-88416721D01*
X142276515Y-88421501D01*
X142253876Y-88430879D01*
X142233502Y-88444492D01*
X142216175Y-88461819D01*
X142202561Y-88482194D01*
X142198467Y-88489853D01*
X142187598Y-88503098D01*
X142174355Y-88513966D01*
X142159243Y-88522043D01*
X142142851Y-88527016D01*
X142119659Y-88529300D01*
X141705941Y-88529300D01*
X141682749Y-88527016D01*
X141666357Y-88522043D01*
X141651245Y-88513966D01*
X141638002Y-88503098D01*
X141627133Y-88489853D01*
X141623039Y-88482194D01*
X141609426Y-88461820D01*
X141592099Y-88444493D01*
X141571724Y-88430879D01*
X141549086Y-88421502D01*
X141525052Y-88416721D01*
X141500548Y-88416721D01*
X141476515Y-88421501D01*
X141453876Y-88430879D01*
X141433502Y-88444492D01*
X141416175Y-88461819D01*
X141402561Y-88482194D01*
X141398467Y-88489853D01*
X141387598Y-88503098D01*
X141374355Y-88513966D01*
X141359243Y-88522043D01*
X141342851Y-88527016D01*
X141319659Y-88529300D01*
X140905941Y-88529300D01*
X140882749Y-88527016D01*
X140866357Y-88522043D01*
X140851245Y-88513966D01*
X140838002Y-88503098D01*
X140827133Y-88489853D01*
X140823039Y-88482194D01*
X140809426Y-88461820D01*
X140792099Y-88444493D01*
X140771724Y-88430879D01*
X140749086Y-88421502D01*
X140725052Y-88416721D01*
X140700548Y-88416721D01*
X140676515Y-88421501D01*
X140653876Y-88430879D01*
X140633502Y-88444492D01*
X140616175Y-88461819D01*
X140602561Y-88482194D01*
X140598467Y-88489853D01*
X140587598Y-88503098D01*
X140574355Y-88513966D01*
X140559243Y-88522043D01*
X140542851Y-88527016D01*
X140519659Y-88529300D01*
X140105941Y-88529300D01*
X140082749Y-88527016D01*
X140066357Y-88522043D01*
X140051245Y-88513966D01*
X140038002Y-88503098D01*
X140027133Y-88489853D01*
X140023039Y-88482194D01*
X140009426Y-88461820D01*
X139992099Y-88444493D01*
X139971724Y-88430879D01*
X139949086Y-88421502D01*
X139925052Y-88416721D01*
X139900548Y-88416721D01*
X139876515Y-88421501D01*
X139853876Y-88430879D01*
X139833502Y-88444492D01*
X139816175Y-88461819D01*
X139802561Y-88482194D01*
X139798467Y-88489853D01*
X139787598Y-88503098D01*
X139774355Y-88513966D01*
X139759243Y-88522043D01*
X139742851Y-88527016D01*
X139719659Y-88529300D01*
X139305941Y-88529300D01*
X139282749Y-88527016D01*
X139266357Y-88522043D01*
X139251245Y-88513966D01*
X139238002Y-88503098D01*
X139227133Y-88489853D01*
X139223039Y-88482194D01*
X139209426Y-88461820D01*
X139192099Y-88444493D01*
X139171724Y-88430879D01*
X139149086Y-88421502D01*
X139125052Y-88416721D01*
X139100548Y-88416721D01*
X139076515Y-88421501D01*
X139053876Y-88430879D01*
X139033502Y-88444492D01*
X139016175Y-88461819D01*
X139002561Y-88482194D01*
X138998467Y-88489853D01*
X138987598Y-88503098D01*
X138974355Y-88513966D01*
X138959243Y-88522043D01*
X138942851Y-88527016D01*
X138919659Y-88529300D01*
X138505941Y-88529300D01*
X138482749Y-88527016D01*
X138466357Y-88522043D01*
X138451245Y-88513966D01*
X138438002Y-88503098D01*
X138427134Y-88489855D01*
X138419057Y-88474743D01*
X138414084Y-88458351D01*
X138411800Y-88435159D01*
X138411800Y-87021441D01*
X138414084Y-86998249D01*
X138419057Y-86981857D01*
X138427134Y-86966745D01*
X138438002Y-86953502D01*
X138451245Y-86942634D01*
X138466357Y-86934557D01*
X138482749Y-86929584D01*
X138505941Y-86927300D01*
X138919659Y-86927300D01*
X138942851Y-86929584D01*
G37*
G36*
X151649891Y-86815985D02*
G01*
X151683869Y-86826293D01*
X151715190Y-86843034D01*
X151742639Y-86865561D01*
X151765166Y-86893010D01*
X151781907Y-86924331D01*
X151792215Y-86958309D01*
X151796300Y-86999790D01*
X151796300Y-87676010D01*
X151792215Y-87717491D01*
X151781907Y-87751469D01*
X151765166Y-87782790D01*
X151742639Y-87810239D01*
X151715190Y-87832766D01*
X151683869Y-87849507D01*
X151649891Y-87859815D01*
X151608410Y-87863900D01*
X151007190Y-87863900D01*
X150965709Y-87859815D01*
X150931731Y-87849507D01*
X150900410Y-87832766D01*
X150872961Y-87810239D01*
X150850434Y-87782790D01*
X150833693Y-87751469D01*
X150823385Y-87717491D01*
X150819300Y-87676010D01*
X150819300Y-86999790D01*
X150823385Y-86958309D01*
X150833693Y-86924331D01*
X150850434Y-86893010D01*
X150872961Y-86865561D01*
X150900410Y-86843034D01*
X150931731Y-86826293D01*
X150965709Y-86815985D01*
X151007190Y-86811900D01*
X151608410Y-86811900D01*
X151649891Y-86815985D01*
G37*
G36*
X153224891Y-86815985D02*
G01*
X153258869Y-86826293D01*
X153290190Y-86843034D01*
X153317639Y-86865561D01*
X153340166Y-86893010D01*
X153356907Y-86924331D01*
X153367215Y-86958309D01*
X153371300Y-86999790D01*
X153371300Y-87676010D01*
X153367215Y-87717491D01*
X153356907Y-87751469D01*
X153340166Y-87782790D01*
X153317639Y-87810239D01*
X153290190Y-87832766D01*
X153258869Y-87849507D01*
X153224891Y-87859815D01*
X153183410Y-87863900D01*
X152582190Y-87863900D01*
X152540709Y-87859815D01*
X152506731Y-87849507D01*
X152475410Y-87832766D01*
X152447961Y-87810239D01*
X152425434Y-87782790D01*
X152408693Y-87751469D01*
X152398385Y-87717491D01*
X152394300Y-87676010D01*
X152394300Y-86999790D01*
X152398385Y-86958309D01*
X152408693Y-86924331D01*
X152425434Y-86893010D01*
X152447961Y-86865561D01*
X152475410Y-86843034D01*
X152506731Y-86826293D01*
X152540709Y-86815985D01*
X152582190Y-86811900D01*
X153183410Y-86811900D01*
X153224891Y-86815985D01*
G37*
G36*
X135939391Y-86319985D02*
G01*
X135973369Y-86330293D01*
X136004690Y-86347034D01*
X136032139Y-86369561D01*
X136054666Y-86397010D01*
X136071407Y-86428331D01*
X136081715Y-86462309D01*
X136085800Y-86503790D01*
X136085800Y-87105010D01*
X136081715Y-87146491D01*
X136071407Y-87180469D01*
X136054666Y-87211790D01*
X136032139Y-87239239D01*
X136004690Y-87261766D01*
X135973369Y-87278507D01*
X135939391Y-87288815D01*
X135897910Y-87292900D01*
X135221690Y-87292900D01*
X135180209Y-87288815D01*
X135146231Y-87278507D01*
X135114910Y-87261766D01*
X135087461Y-87239239D01*
X135064934Y-87211790D01*
X135048193Y-87180469D01*
X135037885Y-87146491D01*
X135033800Y-87105010D01*
X135033800Y-86503790D01*
X135037885Y-86462309D01*
X135048193Y-86428331D01*
X135064934Y-86397010D01*
X135087461Y-86369561D01*
X135114910Y-86347034D01*
X135146231Y-86330293D01*
X135180209Y-86319985D01*
X135221690Y-86315900D01*
X135897910Y-86315900D01*
X135939391Y-86319985D01*
G37*
G36*
X146417851Y-80454584D02*
G01*
X146434243Y-80459557D01*
X146449355Y-80467634D01*
X146462598Y-80478502D01*
X146473466Y-80491745D01*
X146481543Y-80506857D01*
X146486516Y-80523249D01*
X146488800Y-80546441D01*
X146488800Y-80960159D01*
X146486516Y-80983351D01*
X146481543Y-80999743D01*
X146473466Y-81014855D01*
X146462598Y-81028098D01*
X146449353Y-81038967D01*
X146441694Y-81043061D01*
X146421320Y-81056674D01*
X146403993Y-81074001D01*
X146390379Y-81094376D01*
X146381002Y-81117014D01*
X146376221Y-81141048D01*
X146376221Y-81165552D01*
X146381001Y-81189585D01*
X146390379Y-81212224D01*
X146403992Y-81232598D01*
X146421319Y-81249925D01*
X146441694Y-81263539D01*
X146449353Y-81267633D01*
X146462598Y-81278502D01*
X146473466Y-81291745D01*
X146481543Y-81306857D01*
X146486516Y-81323249D01*
X146488800Y-81346441D01*
X146488800Y-81760159D01*
X146486516Y-81783351D01*
X146481543Y-81799743D01*
X146473466Y-81814855D01*
X146462598Y-81828098D01*
X146449353Y-81838967D01*
X146441694Y-81843061D01*
X146421320Y-81856674D01*
X146403993Y-81874001D01*
X146390379Y-81894376D01*
X146381002Y-81917014D01*
X146376221Y-81941048D01*
X146376221Y-81965552D01*
X146381001Y-81989585D01*
X146390379Y-82012224D01*
X146403992Y-82032598D01*
X146421319Y-82049925D01*
X146441694Y-82063539D01*
X146449353Y-82067633D01*
X146462598Y-82078502D01*
X146473466Y-82091745D01*
X146481543Y-82106857D01*
X146486516Y-82123249D01*
X146488800Y-82146441D01*
X146488800Y-82560159D01*
X146486516Y-82583351D01*
X146481543Y-82599743D01*
X146473466Y-82614855D01*
X146462598Y-82628098D01*
X146449353Y-82638967D01*
X146441694Y-82643061D01*
X146421320Y-82656674D01*
X146403993Y-82674001D01*
X146390379Y-82694376D01*
X146381002Y-82717014D01*
X146376221Y-82741048D01*
X146376221Y-82765552D01*
X146381001Y-82789585D01*
X146390379Y-82812224D01*
X146403992Y-82832598D01*
X146421319Y-82849925D01*
X146441694Y-82863539D01*
X146449353Y-82867633D01*
X146462598Y-82878502D01*
X146473466Y-82891745D01*
X146481543Y-82906857D01*
X146486516Y-82923249D01*
X146488800Y-82946441D01*
X146488800Y-83360159D01*
X146486516Y-83383351D01*
X146481543Y-83399743D01*
X146473466Y-83414855D01*
X146462598Y-83428098D01*
X146449353Y-83438967D01*
X146441694Y-83443061D01*
X146421320Y-83456674D01*
X146403993Y-83474001D01*
X146390379Y-83494376D01*
X146381002Y-83517014D01*
X146376221Y-83541048D01*
X146376221Y-83565552D01*
X146381001Y-83589585D01*
X146390379Y-83612224D01*
X146403992Y-83632598D01*
X146421319Y-83649925D01*
X146441694Y-83663539D01*
X146449353Y-83667633D01*
X146462598Y-83678502D01*
X146473466Y-83691745D01*
X146481543Y-83706857D01*
X146486516Y-83723249D01*
X146488800Y-83746441D01*
X146488800Y-84160159D01*
X146486516Y-84183351D01*
X146481543Y-84199743D01*
X146473466Y-84214855D01*
X146462598Y-84228098D01*
X146449353Y-84238967D01*
X146441694Y-84243061D01*
X146421320Y-84256674D01*
X146403993Y-84274001D01*
X146390379Y-84294376D01*
X146381002Y-84317014D01*
X146376221Y-84341048D01*
X146376221Y-84365552D01*
X146381001Y-84389585D01*
X146390379Y-84412224D01*
X146403992Y-84432598D01*
X146421319Y-84449925D01*
X146441694Y-84463539D01*
X146449353Y-84467633D01*
X146462598Y-84478502D01*
X146473466Y-84491745D01*
X146481543Y-84506857D01*
X146486516Y-84523249D01*
X146488800Y-84546441D01*
X146488800Y-84960159D01*
X146486516Y-84983351D01*
X146481543Y-84999743D01*
X146473466Y-85014855D01*
X146462598Y-85028098D01*
X146449353Y-85038967D01*
X146441694Y-85043061D01*
X146421320Y-85056674D01*
X146403993Y-85074001D01*
X146390379Y-85094376D01*
X146381002Y-85117014D01*
X146376221Y-85141048D01*
X146376221Y-85165552D01*
X146381001Y-85189585D01*
X146390379Y-85212224D01*
X146403992Y-85232598D01*
X146421319Y-85249925D01*
X146441694Y-85263539D01*
X146449353Y-85267633D01*
X146462598Y-85278502D01*
X146473466Y-85291745D01*
X146481543Y-85306857D01*
X146486516Y-85323249D01*
X146488800Y-85346441D01*
X146488800Y-85760159D01*
X146486516Y-85783351D01*
X146481543Y-85799743D01*
X146473466Y-85814855D01*
X146462598Y-85828098D01*
X146449353Y-85838967D01*
X146441694Y-85843061D01*
X146421320Y-85856674D01*
X146403993Y-85874001D01*
X146390379Y-85894376D01*
X146381002Y-85917014D01*
X146376221Y-85941048D01*
X146376221Y-85965552D01*
X146381001Y-85989585D01*
X146390379Y-86012224D01*
X146403992Y-86032598D01*
X146421319Y-86049925D01*
X146441694Y-86063539D01*
X146449353Y-86067633D01*
X146462598Y-86078502D01*
X146473466Y-86091745D01*
X146481543Y-86106857D01*
X146486516Y-86123249D01*
X146488800Y-86146441D01*
X146488800Y-86560159D01*
X146486516Y-86583351D01*
X146481543Y-86599743D01*
X146473466Y-86614855D01*
X146462598Y-86628098D01*
X146449355Y-86638966D01*
X146434243Y-86647043D01*
X146417851Y-86652016D01*
X146394659Y-86654300D01*
X144980941Y-86654300D01*
X144957749Y-86652016D01*
X144941357Y-86647043D01*
X144926245Y-86638966D01*
X144913002Y-86628098D01*
X144902134Y-86614855D01*
X144894057Y-86599743D01*
X144889084Y-86583351D01*
X144886800Y-86560159D01*
X144886800Y-86146441D01*
X144889084Y-86123249D01*
X144894057Y-86106857D01*
X144902134Y-86091745D01*
X144913002Y-86078502D01*
X144926247Y-86067633D01*
X144933906Y-86063539D01*
X144954280Y-86049926D01*
X144971607Y-86032599D01*
X144985221Y-86012224D01*
X144994598Y-85989586D01*
X144999379Y-85965552D01*
X144999379Y-85941048D01*
X144994599Y-85917015D01*
X144985221Y-85894376D01*
X144971608Y-85874002D01*
X144954281Y-85856675D01*
X144933906Y-85843061D01*
X144926247Y-85838967D01*
X144913002Y-85828098D01*
X144902134Y-85814855D01*
X144894057Y-85799743D01*
X144889084Y-85783351D01*
X144886800Y-85760159D01*
X144886800Y-85346441D01*
X144889084Y-85323249D01*
X144894057Y-85306857D01*
X144902134Y-85291745D01*
X144913002Y-85278502D01*
X144926247Y-85267633D01*
X144933906Y-85263539D01*
X144954280Y-85249926D01*
X144971607Y-85232599D01*
X144985221Y-85212224D01*
X144994598Y-85189586D01*
X144999379Y-85165552D01*
X144999379Y-85141048D01*
X144994599Y-85117015D01*
X144985221Y-85094376D01*
X144971608Y-85074002D01*
X144954281Y-85056675D01*
X144933906Y-85043061D01*
X144926247Y-85038967D01*
X144913002Y-85028098D01*
X144902134Y-85014855D01*
X144894057Y-84999743D01*
X144889084Y-84983351D01*
X144886800Y-84960159D01*
X144886800Y-84546441D01*
X144889084Y-84523249D01*
X144894057Y-84506857D01*
X144902134Y-84491745D01*
X144913002Y-84478502D01*
X144926247Y-84467633D01*
X144933906Y-84463539D01*
X144954280Y-84449926D01*
X144971607Y-84432599D01*
X144985221Y-84412224D01*
X144994598Y-84389586D01*
X144999379Y-84365552D01*
X144999379Y-84341048D01*
X144994599Y-84317015D01*
X144985221Y-84294376D01*
X144971608Y-84274002D01*
X144954281Y-84256675D01*
X144933906Y-84243061D01*
X144926247Y-84238967D01*
X144913002Y-84228098D01*
X144902134Y-84214855D01*
X144894057Y-84199743D01*
X144889084Y-84183351D01*
X144886800Y-84160159D01*
X144886800Y-83746441D01*
X144889084Y-83723249D01*
X144894057Y-83706857D01*
X144902134Y-83691745D01*
X144913002Y-83678502D01*
X144926247Y-83667633D01*
X144933906Y-83663539D01*
X144954280Y-83649926D01*
X144971607Y-83632599D01*
X144985221Y-83612224D01*
X144994598Y-83589586D01*
X144999379Y-83565552D01*
X144999379Y-83541048D01*
X144994599Y-83517015D01*
X144985221Y-83494376D01*
X144971608Y-83474002D01*
X144954281Y-83456675D01*
X144933906Y-83443061D01*
X144926247Y-83438967D01*
X144913002Y-83428098D01*
X144902134Y-83414855D01*
X144894057Y-83399743D01*
X144889084Y-83383351D01*
X144886800Y-83360159D01*
X144886800Y-82946441D01*
X144889084Y-82923249D01*
X144894057Y-82906857D01*
X144902134Y-82891745D01*
X144913002Y-82878502D01*
X144926247Y-82867633D01*
X144933906Y-82863539D01*
X144954280Y-82849926D01*
X144971607Y-82832599D01*
X144985221Y-82812224D01*
X144994598Y-82789586D01*
X144999379Y-82765552D01*
X144999379Y-82741048D01*
X144994599Y-82717015D01*
X144985221Y-82694376D01*
X144971608Y-82674002D01*
X144954281Y-82656675D01*
X144933906Y-82643061D01*
X144926247Y-82638967D01*
X144913002Y-82628098D01*
X144902134Y-82614855D01*
X144894057Y-82599743D01*
X144889084Y-82583351D01*
X144886800Y-82560159D01*
X144886800Y-82146441D01*
X144889084Y-82123249D01*
X144894057Y-82106857D01*
X144902134Y-82091745D01*
X144913002Y-82078502D01*
X144926247Y-82067633D01*
X144933906Y-82063539D01*
X144954280Y-82049926D01*
X144971607Y-82032599D01*
X144985221Y-82012224D01*
X144994598Y-81989586D01*
X144999379Y-81965552D01*
X144999379Y-81941048D01*
X144994599Y-81917015D01*
X144985221Y-81894376D01*
X144971608Y-81874002D01*
X144954281Y-81856675D01*
X144933906Y-81843061D01*
X144926247Y-81838967D01*
X144913002Y-81828098D01*
X144902134Y-81814855D01*
X144894057Y-81799743D01*
X144889084Y-81783351D01*
X144886800Y-81760159D01*
X144886800Y-81346441D01*
X144889084Y-81323249D01*
X144894057Y-81306857D01*
X144902134Y-81291745D01*
X144913002Y-81278502D01*
X144926247Y-81267633D01*
X144933906Y-81263539D01*
X144954280Y-81249926D01*
X144971607Y-81232599D01*
X144985221Y-81212224D01*
X144994598Y-81189586D01*
X144999379Y-81165552D01*
X144999379Y-81141048D01*
X144994599Y-81117015D01*
X144985221Y-81094376D01*
X144971608Y-81074002D01*
X144954281Y-81056675D01*
X144933906Y-81043061D01*
X144926247Y-81038967D01*
X144913002Y-81028098D01*
X144902134Y-81014855D01*
X144894057Y-80999743D01*
X144889084Y-80983351D01*
X144886800Y-80960159D01*
X144886800Y-80546441D01*
X144889084Y-80523249D01*
X144894057Y-80506857D01*
X144902134Y-80491745D01*
X144913002Y-80478502D01*
X144926245Y-80467634D01*
X144941357Y-80459557D01*
X144957749Y-80454584D01*
X144980941Y-80452300D01*
X146394659Y-80452300D01*
X146417851Y-80454584D01*
G37*
G36*
X138067851Y-80454584D02*
G01*
X138084243Y-80459557D01*
X138099355Y-80467634D01*
X138112598Y-80478502D01*
X138123466Y-80491745D01*
X138131543Y-80506857D01*
X138136516Y-80523249D01*
X138138800Y-80546441D01*
X138138800Y-80960159D01*
X138136516Y-80983351D01*
X138131543Y-80999743D01*
X138123466Y-81014855D01*
X138112598Y-81028098D01*
X138099353Y-81038967D01*
X138091694Y-81043061D01*
X138071320Y-81056674D01*
X138053993Y-81074001D01*
X138040379Y-81094376D01*
X138031002Y-81117014D01*
X138026221Y-81141048D01*
X138026221Y-81165552D01*
X138031001Y-81189585D01*
X138040379Y-81212224D01*
X138053992Y-81232598D01*
X138071319Y-81249925D01*
X138091694Y-81263539D01*
X138099353Y-81267633D01*
X138112598Y-81278502D01*
X138123466Y-81291745D01*
X138131543Y-81306857D01*
X138136516Y-81323249D01*
X138138800Y-81346441D01*
X138138800Y-81760159D01*
X138136516Y-81783351D01*
X138131543Y-81799743D01*
X138123466Y-81814855D01*
X138112598Y-81828098D01*
X138099353Y-81838967D01*
X138091694Y-81843061D01*
X138071320Y-81856674D01*
X138053993Y-81874001D01*
X138040379Y-81894376D01*
X138031002Y-81917014D01*
X138026221Y-81941048D01*
X138026221Y-81965552D01*
X138031001Y-81989585D01*
X138040379Y-82012224D01*
X138053992Y-82032598D01*
X138071319Y-82049925D01*
X138091694Y-82063539D01*
X138099353Y-82067633D01*
X138112598Y-82078502D01*
X138123466Y-82091745D01*
X138131543Y-82106857D01*
X138136516Y-82123249D01*
X138138800Y-82146441D01*
X138138800Y-82560159D01*
X138136516Y-82583351D01*
X138131543Y-82599743D01*
X138123466Y-82614855D01*
X138112598Y-82628098D01*
X138099353Y-82638967D01*
X138091694Y-82643061D01*
X138071320Y-82656674D01*
X138053993Y-82674001D01*
X138040379Y-82694376D01*
X138031002Y-82717014D01*
X138026221Y-82741048D01*
X138026221Y-82765552D01*
X138031001Y-82789585D01*
X138040379Y-82812224D01*
X138053992Y-82832598D01*
X138071319Y-82849925D01*
X138091694Y-82863539D01*
X138099353Y-82867633D01*
X138112598Y-82878502D01*
X138123466Y-82891745D01*
X138131543Y-82906857D01*
X138136516Y-82923249D01*
X138138800Y-82946441D01*
X138138800Y-83360159D01*
X138136516Y-83383351D01*
X138131543Y-83399743D01*
X138123466Y-83414855D01*
X138112598Y-83428098D01*
X138099353Y-83438967D01*
X138091694Y-83443061D01*
X138071320Y-83456674D01*
X138053993Y-83474001D01*
X138040379Y-83494376D01*
X138031002Y-83517014D01*
X138026221Y-83541048D01*
X138026221Y-83565552D01*
X138031001Y-83589585D01*
X138040379Y-83612224D01*
X138053992Y-83632598D01*
X138071319Y-83649925D01*
X138091694Y-83663539D01*
X138099353Y-83667633D01*
X138112598Y-83678502D01*
X138123466Y-83691745D01*
X138131543Y-83706857D01*
X138136516Y-83723249D01*
X138138800Y-83746441D01*
X138138800Y-84160159D01*
X138136516Y-84183351D01*
X138131543Y-84199743D01*
X138123466Y-84214855D01*
X138112598Y-84228098D01*
X138099353Y-84238967D01*
X138091694Y-84243061D01*
X138071320Y-84256674D01*
X138053993Y-84274001D01*
X138040379Y-84294376D01*
X138031002Y-84317014D01*
X138026221Y-84341048D01*
X138026221Y-84365552D01*
X138031001Y-84389585D01*
X138040379Y-84412224D01*
X138053992Y-84432598D01*
X138071319Y-84449925D01*
X138091694Y-84463539D01*
X138099353Y-84467633D01*
X138112598Y-84478502D01*
X138123466Y-84491745D01*
X138131543Y-84506857D01*
X138136516Y-84523249D01*
X138138800Y-84546441D01*
X138138800Y-84960159D01*
X138136516Y-84983351D01*
X138131543Y-84999743D01*
X138123466Y-85014855D01*
X138112598Y-85028098D01*
X138099353Y-85038967D01*
X138091694Y-85043061D01*
X138071320Y-85056674D01*
X138053993Y-85074001D01*
X138040379Y-85094376D01*
X138031002Y-85117014D01*
X138026221Y-85141048D01*
X138026221Y-85165552D01*
X138031001Y-85189585D01*
X138040379Y-85212224D01*
X138053992Y-85232598D01*
X138071319Y-85249925D01*
X138091694Y-85263539D01*
X138099353Y-85267633D01*
X138112598Y-85278502D01*
X138123466Y-85291745D01*
X138131543Y-85306857D01*
X138136516Y-85323249D01*
X138138800Y-85346441D01*
X138138800Y-85760159D01*
X138136516Y-85783351D01*
X138131543Y-85799743D01*
X138123466Y-85814855D01*
X138112598Y-85828098D01*
X138099353Y-85838967D01*
X138091694Y-85843061D01*
X138071320Y-85856674D01*
X138053993Y-85874001D01*
X138040379Y-85894376D01*
X138031002Y-85917014D01*
X138026221Y-85941048D01*
X138026221Y-85965552D01*
X138031001Y-85989585D01*
X138040379Y-86012224D01*
X138053992Y-86032598D01*
X138071319Y-86049925D01*
X138091694Y-86063539D01*
X138099353Y-86067633D01*
X138112598Y-86078502D01*
X138123466Y-86091745D01*
X138131543Y-86106857D01*
X138136516Y-86123249D01*
X138138800Y-86146441D01*
X138138800Y-86560159D01*
X138136516Y-86583351D01*
X138131543Y-86599743D01*
X138123466Y-86614855D01*
X138112598Y-86628098D01*
X138099355Y-86638966D01*
X138084243Y-86647043D01*
X138067851Y-86652016D01*
X138044659Y-86654300D01*
X136630941Y-86654300D01*
X136607749Y-86652016D01*
X136591357Y-86647043D01*
X136576245Y-86638966D01*
X136563002Y-86628098D01*
X136552134Y-86614855D01*
X136544057Y-86599743D01*
X136539084Y-86583351D01*
X136536800Y-86560159D01*
X136536800Y-86146441D01*
X136539084Y-86123249D01*
X136544057Y-86106857D01*
X136552134Y-86091745D01*
X136563002Y-86078502D01*
X136576247Y-86067633D01*
X136583906Y-86063539D01*
X136604280Y-86049926D01*
X136621607Y-86032599D01*
X136635221Y-86012224D01*
X136644598Y-85989586D01*
X136649379Y-85965552D01*
X136649379Y-85941048D01*
X136644599Y-85917015D01*
X136635221Y-85894376D01*
X136621608Y-85874002D01*
X136604281Y-85856675D01*
X136583906Y-85843061D01*
X136576247Y-85838967D01*
X136563002Y-85828098D01*
X136552134Y-85814855D01*
X136544057Y-85799743D01*
X136539084Y-85783351D01*
X136536800Y-85760159D01*
X136536800Y-85346441D01*
X136539084Y-85323249D01*
X136544057Y-85306857D01*
X136552134Y-85291745D01*
X136563002Y-85278502D01*
X136576247Y-85267633D01*
X136583906Y-85263539D01*
X136604280Y-85249926D01*
X136621607Y-85232599D01*
X136635221Y-85212224D01*
X136644598Y-85189586D01*
X136649379Y-85165552D01*
X136649379Y-85141048D01*
X136644599Y-85117015D01*
X136635221Y-85094376D01*
X136621608Y-85074002D01*
X136604281Y-85056675D01*
X136583906Y-85043061D01*
X136576247Y-85038967D01*
X136563002Y-85028098D01*
X136552134Y-85014855D01*
X136544057Y-84999743D01*
X136539084Y-84983351D01*
X136536800Y-84960159D01*
X136536800Y-84546441D01*
X136539084Y-84523249D01*
X136544057Y-84506857D01*
X136552134Y-84491745D01*
X136563002Y-84478502D01*
X136576247Y-84467633D01*
X136583906Y-84463539D01*
X136604280Y-84449926D01*
X136621607Y-84432599D01*
X136635221Y-84412224D01*
X136644598Y-84389586D01*
X136649379Y-84365552D01*
X136649379Y-84341048D01*
X136644599Y-84317015D01*
X136635221Y-84294376D01*
X136621608Y-84274002D01*
X136604281Y-84256675D01*
X136583906Y-84243061D01*
X136576247Y-84238967D01*
X136563002Y-84228098D01*
X136552134Y-84214855D01*
X136544057Y-84199743D01*
X136539084Y-84183351D01*
X136536800Y-84160159D01*
X136536800Y-83746441D01*
X136539084Y-83723249D01*
X136544057Y-83706857D01*
X136552134Y-83691745D01*
X136563002Y-83678502D01*
X136576247Y-83667633D01*
X136583906Y-83663539D01*
X136604280Y-83649926D01*
X136621607Y-83632599D01*
X136635221Y-83612224D01*
X136644598Y-83589586D01*
X136649379Y-83565552D01*
X136649379Y-83541048D01*
X136644599Y-83517015D01*
X136635221Y-83494376D01*
X136621608Y-83474002D01*
X136604281Y-83456675D01*
X136583906Y-83443061D01*
X136576247Y-83438967D01*
X136563002Y-83428098D01*
X136552134Y-83414855D01*
X136544057Y-83399743D01*
X136539084Y-83383351D01*
X136536800Y-83360159D01*
X136536800Y-82946441D01*
X136539084Y-82923249D01*
X136544057Y-82906857D01*
X136552134Y-82891745D01*
X136563002Y-82878502D01*
X136576247Y-82867633D01*
X136583906Y-82863539D01*
X136604280Y-82849926D01*
X136621607Y-82832599D01*
X136635221Y-82812224D01*
X136644598Y-82789586D01*
X136649379Y-82765552D01*
X136649379Y-82741048D01*
X136644599Y-82717015D01*
X136635221Y-82694376D01*
X136621608Y-82674002D01*
X136604281Y-82656675D01*
X136583906Y-82643061D01*
X136576247Y-82638967D01*
X136563002Y-82628098D01*
X136552134Y-82614855D01*
X136544057Y-82599743D01*
X136539084Y-82583351D01*
X136536800Y-82560159D01*
X136536800Y-82146441D01*
X136539084Y-82123249D01*
X136544057Y-82106857D01*
X136552134Y-82091745D01*
X136563002Y-82078502D01*
X136576247Y-82067633D01*
X136583906Y-82063539D01*
X136604280Y-82049926D01*
X136621607Y-82032599D01*
X136635221Y-82012224D01*
X136644598Y-81989586D01*
X136649379Y-81965552D01*
X136649379Y-81941048D01*
X136644599Y-81917015D01*
X136635221Y-81894376D01*
X136621608Y-81874002D01*
X136604281Y-81856675D01*
X136583906Y-81843061D01*
X136576247Y-81838967D01*
X136563002Y-81828098D01*
X136552134Y-81814855D01*
X136544057Y-81799743D01*
X136539084Y-81783351D01*
X136536800Y-81760159D01*
X136536800Y-81346441D01*
X136539084Y-81323249D01*
X136544057Y-81306857D01*
X136552134Y-81291745D01*
X136563002Y-81278502D01*
X136576247Y-81267633D01*
X136583906Y-81263539D01*
X136604280Y-81249926D01*
X136621607Y-81232599D01*
X136635221Y-81212224D01*
X136644598Y-81189586D01*
X136649379Y-81165552D01*
X136649379Y-81141048D01*
X136644599Y-81117015D01*
X136635221Y-81094376D01*
X136621608Y-81074002D01*
X136604281Y-81056675D01*
X136583906Y-81043061D01*
X136576247Y-81038967D01*
X136563002Y-81028098D01*
X136552134Y-81014855D01*
X136544057Y-80999743D01*
X136539084Y-80983351D01*
X136536800Y-80960159D01*
X136536800Y-80546441D01*
X136539084Y-80523249D01*
X136544057Y-80506857D01*
X136552134Y-80491745D01*
X136563002Y-80478502D01*
X136576245Y-80467634D01*
X136591357Y-80459557D01*
X136607749Y-80454584D01*
X136630941Y-80452300D01*
X138044659Y-80452300D01*
X138067851Y-80454584D01*
G37*
G36*
X150834800Y-86256900D02*
G01*
X148732800Y-86256900D01*
X148732800Y-84354900D01*
X150834800Y-84354900D01*
X150834800Y-86256900D01*
G37*
G36*
X154834800Y-86256900D02*
G01*
X152732800Y-86256900D01*
X152732800Y-84354900D01*
X154834800Y-84354900D01*
X154834800Y-86256900D01*
G37*
G36*
X148029791Y-83297485D02*
G01*
X148063769Y-83307793D01*
X148095090Y-83324534D01*
X148122539Y-83347061D01*
X148145066Y-83374510D01*
X148161807Y-83405831D01*
X148172115Y-83439809D01*
X148176200Y-83481290D01*
X148176200Y-84082510D01*
X148172115Y-84123991D01*
X148161807Y-84157969D01*
X148145066Y-84189290D01*
X148122539Y-84216739D01*
X148095090Y-84239266D01*
X148063769Y-84256007D01*
X148029791Y-84266315D01*
X147988310Y-84270400D01*
X147312090Y-84270400D01*
X147270609Y-84266315D01*
X147236631Y-84256007D01*
X147205310Y-84239266D01*
X147177861Y-84216739D01*
X147155334Y-84189290D01*
X147138593Y-84157969D01*
X147128285Y-84123991D01*
X147124200Y-84082510D01*
X147124200Y-83481290D01*
X147128285Y-83439809D01*
X147138593Y-83405831D01*
X147155334Y-83374510D01*
X147177861Y-83347061D01*
X147205310Y-83324534D01*
X147236631Y-83307793D01*
X147270609Y-83297485D01*
X147312090Y-83293400D01*
X147988310Y-83293400D01*
X148029791Y-83297485D01*
G37*
G36*
X148029791Y-81722485D02*
G01*
X148063769Y-81732793D01*
X148095090Y-81749534D01*
X148122539Y-81772061D01*
X148145066Y-81799510D01*
X148161807Y-81830831D01*
X148172115Y-81864809D01*
X148176200Y-81906290D01*
X148176200Y-82507510D01*
X148172115Y-82548991D01*
X148161807Y-82582969D01*
X148145066Y-82614290D01*
X148122539Y-82641739D01*
X148095090Y-82664266D01*
X148063769Y-82681007D01*
X148029791Y-82691315D01*
X147988310Y-82695400D01*
X147312090Y-82695400D01*
X147270609Y-82691315D01*
X147236631Y-82681007D01*
X147205310Y-82664266D01*
X147177861Y-82641739D01*
X147155334Y-82614290D01*
X147138593Y-82582969D01*
X147128285Y-82548991D01*
X147124200Y-82507510D01*
X147124200Y-81906290D01*
X147128285Y-81864809D01*
X147138593Y-81830831D01*
X147155334Y-81799510D01*
X147177861Y-81772061D01*
X147205310Y-81749534D01*
X147236631Y-81732793D01*
X147270609Y-81722485D01*
X147312090Y-81718400D01*
X147988310Y-81718400D01*
X148029791Y-81722485D01*
G37*
G36*
X150834800Y-81176900D02*
G01*
X148732800Y-81176900D01*
X148732800Y-79274900D01*
X150834800Y-79274900D01*
X150834800Y-81176900D01*
G37*
G36*
X154834800Y-81176900D02*
G01*
X152732800Y-81176900D01*
X152732800Y-79274900D01*
X154834800Y-79274900D01*
X154834800Y-81176900D01*
G37*
G36*
X138942851Y-78579584D02*
G01*
X138959243Y-78584557D01*
X138974355Y-78592634D01*
X138987598Y-78603502D01*
X138998467Y-78616747D01*
X139002561Y-78624406D01*
X139016174Y-78644780D01*
X139033501Y-78662107D01*
X139053876Y-78675721D01*
X139076514Y-78685098D01*
X139100548Y-78689879D01*
X139125052Y-78689879D01*
X139149085Y-78685099D01*
X139171724Y-78675721D01*
X139192098Y-78662108D01*
X139209425Y-78644781D01*
X139223039Y-78624406D01*
X139227133Y-78616747D01*
X139238002Y-78603502D01*
X139251245Y-78592634D01*
X139266357Y-78584557D01*
X139282749Y-78579584D01*
X139305941Y-78577300D01*
X139719659Y-78577300D01*
X139742851Y-78579584D01*
X139759243Y-78584557D01*
X139774355Y-78592634D01*
X139787598Y-78603502D01*
X139798467Y-78616747D01*
X139802561Y-78624406D01*
X139816174Y-78644780D01*
X139833501Y-78662107D01*
X139853876Y-78675721D01*
X139876514Y-78685098D01*
X139900548Y-78689879D01*
X139925052Y-78689879D01*
X139949085Y-78685099D01*
X139971724Y-78675721D01*
X139992098Y-78662108D01*
X140009425Y-78644781D01*
X140023039Y-78624406D01*
X140027133Y-78616747D01*
X140038002Y-78603502D01*
X140051245Y-78592634D01*
X140066357Y-78584557D01*
X140082749Y-78579584D01*
X140105941Y-78577300D01*
X140519659Y-78577300D01*
X140542851Y-78579584D01*
X140559243Y-78584557D01*
X140574355Y-78592634D01*
X140587598Y-78603502D01*
X140598467Y-78616747D01*
X140602561Y-78624406D01*
X140616174Y-78644780D01*
X140633501Y-78662107D01*
X140653876Y-78675721D01*
X140676514Y-78685098D01*
X140700548Y-78689879D01*
X140725052Y-78689879D01*
X140749085Y-78685099D01*
X140771724Y-78675721D01*
X140792098Y-78662108D01*
X140809425Y-78644781D01*
X140823039Y-78624406D01*
X140827133Y-78616747D01*
X140838002Y-78603502D01*
X140851245Y-78592634D01*
X140866357Y-78584557D01*
X140882749Y-78579584D01*
X140905941Y-78577300D01*
X141319659Y-78577300D01*
X141342851Y-78579584D01*
X141359243Y-78584557D01*
X141374355Y-78592634D01*
X141387598Y-78603502D01*
X141398467Y-78616747D01*
X141402561Y-78624406D01*
X141416174Y-78644780D01*
X141433501Y-78662107D01*
X141453876Y-78675721D01*
X141476514Y-78685098D01*
X141500548Y-78689879D01*
X141525052Y-78689879D01*
X141549085Y-78685099D01*
X141571724Y-78675721D01*
X141592098Y-78662108D01*
X141609425Y-78644781D01*
X141623039Y-78624406D01*
X141627133Y-78616747D01*
X141638002Y-78603502D01*
X141651245Y-78592634D01*
X141666357Y-78584557D01*
X141682749Y-78579584D01*
X141705941Y-78577300D01*
X142119659Y-78577300D01*
X142142851Y-78579584D01*
X142159243Y-78584557D01*
X142174355Y-78592634D01*
X142187598Y-78603502D01*
X142198467Y-78616747D01*
X142202561Y-78624406D01*
X142216174Y-78644780D01*
X142233501Y-78662107D01*
X142253876Y-78675721D01*
X142276514Y-78685098D01*
X142300548Y-78689879D01*
X142325052Y-78689879D01*
X142349085Y-78685099D01*
X142371724Y-78675721D01*
X142392098Y-78662108D01*
X142409425Y-78644781D01*
X142423039Y-78624406D01*
X142427133Y-78616747D01*
X142438002Y-78603502D01*
X142451245Y-78592634D01*
X142466357Y-78584557D01*
X142482749Y-78579584D01*
X142505941Y-78577300D01*
X142919659Y-78577300D01*
X142942851Y-78579584D01*
X142959243Y-78584557D01*
X142974355Y-78592634D01*
X142987598Y-78603502D01*
X142998467Y-78616747D01*
X143002561Y-78624406D01*
X143016174Y-78644780D01*
X143033501Y-78662107D01*
X143053876Y-78675721D01*
X143076514Y-78685098D01*
X143100548Y-78689879D01*
X143125052Y-78689879D01*
X143149085Y-78685099D01*
X143171724Y-78675721D01*
X143192098Y-78662108D01*
X143209425Y-78644781D01*
X143223039Y-78624406D01*
X143227133Y-78616747D01*
X143238002Y-78603502D01*
X143251245Y-78592634D01*
X143266357Y-78584557D01*
X143282749Y-78579584D01*
X143305941Y-78577300D01*
X143719659Y-78577300D01*
X143742851Y-78579584D01*
X143759243Y-78584557D01*
X143774355Y-78592634D01*
X143787598Y-78603502D01*
X143798467Y-78616747D01*
X143802561Y-78624406D01*
X143816174Y-78644780D01*
X143833501Y-78662107D01*
X143853876Y-78675721D01*
X143876514Y-78685098D01*
X143900548Y-78689879D01*
X143925052Y-78689879D01*
X143949085Y-78685099D01*
X143971724Y-78675721D01*
X143992098Y-78662108D01*
X144009425Y-78644781D01*
X144023039Y-78624406D01*
X144027133Y-78616747D01*
X144038002Y-78603502D01*
X144051245Y-78592634D01*
X144066357Y-78584557D01*
X144082749Y-78579584D01*
X144105941Y-78577300D01*
X144519659Y-78577300D01*
X144542851Y-78579584D01*
X144559243Y-78584557D01*
X144574355Y-78592634D01*
X144587598Y-78603502D01*
X144598466Y-78616745D01*
X144606543Y-78631857D01*
X144611516Y-78648249D01*
X144613800Y-78671441D01*
X144613800Y-80085159D01*
X144611516Y-80108351D01*
X144606543Y-80124743D01*
X144598466Y-80139855D01*
X144587598Y-80153098D01*
X144574355Y-80163966D01*
X144559243Y-80172043D01*
X144542851Y-80177016D01*
X144519659Y-80179300D01*
X144105941Y-80179300D01*
X144082749Y-80177016D01*
X144066357Y-80172043D01*
X144051245Y-80163966D01*
X144038002Y-80153098D01*
X144027133Y-80139853D01*
X144023039Y-80132194D01*
X144009426Y-80111820D01*
X143992099Y-80094493D01*
X143971724Y-80080879D01*
X143949086Y-80071502D01*
X143925052Y-80066721D01*
X143900548Y-80066721D01*
X143876515Y-80071501D01*
X143853876Y-80080879D01*
X143833502Y-80094492D01*
X143816175Y-80111819D01*
X143802561Y-80132194D01*
X143798467Y-80139853D01*
X143787598Y-80153098D01*
X143774355Y-80163966D01*
X143759243Y-80172043D01*
X143742851Y-80177016D01*
X143719659Y-80179300D01*
X143305941Y-80179300D01*
X143282749Y-80177016D01*
X143266357Y-80172043D01*
X143251245Y-80163966D01*
X143238002Y-80153098D01*
X143227133Y-80139853D01*
X143223039Y-80132194D01*
X143209426Y-80111820D01*
X143192099Y-80094493D01*
X143171724Y-80080879D01*
X143149086Y-80071502D01*
X143125052Y-80066721D01*
X143100548Y-80066721D01*
X143076515Y-80071501D01*
X143053876Y-80080879D01*
X143033502Y-80094492D01*
X143016175Y-80111819D01*
X143002561Y-80132194D01*
X142998467Y-80139853D01*
X142987598Y-80153098D01*
X142974355Y-80163966D01*
X142959243Y-80172043D01*
X142942851Y-80177016D01*
X142919659Y-80179300D01*
X142505941Y-80179300D01*
X142482749Y-80177016D01*
X142466357Y-80172043D01*
X142451245Y-80163966D01*
X142438002Y-80153098D01*
X142427133Y-80139853D01*
X142423039Y-80132194D01*
X142409426Y-80111820D01*
X142392099Y-80094493D01*
X142371724Y-80080879D01*
X142349086Y-80071502D01*
X142325052Y-80066721D01*
X142300548Y-80066721D01*
X142276515Y-80071501D01*
X142253876Y-80080879D01*
X142233502Y-80094492D01*
X142216175Y-80111819D01*
X142202561Y-80132194D01*
X142198467Y-80139853D01*
X142187598Y-80153098D01*
X142174355Y-80163966D01*
X142159243Y-80172043D01*
X142142851Y-80177016D01*
X142119659Y-80179300D01*
X141705941Y-80179300D01*
X141682749Y-80177016D01*
X141666357Y-80172043D01*
X141651245Y-80163966D01*
X141638002Y-80153098D01*
X141627133Y-80139853D01*
X141623039Y-80132194D01*
X141609426Y-80111820D01*
X141592099Y-80094493D01*
X141571724Y-80080879D01*
X141549086Y-80071502D01*
X141525052Y-80066721D01*
X141500548Y-80066721D01*
X141476515Y-80071501D01*
X141453876Y-80080879D01*
X141433502Y-80094492D01*
X141416175Y-80111819D01*
X141402561Y-80132194D01*
X141398467Y-80139853D01*
X141387598Y-80153098D01*
X141374355Y-80163966D01*
X141359243Y-80172043D01*
X141342851Y-80177016D01*
X141319659Y-80179300D01*
X140905941Y-80179300D01*
X140882749Y-80177016D01*
X140866357Y-80172043D01*
X140851245Y-80163966D01*
X140838002Y-80153098D01*
X140827133Y-80139853D01*
X140823039Y-80132194D01*
X140809426Y-80111820D01*
X140792099Y-80094493D01*
X140771724Y-80080879D01*
X140749086Y-80071502D01*
X140725052Y-80066721D01*
X140700548Y-80066721D01*
X140676515Y-80071501D01*
X140653876Y-80080879D01*
X140633502Y-80094492D01*
X140616175Y-80111819D01*
X140602561Y-80132194D01*
X140598467Y-80139853D01*
X140587598Y-80153098D01*
X140574355Y-80163966D01*
X140559243Y-80172043D01*
X140542851Y-80177016D01*
X140519659Y-80179300D01*
X140105941Y-80179300D01*
X140082749Y-80177016D01*
X140066357Y-80172043D01*
X140051245Y-80163966D01*
X140038002Y-80153098D01*
X140027133Y-80139853D01*
X140023039Y-80132194D01*
X140009426Y-80111820D01*
X139992099Y-80094493D01*
X139971724Y-80080879D01*
X139949086Y-80071502D01*
X139925052Y-80066721D01*
X139900548Y-80066721D01*
X139876515Y-80071501D01*
X139853876Y-80080879D01*
X139833502Y-80094492D01*
X139816175Y-80111819D01*
X139802561Y-80132194D01*
X139798467Y-80139853D01*
X139787598Y-80153098D01*
X139774355Y-80163966D01*
X139759243Y-80172043D01*
X139742851Y-80177016D01*
X139719659Y-80179300D01*
X139305941Y-80179300D01*
X139282749Y-80177016D01*
X139266357Y-80172043D01*
X139251245Y-80163966D01*
X139238002Y-80153098D01*
X139227133Y-80139853D01*
X139223039Y-80132194D01*
X139209426Y-80111820D01*
X139192099Y-80094493D01*
X139171724Y-80080879D01*
X139149086Y-80071502D01*
X139125052Y-80066721D01*
X139100548Y-80066721D01*
X139076515Y-80071501D01*
X139053876Y-80080879D01*
X139033502Y-80094492D01*
X139016175Y-80111819D01*
X139002561Y-80132194D01*
X138998467Y-80139853D01*
X138987598Y-80153098D01*
X138974355Y-80163966D01*
X138959243Y-80172043D01*
X138942851Y-80177016D01*
X138919659Y-80179300D01*
X138505941Y-80179300D01*
X138482749Y-80177016D01*
X138466357Y-80172043D01*
X138451245Y-80163966D01*
X138438002Y-80153098D01*
X138427134Y-80139855D01*
X138419057Y-80124743D01*
X138414084Y-80108351D01*
X138411800Y-80085159D01*
X138411800Y-78671441D01*
X138414084Y-78648249D01*
X138419057Y-78631857D01*
X138427134Y-78616745D01*
X138438002Y-78603502D01*
X138451245Y-78592634D01*
X138466357Y-78584557D01*
X138482749Y-78579584D01*
X138505941Y-78577300D01*
X138919659Y-78577300D01*
X138942851Y-78579584D01*
G37*
G36*
X146950058Y-78724308D02*
G01*
X146984036Y-78734616D01*
X147015357Y-78751357D01*
X147047571Y-78777795D01*
X147087422Y-78817646D01*
X147087428Y-78817651D01*
X147432849Y-79163072D01*
X147432854Y-79163078D01*
X147472705Y-79202929D01*
X147499143Y-79235143D01*
X147515884Y-79266464D01*
X147526192Y-79300442D01*
X147529672Y-79335783D01*
X147526192Y-79371124D01*
X147515884Y-79405102D01*
X147499143Y-79436423D01*
X147472705Y-79468637D01*
X147432854Y-79508488D01*
X147432849Y-79508494D01*
X147034394Y-79906949D01*
X147034388Y-79906954D01*
X146994537Y-79946805D01*
X146962323Y-79973243D01*
X146931002Y-79989984D01*
X146897024Y-80000292D01*
X146861683Y-80003772D01*
X146826342Y-80000292D01*
X146792364Y-79989984D01*
X146761043Y-79973243D01*
X146728829Y-79946805D01*
X146688978Y-79906954D01*
X146688972Y-79906949D01*
X146343551Y-79561528D01*
X146343546Y-79561522D01*
X146303695Y-79521671D01*
X146277257Y-79489457D01*
X146260516Y-79458136D01*
X146250208Y-79424158D01*
X146246728Y-79388817D01*
X146250208Y-79353476D01*
X146260516Y-79319498D01*
X146277257Y-79288177D01*
X146303695Y-79255963D01*
X146343546Y-79216112D01*
X146343551Y-79216106D01*
X146742006Y-78817651D01*
X146742012Y-78817646D01*
X146781863Y-78777795D01*
X146814077Y-78751357D01*
X146845398Y-78734616D01*
X146879376Y-78724308D01*
X146914717Y-78720828D01*
X146950058Y-78724308D01*
G37*
G36*
X145836364Y-77610614D02*
G01*
X145870342Y-77620922D01*
X145901663Y-77637663D01*
X145933877Y-77664101D01*
X145973728Y-77703952D01*
X145973734Y-77703957D01*
X146319155Y-78049378D01*
X146319160Y-78049384D01*
X146359011Y-78089235D01*
X146385449Y-78121449D01*
X146402190Y-78152770D01*
X146412498Y-78186748D01*
X146415978Y-78222089D01*
X146412498Y-78257430D01*
X146402190Y-78291408D01*
X146385449Y-78322729D01*
X146359011Y-78354943D01*
X146319160Y-78394794D01*
X146319155Y-78394800D01*
X145920700Y-78793255D01*
X145920694Y-78793260D01*
X145880843Y-78833111D01*
X145848629Y-78859549D01*
X145817308Y-78876290D01*
X145783330Y-78886598D01*
X145747989Y-78890078D01*
X145712648Y-78886598D01*
X145678670Y-78876290D01*
X145647349Y-78859549D01*
X145615135Y-78833111D01*
X145575284Y-78793260D01*
X145575278Y-78793255D01*
X145229857Y-78447834D01*
X145229852Y-78447828D01*
X145190001Y-78407977D01*
X145163563Y-78375763D01*
X145146822Y-78344442D01*
X145136514Y-78310464D01*
X145133034Y-78275123D01*
X145136514Y-78239782D01*
X145146822Y-78205804D01*
X145163563Y-78174483D01*
X145190001Y-78142269D01*
X145229852Y-78102418D01*
X145229857Y-78102412D01*
X145628312Y-77703957D01*
X145628318Y-77703952D01*
X145668169Y-77664101D01*
X145700383Y-77637663D01*
X145731704Y-77620922D01*
X145765682Y-77610614D01*
X145801023Y-77607134D01*
X145836364Y-77610614D01*
G37*
G36*
X132393121Y-68100974D02*
G01*
X132493395Y-68142509D01*
X132493396Y-68142510D01*
X132583642Y-68202810D01*
X132660390Y-68279558D01*
X132660391Y-68279560D01*
X132720691Y-68369805D01*
X132762226Y-68470079D01*
X132783400Y-68576530D01*
X132783400Y-68685070D01*
X132762226Y-68791521D01*
X132720691Y-68891795D01*
X132720690Y-68891796D01*
X132660390Y-68982042D01*
X132583642Y-69058790D01*
X132538212Y-69089145D01*
X132493395Y-69119091D01*
X132418011Y-69150316D01*
X132396400Y-69161867D01*
X132377459Y-69177412D01*
X132361913Y-69196354D01*
X132350362Y-69217965D01*
X132343249Y-69241414D01*
X132340847Y-69265800D01*
X132343249Y-69290186D01*
X132350362Y-69313635D01*
X132361913Y-69335246D01*
X132377458Y-69354187D01*
X132396400Y-69369733D01*
X132418011Y-69381284D01*
X132493395Y-69412509D01*
X132493396Y-69412510D01*
X132583642Y-69472810D01*
X132660390Y-69549558D01*
X132660391Y-69549560D01*
X132720691Y-69639805D01*
X132762226Y-69740079D01*
X132783400Y-69846530D01*
X132783400Y-69955070D01*
X132762226Y-70061521D01*
X132720691Y-70161795D01*
X132720690Y-70161796D01*
X132660390Y-70252042D01*
X132583642Y-70328790D01*
X132538212Y-70359145D01*
X132493395Y-70389091D01*
X132418011Y-70420316D01*
X132396400Y-70431867D01*
X132377459Y-70447412D01*
X132361913Y-70466354D01*
X132350362Y-70487965D01*
X132343249Y-70511414D01*
X132340847Y-70535800D01*
X132343249Y-70560186D01*
X132350362Y-70583635D01*
X132361913Y-70605246D01*
X132377458Y-70624187D01*
X132396400Y-70639733D01*
X132418011Y-70651284D01*
X132493395Y-70682509D01*
X132493396Y-70682510D01*
X132583642Y-70742810D01*
X132660390Y-70819558D01*
X132660391Y-70819560D01*
X132720691Y-70909805D01*
X132762226Y-71010079D01*
X132783400Y-71116530D01*
X132783400Y-71225070D01*
X132762226Y-71331521D01*
X132720691Y-71431795D01*
X132720690Y-71431796D01*
X132660390Y-71522042D01*
X132583642Y-71598790D01*
X132552216Y-71619788D01*
X132490736Y-71660868D01*
X132471794Y-71676414D01*
X132456249Y-71695356D01*
X132444698Y-71716967D01*
X132437585Y-71740415D01*
X132435183Y-71764802D01*
X132437585Y-71789188D01*
X132444698Y-71812637D01*
X132456249Y-71834247D01*
X132471795Y-71853189D01*
X132490737Y-71868734D01*
X132512348Y-71880285D01*
X132535796Y-71887398D01*
X132560182Y-71889800D01*
X132783400Y-71889800D01*
X132783400Y-72991800D01*
X131681400Y-72991800D01*
X131681400Y-71889800D01*
X131904618Y-71889800D01*
X131929004Y-71887398D01*
X131952453Y-71880285D01*
X131974064Y-71868734D01*
X131993006Y-71853189D01*
X132008551Y-71834247D01*
X132020102Y-71812636D01*
X132027215Y-71789187D01*
X132029617Y-71764801D01*
X132027215Y-71740415D01*
X132020102Y-71716966D01*
X132008551Y-71695355D01*
X131993006Y-71676413D01*
X131974064Y-71660868D01*
X131912584Y-71619788D01*
X131881158Y-71598790D01*
X131804410Y-71522042D01*
X131744110Y-71431796D01*
X131744109Y-71431795D01*
X131702574Y-71331521D01*
X131681400Y-71225070D01*
X131681400Y-71116530D01*
X131702574Y-71010079D01*
X131744109Y-70909805D01*
X131804409Y-70819560D01*
X131804410Y-70819558D01*
X131881158Y-70742810D01*
X131971404Y-70682510D01*
X131971405Y-70682509D01*
X132046789Y-70651284D01*
X132068400Y-70639733D01*
X132087341Y-70624188D01*
X132102887Y-70605246D01*
X132114438Y-70583635D01*
X132121551Y-70560186D01*
X132123953Y-70535800D01*
X132121551Y-70511414D01*
X132114438Y-70487965D01*
X132102887Y-70466354D01*
X132087342Y-70447413D01*
X132068400Y-70431867D01*
X132046789Y-70420316D01*
X131971405Y-70389091D01*
X131926588Y-70359145D01*
X131881158Y-70328790D01*
X131804410Y-70252042D01*
X131744110Y-70161796D01*
X131744109Y-70161795D01*
X131702574Y-70061521D01*
X131681400Y-69955070D01*
X131681400Y-69846530D01*
X131702574Y-69740079D01*
X131744109Y-69639805D01*
X131804409Y-69549560D01*
X131804410Y-69549558D01*
X131881158Y-69472810D01*
X131971404Y-69412510D01*
X131971405Y-69412509D01*
X132046789Y-69381284D01*
X132068400Y-69369733D01*
X132087341Y-69354188D01*
X132102887Y-69335246D01*
X132114438Y-69313635D01*
X132121551Y-69290186D01*
X132123953Y-69265800D01*
X132121551Y-69241414D01*
X132114438Y-69217965D01*
X132102887Y-69196354D01*
X132087342Y-69177413D01*
X132068400Y-69161867D01*
X132046789Y-69150316D01*
X131971405Y-69119091D01*
X131926588Y-69089145D01*
X131881158Y-69058790D01*
X131804410Y-68982042D01*
X131744110Y-68891796D01*
X131744109Y-68891795D01*
X131702574Y-68791521D01*
X131681400Y-68685070D01*
X131681400Y-68576530D01*
X131702574Y-68470079D01*
X131744109Y-68369805D01*
X131804409Y-68279560D01*
X131804410Y-68279558D01*
X131881158Y-68202810D01*
X131971404Y-68142510D01*
X131971405Y-68142509D01*
X132071679Y-68100974D01*
X132178130Y-68079800D01*
X132286670Y-68079800D01*
X132393121Y-68100974D01*
G37*
G36*
X122855749Y-57443516D02*
G01*
X122966934Y-57465632D01*
X123176403Y-57552397D01*
X123364920Y-57678360D01*
X123525240Y-57838680D01*
X123651203Y-58027197D01*
X123737968Y-58236666D01*
X123782200Y-58459036D01*
X123782200Y-58685764D01*
X123737968Y-58908134D01*
X123699870Y-59000110D01*
X123655641Y-59106890D01*
X123651203Y-59117603D01*
X123525240Y-59306120D01*
X123364920Y-59466440D01*
X123176403Y-59592403D01*
X122966934Y-59679168D01*
X122855749Y-59701284D01*
X122744565Y-59723400D01*
X122517835Y-59723400D01*
X122406651Y-59701284D01*
X122295466Y-59679168D01*
X122085997Y-59592403D01*
X121897480Y-59466440D01*
X121737160Y-59306120D01*
X121611197Y-59117603D01*
X121606760Y-59106890D01*
X121562530Y-59000110D01*
X121524432Y-58908134D01*
X121480200Y-58685764D01*
X121480200Y-58459036D01*
X121524432Y-58236666D01*
X121611197Y-58027197D01*
X121737160Y-57838680D01*
X121897480Y-57678360D01*
X122085997Y-57552397D01*
X122295466Y-57465632D01*
X122406651Y-57443516D01*
X122517835Y-57421400D01*
X122744565Y-57421400D01*
X122855749Y-57443516D01*
G37*
G36*
X125906391Y-58215085D02*
G01*
X125940369Y-58225393D01*
X125971690Y-58242134D01*
X125999139Y-58264661D01*
X126021666Y-58292110D01*
X126038407Y-58323431D01*
X126048715Y-58357409D01*
X126052800Y-58398890D01*
X126052800Y-59000110D01*
X126048715Y-59041591D01*
X126038407Y-59075569D01*
X126021666Y-59106890D01*
X125999139Y-59134339D01*
X125971690Y-59156866D01*
X125940369Y-59173607D01*
X125906391Y-59183915D01*
X125864910Y-59188000D01*
X125188690Y-59188000D01*
X125147209Y-59183915D01*
X125113231Y-59173607D01*
X125081910Y-59156866D01*
X125054461Y-59134339D01*
X125031934Y-59106890D01*
X125015193Y-59075569D01*
X125004885Y-59041591D01*
X125000800Y-59000110D01*
X125000800Y-58398890D01*
X125004885Y-58357409D01*
X125015193Y-58323431D01*
X125031934Y-58292110D01*
X125054461Y-58264661D01*
X125081910Y-58242134D01*
X125113231Y-58225393D01*
X125147209Y-58215085D01*
X125188690Y-58211000D01*
X125864910Y-58211000D01*
X125906391Y-58215085D01*
G37*
G36*
X120244712Y-56426327D02*
G01*
X120394012Y-56456024D01*
X120557984Y-56523944D01*
X120705554Y-56622547D01*
X120831053Y-56748046D01*
X120929656Y-56895616D01*
X120997576Y-57059588D01*
X121027273Y-57208888D01*
X121032200Y-57233658D01*
X121032200Y-57411142D01*
X121027273Y-57435912D01*
X120997576Y-57585212D01*
X120929656Y-57749184D01*
X120831053Y-57896754D01*
X120705554Y-58022253D01*
X120557984Y-58120856D01*
X120394012Y-58188776D01*
X120244712Y-58218473D01*
X120219942Y-58223400D01*
X120042458Y-58223400D01*
X120017688Y-58218473D01*
X119868388Y-58188776D01*
X119704416Y-58120856D01*
X119556846Y-58022253D01*
X119431347Y-57896754D01*
X119332744Y-57749184D01*
X119264824Y-57585212D01*
X119235127Y-57435912D01*
X119230200Y-57411142D01*
X119230200Y-57233658D01*
X119235127Y-57208888D01*
X119264824Y-57059588D01*
X119332744Y-56895616D01*
X119431347Y-56748046D01*
X119556846Y-56622547D01*
X119704416Y-56523944D01*
X119868388Y-56456024D01*
X120017688Y-56426327D01*
X120042458Y-56421400D01*
X120219942Y-56421400D01*
X120244712Y-56426327D01*
G37*
G36*
X125906391Y-56640085D02*
G01*
X125940369Y-56650393D01*
X125971690Y-56667134D01*
X125999139Y-56689661D01*
X126021666Y-56717110D01*
X126038407Y-56748431D01*
X126048715Y-56782409D01*
X126052800Y-56823890D01*
X126052800Y-57425110D01*
X126048715Y-57466591D01*
X126038407Y-57500569D01*
X126021666Y-57531890D01*
X125999139Y-57559339D01*
X125971690Y-57581866D01*
X125940369Y-57598607D01*
X125906391Y-57608915D01*
X125864910Y-57613000D01*
X125188690Y-57613000D01*
X125147209Y-57608915D01*
X125113231Y-57598607D01*
X125081910Y-57581866D01*
X125054461Y-57559339D01*
X125031934Y-57531890D01*
X125015193Y-57500569D01*
X125004885Y-57466591D01*
X125000800Y-57425110D01*
X125000800Y-56823890D01*
X125004885Y-56782409D01*
X125015193Y-56748431D01*
X125031934Y-56717110D01*
X125054461Y-56689661D01*
X125081910Y-56667134D01*
X125113231Y-56650393D01*
X125147209Y-56640085D01*
X125188690Y-56636000D01*
X125864910Y-56636000D01*
X125906391Y-56640085D01*
G37*
G36*
X120244712Y-51926327D02*
G01*
X120394012Y-51956024D01*
X120557984Y-52023944D01*
X120705554Y-52122547D01*
X120831053Y-52248046D01*
X120929656Y-52395616D01*
X120997576Y-52559588D01*
X121021361Y-52679168D01*
X121030160Y-52723400D01*
X121032200Y-52733659D01*
X121032200Y-52911141D01*
X120997576Y-53085212D01*
X120929656Y-53249184D01*
X120831053Y-53396754D01*
X120705554Y-53522253D01*
X120557984Y-53620856D01*
X120394012Y-53688776D01*
X120244712Y-53718473D01*
X120219942Y-53723400D01*
X120042458Y-53723400D01*
X120017688Y-53718473D01*
X119868388Y-53688776D01*
X119704416Y-53620856D01*
X119556846Y-53522253D01*
X119431347Y-53396754D01*
X119332744Y-53249184D01*
X119264824Y-53085212D01*
X119230200Y-52911141D01*
X119230200Y-52733659D01*
X119232241Y-52723400D01*
X119241039Y-52679168D01*
X119264824Y-52559588D01*
X119332744Y-52395616D01*
X119431347Y-52248046D01*
X119556846Y-52122547D01*
X119704416Y-52023944D01*
X119868388Y-51956024D01*
X120017688Y-51926327D01*
X120042458Y-51921400D01*
X120219942Y-51921400D01*
X120244712Y-51926327D01*
G37*
G36*
X122855749Y-50443516D02*
G01*
X122966934Y-50465632D01*
X123176403Y-50552397D01*
X123364920Y-50678360D01*
X123525240Y-50838680D01*
X123651203Y-51027197D01*
X123651204Y-51027199D01*
X123667984Y-51067709D01*
X123737968Y-51236666D01*
X123782200Y-51459036D01*
X123782200Y-51685764D01*
X123737968Y-51908134D01*
X123651203Y-52117603D01*
X123525240Y-52306120D01*
X123364920Y-52466440D01*
X123176403Y-52592403D01*
X122966934Y-52679168D01*
X122855749Y-52701284D01*
X122744565Y-52723400D01*
X122517835Y-52723400D01*
X122406651Y-52701284D01*
X122295466Y-52679168D01*
X122085997Y-52592403D01*
X121897480Y-52466440D01*
X121737160Y-52306120D01*
X121611197Y-52117603D01*
X121524432Y-51908134D01*
X121480200Y-51685764D01*
X121480200Y-51459036D01*
X121524432Y-51236666D01*
X121594416Y-51067709D01*
X121611196Y-51027199D01*
X121611197Y-51027197D01*
X121737160Y-50838680D01*
X121897480Y-50678360D01*
X122085997Y-50552397D01*
X122295466Y-50465632D01*
X122406651Y-50443516D01*
X122517835Y-50421400D01*
X122744565Y-50421400D01*
X122855749Y-50443516D01*
G37*
G36*
X150899991Y-50925385D02*
G01*
X150933969Y-50935693D01*
X150965290Y-50952434D01*
X150992739Y-50974961D01*
X151015266Y-51002410D01*
X151032007Y-51033731D01*
X151042315Y-51067709D01*
X151046400Y-51109190D01*
X151046400Y-51710410D01*
X151042315Y-51751891D01*
X151032007Y-51785869D01*
X151015266Y-51817190D01*
X150992739Y-51844639D01*
X150965290Y-51867166D01*
X150933969Y-51883907D01*
X150899991Y-51894215D01*
X150858510Y-51898300D01*
X150182290Y-51898300D01*
X150140809Y-51894215D01*
X150106831Y-51883907D01*
X150075510Y-51867166D01*
X150048061Y-51844639D01*
X150025534Y-51817190D01*
X150008793Y-51785869D01*
X149998485Y-51751891D01*
X149994400Y-51710410D01*
X149994400Y-51109190D01*
X149998485Y-51067709D01*
X150008793Y-51033731D01*
X150025534Y-51002410D01*
X150048061Y-50974961D01*
X150075510Y-50952434D01*
X150106831Y-50935693D01*
X150140809Y-50925385D01*
X150182290Y-50921300D01*
X150858510Y-50921300D01*
X150899991Y-50925385D01*
G37*
G36*
X150899991Y-49350385D02*
G01*
X150933969Y-49360693D01*
X150965290Y-49377434D01*
X150992739Y-49399961D01*
X151015266Y-49427410D01*
X151032007Y-49458731D01*
X151042315Y-49492709D01*
X151046400Y-49534190D01*
X151046400Y-50135410D01*
X151042315Y-50176891D01*
X151032007Y-50210869D01*
X151015266Y-50242190D01*
X150992739Y-50269639D01*
X150965290Y-50292166D01*
X150933969Y-50308907D01*
X150899991Y-50319215D01*
X150858510Y-50323300D01*
X150182290Y-50323300D01*
X150140809Y-50319215D01*
X150106831Y-50308907D01*
X150075510Y-50292166D01*
X150048061Y-50269639D01*
X150025534Y-50242190D01*
X150008793Y-50210869D01*
X149998485Y-50176891D01*
X149994400Y-50135410D01*
X149994400Y-49534190D01*
X149998485Y-49492709D01*
X150008793Y-49458731D01*
X150025534Y-49427410D01*
X150048061Y-49399961D01*
X150075510Y-49377434D01*
X150106831Y-49360693D01*
X150140809Y-49350385D01*
X150182290Y-49346300D01*
X150858510Y-49346300D01*
X150899991Y-49350385D01*
G37*
G36*
X122957349Y-47577916D02*
G01*
X123068534Y-47600032D01*
X123278003Y-47686797D01*
X123466520Y-47812760D01*
X123626840Y-47973080D01*
X123752803Y-48161597D01*
X123839568Y-48371066D01*
X123883800Y-48593436D01*
X123883800Y-48820164D01*
X123839568Y-49042534D01*
X123752803Y-49252003D01*
X123626840Y-49440520D01*
X123466520Y-49600840D01*
X123278003Y-49726803D01*
X123068534Y-49813568D01*
X122957349Y-49835684D01*
X122846165Y-49857800D01*
X122619435Y-49857800D01*
X122508251Y-49835684D01*
X122397066Y-49813568D01*
X122187597Y-49726803D01*
X121999080Y-49600840D01*
X121838760Y-49440520D01*
X121712797Y-49252003D01*
X121626032Y-49042534D01*
X121581800Y-48820164D01*
X121581800Y-48593436D01*
X121626032Y-48371066D01*
X121712797Y-48161597D01*
X121838760Y-47973080D01*
X121999080Y-47812760D01*
X122187597Y-47686797D01*
X122397066Y-47600032D01*
X122508251Y-47577916D01*
X122619435Y-47555800D01*
X122846165Y-47555800D01*
X122957349Y-47577916D01*
G37*
G36*
X163509400Y-49107800D02*
G01*
X161407400Y-49107800D01*
X161407400Y-47005800D01*
X163509400Y-47005800D01*
X163509400Y-49107800D01*
G37*
G36*
X125906391Y-47699485D02*
G01*
X125940369Y-47709793D01*
X125971690Y-47726534D01*
X125999139Y-47749061D01*
X126021666Y-47776510D01*
X126038407Y-47807831D01*
X126048715Y-47841809D01*
X126052800Y-47883290D01*
X126052800Y-48484510D01*
X126048715Y-48525991D01*
X126038407Y-48559969D01*
X126021666Y-48591290D01*
X125999139Y-48618739D01*
X125971690Y-48641266D01*
X125940369Y-48658007D01*
X125906391Y-48668315D01*
X125864910Y-48672400D01*
X125188690Y-48672400D01*
X125147209Y-48668315D01*
X125113231Y-48658007D01*
X125081910Y-48641266D01*
X125054461Y-48618739D01*
X125031934Y-48591290D01*
X125015193Y-48559969D01*
X125004885Y-48525991D01*
X125000800Y-48484510D01*
X125000800Y-47883290D01*
X125004885Y-47841809D01*
X125015193Y-47807831D01*
X125031934Y-47776510D01*
X125054461Y-47749061D01*
X125081910Y-47726534D01*
X125113231Y-47709793D01*
X125147209Y-47699485D01*
X125188690Y-47695400D01*
X125864910Y-47695400D01*
X125906391Y-47699485D01*
G37*
G36*
X120346312Y-46560727D02*
G01*
X120495612Y-46590424D01*
X120659584Y-46658344D01*
X120807154Y-46756947D01*
X120932653Y-46882446D01*
X121031256Y-47030016D01*
X121099176Y-47193988D01*
X121128873Y-47343288D01*
X121133800Y-47368058D01*
X121133800Y-47545542D01*
X121128873Y-47570312D01*
X121099176Y-47719612D01*
X121031256Y-47883584D01*
X120932653Y-48031154D01*
X120807154Y-48156653D01*
X120659584Y-48255256D01*
X120495612Y-48323176D01*
X120346312Y-48352873D01*
X120321542Y-48357800D01*
X120144058Y-48357800D01*
X120119288Y-48352873D01*
X119969988Y-48323176D01*
X119806016Y-48255256D01*
X119658446Y-48156653D01*
X119532947Y-48031154D01*
X119434344Y-47883584D01*
X119366424Y-47719612D01*
X119336727Y-47570312D01*
X119331800Y-47545542D01*
X119331800Y-47368058D01*
X119336727Y-47343288D01*
X119366424Y-47193988D01*
X119434344Y-47030016D01*
X119532947Y-46882446D01*
X119658446Y-46756947D01*
X119806016Y-46658344D01*
X119969988Y-46590424D01*
X120119288Y-46560727D01*
X120144058Y-46555800D01*
X120321542Y-46555800D01*
X120346312Y-46560727D01*
G37*
G36*
X149989800Y-47763000D02*
G01*
X139087800Y-47763000D01*
X139087800Y-46361000D01*
X149989800Y-46361000D01*
X149989800Y-47763000D01*
G37*
G36*
X125906391Y-46124485D02*
G01*
X125940369Y-46134793D01*
X125971690Y-46151534D01*
X125999139Y-46174061D01*
X126021666Y-46201510D01*
X126038407Y-46232831D01*
X126048715Y-46266809D01*
X126052800Y-46308290D01*
X126052800Y-46909510D01*
X126048715Y-46950991D01*
X126038407Y-46984969D01*
X126021666Y-47016290D01*
X125999139Y-47043739D01*
X125971690Y-47066266D01*
X125940369Y-47083007D01*
X125906391Y-47093315D01*
X125864910Y-47097400D01*
X125188690Y-47097400D01*
X125147209Y-47093315D01*
X125113231Y-47083007D01*
X125081910Y-47066266D01*
X125054461Y-47043739D01*
X125031934Y-47016290D01*
X125015193Y-46984969D01*
X125004885Y-46950991D01*
X125000800Y-46909510D01*
X125000800Y-46308290D01*
X125004885Y-46266809D01*
X125015193Y-46232831D01*
X125031934Y-46201510D01*
X125054461Y-46174061D01*
X125081910Y-46151534D01*
X125113231Y-46134793D01*
X125147209Y-46124485D01*
X125188690Y-46120400D01*
X125864910Y-46120400D01*
X125906391Y-46124485D01*
G37*
G36*
X159902600Y-46313800D02*
G01*
X157800600Y-46313800D01*
X157800600Y-44211800D01*
X159902600Y-44211800D01*
X159902600Y-46313800D01*
G37*
G36*
X162114591Y-44182085D02*
G01*
X162148569Y-44192393D01*
X162179890Y-44209134D01*
X162207339Y-44231661D01*
X162229866Y-44259110D01*
X162246607Y-44290431D01*
X162256915Y-44324409D01*
X162261000Y-44365890D01*
X162261000Y-45042110D01*
X162256915Y-45083591D01*
X162246607Y-45117569D01*
X162229866Y-45148890D01*
X162207339Y-45176339D01*
X162179890Y-45198866D01*
X162148569Y-45215607D01*
X162114591Y-45225915D01*
X162073110Y-45230000D01*
X161471890Y-45230000D01*
X161430409Y-45225915D01*
X161396431Y-45215607D01*
X161365110Y-45198866D01*
X161337661Y-45176339D01*
X161315134Y-45148890D01*
X161298393Y-45117569D01*
X161288085Y-45083591D01*
X161284000Y-45042110D01*
X161284000Y-44365890D01*
X161288085Y-44324409D01*
X161298393Y-44290431D01*
X161315134Y-44259110D01*
X161337661Y-44231661D01*
X161365110Y-44209134D01*
X161396431Y-44192393D01*
X161430409Y-44182085D01*
X161471890Y-44178000D01*
X162073110Y-44178000D01*
X162114591Y-44182085D01*
G37*
G36*
X163689591Y-44182085D02*
G01*
X163723569Y-44192393D01*
X163754890Y-44209134D01*
X163782339Y-44231661D01*
X163804866Y-44259110D01*
X163821607Y-44290431D01*
X163831915Y-44324409D01*
X163836000Y-44365890D01*
X163836000Y-45042110D01*
X163831915Y-45083591D01*
X163821607Y-45117569D01*
X163804866Y-45148890D01*
X163782339Y-45176339D01*
X163754890Y-45198866D01*
X163723569Y-45215607D01*
X163689591Y-45225915D01*
X163648110Y-45230000D01*
X163046890Y-45230000D01*
X163005409Y-45225915D01*
X162971431Y-45215607D01*
X162940110Y-45198866D01*
X162912661Y-45176339D01*
X162890134Y-45148890D01*
X162873393Y-45117569D01*
X162863085Y-45083591D01*
X162859000Y-45042110D01*
X162859000Y-44365890D01*
X162863085Y-44324409D01*
X162873393Y-44290431D01*
X162890134Y-44259110D01*
X162912661Y-44231661D01*
X162940110Y-44209134D01*
X162971431Y-44192393D01*
X163005409Y-44182085D01*
X163046890Y-44178000D01*
X163648110Y-44178000D01*
X163689591Y-44182085D01*
G37*
G36*
X138339800Y-44963000D02*
G01*
X136437800Y-44963000D01*
X136437800Y-42661000D01*
X138339800Y-42661000D01*
X138339800Y-44963000D01*
G37*
G36*
X152639800Y-44963000D02*
G01*
X150737800Y-44963000D01*
X150737800Y-42661000D01*
X152639800Y-42661000D01*
X152639800Y-44963000D01*
G37*
G36*
X120346312Y-42060727D02*
G01*
X120495612Y-42090424D01*
X120659584Y-42158344D01*
X120807154Y-42256947D01*
X120932653Y-42382446D01*
X121031256Y-42530016D01*
X121099176Y-42693988D01*
X121122961Y-42813568D01*
X121131760Y-42857800D01*
X121133800Y-42868059D01*
X121133800Y-43045541D01*
X121099176Y-43219612D01*
X121031256Y-43383584D01*
X120932653Y-43531154D01*
X120807154Y-43656653D01*
X120659584Y-43755256D01*
X120495612Y-43823176D01*
X120346312Y-43852873D01*
X120321542Y-43857800D01*
X120144058Y-43857800D01*
X120119288Y-43852873D01*
X119969988Y-43823176D01*
X119806016Y-43755256D01*
X119658446Y-43656653D01*
X119532947Y-43531154D01*
X119434344Y-43383584D01*
X119366424Y-43219612D01*
X119331800Y-43045541D01*
X119331800Y-42868059D01*
X119333841Y-42857800D01*
X119342639Y-42813568D01*
X119366424Y-42693988D01*
X119434344Y-42530016D01*
X119532947Y-42382446D01*
X119658446Y-42256947D01*
X119806016Y-42158344D01*
X119969988Y-42090424D01*
X120119288Y-42060727D01*
X120144058Y-42055800D01*
X120321542Y-42055800D01*
X120346312Y-42060727D01*
G37*
G36*
X159902600Y-43113400D02*
G01*
X157800600Y-43113400D01*
X157800600Y-41011400D01*
X159902600Y-41011400D01*
X159902600Y-43113400D01*
G37*
G36*
X122957349Y-40577916D02*
G01*
X123068534Y-40600032D01*
X123278003Y-40686797D01*
X123466520Y-40812760D01*
X123626840Y-40973080D01*
X123752803Y-41161597D01*
X123752804Y-41161599D01*
X123839568Y-41371067D01*
X123883800Y-41593435D01*
X123883800Y-41820165D01*
X123879938Y-41839580D01*
X123839568Y-42042534D01*
X123752803Y-42252003D01*
X123626840Y-42440520D01*
X123466520Y-42600840D01*
X123278003Y-42726803D01*
X123278002Y-42726804D01*
X123278001Y-42726804D01*
X123244211Y-42740800D01*
X123068534Y-42813568D01*
X122957349Y-42835684D01*
X122846165Y-42857800D01*
X122619435Y-42857800D01*
X122508251Y-42835684D01*
X122397066Y-42813568D01*
X122221389Y-42740800D01*
X122187599Y-42726804D01*
X122187598Y-42726804D01*
X122187597Y-42726803D01*
X121999080Y-42600840D01*
X121838760Y-42440520D01*
X121712797Y-42252003D01*
X121626032Y-42042534D01*
X121585662Y-41839580D01*
X121581800Y-41820165D01*
X121581800Y-41593435D01*
X121626032Y-41371067D01*
X121712796Y-41161599D01*
X121712797Y-41161597D01*
X121838760Y-40973080D01*
X121999080Y-40812760D01*
X122187597Y-40686797D01*
X122397066Y-40600032D01*
X122508251Y-40577916D01*
X122619435Y-40555800D01*
X122846165Y-40555800D01*
X122957349Y-40577916D01*
G37*
G36*
X163689591Y-41692885D02*
G01*
X163723569Y-41703193D01*
X163754890Y-41719934D01*
X163782339Y-41742461D01*
X163804866Y-41769910D01*
X163821607Y-41801231D01*
X163831915Y-41835209D01*
X163836000Y-41876690D01*
X163836000Y-42552910D01*
X163831915Y-42594391D01*
X163821607Y-42628369D01*
X163804866Y-42659690D01*
X163782339Y-42687139D01*
X163754890Y-42709666D01*
X163723569Y-42726407D01*
X163689591Y-42736715D01*
X163648110Y-42740800D01*
X163046890Y-42740800D01*
X163005409Y-42736715D01*
X162971431Y-42726407D01*
X162940110Y-42709666D01*
X162912661Y-42687139D01*
X162890134Y-42659690D01*
X162873393Y-42628369D01*
X162863085Y-42594391D01*
X162859000Y-42552910D01*
X162859000Y-41876690D01*
X162863085Y-41835209D01*
X162873393Y-41801231D01*
X162890134Y-41769910D01*
X162912661Y-41742461D01*
X162940110Y-41719934D01*
X162971431Y-41703193D01*
X163005409Y-41692885D01*
X163046890Y-41688800D01*
X163648110Y-41688800D01*
X163689591Y-41692885D01*
G37*
G36*
X162114591Y-41692885D02*
G01*
X162148569Y-41703193D01*
X162179890Y-41719934D01*
X162207339Y-41742461D01*
X162229866Y-41769910D01*
X162246607Y-41801231D01*
X162256915Y-41835209D01*
X162261000Y-41876690D01*
X162261000Y-42552910D01*
X162256915Y-42594391D01*
X162246607Y-42628369D01*
X162229866Y-42659690D01*
X162207339Y-42687139D01*
X162179890Y-42709666D01*
X162148569Y-42726407D01*
X162114591Y-42736715D01*
X162073110Y-42740800D01*
X161471890Y-42740800D01*
X161430409Y-42736715D01*
X161396431Y-42726407D01*
X161365110Y-42709666D01*
X161337661Y-42687139D01*
X161315134Y-42659690D01*
X161298393Y-42628369D01*
X161288085Y-42594391D01*
X161284000Y-42552910D01*
X161284000Y-41876690D01*
X161288085Y-41835209D01*
X161298393Y-41801231D01*
X161315134Y-41769910D01*
X161337661Y-41742461D01*
X161365110Y-41719934D01*
X161396431Y-41703193D01*
X161430409Y-41692885D01*
X161471890Y-41688800D01*
X162073110Y-41688800D01*
X162114591Y-41692885D01*
G37*
G36*
X162722685Y-35817575D02*
G01*
X163077743Y-35964645D01*
X163077745Y-35964646D01*
X163397290Y-36178159D01*
X163669041Y-36449910D01*
X163882554Y-36769455D01*
X163882555Y-36769457D01*
X164029625Y-37124515D01*
X164104600Y-37501442D01*
X164104600Y-37885758D01*
X164029625Y-38262685D01*
X163882555Y-38617743D01*
X163882554Y-38617745D01*
X163669041Y-38937290D01*
X163397290Y-39209041D01*
X163077745Y-39422554D01*
X163077744Y-39422555D01*
X163077743Y-39422555D01*
X162722685Y-39569625D01*
X162345758Y-39644600D01*
X161961442Y-39644600D01*
X161584515Y-39569625D01*
X161229457Y-39422555D01*
X161229456Y-39422555D01*
X161229455Y-39422554D01*
X160909910Y-39209041D01*
X160638159Y-38937290D01*
X160424646Y-38617745D01*
X160424645Y-38617743D01*
X160277575Y-38262685D01*
X160202600Y-37885758D01*
X160202600Y-37501442D01*
X160277575Y-37124515D01*
X160424645Y-36769457D01*
X160424646Y-36769455D01*
X160638159Y-36449910D01*
X160909910Y-36178159D01*
X161229455Y-35964646D01*
X161229457Y-35964645D01*
X161584515Y-35817575D01*
X161961442Y-35742600D01*
X162345758Y-35742600D01*
X162722685Y-35817575D01*
G37*
G36*
X122336685Y-35817575D02*
G01*
X122691743Y-35964645D01*
X122691745Y-35964646D01*
X123011290Y-36178159D01*
X123283041Y-36449910D01*
X123496554Y-36769455D01*
X123496555Y-36769457D01*
X123643625Y-37124515D01*
X123718600Y-37501442D01*
X123718600Y-37885758D01*
X123643625Y-38262685D01*
X123496555Y-38617743D01*
X123496554Y-38617745D01*
X123283041Y-38937290D01*
X123011290Y-39209041D01*
X122691745Y-39422554D01*
X122691744Y-39422555D01*
X122691743Y-39422555D01*
X122336685Y-39569625D01*
X121959758Y-39644600D01*
X121575442Y-39644600D01*
X121198515Y-39569625D01*
X120843457Y-39422555D01*
X120843456Y-39422555D01*
X120843455Y-39422554D01*
X120523910Y-39209041D01*
X120252159Y-38937290D01*
X120038646Y-38617745D01*
X120038645Y-38617743D01*
X119891575Y-38262685D01*
X119816600Y-37885758D01*
X119816600Y-37501442D01*
X119891575Y-37124515D01*
X120038645Y-36769457D01*
X120038646Y-36769455D01*
X120252159Y-36449910D01*
X120523910Y-36178159D01*
X120843455Y-35964646D01*
X120843457Y-35964645D01*
X121198515Y-35817575D01*
X121575442Y-35742600D01*
X121959758Y-35742600D01*
X122336685Y-35817575D01*
G37*
M02*
