G04 #@! TF.GenerationSoftware,KiCad,Pcbnew,5.1.6-c6e7f7d~87~ubuntu18.04.1*
G04 #@! TF.CreationDate,2020-07-22T21:50:42+02:00*
G04 #@! TF.ProjectId,HMI,484d492e-6b69-4636-9164-5f7063625858,rev?*
G04 #@! TF.SameCoordinates,Original*
G04 #@! TF.FileFunction,Paste,Bot*
G04 #@! TF.FilePolarity,Positive*
%FSLAX46Y46*%
G04 Gerber Fmt 4.6, Leading zero omitted, Abs format (unit mm)*
G04 Created by KiCad (PCBNEW 5.1.6-c6e7f7d~87~ubuntu18.04.1) date 2020-07-22 21:50:42*
%MOMM*%
%LPD*%
G01*
G04 APERTURE LIST*
%ADD10R,0.300000X1.300000*%
%ADD11R,1.800000X2.200000*%
%ADD12R,2.000000X1.800000*%
%ADD13R,1.300000X0.300000*%
%ADD14R,2.200000X1.800000*%
G04 APERTURE END LIST*
G36*
G01*
X93763261Y-67086469D02*
X93400869Y-67448862D01*
G75*
G02*
X93091509Y-67448862I-154680J154680D01*
G01*
X92782150Y-67139503D01*
G75*
G02*
X92782150Y-66830143I154680J154680D01*
G01*
X93144543Y-66467750D01*
G75*
G02*
X93453903Y-66467750I154680J-154680D01*
G01*
X93763262Y-66777109D01*
G75*
G02*
X93763262Y-67086469I-154680J-154680D01*
G01*
G37*
G36*
G01*
X94876955Y-68200163D02*
X94514563Y-68562556D01*
G75*
G02*
X94205203Y-68562556I-154680J154680D01*
G01*
X93895844Y-68253197D01*
G75*
G02*
X93895844Y-67943837I154680J154680D01*
G01*
X94258237Y-67581444D01*
G75*
G02*
X94567597Y-67581444I154680J-154680D01*
G01*
X94876956Y-67890803D01*
G75*
G02*
X94876956Y-68200163I-154680J-154680D01*
G01*
G37*
D10*
X97287000Y-59257000D03*
X96787000Y-59257000D03*
X96287000Y-59257000D03*
X95787000Y-59257000D03*
X95287000Y-59257000D03*
X94787000Y-59257000D03*
X94287000Y-59257000D03*
X93787000Y-59257000D03*
X93287000Y-59257000D03*
X92787000Y-59257000D03*
X92287000Y-59257000D03*
X91787000Y-59257000D03*
X91287000Y-59257000D03*
X90787000Y-59257000D03*
X90287000Y-59257000D03*
X89787000Y-59257000D03*
X89287000Y-59257000D03*
X88787000Y-59257000D03*
X88287000Y-59257000D03*
X87787000Y-59257000D03*
X87287000Y-59257000D03*
X86787000Y-59257000D03*
D11*
X84887000Y-56007000D03*
X99187000Y-56007000D03*
D12*
X97282000Y-68935600D03*
X97282000Y-74015600D03*
X101282000Y-74015600D03*
X101282000Y-68935600D03*
G36*
G01*
X92061000Y-67463000D02*
X92061000Y-68713000D01*
G75*
G02*
X91936000Y-68838000I-125000J0D01*
G01*
X91686000Y-68838000D01*
G75*
G02*
X91561000Y-68713000I0J125000D01*
G01*
X91561000Y-67463000D01*
G75*
G02*
X91686000Y-67338000I125000J0D01*
G01*
X91936000Y-67338000D01*
G75*
G02*
X92061000Y-67463000I0J-125000D01*
G01*
G37*
G36*
G01*
X91261000Y-67463000D02*
X91261000Y-68713000D01*
G75*
G02*
X91136000Y-68838000I-125000J0D01*
G01*
X90886000Y-68838000D01*
G75*
G02*
X90761000Y-68713000I0J125000D01*
G01*
X90761000Y-67463000D01*
G75*
G02*
X90886000Y-67338000I125000J0D01*
G01*
X91136000Y-67338000D01*
G75*
G02*
X91261000Y-67463000I0J-125000D01*
G01*
G37*
G36*
G01*
X90461000Y-67463000D02*
X90461000Y-68713000D01*
G75*
G02*
X90336000Y-68838000I-125000J0D01*
G01*
X90086000Y-68838000D01*
G75*
G02*
X89961000Y-68713000I0J125000D01*
G01*
X89961000Y-67463000D01*
G75*
G02*
X90086000Y-67338000I125000J0D01*
G01*
X90336000Y-67338000D01*
G75*
G02*
X90461000Y-67463000I0J-125000D01*
G01*
G37*
G36*
G01*
X89661000Y-67463000D02*
X89661000Y-68713000D01*
G75*
G02*
X89536000Y-68838000I-125000J0D01*
G01*
X89286000Y-68838000D01*
G75*
G02*
X89161000Y-68713000I0J125000D01*
G01*
X89161000Y-67463000D01*
G75*
G02*
X89286000Y-67338000I125000J0D01*
G01*
X89536000Y-67338000D01*
G75*
G02*
X89661000Y-67463000I0J-125000D01*
G01*
G37*
G36*
G01*
X88861000Y-67463000D02*
X88861000Y-68713000D01*
G75*
G02*
X88736000Y-68838000I-125000J0D01*
G01*
X88486000Y-68838000D01*
G75*
G02*
X88361000Y-68713000I0J125000D01*
G01*
X88361000Y-67463000D01*
G75*
G02*
X88486000Y-67338000I125000J0D01*
G01*
X88736000Y-67338000D01*
G75*
G02*
X88861000Y-67463000I0J-125000D01*
G01*
G37*
G36*
G01*
X88061000Y-67463000D02*
X88061000Y-68713000D01*
G75*
G02*
X87936000Y-68838000I-125000J0D01*
G01*
X87686000Y-68838000D01*
G75*
G02*
X87561000Y-68713000I0J125000D01*
G01*
X87561000Y-67463000D01*
G75*
G02*
X87686000Y-67338000I125000J0D01*
G01*
X87936000Y-67338000D01*
G75*
G02*
X88061000Y-67463000I0J-125000D01*
G01*
G37*
G36*
G01*
X87261000Y-67463000D02*
X87261000Y-68713000D01*
G75*
G02*
X87136000Y-68838000I-125000J0D01*
G01*
X86886000Y-68838000D01*
G75*
G02*
X86761000Y-68713000I0J125000D01*
G01*
X86761000Y-67463000D01*
G75*
G02*
X86886000Y-67338000I125000J0D01*
G01*
X87136000Y-67338000D01*
G75*
G02*
X87261000Y-67463000I0J-125000D01*
G01*
G37*
G36*
G01*
X86461000Y-67463000D02*
X86461000Y-68713000D01*
G75*
G02*
X86336000Y-68838000I-125000J0D01*
G01*
X86086000Y-68838000D01*
G75*
G02*
X85961000Y-68713000I0J125000D01*
G01*
X85961000Y-67463000D01*
G75*
G02*
X86086000Y-67338000I125000J0D01*
G01*
X86336000Y-67338000D01*
G75*
G02*
X86461000Y-67463000I0J-125000D01*
G01*
G37*
G36*
G01*
X85586000Y-69338000D02*
X85586000Y-69588000D01*
G75*
G02*
X85461000Y-69713000I-125000J0D01*
G01*
X84211000Y-69713000D01*
G75*
G02*
X84086000Y-69588000I0J125000D01*
G01*
X84086000Y-69338000D01*
G75*
G02*
X84211000Y-69213000I125000J0D01*
G01*
X85461000Y-69213000D01*
G75*
G02*
X85586000Y-69338000I0J-125000D01*
G01*
G37*
G36*
G01*
X85586000Y-70138000D02*
X85586000Y-70388000D01*
G75*
G02*
X85461000Y-70513000I-125000J0D01*
G01*
X84211000Y-70513000D01*
G75*
G02*
X84086000Y-70388000I0J125000D01*
G01*
X84086000Y-70138000D01*
G75*
G02*
X84211000Y-70013000I125000J0D01*
G01*
X85461000Y-70013000D01*
G75*
G02*
X85586000Y-70138000I0J-125000D01*
G01*
G37*
G36*
G01*
X85586000Y-70938000D02*
X85586000Y-71188000D01*
G75*
G02*
X85461000Y-71313000I-125000J0D01*
G01*
X84211000Y-71313000D01*
G75*
G02*
X84086000Y-71188000I0J125000D01*
G01*
X84086000Y-70938000D01*
G75*
G02*
X84211000Y-70813000I125000J0D01*
G01*
X85461000Y-70813000D01*
G75*
G02*
X85586000Y-70938000I0J-125000D01*
G01*
G37*
G36*
G01*
X85586000Y-71738000D02*
X85586000Y-71988000D01*
G75*
G02*
X85461000Y-72113000I-125000J0D01*
G01*
X84211000Y-72113000D01*
G75*
G02*
X84086000Y-71988000I0J125000D01*
G01*
X84086000Y-71738000D01*
G75*
G02*
X84211000Y-71613000I125000J0D01*
G01*
X85461000Y-71613000D01*
G75*
G02*
X85586000Y-71738000I0J-125000D01*
G01*
G37*
G36*
G01*
X85586000Y-72538000D02*
X85586000Y-72788000D01*
G75*
G02*
X85461000Y-72913000I-125000J0D01*
G01*
X84211000Y-72913000D01*
G75*
G02*
X84086000Y-72788000I0J125000D01*
G01*
X84086000Y-72538000D01*
G75*
G02*
X84211000Y-72413000I125000J0D01*
G01*
X85461000Y-72413000D01*
G75*
G02*
X85586000Y-72538000I0J-125000D01*
G01*
G37*
G36*
G01*
X85586000Y-73338000D02*
X85586000Y-73588000D01*
G75*
G02*
X85461000Y-73713000I-125000J0D01*
G01*
X84211000Y-73713000D01*
G75*
G02*
X84086000Y-73588000I0J125000D01*
G01*
X84086000Y-73338000D01*
G75*
G02*
X84211000Y-73213000I125000J0D01*
G01*
X85461000Y-73213000D01*
G75*
G02*
X85586000Y-73338000I0J-125000D01*
G01*
G37*
G36*
G01*
X85586000Y-74138000D02*
X85586000Y-74388000D01*
G75*
G02*
X85461000Y-74513000I-125000J0D01*
G01*
X84211000Y-74513000D01*
G75*
G02*
X84086000Y-74388000I0J125000D01*
G01*
X84086000Y-74138000D01*
G75*
G02*
X84211000Y-74013000I125000J0D01*
G01*
X85461000Y-74013000D01*
G75*
G02*
X85586000Y-74138000I0J-125000D01*
G01*
G37*
G36*
G01*
X85586000Y-74938000D02*
X85586000Y-75188000D01*
G75*
G02*
X85461000Y-75313000I-125000J0D01*
G01*
X84211000Y-75313000D01*
G75*
G02*
X84086000Y-75188000I0J125000D01*
G01*
X84086000Y-74938000D01*
G75*
G02*
X84211000Y-74813000I125000J0D01*
G01*
X85461000Y-74813000D01*
G75*
G02*
X85586000Y-74938000I0J-125000D01*
G01*
G37*
G36*
G01*
X86461000Y-75813000D02*
X86461000Y-77063000D01*
G75*
G02*
X86336000Y-77188000I-125000J0D01*
G01*
X86086000Y-77188000D01*
G75*
G02*
X85961000Y-77063000I0J125000D01*
G01*
X85961000Y-75813000D01*
G75*
G02*
X86086000Y-75688000I125000J0D01*
G01*
X86336000Y-75688000D01*
G75*
G02*
X86461000Y-75813000I0J-125000D01*
G01*
G37*
G36*
G01*
X87261000Y-75813000D02*
X87261000Y-77063000D01*
G75*
G02*
X87136000Y-77188000I-125000J0D01*
G01*
X86886000Y-77188000D01*
G75*
G02*
X86761000Y-77063000I0J125000D01*
G01*
X86761000Y-75813000D01*
G75*
G02*
X86886000Y-75688000I125000J0D01*
G01*
X87136000Y-75688000D01*
G75*
G02*
X87261000Y-75813000I0J-125000D01*
G01*
G37*
G36*
G01*
X88061000Y-75813000D02*
X88061000Y-77063000D01*
G75*
G02*
X87936000Y-77188000I-125000J0D01*
G01*
X87686000Y-77188000D01*
G75*
G02*
X87561000Y-77063000I0J125000D01*
G01*
X87561000Y-75813000D01*
G75*
G02*
X87686000Y-75688000I125000J0D01*
G01*
X87936000Y-75688000D01*
G75*
G02*
X88061000Y-75813000I0J-125000D01*
G01*
G37*
G36*
G01*
X88861000Y-75813000D02*
X88861000Y-77063000D01*
G75*
G02*
X88736000Y-77188000I-125000J0D01*
G01*
X88486000Y-77188000D01*
G75*
G02*
X88361000Y-77063000I0J125000D01*
G01*
X88361000Y-75813000D01*
G75*
G02*
X88486000Y-75688000I125000J0D01*
G01*
X88736000Y-75688000D01*
G75*
G02*
X88861000Y-75813000I0J-125000D01*
G01*
G37*
G36*
G01*
X89661000Y-75813000D02*
X89661000Y-77063000D01*
G75*
G02*
X89536000Y-77188000I-125000J0D01*
G01*
X89286000Y-77188000D01*
G75*
G02*
X89161000Y-77063000I0J125000D01*
G01*
X89161000Y-75813000D01*
G75*
G02*
X89286000Y-75688000I125000J0D01*
G01*
X89536000Y-75688000D01*
G75*
G02*
X89661000Y-75813000I0J-125000D01*
G01*
G37*
G36*
G01*
X90461000Y-75813000D02*
X90461000Y-77063000D01*
G75*
G02*
X90336000Y-77188000I-125000J0D01*
G01*
X90086000Y-77188000D01*
G75*
G02*
X89961000Y-77063000I0J125000D01*
G01*
X89961000Y-75813000D01*
G75*
G02*
X90086000Y-75688000I125000J0D01*
G01*
X90336000Y-75688000D01*
G75*
G02*
X90461000Y-75813000I0J-125000D01*
G01*
G37*
G36*
G01*
X91261000Y-75813000D02*
X91261000Y-77063000D01*
G75*
G02*
X91136000Y-77188000I-125000J0D01*
G01*
X90886000Y-77188000D01*
G75*
G02*
X90761000Y-77063000I0J125000D01*
G01*
X90761000Y-75813000D01*
G75*
G02*
X90886000Y-75688000I125000J0D01*
G01*
X91136000Y-75688000D01*
G75*
G02*
X91261000Y-75813000I0J-125000D01*
G01*
G37*
G36*
G01*
X92061000Y-75813000D02*
X92061000Y-77063000D01*
G75*
G02*
X91936000Y-77188000I-125000J0D01*
G01*
X91686000Y-77188000D01*
G75*
G02*
X91561000Y-77063000I0J125000D01*
G01*
X91561000Y-75813000D01*
G75*
G02*
X91686000Y-75688000I125000J0D01*
G01*
X91936000Y-75688000D01*
G75*
G02*
X92061000Y-75813000I0J-125000D01*
G01*
G37*
G36*
G01*
X93936000Y-74938000D02*
X93936000Y-75188000D01*
G75*
G02*
X93811000Y-75313000I-125000J0D01*
G01*
X92561000Y-75313000D01*
G75*
G02*
X92436000Y-75188000I0J125000D01*
G01*
X92436000Y-74938000D01*
G75*
G02*
X92561000Y-74813000I125000J0D01*
G01*
X93811000Y-74813000D01*
G75*
G02*
X93936000Y-74938000I0J-125000D01*
G01*
G37*
G36*
G01*
X93936000Y-74138000D02*
X93936000Y-74388000D01*
G75*
G02*
X93811000Y-74513000I-125000J0D01*
G01*
X92561000Y-74513000D01*
G75*
G02*
X92436000Y-74388000I0J125000D01*
G01*
X92436000Y-74138000D01*
G75*
G02*
X92561000Y-74013000I125000J0D01*
G01*
X93811000Y-74013000D01*
G75*
G02*
X93936000Y-74138000I0J-125000D01*
G01*
G37*
G36*
G01*
X93936000Y-73338000D02*
X93936000Y-73588000D01*
G75*
G02*
X93811000Y-73713000I-125000J0D01*
G01*
X92561000Y-73713000D01*
G75*
G02*
X92436000Y-73588000I0J125000D01*
G01*
X92436000Y-73338000D01*
G75*
G02*
X92561000Y-73213000I125000J0D01*
G01*
X93811000Y-73213000D01*
G75*
G02*
X93936000Y-73338000I0J-125000D01*
G01*
G37*
G36*
G01*
X93936000Y-72538000D02*
X93936000Y-72788000D01*
G75*
G02*
X93811000Y-72913000I-125000J0D01*
G01*
X92561000Y-72913000D01*
G75*
G02*
X92436000Y-72788000I0J125000D01*
G01*
X92436000Y-72538000D01*
G75*
G02*
X92561000Y-72413000I125000J0D01*
G01*
X93811000Y-72413000D01*
G75*
G02*
X93936000Y-72538000I0J-125000D01*
G01*
G37*
G36*
G01*
X93936000Y-71738000D02*
X93936000Y-71988000D01*
G75*
G02*
X93811000Y-72113000I-125000J0D01*
G01*
X92561000Y-72113000D01*
G75*
G02*
X92436000Y-71988000I0J125000D01*
G01*
X92436000Y-71738000D01*
G75*
G02*
X92561000Y-71613000I125000J0D01*
G01*
X93811000Y-71613000D01*
G75*
G02*
X93936000Y-71738000I0J-125000D01*
G01*
G37*
G36*
G01*
X93936000Y-70938000D02*
X93936000Y-71188000D01*
G75*
G02*
X93811000Y-71313000I-125000J0D01*
G01*
X92561000Y-71313000D01*
G75*
G02*
X92436000Y-71188000I0J125000D01*
G01*
X92436000Y-70938000D01*
G75*
G02*
X92561000Y-70813000I125000J0D01*
G01*
X93811000Y-70813000D01*
G75*
G02*
X93936000Y-70938000I0J-125000D01*
G01*
G37*
G36*
G01*
X93936000Y-70138000D02*
X93936000Y-70388000D01*
G75*
G02*
X93811000Y-70513000I-125000J0D01*
G01*
X92561000Y-70513000D01*
G75*
G02*
X92436000Y-70388000I0J125000D01*
G01*
X92436000Y-70138000D01*
G75*
G02*
X92561000Y-70013000I125000J0D01*
G01*
X93811000Y-70013000D01*
G75*
G02*
X93936000Y-70138000I0J-125000D01*
G01*
G37*
G36*
G01*
X93936000Y-69338000D02*
X93936000Y-69588000D01*
G75*
G02*
X93811000Y-69713000I-125000J0D01*
G01*
X92561000Y-69713000D01*
G75*
G02*
X92436000Y-69588000I0J125000D01*
G01*
X92436000Y-69338000D01*
G75*
G02*
X92561000Y-69213000I125000J0D01*
G01*
X93811000Y-69213000D01*
G75*
G02*
X93936000Y-69338000I0J-125000D01*
G01*
G37*
G36*
G01*
X74165750Y-65348500D02*
X74678250Y-65348500D01*
G75*
G02*
X74897000Y-65567250I0J-218750D01*
G01*
X74897000Y-66004750D01*
G75*
G02*
X74678250Y-66223500I-218750J0D01*
G01*
X74165750Y-66223500D01*
G75*
G02*
X73947000Y-66004750I0J218750D01*
G01*
X73947000Y-65567250D01*
G75*
G02*
X74165750Y-65348500I218750J0D01*
G01*
G37*
G36*
G01*
X74165750Y-63773500D02*
X74678250Y-63773500D01*
G75*
G02*
X74897000Y-63992250I0J-218750D01*
G01*
X74897000Y-64429750D01*
G75*
G02*
X74678250Y-64648500I-218750J0D01*
G01*
X74165750Y-64648500D01*
G75*
G02*
X73947000Y-64429750I0J218750D01*
G01*
X73947000Y-63992250D01*
G75*
G02*
X74165750Y-63773500I218750J0D01*
G01*
G37*
G36*
G01*
X76129500Y-75435750D02*
X76129500Y-75948250D01*
G75*
G02*
X75910750Y-76167000I-218750J0D01*
G01*
X75473250Y-76167000D01*
G75*
G02*
X75254500Y-75948250I0J218750D01*
G01*
X75254500Y-75435750D01*
G75*
G02*
X75473250Y-75217000I218750J0D01*
G01*
X75910750Y-75217000D01*
G75*
G02*
X76129500Y-75435750I0J-218750D01*
G01*
G37*
G36*
G01*
X77704500Y-75435750D02*
X77704500Y-75948250D01*
G75*
G02*
X77485750Y-76167000I-218750J0D01*
G01*
X77048250Y-76167000D01*
G75*
G02*
X76829500Y-75948250I0J218750D01*
G01*
X76829500Y-75435750D01*
G75*
G02*
X77048250Y-75217000I218750J0D01*
G01*
X77485750Y-75217000D01*
G75*
G02*
X77704500Y-75435750I0J-218750D01*
G01*
G37*
G36*
G01*
X102062800Y-59027350D02*
X102062800Y-59539850D01*
G75*
G02*
X101844050Y-59758600I-218750J0D01*
G01*
X101406550Y-59758600D01*
G75*
G02*
X101187800Y-59539850I0J218750D01*
G01*
X101187800Y-59027350D01*
G75*
G02*
X101406550Y-58808600I218750J0D01*
G01*
X101844050Y-58808600D01*
G75*
G02*
X102062800Y-59027350I0J-218750D01*
G01*
G37*
G36*
G01*
X103637800Y-59027350D02*
X103637800Y-59539850D01*
G75*
G02*
X103419050Y-59758600I-218750J0D01*
G01*
X102981550Y-59758600D01*
G75*
G02*
X102762800Y-59539850I0J218750D01*
G01*
X102762800Y-59027350D01*
G75*
G02*
X102981550Y-58808600I218750J0D01*
G01*
X103419050Y-58808600D01*
G75*
G02*
X103637800Y-59027350I0J-218750D01*
G01*
G37*
G36*
G01*
X95404650Y-71354100D02*
X94892150Y-71354100D01*
G75*
G02*
X94673400Y-71135350I0J218750D01*
G01*
X94673400Y-70697850D01*
G75*
G02*
X94892150Y-70479100I218750J0D01*
G01*
X95404650Y-70479100D01*
G75*
G02*
X95623400Y-70697850I0J-218750D01*
G01*
X95623400Y-71135350D01*
G75*
G02*
X95404650Y-71354100I-218750J0D01*
G01*
G37*
G36*
G01*
X95404650Y-72929100D02*
X94892150Y-72929100D01*
G75*
G02*
X94673400Y-72710350I0J218750D01*
G01*
X94673400Y-72272850D01*
G75*
G02*
X94892150Y-72054100I218750J0D01*
G01*
X95404650Y-72054100D01*
G75*
G02*
X95623400Y-72272850I0J-218750D01*
G01*
X95623400Y-72710350D01*
G75*
G02*
X95404650Y-72929100I-218750J0D01*
G01*
G37*
D13*
X80974000Y-100407000D03*
X80974000Y-100907000D03*
X80974000Y-101407000D03*
X80974000Y-101907000D03*
X80974000Y-102407000D03*
X80974000Y-102907000D03*
X80974000Y-103407000D03*
X80974000Y-103907000D03*
X80974000Y-104407000D03*
X80974000Y-104907000D03*
D14*
X77724000Y-106807000D03*
X77724000Y-98507000D03*
G36*
G01*
X82801750Y-76651600D02*
X83314250Y-76651600D01*
G75*
G02*
X83533000Y-76870350I0J-218750D01*
G01*
X83533000Y-77307850D01*
G75*
G02*
X83314250Y-77526600I-218750J0D01*
G01*
X82801750Y-77526600D01*
G75*
G02*
X82583000Y-77307850I0J218750D01*
G01*
X82583000Y-76870350D01*
G75*
G02*
X82801750Y-76651600I218750J0D01*
G01*
G37*
G36*
G01*
X82801750Y-75076600D02*
X83314250Y-75076600D01*
G75*
G02*
X83533000Y-75295350I0J-218750D01*
G01*
X83533000Y-75732850D01*
G75*
G02*
X83314250Y-75951600I-218750J0D01*
G01*
X82801750Y-75951600D01*
G75*
G02*
X82583000Y-75732850I0J218750D01*
G01*
X82583000Y-75295350D01*
G75*
G02*
X82801750Y-75076600I218750J0D01*
G01*
G37*
G36*
G01*
X99943500Y-76303850D02*
X99943500Y-75791350D01*
G75*
G02*
X100162250Y-75572600I218750J0D01*
G01*
X100599750Y-75572600D01*
G75*
G02*
X100818500Y-75791350I0J-218750D01*
G01*
X100818500Y-76303850D01*
G75*
G02*
X100599750Y-76522600I-218750J0D01*
G01*
X100162250Y-76522600D01*
G75*
G02*
X99943500Y-76303850I0J218750D01*
G01*
G37*
G36*
G01*
X98368500Y-76303850D02*
X98368500Y-75791350D01*
G75*
G02*
X98587250Y-75572600I218750J0D01*
G01*
X99024750Y-75572600D01*
G75*
G02*
X99243500Y-75791350I0J-218750D01*
G01*
X99243500Y-76303850D01*
G75*
G02*
X99024750Y-76522600I-218750J0D01*
G01*
X98587250Y-76522600D01*
G75*
G02*
X98368500Y-76303850I0J218750D01*
G01*
G37*
M02*
