M48
; DRILL file {KiCad 5.1.6-c6e7f7d~87~ubuntu18.04.1} date Sun Aug  2 20:37:08 2020
; FORMAT={-:-/ absolute / inch / decimal}
; #@! TF.CreationDate,2020-08-02T20:37:08+02:00
; #@! TF.GenerationSoftware,Kicad,Pcbnew,5.1.6-c6e7f7d~87~ubuntu18.04.1
; #@! TF.FileFunction,Plated,1,2,PTH
FMAT,2
INCH
T1C0.0079
T2C0.0157
T3C0.0256
T4C0.0394
T5C0.0512
T6C0.0866
%
G90
G05
T1
X4.71Y-1.802
X4.712Y-1.98
X4.716Y-1.934
X4.732Y-2.134
X4.742Y-2.358
X4.75Y-1.78
X4.768Y-2.146
X4.778Y-1.976
X4.78Y-3.96
X4.78Y-4.04
X4.78Y-4.16
X4.78Y-4.27
X4.78Y-4.38
X4.784Y-1.934
X4.794Y-1.778
X4.798Y-2.412
X4.8Y-3.884
X4.802Y-1.724
X4.81Y-4.46
X4.826Y-2.094
X4.84Y-4.54
X4.84Y-4.6
X4.8525Y-4.0
X4.8525Y-4.12
X4.8525Y-4.23
X4.8525Y-4.38
X4.866Y-2.422
X4.866Y-2.944
X4.867Y-2.49
X4.87Y-2.588
X4.87Y-4.42
X4.872Y-3.256
X4.873Y-2.694
X4.875Y-2.8
X4.876Y-3.102
X4.885Y-3.794
X4.89Y-4.6
X4.89Y-4.67
X4.906Y-2.096
X4.92Y-4.45
X4.934Y-2.368
X4.937Y-2.859
X4.937Y-3.185
X4.939Y-3.04
X4.94Y-2.47
X4.94Y-3.96
X4.94Y-4.04
X4.94Y-4.14
X4.94Y-4.23
X4.942Y-2.583
X4.942Y-2.727
X4.943Y-3.331
X4.947Y-3.736
X4.956Y-3.456
X4.966Y-1.766
X4.98Y-4.67
X4.985Y-3.378
X5.003Y-2.521
X5.003Y-3.6765
X5.004Y-2.657
X5.004Y-2.791
X5.005Y-3.102
X5.005Y-3.914
X5.006Y-2.42
X5.007Y-2.944
X5.008Y-3.224
X5.009Y-3.293
X5.015Y-3.6425
X5.02Y-1.83
X5.028Y-2.262
X5.036Y-2.09
X5.04Y-4.44
X5.04Y-4.469
X5.043Y-2.8645
X5.049Y-3.0555
X5.05Y-4.62
X5.05Y-4.67
X5.052Y-3.856
X5.054Y-5.303
X5.0575Y-2.3825
X5.06Y-4.5
X5.064Y-2.114
X5.064Y-5.238
X5.068Y-5.158
X5.072Y-3.46
X5.0725Y-4.07
X5.08Y-3.366
X5.08Y-3.5825
X5.083Y-4.521
X5.098Y-4.454
X5.104Y-2.778
X5.104Y-5.114
X5.128Y-4.491
X5.13Y-4.02
X5.132Y-3.1385
X5.136Y-5.323
X5.14Y-3.532
X5.146Y-2.8675
X5.148Y-2.49
X5.15Y-2.584
X5.15Y-3.71
X5.152Y-3.28
X5.152Y-3.348
X5.152Y-3.432
X5.154Y-2.32
X5.154Y-2.676
X5.155Y-5.118
X5.156Y-4.513
X5.16Y-2.394
X5.164Y-4.48
X5.165Y-3.212
X5.1825Y-3.6375
X5.188Y-4.457
X5.188Y-4.515
X5.19Y-4.581
X5.213Y-5.303
X5.2138Y-4.0377
X5.215Y-2.9625
X5.2152Y-4.1013
X5.216Y-4.6601
X5.217Y-3.575
X5.2174Y-4.6115
X5.2216Y-5.1525
X5.2228Y-5.1995
X5.236Y-3.3
X5.236Y-3.342
X5.236Y-3.394
X5.236Y-3.434
X5.237Y-3.515
X5.238Y-3.482
X5.24Y-3.71
X5.245Y-3.6375
X5.249Y-3.574
X5.251Y-4.199
X5.266Y-4.265
X5.27Y-4.02
X5.274Y-5.038
X5.281Y-3.921
X5.284Y-2.31
X5.292Y-3.0315
X5.293Y-5.117
X5.3Y-4.6
X5.306Y-5.322
X5.31Y-2.398
X5.319Y-3.521
X5.32Y-4.5126
X5.332Y-3.638
X5.3325Y-4.6
X5.3355Y-3.847
X5.338Y-3.0835
X5.339Y-4.397
X5.34Y-4.31
X5.343Y-4.673
X5.348Y-5.012
X5.349Y-5.214
X5.353Y-3.538
X5.3535Y-4.8851
X5.3535Y-4.931
X5.354Y-5.276
X5.362Y-4.542
X5.374Y-5.131
X5.381Y-3.0405
X5.386Y-3.843
X5.39Y-2.935
X5.39Y-4.6
X5.391Y-4.865
X5.393Y-3.1825
X5.393Y-3.3035
X5.396Y-3.778
X5.4Y-4.02
X5.4Y-4.25
X5.41Y-4.945
X5.4192Y-3.4407
X5.42Y-4.32
X5.42Y-4.672
X5.422Y-2.312
X5.424Y-3.3955
X5.429Y-4.401
X5.435Y-3.1055
X5.437Y-5.212
X5.441Y-4.864
X5.449Y-3.6385
X5.4625Y-4.6
X5.468Y-4.515
X5.47Y-4.02
X5.4714Y-3.5511
X5.48Y-2.402
X5.482Y-4.865
X5.484Y-5.013
X5.485Y-2.87
X5.487Y-3.88
X5.487Y-3.955
X5.489Y-4.673
X5.49Y-2.755
X5.491Y-4.318
X5.494Y-4.106
X5.496Y-5.134
X5.4977Y-3.575
X5.5Y-4.212
X5.503Y-3.2235
X5.51Y-3.704
X5.51Y-5.214
X5.51Y-5.299
X5.512Y-4.54
X5.5125Y-4.39
X5.515Y-3.99
X5.52Y-4.6
X5.5239Y-3.4864
X5.548Y-3.64
X5.552Y-3.188
X5.553Y-3.5276
X5.555Y-4.245
X5.562Y-5.316
X5.566Y-2.36
X5.569Y-4.843
X5.57Y-2.76
X5.5725Y-2.9975
X5.5789Y-3.3041
X5.58Y-3.99
X5.581Y-4.311
X5.588Y-3.224
X5.595Y-5.3
X5.597Y-4.541
X5.6Y-2.872
X5.602Y-2.528
X5.602Y-4.867
X5.604Y-3.1485
X5.606Y-2.998
X5.6074Y-3.53
X5.612Y-3.248
X5.612Y-5.079
X5.616Y-3.296
X5.62Y-2.805
X5.6312Y-4.0985
X5.6312Y-4.3395
X5.6344Y-4.0409
X5.635Y-3.6785
X5.6362Y-4.3884
X5.6362Y-4.6109
X5.6378Y-4.6593
X5.638Y-2.872
X5.6405Y-4.8816
X5.6405Y-4.9284
X5.6408Y-5.1984
X5.6408Y-5.1551
X5.65Y-2.998
X5.6598Y-4.6363
X5.66Y-5.297
X5.665Y-4.321
X5.6698Y-3.5276
X5.6726Y-3.4887
X5.673Y-3.5705
X5.674Y-5.039
X5.678Y-2.872
X5.682Y-3.7
X5.683Y-3.132
X5.6835Y-4.6151
X5.684Y-3.64
X5.688Y-2.472
X5.688Y-3.1755
X5.692Y-2.998
X5.7Y-2.756
X5.7Y-3.22
X5.715Y-4.0275
X5.716Y-2.872
X5.717Y-4.24
X5.717Y-4.31
X5.717Y-4.54
X5.718Y-2.65
X5.718Y-4.195
X5.723Y-5.31
X5.7325Y-4.2825
X5.748Y-3.868
X5.749Y-4.313
X5.756Y-2.872
X5.7595Y-4.663
X5.768Y-3.9325
X5.771Y-3.1625
X5.771Y-4.609
X5.772Y-4.93
X5.772Y-4.962
X5.774Y-5.212
X5.775Y-4.39
X5.777Y-5.137
X5.78Y-3.0225
X5.78Y-4.0375
X5.78Y-5.276
X5.781Y-3.7685
X5.7821Y-3.2147
X5.7825Y-4.1725
X5.789Y-5.039
X5.789Y-2.9734
X5.7925Y-4.115
X5.7933Y-3.3412
X5.794Y-2.58
X5.795Y-3.19
X5.797Y-4.849
X5.801Y-4.678
X5.805Y-4.327
X5.806Y-4.417
X5.808Y-4.215
X5.808Y-4.942
X5.812Y-4.539
X5.816Y-4.872
X5.817Y-3.4345
X5.8177Y-3.2123
X5.818Y-4.671
X5.824Y-4.395
X5.8275Y-4.2825
X5.832Y-3.95
X5.836Y-3.3935
X5.837Y-3.1405
X5.838Y-3.096
X5.842Y-4.416
X5.8485Y-3.3399
X5.8524Y-3.2114
X5.854Y-5.216
X5.855Y-4.095
X5.855Y-4.13
X5.868Y-2.868
X5.87Y-2.99
X5.87Y-4.608
X5.8725Y-2.93
X5.876Y-3.838
X5.877Y-4.988
X5.88Y-3.065
X5.883Y-4.106
X5.883Y-4.211
X5.885Y-3.3375
X5.885Y-3.973
X5.888Y-3.106
X5.898Y-4.947
X5.9026Y-3.2109
X5.906Y-5.133
X5.911Y-3.7545
X5.9125Y-4.1625
X5.913Y-3.3875
X5.9175Y-4.33
X5.9175Y-4.3925
X5.918Y-3.998
X5.92Y-2.986
X5.928Y-5.249
X5.929Y-4.101
X5.936Y-5.214
X5.9395Y-4.6085
X5.9395Y-4.6584
X5.9395Y-4.883
X5.9395Y-4.9284
X5.94Y-3.298
X5.941Y-3.3585
X5.9435Y-3.865
X5.946Y-4.422
X5.947Y-4.394
X5.9475Y-4.34
X5.95Y-5.299
X5.958Y-2.992
X5.965Y-4.542
X5.9677Y-3.2123
X5.968Y-3.972
X5.97Y-4.2
X5.971Y-3.4565
X5.975Y-4.298
X5.996Y-5.113
X5.998Y-3.298
X6.005Y-5.025
X6.013Y-3.933
X6.016Y-5.1805
X6.019Y-3.3225
X6.021Y-3.9835
X6.021Y-5.301
X6.022Y-3.5265
X6.024Y-3.2118
X6.025Y-4.607
X6.03Y-2.998
X6.034Y-4.542
X6.035Y-3.115
X6.038Y-4.196
X6.042Y-3.3595
X6.05Y-3.078
X6.0628Y-4.8801
X6.0634Y-4.0391
X6.0634Y-4.9284
X6.0639Y-4.0968
X6.064Y-4.3389
X6.064Y-4.3891
X6.065Y-4.6099
X6.065Y-4.6584
X6.0751Y-3.2128
X6.0754Y-5.2007
X6.0779Y-5.149
X6.079Y-3.3895
X6.095Y-3.2985
X6.097Y-5.301
X6.1Y-4.544
X6.104Y-4.604
X6.107Y-3.5915
X6.11Y-3.5235
X6.11Y-4.944
X6.116Y-5.023
X6.122Y-3.078
X6.125Y-3.3475
X6.144Y-2.994
X6.1475Y-3.185
X6.1675Y-3.2725
X6.18Y-3.1425
X6.1825Y-3.405
X6.209Y-5.291
X6.21Y-3.515
X6.215Y-3.255
X6.215Y-4.39
X6.217Y-5.228
X6.218Y-3.46
X6.225Y-5.158
X6.235Y-4.443
X6.2375Y-3.345
X6.238Y-4.912
X6.239Y-4.989
X6.24Y-3.2
X6.24Y-3.55
X6.24Y-3.6075
X6.24Y-3.68
X6.24Y-3.78
X6.24Y-3.86
X6.24Y-3.94
X6.24Y-4.07
X6.24Y-4.15
X6.24Y-4.35
X6.245Y-4.25
X6.246Y-3.11
X6.2525Y-3.52
X6.261Y-4.539
X6.262Y-2.996
X6.274Y-4.702
X6.279Y-5.089
X6.2825Y-3.32
X6.2875Y-4.39
X6.295Y-4.865
X6.2975Y-3.4025
X6.301Y-3.515
X6.302Y-3.691
X6.302Y-4.175
X6.3025Y-3.95
X6.305Y-3.22
X6.305Y-4.46
X6.326Y-3.054
X6.33Y-3.3675
X6.345Y-3.455
X6.345Y-4.4175
X6.3475Y-3.1825
X6.3475Y-3.305
X6.3475Y-3.5725
X6.3475Y-3.69
X6.3475Y-3.8525
X6.3475Y-3.9825
X6.3475Y-4.0925
X6.3475Y-4.1825
X6.3475Y-4.3275
X6.358Y-4.484
X6.358Y-4.541
X6.368Y-4.863
X6.39Y-4.4525
X6.3975Y-3.44
X6.3975Y-3.585
X6.3975Y-3.6925
X6.3975Y-3.985
X6.3975Y-4.265
X6.398Y-3.845
X6.398Y-4.133
X6.399Y-4.368
X6.4Y-3.118
X6.408Y-3.358
X6.415Y-3.21
X6.42Y-3.287
X6.423Y-4.499
X6.447Y-4.28
X6.447Y-4.399
X6.4475Y-3.525
X6.4475Y-3.6375
X6.4475Y-3.7775
X6.4475Y-3.9125
X6.4475Y-4.0875
X6.4475Y-4.1825
X6.466Y-4.822
X6.476Y-3.346
X6.4975Y-3.5125
X6.4975Y-3.59
X6.4975Y-3.7
X6.4975Y-3.8175
X6.4975Y-3.94
X6.4975Y-4.0525
X6.4975Y-4.18
T2
X5.0325Y-4.405
X5.049Y-4.566
X5.285Y-3.7225
X6.328Y-1.747
X6.332Y-1.621
X6.43Y-1.679
T3
X5.206Y-3.002
X5.206Y-3.052
X5.206Y-3.102
X5.206Y-3.152
T4
X4.7696Y-2.0622
X4.7696Y-2.2394
X4.7716Y-1.678
X4.7716Y-1.8552
T5
X4.868Y-2.013
X4.868Y-2.2886
X4.87Y-1.6288
X4.87Y-1.9044
T6
X4.784Y-5.474
X6.384Y-5.474
X4.794Y-1.484
X6.384Y-1.484
T0
M30
