M48
; DRILL file {KiCad 5.1.10} date Fri Aug 13 22:21:06 2021
; FORMAT={-:-/ absolute / inch / decimal}
; #@! TF.CreationDate,2021-08-13T22:21:06+02:00
; #@! TF.GenerationSoftware,Kicad,Pcbnew,5.1.10
; #@! TF.FileFunction,Plated,1,2,PTH
FMAT,2
INCH
T1C0.0079
T2C0.0157
T3C0.0256
T4C0.0394
T5C0.0512
T6C0.0866
%
G90
G05
T1
X4.6903Y-1.7944
X4.6923Y-1.9724
X4.6963Y-1.9264
X4.7123Y-2.1264
X4.7223Y-2.3504
X4.7303Y-1.7724
X4.7483Y-2.1384
X4.7583Y-1.9684
X4.7603Y-3.9524
X4.7603Y-4.0324
X4.7603Y-4.1524
X4.7603Y-4.2624
X4.7603Y-4.3724
X4.7638Y-2.4044
X4.7638Y-2.4803
X4.7638Y-2.5591
X4.7638Y-2.6493
X4.7638Y-2.7559
X4.7638Y-2.8613
X4.7638Y-3.0053
X4.7638Y-3.1633
X4.7638Y-3.3173
X4.7643Y-1.9264
X4.7743Y-1.7704
X4.7803Y-3.8764
X4.7823Y-1.7164
X4.7903Y-4.4524
X4.8063Y-2.0864
X4.8203Y-4.5324
X4.8203Y-4.5924
X4.8328Y-3.9924
X4.8328Y-4.1124
X4.8328Y-4.2224
X4.8328Y-4.3724
X4.8503Y-4.4124
X4.8653Y-3.7864
X4.8703Y-4.5924
X4.8703Y-4.6624
X4.8863Y-2.0884
X4.9003Y-4.4424
X4.9143Y-2.3604
X4.9173Y-2.8514
X4.9203Y-2.4624
X4.9203Y-3.9524
X4.9203Y-4.0324
X4.9203Y-4.1324
X4.9203Y-4.2224
X4.9223Y-2.5754
X4.9223Y-2.7194
X4.9273Y-3.7284
X4.9363Y-3.4484
X4.9463Y-1.7584
X4.9603Y-4.6624
X4.9833Y-2.5134
X4.9833Y-3.6689
X4.9843Y-2.6494
X4.9843Y-2.7834
X4.9853Y-3.9064
X4.9863Y-2.4124
X4.9883Y-3.2164
X4.9893Y-3.2854
X4.9953Y-3.6349
X5.0Y-5.1575
X5.0Y-5.2362
X5.0Y-5.315
X5.0083Y-2.2544
X5.0163Y-2.0824
X5.0197Y-3.9567
X5.0197Y-4.1339
X5.0203Y-4.4324
X5.0203Y-4.4614
X5.0233Y-2.8569
X5.0303Y-4.6124
X5.0303Y-4.6624
X5.0378Y-2.3749
X5.0403Y-4.4924
X5.0443Y-2.1064
X5.0492Y-1.8012
X5.0603Y-3.3584
X5.0603Y-3.5749
X5.0633Y-4.5134
X5.0783Y-4.4464
X5.0843Y-2.7704
X5.1083Y-4.4834
X5.1103Y-4.0124
X5.1181Y-5.315
X5.1263Y-2.8599
X5.1283Y-2.4824
X5.1303Y-2.5764
X5.1303Y-3.7024
X5.1323Y-3.2724
X5.1323Y-3.3404
X5.1323Y-3.4244
X5.1343Y-2.3124
X5.1343Y-2.6684
X5.1353Y-5.1104
X5.1363Y-4.5054
X5.1403Y-2.3864
X5.1443Y-4.4724
X5.1453Y-3.2044
X5.1628Y-3.6299
X5.1683Y-4.4494
X5.1683Y-4.5074
X5.1703Y-4.5734
X5.1953Y-2.9549
X5.1969Y-5.315
X5.2163Y-3.2924
X5.2163Y-3.3344
X5.2163Y-3.3864
X5.2163Y-3.4264
X5.2173Y-3.5074
X5.2183Y-3.4744
X5.2203Y-3.7024
X5.2253Y-3.6299
X5.2313Y-4.1914
X5.2463Y-4.2574
X5.2503Y-4.0124
X5.2543Y-5.0304
X5.2613Y-3.9134
X5.2643Y-2.3024
X5.2723Y-3.0239
X5.2756Y-5.1094
X5.2854Y-4.5669
X5.2903Y-2.3904
X5.2993Y-3.5134
X5.3003Y-4.505
X5.3123Y-3.6304
X5.315Y-5.3144
X5.3158Y-3.8394
X5.3183Y-3.0759
X5.3193Y-4.3894
X5.3203Y-4.3024
X5.3233Y-4.6457
X5.3248Y-4.5924
X5.3248Y-4.9508
X5.3248Y-5.2264
X5.3333Y-3.5304
X5.3423Y-4.5344
X5.3445Y-4.0256
X5.3445Y-4.1339
X5.3543Y-5.1181
X5.3543Y-5.0044
X5.3543Y-5.1969
X5.3543Y-5.2756
X5.3613Y-3.0329
X5.3642Y-4.6752
X5.3663Y-3.8354
X5.3703Y-2.9274
X5.3703Y-4.5924
X5.3713Y-4.8574
X5.3733Y-3.1749
X5.3733Y-3.2959
X5.3803Y-4.0124
X5.3803Y-4.2424
X5.3839Y-3.7402
X5.3903Y-4.9374
X5.3996Y-3.4331
X5.4003Y-4.3124
X5.4003Y-4.6644
X5.4023Y-2.3044
X5.4035Y-4.579
X5.4043Y-3.3879
X5.4093Y-4.3934
X5.4153Y-3.0979
X5.4173Y-5.2044
X5.4213Y-4.8564
X5.4293Y-3.6309
X5.4331Y-4.3012
X5.4331Y-4.3701
X5.4428Y-4.5924
X5.4429Y-3.8189
X5.4483Y-4.5074
X5.4503Y-4.0124
X5.4517Y-3.5435
X5.4603Y-2.3944
X5.4623Y-4.8574
X5.4643Y-5.0054
X5.4653Y-2.8624
X5.4673Y-3.8724
X5.4673Y-3.9474
X5.4693Y-4.6654
X5.4703Y-2.7474
X5.4713Y-4.3104
X5.4743Y-4.0984
X5.4763Y-5.1264
X5.478Y-3.5674
X5.4803Y-4.2044
X5.4833Y-3.2159
X5.4903Y-3.6964
X5.4903Y-5.2064
X5.4903Y-5.2914
X5.4923Y-4.5324
X5.4928Y-4.3824
X5.4953Y-3.9824
X5.5003Y-4.5924
X5.5042Y-3.4788
X5.5283Y-3.6324
X5.5323Y-3.1804
X5.5333Y-3.52
X5.5353Y-4.2374
X5.5423Y-5.3084
X5.5463Y-2.3524
X5.5493Y-4.8354
X5.5503Y-2.7524
X5.5528Y-2.9899
X5.5592Y-3.2965
X5.5603Y-3.9824
X5.561Y-4.2913
X5.5683Y-3.2164
X5.5709Y-4.2618
X5.5753Y-5.2924
X5.5773Y-4.5334
X5.5803Y-2.8644
X5.5823Y-2.5204
X5.5823Y-4.8594
X5.5843Y-3.1409
X5.5863Y-2.9904
X5.5877Y-3.5224
X5.5923Y-3.2404
X5.5923Y-5.0714
X5.5963Y-3.2884
X5.6003Y-2.7974
X5.6004Y-3.9272
X5.6102Y-4.124
X5.6102Y-4.3996
X5.6102Y-4.9508
X5.6153Y-3.6709
X5.6183Y-2.8644
X5.6299Y-5.2264
X5.6303Y-2.9904
X5.6403Y-5.2894
X5.6453Y-4.2913
X5.6501Y-3.52
X5.6529Y-3.4811
X5.6533Y-3.5629
X5.6543Y-5.0314
X5.6583Y-2.8644
X5.6594Y-4.7441
X5.6623Y-3.6924
X5.6633Y-3.1244
X5.6643Y-3.6324
X5.6683Y-2.4644
X5.6683Y-3.1679
X5.6693Y-4.5324
X5.6723Y-2.9904
X5.6803Y-2.7484
X5.6803Y-3.2124
X5.6953Y-4.0199
X5.6963Y-2.8644
X5.6973Y-4.2324
X5.6973Y-4.2913
X5.6983Y-2.6424
X5.6983Y-4.1874
X5.7033Y-5.3024
X5.7087Y-3.4252
X5.7283Y-4.2913
X5.7363Y-2.8644
X5.7483Y-3.9249
X5.7513Y-3.1549
X5.7523Y-4.9224
X5.7523Y-4.9544
X5.7543Y-5.2044
X5.7553Y-4.3824
X5.7573Y-5.1294
X5.7579Y-3.8484
X5.7579Y-4.5866
X5.7579Y-4.6752
X5.7603Y-3.0149
X5.7603Y-4.0299
X5.7603Y-5.2684
X5.7613Y-3.7609
X5.7624Y-3.2071
X5.7628Y-4.1649
X5.7693Y-5.0314
X5.7693Y-2.9658
X5.7728Y-4.1074
X5.7736Y-3.3336
X5.7743Y-2.5724
X5.7753Y-3.1824
X5.7773Y-4.8414
X5.7853Y-4.311
X5.7863Y-4.4094
X5.7883Y-4.2074
X5.7883Y-4.9344
X5.7963Y-4.8644
X5.7973Y-3.4269
X5.798Y-3.2047
X5.8043Y-4.3874
X5.8071Y-4.5866
X5.8123Y-3.9424
X5.8163Y-3.3859
X5.8173Y-3.1329
X5.8183Y-3.0884
X5.8223Y-4.4084
X5.8288Y-3.3323
X5.8327Y-3.2038
X5.8343Y-5.2084
X5.8353Y-4.0874
X5.8353Y-4.1224
X5.8366Y-4.5314
X5.8366Y-4.8917
X5.8503Y-2.9824
X5.8528Y-2.9224
X5.8563Y-3.8304
X5.8573Y-4.9804
X5.8603Y-3.0574
X5.8633Y-4.0984
X5.8653Y-3.3299
X5.8653Y-3.9654
X5.8661Y-4.7047
X5.8683Y-3.0984
X5.876Y-4.8228
X5.8783Y-4.9394
X5.8829Y-3.2033
X5.8863Y-5.1254
X5.8913Y-3.7469
X5.8928Y-4.1549
X5.8933Y-3.3799
X5.8978Y-4.2892
X5.8978Y-4.3849
X5.8983Y-3.9904
X5.9003Y-2.9784
X5.9083Y-5.2414
X5.9093Y-4.0934
X5.9154Y-3.8574
X5.9154Y-4.5866
X5.9163Y-5.2064
X5.9173Y-5.1654
X5.9203Y-3.2904
X5.9213Y-3.3509
X5.9263Y-4.4144
X5.9273Y-4.3864
X5.9303Y-5.2914
X5.9383Y-2.9844
X5.9453Y-4.5344
X5.948Y-3.2047
X5.9483Y-3.9644
X5.9503Y-4.1924
X5.9513Y-3.4489
X5.9553Y-4.2904
X5.9744Y-4.7933
X5.9763Y-5.1054
X5.9783Y-3.2904
X5.9853Y-5.0174
X5.9993Y-3.3149
X6.0013Y-3.9759
X6.0013Y-5.2934
X6.0023Y-3.5189
X6.0043Y-3.2042
X6.0103Y-2.9904
X6.0143Y-4.5344
X6.0153Y-3.1074
X6.0183Y-4.1884
X6.0223Y-3.3519
X6.0303Y-3.0704
X6.0335Y-4.6752
X6.0433Y-3.8484
X6.0433Y-4.124
X6.0433Y-4.5866
X6.0453Y-4.4016
X6.0531Y-4.9508
X6.0531Y-5.2264
X6.0554Y-3.2052
X6.0593Y-3.3819
X6.063Y-4.9213
X6.0753Y-3.2909
X6.0773Y-5.2934
X6.0803Y-4.5364
X6.0873Y-3.5839
X6.0903Y-3.5159
X6.0925Y-4.7835
X6.0963Y-5.0154
X6.1023Y-3.0704
X6.1024Y-3.937
X6.1053Y-3.3399
X6.1243Y-2.9864
X6.1278Y-3.1774
X6.1478Y-3.2649
X6.1603Y-3.1349
X6.1628Y-3.3974
X6.1893Y-5.2834
X6.1903Y-3.5074
X6.1969Y-3.2441
X6.1973Y-5.2204
X6.1983Y-3.4524
X6.2053Y-5.1504
X6.2153Y-4.4354
X6.2178Y-3.3374
X6.2183Y-4.9044
X6.2193Y-4.9814
X6.2203Y-3.1924
X6.2203Y-3.5424
X6.2203Y-3.5999
X6.2203Y-3.6724
X6.2203Y-3.7724
X6.2203Y-3.8524
X6.2203Y-3.9324
X6.2203Y-4.0624
X6.2203Y-4.1424
X6.2203Y-4.3424
X6.2205Y-4.2126
X6.2263Y-3.1024
X6.2328Y-3.5124
X6.2423Y-2.9884
X6.2543Y-4.6944
X6.2559Y-4.5315
X6.2593Y-5.0814
X6.2628Y-3.3124
X6.2678Y-4.3824
X6.2753Y-4.8574
X6.2778Y-3.3949
X6.2795Y-3.5039
X6.2795Y-3.6811
X6.2795Y-3.9409
X6.2795Y-4.1654
X6.2853Y-3.2124
X6.2853Y-4.4524
X6.3063Y-3.0464
X6.3103Y-3.3599
X6.3253Y-3.4474
X6.3253Y-4.4099
X6.3278Y-3.1749
X6.3278Y-3.2974
X6.3278Y-3.5649
X6.3278Y-3.6824
X6.3278Y-3.8449
X6.3278Y-3.9749
X6.3278Y-4.0849
X6.3278Y-4.1749
X6.3278Y-4.3199
X6.3383Y-4.4764
X6.3383Y-4.5334
X6.3483Y-4.8554
X6.3703Y-4.4449
X6.3778Y-3.4324
X6.3778Y-3.5774
X6.3778Y-3.6849
X6.3778Y-3.9774
X6.3778Y-4.2574
X6.3783Y-3.8374
X6.3783Y-4.1254
X6.3793Y-4.3604
X6.3803Y-3.1104
X6.3883Y-3.3504
X6.3953Y-3.2024
X6.4003Y-3.2794
X6.4033Y-4.4914
X6.4273Y-4.2724
X6.4273Y-4.3914
X6.4278Y-3.5174
X6.4278Y-3.6299
X6.4278Y-3.7699
X6.4278Y-3.9049
X6.4278Y-4.0799
X6.4278Y-4.1749
X6.4463Y-4.8144
X6.4563Y-3.3384
X6.4778Y-3.5049
X6.4778Y-3.5824
X6.4778Y-3.6924
X6.4778Y-3.8099
X6.4778Y-3.9324
X6.4778Y-4.0449
X6.4778Y-4.1724
T2
X5.0128Y-4.3974
X5.0293Y-4.5584
X5.2653Y-3.7149
X6.3083Y-1.7394
X6.3123Y-1.6134
X6.4103Y-1.6714
T3
X4.9213Y-2.9944
X4.9213Y-3.0444
X4.9213Y-3.0944
X4.9213Y-3.1444
T4
X4.7499Y-2.0546
X4.7499Y-2.2318
X4.7519Y-1.6704
X4.7519Y-1.8475
T5
X4.8483Y-2.0054
X4.8483Y-2.281
X4.8503Y-1.6212
X4.8503Y-1.8968
T6
X4.7736Y-1.4764
X4.7736Y-5.4724
X6.3681Y-1.4764
X6.3681Y-5.4724
T0
M30
