G04 #@! TF.GenerationSoftware,KiCad,Pcbnew,5.1.6-c6e7f7d~87~ubuntu18.04.1*
G04 #@! TF.CreationDate,2020-08-01T21:45:34+02:00*
G04 #@! TF.ProjectId,HMI,484d492e-6b69-4636-9164-5f7063625858,rev?*
G04 #@! TF.SameCoordinates,Original*
G04 #@! TF.FileFunction,Soldermask,Bot*
G04 #@! TF.FilePolarity,Negative*
%FSLAX46Y46*%
G04 Gerber Fmt 4.6, Leading zero omitted, Abs format (unit mm)*
G04 Created by KiCad (PCBNEW 5.1.6-c6e7f7d~87~ubuntu18.04.1) date 2020-08-01 21:45:34*
%MOMM*%
%LPD*%
G01*
G04 APERTURE LIST*
%ADD10C,0.100000*%
G04 APERTURE END LIST*
D10*
X121642500Y-42621200D02*
G75*
G03*
X121642500Y-42621200I-444500J0D01*
G01*
X121642500Y-47121200D02*
G75*
G03*
X121642500Y-47121200I-444500J0D01*
G01*
X124333000Y-48371200D02*
G75*
G03*
X124333000Y-48371200I-635000J0D01*
G01*
X124333000Y-41371200D02*
G75*
G03*
X124333000Y-41371200I-635000J0D01*
G01*
X121591700Y-52380200D02*
G75*
G03*
X121591700Y-52380200I-444500J0D01*
G01*
X121591700Y-56880200D02*
G75*
G03*
X121591700Y-56880200I-444500J0D01*
G01*
X124282200Y-58130200D02*
G75*
G03*
X124282200Y-58130200I-635000J0D01*
G01*
X124282200Y-51130200D02*
G75*
G03*
X124282200Y-51130200I-635000J0D01*
G01*
G36*
X162722685Y-137163575D02*
G01*
X163077743Y-137310645D01*
X163077745Y-137310646D01*
X163397290Y-137524159D01*
X163669041Y-137795910D01*
X163882554Y-138115455D01*
X163882555Y-138115457D01*
X164029625Y-138470515D01*
X164104600Y-138847442D01*
X164104600Y-139231758D01*
X164029625Y-139608685D01*
X163882555Y-139963743D01*
X163882554Y-139963745D01*
X163669041Y-140283290D01*
X163397290Y-140555041D01*
X163077745Y-140768554D01*
X163077744Y-140768555D01*
X163077743Y-140768555D01*
X162722685Y-140915625D01*
X162345758Y-140990600D01*
X161961442Y-140990600D01*
X161584515Y-140915625D01*
X161229457Y-140768555D01*
X161229456Y-140768555D01*
X161229455Y-140768554D01*
X160909910Y-140555041D01*
X160638159Y-140283290D01*
X160424646Y-139963745D01*
X160424645Y-139963743D01*
X160277575Y-139608685D01*
X160202600Y-139231758D01*
X160202600Y-138847442D01*
X160277575Y-138470515D01*
X160424645Y-138115457D01*
X160424646Y-138115455D01*
X160638159Y-137795910D01*
X160909910Y-137524159D01*
X161229455Y-137310646D01*
X161229457Y-137310645D01*
X161584515Y-137163575D01*
X161961442Y-137088600D01*
X162345758Y-137088600D01*
X162722685Y-137163575D01*
G37*
G36*
X122082685Y-137163575D02*
G01*
X122437743Y-137310645D01*
X122437745Y-137310646D01*
X122757290Y-137524159D01*
X123029041Y-137795910D01*
X123242554Y-138115455D01*
X123242555Y-138115457D01*
X123389625Y-138470515D01*
X123464600Y-138847442D01*
X123464600Y-139231758D01*
X123389625Y-139608685D01*
X123242555Y-139963743D01*
X123242554Y-139963745D01*
X123029041Y-140283290D01*
X122757290Y-140555041D01*
X122437745Y-140768554D01*
X122437744Y-140768555D01*
X122437743Y-140768555D01*
X122082685Y-140915625D01*
X121705758Y-140990600D01*
X121321442Y-140990600D01*
X120944515Y-140915625D01*
X120589457Y-140768555D01*
X120589456Y-140768555D01*
X120589455Y-140768554D01*
X120269910Y-140555041D01*
X119998159Y-140283290D01*
X119784646Y-139963745D01*
X119784645Y-139963743D01*
X119637575Y-139608685D01*
X119562600Y-139231758D01*
X119562600Y-138847442D01*
X119637575Y-138470515D01*
X119784645Y-138115457D01*
X119784646Y-138115455D01*
X119998159Y-137795910D01*
X120269910Y-137524159D01*
X120589455Y-137310646D01*
X120589457Y-137310645D01*
X120944515Y-137163575D01*
X121321442Y-137088600D01*
X121705758Y-137088600D01*
X122082685Y-137163575D01*
G37*
G36*
X131505000Y-118421000D02*
G01*
X129203000Y-118421000D01*
X129203000Y-116519000D01*
X131505000Y-116519000D01*
X131505000Y-118421000D01*
G37*
G36*
X134305000Y-115771000D02*
G01*
X132903000Y-115771000D01*
X132903000Y-110869000D01*
X134305000Y-110869000D01*
X134305000Y-115771000D01*
G37*
G36*
X131505000Y-110121000D02*
G01*
X129203000Y-110121000D01*
X129203000Y-108219000D01*
X131505000Y-108219000D01*
X131505000Y-110121000D01*
G37*
G36*
X135939391Y-95514985D02*
G01*
X135973369Y-95525293D01*
X136004690Y-95542034D01*
X136032139Y-95564561D01*
X136054666Y-95592010D01*
X136071407Y-95623331D01*
X136081715Y-95657309D01*
X136085800Y-95698790D01*
X136085800Y-96300010D01*
X136081715Y-96341491D01*
X136071407Y-96375469D01*
X136054666Y-96406790D01*
X136032139Y-96434239D01*
X136004690Y-96456766D01*
X135973369Y-96473507D01*
X135939391Y-96483815D01*
X135897910Y-96487900D01*
X135221690Y-96487900D01*
X135180209Y-96483815D01*
X135146231Y-96473507D01*
X135114910Y-96456766D01*
X135087461Y-96434239D01*
X135064934Y-96406790D01*
X135048193Y-96375469D01*
X135037885Y-96341491D01*
X135033800Y-96300010D01*
X135033800Y-95698790D01*
X135037885Y-95657309D01*
X135048193Y-95623331D01*
X135064934Y-95592010D01*
X135087461Y-95564561D01*
X135114910Y-95542034D01*
X135146231Y-95525293D01*
X135180209Y-95514985D01*
X135221690Y-95510900D01*
X135897910Y-95510900D01*
X135939391Y-95514985D01*
G37*
G36*
X138942851Y-94549584D02*
G01*
X138959243Y-94554557D01*
X138974355Y-94562634D01*
X138987598Y-94573502D01*
X138998467Y-94586747D01*
X139002561Y-94594406D01*
X139016174Y-94614780D01*
X139033501Y-94632107D01*
X139053876Y-94645721D01*
X139076514Y-94655098D01*
X139100548Y-94659879D01*
X139125052Y-94659879D01*
X139149085Y-94655099D01*
X139171724Y-94645721D01*
X139192098Y-94632108D01*
X139209425Y-94614781D01*
X139223039Y-94594406D01*
X139227133Y-94586747D01*
X139238002Y-94573502D01*
X139251245Y-94562634D01*
X139266357Y-94554557D01*
X139282749Y-94549584D01*
X139305941Y-94547300D01*
X139719659Y-94547300D01*
X139742851Y-94549584D01*
X139759243Y-94554557D01*
X139774355Y-94562634D01*
X139787598Y-94573502D01*
X139798467Y-94586747D01*
X139802561Y-94594406D01*
X139816174Y-94614780D01*
X139833501Y-94632107D01*
X139853876Y-94645721D01*
X139876514Y-94655098D01*
X139900548Y-94659879D01*
X139925052Y-94659879D01*
X139949085Y-94655099D01*
X139971724Y-94645721D01*
X139992098Y-94632108D01*
X140009425Y-94614781D01*
X140023039Y-94594406D01*
X140027133Y-94586747D01*
X140038002Y-94573502D01*
X140051245Y-94562634D01*
X140066357Y-94554557D01*
X140082749Y-94549584D01*
X140105941Y-94547300D01*
X140519659Y-94547300D01*
X140542851Y-94549584D01*
X140559243Y-94554557D01*
X140574355Y-94562634D01*
X140587598Y-94573502D01*
X140598467Y-94586747D01*
X140602561Y-94594406D01*
X140616174Y-94614780D01*
X140633501Y-94632107D01*
X140653876Y-94645721D01*
X140676514Y-94655098D01*
X140700548Y-94659879D01*
X140725052Y-94659879D01*
X140749085Y-94655099D01*
X140771724Y-94645721D01*
X140792098Y-94632108D01*
X140809425Y-94614781D01*
X140823039Y-94594406D01*
X140827133Y-94586747D01*
X140838002Y-94573502D01*
X140851245Y-94562634D01*
X140866357Y-94554557D01*
X140882749Y-94549584D01*
X140905941Y-94547300D01*
X141319659Y-94547300D01*
X141342851Y-94549584D01*
X141359243Y-94554557D01*
X141374355Y-94562634D01*
X141387598Y-94573502D01*
X141398467Y-94586747D01*
X141402561Y-94594406D01*
X141416174Y-94614780D01*
X141433501Y-94632107D01*
X141453876Y-94645721D01*
X141476514Y-94655098D01*
X141500548Y-94659879D01*
X141525052Y-94659879D01*
X141549085Y-94655099D01*
X141571724Y-94645721D01*
X141592098Y-94632108D01*
X141609425Y-94614781D01*
X141623039Y-94594406D01*
X141627133Y-94586747D01*
X141638002Y-94573502D01*
X141651245Y-94562634D01*
X141666357Y-94554557D01*
X141682749Y-94549584D01*
X141705941Y-94547300D01*
X142119659Y-94547300D01*
X142142851Y-94549584D01*
X142159243Y-94554557D01*
X142174355Y-94562634D01*
X142187598Y-94573502D01*
X142198467Y-94586747D01*
X142202561Y-94594406D01*
X142216174Y-94614780D01*
X142233501Y-94632107D01*
X142253876Y-94645721D01*
X142276514Y-94655098D01*
X142300548Y-94659879D01*
X142325052Y-94659879D01*
X142349085Y-94655099D01*
X142371724Y-94645721D01*
X142392098Y-94632108D01*
X142409425Y-94614781D01*
X142423039Y-94594406D01*
X142427133Y-94586747D01*
X142438002Y-94573502D01*
X142451245Y-94562634D01*
X142466357Y-94554557D01*
X142482749Y-94549584D01*
X142505941Y-94547300D01*
X142919659Y-94547300D01*
X142942851Y-94549584D01*
X142959243Y-94554557D01*
X142974355Y-94562634D01*
X142987598Y-94573502D01*
X142998467Y-94586747D01*
X143002561Y-94594406D01*
X143016174Y-94614780D01*
X143033501Y-94632107D01*
X143053876Y-94645721D01*
X143076514Y-94655098D01*
X143100548Y-94659879D01*
X143125052Y-94659879D01*
X143149085Y-94655099D01*
X143171724Y-94645721D01*
X143192098Y-94632108D01*
X143209425Y-94614781D01*
X143223039Y-94594406D01*
X143227133Y-94586747D01*
X143238002Y-94573502D01*
X143251245Y-94562634D01*
X143266357Y-94554557D01*
X143282749Y-94549584D01*
X143305941Y-94547300D01*
X143719659Y-94547300D01*
X143742851Y-94549584D01*
X143759243Y-94554557D01*
X143774355Y-94562634D01*
X143787598Y-94573502D01*
X143798467Y-94586747D01*
X143802561Y-94594406D01*
X143816174Y-94614780D01*
X143833501Y-94632107D01*
X143853876Y-94645721D01*
X143876514Y-94655098D01*
X143900548Y-94659879D01*
X143925052Y-94659879D01*
X143949085Y-94655099D01*
X143971724Y-94645721D01*
X143992098Y-94632108D01*
X144009425Y-94614781D01*
X144023039Y-94594406D01*
X144027133Y-94586747D01*
X144038002Y-94573502D01*
X144051245Y-94562634D01*
X144066357Y-94554557D01*
X144082749Y-94549584D01*
X144105941Y-94547300D01*
X144519659Y-94547300D01*
X144542851Y-94549584D01*
X144559243Y-94554557D01*
X144574355Y-94562634D01*
X144587598Y-94573502D01*
X144598466Y-94586745D01*
X144606543Y-94601857D01*
X144611516Y-94618249D01*
X144613800Y-94641441D01*
X144613800Y-96055159D01*
X144611516Y-96078351D01*
X144606543Y-96094743D01*
X144598466Y-96109855D01*
X144587598Y-96123098D01*
X144574355Y-96133966D01*
X144559243Y-96142043D01*
X144542851Y-96147016D01*
X144519659Y-96149300D01*
X144105941Y-96149300D01*
X144082749Y-96147016D01*
X144066357Y-96142043D01*
X144051245Y-96133966D01*
X144038002Y-96123098D01*
X144027133Y-96109853D01*
X144023039Y-96102194D01*
X144009426Y-96081820D01*
X143992099Y-96064493D01*
X143971724Y-96050879D01*
X143949086Y-96041502D01*
X143925052Y-96036721D01*
X143900548Y-96036721D01*
X143876515Y-96041501D01*
X143853876Y-96050879D01*
X143833502Y-96064492D01*
X143816175Y-96081819D01*
X143802561Y-96102194D01*
X143798467Y-96109853D01*
X143787598Y-96123098D01*
X143774355Y-96133966D01*
X143759243Y-96142043D01*
X143742851Y-96147016D01*
X143719659Y-96149300D01*
X143305941Y-96149300D01*
X143282749Y-96147016D01*
X143266357Y-96142043D01*
X143251245Y-96133966D01*
X143238002Y-96123098D01*
X143227133Y-96109853D01*
X143223039Y-96102194D01*
X143209426Y-96081820D01*
X143192099Y-96064493D01*
X143171724Y-96050879D01*
X143149086Y-96041502D01*
X143125052Y-96036721D01*
X143100548Y-96036721D01*
X143076515Y-96041501D01*
X143053876Y-96050879D01*
X143033502Y-96064492D01*
X143016175Y-96081819D01*
X143002561Y-96102194D01*
X142998467Y-96109853D01*
X142987598Y-96123098D01*
X142974355Y-96133966D01*
X142959243Y-96142043D01*
X142942851Y-96147016D01*
X142919659Y-96149300D01*
X142505941Y-96149300D01*
X142482749Y-96147016D01*
X142466357Y-96142043D01*
X142451245Y-96133966D01*
X142438002Y-96123098D01*
X142427133Y-96109853D01*
X142423039Y-96102194D01*
X142409426Y-96081820D01*
X142392099Y-96064493D01*
X142371724Y-96050879D01*
X142349086Y-96041502D01*
X142325052Y-96036721D01*
X142300548Y-96036721D01*
X142276515Y-96041501D01*
X142253876Y-96050879D01*
X142233502Y-96064492D01*
X142216175Y-96081819D01*
X142202561Y-96102194D01*
X142198467Y-96109853D01*
X142187598Y-96123098D01*
X142174355Y-96133966D01*
X142159243Y-96142043D01*
X142142851Y-96147016D01*
X142119659Y-96149300D01*
X141705941Y-96149300D01*
X141682749Y-96147016D01*
X141666357Y-96142043D01*
X141651245Y-96133966D01*
X141638002Y-96123098D01*
X141627133Y-96109853D01*
X141623039Y-96102194D01*
X141609426Y-96081820D01*
X141592099Y-96064493D01*
X141571724Y-96050879D01*
X141549086Y-96041502D01*
X141525052Y-96036721D01*
X141500548Y-96036721D01*
X141476515Y-96041501D01*
X141453876Y-96050879D01*
X141433502Y-96064492D01*
X141416175Y-96081819D01*
X141402561Y-96102194D01*
X141398467Y-96109853D01*
X141387598Y-96123098D01*
X141374355Y-96133966D01*
X141359243Y-96142043D01*
X141342851Y-96147016D01*
X141319659Y-96149300D01*
X140905941Y-96149300D01*
X140882749Y-96147016D01*
X140866357Y-96142043D01*
X140851245Y-96133966D01*
X140838002Y-96123098D01*
X140827133Y-96109853D01*
X140823039Y-96102194D01*
X140809426Y-96081820D01*
X140792099Y-96064493D01*
X140771724Y-96050879D01*
X140749086Y-96041502D01*
X140725052Y-96036721D01*
X140700548Y-96036721D01*
X140676515Y-96041501D01*
X140653876Y-96050879D01*
X140633502Y-96064492D01*
X140616175Y-96081819D01*
X140602561Y-96102194D01*
X140598467Y-96109853D01*
X140587598Y-96123098D01*
X140574355Y-96133966D01*
X140559243Y-96142043D01*
X140542851Y-96147016D01*
X140519659Y-96149300D01*
X140105941Y-96149300D01*
X140082749Y-96147016D01*
X140066357Y-96142043D01*
X140051245Y-96133966D01*
X140038002Y-96123098D01*
X140027133Y-96109853D01*
X140023039Y-96102194D01*
X140009426Y-96081820D01*
X139992099Y-96064493D01*
X139971724Y-96050879D01*
X139949086Y-96041502D01*
X139925052Y-96036721D01*
X139900548Y-96036721D01*
X139876515Y-96041501D01*
X139853876Y-96050879D01*
X139833502Y-96064492D01*
X139816175Y-96081819D01*
X139802561Y-96102194D01*
X139798467Y-96109853D01*
X139787598Y-96123098D01*
X139774355Y-96133966D01*
X139759243Y-96142043D01*
X139742851Y-96147016D01*
X139719659Y-96149300D01*
X139305941Y-96149300D01*
X139282749Y-96147016D01*
X139266357Y-96142043D01*
X139251245Y-96133966D01*
X139238002Y-96123098D01*
X139227133Y-96109853D01*
X139223039Y-96102194D01*
X139209426Y-96081820D01*
X139192099Y-96064493D01*
X139171724Y-96050879D01*
X139149086Y-96041502D01*
X139125052Y-96036721D01*
X139100548Y-96036721D01*
X139076515Y-96041501D01*
X139053876Y-96050879D01*
X139033502Y-96064492D01*
X139016175Y-96081819D01*
X139002561Y-96102194D01*
X138998467Y-96109853D01*
X138987598Y-96123098D01*
X138974355Y-96133966D01*
X138959243Y-96142043D01*
X138942851Y-96147016D01*
X138919659Y-96149300D01*
X138505941Y-96149300D01*
X138482749Y-96147016D01*
X138466357Y-96142043D01*
X138451245Y-96133966D01*
X138438002Y-96123098D01*
X138427134Y-96109855D01*
X138419057Y-96094743D01*
X138414084Y-96078351D01*
X138411800Y-96055159D01*
X138411800Y-94641441D01*
X138414084Y-94618249D01*
X138419057Y-94601857D01*
X138427134Y-94586745D01*
X138438002Y-94573502D01*
X138451245Y-94562634D01*
X138466357Y-94554557D01*
X138482749Y-94549584D01*
X138505941Y-94547300D01*
X138919659Y-94547300D01*
X138942851Y-94549584D01*
G37*
G36*
X151649891Y-94435985D02*
G01*
X151683869Y-94446293D01*
X151715190Y-94463034D01*
X151742639Y-94485561D01*
X151765166Y-94513010D01*
X151781907Y-94544331D01*
X151792215Y-94578309D01*
X151796300Y-94619790D01*
X151796300Y-95296010D01*
X151792215Y-95337491D01*
X151781907Y-95371469D01*
X151765166Y-95402790D01*
X151742639Y-95430239D01*
X151715190Y-95452766D01*
X151683869Y-95469507D01*
X151649891Y-95479815D01*
X151608410Y-95483900D01*
X151007190Y-95483900D01*
X150965709Y-95479815D01*
X150931731Y-95469507D01*
X150900410Y-95452766D01*
X150872961Y-95430239D01*
X150850434Y-95402790D01*
X150833693Y-95371469D01*
X150823385Y-95337491D01*
X150819300Y-95296010D01*
X150819300Y-94619790D01*
X150823385Y-94578309D01*
X150833693Y-94544331D01*
X150850434Y-94513010D01*
X150872961Y-94485561D01*
X150900410Y-94463034D01*
X150931731Y-94446293D01*
X150965709Y-94435985D01*
X151007190Y-94431900D01*
X151608410Y-94431900D01*
X151649891Y-94435985D01*
G37*
G36*
X153224891Y-94435985D02*
G01*
X153258869Y-94446293D01*
X153290190Y-94463034D01*
X153317639Y-94485561D01*
X153340166Y-94513010D01*
X153356907Y-94544331D01*
X153367215Y-94578309D01*
X153371300Y-94619790D01*
X153371300Y-95296010D01*
X153367215Y-95337491D01*
X153356907Y-95371469D01*
X153340166Y-95402790D01*
X153317639Y-95430239D01*
X153290190Y-95452766D01*
X153258869Y-95469507D01*
X153224891Y-95479815D01*
X153183410Y-95483900D01*
X152582190Y-95483900D01*
X152540709Y-95479815D01*
X152506731Y-95469507D01*
X152475410Y-95452766D01*
X152447961Y-95430239D01*
X152425434Y-95402790D01*
X152408693Y-95371469D01*
X152398385Y-95337491D01*
X152394300Y-95296010D01*
X152394300Y-94619790D01*
X152398385Y-94578309D01*
X152408693Y-94544331D01*
X152425434Y-94513010D01*
X152447961Y-94485561D01*
X152475410Y-94463034D01*
X152506731Y-94446293D01*
X152540709Y-94435985D01*
X152582190Y-94431900D01*
X153183410Y-94431900D01*
X153224891Y-94435985D01*
G37*
G36*
X135939391Y-93939985D02*
G01*
X135973369Y-93950293D01*
X136004690Y-93967034D01*
X136032139Y-93989561D01*
X136054666Y-94017010D01*
X136071407Y-94048331D01*
X136081715Y-94082309D01*
X136085800Y-94123790D01*
X136085800Y-94725010D01*
X136081715Y-94766491D01*
X136071407Y-94800469D01*
X136054666Y-94831790D01*
X136032139Y-94859239D01*
X136004690Y-94881766D01*
X135973369Y-94898507D01*
X135939391Y-94908815D01*
X135897910Y-94912900D01*
X135221690Y-94912900D01*
X135180209Y-94908815D01*
X135146231Y-94898507D01*
X135114910Y-94881766D01*
X135087461Y-94859239D01*
X135064934Y-94831790D01*
X135048193Y-94800469D01*
X135037885Y-94766491D01*
X135033800Y-94725010D01*
X135033800Y-94123790D01*
X135037885Y-94082309D01*
X135048193Y-94048331D01*
X135064934Y-94017010D01*
X135087461Y-93989561D01*
X135114910Y-93967034D01*
X135146231Y-93950293D01*
X135180209Y-93939985D01*
X135221690Y-93935900D01*
X135897910Y-93935900D01*
X135939391Y-93939985D01*
G37*
G36*
X146417851Y-88074584D02*
G01*
X146434243Y-88079557D01*
X146449355Y-88087634D01*
X146462598Y-88098502D01*
X146473466Y-88111745D01*
X146481543Y-88126857D01*
X146486516Y-88143249D01*
X146488800Y-88166441D01*
X146488800Y-88580159D01*
X146486516Y-88603351D01*
X146481543Y-88619743D01*
X146473466Y-88634855D01*
X146462598Y-88648098D01*
X146449353Y-88658967D01*
X146441694Y-88663061D01*
X146421320Y-88676674D01*
X146403993Y-88694001D01*
X146390379Y-88714376D01*
X146381002Y-88737014D01*
X146376221Y-88761048D01*
X146376221Y-88785552D01*
X146381001Y-88809585D01*
X146390379Y-88832224D01*
X146403992Y-88852598D01*
X146421319Y-88869925D01*
X146441694Y-88883539D01*
X146449353Y-88887633D01*
X146462598Y-88898502D01*
X146473466Y-88911745D01*
X146481543Y-88926857D01*
X146486516Y-88943249D01*
X146488800Y-88966441D01*
X146488800Y-89380159D01*
X146486516Y-89403351D01*
X146481543Y-89419743D01*
X146473466Y-89434855D01*
X146462598Y-89448098D01*
X146449353Y-89458967D01*
X146441694Y-89463061D01*
X146421320Y-89476674D01*
X146403993Y-89494001D01*
X146390379Y-89514376D01*
X146381002Y-89537014D01*
X146376221Y-89561048D01*
X146376221Y-89585552D01*
X146381001Y-89609585D01*
X146390379Y-89632224D01*
X146403992Y-89652598D01*
X146421319Y-89669925D01*
X146441694Y-89683539D01*
X146449353Y-89687633D01*
X146462598Y-89698502D01*
X146473466Y-89711745D01*
X146481543Y-89726857D01*
X146486516Y-89743249D01*
X146488800Y-89766441D01*
X146488800Y-90180159D01*
X146486516Y-90203351D01*
X146481543Y-90219743D01*
X146473466Y-90234855D01*
X146462598Y-90248098D01*
X146449353Y-90258967D01*
X146441694Y-90263061D01*
X146421320Y-90276674D01*
X146403993Y-90294001D01*
X146390379Y-90314376D01*
X146381002Y-90337014D01*
X146376221Y-90361048D01*
X146376221Y-90385552D01*
X146381001Y-90409585D01*
X146390379Y-90432224D01*
X146403992Y-90452598D01*
X146421319Y-90469925D01*
X146441694Y-90483539D01*
X146449353Y-90487633D01*
X146462598Y-90498502D01*
X146473466Y-90511745D01*
X146481543Y-90526857D01*
X146486516Y-90543249D01*
X146488800Y-90566441D01*
X146488800Y-90980159D01*
X146486516Y-91003351D01*
X146481543Y-91019743D01*
X146473466Y-91034855D01*
X146462598Y-91048098D01*
X146449353Y-91058967D01*
X146441694Y-91063061D01*
X146421320Y-91076674D01*
X146403993Y-91094001D01*
X146390379Y-91114376D01*
X146381002Y-91137014D01*
X146376221Y-91161048D01*
X146376221Y-91185552D01*
X146381001Y-91209585D01*
X146390379Y-91232224D01*
X146403992Y-91252598D01*
X146421319Y-91269925D01*
X146441694Y-91283539D01*
X146449353Y-91287633D01*
X146462598Y-91298502D01*
X146473466Y-91311745D01*
X146481543Y-91326857D01*
X146486516Y-91343249D01*
X146488800Y-91366441D01*
X146488800Y-91780159D01*
X146486516Y-91803351D01*
X146481543Y-91819743D01*
X146473466Y-91834855D01*
X146462598Y-91848098D01*
X146449353Y-91858967D01*
X146441694Y-91863061D01*
X146421320Y-91876674D01*
X146403993Y-91894001D01*
X146390379Y-91914376D01*
X146381002Y-91937014D01*
X146376221Y-91961048D01*
X146376221Y-91985552D01*
X146381001Y-92009585D01*
X146390379Y-92032224D01*
X146403992Y-92052598D01*
X146421319Y-92069925D01*
X146441694Y-92083539D01*
X146449353Y-92087633D01*
X146462598Y-92098502D01*
X146473466Y-92111745D01*
X146481543Y-92126857D01*
X146486516Y-92143249D01*
X146488800Y-92166441D01*
X146488800Y-92580159D01*
X146486516Y-92603351D01*
X146481543Y-92619743D01*
X146473466Y-92634855D01*
X146462598Y-92648098D01*
X146449353Y-92658967D01*
X146441694Y-92663061D01*
X146421320Y-92676674D01*
X146403993Y-92694001D01*
X146390379Y-92714376D01*
X146381002Y-92737014D01*
X146376221Y-92761048D01*
X146376221Y-92785552D01*
X146381001Y-92809585D01*
X146390379Y-92832224D01*
X146403992Y-92852598D01*
X146421319Y-92869925D01*
X146441694Y-92883539D01*
X146449353Y-92887633D01*
X146462598Y-92898502D01*
X146473466Y-92911745D01*
X146481543Y-92926857D01*
X146486516Y-92943249D01*
X146488800Y-92966441D01*
X146488800Y-93380159D01*
X146486516Y-93403351D01*
X146481543Y-93419743D01*
X146473466Y-93434855D01*
X146462598Y-93448098D01*
X146449353Y-93458967D01*
X146441694Y-93463061D01*
X146421320Y-93476674D01*
X146403993Y-93494001D01*
X146390379Y-93514376D01*
X146381002Y-93537014D01*
X146376221Y-93561048D01*
X146376221Y-93585552D01*
X146381001Y-93609585D01*
X146390379Y-93632224D01*
X146403992Y-93652598D01*
X146421319Y-93669925D01*
X146441694Y-93683539D01*
X146449353Y-93687633D01*
X146462598Y-93698502D01*
X146473466Y-93711745D01*
X146481543Y-93726857D01*
X146486516Y-93743249D01*
X146488800Y-93766441D01*
X146488800Y-94180159D01*
X146486516Y-94203351D01*
X146481543Y-94219743D01*
X146473466Y-94234855D01*
X146462598Y-94248098D01*
X146449355Y-94258966D01*
X146434243Y-94267043D01*
X146417851Y-94272016D01*
X146394659Y-94274300D01*
X144980941Y-94274300D01*
X144957749Y-94272016D01*
X144941357Y-94267043D01*
X144926245Y-94258966D01*
X144913002Y-94248098D01*
X144902134Y-94234855D01*
X144894057Y-94219743D01*
X144889084Y-94203351D01*
X144886800Y-94180159D01*
X144886800Y-93766441D01*
X144889084Y-93743249D01*
X144894057Y-93726857D01*
X144902134Y-93711745D01*
X144913002Y-93698502D01*
X144926247Y-93687633D01*
X144933906Y-93683539D01*
X144954280Y-93669926D01*
X144971607Y-93652599D01*
X144985221Y-93632224D01*
X144994598Y-93609586D01*
X144999379Y-93585552D01*
X144999379Y-93561048D01*
X144994599Y-93537015D01*
X144985221Y-93514376D01*
X144971608Y-93494002D01*
X144954281Y-93476675D01*
X144933906Y-93463061D01*
X144926247Y-93458967D01*
X144913002Y-93448098D01*
X144902134Y-93434855D01*
X144894057Y-93419743D01*
X144889084Y-93403351D01*
X144886800Y-93380159D01*
X144886800Y-92966441D01*
X144889084Y-92943249D01*
X144894057Y-92926857D01*
X144902134Y-92911745D01*
X144913002Y-92898502D01*
X144926247Y-92887633D01*
X144933906Y-92883539D01*
X144954280Y-92869926D01*
X144971607Y-92852599D01*
X144985221Y-92832224D01*
X144994598Y-92809586D01*
X144999379Y-92785552D01*
X144999379Y-92761048D01*
X144994599Y-92737015D01*
X144985221Y-92714376D01*
X144971608Y-92694002D01*
X144954281Y-92676675D01*
X144933906Y-92663061D01*
X144926247Y-92658967D01*
X144913002Y-92648098D01*
X144902134Y-92634855D01*
X144894057Y-92619743D01*
X144889084Y-92603351D01*
X144886800Y-92580159D01*
X144886800Y-92166441D01*
X144889084Y-92143249D01*
X144894057Y-92126857D01*
X144902134Y-92111745D01*
X144913002Y-92098502D01*
X144926247Y-92087633D01*
X144933906Y-92083539D01*
X144954280Y-92069926D01*
X144971607Y-92052599D01*
X144985221Y-92032224D01*
X144994598Y-92009586D01*
X144999379Y-91985552D01*
X144999379Y-91961048D01*
X144994599Y-91937015D01*
X144985221Y-91914376D01*
X144971608Y-91894002D01*
X144954281Y-91876675D01*
X144933906Y-91863061D01*
X144926247Y-91858967D01*
X144913002Y-91848098D01*
X144902134Y-91834855D01*
X144894057Y-91819743D01*
X144889084Y-91803351D01*
X144886800Y-91780159D01*
X144886800Y-91366441D01*
X144889084Y-91343249D01*
X144894057Y-91326857D01*
X144902134Y-91311745D01*
X144913002Y-91298502D01*
X144926247Y-91287633D01*
X144933906Y-91283539D01*
X144954280Y-91269926D01*
X144971607Y-91252599D01*
X144985221Y-91232224D01*
X144994598Y-91209586D01*
X144999379Y-91185552D01*
X144999379Y-91161048D01*
X144994599Y-91137015D01*
X144985221Y-91114376D01*
X144971608Y-91094002D01*
X144954281Y-91076675D01*
X144933906Y-91063061D01*
X144926247Y-91058967D01*
X144913002Y-91048098D01*
X144902134Y-91034855D01*
X144894057Y-91019743D01*
X144889084Y-91003351D01*
X144886800Y-90980159D01*
X144886800Y-90566441D01*
X144889084Y-90543249D01*
X144894057Y-90526857D01*
X144902134Y-90511745D01*
X144913002Y-90498502D01*
X144926247Y-90487633D01*
X144933906Y-90483539D01*
X144954280Y-90469926D01*
X144971607Y-90452599D01*
X144985221Y-90432224D01*
X144994598Y-90409586D01*
X144999379Y-90385552D01*
X144999379Y-90361048D01*
X144994599Y-90337015D01*
X144985221Y-90314376D01*
X144971608Y-90294002D01*
X144954281Y-90276675D01*
X144933906Y-90263061D01*
X144926247Y-90258967D01*
X144913002Y-90248098D01*
X144902134Y-90234855D01*
X144894057Y-90219743D01*
X144889084Y-90203351D01*
X144886800Y-90180159D01*
X144886800Y-89766441D01*
X144889084Y-89743249D01*
X144894057Y-89726857D01*
X144902134Y-89711745D01*
X144913002Y-89698502D01*
X144926247Y-89687633D01*
X144933906Y-89683539D01*
X144954280Y-89669926D01*
X144971607Y-89652599D01*
X144985221Y-89632224D01*
X144994598Y-89609586D01*
X144999379Y-89585552D01*
X144999379Y-89561048D01*
X144994599Y-89537015D01*
X144985221Y-89514376D01*
X144971608Y-89494002D01*
X144954281Y-89476675D01*
X144933906Y-89463061D01*
X144926247Y-89458967D01*
X144913002Y-89448098D01*
X144902134Y-89434855D01*
X144894057Y-89419743D01*
X144889084Y-89403351D01*
X144886800Y-89380159D01*
X144886800Y-88966441D01*
X144889084Y-88943249D01*
X144894057Y-88926857D01*
X144902134Y-88911745D01*
X144913002Y-88898502D01*
X144926247Y-88887633D01*
X144933906Y-88883539D01*
X144954280Y-88869926D01*
X144971607Y-88852599D01*
X144985221Y-88832224D01*
X144994598Y-88809586D01*
X144999379Y-88785552D01*
X144999379Y-88761048D01*
X144994599Y-88737015D01*
X144985221Y-88714376D01*
X144971608Y-88694002D01*
X144954281Y-88676675D01*
X144933906Y-88663061D01*
X144926247Y-88658967D01*
X144913002Y-88648098D01*
X144902134Y-88634855D01*
X144894057Y-88619743D01*
X144889084Y-88603351D01*
X144886800Y-88580159D01*
X144886800Y-88166441D01*
X144889084Y-88143249D01*
X144894057Y-88126857D01*
X144902134Y-88111745D01*
X144913002Y-88098502D01*
X144926245Y-88087634D01*
X144941357Y-88079557D01*
X144957749Y-88074584D01*
X144980941Y-88072300D01*
X146394659Y-88072300D01*
X146417851Y-88074584D01*
G37*
G36*
X138067851Y-88074584D02*
G01*
X138084243Y-88079557D01*
X138099355Y-88087634D01*
X138112598Y-88098502D01*
X138123466Y-88111745D01*
X138131543Y-88126857D01*
X138136516Y-88143249D01*
X138138800Y-88166441D01*
X138138800Y-88580159D01*
X138136516Y-88603351D01*
X138131543Y-88619743D01*
X138123466Y-88634855D01*
X138112598Y-88648098D01*
X138099353Y-88658967D01*
X138091694Y-88663061D01*
X138071320Y-88676674D01*
X138053993Y-88694001D01*
X138040379Y-88714376D01*
X138031002Y-88737014D01*
X138026221Y-88761048D01*
X138026221Y-88785552D01*
X138031001Y-88809585D01*
X138040379Y-88832224D01*
X138053992Y-88852598D01*
X138071319Y-88869925D01*
X138091694Y-88883539D01*
X138099353Y-88887633D01*
X138112598Y-88898502D01*
X138123466Y-88911745D01*
X138131543Y-88926857D01*
X138136516Y-88943249D01*
X138138800Y-88966441D01*
X138138800Y-89380159D01*
X138136516Y-89403351D01*
X138131543Y-89419743D01*
X138123466Y-89434855D01*
X138112598Y-89448098D01*
X138099353Y-89458967D01*
X138091694Y-89463061D01*
X138071320Y-89476674D01*
X138053993Y-89494001D01*
X138040379Y-89514376D01*
X138031002Y-89537014D01*
X138026221Y-89561048D01*
X138026221Y-89585552D01*
X138031001Y-89609585D01*
X138040379Y-89632224D01*
X138053992Y-89652598D01*
X138071319Y-89669925D01*
X138091694Y-89683539D01*
X138099353Y-89687633D01*
X138112598Y-89698502D01*
X138123466Y-89711745D01*
X138131543Y-89726857D01*
X138136516Y-89743249D01*
X138138800Y-89766441D01*
X138138800Y-90180159D01*
X138136516Y-90203351D01*
X138131543Y-90219743D01*
X138123466Y-90234855D01*
X138112598Y-90248098D01*
X138099353Y-90258967D01*
X138091694Y-90263061D01*
X138071320Y-90276674D01*
X138053993Y-90294001D01*
X138040379Y-90314376D01*
X138031002Y-90337014D01*
X138026221Y-90361048D01*
X138026221Y-90385552D01*
X138031001Y-90409585D01*
X138040379Y-90432224D01*
X138053992Y-90452598D01*
X138071319Y-90469925D01*
X138091694Y-90483539D01*
X138099353Y-90487633D01*
X138112598Y-90498502D01*
X138123466Y-90511745D01*
X138131543Y-90526857D01*
X138136516Y-90543249D01*
X138138800Y-90566441D01*
X138138800Y-90980159D01*
X138136516Y-91003351D01*
X138131543Y-91019743D01*
X138123466Y-91034855D01*
X138112598Y-91048098D01*
X138099353Y-91058967D01*
X138091694Y-91063061D01*
X138071320Y-91076674D01*
X138053993Y-91094001D01*
X138040379Y-91114376D01*
X138031002Y-91137014D01*
X138026221Y-91161048D01*
X138026221Y-91185552D01*
X138031001Y-91209585D01*
X138040379Y-91232224D01*
X138053992Y-91252598D01*
X138071319Y-91269925D01*
X138091694Y-91283539D01*
X138099353Y-91287633D01*
X138112598Y-91298502D01*
X138123466Y-91311745D01*
X138131543Y-91326857D01*
X138136516Y-91343249D01*
X138138800Y-91366441D01*
X138138800Y-91780159D01*
X138136516Y-91803351D01*
X138131543Y-91819743D01*
X138123466Y-91834855D01*
X138112598Y-91848098D01*
X138099353Y-91858967D01*
X138091694Y-91863061D01*
X138071320Y-91876674D01*
X138053993Y-91894001D01*
X138040379Y-91914376D01*
X138031002Y-91937014D01*
X138026221Y-91961048D01*
X138026221Y-91985552D01*
X138031001Y-92009585D01*
X138040379Y-92032224D01*
X138053992Y-92052598D01*
X138071319Y-92069925D01*
X138091694Y-92083539D01*
X138099353Y-92087633D01*
X138112598Y-92098502D01*
X138123466Y-92111745D01*
X138131543Y-92126857D01*
X138136516Y-92143249D01*
X138138800Y-92166441D01*
X138138800Y-92580159D01*
X138136516Y-92603351D01*
X138131543Y-92619743D01*
X138123466Y-92634855D01*
X138112598Y-92648098D01*
X138099353Y-92658967D01*
X138091694Y-92663061D01*
X138071320Y-92676674D01*
X138053993Y-92694001D01*
X138040379Y-92714376D01*
X138031002Y-92737014D01*
X138026221Y-92761048D01*
X138026221Y-92785552D01*
X138031001Y-92809585D01*
X138040379Y-92832224D01*
X138053992Y-92852598D01*
X138071319Y-92869925D01*
X138091694Y-92883539D01*
X138099353Y-92887633D01*
X138112598Y-92898502D01*
X138123466Y-92911745D01*
X138131543Y-92926857D01*
X138136516Y-92943249D01*
X138138800Y-92966441D01*
X138138800Y-93380159D01*
X138136516Y-93403351D01*
X138131543Y-93419743D01*
X138123466Y-93434855D01*
X138112598Y-93448098D01*
X138099353Y-93458967D01*
X138091694Y-93463061D01*
X138071320Y-93476674D01*
X138053993Y-93494001D01*
X138040379Y-93514376D01*
X138031002Y-93537014D01*
X138026221Y-93561048D01*
X138026221Y-93585552D01*
X138031001Y-93609585D01*
X138040379Y-93632224D01*
X138053992Y-93652598D01*
X138071319Y-93669925D01*
X138091694Y-93683539D01*
X138099353Y-93687633D01*
X138112598Y-93698502D01*
X138123466Y-93711745D01*
X138131543Y-93726857D01*
X138136516Y-93743249D01*
X138138800Y-93766441D01*
X138138800Y-94180159D01*
X138136516Y-94203351D01*
X138131543Y-94219743D01*
X138123466Y-94234855D01*
X138112598Y-94248098D01*
X138099355Y-94258966D01*
X138084243Y-94267043D01*
X138067851Y-94272016D01*
X138044659Y-94274300D01*
X136630941Y-94274300D01*
X136607749Y-94272016D01*
X136591357Y-94267043D01*
X136576245Y-94258966D01*
X136563002Y-94248098D01*
X136552134Y-94234855D01*
X136544057Y-94219743D01*
X136539084Y-94203351D01*
X136536800Y-94180159D01*
X136536800Y-93766441D01*
X136539084Y-93743249D01*
X136544057Y-93726857D01*
X136552134Y-93711745D01*
X136563002Y-93698502D01*
X136576247Y-93687633D01*
X136583906Y-93683539D01*
X136604280Y-93669926D01*
X136621607Y-93652599D01*
X136635221Y-93632224D01*
X136644598Y-93609586D01*
X136649379Y-93585552D01*
X136649379Y-93561048D01*
X136644599Y-93537015D01*
X136635221Y-93514376D01*
X136621608Y-93494002D01*
X136604281Y-93476675D01*
X136583906Y-93463061D01*
X136576247Y-93458967D01*
X136563002Y-93448098D01*
X136552134Y-93434855D01*
X136544057Y-93419743D01*
X136539084Y-93403351D01*
X136536800Y-93380159D01*
X136536800Y-92966441D01*
X136539084Y-92943249D01*
X136544057Y-92926857D01*
X136552134Y-92911745D01*
X136563002Y-92898502D01*
X136576247Y-92887633D01*
X136583906Y-92883539D01*
X136604280Y-92869926D01*
X136621607Y-92852599D01*
X136635221Y-92832224D01*
X136644598Y-92809586D01*
X136649379Y-92785552D01*
X136649379Y-92761048D01*
X136644599Y-92737015D01*
X136635221Y-92714376D01*
X136621608Y-92694002D01*
X136604281Y-92676675D01*
X136583906Y-92663061D01*
X136576247Y-92658967D01*
X136563002Y-92648098D01*
X136552134Y-92634855D01*
X136544057Y-92619743D01*
X136539084Y-92603351D01*
X136536800Y-92580159D01*
X136536800Y-92166441D01*
X136539084Y-92143249D01*
X136544057Y-92126857D01*
X136552134Y-92111745D01*
X136563002Y-92098502D01*
X136576247Y-92087633D01*
X136583906Y-92083539D01*
X136604280Y-92069926D01*
X136621607Y-92052599D01*
X136635221Y-92032224D01*
X136644598Y-92009586D01*
X136649379Y-91985552D01*
X136649379Y-91961048D01*
X136644599Y-91937015D01*
X136635221Y-91914376D01*
X136621608Y-91894002D01*
X136604281Y-91876675D01*
X136583906Y-91863061D01*
X136576247Y-91858967D01*
X136563002Y-91848098D01*
X136552134Y-91834855D01*
X136544057Y-91819743D01*
X136539084Y-91803351D01*
X136536800Y-91780159D01*
X136536800Y-91366441D01*
X136539084Y-91343249D01*
X136544057Y-91326857D01*
X136552134Y-91311745D01*
X136563002Y-91298502D01*
X136576247Y-91287633D01*
X136583906Y-91283539D01*
X136604280Y-91269926D01*
X136621607Y-91252599D01*
X136635221Y-91232224D01*
X136644598Y-91209586D01*
X136649379Y-91185552D01*
X136649379Y-91161048D01*
X136644599Y-91137015D01*
X136635221Y-91114376D01*
X136621608Y-91094002D01*
X136604281Y-91076675D01*
X136583906Y-91063061D01*
X136576247Y-91058967D01*
X136563002Y-91048098D01*
X136552134Y-91034855D01*
X136544057Y-91019743D01*
X136539084Y-91003351D01*
X136536800Y-90980159D01*
X136536800Y-90566441D01*
X136539084Y-90543249D01*
X136544057Y-90526857D01*
X136552134Y-90511745D01*
X136563002Y-90498502D01*
X136576247Y-90487633D01*
X136583906Y-90483539D01*
X136604280Y-90469926D01*
X136621607Y-90452599D01*
X136635221Y-90432224D01*
X136644598Y-90409586D01*
X136649379Y-90385552D01*
X136649379Y-90361048D01*
X136644599Y-90337015D01*
X136635221Y-90314376D01*
X136621608Y-90294002D01*
X136604281Y-90276675D01*
X136583906Y-90263061D01*
X136576247Y-90258967D01*
X136563002Y-90248098D01*
X136552134Y-90234855D01*
X136544057Y-90219743D01*
X136539084Y-90203351D01*
X136536800Y-90180159D01*
X136536800Y-89766441D01*
X136539084Y-89743249D01*
X136544057Y-89726857D01*
X136552134Y-89711745D01*
X136563002Y-89698502D01*
X136576247Y-89687633D01*
X136583906Y-89683539D01*
X136604280Y-89669926D01*
X136621607Y-89652599D01*
X136635221Y-89632224D01*
X136644598Y-89609586D01*
X136649379Y-89585552D01*
X136649379Y-89561048D01*
X136644599Y-89537015D01*
X136635221Y-89514376D01*
X136621608Y-89494002D01*
X136604281Y-89476675D01*
X136583906Y-89463061D01*
X136576247Y-89458967D01*
X136563002Y-89448098D01*
X136552134Y-89434855D01*
X136544057Y-89419743D01*
X136539084Y-89403351D01*
X136536800Y-89380159D01*
X136536800Y-88966441D01*
X136539084Y-88943249D01*
X136544057Y-88926857D01*
X136552134Y-88911745D01*
X136563002Y-88898502D01*
X136576247Y-88887633D01*
X136583906Y-88883539D01*
X136604280Y-88869926D01*
X136621607Y-88852599D01*
X136635221Y-88832224D01*
X136644598Y-88809586D01*
X136649379Y-88785552D01*
X136649379Y-88761048D01*
X136644599Y-88737015D01*
X136635221Y-88714376D01*
X136621608Y-88694002D01*
X136604281Y-88676675D01*
X136583906Y-88663061D01*
X136576247Y-88658967D01*
X136563002Y-88648098D01*
X136552134Y-88634855D01*
X136544057Y-88619743D01*
X136539084Y-88603351D01*
X136536800Y-88580159D01*
X136536800Y-88166441D01*
X136539084Y-88143249D01*
X136544057Y-88126857D01*
X136552134Y-88111745D01*
X136563002Y-88098502D01*
X136576245Y-88087634D01*
X136591357Y-88079557D01*
X136607749Y-88074584D01*
X136630941Y-88072300D01*
X138044659Y-88072300D01*
X138067851Y-88074584D01*
G37*
G36*
X150834800Y-93876900D02*
G01*
X148732800Y-93876900D01*
X148732800Y-91974900D01*
X150834800Y-91974900D01*
X150834800Y-93876900D01*
G37*
G36*
X154834800Y-93876900D02*
G01*
X152732800Y-93876900D01*
X152732800Y-91974900D01*
X154834800Y-91974900D01*
X154834800Y-93876900D01*
G37*
G36*
X148029791Y-90917485D02*
G01*
X148063769Y-90927793D01*
X148095090Y-90944534D01*
X148122539Y-90967061D01*
X148145066Y-90994510D01*
X148161807Y-91025831D01*
X148172115Y-91059809D01*
X148176200Y-91101290D01*
X148176200Y-91702510D01*
X148172115Y-91743991D01*
X148161807Y-91777969D01*
X148145066Y-91809290D01*
X148122539Y-91836739D01*
X148095090Y-91859266D01*
X148063769Y-91876007D01*
X148029791Y-91886315D01*
X147988310Y-91890400D01*
X147312090Y-91890400D01*
X147270609Y-91886315D01*
X147236631Y-91876007D01*
X147205310Y-91859266D01*
X147177861Y-91836739D01*
X147155334Y-91809290D01*
X147138593Y-91777969D01*
X147128285Y-91743991D01*
X147124200Y-91702510D01*
X147124200Y-91101290D01*
X147128285Y-91059809D01*
X147138593Y-91025831D01*
X147155334Y-90994510D01*
X147177861Y-90967061D01*
X147205310Y-90944534D01*
X147236631Y-90927793D01*
X147270609Y-90917485D01*
X147312090Y-90913400D01*
X147988310Y-90913400D01*
X148029791Y-90917485D01*
G37*
G36*
X148029791Y-89342485D02*
G01*
X148063769Y-89352793D01*
X148095090Y-89369534D01*
X148122539Y-89392061D01*
X148145066Y-89419510D01*
X148161807Y-89450831D01*
X148172115Y-89484809D01*
X148176200Y-89526290D01*
X148176200Y-90127510D01*
X148172115Y-90168991D01*
X148161807Y-90202969D01*
X148145066Y-90234290D01*
X148122539Y-90261739D01*
X148095090Y-90284266D01*
X148063769Y-90301007D01*
X148029791Y-90311315D01*
X147988310Y-90315400D01*
X147312090Y-90315400D01*
X147270609Y-90311315D01*
X147236631Y-90301007D01*
X147205310Y-90284266D01*
X147177861Y-90261739D01*
X147155334Y-90234290D01*
X147138593Y-90202969D01*
X147128285Y-90168991D01*
X147124200Y-90127510D01*
X147124200Y-89526290D01*
X147128285Y-89484809D01*
X147138593Y-89450831D01*
X147155334Y-89419510D01*
X147177861Y-89392061D01*
X147205310Y-89369534D01*
X147236631Y-89352793D01*
X147270609Y-89342485D01*
X147312090Y-89338400D01*
X147988310Y-89338400D01*
X148029791Y-89342485D01*
G37*
G36*
X150834800Y-88796900D02*
G01*
X148732800Y-88796900D01*
X148732800Y-86894900D01*
X150834800Y-86894900D01*
X150834800Y-88796900D01*
G37*
G36*
X154834800Y-88796900D02*
G01*
X152732800Y-88796900D01*
X152732800Y-86894900D01*
X154834800Y-86894900D01*
X154834800Y-88796900D01*
G37*
G36*
X138942851Y-86199584D02*
G01*
X138959243Y-86204557D01*
X138974355Y-86212634D01*
X138987598Y-86223502D01*
X138998467Y-86236747D01*
X139002561Y-86244406D01*
X139016174Y-86264780D01*
X139033501Y-86282107D01*
X139053876Y-86295721D01*
X139076514Y-86305098D01*
X139100548Y-86309879D01*
X139125052Y-86309879D01*
X139149085Y-86305099D01*
X139171724Y-86295721D01*
X139192098Y-86282108D01*
X139209425Y-86264781D01*
X139223039Y-86244406D01*
X139227133Y-86236747D01*
X139238002Y-86223502D01*
X139251245Y-86212634D01*
X139266357Y-86204557D01*
X139282749Y-86199584D01*
X139305941Y-86197300D01*
X139719659Y-86197300D01*
X139742851Y-86199584D01*
X139759243Y-86204557D01*
X139774355Y-86212634D01*
X139787598Y-86223502D01*
X139798467Y-86236747D01*
X139802561Y-86244406D01*
X139816174Y-86264780D01*
X139833501Y-86282107D01*
X139853876Y-86295721D01*
X139876514Y-86305098D01*
X139900548Y-86309879D01*
X139925052Y-86309879D01*
X139949085Y-86305099D01*
X139971724Y-86295721D01*
X139992098Y-86282108D01*
X140009425Y-86264781D01*
X140023039Y-86244406D01*
X140027133Y-86236747D01*
X140038002Y-86223502D01*
X140051245Y-86212634D01*
X140066357Y-86204557D01*
X140082749Y-86199584D01*
X140105941Y-86197300D01*
X140519659Y-86197300D01*
X140542851Y-86199584D01*
X140559243Y-86204557D01*
X140574355Y-86212634D01*
X140587598Y-86223502D01*
X140598467Y-86236747D01*
X140602561Y-86244406D01*
X140616174Y-86264780D01*
X140633501Y-86282107D01*
X140653876Y-86295721D01*
X140676514Y-86305098D01*
X140700548Y-86309879D01*
X140725052Y-86309879D01*
X140749085Y-86305099D01*
X140771724Y-86295721D01*
X140792098Y-86282108D01*
X140809425Y-86264781D01*
X140823039Y-86244406D01*
X140827133Y-86236747D01*
X140838002Y-86223502D01*
X140851245Y-86212634D01*
X140866357Y-86204557D01*
X140882749Y-86199584D01*
X140905941Y-86197300D01*
X141319659Y-86197300D01*
X141342851Y-86199584D01*
X141359243Y-86204557D01*
X141374355Y-86212634D01*
X141387598Y-86223502D01*
X141398467Y-86236747D01*
X141402561Y-86244406D01*
X141416174Y-86264780D01*
X141433501Y-86282107D01*
X141453876Y-86295721D01*
X141476514Y-86305098D01*
X141500548Y-86309879D01*
X141525052Y-86309879D01*
X141549085Y-86305099D01*
X141571724Y-86295721D01*
X141592098Y-86282108D01*
X141609425Y-86264781D01*
X141623039Y-86244406D01*
X141627133Y-86236747D01*
X141638002Y-86223502D01*
X141651245Y-86212634D01*
X141666357Y-86204557D01*
X141682749Y-86199584D01*
X141705941Y-86197300D01*
X142119659Y-86197300D01*
X142142851Y-86199584D01*
X142159243Y-86204557D01*
X142174355Y-86212634D01*
X142187598Y-86223502D01*
X142198467Y-86236747D01*
X142202561Y-86244406D01*
X142216174Y-86264780D01*
X142233501Y-86282107D01*
X142253876Y-86295721D01*
X142276514Y-86305098D01*
X142300548Y-86309879D01*
X142325052Y-86309879D01*
X142349085Y-86305099D01*
X142371724Y-86295721D01*
X142392098Y-86282108D01*
X142409425Y-86264781D01*
X142423039Y-86244406D01*
X142427133Y-86236747D01*
X142438002Y-86223502D01*
X142451245Y-86212634D01*
X142466357Y-86204557D01*
X142482749Y-86199584D01*
X142505941Y-86197300D01*
X142919659Y-86197300D01*
X142942851Y-86199584D01*
X142959243Y-86204557D01*
X142974355Y-86212634D01*
X142987598Y-86223502D01*
X142998467Y-86236747D01*
X143002561Y-86244406D01*
X143016174Y-86264780D01*
X143033501Y-86282107D01*
X143053876Y-86295721D01*
X143076514Y-86305098D01*
X143100548Y-86309879D01*
X143125052Y-86309879D01*
X143149085Y-86305099D01*
X143171724Y-86295721D01*
X143192098Y-86282108D01*
X143209425Y-86264781D01*
X143223039Y-86244406D01*
X143227133Y-86236747D01*
X143238002Y-86223502D01*
X143251245Y-86212634D01*
X143266357Y-86204557D01*
X143282749Y-86199584D01*
X143305941Y-86197300D01*
X143719659Y-86197300D01*
X143742851Y-86199584D01*
X143759243Y-86204557D01*
X143774355Y-86212634D01*
X143787598Y-86223502D01*
X143798467Y-86236747D01*
X143802561Y-86244406D01*
X143816174Y-86264780D01*
X143833501Y-86282107D01*
X143853876Y-86295721D01*
X143876514Y-86305098D01*
X143900548Y-86309879D01*
X143925052Y-86309879D01*
X143949085Y-86305099D01*
X143971724Y-86295721D01*
X143992098Y-86282108D01*
X144009425Y-86264781D01*
X144023039Y-86244406D01*
X144027133Y-86236747D01*
X144038002Y-86223502D01*
X144051245Y-86212634D01*
X144066357Y-86204557D01*
X144082749Y-86199584D01*
X144105941Y-86197300D01*
X144519659Y-86197300D01*
X144542851Y-86199584D01*
X144559243Y-86204557D01*
X144574355Y-86212634D01*
X144587598Y-86223502D01*
X144598466Y-86236745D01*
X144606543Y-86251857D01*
X144611516Y-86268249D01*
X144613800Y-86291441D01*
X144613800Y-87705159D01*
X144611516Y-87728351D01*
X144606543Y-87744743D01*
X144598466Y-87759855D01*
X144587598Y-87773098D01*
X144574355Y-87783966D01*
X144559243Y-87792043D01*
X144542851Y-87797016D01*
X144519659Y-87799300D01*
X144105941Y-87799300D01*
X144082749Y-87797016D01*
X144066357Y-87792043D01*
X144051245Y-87783966D01*
X144038002Y-87773098D01*
X144027133Y-87759853D01*
X144023039Y-87752194D01*
X144009426Y-87731820D01*
X143992099Y-87714493D01*
X143971724Y-87700879D01*
X143949086Y-87691502D01*
X143925052Y-87686721D01*
X143900548Y-87686721D01*
X143876515Y-87691501D01*
X143853876Y-87700879D01*
X143833502Y-87714492D01*
X143816175Y-87731819D01*
X143802561Y-87752194D01*
X143798467Y-87759853D01*
X143787598Y-87773098D01*
X143774355Y-87783966D01*
X143759243Y-87792043D01*
X143742851Y-87797016D01*
X143719659Y-87799300D01*
X143305941Y-87799300D01*
X143282749Y-87797016D01*
X143266357Y-87792043D01*
X143251245Y-87783966D01*
X143238002Y-87773098D01*
X143227133Y-87759853D01*
X143223039Y-87752194D01*
X143209426Y-87731820D01*
X143192099Y-87714493D01*
X143171724Y-87700879D01*
X143149086Y-87691502D01*
X143125052Y-87686721D01*
X143100548Y-87686721D01*
X143076515Y-87691501D01*
X143053876Y-87700879D01*
X143033502Y-87714492D01*
X143016175Y-87731819D01*
X143002561Y-87752194D01*
X142998467Y-87759853D01*
X142987598Y-87773098D01*
X142974355Y-87783966D01*
X142959243Y-87792043D01*
X142942851Y-87797016D01*
X142919659Y-87799300D01*
X142505941Y-87799300D01*
X142482749Y-87797016D01*
X142466357Y-87792043D01*
X142451245Y-87783966D01*
X142438002Y-87773098D01*
X142427133Y-87759853D01*
X142423039Y-87752194D01*
X142409426Y-87731820D01*
X142392099Y-87714493D01*
X142371724Y-87700879D01*
X142349086Y-87691502D01*
X142325052Y-87686721D01*
X142300548Y-87686721D01*
X142276515Y-87691501D01*
X142253876Y-87700879D01*
X142233502Y-87714492D01*
X142216175Y-87731819D01*
X142202561Y-87752194D01*
X142198467Y-87759853D01*
X142187598Y-87773098D01*
X142174355Y-87783966D01*
X142159243Y-87792043D01*
X142142851Y-87797016D01*
X142119659Y-87799300D01*
X141705941Y-87799300D01*
X141682749Y-87797016D01*
X141666357Y-87792043D01*
X141651245Y-87783966D01*
X141638002Y-87773098D01*
X141627133Y-87759853D01*
X141623039Y-87752194D01*
X141609426Y-87731820D01*
X141592099Y-87714493D01*
X141571724Y-87700879D01*
X141549086Y-87691502D01*
X141525052Y-87686721D01*
X141500548Y-87686721D01*
X141476515Y-87691501D01*
X141453876Y-87700879D01*
X141433502Y-87714492D01*
X141416175Y-87731819D01*
X141402561Y-87752194D01*
X141398467Y-87759853D01*
X141387598Y-87773098D01*
X141374355Y-87783966D01*
X141359243Y-87792043D01*
X141342851Y-87797016D01*
X141319659Y-87799300D01*
X140905941Y-87799300D01*
X140882749Y-87797016D01*
X140866357Y-87792043D01*
X140851245Y-87783966D01*
X140838002Y-87773098D01*
X140827133Y-87759853D01*
X140823039Y-87752194D01*
X140809426Y-87731820D01*
X140792099Y-87714493D01*
X140771724Y-87700879D01*
X140749086Y-87691502D01*
X140725052Y-87686721D01*
X140700548Y-87686721D01*
X140676515Y-87691501D01*
X140653876Y-87700879D01*
X140633502Y-87714492D01*
X140616175Y-87731819D01*
X140602561Y-87752194D01*
X140598467Y-87759853D01*
X140587598Y-87773098D01*
X140574355Y-87783966D01*
X140559243Y-87792043D01*
X140542851Y-87797016D01*
X140519659Y-87799300D01*
X140105941Y-87799300D01*
X140082749Y-87797016D01*
X140066357Y-87792043D01*
X140051245Y-87783966D01*
X140038002Y-87773098D01*
X140027133Y-87759853D01*
X140023039Y-87752194D01*
X140009426Y-87731820D01*
X139992099Y-87714493D01*
X139971724Y-87700879D01*
X139949086Y-87691502D01*
X139925052Y-87686721D01*
X139900548Y-87686721D01*
X139876515Y-87691501D01*
X139853876Y-87700879D01*
X139833502Y-87714492D01*
X139816175Y-87731819D01*
X139802561Y-87752194D01*
X139798467Y-87759853D01*
X139787598Y-87773098D01*
X139774355Y-87783966D01*
X139759243Y-87792043D01*
X139742851Y-87797016D01*
X139719659Y-87799300D01*
X139305941Y-87799300D01*
X139282749Y-87797016D01*
X139266357Y-87792043D01*
X139251245Y-87783966D01*
X139238002Y-87773098D01*
X139227133Y-87759853D01*
X139223039Y-87752194D01*
X139209426Y-87731820D01*
X139192099Y-87714493D01*
X139171724Y-87700879D01*
X139149086Y-87691502D01*
X139125052Y-87686721D01*
X139100548Y-87686721D01*
X139076515Y-87691501D01*
X139053876Y-87700879D01*
X139033502Y-87714492D01*
X139016175Y-87731819D01*
X139002561Y-87752194D01*
X138998467Y-87759853D01*
X138987598Y-87773098D01*
X138974355Y-87783966D01*
X138959243Y-87792043D01*
X138942851Y-87797016D01*
X138919659Y-87799300D01*
X138505941Y-87799300D01*
X138482749Y-87797016D01*
X138466357Y-87792043D01*
X138451245Y-87783966D01*
X138438002Y-87773098D01*
X138427134Y-87759855D01*
X138419057Y-87744743D01*
X138414084Y-87728351D01*
X138411800Y-87705159D01*
X138411800Y-86291441D01*
X138414084Y-86268249D01*
X138419057Y-86251857D01*
X138427134Y-86236745D01*
X138438002Y-86223502D01*
X138451245Y-86212634D01*
X138466357Y-86204557D01*
X138482749Y-86199584D01*
X138505941Y-86197300D01*
X138919659Y-86197300D01*
X138942851Y-86199584D01*
G37*
G36*
X146950058Y-86344308D02*
G01*
X146984036Y-86354616D01*
X147015357Y-86371357D01*
X147047571Y-86397795D01*
X147087422Y-86437646D01*
X147087428Y-86437651D01*
X147432849Y-86783072D01*
X147432854Y-86783078D01*
X147472705Y-86822929D01*
X147499143Y-86855143D01*
X147515884Y-86886464D01*
X147526192Y-86920442D01*
X147529672Y-86955783D01*
X147526192Y-86991124D01*
X147515884Y-87025102D01*
X147499143Y-87056423D01*
X147472705Y-87088637D01*
X147432854Y-87128488D01*
X147432849Y-87128494D01*
X147034394Y-87526949D01*
X147034388Y-87526954D01*
X146994537Y-87566805D01*
X146962323Y-87593243D01*
X146931002Y-87609984D01*
X146897024Y-87620292D01*
X146861683Y-87623772D01*
X146826342Y-87620292D01*
X146792364Y-87609984D01*
X146761043Y-87593243D01*
X146728829Y-87566805D01*
X146688978Y-87526954D01*
X146688972Y-87526949D01*
X146343551Y-87181528D01*
X146343546Y-87181522D01*
X146303695Y-87141671D01*
X146277257Y-87109457D01*
X146260516Y-87078136D01*
X146250208Y-87044158D01*
X146246728Y-87008817D01*
X146250208Y-86973476D01*
X146260516Y-86939498D01*
X146277257Y-86908177D01*
X146303695Y-86875963D01*
X146343546Y-86836112D01*
X146343551Y-86836106D01*
X146742006Y-86437651D01*
X146742012Y-86437646D01*
X146781863Y-86397795D01*
X146814077Y-86371357D01*
X146845398Y-86354616D01*
X146879376Y-86344308D01*
X146914717Y-86340828D01*
X146950058Y-86344308D01*
G37*
G36*
X145836364Y-85230614D02*
G01*
X145870342Y-85240922D01*
X145901663Y-85257663D01*
X145933877Y-85284101D01*
X145973728Y-85323952D01*
X145973734Y-85323957D01*
X146319155Y-85669378D01*
X146319160Y-85669384D01*
X146359011Y-85709235D01*
X146385449Y-85741449D01*
X146402190Y-85772770D01*
X146412498Y-85806748D01*
X146415978Y-85842089D01*
X146412498Y-85877430D01*
X146402190Y-85911408D01*
X146385449Y-85942729D01*
X146359011Y-85974943D01*
X146319160Y-86014794D01*
X146319155Y-86014800D01*
X145920700Y-86413255D01*
X145920694Y-86413260D01*
X145880843Y-86453111D01*
X145848629Y-86479549D01*
X145817308Y-86496290D01*
X145783330Y-86506598D01*
X145747989Y-86510078D01*
X145712648Y-86506598D01*
X145678670Y-86496290D01*
X145647349Y-86479549D01*
X145615135Y-86453111D01*
X145575284Y-86413260D01*
X145575278Y-86413255D01*
X145229857Y-86067834D01*
X145229852Y-86067828D01*
X145190001Y-86027977D01*
X145163563Y-85995763D01*
X145146822Y-85964442D01*
X145136514Y-85930464D01*
X145133034Y-85895123D01*
X145136514Y-85859782D01*
X145146822Y-85825804D01*
X145163563Y-85794483D01*
X145190001Y-85762269D01*
X145229852Y-85722418D01*
X145229857Y-85722412D01*
X145628312Y-85323957D01*
X145628318Y-85323952D01*
X145668169Y-85284101D01*
X145700383Y-85257663D01*
X145731704Y-85240922D01*
X145765682Y-85230614D01*
X145801023Y-85227134D01*
X145836364Y-85230614D01*
G37*
G36*
X132393121Y-75720974D02*
G01*
X132493395Y-75762509D01*
X132493396Y-75762510D01*
X132583642Y-75822810D01*
X132660390Y-75899558D01*
X132660391Y-75899560D01*
X132720691Y-75989805D01*
X132762226Y-76090079D01*
X132783400Y-76196530D01*
X132783400Y-76305070D01*
X132762226Y-76411521D01*
X132720691Y-76511795D01*
X132720690Y-76511796D01*
X132660390Y-76602042D01*
X132583642Y-76678790D01*
X132538212Y-76709145D01*
X132493395Y-76739091D01*
X132418011Y-76770316D01*
X132396400Y-76781867D01*
X132377459Y-76797412D01*
X132361913Y-76816354D01*
X132350362Y-76837965D01*
X132343249Y-76861414D01*
X132340847Y-76885800D01*
X132343249Y-76910186D01*
X132350362Y-76933635D01*
X132361913Y-76955246D01*
X132377458Y-76974187D01*
X132396400Y-76989733D01*
X132418011Y-77001284D01*
X132493395Y-77032509D01*
X132493396Y-77032510D01*
X132583642Y-77092810D01*
X132660390Y-77169558D01*
X132660391Y-77169560D01*
X132720691Y-77259805D01*
X132762226Y-77360079D01*
X132783400Y-77466530D01*
X132783400Y-77575070D01*
X132762226Y-77681521D01*
X132720691Y-77781795D01*
X132690745Y-77826612D01*
X132660390Y-77872042D01*
X132583642Y-77948790D01*
X132538212Y-77979145D01*
X132493395Y-78009091D01*
X132418011Y-78040316D01*
X132396400Y-78051867D01*
X132377459Y-78067412D01*
X132361913Y-78086354D01*
X132350362Y-78107965D01*
X132343249Y-78131414D01*
X132340847Y-78155800D01*
X132343249Y-78180186D01*
X132350362Y-78203635D01*
X132361913Y-78225246D01*
X132377458Y-78244187D01*
X132396400Y-78259733D01*
X132418011Y-78271284D01*
X132493395Y-78302509D01*
X132493396Y-78302510D01*
X132583642Y-78362810D01*
X132660390Y-78439558D01*
X132660391Y-78439560D01*
X132720691Y-78529805D01*
X132762226Y-78630079D01*
X132783400Y-78736530D01*
X132783400Y-78845070D01*
X132762226Y-78951521D01*
X132720691Y-79051795D01*
X132720690Y-79051796D01*
X132660390Y-79142042D01*
X132583642Y-79218790D01*
X132552216Y-79239788D01*
X132490736Y-79280868D01*
X132471794Y-79296414D01*
X132456249Y-79315356D01*
X132444698Y-79336967D01*
X132437585Y-79360415D01*
X132435183Y-79384802D01*
X132437585Y-79409188D01*
X132444698Y-79432637D01*
X132456249Y-79454247D01*
X132471795Y-79473189D01*
X132490737Y-79488734D01*
X132512348Y-79500285D01*
X132535796Y-79507398D01*
X132560182Y-79509800D01*
X132783400Y-79509800D01*
X132783400Y-80611800D01*
X131681400Y-80611800D01*
X131681400Y-79509800D01*
X131904618Y-79509800D01*
X131929004Y-79507398D01*
X131952453Y-79500285D01*
X131974064Y-79488734D01*
X131993006Y-79473189D01*
X132008551Y-79454247D01*
X132020102Y-79432636D01*
X132027215Y-79409187D01*
X132029617Y-79384801D01*
X132027215Y-79360415D01*
X132020102Y-79336966D01*
X132008551Y-79315355D01*
X131993006Y-79296413D01*
X131974064Y-79280868D01*
X131912584Y-79239788D01*
X131881158Y-79218790D01*
X131804410Y-79142042D01*
X131744110Y-79051796D01*
X131744109Y-79051795D01*
X131702574Y-78951521D01*
X131681400Y-78845070D01*
X131681400Y-78736530D01*
X131702574Y-78630079D01*
X131744109Y-78529805D01*
X131804409Y-78439560D01*
X131804410Y-78439558D01*
X131881158Y-78362810D01*
X131971404Y-78302510D01*
X131971405Y-78302509D01*
X132046789Y-78271284D01*
X132068400Y-78259733D01*
X132087341Y-78244188D01*
X132102887Y-78225246D01*
X132114438Y-78203635D01*
X132121551Y-78180186D01*
X132123953Y-78155800D01*
X132121551Y-78131414D01*
X132114438Y-78107965D01*
X132102887Y-78086354D01*
X132087342Y-78067413D01*
X132068400Y-78051867D01*
X132046789Y-78040316D01*
X131971405Y-78009091D01*
X131926588Y-77979145D01*
X131881158Y-77948790D01*
X131804410Y-77872042D01*
X131774055Y-77826612D01*
X131744109Y-77781795D01*
X131702574Y-77681521D01*
X131681400Y-77575070D01*
X131681400Y-77466530D01*
X131702574Y-77360079D01*
X131744109Y-77259805D01*
X131804409Y-77169560D01*
X131804410Y-77169558D01*
X131881158Y-77092810D01*
X131971404Y-77032510D01*
X131971405Y-77032509D01*
X132046789Y-77001284D01*
X132068400Y-76989733D01*
X132087341Y-76974188D01*
X132102887Y-76955246D01*
X132114438Y-76933635D01*
X132121551Y-76910186D01*
X132123953Y-76885800D01*
X132121551Y-76861414D01*
X132114438Y-76837965D01*
X132102887Y-76816354D01*
X132087342Y-76797413D01*
X132068400Y-76781867D01*
X132046789Y-76770316D01*
X131971405Y-76739091D01*
X131926588Y-76709145D01*
X131881158Y-76678790D01*
X131804410Y-76602042D01*
X131744110Y-76511796D01*
X131744109Y-76511795D01*
X131702574Y-76411521D01*
X131681400Y-76305070D01*
X131681400Y-76196530D01*
X131702574Y-76090079D01*
X131744109Y-75989805D01*
X131804409Y-75899560D01*
X131804410Y-75899558D01*
X131881158Y-75822810D01*
X131971404Y-75762510D01*
X131971405Y-75762509D01*
X132071679Y-75720974D01*
X132178130Y-75699800D01*
X132286670Y-75699800D01*
X132393121Y-75720974D01*
G37*
G36*
X150862491Y-76744885D02*
G01*
X150896469Y-76755193D01*
X150927790Y-76771934D01*
X150955239Y-76794461D01*
X150977766Y-76821910D01*
X150994507Y-76853231D01*
X151004815Y-76887209D01*
X151008900Y-76928690D01*
X151008900Y-77604910D01*
X151004815Y-77646391D01*
X150994507Y-77680369D01*
X150977766Y-77711690D01*
X150955239Y-77739139D01*
X150927790Y-77761666D01*
X150896469Y-77778407D01*
X150862491Y-77788715D01*
X150821010Y-77792800D01*
X150219790Y-77792800D01*
X150178309Y-77788715D01*
X150144331Y-77778407D01*
X150113010Y-77761666D01*
X150085561Y-77739139D01*
X150063034Y-77711690D01*
X150046293Y-77680369D01*
X150035985Y-77646391D01*
X150031900Y-77604910D01*
X150031900Y-76928690D01*
X150035985Y-76887209D01*
X150046293Y-76853231D01*
X150063034Y-76821910D01*
X150085561Y-76794461D01*
X150113010Y-76771934D01*
X150144331Y-76755193D01*
X150178309Y-76744885D01*
X150219790Y-76740800D01*
X150821010Y-76740800D01*
X150862491Y-76744885D01*
G37*
G36*
X152437491Y-76744885D02*
G01*
X152471469Y-76755193D01*
X152502790Y-76771934D01*
X152530239Y-76794461D01*
X152552766Y-76821910D01*
X152569507Y-76853231D01*
X152579815Y-76887209D01*
X152583900Y-76928690D01*
X152583900Y-77604910D01*
X152579815Y-77646391D01*
X152569507Y-77680369D01*
X152552766Y-77711690D01*
X152530239Y-77739139D01*
X152502790Y-77761666D01*
X152471469Y-77778407D01*
X152437491Y-77788715D01*
X152396010Y-77792800D01*
X151794790Y-77792800D01*
X151753309Y-77788715D01*
X151719331Y-77778407D01*
X151688010Y-77761666D01*
X151660561Y-77739139D01*
X151638034Y-77711690D01*
X151621293Y-77680369D01*
X151610985Y-77646391D01*
X151606900Y-77604910D01*
X151606900Y-76928690D01*
X151610985Y-76887209D01*
X151621293Y-76853231D01*
X151638034Y-76821910D01*
X151660561Y-76794461D01*
X151688010Y-76771934D01*
X151719331Y-76755193D01*
X151753309Y-76744885D01*
X151794790Y-76740800D01*
X152396010Y-76740800D01*
X152437491Y-76744885D01*
G37*
G36*
X149989800Y-75195000D02*
G01*
X139087800Y-75195000D01*
X139087800Y-73793000D01*
X149989800Y-73793000D01*
X149989800Y-75195000D01*
G37*
G36*
X138339800Y-72395000D02*
G01*
X136437800Y-72395000D01*
X136437800Y-70093000D01*
X138339800Y-70093000D01*
X138339800Y-72395000D01*
G37*
G36*
X152639800Y-72395000D02*
G01*
X150737800Y-72395000D01*
X150737800Y-70093000D01*
X152639800Y-70093000D01*
X152639800Y-72395000D01*
G37*
G36*
X123871749Y-57001316D02*
G01*
X123982934Y-57023432D01*
X124192403Y-57110197D01*
X124380920Y-57236160D01*
X124541240Y-57396480D01*
X124667203Y-57584997D01*
X124753968Y-57794466D01*
X124798200Y-58016836D01*
X124798200Y-58243564D01*
X124753968Y-58465934D01*
X124667203Y-58675403D01*
X124541240Y-58863920D01*
X124380920Y-59024240D01*
X124192403Y-59150203D01*
X123982934Y-59236968D01*
X123871749Y-59259084D01*
X123760565Y-59281200D01*
X123533835Y-59281200D01*
X123422651Y-59259084D01*
X123311466Y-59236968D01*
X123101997Y-59150203D01*
X122913480Y-59024240D01*
X122753160Y-58863920D01*
X122627197Y-58675403D01*
X122540432Y-58465934D01*
X122496200Y-58243564D01*
X122496200Y-58016836D01*
X122540432Y-57794466D01*
X122627197Y-57584997D01*
X122753160Y-57396480D01*
X122913480Y-57236160D01*
X123101997Y-57110197D01*
X123311466Y-57023432D01*
X123422651Y-57001316D01*
X123533835Y-56979200D01*
X123760565Y-56979200D01*
X123871749Y-57001316D01*
G37*
G36*
X121260712Y-55984127D02*
G01*
X121410012Y-56013824D01*
X121573984Y-56081744D01*
X121721554Y-56180347D01*
X121847053Y-56305846D01*
X121945656Y-56453416D01*
X122013576Y-56617388D01*
X122043273Y-56766688D01*
X122048200Y-56791458D01*
X122048200Y-56968942D01*
X122043273Y-56993712D01*
X122013576Y-57143012D01*
X121945656Y-57306984D01*
X121847053Y-57454554D01*
X121721554Y-57580053D01*
X121573984Y-57678656D01*
X121410012Y-57746576D01*
X121260712Y-57776273D01*
X121235942Y-57781200D01*
X121058458Y-57781200D01*
X121033688Y-57776273D01*
X120884388Y-57746576D01*
X120720416Y-57678656D01*
X120572846Y-57580053D01*
X120447347Y-57454554D01*
X120348744Y-57306984D01*
X120280824Y-57143012D01*
X120251127Y-56993712D01*
X120246200Y-56968942D01*
X120246200Y-56791458D01*
X120251127Y-56766688D01*
X120280824Y-56617388D01*
X120348744Y-56453416D01*
X120447347Y-56305846D01*
X120572846Y-56180347D01*
X120720416Y-56081744D01*
X120884388Y-56013824D01*
X121033688Y-55984127D01*
X121058458Y-55979200D01*
X121235942Y-55979200D01*
X121260712Y-55984127D01*
G37*
G36*
X121260712Y-51484127D02*
G01*
X121410012Y-51513824D01*
X121573984Y-51581744D01*
X121721554Y-51680347D01*
X121847053Y-51805846D01*
X121945656Y-51953416D01*
X122013576Y-52117388D01*
X122037361Y-52236968D01*
X122046160Y-52281200D01*
X122048200Y-52291459D01*
X122048200Y-52468941D01*
X122013576Y-52643012D01*
X121945656Y-52806984D01*
X121847053Y-52954554D01*
X121721554Y-53080053D01*
X121573984Y-53178656D01*
X121410012Y-53246576D01*
X121260712Y-53276273D01*
X121235942Y-53281200D01*
X121058458Y-53281200D01*
X121033688Y-53276273D01*
X120884388Y-53246576D01*
X120720416Y-53178656D01*
X120572846Y-53080053D01*
X120447347Y-52954554D01*
X120348744Y-52806984D01*
X120280824Y-52643012D01*
X120246200Y-52468941D01*
X120246200Y-52291459D01*
X120248241Y-52281200D01*
X120257039Y-52236968D01*
X120280824Y-52117388D01*
X120348744Y-51953416D01*
X120447347Y-51805846D01*
X120572846Y-51680347D01*
X120720416Y-51581744D01*
X120884388Y-51513824D01*
X121033688Y-51484127D01*
X121058458Y-51479200D01*
X121235942Y-51479200D01*
X121260712Y-51484127D01*
G37*
G36*
X123871749Y-50001316D02*
G01*
X123982934Y-50023432D01*
X124192403Y-50110197D01*
X124380920Y-50236160D01*
X124541240Y-50396480D01*
X124667203Y-50584997D01*
X124753968Y-50794466D01*
X124798200Y-51016836D01*
X124798200Y-51243564D01*
X124753968Y-51465934D01*
X124667203Y-51675403D01*
X124541240Y-51863920D01*
X124380920Y-52024240D01*
X124192403Y-52150203D01*
X123982934Y-52236968D01*
X123871749Y-52259084D01*
X123760565Y-52281200D01*
X123533835Y-52281200D01*
X123422651Y-52259084D01*
X123311466Y-52236968D01*
X123101997Y-52150203D01*
X122913480Y-52024240D01*
X122753160Y-51863920D01*
X122627197Y-51675403D01*
X122540432Y-51465934D01*
X122496200Y-51243564D01*
X122496200Y-51016836D01*
X122540432Y-50794466D01*
X122627197Y-50584997D01*
X122753160Y-50396480D01*
X122913480Y-50236160D01*
X123101997Y-50110197D01*
X123311466Y-50023432D01*
X123422651Y-50001316D01*
X123533835Y-49979200D01*
X123760565Y-49979200D01*
X123871749Y-50001316D01*
G37*
G36*
X123922549Y-47242316D02*
G01*
X124033734Y-47264432D01*
X124243203Y-47351197D01*
X124431720Y-47477160D01*
X124592040Y-47637480D01*
X124718003Y-47825997D01*
X124804768Y-48035466D01*
X124849000Y-48257836D01*
X124849000Y-48484564D01*
X124804768Y-48706934D01*
X124718003Y-48916403D01*
X124592040Y-49104920D01*
X124431720Y-49265240D01*
X124243203Y-49391203D01*
X124033734Y-49477968D01*
X123922549Y-49500084D01*
X123811365Y-49522200D01*
X123584635Y-49522200D01*
X123473451Y-49500084D01*
X123362266Y-49477968D01*
X123152797Y-49391203D01*
X122964280Y-49265240D01*
X122803960Y-49104920D01*
X122677997Y-48916403D01*
X122591232Y-48706934D01*
X122547000Y-48484564D01*
X122547000Y-48257836D01*
X122591232Y-48035466D01*
X122677997Y-47825997D01*
X122803960Y-47637480D01*
X122964280Y-47477160D01*
X123152797Y-47351197D01*
X123362266Y-47264432D01*
X123473451Y-47242316D01*
X123584635Y-47220200D01*
X123811365Y-47220200D01*
X123922549Y-47242316D01*
G37*
G36*
X163458600Y-48218800D02*
G01*
X161356600Y-48218800D01*
X161356600Y-46116800D01*
X163458600Y-46116800D01*
X163458600Y-48218800D01*
G37*
G36*
X121311512Y-46225127D02*
G01*
X121460812Y-46254824D01*
X121624784Y-46322744D01*
X121772354Y-46421347D01*
X121897853Y-46546846D01*
X121996456Y-46694416D01*
X122064376Y-46858388D01*
X122094073Y-47007688D01*
X122099000Y-47032458D01*
X122099000Y-47209942D01*
X122094073Y-47234712D01*
X122064376Y-47384012D01*
X121996456Y-47547984D01*
X121897853Y-47695554D01*
X121772354Y-47821053D01*
X121624784Y-47919656D01*
X121460812Y-47987576D01*
X121311512Y-48017273D01*
X121286742Y-48022200D01*
X121109258Y-48022200D01*
X121084488Y-48017273D01*
X120935188Y-47987576D01*
X120771216Y-47919656D01*
X120623646Y-47821053D01*
X120498147Y-47695554D01*
X120399544Y-47547984D01*
X120331624Y-47384012D01*
X120301927Y-47234712D01*
X120297000Y-47209942D01*
X120297000Y-47032458D01*
X120301927Y-47007688D01*
X120331624Y-46858388D01*
X120399544Y-46694416D01*
X120498147Y-46546846D01*
X120623646Y-46421347D01*
X120771216Y-46322744D01*
X120935188Y-46254824D01*
X121084488Y-46225127D01*
X121109258Y-46220200D01*
X121286742Y-46220200D01*
X121311512Y-46225127D01*
G37*
G36*
X159851800Y-45424800D02*
G01*
X157749800Y-45424800D01*
X157749800Y-43322800D01*
X159851800Y-43322800D01*
X159851800Y-45424800D01*
G37*
G36*
X163638791Y-43293085D02*
G01*
X163672769Y-43303393D01*
X163704090Y-43320134D01*
X163731539Y-43342661D01*
X163754066Y-43370110D01*
X163770807Y-43401431D01*
X163781115Y-43435409D01*
X163785200Y-43476890D01*
X163785200Y-44153110D01*
X163781115Y-44194591D01*
X163770807Y-44228569D01*
X163754066Y-44259890D01*
X163731539Y-44287339D01*
X163704090Y-44309866D01*
X163672769Y-44326607D01*
X163638791Y-44336915D01*
X163597310Y-44341000D01*
X162996090Y-44341000D01*
X162954609Y-44336915D01*
X162920631Y-44326607D01*
X162889310Y-44309866D01*
X162861861Y-44287339D01*
X162839334Y-44259890D01*
X162822593Y-44228569D01*
X162812285Y-44194591D01*
X162808200Y-44153110D01*
X162808200Y-43476890D01*
X162812285Y-43435409D01*
X162822593Y-43401431D01*
X162839334Y-43370110D01*
X162861861Y-43342661D01*
X162889310Y-43320134D01*
X162920631Y-43303393D01*
X162954609Y-43293085D01*
X162996090Y-43289000D01*
X163597310Y-43289000D01*
X163638791Y-43293085D01*
G37*
G36*
X162063791Y-43293085D02*
G01*
X162097769Y-43303393D01*
X162129090Y-43320134D01*
X162156539Y-43342661D01*
X162179066Y-43370110D01*
X162195807Y-43401431D01*
X162206115Y-43435409D01*
X162210200Y-43476890D01*
X162210200Y-44153110D01*
X162206115Y-44194591D01*
X162195807Y-44228569D01*
X162179066Y-44259890D01*
X162156539Y-44287339D01*
X162129090Y-44309866D01*
X162097769Y-44326607D01*
X162063791Y-44336915D01*
X162022310Y-44341000D01*
X161421090Y-44341000D01*
X161379609Y-44336915D01*
X161345631Y-44326607D01*
X161314310Y-44309866D01*
X161286861Y-44287339D01*
X161264334Y-44259890D01*
X161247593Y-44228569D01*
X161237285Y-44194591D01*
X161233200Y-44153110D01*
X161233200Y-43476890D01*
X161237285Y-43435409D01*
X161247593Y-43401431D01*
X161264334Y-43370110D01*
X161286861Y-43342661D01*
X161314310Y-43320134D01*
X161345631Y-43303393D01*
X161379609Y-43293085D01*
X161421090Y-43289000D01*
X162022310Y-43289000D01*
X162063791Y-43293085D01*
G37*
G36*
X121311512Y-41725127D02*
G01*
X121460812Y-41754824D01*
X121624784Y-41822744D01*
X121772354Y-41921347D01*
X121897853Y-42046846D01*
X121996456Y-42194416D01*
X122064376Y-42358388D01*
X122088161Y-42477968D01*
X122096960Y-42522200D01*
X122099000Y-42532459D01*
X122099000Y-42709941D01*
X122064376Y-42884012D01*
X121996456Y-43047984D01*
X121897853Y-43195554D01*
X121772354Y-43321053D01*
X121624784Y-43419656D01*
X121460812Y-43487576D01*
X121311512Y-43517273D01*
X121286742Y-43522200D01*
X121109258Y-43522200D01*
X121084488Y-43517273D01*
X120935188Y-43487576D01*
X120771216Y-43419656D01*
X120623646Y-43321053D01*
X120498147Y-43195554D01*
X120399544Y-43047984D01*
X120331624Y-42884012D01*
X120297000Y-42709941D01*
X120297000Y-42532459D01*
X120299041Y-42522200D01*
X120307839Y-42477968D01*
X120331624Y-42358388D01*
X120399544Y-42194416D01*
X120498147Y-42046846D01*
X120623646Y-41921347D01*
X120771216Y-41822744D01*
X120935188Y-41754824D01*
X121084488Y-41725127D01*
X121109258Y-41720200D01*
X121286742Y-41720200D01*
X121311512Y-41725127D01*
G37*
G36*
X123922549Y-40242316D02*
G01*
X124033734Y-40264432D01*
X124243203Y-40351197D01*
X124431720Y-40477160D01*
X124592040Y-40637480D01*
X124718003Y-40825997D01*
X124804768Y-41035466D01*
X124849000Y-41257836D01*
X124849000Y-41484564D01*
X124804768Y-41706934D01*
X124718003Y-41916403D01*
X124592040Y-42104920D01*
X124431720Y-42265240D01*
X124243203Y-42391203D01*
X124033734Y-42477968D01*
X123922549Y-42500084D01*
X123811365Y-42522200D01*
X123584635Y-42522200D01*
X123473451Y-42500084D01*
X123362266Y-42477968D01*
X123152797Y-42391203D01*
X122964280Y-42265240D01*
X122803960Y-42104920D01*
X122677997Y-41916403D01*
X122591232Y-41706934D01*
X122547000Y-41484564D01*
X122547000Y-41257836D01*
X122591232Y-41035466D01*
X122677997Y-40825997D01*
X122803960Y-40637480D01*
X122964280Y-40477160D01*
X123152797Y-40351197D01*
X123362266Y-40264432D01*
X123473451Y-40242316D01*
X123584635Y-40220200D01*
X123811365Y-40220200D01*
X123922549Y-40242316D01*
G37*
G36*
X159851800Y-42224400D02*
G01*
X157749800Y-42224400D01*
X157749800Y-40122400D01*
X159851800Y-40122400D01*
X159851800Y-42224400D01*
G37*
G36*
X162063791Y-40803885D02*
G01*
X162097769Y-40814193D01*
X162129090Y-40830934D01*
X162156539Y-40853461D01*
X162179066Y-40880910D01*
X162195807Y-40912231D01*
X162206115Y-40946209D01*
X162210200Y-40987690D01*
X162210200Y-41663910D01*
X162206115Y-41705391D01*
X162195807Y-41739369D01*
X162179066Y-41770690D01*
X162156539Y-41798139D01*
X162129090Y-41820666D01*
X162097769Y-41837407D01*
X162063791Y-41847715D01*
X162022310Y-41851800D01*
X161421090Y-41851800D01*
X161379609Y-41847715D01*
X161345631Y-41837407D01*
X161314310Y-41820666D01*
X161286861Y-41798139D01*
X161264334Y-41770690D01*
X161247593Y-41739369D01*
X161237285Y-41705391D01*
X161233200Y-41663910D01*
X161233200Y-40987690D01*
X161237285Y-40946209D01*
X161247593Y-40912231D01*
X161264334Y-40880910D01*
X161286861Y-40853461D01*
X161314310Y-40830934D01*
X161345631Y-40814193D01*
X161379609Y-40803885D01*
X161421090Y-40799800D01*
X162022310Y-40799800D01*
X162063791Y-40803885D01*
G37*
G36*
X163638791Y-40803885D02*
G01*
X163672769Y-40814193D01*
X163704090Y-40830934D01*
X163731539Y-40853461D01*
X163754066Y-40880910D01*
X163770807Y-40912231D01*
X163781115Y-40946209D01*
X163785200Y-40987690D01*
X163785200Y-41663910D01*
X163781115Y-41705391D01*
X163770807Y-41739369D01*
X163754066Y-41770690D01*
X163731539Y-41798139D01*
X163704090Y-41820666D01*
X163672769Y-41837407D01*
X163638791Y-41847715D01*
X163597310Y-41851800D01*
X162996090Y-41851800D01*
X162954609Y-41847715D01*
X162920631Y-41837407D01*
X162889310Y-41820666D01*
X162861861Y-41798139D01*
X162839334Y-41770690D01*
X162822593Y-41739369D01*
X162812285Y-41705391D01*
X162808200Y-41663910D01*
X162808200Y-40987690D01*
X162812285Y-40946209D01*
X162822593Y-40912231D01*
X162839334Y-40880910D01*
X162861861Y-40853461D01*
X162889310Y-40830934D01*
X162920631Y-40814193D01*
X162954609Y-40803885D01*
X162996090Y-40799800D01*
X163597310Y-40799800D01*
X163638791Y-40803885D01*
G37*
G36*
X162722685Y-35817575D02*
G01*
X163077743Y-35964645D01*
X163077745Y-35964646D01*
X163397290Y-36178159D01*
X163669041Y-36449910D01*
X163882554Y-36769455D01*
X163882555Y-36769457D01*
X164029625Y-37124515D01*
X164104600Y-37501442D01*
X164104600Y-37885758D01*
X164029625Y-38262685D01*
X163882555Y-38617743D01*
X163882554Y-38617745D01*
X163669041Y-38937290D01*
X163397290Y-39209041D01*
X163077745Y-39422554D01*
X163077744Y-39422555D01*
X163077743Y-39422555D01*
X162722685Y-39569625D01*
X162345758Y-39644600D01*
X161961442Y-39644600D01*
X161584515Y-39569625D01*
X161229457Y-39422555D01*
X161229456Y-39422555D01*
X161229455Y-39422554D01*
X160909910Y-39209041D01*
X160638159Y-38937290D01*
X160424646Y-38617745D01*
X160424645Y-38617743D01*
X160277575Y-38262685D01*
X160202600Y-37885758D01*
X160202600Y-37501442D01*
X160277575Y-37124515D01*
X160424645Y-36769457D01*
X160424646Y-36769455D01*
X160638159Y-36449910D01*
X160909910Y-36178159D01*
X161229455Y-35964646D01*
X161229457Y-35964645D01*
X161584515Y-35817575D01*
X161961442Y-35742600D01*
X162345758Y-35742600D01*
X162722685Y-35817575D01*
G37*
G36*
X122336685Y-35817575D02*
G01*
X122691743Y-35964645D01*
X122691745Y-35964646D01*
X123011290Y-36178159D01*
X123283041Y-36449910D01*
X123496554Y-36769455D01*
X123496555Y-36769457D01*
X123643625Y-37124515D01*
X123718600Y-37501442D01*
X123718600Y-37885758D01*
X123643625Y-38262685D01*
X123496555Y-38617743D01*
X123496554Y-38617745D01*
X123283041Y-38937290D01*
X123011290Y-39209041D01*
X122691745Y-39422554D01*
X122691744Y-39422555D01*
X122691743Y-39422555D01*
X122336685Y-39569625D01*
X121959758Y-39644600D01*
X121575442Y-39644600D01*
X121198515Y-39569625D01*
X120843457Y-39422555D01*
X120843456Y-39422555D01*
X120843455Y-39422554D01*
X120523910Y-39209041D01*
X120252159Y-38937290D01*
X120038646Y-38617745D01*
X120038645Y-38617743D01*
X119891575Y-38262685D01*
X119816600Y-37885758D01*
X119816600Y-37501442D01*
X119891575Y-37124515D01*
X120038645Y-36769457D01*
X120038646Y-36769455D01*
X120252159Y-36449910D01*
X120523910Y-36178159D01*
X120843455Y-35964646D01*
X120843457Y-35964645D01*
X121198515Y-35817575D01*
X121575442Y-35742600D01*
X121959758Y-35742600D01*
X122336685Y-35817575D01*
G37*
M02*
