G04 #@! TF.GenerationSoftware,KiCad,Pcbnew,5.1.10*
G04 #@! TF.CreationDate,2021-08-13T22:21:08+02:00*
G04 #@! TF.ProjectId,HMI,484d492e-6b69-4636-9164-5f7063625858,rev?*
G04 #@! TF.SameCoordinates,Original*
G04 #@! TF.FileFunction,Paste,Top*
G04 #@! TF.FilePolarity,Positive*
%FSLAX46Y46*%
G04 Gerber Fmt 4.6, Leading zero omitted, Abs format (unit mm)*
G04 Created by KiCad (PCBNEW 5.1.10) date 2021-08-13 22:21:08*
%MOMM*%
%LPD*%
G01*
G04 APERTURE LIST*
%ADD10R,0.900000X1.000000*%
G04 APERTURE END LIST*
G36*
G01*
X126850000Y-46006250D02*
X126850000Y-45493750D01*
G75*
G02*
X127068750Y-45275000I218750J0D01*
G01*
X127506250Y-45275000D01*
G75*
G02*
X127725000Y-45493750I0J-218750D01*
G01*
X127725000Y-46006250D01*
G75*
G02*
X127506250Y-46225000I-218750J0D01*
G01*
X127068750Y-46225000D01*
G75*
G02*
X126850000Y-46006250I0J218750D01*
G01*
G37*
G36*
G01*
X125275000Y-46006250D02*
X125275000Y-45493750D01*
G75*
G02*
X125493750Y-45275000I218750J0D01*
G01*
X125931250Y-45275000D01*
G75*
G02*
X126150000Y-45493750I0J-218750D01*
G01*
X126150000Y-46006250D01*
G75*
G02*
X125931250Y-46225000I-218750J0D01*
G01*
X125493750Y-46225000D01*
G75*
G02*
X125275000Y-46006250I0J218750D01*
G01*
G37*
G36*
G01*
X162384700Y-43877650D02*
X162384700Y-43365150D01*
G75*
G02*
X162603450Y-43146400I218750J0D01*
G01*
X163040950Y-43146400D01*
G75*
G02*
X163259700Y-43365150I0J-218750D01*
G01*
X163259700Y-43877650D01*
G75*
G02*
X163040950Y-44096400I-218750J0D01*
G01*
X162603450Y-44096400D01*
G75*
G02*
X162384700Y-43877650I0J218750D01*
G01*
G37*
G36*
G01*
X160809700Y-43877650D02*
X160809700Y-43365150D01*
G75*
G02*
X161028450Y-43146400I218750J0D01*
G01*
X161465950Y-43146400D01*
G75*
G02*
X161684700Y-43365150I0J-218750D01*
G01*
X161684700Y-43877650D01*
G75*
G02*
X161465950Y-44096400I-218750J0D01*
G01*
X161028450Y-44096400D01*
G75*
G02*
X160809700Y-43877650I0J218750D01*
G01*
G37*
G36*
G01*
X162384500Y-41439250D02*
X162384500Y-40926750D01*
G75*
G02*
X162603250Y-40708000I218750J0D01*
G01*
X163040750Y-40708000D01*
G75*
G02*
X163259500Y-40926750I0J-218750D01*
G01*
X163259500Y-41439250D01*
G75*
G02*
X163040750Y-41658000I-218750J0D01*
G01*
X162603250Y-41658000D01*
G75*
G02*
X162384500Y-41439250I0J218750D01*
G01*
G37*
G36*
G01*
X160809500Y-41439250D02*
X160809500Y-40926750D01*
G75*
G02*
X161028250Y-40708000I218750J0D01*
G01*
X161465750Y-40708000D01*
G75*
G02*
X161684500Y-40926750I0J-218750D01*
G01*
X161684500Y-41439250D01*
G75*
G02*
X161465750Y-41658000I-218750J0D01*
G01*
X161028250Y-41658000D01*
G75*
G02*
X160809500Y-41439250I0J218750D01*
G01*
G37*
D10*
X134044020Y-97800000D03*
X134044020Y-96200000D03*
X129944020Y-97800000D03*
X129944020Y-96200000D03*
X156050000Y-132800000D03*
X156050000Y-131200000D03*
X151950000Y-132800000D03*
X151950000Y-131200000D03*
X156050000Y-125800000D03*
X156050000Y-124200000D03*
X151950000Y-125800000D03*
X151950000Y-124200000D03*
X156050000Y-118800000D03*
X156050000Y-117200000D03*
X151950000Y-118800000D03*
X151950000Y-117200000D03*
X156050000Y-111800000D03*
X156050000Y-110200000D03*
X151950000Y-111800000D03*
X151950000Y-110200000D03*
X156050000Y-104800000D03*
X156050000Y-103200000D03*
X151950000Y-104800000D03*
X151950000Y-103200000D03*
X156050000Y-97800000D03*
X156050000Y-96200000D03*
X151950000Y-97800000D03*
X151950000Y-96200000D03*
X140950000Y-131200000D03*
X140950000Y-132800000D03*
X145050000Y-131200000D03*
X145050000Y-132800000D03*
X140950000Y-124200000D03*
X140950000Y-125800000D03*
X145050000Y-124200000D03*
X145050000Y-125800000D03*
X140950000Y-117200000D03*
X140950000Y-118800000D03*
X145050000Y-117200000D03*
X145050000Y-118800000D03*
X140950000Y-110200000D03*
X140950000Y-111800000D03*
X145050000Y-110200000D03*
X145050000Y-111800000D03*
X140950000Y-103200000D03*
X140950000Y-104800000D03*
X145050000Y-103200000D03*
X145050000Y-104800000D03*
X140950000Y-96200000D03*
X140950000Y-97800000D03*
X145050000Y-96200000D03*
X145050000Y-97800000D03*
X134044020Y-132800000D03*
X134044020Y-131200000D03*
X129944020Y-132800000D03*
X129944020Y-131200000D03*
X134044020Y-125800000D03*
X134044020Y-124200000D03*
X129944020Y-125800000D03*
X129944020Y-124200000D03*
X134050000Y-118800000D03*
X134050000Y-117200000D03*
X129950000Y-118800000D03*
X129950000Y-117200000D03*
X134050000Y-111800000D03*
X134050000Y-110200000D03*
X129950000Y-111800000D03*
X129950000Y-110200000D03*
X134044020Y-104800000D03*
X134044020Y-103200000D03*
X129944020Y-104800000D03*
X129944020Y-103200000D03*
G36*
G01*
X123271950Y-109732000D02*
X123784450Y-109732000D01*
G75*
G02*
X124003200Y-109950750I0J-218750D01*
G01*
X124003200Y-110388250D01*
G75*
G02*
X123784450Y-110607000I-218750J0D01*
G01*
X123271950Y-110607000D01*
G75*
G02*
X123053200Y-110388250I0J218750D01*
G01*
X123053200Y-109950750D01*
G75*
G02*
X123271950Y-109732000I218750J0D01*
G01*
G37*
G36*
G01*
X123271950Y-108157000D02*
X123784450Y-108157000D01*
G75*
G02*
X124003200Y-108375750I0J-218750D01*
G01*
X124003200Y-108813250D01*
G75*
G02*
X123784450Y-109032000I-218750J0D01*
G01*
X123271950Y-109032000D01*
G75*
G02*
X123053200Y-108813250I0J218750D01*
G01*
X123053200Y-108375750D01*
G75*
G02*
X123271950Y-108157000I218750J0D01*
G01*
G37*
G36*
G01*
X122949600Y-45473350D02*
X122949600Y-45985850D01*
G75*
G02*
X122730850Y-46204600I-218750J0D01*
G01*
X122293350Y-46204600D01*
G75*
G02*
X122074600Y-45985850I0J218750D01*
G01*
X122074600Y-45473350D01*
G75*
G02*
X122293350Y-45254600I218750J0D01*
G01*
X122730850Y-45254600D01*
G75*
G02*
X122949600Y-45473350I0J-218750D01*
G01*
G37*
G36*
G01*
X124524600Y-45473350D02*
X124524600Y-45985850D01*
G75*
G02*
X124305850Y-46204600I-218750J0D01*
G01*
X123868350Y-46204600D01*
G75*
G02*
X123649600Y-45985850I0J218750D01*
G01*
X123649600Y-45473350D01*
G75*
G02*
X123868350Y-45254600I218750J0D01*
G01*
X124305850Y-45254600D01*
G75*
G02*
X124524600Y-45473350I0J-218750D01*
G01*
G37*
G36*
G01*
X123508400Y-55531750D02*
X123508400Y-56044250D01*
G75*
G02*
X123289650Y-56263000I-218750J0D01*
G01*
X122852150Y-56263000D01*
G75*
G02*
X122633400Y-56044250I0J218750D01*
G01*
X122633400Y-55531750D01*
G75*
G02*
X122852150Y-55313000I218750J0D01*
G01*
X123289650Y-55313000D01*
G75*
G02*
X123508400Y-55531750I0J-218750D01*
G01*
G37*
G36*
G01*
X125083400Y-55531750D02*
X125083400Y-56044250D01*
G75*
G02*
X124864650Y-56263000I-218750J0D01*
G01*
X124427150Y-56263000D01*
G75*
G02*
X124208400Y-56044250I0J218750D01*
G01*
X124208400Y-55531750D01*
G75*
G02*
X124427150Y-55313000I218750J0D01*
G01*
X124864650Y-55313000D01*
G75*
G02*
X125083400Y-55531750I0J-218750D01*
G01*
G37*
G36*
G01*
X156650000Y-128993750D02*
X156650000Y-129506250D01*
G75*
G02*
X156431250Y-129725000I-218750J0D01*
G01*
X155993750Y-129725000D01*
G75*
G02*
X155775000Y-129506250I0J218750D01*
G01*
X155775000Y-128993750D01*
G75*
G02*
X155993750Y-128775000I218750J0D01*
G01*
X156431250Y-128775000D01*
G75*
G02*
X156650000Y-128993750I0J-218750D01*
G01*
G37*
G36*
G01*
X158225000Y-128993750D02*
X158225000Y-129506250D01*
G75*
G02*
X158006250Y-129725000I-218750J0D01*
G01*
X157568750Y-129725000D01*
G75*
G02*
X157350000Y-129506250I0J218750D01*
G01*
X157350000Y-128993750D01*
G75*
G02*
X157568750Y-128775000I218750J0D01*
G01*
X158006250Y-128775000D01*
G75*
G02*
X158225000Y-128993750I0J-218750D01*
G01*
G37*
G36*
G01*
X156650000Y-121993750D02*
X156650000Y-122506250D01*
G75*
G02*
X156431250Y-122725000I-218750J0D01*
G01*
X155993750Y-122725000D01*
G75*
G02*
X155775000Y-122506250I0J218750D01*
G01*
X155775000Y-121993750D01*
G75*
G02*
X155993750Y-121775000I218750J0D01*
G01*
X156431250Y-121775000D01*
G75*
G02*
X156650000Y-121993750I0J-218750D01*
G01*
G37*
G36*
G01*
X158225000Y-121993750D02*
X158225000Y-122506250D01*
G75*
G02*
X158006250Y-122725000I-218750J0D01*
G01*
X157568750Y-122725000D01*
G75*
G02*
X157350000Y-122506250I0J218750D01*
G01*
X157350000Y-121993750D01*
G75*
G02*
X157568750Y-121775000I218750J0D01*
G01*
X158006250Y-121775000D01*
G75*
G02*
X158225000Y-121993750I0J-218750D01*
G01*
G37*
G36*
G01*
X156650000Y-114993750D02*
X156650000Y-115506250D01*
G75*
G02*
X156431250Y-115725000I-218750J0D01*
G01*
X155993750Y-115725000D01*
G75*
G02*
X155775000Y-115506250I0J218750D01*
G01*
X155775000Y-114993750D01*
G75*
G02*
X155993750Y-114775000I218750J0D01*
G01*
X156431250Y-114775000D01*
G75*
G02*
X156650000Y-114993750I0J-218750D01*
G01*
G37*
G36*
G01*
X158225000Y-114993750D02*
X158225000Y-115506250D01*
G75*
G02*
X158006250Y-115725000I-218750J0D01*
G01*
X157568750Y-115725000D01*
G75*
G02*
X157350000Y-115506250I0J218750D01*
G01*
X157350000Y-114993750D01*
G75*
G02*
X157568750Y-114775000I218750J0D01*
G01*
X158006250Y-114775000D01*
G75*
G02*
X158225000Y-114993750I0J-218750D01*
G01*
G37*
G36*
G01*
X156650000Y-107993750D02*
X156650000Y-108506250D01*
G75*
G02*
X156431250Y-108725000I-218750J0D01*
G01*
X155993750Y-108725000D01*
G75*
G02*
X155775000Y-108506250I0J218750D01*
G01*
X155775000Y-107993750D01*
G75*
G02*
X155993750Y-107775000I218750J0D01*
G01*
X156431250Y-107775000D01*
G75*
G02*
X156650000Y-107993750I0J-218750D01*
G01*
G37*
G36*
G01*
X158225000Y-107993750D02*
X158225000Y-108506250D01*
G75*
G02*
X158006250Y-108725000I-218750J0D01*
G01*
X157568750Y-108725000D01*
G75*
G02*
X157350000Y-108506250I0J218750D01*
G01*
X157350000Y-107993750D01*
G75*
G02*
X157568750Y-107775000I218750J0D01*
G01*
X158006250Y-107775000D01*
G75*
G02*
X158225000Y-107993750I0J-218750D01*
G01*
G37*
G36*
G01*
X156650000Y-100993750D02*
X156650000Y-101506250D01*
G75*
G02*
X156431250Y-101725000I-218750J0D01*
G01*
X155993750Y-101725000D01*
G75*
G02*
X155775000Y-101506250I0J218750D01*
G01*
X155775000Y-100993750D01*
G75*
G02*
X155993750Y-100775000I218750J0D01*
G01*
X156431250Y-100775000D01*
G75*
G02*
X156650000Y-100993750I0J-218750D01*
G01*
G37*
G36*
G01*
X158225000Y-100993750D02*
X158225000Y-101506250D01*
G75*
G02*
X158006250Y-101725000I-218750J0D01*
G01*
X157568750Y-101725000D01*
G75*
G02*
X157350000Y-101506250I0J218750D01*
G01*
X157350000Y-100993750D01*
G75*
G02*
X157568750Y-100775000I218750J0D01*
G01*
X158006250Y-100775000D01*
G75*
G02*
X158225000Y-100993750I0J-218750D01*
G01*
G37*
G36*
G01*
X156650000Y-93993750D02*
X156650000Y-94506250D01*
G75*
G02*
X156431250Y-94725000I-218750J0D01*
G01*
X155993750Y-94725000D01*
G75*
G02*
X155775000Y-94506250I0J218750D01*
G01*
X155775000Y-93993750D01*
G75*
G02*
X155993750Y-93775000I218750J0D01*
G01*
X156431250Y-93775000D01*
G75*
G02*
X156650000Y-93993750I0J-218750D01*
G01*
G37*
G36*
G01*
X158225000Y-93993750D02*
X158225000Y-94506250D01*
G75*
G02*
X158006250Y-94725000I-218750J0D01*
G01*
X157568750Y-94725000D01*
G75*
G02*
X157350000Y-94506250I0J218750D01*
G01*
X157350000Y-93993750D01*
G75*
G02*
X157568750Y-93775000I218750J0D01*
G01*
X158006250Y-93775000D01*
G75*
G02*
X158225000Y-93993750I0J-218750D01*
G01*
G37*
G36*
G01*
X125400000Y-109862350D02*
X125400000Y-110374850D01*
G75*
G02*
X125181250Y-110593600I-218750J0D01*
G01*
X124743750Y-110593600D01*
G75*
G02*
X124525000Y-110374850I0J218750D01*
G01*
X124525000Y-109862350D01*
G75*
G02*
X124743750Y-109643600I218750J0D01*
G01*
X125181250Y-109643600D01*
G75*
G02*
X125400000Y-109862350I0J-218750D01*
G01*
G37*
G36*
G01*
X126975000Y-109862350D02*
X126975000Y-110374850D01*
G75*
G02*
X126756250Y-110593600I-218750J0D01*
G01*
X126318750Y-110593600D01*
G75*
G02*
X126100000Y-110374850I0J218750D01*
G01*
X126100000Y-109862350D01*
G75*
G02*
X126318750Y-109643600I218750J0D01*
G01*
X126756250Y-109643600D01*
G75*
G02*
X126975000Y-109862350I0J-218750D01*
G01*
G37*
G36*
G01*
X125413300Y-115297950D02*
X125413300Y-115810450D01*
G75*
G02*
X125194550Y-116029200I-218750J0D01*
G01*
X124757050Y-116029200D01*
G75*
G02*
X124538300Y-115810450I0J218750D01*
G01*
X124538300Y-115297950D01*
G75*
G02*
X124757050Y-115079200I218750J0D01*
G01*
X125194550Y-115079200D01*
G75*
G02*
X125413300Y-115297950I0J-218750D01*
G01*
G37*
G36*
G01*
X126988300Y-115297950D02*
X126988300Y-115810450D01*
G75*
G02*
X126769550Y-116029200I-218750J0D01*
G01*
X126332050Y-116029200D01*
G75*
G02*
X126113300Y-115810450I0J218750D01*
G01*
X126113300Y-115297950D01*
G75*
G02*
X126332050Y-115079200I218750J0D01*
G01*
X126769550Y-115079200D01*
G75*
G02*
X126988300Y-115297950I0J-218750D01*
G01*
G37*
G36*
G01*
X125387900Y-111360950D02*
X125387900Y-111873450D01*
G75*
G02*
X125169150Y-112092200I-218750J0D01*
G01*
X124731650Y-112092200D01*
G75*
G02*
X124512900Y-111873450I0J218750D01*
G01*
X124512900Y-111360950D01*
G75*
G02*
X124731650Y-111142200I218750J0D01*
G01*
X125169150Y-111142200D01*
G75*
G02*
X125387900Y-111360950I0J-218750D01*
G01*
G37*
G36*
G01*
X126962900Y-111360950D02*
X126962900Y-111873450D01*
G75*
G02*
X126744150Y-112092200I-218750J0D01*
G01*
X126306650Y-112092200D01*
G75*
G02*
X126087900Y-111873450I0J218750D01*
G01*
X126087900Y-111360950D01*
G75*
G02*
X126306650Y-111142200I218750J0D01*
G01*
X126744150Y-111142200D01*
G75*
G02*
X126962900Y-111360950I0J-218750D01*
G01*
G37*
G36*
G01*
X125413300Y-116771150D02*
X125413300Y-117283650D01*
G75*
G02*
X125194550Y-117502400I-218750J0D01*
G01*
X124757050Y-117502400D01*
G75*
G02*
X124538300Y-117283650I0J218750D01*
G01*
X124538300Y-116771150D01*
G75*
G02*
X124757050Y-116552400I218750J0D01*
G01*
X125194550Y-116552400D01*
G75*
G02*
X125413300Y-116771150I0J-218750D01*
G01*
G37*
G36*
G01*
X126988300Y-116771150D02*
X126988300Y-117283650D01*
G75*
G02*
X126769550Y-117502400I-218750J0D01*
G01*
X126332050Y-117502400D01*
G75*
G02*
X126113300Y-117283650I0J218750D01*
G01*
X126113300Y-116771150D01*
G75*
G02*
X126332050Y-116552400I218750J0D01*
G01*
X126769550Y-116552400D01*
G75*
G02*
X126988300Y-116771150I0J-218750D01*
G01*
G37*
G36*
G01*
X126100000Y-114311850D02*
X126100000Y-113799350D01*
G75*
G02*
X126318750Y-113580600I218750J0D01*
G01*
X126756250Y-113580600D01*
G75*
G02*
X126975000Y-113799350I0J-218750D01*
G01*
X126975000Y-114311850D01*
G75*
G02*
X126756250Y-114530600I-218750J0D01*
G01*
X126318750Y-114530600D01*
G75*
G02*
X126100000Y-114311850I0J218750D01*
G01*
G37*
G36*
G01*
X124525000Y-114311850D02*
X124525000Y-113799350D01*
G75*
G02*
X124743750Y-113580600I218750J0D01*
G01*
X125181250Y-113580600D01*
G75*
G02*
X125400000Y-113799350I0J-218750D01*
G01*
X125400000Y-114311850D01*
G75*
G02*
X125181250Y-114530600I-218750J0D01*
G01*
X124743750Y-114530600D01*
G75*
G02*
X124525000Y-114311850I0J218750D01*
G01*
G37*
G36*
G01*
X123271950Y-115142300D02*
X123784450Y-115142300D01*
G75*
G02*
X124003200Y-115361050I0J-218750D01*
G01*
X124003200Y-115798550D01*
G75*
G02*
X123784450Y-116017300I-218750J0D01*
G01*
X123271950Y-116017300D01*
G75*
G02*
X123053200Y-115798550I0J218750D01*
G01*
X123053200Y-115361050D01*
G75*
G02*
X123271950Y-115142300I218750J0D01*
G01*
G37*
G36*
G01*
X123271950Y-113567300D02*
X123784450Y-113567300D01*
G75*
G02*
X124003200Y-113786050I0J-218750D01*
G01*
X124003200Y-114223550D01*
G75*
G02*
X123784450Y-114442300I-218750J0D01*
G01*
X123271950Y-114442300D01*
G75*
G02*
X123053200Y-114223550I0J218750D01*
G01*
X123053200Y-113786050D01*
G75*
G02*
X123271950Y-113567300I218750J0D01*
G01*
G37*
G36*
G01*
X126113300Y-108876250D02*
X126113300Y-108363750D01*
G75*
G02*
X126332050Y-108145000I218750J0D01*
G01*
X126769550Y-108145000D01*
G75*
G02*
X126988300Y-108363750I0J-218750D01*
G01*
X126988300Y-108876250D01*
G75*
G02*
X126769550Y-109095000I-218750J0D01*
G01*
X126332050Y-109095000D01*
G75*
G02*
X126113300Y-108876250I0J218750D01*
G01*
G37*
G36*
G01*
X124538300Y-108876250D02*
X124538300Y-108363750D01*
G75*
G02*
X124757050Y-108145000I218750J0D01*
G01*
X125194550Y-108145000D01*
G75*
G02*
X125413300Y-108363750I0J-218750D01*
G01*
X125413300Y-108876250D01*
G75*
G02*
X125194550Y-109095000I-218750J0D01*
G01*
X124757050Y-109095000D01*
G75*
G02*
X124538300Y-108876250I0J218750D01*
G01*
G37*
M02*
