G04 #@! TF.GenerationSoftware,KiCad,Pcbnew,5.1.6-c6e7f7d~87~ubuntu18.04.1*
G04 #@! TF.CreationDate,2020-07-22T21:50:42+02:00*
G04 #@! TF.ProjectId,HMI,484d492e-6b69-4636-9164-5f7063625858,rev?*
G04 #@! TF.SameCoordinates,Original*
G04 #@! TF.FileFunction,Soldermask,Bot*
G04 #@! TF.FilePolarity,Negative*
%FSLAX46Y46*%
G04 Gerber Fmt 4.6, Leading zero omitted, Abs format (unit mm)*
G04 Created by KiCad (PCBNEW 5.1.6-c6e7f7d~87~ubuntu18.04.1) date 2020-07-22 21:50:42*
%MOMM*%
%LPD*%
G01*
G04 APERTURE LIST*
%ADD10C,0.100000*%
G04 APERTURE END LIST*
D10*
X75458960Y-61137480D02*
G75*
G03*
X75458960Y-61137480I-1143000J0D01*
G01*
X72704960Y-66887480D02*
G75*
G03*
X72704960Y-66887480I-889000J0D01*
G01*
X72704960Y-62387480D02*
G75*
G03*
X72704960Y-62387480I-889000J0D01*
G01*
X75458960Y-68137480D02*
G75*
G03*
X75458960Y-68137480I-1143000J0D01*
G01*
X75509760Y-70906320D02*
G75*
G03*
X75509760Y-70906320I-1143000J0D01*
G01*
X72755760Y-76656320D02*
G75*
G03*
X72755760Y-76656320I-889000J0D01*
G01*
X72755760Y-72156320D02*
G75*
G03*
X72755760Y-72156320I-889000J0D01*
G01*
X75509760Y-77906320D02*
G75*
G03*
X75509760Y-77906320I-1143000J0D01*
G01*
G36*
X78875000Y-107758000D02*
G01*
X76573000Y-107758000D01*
X76573000Y-105856000D01*
X78875000Y-105856000D01*
X78875000Y-107758000D01*
G37*
G36*
X81675000Y-105108000D02*
G01*
X80273000Y-105108000D01*
X80273000Y-100206000D01*
X81675000Y-100206000D01*
X81675000Y-105108000D01*
G37*
G36*
X78875000Y-99458000D02*
G01*
X76573000Y-99458000D01*
X76573000Y-97556000D01*
X78875000Y-97556000D01*
X78875000Y-99458000D01*
G37*
G36*
X74591309Y-76777436D02*
G01*
X74702494Y-76799552D01*
X74911963Y-76886317D01*
X75100480Y-77012280D01*
X75260800Y-77172600D01*
X75386763Y-77361117D01*
X75473528Y-77570586D01*
X75517760Y-77792956D01*
X75517760Y-78019684D01*
X75473528Y-78242054D01*
X75386763Y-78451523D01*
X75260800Y-78640040D01*
X75100480Y-78800360D01*
X74911963Y-78926323D01*
X74702494Y-79013088D01*
X74591309Y-79035204D01*
X74480125Y-79057320D01*
X74253395Y-79057320D01*
X74142211Y-79035204D01*
X74031026Y-79013088D01*
X73821557Y-78926323D01*
X73633040Y-78800360D01*
X73472720Y-78640040D01*
X73346757Y-78451523D01*
X73259992Y-78242054D01*
X73215760Y-78019684D01*
X73215760Y-77792956D01*
X73259992Y-77570586D01*
X73346757Y-77361117D01*
X73472720Y-77172600D01*
X73633040Y-77012280D01*
X73821557Y-76886317D01*
X74031026Y-76799552D01*
X74142211Y-76777436D01*
X74253395Y-76755320D01*
X74480125Y-76755320D01*
X74591309Y-76777436D01*
G37*
G36*
X83437591Y-76604685D02*
G01*
X83471569Y-76614993D01*
X83502890Y-76631734D01*
X83530339Y-76654261D01*
X83552866Y-76681710D01*
X83569607Y-76713031D01*
X83579915Y-76747009D01*
X83584000Y-76788490D01*
X83584000Y-77389710D01*
X83579915Y-77431191D01*
X83569607Y-77465169D01*
X83552866Y-77496490D01*
X83530339Y-77523939D01*
X83502890Y-77546466D01*
X83471569Y-77563207D01*
X83437591Y-77573515D01*
X83396110Y-77577600D01*
X82719890Y-77577600D01*
X82678409Y-77573515D01*
X82644431Y-77563207D01*
X82613110Y-77546466D01*
X82585661Y-77523939D01*
X82563134Y-77496490D01*
X82546393Y-77465169D01*
X82536085Y-77431191D01*
X82532000Y-77389710D01*
X82532000Y-76788490D01*
X82536085Y-76747009D01*
X82546393Y-76713031D01*
X82563134Y-76681710D01*
X82585661Y-76654261D01*
X82613110Y-76631734D01*
X82644431Y-76614993D01*
X82678409Y-76604685D01*
X82719890Y-76600600D01*
X83396110Y-76600600D01*
X83437591Y-76604685D01*
G37*
G36*
X71980272Y-75760247D02*
G01*
X72129572Y-75789944D01*
X72293544Y-75857864D01*
X72441114Y-75956467D01*
X72566613Y-76081966D01*
X72665216Y-76229536D01*
X72733136Y-76393508D01*
X72752824Y-76492490D01*
X72767760Y-76567578D01*
X72767760Y-76745062D01*
X72762833Y-76769832D01*
X72733136Y-76919132D01*
X72665216Y-77083104D01*
X72566613Y-77230674D01*
X72441114Y-77356173D01*
X72293544Y-77454776D01*
X72129572Y-77522696D01*
X71980272Y-77552393D01*
X71955502Y-77557320D01*
X71778018Y-77557320D01*
X71753248Y-77552393D01*
X71603948Y-77522696D01*
X71439976Y-77454776D01*
X71292406Y-77356173D01*
X71166907Y-77230674D01*
X71068304Y-77083104D01*
X71000384Y-76919132D01*
X70970687Y-76769832D01*
X70965760Y-76745062D01*
X70965760Y-76567578D01*
X70980696Y-76492490D01*
X71000384Y-76393508D01*
X71068304Y-76229536D01*
X71166907Y-76081966D01*
X71292406Y-75956467D01*
X71439976Y-75857864D01*
X71603948Y-75789944D01*
X71753248Y-75760247D01*
X71778018Y-75755320D01*
X71955502Y-75755320D01*
X71980272Y-75760247D01*
G37*
G36*
X86441051Y-75639284D02*
G01*
X86457443Y-75644257D01*
X86472555Y-75652334D01*
X86485798Y-75663202D01*
X86496667Y-75676447D01*
X86500761Y-75684106D01*
X86514374Y-75704480D01*
X86531701Y-75721807D01*
X86552076Y-75735421D01*
X86574714Y-75744798D01*
X86598748Y-75749579D01*
X86623252Y-75749579D01*
X86647285Y-75744799D01*
X86669924Y-75735421D01*
X86690298Y-75721808D01*
X86707625Y-75704481D01*
X86721239Y-75684106D01*
X86725333Y-75676447D01*
X86736202Y-75663202D01*
X86749445Y-75652334D01*
X86764557Y-75644257D01*
X86780949Y-75639284D01*
X86804141Y-75637000D01*
X87217859Y-75637000D01*
X87241051Y-75639284D01*
X87257443Y-75644257D01*
X87272555Y-75652334D01*
X87285798Y-75663202D01*
X87296667Y-75676447D01*
X87300761Y-75684106D01*
X87314374Y-75704480D01*
X87331701Y-75721807D01*
X87352076Y-75735421D01*
X87374714Y-75744798D01*
X87398748Y-75749579D01*
X87423252Y-75749579D01*
X87447285Y-75744799D01*
X87469924Y-75735421D01*
X87490298Y-75721808D01*
X87507625Y-75704481D01*
X87521239Y-75684106D01*
X87525333Y-75676447D01*
X87536202Y-75663202D01*
X87549445Y-75652334D01*
X87564557Y-75644257D01*
X87580949Y-75639284D01*
X87604141Y-75637000D01*
X88017859Y-75637000D01*
X88041051Y-75639284D01*
X88057443Y-75644257D01*
X88072555Y-75652334D01*
X88085798Y-75663202D01*
X88096667Y-75676447D01*
X88100761Y-75684106D01*
X88114374Y-75704480D01*
X88131701Y-75721807D01*
X88152076Y-75735421D01*
X88174714Y-75744798D01*
X88198748Y-75749579D01*
X88223252Y-75749579D01*
X88247285Y-75744799D01*
X88269924Y-75735421D01*
X88290298Y-75721808D01*
X88307625Y-75704481D01*
X88321239Y-75684106D01*
X88325333Y-75676447D01*
X88336202Y-75663202D01*
X88349445Y-75652334D01*
X88364557Y-75644257D01*
X88380949Y-75639284D01*
X88404141Y-75637000D01*
X88817859Y-75637000D01*
X88841051Y-75639284D01*
X88857443Y-75644257D01*
X88872555Y-75652334D01*
X88885798Y-75663202D01*
X88896667Y-75676447D01*
X88900761Y-75684106D01*
X88914374Y-75704480D01*
X88931701Y-75721807D01*
X88952076Y-75735421D01*
X88974714Y-75744798D01*
X88998748Y-75749579D01*
X89023252Y-75749579D01*
X89047285Y-75744799D01*
X89069924Y-75735421D01*
X89090298Y-75721808D01*
X89107625Y-75704481D01*
X89121239Y-75684106D01*
X89125333Y-75676447D01*
X89136202Y-75663202D01*
X89149445Y-75652334D01*
X89164557Y-75644257D01*
X89180949Y-75639284D01*
X89204141Y-75637000D01*
X89617859Y-75637000D01*
X89641051Y-75639284D01*
X89657443Y-75644257D01*
X89672555Y-75652334D01*
X89685798Y-75663202D01*
X89696667Y-75676447D01*
X89700761Y-75684106D01*
X89714374Y-75704480D01*
X89731701Y-75721807D01*
X89752076Y-75735421D01*
X89774714Y-75744798D01*
X89798748Y-75749579D01*
X89823252Y-75749579D01*
X89847285Y-75744799D01*
X89869924Y-75735421D01*
X89890298Y-75721808D01*
X89907625Y-75704481D01*
X89921239Y-75684106D01*
X89925333Y-75676447D01*
X89936202Y-75663202D01*
X89949445Y-75652334D01*
X89964557Y-75644257D01*
X89980949Y-75639284D01*
X90004141Y-75637000D01*
X90417859Y-75637000D01*
X90441051Y-75639284D01*
X90457443Y-75644257D01*
X90472555Y-75652334D01*
X90485798Y-75663202D01*
X90496667Y-75676447D01*
X90500761Y-75684106D01*
X90514374Y-75704480D01*
X90531701Y-75721807D01*
X90552076Y-75735421D01*
X90574714Y-75744798D01*
X90598748Y-75749579D01*
X90623252Y-75749579D01*
X90647285Y-75744799D01*
X90669924Y-75735421D01*
X90690298Y-75721808D01*
X90707625Y-75704481D01*
X90721239Y-75684106D01*
X90725333Y-75676447D01*
X90736202Y-75663202D01*
X90749445Y-75652334D01*
X90764557Y-75644257D01*
X90780949Y-75639284D01*
X90804141Y-75637000D01*
X91217859Y-75637000D01*
X91241051Y-75639284D01*
X91257443Y-75644257D01*
X91272555Y-75652334D01*
X91285798Y-75663202D01*
X91296667Y-75676447D01*
X91300761Y-75684106D01*
X91314374Y-75704480D01*
X91331701Y-75721807D01*
X91352076Y-75735421D01*
X91374714Y-75744798D01*
X91398748Y-75749579D01*
X91423252Y-75749579D01*
X91447285Y-75744799D01*
X91469924Y-75735421D01*
X91490298Y-75721808D01*
X91507625Y-75704481D01*
X91521239Y-75684106D01*
X91525333Y-75676447D01*
X91536202Y-75663202D01*
X91549445Y-75652334D01*
X91564557Y-75644257D01*
X91580949Y-75639284D01*
X91604141Y-75637000D01*
X92017859Y-75637000D01*
X92041051Y-75639284D01*
X92057443Y-75644257D01*
X92072555Y-75652334D01*
X92085798Y-75663202D01*
X92096666Y-75676445D01*
X92104743Y-75691557D01*
X92109716Y-75707949D01*
X92112000Y-75731141D01*
X92112000Y-77144859D01*
X92109716Y-77168051D01*
X92104743Y-77184443D01*
X92096666Y-77199555D01*
X92085798Y-77212798D01*
X92072555Y-77223666D01*
X92057443Y-77231743D01*
X92041051Y-77236716D01*
X92017859Y-77239000D01*
X91604141Y-77239000D01*
X91580949Y-77236716D01*
X91564557Y-77231743D01*
X91549445Y-77223666D01*
X91536202Y-77212798D01*
X91525333Y-77199553D01*
X91521239Y-77191894D01*
X91507626Y-77171520D01*
X91490299Y-77154193D01*
X91469924Y-77140579D01*
X91447286Y-77131202D01*
X91423252Y-77126421D01*
X91398748Y-77126421D01*
X91374715Y-77131201D01*
X91352076Y-77140579D01*
X91331702Y-77154192D01*
X91314375Y-77171519D01*
X91300761Y-77191894D01*
X91296667Y-77199553D01*
X91285798Y-77212798D01*
X91272555Y-77223666D01*
X91257443Y-77231743D01*
X91241051Y-77236716D01*
X91217859Y-77239000D01*
X90804141Y-77239000D01*
X90780949Y-77236716D01*
X90764557Y-77231743D01*
X90749445Y-77223666D01*
X90736202Y-77212798D01*
X90725333Y-77199553D01*
X90721239Y-77191894D01*
X90707626Y-77171520D01*
X90690299Y-77154193D01*
X90669924Y-77140579D01*
X90647286Y-77131202D01*
X90623252Y-77126421D01*
X90598748Y-77126421D01*
X90574715Y-77131201D01*
X90552076Y-77140579D01*
X90531702Y-77154192D01*
X90514375Y-77171519D01*
X90500761Y-77191894D01*
X90496667Y-77199553D01*
X90485798Y-77212798D01*
X90472555Y-77223666D01*
X90457443Y-77231743D01*
X90441051Y-77236716D01*
X90417859Y-77239000D01*
X90004141Y-77239000D01*
X89980949Y-77236716D01*
X89964557Y-77231743D01*
X89949445Y-77223666D01*
X89936202Y-77212798D01*
X89925333Y-77199553D01*
X89921239Y-77191894D01*
X89907626Y-77171520D01*
X89890299Y-77154193D01*
X89869924Y-77140579D01*
X89847286Y-77131202D01*
X89823252Y-77126421D01*
X89798748Y-77126421D01*
X89774715Y-77131201D01*
X89752076Y-77140579D01*
X89731702Y-77154192D01*
X89714375Y-77171519D01*
X89700761Y-77191894D01*
X89696667Y-77199553D01*
X89685798Y-77212798D01*
X89672555Y-77223666D01*
X89657443Y-77231743D01*
X89641051Y-77236716D01*
X89617859Y-77239000D01*
X89204141Y-77239000D01*
X89180949Y-77236716D01*
X89164557Y-77231743D01*
X89149445Y-77223666D01*
X89136202Y-77212798D01*
X89125333Y-77199553D01*
X89121239Y-77191894D01*
X89107626Y-77171520D01*
X89090299Y-77154193D01*
X89069924Y-77140579D01*
X89047286Y-77131202D01*
X89023252Y-77126421D01*
X88998748Y-77126421D01*
X88974715Y-77131201D01*
X88952076Y-77140579D01*
X88931702Y-77154192D01*
X88914375Y-77171519D01*
X88900761Y-77191894D01*
X88896667Y-77199553D01*
X88885798Y-77212798D01*
X88872555Y-77223666D01*
X88857443Y-77231743D01*
X88841051Y-77236716D01*
X88817859Y-77239000D01*
X88404141Y-77239000D01*
X88380949Y-77236716D01*
X88364557Y-77231743D01*
X88349445Y-77223666D01*
X88336202Y-77212798D01*
X88325333Y-77199553D01*
X88321239Y-77191894D01*
X88307626Y-77171520D01*
X88290299Y-77154193D01*
X88269924Y-77140579D01*
X88247286Y-77131202D01*
X88223252Y-77126421D01*
X88198748Y-77126421D01*
X88174715Y-77131201D01*
X88152076Y-77140579D01*
X88131702Y-77154192D01*
X88114375Y-77171519D01*
X88100761Y-77191894D01*
X88096667Y-77199553D01*
X88085798Y-77212798D01*
X88072555Y-77223666D01*
X88057443Y-77231743D01*
X88041051Y-77236716D01*
X88017859Y-77239000D01*
X87604141Y-77239000D01*
X87580949Y-77236716D01*
X87564557Y-77231743D01*
X87549445Y-77223666D01*
X87536202Y-77212798D01*
X87525333Y-77199553D01*
X87521239Y-77191894D01*
X87507626Y-77171520D01*
X87490299Y-77154193D01*
X87469924Y-77140579D01*
X87447286Y-77131202D01*
X87423252Y-77126421D01*
X87398748Y-77126421D01*
X87374715Y-77131201D01*
X87352076Y-77140579D01*
X87331702Y-77154192D01*
X87314375Y-77171519D01*
X87300761Y-77191894D01*
X87296667Y-77199553D01*
X87285798Y-77212798D01*
X87272555Y-77223666D01*
X87257443Y-77231743D01*
X87241051Y-77236716D01*
X87217859Y-77239000D01*
X86804141Y-77239000D01*
X86780949Y-77236716D01*
X86764557Y-77231743D01*
X86749445Y-77223666D01*
X86736202Y-77212798D01*
X86725333Y-77199553D01*
X86721239Y-77191894D01*
X86707626Y-77171520D01*
X86690299Y-77154193D01*
X86669924Y-77140579D01*
X86647286Y-77131202D01*
X86623252Y-77126421D01*
X86598748Y-77126421D01*
X86574715Y-77131201D01*
X86552076Y-77140579D01*
X86531702Y-77154192D01*
X86514375Y-77171519D01*
X86500761Y-77191894D01*
X86496667Y-77199553D01*
X86485798Y-77212798D01*
X86472555Y-77223666D01*
X86457443Y-77231743D01*
X86441051Y-77236716D01*
X86417859Y-77239000D01*
X86004141Y-77239000D01*
X85980949Y-77236716D01*
X85964557Y-77231743D01*
X85949445Y-77223666D01*
X85936202Y-77212798D01*
X85925334Y-77199555D01*
X85917257Y-77184443D01*
X85912284Y-77168051D01*
X85910000Y-77144859D01*
X85910000Y-75731141D01*
X85912284Y-75707949D01*
X85917257Y-75691557D01*
X85925334Y-75676445D01*
X85936202Y-75663202D01*
X85949445Y-75652334D01*
X85964557Y-75644257D01*
X85980949Y-75639284D01*
X86004141Y-75637000D01*
X86417859Y-75637000D01*
X86441051Y-75639284D01*
G37*
G36*
X99148091Y-75525685D02*
G01*
X99182069Y-75535993D01*
X99213390Y-75552734D01*
X99240839Y-75575261D01*
X99263366Y-75602710D01*
X99280107Y-75634031D01*
X99290415Y-75668009D01*
X99294500Y-75709490D01*
X99294500Y-76385710D01*
X99290415Y-76427191D01*
X99280107Y-76461169D01*
X99263366Y-76492490D01*
X99240839Y-76519939D01*
X99213390Y-76542466D01*
X99182069Y-76559207D01*
X99148091Y-76569515D01*
X99106610Y-76573600D01*
X98505390Y-76573600D01*
X98463909Y-76569515D01*
X98429931Y-76559207D01*
X98398610Y-76542466D01*
X98371161Y-76519939D01*
X98348634Y-76492490D01*
X98331893Y-76461169D01*
X98321585Y-76427191D01*
X98317500Y-76385710D01*
X98317500Y-75709490D01*
X98321585Y-75668009D01*
X98331893Y-75634031D01*
X98348634Y-75602710D01*
X98371161Y-75575261D01*
X98398610Y-75552734D01*
X98429931Y-75535993D01*
X98463909Y-75525685D01*
X98505390Y-75521600D01*
X99106610Y-75521600D01*
X99148091Y-75525685D01*
G37*
G36*
X100723091Y-75525685D02*
G01*
X100757069Y-75535993D01*
X100788390Y-75552734D01*
X100815839Y-75575261D01*
X100838366Y-75602710D01*
X100855107Y-75634031D01*
X100865415Y-75668009D01*
X100869500Y-75709490D01*
X100869500Y-76385710D01*
X100865415Y-76427191D01*
X100855107Y-76461169D01*
X100838366Y-76492490D01*
X100815839Y-76519939D01*
X100788390Y-76542466D01*
X100757069Y-76559207D01*
X100723091Y-76569515D01*
X100681610Y-76573600D01*
X100080390Y-76573600D01*
X100038909Y-76569515D01*
X100004931Y-76559207D01*
X99973610Y-76542466D01*
X99946161Y-76519939D01*
X99923634Y-76492490D01*
X99906893Y-76461169D01*
X99896585Y-76427191D01*
X99892500Y-76385710D01*
X99892500Y-75709490D01*
X99896585Y-75668009D01*
X99906893Y-75634031D01*
X99923634Y-75602710D01*
X99946161Y-75575261D01*
X99973610Y-75552734D01*
X100004931Y-75535993D01*
X100038909Y-75525685D01*
X100080390Y-75521600D01*
X100681610Y-75521600D01*
X100723091Y-75525685D01*
G37*
G36*
X76034091Y-75170085D02*
G01*
X76068069Y-75180393D01*
X76099390Y-75197134D01*
X76126839Y-75219661D01*
X76149366Y-75247110D01*
X76166107Y-75278431D01*
X76176415Y-75312409D01*
X76180500Y-75353890D01*
X76180500Y-76030110D01*
X76176415Y-76071591D01*
X76166107Y-76105569D01*
X76149366Y-76136890D01*
X76126839Y-76164339D01*
X76099390Y-76186866D01*
X76068069Y-76203607D01*
X76034091Y-76213915D01*
X75992610Y-76218000D01*
X75391390Y-76218000D01*
X75349909Y-76213915D01*
X75315931Y-76203607D01*
X75284610Y-76186866D01*
X75257161Y-76164339D01*
X75234634Y-76136890D01*
X75217893Y-76105569D01*
X75207585Y-76071591D01*
X75203500Y-76030110D01*
X75203500Y-75353890D01*
X75207585Y-75312409D01*
X75217893Y-75278431D01*
X75234634Y-75247110D01*
X75257161Y-75219661D01*
X75284610Y-75197134D01*
X75315931Y-75180393D01*
X75349909Y-75170085D01*
X75391390Y-75166000D01*
X75992610Y-75166000D01*
X76034091Y-75170085D01*
G37*
G36*
X77609091Y-75170085D02*
G01*
X77643069Y-75180393D01*
X77674390Y-75197134D01*
X77701839Y-75219661D01*
X77724366Y-75247110D01*
X77741107Y-75278431D01*
X77751415Y-75312409D01*
X77755500Y-75353890D01*
X77755500Y-76030110D01*
X77751415Y-76071591D01*
X77741107Y-76105569D01*
X77724366Y-76136890D01*
X77701839Y-76164339D01*
X77674390Y-76186866D01*
X77643069Y-76203607D01*
X77609091Y-76213915D01*
X77567610Y-76218000D01*
X76966390Y-76218000D01*
X76924909Y-76213915D01*
X76890931Y-76203607D01*
X76859610Y-76186866D01*
X76832161Y-76164339D01*
X76809634Y-76136890D01*
X76792893Y-76105569D01*
X76782585Y-76071591D01*
X76778500Y-76030110D01*
X76778500Y-75353890D01*
X76782585Y-75312409D01*
X76792893Y-75278431D01*
X76809634Y-75247110D01*
X76832161Y-75219661D01*
X76859610Y-75197134D01*
X76890931Y-75180393D01*
X76924909Y-75170085D01*
X76966390Y-75166000D01*
X77567610Y-75166000D01*
X77609091Y-75170085D01*
G37*
G36*
X83437591Y-75029685D02*
G01*
X83471569Y-75039993D01*
X83502890Y-75056734D01*
X83530339Y-75079261D01*
X83552866Y-75106710D01*
X83569607Y-75138031D01*
X83579915Y-75172009D01*
X83584000Y-75213490D01*
X83584000Y-75814710D01*
X83579915Y-75856191D01*
X83569607Y-75890169D01*
X83552866Y-75921490D01*
X83530339Y-75948939D01*
X83502890Y-75971466D01*
X83471569Y-75988207D01*
X83437591Y-75998515D01*
X83396110Y-76002600D01*
X82719890Y-76002600D01*
X82678409Y-75998515D01*
X82644431Y-75988207D01*
X82613110Y-75971466D01*
X82585661Y-75948939D01*
X82563134Y-75921490D01*
X82546393Y-75890169D01*
X82536085Y-75856191D01*
X82532000Y-75814710D01*
X82532000Y-75213490D01*
X82536085Y-75172009D01*
X82546393Y-75138031D01*
X82563134Y-75106710D01*
X82585661Y-75079261D01*
X82613110Y-75056734D01*
X82644431Y-75039993D01*
X82678409Y-75029685D01*
X82719890Y-75025600D01*
X83396110Y-75025600D01*
X83437591Y-75029685D01*
G37*
G36*
X85566051Y-69164284D02*
G01*
X85582443Y-69169257D01*
X85597555Y-69177334D01*
X85610798Y-69188202D01*
X85621666Y-69201445D01*
X85629743Y-69216557D01*
X85634716Y-69232949D01*
X85637000Y-69256141D01*
X85637000Y-69669859D01*
X85634716Y-69693051D01*
X85629743Y-69709443D01*
X85621666Y-69724555D01*
X85610798Y-69737798D01*
X85597553Y-69748667D01*
X85589894Y-69752761D01*
X85569520Y-69766374D01*
X85552193Y-69783701D01*
X85538579Y-69804076D01*
X85529202Y-69826714D01*
X85524421Y-69850748D01*
X85524421Y-69875252D01*
X85529201Y-69899285D01*
X85538579Y-69921924D01*
X85552192Y-69942298D01*
X85569519Y-69959625D01*
X85589894Y-69973239D01*
X85597553Y-69977333D01*
X85610798Y-69988202D01*
X85621666Y-70001445D01*
X85629743Y-70016557D01*
X85634716Y-70032949D01*
X85637000Y-70056141D01*
X85637000Y-70469859D01*
X85634716Y-70493051D01*
X85629743Y-70509443D01*
X85621666Y-70524555D01*
X85610798Y-70537798D01*
X85597553Y-70548667D01*
X85589894Y-70552761D01*
X85569520Y-70566374D01*
X85552193Y-70583701D01*
X85538579Y-70604076D01*
X85529202Y-70626714D01*
X85524421Y-70650748D01*
X85524421Y-70675252D01*
X85529201Y-70699285D01*
X85538579Y-70721924D01*
X85552192Y-70742298D01*
X85569519Y-70759625D01*
X85589894Y-70773239D01*
X85597553Y-70777333D01*
X85610798Y-70788202D01*
X85621666Y-70801445D01*
X85629743Y-70816557D01*
X85634716Y-70832949D01*
X85637000Y-70856141D01*
X85637000Y-71269859D01*
X85634716Y-71293051D01*
X85629743Y-71309443D01*
X85621666Y-71324555D01*
X85610798Y-71337798D01*
X85597553Y-71348667D01*
X85589894Y-71352761D01*
X85569520Y-71366374D01*
X85552193Y-71383701D01*
X85538579Y-71404076D01*
X85529202Y-71426714D01*
X85524421Y-71450748D01*
X85524421Y-71475252D01*
X85529201Y-71499285D01*
X85538579Y-71521924D01*
X85552192Y-71542298D01*
X85569519Y-71559625D01*
X85589894Y-71573239D01*
X85597553Y-71577333D01*
X85610798Y-71588202D01*
X85621666Y-71601445D01*
X85629743Y-71616557D01*
X85634716Y-71632949D01*
X85637000Y-71656141D01*
X85637000Y-72069859D01*
X85634716Y-72093051D01*
X85629743Y-72109443D01*
X85621666Y-72124555D01*
X85610798Y-72137798D01*
X85597553Y-72148667D01*
X85589894Y-72152761D01*
X85569520Y-72166374D01*
X85552193Y-72183701D01*
X85538579Y-72204076D01*
X85529202Y-72226714D01*
X85524421Y-72250748D01*
X85524421Y-72275252D01*
X85529201Y-72299285D01*
X85538579Y-72321924D01*
X85552192Y-72342298D01*
X85569519Y-72359625D01*
X85589894Y-72373239D01*
X85597553Y-72377333D01*
X85610798Y-72388202D01*
X85621666Y-72401445D01*
X85629743Y-72416557D01*
X85634716Y-72432949D01*
X85637000Y-72456141D01*
X85637000Y-72869859D01*
X85634716Y-72893051D01*
X85629743Y-72909443D01*
X85621666Y-72924555D01*
X85610798Y-72937798D01*
X85597553Y-72948667D01*
X85589894Y-72952761D01*
X85569520Y-72966374D01*
X85552193Y-72983701D01*
X85538579Y-73004076D01*
X85529202Y-73026714D01*
X85524421Y-73050748D01*
X85524421Y-73075252D01*
X85529201Y-73099285D01*
X85538579Y-73121924D01*
X85552192Y-73142298D01*
X85569519Y-73159625D01*
X85589894Y-73173239D01*
X85597553Y-73177333D01*
X85610798Y-73188202D01*
X85621666Y-73201445D01*
X85629743Y-73216557D01*
X85634716Y-73232949D01*
X85637000Y-73256141D01*
X85637000Y-73669859D01*
X85634716Y-73693051D01*
X85629743Y-73709443D01*
X85621666Y-73724555D01*
X85610798Y-73737798D01*
X85597553Y-73748667D01*
X85589894Y-73752761D01*
X85569520Y-73766374D01*
X85552193Y-73783701D01*
X85538579Y-73804076D01*
X85529202Y-73826714D01*
X85524421Y-73850748D01*
X85524421Y-73875252D01*
X85529201Y-73899285D01*
X85538579Y-73921924D01*
X85552192Y-73942298D01*
X85569519Y-73959625D01*
X85589894Y-73973239D01*
X85597553Y-73977333D01*
X85610798Y-73988202D01*
X85621666Y-74001445D01*
X85629743Y-74016557D01*
X85634716Y-74032949D01*
X85637000Y-74056141D01*
X85637000Y-74469859D01*
X85634716Y-74493051D01*
X85629743Y-74509443D01*
X85621666Y-74524555D01*
X85610798Y-74537798D01*
X85597553Y-74548667D01*
X85589894Y-74552761D01*
X85569520Y-74566374D01*
X85552193Y-74583701D01*
X85538579Y-74604076D01*
X85529202Y-74626714D01*
X85524421Y-74650748D01*
X85524421Y-74675252D01*
X85529201Y-74699285D01*
X85538579Y-74721924D01*
X85552192Y-74742298D01*
X85569519Y-74759625D01*
X85589894Y-74773239D01*
X85597553Y-74777333D01*
X85610798Y-74788202D01*
X85621666Y-74801445D01*
X85629743Y-74816557D01*
X85634716Y-74832949D01*
X85637000Y-74856141D01*
X85637000Y-75269859D01*
X85634716Y-75293051D01*
X85629743Y-75309443D01*
X85621666Y-75324555D01*
X85610798Y-75337798D01*
X85597555Y-75348666D01*
X85582443Y-75356743D01*
X85566051Y-75361716D01*
X85542859Y-75364000D01*
X84129141Y-75364000D01*
X84105949Y-75361716D01*
X84089557Y-75356743D01*
X84074445Y-75348666D01*
X84061202Y-75337798D01*
X84050334Y-75324555D01*
X84042257Y-75309443D01*
X84037284Y-75293051D01*
X84035000Y-75269859D01*
X84035000Y-74856141D01*
X84037284Y-74832949D01*
X84042257Y-74816557D01*
X84050334Y-74801445D01*
X84061202Y-74788202D01*
X84074447Y-74777333D01*
X84082106Y-74773239D01*
X84102480Y-74759626D01*
X84119807Y-74742299D01*
X84133421Y-74721924D01*
X84142798Y-74699286D01*
X84147579Y-74675252D01*
X84147579Y-74650748D01*
X84142799Y-74626715D01*
X84133421Y-74604076D01*
X84119808Y-74583702D01*
X84102481Y-74566375D01*
X84082106Y-74552761D01*
X84074447Y-74548667D01*
X84061202Y-74537798D01*
X84050334Y-74524555D01*
X84042257Y-74509443D01*
X84037284Y-74493051D01*
X84035000Y-74469859D01*
X84035000Y-74056141D01*
X84037284Y-74032949D01*
X84042257Y-74016557D01*
X84050334Y-74001445D01*
X84061202Y-73988202D01*
X84074447Y-73977333D01*
X84082106Y-73973239D01*
X84102480Y-73959626D01*
X84119807Y-73942299D01*
X84133421Y-73921924D01*
X84142798Y-73899286D01*
X84147579Y-73875252D01*
X84147579Y-73850748D01*
X84142799Y-73826715D01*
X84133421Y-73804076D01*
X84119808Y-73783702D01*
X84102481Y-73766375D01*
X84082106Y-73752761D01*
X84074447Y-73748667D01*
X84061202Y-73737798D01*
X84050334Y-73724555D01*
X84042257Y-73709443D01*
X84037284Y-73693051D01*
X84035000Y-73669859D01*
X84035000Y-73256141D01*
X84037284Y-73232949D01*
X84042257Y-73216557D01*
X84050334Y-73201445D01*
X84061202Y-73188202D01*
X84074447Y-73177333D01*
X84082106Y-73173239D01*
X84102480Y-73159626D01*
X84119807Y-73142299D01*
X84133421Y-73121924D01*
X84142798Y-73099286D01*
X84147579Y-73075252D01*
X84147579Y-73050748D01*
X84142799Y-73026715D01*
X84133421Y-73004076D01*
X84119808Y-72983702D01*
X84102481Y-72966375D01*
X84082106Y-72952761D01*
X84074447Y-72948667D01*
X84061202Y-72937798D01*
X84050334Y-72924555D01*
X84042257Y-72909443D01*
X84037284Y-72893051D01*
X84035000Y-72869859D01*
X84035000Y-72456141D01*
X84037284Y-72432949D01*
X84042257Y-72416557D01*
X84050334Y-72401445D01*
X84061202Y-72388202D01*
X84074447Y-72377333D01*
X84082106Y-72373239D01*
X84102480Y-72359626D01*
X84119807Y-72342299D01*
X84133421Y-72321924D01*
X84142798Y-72299286D01*
X84147579Y-72275252D01*
X84147579Y-72250748D01*
X84142799Y-72226715D01*
X84133421Y-72204076D01*
X84119808Y-72183702D01*
X84102481Y-72166375D01*
X84082106Y-72152761D01*
X84074447Y-72148667D01*
X84061202Y-72137798D01*
X84050334Y-72124555D01*
X84042257Y-72109443D01*
X84037284Y-72093051D01*
X84035000Y-72069859D01*
X84035000Y-71656141D01*
X84037284Y-71632949D01*
X84042257Y-71616557D01*
X84050334Y-71601445D01*
X84061202Y-71588202D01*
X84074447Y-71577333D01*
X84082106Y-71573239D01*
X84102480Y-71559626D01*
X84119807Y-71542299D01*
X84133421Y-71521924D01*
X84142798Y-71499286D01*
X84147579Y-71475252D01*
X84147579Y-71450748D01*
X84142799Y-71426715D01*
X84133421Y-71404076D01*
X84119808Y-71383702D01*
X84102481Y-71366375D01*
X84082106Y-71352761D01*
X84074447Y-71348667D01*
X84061202Y-71337798D01*
X84050334Y-71324555D01*
X84042257Y-71309443D01*
X84037284Y-71293051D01*
X84035000Y-71269859D01*
X84035000Y-70856141D01*
X84037284Y-70832949D01*
X84042257Y-70816557D01*
X84050334Y-70801445D01*
X84061202Y-70788202D01*
X84074447Y-70777333D01*
X84082106Y-70773239D01*
X84102480Y-70759626D01*
X84119807Y-70742299D01*
X84133421Y-70721924D01*
X84142798Y-70699286D01*
X84147579Y-70675252D01*
X84147579Y-70650748D01*
X84142799Y-70626715D01*
X84133421Y-70604076D01*
X84119808Y-70583702D01*
X84102481Y-70566375D01*
X84082106Y-70552761D01*
X84074447Y-70548667D01*
X84061202Y-70537798D01*
X84050334Y-70524555D01*
X84042257Y-70509443D01*
X84037284Y-70493051D01*
X84035000Y-70469859D01*
X84035000Y-70056141D01*
X84037284Y-70032949D01*
X84042257Y-70016557D01*
X84050334Y-70001445D01*
X84061202Y-69988202D01*
X84074447Y-69977333D01*
X84082106Y-69973239D01*
X84102480Y-69959626D01*
X84119807Y-69942299D01*
X84133421Y-69921924D01*
X84142798Y-69899286D01*
X84147579Y-69875252D01*
X84147579Y-69850748D01*
X84142799Y-69826715D01*
X84133421Y-69804076D01*
X84119808Y-69783702D01*
X84102481Y-69766375D01*
X84082106Y-69752761D01*
X84074447Y-69748667D01*
X84061202Y-69737798D01*
X84050334Y-69724555D01*
X84042257Y-69709443D01*
X84037284Y-69693051D01*
X84035000Y-69669859D01*
X84035000Y-69256141D01*
X84037284Y-69232949D01*
X84042257Y-69216557D01*
X84050334Y-69201445D01*
X84061202Y-69188202D01*
X84074445Y-69177334D01*
X84089557Y-69169257D01*
X84105949Y-69164284D01*
X84129141Y-69162000D01*
X85542859Y-69162000D01*
X85566051Y-69164284D01*
G37*
G36*
X93916051Y-69164284D02*
G01*
X93932443Y-69169257D01*
X93947555Y-69177334D01*
X93960798Y-69188202D01*
X93971666Y-69201445D01*
X93979743Y-69216557D01*
X93984716Y-69232949D01*
X93987000Y-69256141D01*
X93987000Y-69669859D01*
X93984716Y-69693051D01*
X93979743Y-69709443D01*
X93971666Y-69724555D01*
X93960798Y-69737798D01*
X93947553Y-69748667D01*
X93939894Y-69752761D01*
X93919520Y-69766374D01*
X93902193Y-69783701D01*
X93888579Y-69804076D01*
X93879202Y-69826714D01*
X93874421Y-69850748D01*
X93874421Y-69875252D01*
X93879201Y-69899285D01*
X93888579Y-69921924D01*
X93902192Y-69942298D01*
X93919519Y-69959625D01*
X93939894Y-69973239D01*
X93947553Y-69977333D01*
X93960798Y-69988202D01*
X93971666Y-70001445D01*
X93979743Y-70016557D01*
X93984716Y-70032949D01*
X93987000Y-70056141D01*
X93987000Y-70469859D01*
X93984716Y-70493051D01*
X93979743Y-70509443D01*
X93971666Y-70524555D01*
X93960798Y-70537798D01*
X93947553Y-70548667D01*
X93939894Y-70552761D01*
X93919520Y-70566374D01*
X93902193Y-70583701D01*
X93888579Y-70604076D01*
X93879202Y-70626714D01*
X93874421Y-70650748D01*
X93874421Y-70675252D01*
X93879201Y-70699285D01*
X93888579Y-70721924D01*
X93902192Y-70742298D01*
X93919519Y-70759625D01*
X93939894Y-70773239D01*
X93947553Y-70777333D01*
X93960798Y-70788202D01*
X93971666Y-70801445D01*
X93979743Y-70816557D01*
X93984716Y-70832949D01*
X93987000Y-70856141D01*
X93987000Y-71269859D01*
X93984716Y-71293051D01*
X93979743Y-71309443D01*
X93971666Y-71324555D01*
X93960798Y-71337798D01*
X93947553Y-71348667D01*
X93939894Y-71352761D01*
X93919520Y-71366374D01*
X93902193Y-71383701D01*
X93888579Y-71404076D01*
X93879202Y-71426714D01*
X93874421Y-71450748D01*
X93874421Y-71475252D01*
X93879201Y-71499285D01*
X93888579Y-71521924D01*
X93902192Y-71542298D01*
X93919519Y-71559625D01*
X93939894Y-71573239D01*
X93947553Y-71577333D01*
X93960798Y-71588202D01*
X93971666Y-71601445D01*
X93979743Y-71616557D01*
X93984716Y-71632949D01*
X93987000Y-71656141D01*
X93987000Y-72069859D01*
X93984716Y-72093051D01*
X93979743Y-72109443D01*
X93971666Y-72124555D01*
X93960798Y-72137798D01*
X93947553Y-72148667D01*
X93939894Y-72152761D01*
X93919520Y-72166374D01*
X93902193Y-72183701D01*
X93888579Y-72204076D01*
X93879202Y-72226714D01*
X93874421Y-72250748D01*
X93874421Y-72275252D01*
X93879201Y-72299285D01*
X93888579Y-72321924D01*
X93902192Y-72342298D01*
X93919519Y-72359625D01*
X93939894Y-72373239D01*
X93947553Y-72377333D01*
X93960798Y-72388202D01*
X93971666Y-72401445D01*
X93979743Y-72416557D01*
X93984716Y-72432949D01*
X93987000Y-72456141D01*
X93987000Y-72869859D01*
X93984716Y-72893051D01*
X93979743Y-72909443D01*
X93971666Y-72924555D01*
X93960798Y-72937798D01*
X93947553Y-72948667D01*
X93939894Y-72952761D01*
X93919520Y-72966374D01*
X93902193Y-72983701D01*
X93888579Y-73004076D01*
X93879202Y-73026714D01*
X93874421Y-73050748D01*
X93874421Y-73075252D01*
X93879201Y-73099285D01*
X93888579Y-73121924D01*
X93902192Y-73142298D01*
X93919519Y-73159625D01*
X93939894Y-73173239D01*
X93947553Y-73177333D01*
X93960798Y-73188202D01*
X93971666Y-73201445D01*
X93979743Y-73216557D01*
X93984716Y-73232949D01*
X93987000Y-73256141D01*
X93987000Y-73669859D01*
X93984716Y-73693051D01*
X93979743Y-73709443D01*
X93971666Y-73724555D01*
X93960798Y-73737798D01*
X93947553Y-73748667D01*
X93939894Y-73752761D01*
X93919520Y-73766374D01*
X93902193Y-73783701D01*
X93888579Y-73804076D01*
X93879202Y-73826714D01*
X93874421Y-73850748D01*
X93874421Y-73875252D01*
X93879201Y-73899285D01*
X93888579Y-73921924D01*
X93902192Y-73942298D01*
X93919519Y-73959625D01*
X93939894Y-73973239D01*
X93947553Y-73977333D01*
X93960798Y-73988202D01*
X93971666Y-74001445D01*
X93979743Y-74016557D01*
X93984716Y-74032949D01*
X93987000Y-74056141D01*
X93987000Y-74469859D01*
X93984716Y-74493051D01*
X93979743Y-74509443D01*
X93971666Y-74524555D01*
X93960798Y-74537798D01*
X93947553Y-74548667D01*
X93939894Y-74552761D01*
X93919520Y-74566374D01*
X93902193Y-74583701D01*
X93888579Y-74604076D01*
X93879202Y-74626714D01*
X93874421Y-74650748D01*
X93874421Y-74675252D01*
X93879201Y-74699285D01*
X93888579Y-74721924D01*
X93902192Y-74742298D01*
X93919519Y-74759625D01*
X93939894Y-74773239D01*
X93947553Y-74777333D01*
X93960798Y-74788202D01*
X93971666Y-74801445D01*
X93979743Y-74816557D01*
X93984716Y-74832949D01*
X93987000Y-74856141D01*
X93987000Y-75269859D01*
X93984716Y-75293051D01*
X93979743Y-75309443D01*
X93971666Y-75324555D01*
X93960798Y-75337798D01*
X93947555Y-75348666D01*
X93932443Y-75356743D01*
X93916051Y-75361716D01*
X93892859Y-75364000D01*
X92479141Y-75364000D01*
X92455949Y-75361716D01*
X92439557Y-75356743D01*
X92424445Y-75348666D01*
X92411202Y-75337798D01*
X92400334Y-75324555D01*
X92392257Y-75309443D01*
X92387284Y-75293051D01*
X92385000Y-75269859D01*
X92385000Y-74856141D01*
X92387284Y-74832949D01*
X92392257Y-74816557D01*
X92400334Y-74801445D01*
X92411202Y-74788202D01*
X92424447Y-74777333D01*
X92432106Y-74773239D01*
X92452480Y-74759626D01*
X92469807Y-74742299D01*
X92483421Y-74721924D01*
X92492798Y-74699286D01*
X92497579Y-74675252D01*
X92497579Y-74650748D01*
X92492799Y-74626715D01*
X92483421Y-74604076D01*
X92469808Y-74583702D01*
X92452481Y-74566375D01*
X92432106Y-74552761D01*
X92424447Y-74548667D01*
X92411202Y-74537798D01*
X92400334Y-74524555D01*
X92392257Y-74509443D01*
X92387284Y-74493051D01*
X92385000Y-74469859D01*
X92385000Y-74056141D01*
X92387284Y-74032949D01*
X92392257Y-74016557D01*
X92400334Y-74001445D01*
X92411202Y-73988202D01*
X92424447Y-73977333D01*
X92432106Y-73973239D01*
X92452480Y-73959626D01*
X92469807Y-73942299D01*
X92483421Y-73921924D01*
X92492798Y-73899286D01*
X92497579Y-73875252D01*
X92497579Y-73850748D01*
X92492799Y-73826715D01*
X92483421Y-73804076D01*
X92469808Y-73783702D01*
X92452481Y-73766375D01*
X92432106Y-73752761D01*
X92424447Y-73748667D01*
X92411202Y-73737798D01*
X92400334Y-73724555D01*
X92392257Y-73709443D01*
X92387284Y-73693051D01*
X92385000Y-73669859D01*
X92385000Y-73256141D01*
X92387284Y-73232949D01*
X92392257Y-73216557D01*
X92400334Y-73201445D01*
X92411202Y-73188202D01*
X92424447Y-73177333D01*
X92432106Y-73173239D01*
X92452480Y-73159626D01*
X92469807Y-73142299D01*
X92483421Y-73121924D01*
X92492798Y-73099286D01*
X92497579Y-73075252D01*
X92497579Y-73050748D01*
X92492799Y-73026715D01*
X92483421Y-73004076D01*
X92469808Y-72983702D01*
X92452481Y-72966375D01*
X92432106Y-72952761D01*
X92424447Y-72948667D01*
X92411202Y-72937798D01*
X92400334Y-72924555D01*
X92392257Y-72909443D01*
X92387284Y-72893051D01*
X92385000Y-72869859D01*
X92385000Y-72456141D01*
X92387284Y-72432949D01*
X92392257Y-72416557D01*
X92400334Y-72401445D01*
X92411202Y-72388202D01*
X92424447Y-72377333D01*
X92432106Y-72373239D01*
X92452480Y-72359626D01*
X92469807Y-72342299D01*
X92483421Y-72321924D01*
X92492798Y-72299286D01*
X92497579Y-72275252D01*
X92497579Y-72250748D01*
X92492799Y-72226715D01*
X92483421Y-72204076D01*
X92469808Y-72183702D01*
X92452481Y-72166375D01*
X92432106Y-72152761D01*
X92424447Y-72148667D01*
X92411202Y-72137798D01*
X92400334Y-72124555D01*
X92392257Y-72109443D01*
X92387284Y-72093051D01*
X92385000Y-72069859D01*
X92385000Y-71656141D01*
X92387284Y-71632949D01*
X92392257Y-71616557D01*
X92400334Y-71601445D01*
X92411202Y-71588202D01*
X92424447Y-71577333D01*
X92432106Y-71573239D01*
X92452480Y-71559626D01*
X92469807Y-71542299D01*
X92483421Y-71521924D01*
X92492798Y-71499286D01*
X92497579Y-71475252D01*
X92497579Y-71450748D01*
X92492799Y-71426715D01*
X92483421Y-71404076D01*
X92469808Y-71383702D01*
X92452481Y-71366375D01*
X92432106Y-71352761D01*
X92424447Y-71348667D01*
X92411202Y-71337798D01*
X92400334Y-71324555D01*
X92392257Y-71309443D01*
X92387284Y-71293051D01*
X92385000Y-71269859D01*
X92385000Y-70856141D01*
X92387284Y-70832949D01*
X92392257Y-70816557D01*
X92400334Y-70801445D01*
X92411202Y-70788202D01*
X92424447Y-70777333D01*
X92432106Y-70773239D01*
X92452480Y-70759626D01*
X92469807Y-70742299D01*
X92483421Y-70721924D01*
X92492798Y-70699286D01*
X92497579Y-70675252D01*
X92497579Y-70650748D01*
X92492799Y-70626715D01*
X92483421Y-70604076D01*
X92469808Y-70583702D01*
X92452481Y-70566375D01*
X92432106Y-70552761D01*
X92424447Y-70548667D01*
X92411202Y-70537798D01*
X92400334Y-70524555D01*
X92392257Y-70509443D01*
X92387284Y-70493051D01*
X92385000Y-70469859D01*
X92385000Y-70056141D01*
X92387284Y-70032949D01*
X92392257Y-70016557D01*
X92400334Y-70001445D01*
X92411202Y-69988202D01*
X92424447Y-69977333D01*
X92432106Y-69973239D01*
X92452480Y-69959626D01*
X92469807Y-69942299D01*
X92483421Y-69921924D01*
X92492798Y-69899286D01*
X92497579Y-69875252D01*
X92497579Y-69850748D01*
X92492799Y-69826715D01*
X92483421Y-69804076D01*
X92469808Y-69783702D01*
X92452481Y-69766375D01*
X92432106Y-69752761D01*
X92424447Y-69748667D01*
X92411202Y-69737798D01*
X92400334Y-69724555D01*
X92392257Y-69709443D01*
X92387284Y-69693051D01*
X92385000Y-69669859D01*
X92385000Y-69256141D01*
X92387284Y-69232949D01*
X92392257Y-69216557D01*
X92400334Y-69201445D01*
X92411202Y-69188202D01*
X92424445Y-69177334D01*
X92439557Y-69169257D01*
X92455949Y-69164284D01*
X92479141Y-69162000D01*
X93892859Y-69162000D01*
X93916051Y-69164284D01*
G37*
G36*
X102333000Y-74966600D02*
G01*
X100231000Y-74966600D01*
X100231000Y-73064600D01*
X102333000Y-73064600D01*
X102333000Y-74966600D01*
G37*
G36*
X98333000Y-74966600D02*
G01*
X96231000Y-74966600D01*
X96231000Y-73064600D01*
X98333000Y-73064600D01*
X98333000Y-74966600D01*
G37*
G36*
X71972449Y-71258691D02*
G01*
X72129572Y-71289944D01*
X72293544Y-71357864D01*
X72441114Y-71456467D01*
X72566613Y-71581966D01*
X72665216Y-71729536D01*
X72733136Y-71893508D01*
X72758633Y-72021692D01*
X72765720Y-72057320D01*
X72767760Y-72067579D01*
X72767760Y-72245061D01*
X72733136Y-72419132D01*
X72665216Y-72583104D01*
X72566613Y-72730674D01*
X72441114Y-72856173D01*
X72293544Y-72954776D01*
X72129572Y-73022696D01*
X71980272Y-73052393D01*
X71955502Y-73057320D01*
X71778018Y-73057320D01*
X71753248Y-73052393D01*
X71603948Y-73022696D01*
X71439976Y-72954776D01*
X71292406Y-72856173D01*
X71166907Y-72730674D01*
X71068304Y-72583104D01*
X71000384Y-72419132D01*
X70965760Y-72245061D01*
X70965760Y-72067579D01*
X70967801Y-72057320D01*
X70974887Y-72021692D01*
X71000384Y-71893508D01*
X71068304Y-71729536D01*
X71166907Y-71581966D01*
X71292406Y-71456467D01*
X71439976Y-71357864D01*
X71603948Y-71289944D01*
X71761071Y-71258691D01*
X71778018Y-71255320D01*
X71955502Y-71255320D01*
X71972449Y-71258691D01*
G37*
G36*
X95527991Y-72007185D02*
G01*
X95561969Y-72017493D01*
X95593290Y-72034234D01*
X95620739Y-72056761D01*
X95643266Y-72084210D01*
X95660007Y-72115531D01*
X95670315Y-72149509D01*
X95674400Y-72190990D01*
X95674400Y-72792210D01*
X95670315Y-72833691D01*
X95660007Y-72867669D01*
X95643266Y-72898990D01*
X95620739Y-72926439D01*
X95593290Y-72948966D01*
X95561969Y-72965707D01*
X95527991Y-72976015D01*
X95486510Y-72980100D01*
X94810290Y-72980100D01*
X94768809Y-72976015D01*
X94734831Y-72965707D01*
X94703510Y-72948966D01*
X94676061Y-72926439D01*
X94653534Y-72898990D01*
X94636793Y-72867669D01*
X94626485Y-72833691D01*
X94622400Y-72792210D01*
X94622400Y-72190990D01*
X94626485Y-72149509D01*
X94636793Y-72115531D01*
X94653534Y-72084210D01*
X94676061Y-72056761D01*
X94703510Y-72034234D01*
X94734831Y-72017493D01*
X94768809Y-72007185D01*
X94810290Y-72003100D01*
X95486510Y-72003100D01*
X95527991Y-72007185D01*
G37*
G36*
X74591309Y-69777436D02*
G01*
X74702494Y-69799552D01*
X74911963Y-69886317D01*
X75100480Y-70012280D01*
X75260800Y-70172600D01*
X75386763Y-70361117D01*
X75473528Y-70570586D01*
X75484693Y-70626715D01*
X75516815Y-70788202D01*
X75517760Y-70792956D01*
X75517760Y-71019684D01*
X75473528Y-71242054D01*
X75386763Y-71451523D01*
X75260800Y-71640040D01*
X75100480Y-71800360D01*
X74911963Y-71926323D01*
X74702494Y-72013088D01*
X74591309Y-72035204D01*
X74480125Y-72057320D01*
X74253395Y-72057320D01*
X74142211Y-72035204D01*
X74031026Y-72013088D01*
X73821557Y-71926323D01*
X73633040Y-71800360D01*
X73472720Y-71640040D01*
X73346757Y-71451523D01*
X73259992Y-71242054D01*
X73215760Y-71019684D01*
X73215760Y-70792956D01*
X73216706Y-70788202D01*
X73248827Y-70626715D01*
X73259992Y-70570586D01*
X73346757Y-70361117D01*
X73472720Y-70172600D01*
X73633040Y-70012280D01*
X73821557Y-69886317D01*
X74031026Y-69799552D01*
X74142211Y-69777436D01*
X74253395Y-69755320D01*
X74480125Y-69755320D01*
X74591309Y-69777436D01*
G37*
G36*
X95527991Y-70432185D02*
G01*
X95561969Y-70442493D01*
X95593290Y-70459234D01*
X95620739Y-70481761D01*
X95643266Y-70509210D01*
X95660007Y-70540531D01*
X95670315Y-70574509D01*
X95674400Y-70615990D01*
X95674400Y-71217210D01*
X95670315Y-71258691D01*
X95660007Y-71292669D01*
X95643266Y-71323990D01*
X95620739Y-71351439D01*
X95593290Y-71373966D01*
X95561969Y-71390707D01*
X95527991Y-71401015D01*
X95486510Y-71405100D01*
X94810290Y-71405100D01*
X94768809Y-71401015D01*
X94734831Y-71390707D01*
X94703510Y-71373966D01*
X94676061Y-71351439D01*
X94653534Y-71323990D01*
X94636793Y-71292669D01*
X94626485Y-71258691D01*
X94622400Y-71217210D01*
X94622400Y-70615990D01*
X94626485Y-70574509D01*
X94636793Y-70540531D01*
X94653534Y-70509210D01*
X94676061Y-70481761D01*
X94703510Y-70459234D01*
X94734831Y-70442493D01*
X94768809Y-70432185D01*
X94810290Y-70428100D01*
X95486510Y-70428100D01*
X95527991Y-70432185D01*
G37*
G36*
X98333000Y-69886600D02*
G01*
X96231000Y-69886600D01*
X96231000Y-67984600D01*
X98333000Y-67984600D01*
X98333000Y-69886600D01*
G37*
G36*
X102333000Y-69886600D02*
G01*
X100231000Y-69886600D01*
X100231000Y-67984600D01*
X102333000Y-67984600D01*
X102333000Y-69886600D01*
G37*
G36*
X74502864Y-67001108D02*
G01*
X74651694Y-67030712D01*
X74861163Y-67117477D01*
X75049680Y-67243440D01*
X75210000Y-67403760D01*
X75335963Y-67592277D01*
X75335964Y-67592279D01*
X75422728Y-67801747D01*
X75466960Y-68024115D01*
X75466960Y-68250845D01*
X75422728Y-68473213D01*
X75350734Y-68647024D01*
X75335963Y-68682683D01*
X75210000Y-68871200D01*
X75049680Y-69031520D01*
X74861163Y-69157483D01*
X74651694Y-69244248D01*
X74540509Y-69266364D01*
X74429325Y-69288480D01*
X74202595Y-69288480D01*
X74091411Y-69266364D01*
X73980226Y-69244248D01*
X73770757Y-69157483D01*
X73582240Y-69031520D01*
X73421920Y-68871200D01*
X73295957Y-68682683D01*
X73281187Y-68647024D01*
X73209192Y-68473213D01*
X73164960Y-68250845D01*
X73164960Y-68024115D01*
X73209192Y-67801747D01*
X73295956Y-67592279D01*
X73295957Y-67592277D01*
X73421920Y-67403760D01*
X73582240Y-67243440D01*
X73770757Y-67117477D01*
X73980226Y-67030712D01*
X74129056Y-67001108D01*
X74202595Y-66986480D01*
X74429325Y-66986480D01*
X74502864Y-67001108D01*
G37*
G36*
X86441051Y-67289284D02*
G01*
X86457443Y-67294257D01*
X86472555Y-67302334D01*
X86485798Y-67313202D01*
X86496667Y-67326447D01*
X86500761Y-67334106D01*
X86514374Y-67354480D01*
X86531701Y-67371807D01*
X86552076Y-67385421D01*
X86574714Y-67394798D01*
X86598748Y-67399579D01*
X86623252Y-67399579D01*
X86647285Y-67394799D01*
X86669924Y-67385421D01*
X86690298Y-67371808D01*
X86707625Y-67354481D01*
X86721239Y-67334106D01*
X86725333Y-67326447D01*
X86736202Y-67313202D01*
X86749445Y-67302334D01*
X86764557Y-67294257D01*
X86780949Y-67289284D01*
X86804141Y-67287000D01*
X87217859Y-67287000D01*
X87241051Y-67289284D01*
X87257443Y-67294257D01*
X87272555Y-67302334D01*
X87285798Y-67313202D01*
X87296667Y-67326447D01*
X87300761Y-67334106D01*
X87314374Y-67354480D01*
X87331701Y-67371807D01*
X87352076Y-67385421D01*
X87374714Y-67394798D01*
X87398748Y-67399579D01*
X87423252Y-67399579D01*
X87447285Y-67394799D01*
X87469924Y-67385421D01*
X87490298Y-67371808D01*
X87507625Y-67354481D01*
X87521239Y-67334106D01*
X87525333Y-67326447D01*
X87536202Y-67313202D01*
X87549445Y-67302334D01*
X87564557Y-67294257D01*
X87580949Y-67289284D01*
X87604141Y-67287000D01*
X88017859Y-67287000D01*
X88041051Y-67289284D01*
X88057443Y-67294257D01*
X88072555Y-67302334D01*
X88085798Y-67313202D01*
X88096667Y-67326447D01*
X88100761Y-67334106D01*
X88114374Y-67354480D01*
X88131701Y-67371807D01*
X88152076Y-67385421D01*
X88174714Y-67394798D01*
X88198748Y-67399579D01*
X88223252Y-67399579D01*
X88247285Y-67394799D01*
X88269924Y-67385421D01*
X88290298Y-67371808D01*
X88307625Y-67354481D01*
X88321239Y-67334106D01*
X88325333Y-67326447D01*
X88336202Y-67313202D01*
X88349445Y-67302334D01*
X88364557Y-67294257D01*
X88380949Y-67289284D01*
X88404141Y-67287000D01*
X88817859Y-67287000D01*
X88841051Y-67289284D01*
X88857443Y-67294257D01*
X88872555Y-67302334D01*
X88885798Y-67313202D01*
X88896667Y-67326447D01*
X88900761Y-67334106D01*
X88914374Y-67354480D01*
X88931701Y-67371807D01*
X88952076Y-67385421D01*
X88974714Y-67394798D01*
X88998748Y-67399579D01*
X89023252Y-67399579D01*
X89047285Y-67394799D01*
X89069924Y-67385421D01*
X89090298Y-67371808D01*
X89107625Y-67354481D01*
X89121239Y-67334106D01*
X89125333Y-67326447D01*
X89136202Y-67313202D01*
X89149445Y-67302334D01*
X89164557Y-67294257D01*
X89180949Y-67289284D01*
X89204141Y-67287000D01*
X89617859Y-67287000D01*
X89641051Y-67289284D01*
X89657443Y-67294257D01*
X89672555Y-67302334D01*
X89685798Y-67313202D01*
X89696667Y-67326447D01*
X89700761Y-67334106D01*
X89714374Y-67354480D01*
X89731701Y-67371807D01*
X89752076Y-67385421D01*
X89774714Y-67394798D01*
X89798748Y-67399579D01*
X89823252Y-67399579D01*
X89847285Y-67394799D01*
X89869924Y-67385421D01*
X89890298Y-67371808D01*
X89907625Y-67354481D01*
X89921239Y-67334106D01*
X89925333Y-67326447D01*
X89936202Y-67313202D01*
X89949445Y-67302334D01*
X89964557Y-67294257D01*
X89980949Y-67289284D01*
X90004141Y-67287000D01*
X90417859Y-67287000D01*
X90441051Y-67289284D01*
X90457443Y-67294257D01*
X90472555Y-67302334D01*
X90485798Y-67313202D01*
X90496667Y-67326447D01*
X90500761Y-67334106D01*
X90514374Y-67354480D01*
X90531701Y-67371807D01*
X90552076Y-67385421D01*
X90574714Y-67394798D01*
X90598748Y-67399579D01*
X90623252Y-67399579D01*
X90647285Y-67394799D01*
X90669924Y-67385421D01*
X90690298Y-67371808D01*
X90707625Y-67354481D01*
X90721239Y-67334106D01*
X90725333Y-67326447D01*
X90736202Y-67313202D01*
X90749445Y-67302334D01*
X90764557Y-67294257D01*
X90780949Y-67289284D01*
X90804141Y-67287000D01*
X91217859Y-67287000D01*
X91241051Y-67289284D01*
X91257443Y-67294257D01*
X91272555Y-67302334D01*
X91285798Y-67313202D01*
X91296667Y-67326447D01*
X91300761Y-67334106D01*
X91314374Y-67354480D01*
X91331701Y-67371807D01*
X91352076Y-67385421D01*
X91374714Y-67394798D01*
X91398748Y-67399579D01*
X91423252Y-67399579D01*
X91447285Y-67394799D01*
X91469924Y-67385421D01*
X91490298Y-67371808D01*
X91507625Y-67354481D01*
X91521239Y-67334106D01*
X91525333Y-67326447D01*
X91536202Y-67313202D01*
X91549445Y-67302334D01*
X91564557Y-67294257D01*
X91580949Y-67289284D01*
X91604141Y-67287000D01*
X92017859Y-67287000D01*
X92041051Y-67289284D01*
X92057443Y-67294257D01*
X92072555Y-67302334D01*
X92085798Y-67313202D01*
X92096666Y-67326445D01*
X92104743Y-67341557D01*
X92109716Y-67357949D01*
X92112000Y-67381141D01*
X92112000Y-68794859D01*
X92109716Y-68818051D01*
X92104743Y-68834443D01*
X92096666Y-68849555D01*
X92085798Y-68862798D01*
X92072555Y-68873666D01*
X92057443Y-68881743D01*
X92041051Y-68886716D01*
X92017859Y-68889000D01*
X91604141Y-68889000D01*
X91580949Y-68886716D01*
X91564557Y-68881743D01*
X91549445Y-68873666D01*
X91536202Y-68862798D01*
X91525333Y-68849553D01*
X91521239Y-68841894D01*
X91507626Y-68821520D01*
X91490299Y-68804193D01*
X91469924Y-68790579D01*
X91447286Y-68781202D01*
X91423252Y-68776421D01*
X91398748Y-68776421D01*
X91374715Y-68781201D01*
X91352076Y-68790579D01*
X91331702Y-68804192D01*
X91314375Y-68821519D01*
X91300761Y-68841894D01*
X91296667Y-68849553D01*
X91285798Y-68862798D01*
X91272555Y-68873666D01*
X91257443Y-68881743D01*
X91241051Y-68886716D01*
X91217859Y-68889000D01*
X90804141Y-68889000D01*
X90780949Y-68886716D01*
X90764557Y-68881743D01*
X90749445Y-68873666D01*
X90736202Y-68862798D01*
X90725333Y-68849553D01*
X90721239Y-68841894D01*
X90707626Y-68821520D01*
X90690299Y-68804193D01*
X90669924Y-68790579D01*
X90647286Y-68781202D01*
X90623252Y-68776421D01*
X90598748Y-68776421D01*
X90574715Y-68781201D01*
X90552076Y-68790579D01*
X90531702Y-68804192D01*
X90514375Y-68821519D01*
X90500761Y-68841894D01*
X90496667Y-68849553D01*
X90485798Y-68862798D01*
X90472555Y-68873666D01*
X90457443Y-68881743D01*
X90441051Y-68886716D01*
X90417859Y-68889000D01*
X90004141Y-68889000D01*
X89980949Y-68886716D01*
X89964557Y-68881743D01*
X89949445Y-68873666D01*
X89936202Y-68862798D01*
X89925333Y-68849553D01*
X89921239Y-68841894D01*
X89907626Y-68821520D01*
X89890299Y-68804193D01*
X89869924Y-68790579D01*
X89847286Y-68781202D01*
X89823252Y-68776421D01*
X89798748Y-68776421D01*
X89774715Y-68781201D01*
X89752076Y-68790579D01*
X89731702Y-68804192D01*
X89714375Y-68821519D01*
X89700761Y-68841894D01*
X89696667Y-68849553D01*
X89685798Y-68862798D01*
X89672555Y-68873666D01*
X89657443Y-68881743D01*
X89641051Y-68886716D01*
X89617859Y-68889000D01*
X89204141Y-68889000D01*
X89180949Y-68886716D01*
X89164557Y-68881743D01*
X89149445Y-68873666D01*
X89136202Y-68862798D01*
X89125333Y-68849553D01*
X89121239Y-68841894D01*
X89107626Y-68821520D01*
X89090299Y-68804193D01*
X89069924Y-68790579D01*
X89047286Y-68781202D01*
X89023252Y-68776421D01*
X88998748Y-68776421D01*
X88974715Y-68781201D01*
X88952076Y-68790579D01*
X88931702Y-68804192D01*
X88914375Y-68821519D01*
X88900761Y-68841894D01*
X88896667Y-68849553D01*
X88885798Y-68862798D01*
X88872555Y-68873666D01*
X88857443Y-68881743D01*
X88841051Y-68886716D01*
X88817859Y-68889000D01*
X88404141Y-68889000D01*
X88380949Y-68886716D01*
X88364557Y-68881743D01*
X88349445Y-68873666D01*
X88336202Y-68862798D01*
X88325333Y-68849553D01*
X88321239Y-68841894D01*
X88307626Y-68821520D01*
X88290299Y-68804193D01*
X88269924Y-68790579D01*
X88247286Y-68781202D01*
X88223252Y-68776421D01*
X88198748Y-68776421D01*
X88174715Y-68781201D01*
X88152076Y-68790579D01*
X88131702Y-68804192D01*
X88114375Y-68821519D01*
X88100761Y-68841894D01*
X88096667Y-68849553D01*
X88085798Y-68862798D01*
X88072555Y-68873666D01*
X88057443Y-68881743D01*
X88041051Y-68886716D01*
X88017859Y-68889000D01*
X87604141Y-68889000D01*
X87580949Y-68886716D01*
X87564557Y-68881743D01*
X87549445Y-68873666D01*
X87536202Y-68862798D01*
X87525333Y-68849553D01*
X87521239Y-68841894D01*
X87507626Y-68821520D01*
X87490299Y-68804193D01*
X87469924Y-68790579D01*
X87447286Y-68781202D01*
X87423252Y-68776421D01*
X87398748Y-68776421D01*
X87374715Y-68781201D01*
X87352076Y-68790579D01*
X87331702Y-68804192D01*
X87314375Y-68821519D01*
X87300761Y-68841894D01*
X87296667Y-68849553D01*
X87285798Y-68862798D01*
X87272555Y-68873666D01*
X87257443Y-68881743D01*
X87241051Y-68886716D01*
X87217859Y-68889000D01*
X86804141Y-68889000D01*
X86780949Y-68886716D01*
X86764557Y-68881743D01*
X86749445Y-68873666D01*
X86736202Y-68862798D01*
X86725333Y-68849553D01*
X86721239Y-68841894D01*
X86707626Y-68821520D01*
X86690299Y-68804193D01*
X86669924Y-68790579D01*
X86647286Y-68781202D01*
X86623252Y-68776421D01*
X86598748Y-68776421D01*
X86574715Y-68781201D01*
X86552076Y-68790579D01*
X86531702Y-68804192D01*
X86514375Y-68821519D01*
X86500761Y-68841894D01*
X86496667Y-68849553D01*
X86485798Y-68862798D01*
X86472555Y-68873666D01*
X86457443Y-68881743D01*
X86441051Y-68886716D01*
X86417859Y-68889000D01*
X86004141Y-68889000D01*
X85980949Y-68886716D01*
X85964557Y-68881743D01*
X85949445Y-68873666D01*
X85936202Y-68862798D01*
X85925334Y-68849555D01*
X85917257Y-68834443D01*
X85912284Y-68818051D01*
X85910000Y-68794859D01*
X85910000Y-67381141D01*
X85912284Y-67357949D01*
X85917257Y-67341557D01*
X85925334Y-67326445D01*
X85936202Y-67313202D01*
X85949445Y-67302334D01*
X85964557Y-67294257D01*
X85980949Y-67289284D01*
X86004141Y-67287000D01*
X86417859Y-67287000D01*
X86441051Y-67289284D01*
G37*
G36*
X94448258Y-67434008D02*
G01*
X94482236Y-67444316D01*
X94513557Y-67461057D01*
X94545771Y-67487495D01*
X94585622Y-67527346D01*
X94585628Y-67527351D01*
X94931049Y-67872772D01*
X94931054Y-67872778D01*
X94970905Y-67912629D01*
X94997343Y-67944843D01*
X95014084Y-67976164D01*
X95024392Y-68010142D01*
X95027872Y-68045483D01*
X95024392Y-68080824D01*
X95014084Y-68114802D01*
X94997343Y-68146123D01*
X94970905Y-68178337D01*
X94931054Y-68218188D01*
X94931049Y-68218194D01*
X94532594Y-68616649D01*
X94532588Y-68616654D01*
X94492737Y-68656505D01*
X94460523Y-68682943D01*
X94429202Y-68699684D01*
X94395224Y-68709992D01*
X94359883Y-68713472D01*
X94324542Y-68709992D01*
X94290564Y-68699684D01*
X94259243Y-68682943D01*
X94227029Y-68656505D01*
X94187178Y-68616654D01*
X94187172Y-68616649D01*
X93841751Y-68271228D01*
X93841746Y-68271222D01*
X93801895Y-68231371D01*
X93775457Y-68199157D01*
X93758716Y-68167836D01*
X93748408Y-68133858D01*
X93744928Y-68098517D01*
X93748408Y-68063176D01*
X93758716Y-68029198D01*
X93775457Y-67997877D01*
X93801895Y-67965663D01*
X93841746Y-67925812D01*
X93841751Y-67925806D01*
X94240206Y-67527351D01*
X94240212Y-67527346D01*
X94280063Y-67487495D01*
X94312277Y-67461057D01*
X94343598Y-67444316D01*
X94377576Y-67434008D01*
X94412917Y-67430528D01*
X94448258Y-67434008D01*
G37*
G36*
X71929472Y-65991407D02*
G01*
X72078772Y-66021104D01*
X72242744Y-66089024D01*
X72390314Y-66187627D01*
X72515813Y-66313126D01*
X72614416Y-66460696D01*
X72682336Y-66624668D01*
X72709071Y-66759078D01*
X72716960Y-66798738D01*
X72716960Y-66976222D01*
X72712033Y-67000992D01*
X72682336Y-67150292D01*
X72614416Y-67314264D01*
X72515813Y-67461834D01*
X72390314Y-67587333D01*
X72242744Y-67685936D01*
X72078772Y-67753856D01*
X71929472Y-67783553D01*
X71904702Y-67788480D01*
X71727218Y-67788480D01*
X71702448Y-67783553D01*
X71553148Y-67753856D01*
X71389176Y-67685936D01*
X71241606Y-67587333D01*
X71116107Y-67461834D01*
X71017504Y-67314264D01*
X70949584Y-67150292D01*
X70919887Y-67000992D01*
X70914960Y-66976222D01*
X70914960Y-66798738D01*
X70922849Y-66759078D01*
X70949584Y-66624668D01*
X71017504Y-66460696D01*
X71116107Y-66313126D01*
X71241606Y-66187627D01*
X71389176Y-66089024D01*
X71553148Y-66021104D01*
X71702448Y-65991407D01*
X71727218Y-65986480D01*
X71904702Y-65986480D01*
X71929472Y-65991407D01*
G37*
G36*
X93334564Y-66320314D02*
G01*
X93368542Y-66330622D01*
X93399863Y-66347363D01*
X93432077Y-66373801D01*
X93471928Y-66413652D01*
X93471934Y-66413657D01*
X93817355Y-66759078D01*
X93817360Y-66759084D01*
X93857211Y-66798935D01*
X93883649Y-66831149D01*
X93900390Y-66862470D01*
X93910698Y-66896448D01*
X93914178Y-66931789D01*
X93910698Y-66967130D01*
X93900390Y-67001108D01*
X93883649Y-67032429D01*
X93857211Y-67064643D01*
X93817360Y-67104494D01*
X93817355Y-67104500D01*
X93418900Y-67502955D01*
X93418894Y-67502960D01*
X93379043Y-67542811D01*
X93346829Y-67569249D01*
X93315508Y-67585990D01*
X93281530Y-67596298D01*
X93246189Y-67599778D01*
X93210848Y-67596298D01*
X93176870Y-67585990D01*
X93145549Y-67569249D01*
X93113335Y-67542811D01*
X93073484Y-67502960D01*
X93073478Y-67502955D01*
X92728057Y-67157534D01*
X92728052Y-67157528D01*
X92688201Y-67117677D01*
X92661763Y-67085463D01*
X92645022Y-67054142D01*
X92634714Y-67020164D01*
X92631234Y-66984823D01*
X92634714Y-66949482D01*
X92645022Y-66915504D01*
X92661763Y-66884183D01*
X92688201Y-66851969D01*
X92728052Y-66812118D01*
X92728057Y-66812112D01*
X93126512Y-66413657D01*
X93126518Y-66413652D01*
X93166369Y-66373801D01*
X93198583Y-66347363D01*
X93229904Y-66330622D01*
X93263882Y-66320314D01*
X93299223Y-66316834D01*
X93334564Y-66320314D01*
G37*
G36*
X74801591Y-65301585D02*
G01*
X74835569Y-65311893D01*
X74866890Y-65328634D01*
X74894339Y-65351161D01*
X74916866Y-65378610D01*
X74933607Y-65409931D01*
X74943915Y-65443909D01*
X74948000Y-65485390D01*
X74948000Y-66086610D01*
X74943915Y-66128091D01*
X74933607Y-66162069D01*
X74916866Y-66193390D01*
X74894339Y-66220839D01*
X74866890Y-66243366D01*
X74835569Y-66260107D01*
X74801591Y-66270415D01*
X74760110Y-66274500D01*
X74083890Y-66274500D01*
X74042409Y-66270415D01*
X74008431Y-66260107D01*
X73977110Y-66243366D01*
X73949661Y-66220839D01*
X73927134Y-66193390D01*
X73910393Y-66162069D01*
X73900085Y-66128091D01*
X73896000Y-66086610D01*
X73896000Y-65485390D01*
X73900085Y-65443909D01*
X73910393Y-65409931D01*
X73927134Y-65378610D01*
X73949661Y-65351161D01*
X73977110Y-65328634D01*
X74008431Y-65311893D01*
X74042409Y-65301585D01*
X74083890Y-65297500D01*
X74760110Y-65297500D01*
X74801591Y-65301585D01*
G37*
G36*
X74801591Y-63726585D02*
G01*
X74835569Y-63736893D01*
X74866890Y-63753634D01*
X74894339Y-63776161D01*
X74916866Y-63803610D01*
X74933607Y-63834931D01*
X74943915Y-63868909D01*
X74948000Y-63910390D01*
X74948000Y-64511610D01*
X74943915Y-64553091D01*
X74933607Y-64587069D01*
X74916866Y-64618390D01*
X74894339Y-64645839D01*
X74866890Y-64668366D01*
X74835569Y-64685107D01*
X74801591Y-64695415D01*
X74760110Y-64699500D01*
X74083890Y-64699500D01*
X74042409Y-64695415D01*
X74008431Y-64685107D01*
X73977110Y-64668366D01*
X73949661Y-64645839D01*
X73927134Y-64618390D01*
X73910393Y-64587069D01*
X73900085Y-64553091D01*
X73896000Y-64511610D01*
X73896000Y-63910390D01*
X73900085Y-63868909D01*
X73910393Y-63834931D01*
X73927134Y-63803610D01*
X73949661Y-63776161D01*
X73977110Y-63753634D01*
X74008431Y-63736893D01*
X74042409Y-63726585D01*
X74083890Y-63722500D01*
X74760110Y-63722500D01*
X74801591Y-63726585D01*
G37*
G36*
X71929472Y-61491407D02*
G01*
X72078772Y-61521104D01*
X72242744Y-61589024D01*
X72390314Y-61687627D01*
X72515813Y-61813126D01*
X72614416Y-61960696D01*
X72682336Y-62124668D01*
X72706121Y-62244248D01*
X72714920Y-62288480D01*
X72716960Y-62298739D01*
X72716960Y-62476221D01*
X72682336Y-62650292D01*
X72614416Y-62814264D01*
X72515813Y-62961834D01*
X72390314Y-63087333D01*
X72242744Y-63185936D01*
X72078772Y-63253856D01*
X71929472Y-63283553D01*
X71904702Y-63288480D01*
X71727218Y-63288480D01*
X71702448Y-63283553D01*
X71553148Y-63253856D01*
X71389176Y-63185936D01*
X71241606Y-63087333D01*
X71116107Y-62961834D01*
X71017504Y-62814264D01*
X70949584Y-62650292D01*
X70914960Y-62476221D01*
X70914960Y-62298739D01*
X70917001Y-62288480D01*
X70925799Y-62244248D01*
X70949584Y-62124668D01*
X71017504Y-61960696D01*
X71116107Y-61813126D01*
X71241606Y-61687627D01*
X71389176Y-61589024D01*
X71553148Y-61521104D01*
X71702448Y-61491407D01*
X71727218Y-61486480D01*
X71904702Y-61486480D01*
X71929472Y-61491407D01*
G37*
G36*
X74540509Y-60008596D02*
G01*
X74651694Y-60030712D01*
X74861163Y-60117477D01*
X75049680Y-60243440D01*
X75210000Y-60403760D01*
X75335963Y-60592277D01*
X75422728Y-60801746D01*
X75466960Y-61024116D01*
X75466960Y-61250844D01*
X75422728Y-61473214D01*
X75335963Y-61682683D01*
X75210000Y-61871200D01*
X75049680Y-62031520D01*
X74861163Y-62157483D01*
X74651694Y-62244248D01*
X74540509Y-62266364D01*
X74429325Y-62288480D01*
X74202595Y-62288480D01*
X74091411Y-62266364D01*
X73980226Y-62244248D01*
X73770757Y-62157483D01*
X73582240Y-62031520D01*
X73421920Y-61871200D01*
X73295957Y-61682683D01*
X73209192Y-61473214D01*
X73164960Y-61250844D01*
X73164960Y-61024116D01*
X73209192Y-60801746D01*
X73295957Y-60592277D01*
X73421920Y-60403760D01*
X73582240Y-60243440D01*
X73770757Y-60117477D01*
X73980226Y-60030712D01*
X74091411Y-60008596D01*
X74202595Y-59986480D01*
X74429325Y-59986480D01*
X74540509Y-60008596D01*
G37*
G36*
X97488000Y-59958000D02*
G01*
X86586000Y-59958000D01*
X86586000Y-58556000D01*
X97488000Y-58556000D01*
X97488000Y-59958000D01*
G37*
G36*
X103542391Y-58761685D02*
G01*
X103576369Y-58771993D01*
X103607690Y-58788734D01*
X103635139Y-58811261D01*
X103657666Y-58838710D01*
X103674407Y-58870031D01*
X103684715Y-58904009D01*
X103688800Y-58945490D01*
X103688800Y-59621710D01*
X103684715Y-59663191D01*
X103674407Y-59697169D01*
X103657666Y-59728490D01*
X103635139Y-59755939D01*
X103607690Y-59778466D01*
X103576369Y-59795207D01*
X103542391Y-59805515D01*
X103500910Y-59809600D01*
X102899690Y-59809600D01*
X102858209Y-59805515D01*
X102824231Y-59795207D01*
X102792910Y-59778466D01*
X102765461Y-59755939D01*
X102742934Y-59728490D01*
X102726193Y-59697169D01*
X102715885Y-59663191D01*
X102711800Y-59621710D01*
X102711800Y-58945490D01*
X102715885Y-58904009D01*
X102726193Y-58870031D01*
X102742934Y-58838710D01*
X102765461Y-58811261D01*
X102792910Y-58788734D01*
X102824231Y-58771993D01*
X102858209Y-58761685D01*
X102899690Y-58757600D01*
X103500910Y-58757600D01*
X103542391Y-58761685D01*
G37*
G36*
X101967391Y-58761685D02*
G01*
X102001369Y-58771993D01*
X102032690Y-58788734D01*
X102060139Y-58811261D01*
X102082666Y-58838710D01*
X102099407Y-58870031D01*
X102109715Y-58904009D01*
X102113800Y-58945490D01*
X102113800Y-59621710D01*
X102109715Y-59663191D01*
X102099407Y-59697169D01*
X102082666Y-59728490D01*
X102060139Y-59755939D01*
X102032690Y-59778466D01*
X102001369Y-59795207D01*
X101967391Y-59805515D01*
X101925910Y-59809600D01*
X101324690Y-59809600D01*
X101283209Y-59805515D01*
X101249231Y-59795207D01*
X101217910Y-59778466D01*
X101190461Y-59755939D01*
X101167934Y-59728490D01*
X101151193Y-59697169D01*
X101140885Y-59663191D01*
X101136800Y-59621710D01*
X101136800Y-58945490D01*
X101140885Y-58904009D01*
X101151193Y-58870031D01*
X101167934Y-58838710D01*
X101190461Y-58811261D01*
X101217910Y-58788734D01*
X101249231Y-58771993D01*
X101283209Y-58761685D01*
X101324690Y-58757600D01*
X101925910Y-58757600D01*
X101967391Y-58761685D01*
G37*
G36*
X73185721Y-53140374D02*
G01*
X73285995Y-53181909D01*
X73285996Y-53181910D01*
X73376242Y-53242210D01*
X73452990Y-53318958D01*
X73452991Y-53318960D01*
X73513291Y-53409205D01*
X73554826Y-53509479D01*
X73576000Y-53615930D01*
X73576000Y-53724470D01*
X73554826Y-53830921D01*
X73513291Y-53931195D01*
X73513290Y-53931196D01*
X73452990Y-54021442D01*
X73376242Y-54098190D01*
X73330812Y-54128545D01*
X73285995Y-54158491D01*
X73210611Y-54189716D01*
X73189000Y-54201267D01*
X73170059Y-54216812D01*
X73154513Y-54235754D01*
X73142962Y-54257365D01*
X73135849Y-54280814D01*
X73133447Y-54305200D01*
X73135849Y-54329586D01*
X73142962Y-54353035D01*
X73154513Y-54374646D01*
X73170058Y-54393587D01*
X73189000Y-54409133D01*
X73210611Y-54420684D01*
X73285995Y-54451909D01*
X73285996Y-54451910D01*
X73376242Y-54512210D01*
X73452990Y-54588958D01*
X73452991Y-54588960D01*
X73513291Y-54679205D01*
X73554826Y-54779479D01*
X73576000Y-54885930D01*
X73576000Y-54994470D01*
X73554826Y-55100921D01*
X73513291Y-55201195D01*
X73513290Y-55201196D01*
X73452990Y-55291442D01*
X73376242Y-55368190D01*
X73330812Y-55398545D01*
X73285995Y-55428491D01*
X73210611Y-55459716D01*
X73189000Y-55471267D01*
X73170059Y-55486812D01*
X73154513Y-55505754D01*
X73142962Y-55527365D01*
X73135849Y-55550814D01*
X73133447Y-55575200D01*
X73135849Y-55599586D01*
X73142962Y-55623035D01*
X73154513Y-55644646D01*
X73170058Y-55663587D01*
X73189000Y-55679133D01*
X73210611Y-55690684D01*
X73285995Y-55721909D01*
X73285996Y-55721910D01*
X73376242Y-55782210D01*
X73452990Y-55858958D01*
X73452991Y-55858960D01*
X73513291Y-55949205D01*
X73554826Y-56049479D01*
X73576000Y-56155930D01*
X73576000Y-56264470D01*
X73554826Y-56370921D01*
X73513291Y-56471195D01*
X73513290Y-56471196D01*
X73452990Y-56561442D01*
X73376242Y-56638190D01*
X73344816Y-56659188D01*
X73283336Y-56700268D01*
X73264394Y-56715814D01*
X73248849Y-56734756D01*
X73237298Y-56756367D01*
X73230185Y-56779815D01*
X73227783Y-56804202D01*
X73230185Y-56828588D01*
X73237298Y-56852037D01*
X73248849Y-56873647D01*
X73264395Y-56892589D01*
X73283337Y-56908134D01*
X73304948Y-56919685D01*
X73328396Y-56926798D01*
X73352782Y-56929200D01*
X73576000Y-56929200D01*
X73576000Y-58031200D01*
X72474000Y-58031200D01*
X72474000Y-56929200D01*
X72697218Y-56929200D01*
X72721604Y-56926798D01*
X72745053Y-56919685D01*
X72766664Y-56908134D01*
X72785606Y-56892589D01*
X72801151Y-56873647D01*
X72812702Y-56852036D01*
X72819815Y-56828587D01*
X72822217Y-56804201D01*
X72819815Y-56779815D01*
X72812702Y-56756366D01*
X72801151Y-56734755D01*
X72785606Y-56715813D01*
X72766664Y-56700268D01*
X72705184Y-56659188D01*
X72673758Y-56638190D01*
X72597010Y-56561442D01*
X72536710Y-56471196D01*
X72536709Y-56471195D01*
X72495174Y-56370921D01*
X72474000Y-56264470D01*
X72474000Y-56155930D01*
X72495174Y-56049479D01*
X72536709Y-55949205D01*
X72597009Y-55858960D01*
X72597010Y-55858958D01*
X72673758Y-55782210D01*
X72764004Y-55721910D01*
X72764005Y-55721909D01*
X72839389Y-55690684D01*
X72861000Y-55679133D01*
X72879941Y-55663588D01*
X72895487Y-55644646D01*
X72907038Y-55623035D01*
X72914151Y-55599586D01*
X72916553Y-55575200D01*
X72914151Y-55550814D01*
X72907038Y-55527365D01*
X72895487Y-55505754D01*
X72879942Y-55486813D01*
X72861000Y-55471267D01*
X72839389Y-55459716D01*
X72764005Y-55428491D01*
X72719188Y-55398545D01*
X72673758Y-55368190D01*
X72597010Y-55291442D01*
X72536710Y-55201196D01*
X72536709Y-55201195D01*
X72495174Y-55100921D01*
X72474000Y-54994470D01*
X72474000Y-54885930D01*
X72495174Y-54779479D01*
X72536709Y-54679205D01*
X72597009Y-54588960D01*
X72597010Y-54588958D01*
X72673758Y-54512210D01*
X72764004Y-54451910D01*
X72764005Y-54451909D01*
X72839389Y-54420684D01*
X72861000Y-54409133D01*
X72879941Y-54393588D01*
X72895487Y-54374646D01*
X72907038Y-54353035D01*
X72914151Y-54329586D01*
X72916553Y-54305200D01*
X72914151Y-54280814D01*
X72907038Y-54257365D01*
X72895487Y-54235754D01*
X72879942Y-54216813D01*
X72861000Y-54201267D01*
X72839389Y-54189716D01*
X72764005Y-54158491D01*
X72719188Y-54128545D01*
X72673758Y-54098190D01*
X72597010Y-54021442D01*
X72536710Y-53931196D01*
X72536709Y-53931195D01*
X72495174Y-53830921D01*
X72474000Y-53724470D01*
X72474000Y-53615930D01*
X72495174Y-53509479D01*
X72536709Y-53409205D01*
X72597009Y-53318960D01*
X72597010Y-53318958D01*
X72673758Y-53242210D01*
X72764004Y-53181910D01*
X72764005Y-53181909D01*
X72864279Y-53140374D01*
X72970730Y-53119200D01*
X73079270Y-53119200D01*
X73185721Y-53140374D01*
G37*
G36*
X85838000Y-57158000D02*
G01*
X83936000Y-57158000D01*
X83936000Y-54856000D01*
X85838000Y-54856000D01*
X85838000Y-57158000D01*
G37*
G36*
X100138000Y-57158000D02*
G01*
X98236000Y-57158000D01*
X98236000Y-54856000D01*
X100138000Y-54856000D01*
X100138000Y-57158000D01*
G37*
M02*
