G04 #@! TF.GenerationSoftware,KiCad,Pcbnew,5.1.6-c6e7f7d~87~ubuntu18.04.1*
G04 #@! TF.CreationDate,2020-07-31T23:24:34+02:00*
G04 #@! TF.ProjectId,HMI,484d492e-6b69-4636-9164-5f7063625858,rev?*
G04 #@! TF.SameCoordinates,Original*
G04 #@! TF.FileFunction,Copper,L2,Bot*
G04 #@! TF.FilePolarity,Positive*
%FSLAX46Y46*%
G04 Gerber Fmt 4.6, Leading zero omitted, Abs format (unit mm)*
G04 Created by KiCad (PCBNEW 5.1.6-c6e7f7d~87~ubuntu18.04.1) date 2020-07-31 23:24:34*
%MOMM*%
%LPD*%
G01*
G04 APERTURE LIST*
G04 #@! TA.AperFunction,SMDPad,CuDef*
%ADD10R,2.000000X2.000000*%
G04 #@! TD*
G04 #@! TA.AperFunction,ComponentPad*
%ADD11C,3.800000*%
G04 #@! TD*
G04 #@! TA.AperFunction,SMDPad,CuDef*
%ADD12R,0.300000X1.300000*%
G04 #@! TD*
G04 #@! TA.AperFunction,SMDPad,CuDef*
%ADD13R,1.800000X2.200000*%
G04 #@! TD*
G04 #@! TA.AperFunction,SMDPad,CuDef*
%ADD14R,2.000000X1.800000*%
G04 #@! TD*
G04 #@! TA.AperFunction,ComponentPad*
%ADD15C,1.700000*%
G04 #@! TD*
G04 #@! TA.AperFunction,ComponentPad*
%ADD16C,2.200000*%
G04 #@! TD*
G04 #@! TA.AperFunction,SMDPad,CuDef*
%ADD17R,1.300000X0.300000*%
G04 #@! TD*
G04 #@! TA.AperFunction,SMDPad,CuDef*
%ADD18R,2.200000X1.800000*%
G04 #@! TD*
G04 #@! TA.AperFunction,ComponentPad*
%ADD19O,1.000000X1.000000*%
G04 #@! TD*
G04 #@! TA.AperFunction,ComponentPad*
%ADD20R,1.000000X1.000000*%
G04 #@! TD*
G04 #@! TA.AperFunction,ViaPad*
%ADD21C,0.450000*%
G04 #@! TD*
G04 #@! TA.AperFunction,ViaPad*
%ADD22C,0.800000*%
G04 #@! TD*
G04 #@! TA.AperFunction,Conductor*
%ADD23C,0.600000*%
G04 #@! TD*
G04 #@! TA.AperFunction,Conductor*
%ADD24C,0.300000*%
G04 #@! TD*
G04 #@! TA.AperFunction,Conductor*
%ADD25C,0.250000*%
G04 #@! TD*
G04 #@! TA.AperFunction,Conductor*
%ADD26C,0.254000*%
G04 #@! TD*
G04 APERTURE END LIST*
D10*
X158851600Y-45262800D03*
X162458400Y-48056800D03*
X158851600Y-42062400D03*
G04 #@! TA.AperFunction,SMDPad,CuDef*
G36*
G01*
X162210000Y-44447750D02*
X162210000Y-44960250D01*
G75*
G02*
X161991250Y-45179000I-218750J0D01*
G01*
X161553750Y-45179000D01*
G75*
G02*
X161335000Y-44960250I0J218750D01*
G01*
X161335000Y-44447750D01*
G75*
G02*
X161553750Y-44229000I218750J0D01*
G01*
X161991250Y-44229000D01*
G75*
G02*
X162210000Y-44447750I0J-218750D01*
G01*
G37*
G04 #@! TD.AperFunction*
G04 #@! TA.AperFunction,SMDPad,CuDef*
G36*
G01*
X163785000Y-44447750D02*
X163785000Y-44960250D01*
G75*
G02*
X163566250Y-45179000I-218750J0D01*
G01*
X163128750Y-45179000D01*
G75*
G02*
X162910000Y-44960250I0J218750D01*
G01*
X162910000Y-44447750D01*
G75*
G02*
X163128750Y-44229000I218750J0D01*
G01*
X163566250Y-44229000D01*
G75*
G02*
X163785000Y-44447750I0J-218750D01*
G01*
G37*
G04 #@! TD.AperFunction*
G04 #@! TA.AperFunction,SMDPad,CuDef*
G36*
G01*
X162210000Y-41958550D02*
X162210000Y-42471050D01*
G75*
G02*
X161991250Y-42689800I-218750J0D01*
G01*
X161553750Y-42689800D01*
G75*
G02*
X161335000Y-42471050I0J218750D01*
G01*
X161335000Y-41958550D01*
G75*
G02*
X161553750Y-41739800I218750J0D01*
G01*
X161991250Y-41739800D01*
G75*
G02*
X162210000Y-41958550I0J-218750D01*
G01*
G37*
G04 #@! TD.AperFunction*
G04 #@! TA.AperFunction,SMDPad,CuDef*
G36*
G01*
X163785000Y-41958550D02*
X163785000Y-42471050D01*
G75*
G02*
X163566250Y-42689800I-218750J0D01*
G01*
X163128750Y-42689800D01*
G75*
G02*
X162910000Y-42471050I0J218750D01*
G01*
X162910000Y-41958550D01*
G75*
G02*
X163128750Y-41739800I218750J0D01*
G01*
X163566250Y-41739800D01*
G75*
G02*
X163785000Y-41958550I0J-218750D01*
G01*
G37*
G04 #@! TD.AperFunction*
D11*
X121513600Y-139039600D03*
X162153600Y-37693600D03*
X121767600Y-37693600D03*
X162153600Y-139039600D03*
G04 #@! TA.AperFunction,SMDPad,CuDef*
G36*
G01*
X146265061Y-78376769D02*
X145902669Y-78739162D01*
G75*
G02*
X145593309Y-78739162I-154680J154680D01*
G01*
X145283950Y-78429803D01*
G75*
G02*
X145283950Y-78120443I154680J154680D01*
G01*
X145646343Y-77758050D01*
G75*
G02*
X145955703Y-77758050I154680J-154680D01*
G01*
X146265062Y-78067409D01*
G75*
G02*
X146265062Y-78376769I-154680J-154680D01*
G01*
G37*
G04 #@! TD.AperFunction*
G04 #@! TA.AperFunction,SMDPad,CuDef*
G36*
G01*
X147378755Y-79490463D02*
X147016363Y-79852856D01*
G75*
G02*
X146707003Y-79852856I-154680J154680D01*
G01*
X146397644Y-79543497D01*
G75*
G02*
X146397644Y-79234137I154680J154680D01*
G01*
X146760037Y-78871744D01*
G75*
G02*
X147069397Y-78871744I154680J-154680D01*
G01*
X147378756Y-79181103D01*
G75*
G02*
X147378756Y-79490463I-154680J-154680D01*
G01*
G37*
G04 #@! TD.AperFunction*
D12*
X149788800Y-47062000D03*
X149288800Y-47062000D03*
X148788800Y-47062000D03*
X148288800Y-47062000D03*
X147788800Y-47062000D03*
X147288800Y-47062000D03*
X146788800Y-47062000D03*
X146288800Y-47062000D03*
X145788800Y-47062000D03*
X145288800Y-47062000D03*
X144788800Y-47062000D03*
X144288800Y-47062000D03*
X143788800Y-47062000D03*
X143288800Y-47062000D03*
X142788800Y-47062000D03*
X142288800Y-47062000D03*
X141788800Y-47062000D03*
X141288800Y-47062000D03*
X140788800Y-47062000D03*
X140288800Y-47062000D03*
X139788800Y-47062000D03*
X139288800Y-47062000D03*
D13*
X137388800Y-43812000D03*
X151688800Y-43812000D03*
D14*
X149783800Y-80225900D03*
X149783800Y-85305900D03*
X153783800Y-85305900D03*
X153783800Y-80225900D03*
G04 #@! TA.AperFunction,SMDPad,CuDef*
G36*
G01*
X144562800Y-78753300D02*
X144562800Y-80003300D01*
G75*
G02*
X144437800Y-80128300I-125000J0D01*
G01*
X144187800Y-80128300D01*
G75*
G02*
X144062800Y-80003300I0J125000D01*
G01*
X144062800Y-78753300D01*
G75*
G02*
X144187800Y-78628300I125000J0D01*
G01*
X144437800Y-78628300D01*
G75*
G02*
X144562800Y-78753300I0J-125000D01*
G01*
G37*
G04 #@! TD.AperFunction*
G04 #@! TA.AperFunction,SMDPad,CuDef*
G36*
G01*
X143762800Y-78753300D02*
X143762800Y-80003300D01*
G75*
G02*
X143637800Y-80128300I-125000J0D01*
G01*
X143387800Y-80128300D01*
G75*
G02*
X143262800Y-80003300I0J125000D01*
G01*
X143262800Y-78753300D01*
G75*
G02*
X143387800Y-78628300I125000J0D01*
G01*
X143637800Y-78628300D01*
G75*
G02*
X143762800Y-78753300I0J-125000D01*
G01*
G37*
G04 #@! TD.AperFunction*
G04 #@! TA.AperFunction,SMDPad,CuDef*
G36*
G01*
X142962800Y-78753300D02*
X142962800Y-80003300D01*
G75*
G02*
X142837800Y-80128300I-125000J0D01*
G01*
X142587800Y-80128300D01*
G75*
G02*
X142462800Y-80003300I0J125000D01*
G01*
X142462800Y-78753300D01*
G75*
G02*
X142587800Y-78628300I125000J0D01*
G01*
X142837800Y-78628300D01*
G75*
G02*
X142962800Y-78753300I0J-125000D01*
G01*
G37*
G04 #@! TD.AperFunction*
G04 #@! TA.AperFunction,SMDPad,CuDef*
G36*
G01*
X142162800Y-78753300D02*
X142162800Y-80003300D01*
G75*
G02*
X142037800Y-80128300I-125000J0D01*
G01*
X141787800Y-80128300D01*
G75*
G02*
X141662800Y-80003300I0J125000D01*
G01*
X141662800Y-78753300D01*
G75*
G02*
X141787800Y-78628300I125000J0D01*
G01*
X142037800Y-78628300D01*
G75*
G02*
X142162800Y-78753300I0J-125000D01*
G01*
G37*
G04 #@! TD.AperFunction*
G04 #@! TA.AperFunction,SMDPad,CuDef*
G36*
G01*
X141362800Y-78753300D02*
X141362800Y-80003300D01*
G75*
G02*
X141237800Y-80128300I-125000J0D01*
G01*
X140987800Y-80128300D01*
G75*
G02*
X140862800Y-80003300I0J125000D01*
G01*
X140862800Y-78753300D01*
G75*
G02*
X140987800Y-78628300I125000J0D01*
G01*
X141237800Y-78628300D01*
G75*
G02*
X141362800Y-78753300I0J-125000D01*
G01*
G37*
G04 #@! TD.AperFunction*
G04 #@! TA.AperFunction,SMDPad,CuDef*
G36*
G01*
X140562800Y-78753300D02*
X140562800Y-80003300D01*
G75*
G02*
X140437800Y-80128300I-125000J0D01*
G01*
X140187800Y-80128300D01*
G75*
G02*
X140062800Y-80003300I0J125000D01*
G01*
X140062800Y-78753300D01*
G75*
G02*
X140187800Y-78628300I125000J0D01*
G01*
X140437800Y-78628300D01*
G75*
G02*
X140562800Y-78753300I0J-125000D01*
G01*
G37*
G04 #@! TD.AperFunction*
G04 #@! TA.AperFunction,SMDPad,CuDef*
G36*
G01*
X139762800Y-78753300D02*
X139762800Y-80003300D01*
G75*
G02*
X139637800Y-80128300I-125000J0D01*
G01*
X139387800Y-80128300D01*
G75*
G02*
X139262800Y-80003300I0J125000D01*
G01*
X139262800Y-78753300D01*
G75*
G02*
X139387800Y-78628300I125000J0D01*
G01*
X139637800Y-78628300D01*
G75*
G02*
X139762800Y-78753300I0J-125000D01*
G01*
G37*
G04 #@! TD.AperFunction*
G04 #@! TA.AperFunction,SMDPad,CuDef*
G36*
G01*
X138962800Y-78753300D02*
X138962800Y-80003300D01*
G75*
G02*
X138837800Y-80128300I-125000J0D01*
G01*
X138587800Y-80128300D01*
G75*
G02*
X138462800Y-80003300I0J125000D01*
G01*
X138462800Y-78753300D01*
G75*
G02*
X138587800Y-78628300I125000J0D01*
G01*
X138837800Y-78628300D01*
G75*
G02*
X138962800Y-78753300I0J-125000D01*
G01*
G37*
G04 #@! TD.AperFunction*
G04 #@! TA.AperFunction,SMDPad,CuDef*
G36*
G01*
X138087800Y-80628300D02*
X138087800Y-80878300D01*
G75*
G02*
X137962800Y-81003300I-125000J0D01*
G01*
X136712800Y-81003300D01*
G75*
G02*
X136587800Y-80878300I0J125000D01*
G01*
X136587800Y-80628300D01*
G75*
G02*
X136712800Y-80503300I125000J0D01*
G01*
X137962800Y-80503300D01*
G75*
G02*
X138087800Y-80628300I0J-125000D01*
G01*
G37*
G04 #@! TD.AperFunction*
G04 #@! TA.AperFunction,SMDPad,CuDef*
G36*
G01*
X138087800Y-81428300D02*
X138087800Y-81678300D01*
G75*
G02*
X137962800Y-81803300I-125000J0D01*
G01*
X136712800Y-81803300D01*
G75*
G02*
X136587800Y-81678300I0J125000D01*
G01*
X136587800Y-81428300D01*
G75*
G02*
X136712800Y-81303300I125000J0D01*
G01*
X137962800Y-81303300D01*
G75*
G02*
X138087800Y-81428300I0J-125000D01*
G01*
G37*
G04 #@! TD.AperFunction*
G04 #@! TA.AperFunction,SMDPad,CuDef*
G36*
G01*
X138087800Y-82228300D02*
X138087800Y-82478300D01*
G75*
G02*
X137962800Y-82603300I-125000J0D01*
G01*
X136712800Y-82603300D01*
G75*
G02*
X136587800Y-82478300I0J125000D01*
G01*
X136587800Y-82228300D01*
G75*
G02*
X136712800Y-82103300I125000J0D01*
G01*
X137962800Y-82103300D01*
G75*
G02*
X138087800Y-82228300I0J-125000D01*
G01*
G37*
G04 #@! TD.AperFunction*
G04 #@! TA.AperFunction,SMDPad,CuDef*
G36*
G01*
X138087800Y-83028300D02*
X138087800Y-83278300D01*
G75*
G02*
X137962800Y-83403300I-125000J0D01*
G01*
X136712800Y-83403300D01*
G75*
G02*
X136587800Y-83278300I0J125000D01*
G01*
X136587800Y-83028300D01*
G75*
G02*
X136712800Y-82903300I125000J0D01*
G01*
X137962800Y-82903300D01*
G75*
G02*
X138087800Y-83028300I0J-125000D01*
G01*
G37*
G04 #@! TD.AperFunction*
G04 #@! TA.AperFunction,SMDPad,CuDef*
G36*
G01*
X138087800Y-83828300D02*
X138087800Y-84078300D01*
G75*
G02*
X137962800Y-84203300I-125000J0D01*
G01*
X136712800Y-84203300D01*
G75*
G02*
X136587800Y-84078300I0J125000D01*
G01*
X136587800Y-83828300D01*
G75*
G02*
X136712800Y-83703300I125000J0D01*
G01*
X137962800Y-83703300D01*
G75*
G02*
X138087800Y-83828300I0J-125000D01*
G01*
G37*
G04 #@! TD.AperFunction*
G04 #@! TA.AperFunction,SMDPad,CuDef*
G36*
G01*
X138087800Y-84628300D02*
X138087800Y-84878300D01*
G75*
G02*
X137962800Y-85003300I-125000J0D01*
G01*
X136712800Y-85003300D01*
G75*
G02*
X136587800Y-84878300I0J125000D01*
G01*
X136587800Y-84628300D01*
G75*
G02*
X136712800Y-84503300I125000J0D01*
G01*
X137962800Y-84503300D01*
G75*
G02*
X138087800Y-84628300I0J-125000D01*
G01*
G37*
G04 #@! TD.AperFunction*
G04 #@! TA.AperFunction,SMDPad,CuDef*
G36*
G01*
X138087800Y-85428300D02*
X138087800Y-85678300D01*
G75*
G02*
X137962800Y-85803300I-125000J0D01*
G01*
X136712800Y-85803300D01*
G75*
G02*
X136587800Y-85678300I0J125000D01*
G01*
X136587800Y-85428300D01*
G75*
G02*
X136712800Y-85303300I125000J0D01*
G01*
X137962800Y-85303300D01*
G75*
G02*
X138087800Y-85428300I0J-125000D01*
G01*
G37*
G04 #@! TD.AperFunction*
G04 #@! TA.AperFunction,SMDPad,CuDef*
G36*
G01*
X138087800Y-86228300D02*
X138087800Y-86478300D01*
G75*
G02*
X137962800Y-86603300I-125000J0D01*
G01*
X136712800Y-86603300D01*
G75*
G02*
X136587800Y-86478300I0J125000D01*
G01*
X136587800Y-86228300D01*
G75*
G02*
X136712800Y-86103300I125000J0D01*
G01*
X137962800Y-86103300D01*
G75*
G02*
X138087800Y-86228300I0J-125000D01*
G01*
G37*
G04 #@! TD.AperFunction*
G04 #@! TA.AperFunction,SMDPad,CuDef*
G36*
G01*
X138962800Y-87103300D02*
X138962800Y-88353300D01*
G75*
G02*
X138837800Y-88478300I-125000J0D01*
G01*
X138587800Y-88478300D01*
G75*
G02*
X138462800Y-88353300I0J125000D01*
G01*
X138462800Y-87103300D01*
G75*
G02*
X138587800Y-86978300I125000J0D01*
G01*
X138837800Y-86978300D01*
G75*
G02*
X138962800Y-87103300I0J-125000D01*
G01*
G37*
G04 #@! TD.AperFunction*
G04 #@! TA.AperFunction,SMDPad,CuDef*
G36*
G01*
X139762800Y-87103300D02*
X139762800Y-88353300D01*
G75*
G02*
X139637800Y-88478300I-125000J0D01*
G01*
X139387800Y-88478300D01*
G75*
G02*
X139262800Y-88353300I0J125000D01*
G01*
X139262800Y-87103300D01*
G75*
G02*
X139387800Y-86978300I125000J0D01*
G01*
X139637800Y-86978300D01*
G75*
G02*
X139762800Y-87103300I0J-125000D01*
G01*
G37*
G04 #@! TD.AperFunction*
G04 #@! TA.AperFunction,SMDPad,CuDef*
G36*
G01*
X140562800Y-87103300D02*
X140562800Y-88353300D01*
G75*
G02*
X140437800Y-88478300I-125000J0D01*
G01*
X140187800Y-88478300D01*
G75*
G02*
X140062800Y-88353300I0J125000D01*
G01*
X140062800Y-87103300D01*
G75*
G02*
X140187800Y-86978300I125000J0D01*
G01*
X140437800Y-86978300D01*
G75*
G02*
X140562800Y-87103300I0J-125000D01*
G01*
G37*
G04 #@! TD.AperFunction*
G04 #@! TA.AperFunction,SMDPad,CuDef*
G36*
G01*
X141362800Y-87103300D02*
X141362800Y-88353300D01*
G75*
G02*
X141237800Y-88478300I-125000J0D01*
G01*
X140987800Y-88478300D01*
G75*
G02*
X140862800Y-88353300I0J125000D01*
G01*
X140862800Y-87103300D01*
G75*
G02*
X140987800Y-86978300I125000J0D01*
G01*
X141237800Y-86978300D01*
G75*
G02*
X141362800Y-87103300I0J-125000D01*
G01*
G37*
G04 #@! TD.AperFunction*
G04 #@! TA.AperFunction,SMDPad,CuDef*
G36*
G01*
X142162800Y-87103300D02*
X142162800Y-88353300D01*
G75*
G02*
X142037800Y-88478300I-125000J0D01*
G01*
X141787800Y-88478300D01*
G75*
G02*
X141662800Y-88353300I0J125000D01*
G01*
X141662800Y-87103300D01*
G75*
G02*
X141787800Y-86978300I125000J0D01*
G01*
X142037800Y-86978300D01*
G75*
G02*
X142162800Y-87103300I0J-125000D01*
G01*
G37*
G04 #@! TD.AperFunction*
G04 #@! TA.AperFunction,SMDPad,CuDef*
G36*
G01*
X142962800Y-87103300D02*
X142962800Y-88353300D01*
G75*
G02*
X142837800Y-88478300I-125000J0D01*
G01*
X142587800Y-88478300D01*
G75*
G02*
X142462800Y-88353300I0J125000D01*
G01*
X142462800Y-87103300D01*
G75*
G02*
X142587800Y-86978300I125000J0D01*
G01*
X142837800Y-86978300D01*
G75*
G02*
X142962800Y-87103300I0J-125000D01*
G01*
G37*
G04 #@! TD.AperFunction*
G04 #@! TA.AperFunction,SMDPad,CuDef*
G36*
G01*
X143762800Y-87103300D02*
X143762800Y-88353300D01*
G75*
G02*
X143637800Y-88478300I-125000J0D01*
G01*
X143387800Y-88478300D01*
G75*
G02*
X143262800Y-88353300I0J125000D01*
G01*
X143262800Y-87103300D01*
G75*
G02*
X143387800Y-86978300I125000J0D01*
G01*
X143637800Y-86978300D01*
G75*
G02*
X143762800Y-87103300I0J-125000D01*
G01*
G37*
G04 #@! TD.AperFunction*
G04 #@! TA.AperFunction,SMDPad,CuDef*
G36*
G01*
X144562800Y-87103300D02*
X144562800Y-88353300D01*
G75*
G02*
X144437800Y-88478300I-125000J0D01*
G01*
X144187800Y-88478300D01*
G75*
G02*
X144062800Y-88353300I0J125000D01*
G01*
X144062800Y-87103300D01*
G75*
G02*
X144187800Y-86978300I125000J0D01*
G01*
X144437800Y-86978300D01*
G75*
G02*
X144562800Y-87103300I0J-125000D01*
G01*
G37*
G04 #@! TD.AperFunction*
G04 #@! TA.AperFunction,SMDPad,CuDef*
G36*
G01*
X146437800Y-86228300D02*
X146437800Y-86478300D01*
G75*
G02*
X146312800Y-86603300I-125000J0D01*
G01*
X145062800Y-86603300D01*
G75*
G02*
X144937800Y-86478300I0J125000D01*
G01*
X144937800Y-86228300D01*
G75*
G02*
X145062800Y-86103300I125000J0D01*
G01*
X146312800Y-86103300D01*
G75*
G02*
X146437800Y-86228300I0J-125000D01*
G01*
G37*
G04 #@! TD.AperFunction*
G04 #@! TA.AperFunction,SMDPad,CuDef*
G36*
G01*
X146437800Y-85428300D02*
X146437800Y-85678300D01*
G75*
G02*
X146312800Y-85803300I-125000J0D01*
G01*
X145062800Y-85803300D01*
G75*
G02*
X144937800Y-85678300I0J125000D01*
G01*
X144937800Y-85428300D01*
G75*
G02*
X145062800Y-85303300I125000J0D01*
G01*
X146312800Y-85303300D01*
G75*
G02*
X146437800Y-85428300I0J-125000D01*
G01*
G37*
G04 #@! TD.AperFunction*
G04 #@! TA.AperFunction,SMDPad,CuDef*
G36*
G01*
X146437800Y-84628300D02*
X146437800Y-84878300D01*
G75*
G02*
X146312800Y-85003300I-125000J0D01*
G01*
X145062800Y-85003300D01*
G75*
G02*
X144937800Y-84878300I0J125000D01*
G01*
X144937800Y-84628300D01*
G75*
G02*
X145062800Y-84503300I125000J0D01*
G01*
X146312800Y-84503300D01*
G75*
G02*
X146437800Y-84628300I0J-125000D01*
G01*
G37*
G04 #@! TD.AperFunction*
G04 #@! TA.AperFunction,SMDPad,CuDef*
G36*
G01*
X146437800Y-83828300D02*
X146437800Y-84078300D01*
G75*
G02*
X146312800Y-84203300I-125000J0D01*
G01*
X145062800Y-84203300D01*
G75*
G02*
X144937800Y-84078300I0J125000D01*
G01*
X144937800Y-83828300D01*
G75*
G02*
X145062800Y-83703300I125000J0D01*
G01*
X146312800Y-83703300D01*
G75*
G02*
X146437800Y-83828300I0J-125000D01*
G01*
G37*
G04 #@! TD.AperFunction*
G04 #@! TA.AperFunction,SMDPad,CuDef*
G36*
G01*
X146437800Y-83028300D02*
X146437800Y-83278300D01*
G75*
G02*
X146312800Y-83403300I-125000J0D01*
G01*
X145062800Y-83403300D01*
G75*
G02*
X144937800Y-83278300I0J125000D01*
G01*
X144937800Y-83028300D01*
G75*
G02*
X145062800Y-82903300I125000J0D01*
G01*
X146312800Y-82903300D01*
G75*
G02*
X146437800Y-83028300I0J-125000D01*
G01*
G37*
G04 #@! TD.AperFunction*
G04 #@! TA.AperFunction,SMDPad,CuDef*
G36*
G01*
X146437800Y-82228300D02*
X146437800Y-82478300D01*
G75*
G02*
X146312800Y-82603300I-125000J0D01*
G01*
X145062800Y-82603300D01*
G75*
G02*
X144937800Y-82478300I0J125000D01*
G01*
X144937800Y-82228300D01*
G75*
G02*
X145062800Y-82103300I125000J0D01*
G01*
X146312800Y-82103300D01*
G75*
G02*
X146437800Y-82228300I0J-125000D01*
G01*
G37*
G04 #@! TD.AperFunction*
G04 #@! TA.AperFunction,SMDPad,CuDef*
G36*
G01*
X146437800Y-81428300D02*
X146437800Y-81678300D01*
G75*
G02*
X146312800Y-81803300I-125000J0D01*
G01*
X145062800Y-81803300D01*
G75*
G02*
X144937800Y-81678300I0J125000D01*
G01*
X144937800Y-81428300D01*
G75*
G02*
X145062800Y-81303300I125000J0D01*
G01*
X146312800Y-81303300D01*
G75*
G02*
X146437800Y-81428300I0J-125000D01*
G01*
G37*
G04 #@! TD.AperFunction*
G04 #@! TA.AperFunction,SMDPad,CuDef*
G36*
G01*
X146437800Y-80628300D02*
X146437800Y-80878300D01*
G75*
G02*
X146312800Y-81003300I-125000J0D01*
G01*
X145062800Y-81003300D01*
G75*
G02*
X144937800Y-80878300I0J125000D01*
G01*
X144937800Y-80628300D01*
G75*
G02*
X145062800Y-80503300I125000J0D01*
G01*
X146312800Y-80503300D01*
G75*
G02*
X146437800Y-80628300I0J-125000D01*
G01*
G37*
G04 #@! TD.AperFunction*
D15*
X120232800Y-42956800D03*
X120232800Y-47456800D03*
D16*
X122732800Y-41706800D03*
X122732800Y-48706800D03*
D15*
X120131200Y-52822400D03*
X120131200Y-57322400D03*
D16*
X122631200Y-51572400D03*
X122631200Y-58572400D03*
G04 #@! TA.AperFunction,SMDPad,CuDef*
G36*
G01*
X125783050Y-47046400D02*
X125270550Y-47046400D01*
G75*
G02*
X125051800Y-46827650I0J218750D01*
G01*
X125051800Y-46390150D01*
G75*
G02*
X125270550Y-46171400I218750J0D01*
G01*
X125783050Y-46171400D01*
G75*
G02*
X126001800Y-46390150I0J-218750D01*
G01*
X126001800Y-46827650D01*
G75*
G02*
X125783050Y-47046400I-218750J0D01*
G01*
G37*
G04 #@! TD.AperFunction*
G04 #@! TA.AperFunction,SMDPad,CuDef*
G36*
G01*
X125783050Y-48621400D02*
X125270550Y-48621400D01*
G75*
G02*
X125051800Y-48402650I0J218750D01*
G01*
X125051800Y-47965150D01*
G75*
G02*
X125270550Y-47746400I218750J0D01*
G01*
X125783050Y-47746400D01*
G75*
G02*
X126001800Y-47965150I0J-218750D01*
G01*
X126001800Y-48402650D01*
G75*
G02*
X125783050Y-48621400I-218750J0D01*
G01*
G37*
G04 #@! TD.AperFunction*
G04 #@! TA.AperFunction,SMDPad,CuDef*
G36*
G01*
X125783050Y-57562000D02*
X125270550Y-57562000D01*
G75*
G02*
X125051800Y-57343250I0J218750D01*
G01*
X125051800Y-56905750D01*
G75*
G02*
X125270550Y-56687000I218750J0D01*
G01*
X125783050Y-56687000D01*
G75*
G02*
X126001800Y-56905750I0J-218750D01*
G01*
X126001800Y-57343250D01*
G75*
G02*
X125783050Y-57562000I-218750J0D01*
G01*
G37*
G04 #@! TD.AperFunction*
G04 #@! TA.AperFunction,SMDPad,CuDef*
G36*
G01*
X125783050Y-59137000D02*
X125270550Y-59137000D01*
G75*
G02*
X125051800Y-58918250I0J218750D01*
G01*
X125051800Y-58480750D01*
G75*
G02*
X125270550Y-58262000I218750J0D01*
G01*
X125783050Y-58262000D01*
G75*
G02*
X126001800Y-58480750I0J-218750D01*
G01*
X126001800Y-58918250D01*
G75*
G02*
X125783050Y-59137000I-218750J0D01*
G01*
G37*
G04 #@! TD.AperFunction*
G04 #@! TA.AperFunction,SMDPad,CuDef*
G36*
G01*
X150776650Y-50272300D02*
X150264150Y-50272300D01*
G75*
G02*
X150045400Y-50053550I0J218750D01*
G01*
X150045400Y-49616050D01*
G75*
G02*
X150264150Y-49397300I218750J0D01*
G01*
X150776650Y-49397300D01*
G75*
G02*
X150995400Y-49616050I0J-218750D01*
G01*
X150995400Y-50053550D01*
G75*
G02*
X150776650Y-50272300I-218750J0D01*
G01*
G37*
G04 #@! TD.AperFunction*
G04 #@! TA.AperFunction,SMDPad,CuDef*
G36*
G01*
X150776650Y-51847300D02*
X150264150Y-51847300D01*
G75*
G02*
X150045400Y-51628550I0J218750D01*
G01*
X150045400Y-51191050D01*
G75*
G02*
X150264150Y-50972300I218750J0D01*
G01*
X150776650Y-50972300D01*
G75*
G02*
X150995400Y-51191050I0J-218750D01*
G01*
X150995400Y-51628550D01*
G75*
G02*
X150776650Y-51847300I-218750J0D01*
G01*
G37*
G04 #@! TD.AperFunction*
G04 #@! TA.AperFunction,SMDPad,CuDef*
G36*
G01*
X147906450Y-82644400D02*
X147393950Y-82644400D01*
G75*
G02*
X147175200Y-82425650I0J218750D01*
G01*
X147175200Y-81988150D01*
G75*
G02*
X147393950Y-81769400I218750J0D01*
G01*
X147906450Y-81769400D01*
G75*
G02*
X148125200Y-81988150I0J-218750D01*
G01*
X148125200Y-82425650D01*
G75*
G02*
X147906450Y-82644400I-218750J0D01*
G01*
G37*
G04 #@! TD.AperFunction*
G04 #@! TA.AperFunction,SMDPad,CuDef*
G36*
G01*
X147906450Y-84219400D02*
X147393950Y-84219400D01*
G75*
G02*
X147175200Y-84000650I0J218750D01*
G01*
X147175200Y-83563150D01*
G75*
G02*
X147393950Y-83344400I218750J0D01*
G01*
X147906450Y-83344400D01*
G75*
G02*
X148125200Y-83563150I0J-218750D01*
G01*
X148125200Y-84000650D01*
G75*
G02*
X147906450Y-84219400I-218750J0D01*
G01*
G37*
G04 #@! TD.AperFunction*
D17*
X133298000Y-111691500D03*
X133298000Y-112191500D03*
X133298000Y-112691500D03*
X133298000Y-113191500D03*
X133298000Y-113691500D03*
X133298000Y-114191500D03*
X133298000Y-114691500D03*
X133298000Y-115191500D03*
X133298000Y-115691500D03*
X133298000Y-116191500D03*
D18*
X130048000Y-118091500D03*
X130048000Y-109791500D03*
D19*
X132232400Y-68630800D03*
X132232400Y-69900800D03*
X132232400Y-71170800D03*
D20*
X132232400Y-72440800D03*
G04 #@! TA.AperFunction,SMDPad,CuDef*
G36*
G01*
X135303550Y-87941900D02*
X135816050Y-87941900D01*
G75*
G02*
X136034800Y-88160650I0J-218750D01*
G01*
X136034800Y-88598150D01*
G75*
G02*
X135816050Y-88816900I-218750J0D01*
G01*
X135303550Y-88816900D01*
G75*
G02*
X135084800Y-88598150I0J218750D01*
G01*
X135084800Y-88160650D01*
G75*
G02*
X135303550Y-87941900I218750J0D01*
G01*
G37*
G04 #@! TD.AperFunction*
G04 #@! TA.AperFunction,SMDPad,CuDef*
G36*
G01*
X135303550Y-86366900D02*
X135816050Y-86366900D01*
G75*
G02*
X136034800Y-86585650I0J-218750D01*
G01*
X136034800Y-87023150D01*
G75*
G02*
X135816050Y-87241900I-218750J0D01*
G01*
X135303550Y-87241900D01*
G75*
G02*
X135084800Y-87023150I0J218750D01*
G01*
X135084800Y-86585650D01*
G75*
G02*
X135303550Y-86366900I218750J0D01*
G01*
G37*
G04 #@! TD.AperFunction*
G04 #@! TA.AperFunction,SMDPad,CuDef*
G36*
G01*
X152445300Y-87594150D02*
X152445300Y-87081650D01*
G75*
G02*
X152664050Y-86862900I218750J0D01*
G01*
X153101550Y-86862900D01*
G75*
G02*
X153320300Y-87081650I0J-218750D01*
G01*
X153320300Y-87594150D01*
G75*
G02*
X153101550Y-87812900I-218750J0D01*
G01*
X152664050Y-87812900D01*
G75*
G02*
X152445300Y-87594150I0J218750D01*
G01*
G37*
G04 #@! TD.AperFunction*
G04 #@! TA.AperFunction,SMDPad,CuDef*
G36*
G01*
X150870300Y-87594150D02*
X150870300Y-87081650D01*
G75*
G02*
X151089050Y-86862900I218750J0D01*
G01*
X151526550Y-86862900D01*
G75*
G02*
X151745300Y-87081650I0J-218750D01*
G01*
X151745300Y-87594150D01*
G75*
G02*
X151526550Y-87812900I-218750J0D01*
G01*
X151089050Y-87812900D01*
G75*
G02*
X150870300Y-87594150I0J218750D01*
G01*
G37*
G04 #@! TD.AperFunction*
D21*
X154406600Y-78473300D03*
X153466800Y-77711300D03*
X150901400Y-77685900D03*
X149479000Y-77152500D03*
X147149820Y-77246480D03*
X148234400Y-78574900D03*
X150190200Y-78422500D03*
X151663400Y-80175100D03*
X152958800Y-81953100D03*
X155194000Y-81876900D03*
X155117800Y-83604100D03*
X155194000Y-117957600D03*
X137769600Y-78625700D03*
X141704060Y-76304140D03*
X139776200Y-74256900D03*
X139319000Y-72097900D03*
X136982200Y-73215500D03*
X136982200Y-76288900D03*
X138049000Y-71259700D03*
X136677400Y-69608700D03*
X135585200Y-70700900D03*
X132105400Y-73850500D03*
X130352800Y-72097900D03*
X128092200Y-65138300D03*
X130708400Y-65214500D03*
X132461000Y-67627500D03*
X134416800Y-69380100D03*
X129032000Y-83375500D03*
X127381000Y-84899500D03*
X127076200Y-85763100D03*
X152933400Y-93560900D03*
X146837400Y-88099900D03*
X144475200Y-73037700D03*
X144348200Y-71932800D03*
X142341600Y-72351900D03*
X150241000Y-71437500D03*
X150266400Y-69659500D03*
X154307540Y-73985120D03*
X153009600Y-73959720D03*
X151579580Y-73972420D03*
X149926040Y-73936860D03*
X148650960Y-73949560D03*
X146865340Y-74033380D03*
X147769580Y-73972420D03*
X138973560Y-82577940D03*
X139641580Y-83185000D03*
X144084040Y-80992980D03*
X144012920Y-81981040D03*
X140307060Y-80934560D03*
X141046200Y-81981040D03*
X142427960Y-82042000D03*
X148551900Y-77213460D03*
X140788800Y-45647200D03*
X142240000Y-45516800D03*
X143205200Y-45516800D03*
X144221200Y-45516800D03*
X145186400Y-45516800D03*
X146202400Y-45516800D03*
X145389600Y-48717200D03*
X144576800Y-48717200D03*
X143510000Y-48717200D03*
X142392400Y-48717200D03*
X144018000Y-51257200D03*
X142341600Y-53949600D03*
X142392400Y-51257200D03*
X144170400Y-53898800D03*
X143256000Y-56184800D03*
X143256000Y-59182000D03*
X143205200Y-62128400D03*
X144170400Y-57759600D03*
X142341600Y-57658000D03*
X144170400Y-61061600D03*
X142290800Y-60960000D03*
X144119600Y-67005200D03*
X142290800Y-67005200D03*
X143205200Y-65024000D03*
X144221200Y-63703200D03*
X142341600Y-63652400D03*
X139192000Y-66954400D03*
X139242800Y-65278000D03*
X139344400Y-63347600D03*
X139090400Y-60452000D03*
X138988800Y-57302400D03*
X139039600Y-54864000D03*
X139039600Y-52222400D03*
X138938000Y-49022000D03*
X138125200Y-45720000D03*
X136042400Y-46075600D03*
X135940800Y-49733200D03*
X155448000Y-71424800D03*
X153212800Y-69392800D03*
X151333200Y-67513200D03*
X149199600Y-68630800D03*
X149910800Y-65989200D03*
X149758400Y-58724800D03*
X149656800Y-61061600D03*
X149656800Y-63347600D03*
X149707600Y-52527200D03*
X149707600Y-55016400D03*
X149656800Y-56845200D03*
X151688800Y-64008000D03*
X151688800Y-60807600D03*
X151638000Y-58115200D03*
X151587200Y-55626000D03*
X151587200Y-52679600D03*
X151942800Y-50698400D03*
X151790400Y-48717200D03*
X149047200Y-45415200D03*
X151231600Y-46329600D03*
X153314400Y-47345600D03*
X127304800Y-53086000D03*
X127355600Y-55524400D03*
X130759200Y-55626000D03*
X131064000Y-53187600D03*
X135382000Y-53187600D03*
X135585200Y-55626000D03*
X131216400Y-82651600D03*
X126542800Y-78028800D03*
X125476000Y-72948800D03*
X125984000Y-63347600D03*
X128574800Y-60807600D03*
X128473200Y-57200800D03*
X127508000Y-48209200D03*
X128574800Y-49377600D03*
X128422400Y-52222400D03*
X126949200Y-45516800D03*
X128625600Y-46075600D03*
X130098800Y-47447200D03*
X130759200Y-49225200D03*
X130911600Y-51308000D03*
X130810000Y-58013600D03*
X130911600Y-60350400D03*
X129641600Y-62941200D03*
X127050800Y-58420000D03*
X125730000Y-60655200D03*
X124307600Y-57708800D03*
X123596400Y-67157600D03*
X123850400Y-71170800D03*
X123748800Y-75082400D03*
X125882400Y-80162400D03*
X135432800Y-84785200D03*
X132181600Y-80975200D03*
X132334000Y-77571600D03*
X131978400Y-75184000D03*
X128244600Y-69989700D03*
X152704800Y-65481200D03*
X154482800Y-66903600D03*
X156972000Y-69646800D03*
X158648400Y-71374000D03*
X144145000Y-69926200D03*
X142240000Y-69215000D03*
X159359600Y-111810800D03*
X159232600Y-108280200D03*
X159461200Y-104698800D03*
X159359600Y-100126800D03*
X159486600Y-96647000D03*
X159410400Y-91846400D03*
X159283400Y-85801200D03*
X159131000Y-82169000D03*
X137414000Y-117983000D03*
X139293600Y-119710200D03*
X133959600Y-120345200D03*
X134442200Y-122351800D03*
X136499600Y-122707400D03*
X139598400Y-122783600D03*
X142544800Y-121386600D03*
X144119600Y-120370600D03*
X147040600Y-120370600D03*
X149275800Y-119075200D03*
X152527000Y-120015000D03*
X155346400Y-119964200D03*
X152298400Y-122250200D03*
X150012400Y-122758200D03*
X146735800Y-122859800D03*
X138506200Y-109093000D03*
X134569200Y-108737400D03*
X134264400Y-106299000D03*
X135966200Y-104165400D03*
X135966200Y-106045000D03*
X138633200Y-104267000D03*
X140055600Y-105537000D03*
X140944600Y-106680000D03*
X140157200Y-108000800D03*
X145364200Y-107010200D03*
X146532600Y-109321600D03*
X147345400Y-104292400D03*
X150749000Y-104394000D03*
X155981400Y-106299000D03*
X154787600Y-106299000D03*
X154863800Y-107670600D03*
X150749000Y-105308400D03*
X153263600Y-106553000D03*
X151460200Y-108508800D03*
X148488400Y-106603800D03*
X150139400Y-108178600D03*
X153365200Y-98958400D03*
X150596600Y-96545400D03*
X147523200Y-96824800D03*
X147447000Y-102285800D03*
X147523200Y-99441000D03*
X150825200Y-102260400D03*
X151765000Y-101549200D03*
X135991600Y-96774000D03*
X139547600Y-96672400D03*
X133375400Y-99034600D03*
X134823200Y-101777800D03*
X133756400Y-100711000D03*
X137236200Y-102057200D03*
X139471400Y-102057200D03*
X139700000Y-99364800D03*
X134137400Y-91973400D03*
X134645400Y-94361000D03*
X136474200Y-94792800D03*
X138963400Y-94767400D03*
X139369800Y-92837000D03*
X139369800Y-90932000D03*
X138633200Y-115671600D03*
X135712200Y-111074200D03*
X137668000Y-111048800D03*
X139420600Y-111074200D03*
X136956800Y-116535200D03*
X147345400Y-111201200D03*
X141452600Y-115392200D03*
X139242800Y-115951000D03*
X146608800Y-117602000D03*
X146608800Y-118414800D03*
X147523200Y-117906800D03*
X147243800Y-115544600D03*
X147726400Y-116128800D03*
X142290800Y-116001800D03*
X149809200Y-118033800D03*
X147777200Y-111023400D03*
X145542000Y-108864400D03*
X146710400Y-108762800D03*
X158445200Y-117144800D03*
X158470600Y-119100600D03*
X159486600Y-121640600D03*
X158115000Y-123393200D03*
X157911800Y-125171200D03*
X157708600Y-126771400D03*
X154863800Y-127025400D03*
X152933400Y-127025400D03*
X151130000Y-126974600D03*
X150571200Y-125704600D03*
X150774400Y-124815600D03*
X148691600Y-124866400D03*
X146659600Y-124764800D03*
X146812000Y-126390400D03*
X145364200Y-127254000D03*
X143764000Y-126923800D03*
X142113000Y-127000000D03*
X141274800Y-127406400D03*
X139954000Y-126974600D03*
X139954000Y-124815600D03*
X138099800Y-124764800D03*
X135864600Y-124815600D03*
X135991600Y-126390400D03*
X134772400Y-127558800D03*
X132410200Y-127076200D03*
X130454400Y-127584200D03*
X128371600Y-127076200D03*
X128625600Y-125425200D03*
X128727200Y-123393200D03*
X129641600Y-122275600D03*
X130937000Y-122377200D03*
X135839200Y-119684800D03*
X146380200Y-63703200D03*
X146304000Y-60604400D03*
X146227800Y-57581800D03*
X146177000Y-54686200D03*
X146126200Y-51968400D03*
X146278600Y-50596800D03*
X146735800Y-62052200D03*
X146685000Y-59182000D03*
X146735800Y-56337200D03*
X127127000Y-91795600D03*
X125425200Y-93573600D03*
X125120400Y-97104200D03*
X125298200Y-100482400D03*
X125247400Y-103505000D03*
X125120400Y-105867200D03*
X124256800Y-108534200D03*
X125933200Y-108508800D03*
X127279400Y-108839000D03*
X128016000Y-110439200D03*
X128371600Y-111836200D03*
X127228600Y-94005400D03*
X128600200Y-95859600D03*
X129057400Y-97383600D03*
X129819400Y-99034600D03*
X129057400Y-102844600D03*
X129057400Y-105333800D03*
X129540000Y-106705400D03*
X121564400Y-105943400D03*
X121437400Y-103200200D03*
X121437400Y-100076000D03*
X121412000Y-97231200D03*
X121183400Y-93472000D03*
X121920000Y-91033600D03*
X124079000Y-88747600D03*
X125653800Y-87274400D03*
X145237200Y-94183200D03*
X145237200Y-98933000D03*
X145211800Y-100076000D03*
X145211800Y-101854000D03*
X164236400Y-114858800D03*
X161747200Y-115900200D03*
X159893000Y-115951000D03*
X164388800Y-79121000D03*
X162763200Y-77673200D03*
X163068000Y-75869800D03*
X161188400Y-73507600D03*
X136804400Y-89992200D03*
D22*
X134239000Y-86931500D03*
D21*
X147751800Y-79616300D03*
X150139400Y-87744300D03*
D22*
X147980400Y-69583300D03*
X147116800Y-67157600D03*
D21*
X147955000Y-48133000D03*
X125018800Y-49225200D03*
X125120400Y-59588400D03*
X148691600Y-67310000D03*
D22*
X127101600Y-117563900D03*
X126682500Y-113474500D03*
D21*
X137337800Y-79463900D03*
X144094200Y-83070700D03*
X148259800Y-72148700D03*
X146583400Y-72707500D03*
X154813000Y-76161900D03*
X152882600Y-76771500D03*
X148691600Y-115874800D03*
X148691600Y-111048800D03*
X147726400Y-109016800D03*
X149301200Y-104140000D03*
X149301200Y-102463600D03*
X149301200Y-96723200D03*
X149301200Y-93421200D03*
X152730200Y-92303600D03*
X156895800Y-81991200D03*
X161391600Y-76098400D03*
X138404600Y-84797900D03*
X128320800Y-90322400D03*
X140190120Y-103294280D03*
X143759580Y-110143081D03*
X139768680Y-110152280D03*
X144360900Y-105689400D03*
X144360900Y-109602280D03*
X146291300Y-110820200D03*
X152806400Y-123964700D03*
X150863300Y-110702280D03*
X150863300Y-116408200D03*
X150863300Y-117560280D03*
X132465980Y-96552920D03*
X132430420Y-94937480D03*
X132522060Y-103893720D03*
X132465980Y-102674320D03*
X132486300Y-110746440D03*
X132522060Y-109512200D03*
X132659020Y-124447400D03*
X132628740Y-123253600D03*
X143129000Y-85813900D03*
X135521700Y-90093800D03*
X135978900Y-117627400D03*
X135978900Y-116460280D03*
X137058400Y-88341200D03*
X143276220Y-124418280D03*
X143276420Y-123318280D03*
X143268700Y-117560280D03*
X143268700Y-116372640D03*
X143200020Y-110726320D03*
X143159580Y-109496960D03*
X143159580Y-103844280D03*
X143032380Y-102603200D03*
X143032380Y-96482000D03*
X143113860Y-95018760D03*
X145999200Y-90627200D03*
X154010260Y-94973040D03*
X154023060Y-96438720D03*
X154025500Y-102588160D03*
X154025500Y-103863040D03*
X154050900Y-109471360D03*
X154050900Y-110702280D03*
X153995220Y-116334640D03*
X154010460Y-117560280D03*
X154315060Y-124477680D03*
X154378660Y-123164600D03*
X150964900Y-90551000D03*
D22*
X160883600Y-42062400D03*
X163372800Y-43535600D03*
X160782000Y-45262800D03*
D23*
X138061700Y-88379400D02*
X138712800Y-87728300D01*
D24*
X152882800Y-86206900D02*
X153783800Y-85305900D01*
X152882800Y-87337900D02*
X152882800Y-86206900D01*
D23*
X144312800Y-79378300D02*
X144312800Y-78686500D01*
X144312800Y-78686500D02*
X144856200Y-78143100D01*
X145669000Y-78143100D02*
X145774506Y-78248606D01*
X144856200Y-78143100D02*
X145669000Y-78143100D01*
X149938801Y-71135301D02*
X149938801Y-70547300D01*
X150241000Y-71437500D02*
X149938801Y-71135301D01*
D24*
X132075600Y-115197300D02*
X132029200Y-115150900D01*
X133475800Y-115197300D02*
X132075600Y-115197300D01*
X132030000Y-111697300D02*
X131978400Y-111645700D01*
X133475800Y-111697300D02*
X132030000Y-111697300D01*
D25*
X140788800Y-47062000D02*
X140788800Y-45647200D01*
X140788800Y-45647200D02*
X140788800Y-45393200D01*
D23*
X120777999Y-53661999D02*
X123884001Y-53661999D01*
X119928000Y-52812000D02*
X120777999Y-53661999D01*
X123884001Y-53661999D02*
X125018800Y-52527200D01*
X120737999Y-43755999D02*
X126576401Y-43755999D01*
X119888000Y-42906000D02*
X120737999Y-43755999D01*
X126576401Y-43755999D02*
X127203200Y-43129200D01*
D24*
X149788800Y-46156800D02*
X149047200Y-45415200D01*
X149788800Y-47062000D02*
X149788800Y-46156800D01*
X146288800Y-45603200D02*
X146202400Y-45516800D01*
X146288800Y-47062000D02*
X146288800Y-45603200D01*
X149788800Y-47062000D02*
X149788800Y-47630000D01*
X150876000Y-48717200D02*
X151790400Y-48717200D01*
X149788800Y-47630000D02*
X150876000Y-48717200D01*
D25*
X141788800Y-47046800D02*
X141833600Y-47002000D01*
X141788800Y-47062000D02*
X141788800Y-47046800D01*
X141833600Y-45923200D02*
X142240000Y-45516800D01*
X141833600Y-47002000D02*
X141833600Y-45923200D01*
X141788800Y-48113600D02*
X142392400Y-48717200D01*
X141788800Y-47062000D02*
X141788800Y-48113600D01*
X139788800Y-47129600D02*
X139801600Y-47142400D01*
X139788800Y-47062000D02*
X139788800Y-47129600D01*
X139801600Y-47142400D02*
X139801600Y-47802800D01*
X139801600Y-47802800D02*
X139750800Y-47853600D01*
X139750800Y-47853600D02*
X139446000Y-47853600D01*
X139288800Y-47696400D02*
X139288800Y-47062000D01*
X139446000Y-47853600D02*
X139288800Y-47696400D01*
X139788800Y-47062000D02*
X139788800Y-45910400D01*
X139788800Y-45910400D02*
X139852400Y-45846800D01*
X140589200Y-45846800D02*
X140788800Y-45647200D01*
X139852400Y-45846800D02*
X140589200Y-45846800D01*
X133298000Y-111691500D02*
X133129100Y-111691500D01*
X133129100Y-111691500D02*
X132994400Y-111556800D01*
X132994400Y-111556800D02*
X132994400Y-111480600D01*
X132994400Y-111480600D02*
X133400800Y-111074200D01*
X132994400Y-111480600D02*
X133908800Y-111480600D01*
X133908800Y-111480600D02*
X133959600Y-111429800D01*
X133959600Y-111429800D02*
X134518400Y-111429800D01*
X133298000Y-115191500D02*
X137772100Y-115191500D01*
X137772100Y-115191500D02*
X137947400Y-115366800D01*
X137947400Y-115366800D02*
X137947400Y-115392200D01*
X138226800Y-115671600D02*
X138633200Y-115671600D01*
X137947400Y-115392200D02*
X138226800Y-115671600D01*
D23*
X135559800Y-86804400D02*
X135559800Y-86779100D01*
X135985600Y-86353300D02*
X137337800Y-86353300D01*
X135559800Y-86779100D02*
X135985600Y-86353300D01*
D24*
X147650200Y-83781900D02*
X147396200Y-84035900D01*
X147313600Y-83953300D02*
X145687800Y-83953300D01*
X147396200Y-84035900D02*
X147313600Y-83953300D01*
D23*
X140571698Y-83953300D02*
X145687800Y-83953300D01*
X138171698Y-86353300D02*
X140571698Y-83953300D01*
X137337800Y-86353300D02*
X138171698Y-86353300D01*
X145243200Y-80753300D02*
X145193210Y-80803290D01*
X145687800Y-80753300D02*
X145243200Y-80753300D01*
X134366100Y-86804400D02*
X134239000Y-86931500D01*
X135559800Y-86804400D02*
X134366100Y-86804400D01*
D24*
X151307800Y-81749900D02*
X149783800Y-80225900D01*
X153136600Y-80225900D02*
X151307800Y-82054700D01*
X153783800Y-80225900D02*
X153136600Y-80225900D01*
X151307800Y-87337900D02*
X151307800Y-82054700D01*
X151307800Y-82054700D02*
X151307800Y-81749900D01*
D23*
X147142200Y-79616300D02*
X146888200Y-79362300D01*
X147751800Y-79616300D02*
X147142200Y-79616300D01*
X146888200Y-79362300D02*
X146888200Y-80327500D01*
X146462400Y-80753300D02*
X145687800Y-80753300D01*
X146888200Y-80327500D02*
X146462400Y-80753300D01*
X150901400Y-87744300D02*
X151307800Y-87337900D01*
X150139400Y-87744300D02*
X150901400Y-87744300D01*
X134188200Y-86982300D02*
X134239000Y-86931500D01*
D25*
X147788800Y-47062000D02*
X147788800Y-47814400D01*
X147788800Y-47814400D02*
X147980400Y-48006000D01*
X147980400Y-48006000D02*
X148183600Y-48006000D01*
X148288800Y-47900800D02*
X148288800Y-47062000D01*
X148183600Y-48006000D02*
X148288800Y-47900800D01*
D23*
X147980400Y-69583300D02*
X147980400Y-68122800D01*
X147980400Y-68122800D02*
X147116800Y-67259200D01*
X147116800Y-67259200D02*
X147116800Y-67157600D01*
D24*
X147980400Y-48006000D02*
X147980400Y-48107600D01*
X147980400Y-48107600D02*
X147955000Y-48133000D01*
X147955000Y-48133000D02*
X147929600Y-48158400D01*
X125526800Y-48183900D02*
X125526800Y-48717200D01*
X125526800Y-48717200D02*
X125018800Y-49225200D01*
X125120400Y-59588400D02*
X125323600Y-59588400D01*
X125526800Y-59385200D02*
X125526800Y-58699500D01*
X125323600Y-59588400D02*
X125526800Y-59385200D01*
D25*
X148788800Y-67212800D02*
X148691600Y-67310000D01*
X148788800Y-47062000D02*
X148788800Y-67212800D01*
D24*
X127990600Y-116674900D02*
X127101600Y-117563900D01*
X131749800Y-116674900D02*
X127990600Y-116674900D01*
X133475800Y-116197300D02*
X132227400Y-116197300D01*
X132227400Y-116197300D02*
X131749800Y-116674900D01*
X131917400Y-112697300D02*
X133475800Y-112697300D01*
X131876800Y-112737900D02*
X131917400Y-112697300D01*
X131917400Y-112697300D02*
X131904700Y-112697300D01*
X131904700Y-112697300D02*
X131127500Y-113474500D01*
X131127500Y-113474500D02*
X126682500Y-113474500D01*
X146703800Y-83153300D02*
X147650200Y-82206900D01*
X145687800Y-83153300D02*
X146703800Y-83153300D01*
X135966200Y-72809100D02*
X135966200Y-78092300D01*
X135966200Y-78092300D02*
X137337800Y-79463900D01*
X145605200Y-83070700D02*
X145687800Y-83153300D01*
X144094200Y-83070700D02*
X145605200Y-83070700D01*
X133108700Y-69951600D02*
X135966200Y-72809100D01*
X132283200Y-69951600D02*
X132740400Y-69951600D01*
D25*
X132689600Y-69900800D02*
X132740400Y-69951600D01*
X132232400Y-69900800D02*
X132689600Y-69900800D01*
D24*
X132740400Y-69951600D02*
X133108700Y-69951600D01*
X137337800Y-80753300D02*
X136138000Y-80753300D01*
X136138000Y-80753300D02*
X135001000Y-79616300D01*
X135001000Y-79616300D02*
X135001000Y-73164700D01*
X133057900Y-71221600D02*
X135001000Y-73164700D01*
D25*
X132283200Y-71221600D02*
X132232400Y-71170800D01*
X133057900Y-71221600D02*
X132283200Y-71221600D01*
D24*
X135769600Y-81553300D02*
X137337800Y-81553300D01*
X134086600Y-79870300D02*
X135769600Y-81553300D01*
X133083200Y-72491600D02*
X134086600Y-73495000D01*
X134086600Y-73495000D02*
X134086600Y-79870300D01*
X132283200Y-72491600D02*
X133083200Y-72491600D01*
D25*
X133032400Y-72440800D02*
X133083200Y-72491600D01*
X132232400Y-72440800D02*
X133032400Y-72440800D01*
X133475800Y-112197300D02*
X135324000Y-112197300D01*
X157753900Y-112197300D02*
X135324000Y-112197300D01*
X158089600Y-80670400D02*
X158089600Y-111861600D01*
X158038800Y-80670400D02*
X158089600Y-80670400D01*
X140288800Y-73502040D02*
X142290800Y-75504040D01*
X153032460Y-75504040D02*
X153822400Y-76293980D01*
X158089600Y-111861600D02*
X157753900Y-112197300D01*
X140288800Y-47062000D02*
X140288800Y-73502040D01*
X153822400Y-76293980D02*
X153822400Y-76454000D01*
X142290800Y-75504040D02*
X153032460Y-75504040D01*
X153822400Y-76454000D02*
X158038800Y-80670400D01*
X141288800Y-72746900D02*
X141288800Y-47062000D01*
X148539200Y-74896980D02*
X143438880Y-74896980D01*
X160978300Y-113697300D02*
X161442400Y-113233200D01*
X161442400Y-113233200D02*
X161442400Y-81262220D01*
X133475800Y-113697300D02*
X160978300Y-113697300D01*
X143438880Y-74896980D02*
X141288800Y-72746900D01*
X161442400Y-81262220D02*
X155072080Y-74891900D01*
X155072080Y-74891900D02*
X148544280Y-74891900D01*
X148544280Y-74891900D02*
X148539200Y-74896980D01*
X148412200Y-72301100D02*
X148259800Y-72148700D01*
X164084000Y-80556100D02*
X155829000Y-72301100D01*
X164084000Y-113436400D02*
X164084000Y-80556100D01*
X133475800Y-114697300D02*
X162823100Y-114697300D01*
X155829000Y-72301100D02*
X148412200Y-72301100D01*
X162823100Y-114697300D02*
X164084000Y-113436400D01*
X145084800Y-71208900D02*
X146583400Y-72707500D01*
X145084800Y-50495200D02*
X145084800Y-71208900D01*
X146788800Y-47062000D02*
X146788800Y-48791200D01*
X146788800Y-48791200D02*
X145084800Y-50495200D01*
X147288800Y-48584400D02*
X147288800Y-47062000D01*
X147878800Y-63703200D02*
X147878800Y-49174400D01*
X145999200Y-65582800D02*
X147878800Y-63703200D01*
X145999200Y-68675102D02*
X145999200Y-65582800D01*
X147878800Y-49174400D02*
X147288800Y-48584400D01*
X147288800Y-69964702D02*
X145999200Y-68675102D01*
X147288800Y-72396900D02*
X147288800Y-69964702D01*
X161951500Y-114197300D02*
X162864800Y-113284000D01*
X133475800Y-114197300D02*
X161951500Y-114197300D01*
X162864800Y-113284000D02*
X162864800Y-80822800D01*
X162864800Y-80822800D02*
X155105100Y-73063100D01*
X155105100Y-73063100D02*
X147955000Y-73063100D01*
X147955000Y-73063100D02*
X147288800Y-72396900D01*
X154863800Y-76161900D02*
X154813000Y-76161900D01*
X143342360Y-76354940D02*
X141912800Y-77784500D01*
X141912800Y-77784500D02*
X141912800Y-79378300D01*
X150174960Y-76354940D02*
X143342360Y-76354940D01*
X152882600Y-76771500D02*
X150591520Y-76771500D01*
X150591520Y-76771500D02*
X150174960Y-76354940D01*
X154963200Y-113197300D02*
X133475800Y-113197300D01*
X159751100Y-113197300D02*
X154963200Y-113197300D01*
X155105100Y-76161900D02*
X160477200Y-81534000D01*
X154813000Y-76161900D02*
X155105100Y-76161900D01*
X160477200Y-81534000D02*
X160477200Y-99263200D01*
X160477200Y-99263200D02*
X160528000Y-99314000D01*
X160528000Y-99314000D02*
X160528000Y-112420400D01*
X160528000Y-112420400D02*
X159751100Y-113197300D01*
X136334800Y-115697300D02*
X133475800Y-115697300D01*
X150520400Y-65214500D02*
X155879800Y-70573900D01*
X150520400Y-51409800D02*
X150520400Y-65214500D01*
X136334800Y-115697300D02*
X136982500Y-115697300D01*
X136982500Y-115697300D02*
X137083500Y-115697300D01*
X136982500Y-115697300D02*
X137287300Y-115697300D01*
X137287300Y-115697300D02*
X140919200Y-119329200D01*
X140919200Y-119329200D02*
X147269200Y-119329200D01*
X147269200Y-119329200D02*
X148691600Y-117906800D01*
X148691600Y-117906800D02*
X148691600Y-115874800D01*
X148691600Y-111048800D02*
X148691600Y-110439200D01*
X148691600Y-110439200D02*
X147726400Y-109474000D01*
X147726400Y-109474000D02*
X147726400Y-109016800D01*
X149301200Y-104140000D02*
X149301200Y-102463600D01*
X149301200Y-96723200D02*
X149301200Y-93421200D01*
X152730200Y-92303600D02*
X154584400Y-92303600D01*
X154584400Y-92303600D02*
X156895800Y-89992200D01*
X156895800Y-89992200D02*
X156895800Y-81991200D01*
X156895800Y-81991200D02*
X156895800Y-81991200D01*
X155879800Y-70573900D02*
X155917900Y-70573900D01*
X157268001Y-71974801D02*
X161391600Y-76098400D01*
X157268001Y-71924001D02*
X157268001Y-71974801D01*
X155917900Y-70573900D02*
X157268001Y-71924001D01*
D24*
X137337800Y-84753300D02*
X138360000Y-84753300D01*
X138360000Y-84753300D02*
X138404600Y-84797900D01*
X137337800Y-85553300D02*
X135972800Y-85553300D01*
X128320800Y-90322400D02*
X128320800Y-87884000D01*
X130651500Y-85553300D02*
X135972800Y-85553300D01*
X128320800Y-87884000D02*
X130651500Y-85553300D01*
D25*
X140190120Y-103243480D02*
X140190120Y-103294280D01*
X141112800Y-102320800D02*
X140190120Y-103243480D01*
X141112800Y-87728300D02*
X141112800Y-102320800D01*
D24*
X141912800Y-88478300D02*
X141909800Y-88481300D01*
X141912800Y-87728300D02*
X141912800Y-88478300D01*
D25*
X141912800Y-107436178D02*
X141935200Y-107458578D01*
X141912800Y-87728300D02*
X141912800Y-107436178D01*
X141935200Y-107985760D02*
X139768680Y-110152280D01*
X141935200Y-107458578D02*
X141935200Y-107985760D01*
D24*
X144360900Y-109602280D02*
X144867620Y-110109000D01*
X145580100Y-110109000D02*
X146291300Y-110820200D01*
X144867620Y-110109000D02*
X145580100Y-110109000D01*
D25*
X142712800Y-87728300D02*
X142712800Y-92166800D01*
X144360900Y-93814900D02*
X144360900Y-105689400D01*
X142712800Y-92166800D02*
X144360900Y-93814900D01*
D24*
X150863300Y-117560280D02*
X150863300Y-116408200D01*
D25*
X143512800Y-87728300D02*
X143512800Y-91214200D01*
X146100800Y-105939780D02*
X150863300Y-110702280D01*
X146100800Y-93802200D02*
X146100800Y-105939780D01*
X143512800Y-91214200D02*
X146100800Y-93802200D01*
X137337800Y-83953300D02*
X136544790Y-83953300D01*
X119928000Y-57312000D02*
X120648800Y-56591200D01*
X124993500Y-56591200D02*
X125526800Y-57124500D01*
X120648800Y-56591200D02*
X124993500Y-56591200D01*
D24*
X137337800Y-83953300D02*
X131248100Y-83953300D01*
X131248100Y-83953300D02*
X124663200Y-77368400D01*
X124663200Y-77368400D02*
X124663200Y-63398400D01*
X124663200Y-63398400D02*
X127914400Y-60147200D01*
X127914400Y-60147200D02*
X127914400Y-57861200D01*
X127177700Y-57124500D02*
X125526800Y-57124500D01*
X127914400Y-57861200D02*
X127177700Y-57124500D01*
D25*
X120685100Y-46608900D02*
X125526800Y-46608900D01*
X119888000Y-47406000D02*
X120685100Y-46608900D01*
D24*
X125526800Y-46608900D02*
X127279300Y-46608900D01*
X127279300Y-46608900D02*
X129540000Y-48869600D01*
X129540000Y-48869600D02*
X129540000Y-61061600D01*
X129540000Y-61061600D02*
X126288800Y-64312800D01*
X126288800Y-64312800D02*
X126288800Y-76504800D01*
X126288800Y-76504800D02*
X132181600Y-82397600D01*
X132181600Y-82397600D02*
X134670800Y-82397600D01*
X135426500Y-83153300D02*
X137337800Y-83153300D01*
X134670800Y-82397600D02*
X135426500Y-83153300D01*
X145687800Y-85553300D02*
X143389600Y-85553300D01*
X143389600Y-85553300D02*
X143129000Y-85813900D01*
X132465980Y-94973040D02*
X132430420Y-94937480D01*
X132465980Y-96552920D02*
X132465980Y-94973040D01*
X132522060Y-102730400D02*
X132465980Y-102674320D01*
X132522060Y-103893720D02*
X132522060Y-102730400D01*
X132486300Y-109547960D02*
X132522060Y-109512200D01*
X132486300Y-110746440D02*
X132486300Y-109547960D01*
X135978900Y-117627400D02*
X135978900Y-116460280D01*
X132628740Y-124417120D02*
X132659020Y-124447400D01*
X132628740Y-123253600D02*
X132628740Y-124417120D01*
D25*
X135521700Y-89877900D02*
X137058400Y-88341200D01*
X135521700Y-90093800D02*
X135521700Y-89877900D01*
D24*
X143276220Y-123318480D02*
X143276420Y-123318280D01*
X143276220Y-124418280D02*
X143276220Y-123318480D01*
X143268700Y-117560280D02*
X143268700Y-116372640D01*
X143159580Y-110685880D02*
X143159580Y-109496960D01*
X143200020Y-110726320D02*
X143159580Y-110685880D01*
X143159580Y-102730400D02*
X143032380Y-102603200D01*
X143159580Y-103844280D02*
X143159580Y-102730400D01*
X143032380Y-95100240D02*
X143113860Y-95018760D01*
X143032380Y-96482000D02*
X143032380Y-95100240D01*
D25*
X145687800Y-86353300D02*
X146652900Y-86353300D01*
X146652900Y-86353300D02*
X147574000Y-87274400D01*
X147574000Y-89052400D02*
X145999200Y-90627200D01*
X147574000Y-87274400D02*
X147574000Y-89052400D01*
D24*
X154315060Y-123228200D02*
X154378660Y-123164600D01*
X154315060Y-124477680D02*
X154315060Y-123228200D01*
X154010460Y-116349880D02*
X153995220Y-116334640D01*
X154010460Y-117560280D02*
X154010460Y-116349880D01*
X154050900Y-110702280D02*
X154050900Y-109471360D01*
X154025500Y-103863040D02*
X154025500Y-102588160D01*
X154023060Y-94985840D02*
X154010260Y-94973040D01*
X154023060Y-96438720D02*
X154023060Y-94985840D01*
D25*
X144312800Y-87728300D02*
X144312800Y-90668000D01*
X144312800Y-90668000D02*
X145338800Y-91694000D01*
X149821900Y-91694000D02*
X150964900Y-90551000D01*
X145338800Y-91694000D02*
X149821900Y-91694000D01*
X145687800Y-84753300D02*
X146792800Y-84753300D01*
X147345400Y-85305900D02*
X149783800Y-85305900D01*
X146792800Y-84753300D02*
X147345400Y-85305900D01*
X149288800Y-48704800D02*
X149288800Y-47062000D01*
X150520400Y-49834800D02*
X150418800Y-49834800D01*
X150418800Y-49834800D02*
X149288800Y-48704800D01*
D24*
X161620100Y-42062400D02*
X161772500Y-42214800D01*
X158851600Y-42062400D02*
X160883600Y-42062400D01*
X160883600Y-42062400D02*
X161620100Y-42062400D01*
X163347500Y-47167700D02*
X162458400Y-48056800D01*
X163347500Y-44704000D02*
X163347500Y-47167700D01*
X163347500Y-43560900D02*
X163372800Y-43535600D01*
X163347500Y-43560900D02*
X163347500Y-44704000D01*
X163347500Y-42214800D02*
X163347500Y-43560900D01*
X161649301Y-45262800D02*
X161772500Y-45139601D01*
X158851600Y-45262800D02*
X160782000Y-45262800D01*
X161544000Y-45262800D02*
X161649301Y-45262800D01*
X160782000Y-45262800D02*
X161544000Y-45262800D01*
D26*
G36*
X124430192Y-57510408D02*
G01*
X124478950Y-57671142D01*
X124558129Y-57819275D01*
X124634226Y-57912000D01*
X124558129Y-58004725D01*
X124478950Y-58152858D01*
X124430192Y-58313592D01*
X124413728Y-58480750D01*
X124413728Y-58918250D01*
X124429162Y-59074952D01*
X124358278Y-59181037D01*
X124293449Y-59337547D01*
X124260400Y-59503697D01*
X124260400Y-59673103D01*
X124293449Y-59839253D01*
X124358278Y-59995763D01*
X124452395Y-60136618D01*
X124572182Y-60256405D01*
X124713037Y-60350522D01*
X124869547Y-60415351D01*
X125035697Y-60448400D01*
X125205103Y-60448400D01*
X125371253Y-60415351D01*
X125527763Y-60350522D01*
X125537992Y-60343687D01*
X125625460Y-60317154D01*
X125761833Y-60244262D01*
X125881364Y-60146164D01*
X125905947Y-60116210D01*
X126054611Y-59967546D01*
X126084564Y-59942964D01*
X126182662Y-59823433D01*
X126255554Y-59687060D01*
X126277162Y-59615827D01*
X126388915Y-59524115D01*
X126495471Y-59394275D01*
X126574650Y-59246142D01*
X126623408Y-59085408D01*
X126639872Y-58918250D01*
X126639872Y-58480750D01*
X126623408Y-58313592D01*
X126574650Y-58152858D01*
X126495471Y-58004725D01*
X126419374Y-57912000D01*
X126421426Y-57909500D01*
X126852543Y-57909500D01*
X127129401Y-58186359D01*
X127129400Y-59822042D01*
X124135385Y-62816058D01*
X124105437Y-62840636D01*
X124080859Y-62870584D01*
X124080855Y-62870588D01*
X124047890Y-62910756D01*
X124007339Y-62960167D01*
X123987302Y-62997654D01*
X123934446Y-63096541D01*
X123889559Y-63244514D01*
X123874403Y-63398400D01*
X123878201Y-63436963D01*
X123878200Y-77329847D01*
X123874403Y-77368400D01*
X123878200Y-77406953D01*
X123878200Y-77406960D01*
X123889559Y-77522286D01*
X123934446Y-77670259D01*
X124007338Y-77806632D01*
X124105436Y-77926164D01*
X124135390Y-77950747D01*
X130665753Y-84481110D01*
X130690336Y-84511064D01*
X130809867Y-84609162D01*
X130925421Y-84670926D01*
X130946240Y-84682054D01*
X131094213Y-84726942D01*
X131169126Y-84734320D01*
X131209539Y-84738300D01*
X131209544Y-84738300D01*
X131248100Y-84742097D01*
X131286656Y-84738300D01*
X135949728Y-84738300D01*
X135949728Y-84768300D01*
X130690056Y-84768300D01*
X130651500Y-84764503D01*
X130612944Y-84768300D01*
X130612939Y-84768300D01*
X130572526Y-84772280D01*
X130497613Y-84779658D01*
X130349640Y-84824546D01*
X130213267Y-84897438D01*
X130093736Y-84995536D01*
X130069153Y-85025490D01*
X127792985Y-87301658D01*
X127763037Y-87326236D01*
X127738459Y-87356184D01*
X127738455Y-87356188D01*
X127715007Y-87384760D01*
X127664939Y-87445767D01*
X127652658Y-87468744D01*
X127592046Y-87582141D01*
X127547159Y-87730114D01*
X127532003Y-87884000D01*
X127535801Y-87922563D01*
X127535800Y-89970269D01*
X127493849Y-90071547D01*
X127460800Y-90237697D01*
X127460800Y-90407103D01*
X127493849Y-90573253D01*
X127558678Y-90729763D01*
X127652795Y-90870618D01*
X127772582Y-90990405D01*
X127913437Y-91084522D01*
X128069947Y-91149351D01*
X128236097Y-91182400D01*
X128405503Y-91182400D01*
X128571653Y-91149351D01*
X128728163Y-91084522D01*
X128869018Y-90990405D01*
X128988805Y-90870618D01*
X129082922Y-90729763D01*
X129147751Y-90573253D01*
X129180800Y-90407103D01*
X129180800Y-90237697D01*
X129147751Y-90071547D01*
X129121884Y-90009097D01*
X134661700Y-90009097D01*
X134661700Y-90178503D01*
X134694749Y-90344653D01*
X134759578Y-90501163D01*
X134853695Y-90642018D01*
X134973482Y-90761805D01*
X135114337Y-90855922D01*
X135270847Y-90920751D01*
X135436997Y-90953800D01*
X135606403Y-90953800D01*
X135772553Y-90920751D01*
X135929063Y-90855922D01*
X136069918Y-90761805D01*
X136189705Y-90642018D01*
X136283822Y-90501163D01*
X136348651Y-90344653D01*
X136381700Y-90178503D01*
X136381700Y-90092701D01*
X137305505Y-89168896D01*
X137309253Y-89168151D01*
X137465763Y-89103322D01*
X137606618Y-89009205D01*
X137726405Y-88889418D01*
X137820522Y-88748563D01*
X137885351Y-88592053D01*
X137918400Y-88425903D01*
X137918400Y-88256497D01*
X137885351Y-88090347D01*
X137820522Y-87933837D01*
X137726405Y-87792982D01*
X137606618Y-87673195D01*
X137465763Y-87579078D01*
X137309253Y-87514249D01*
X137143103Y-87481200D01*
X136973697Y-87481200D01*
X136807547Y-87514249D01*
X136651037Y-87579078D01*
X136510182Y-87673195D01*
X136390395Y-87792982D01*
X136296278Y-87933837D01*
X136231449Y-88090347D01*
X136230704Y-88094095D01*
X135010701Y-89314098D01*
X134981699Y-89337899D01*
X134886726Y-89453624D01*
X134816154Y-89585653D01*
X134807203Y-89615162D01*
X134759578Y-89686437D01*
X134694749Y-89842947D01*
X134661700Y-90009097D01*
X129121884Y-90009097D01*
X129105800Y-89970269D01*
X129105800Y-88209157D01*
X130976657Y-86338300D01*
X133390580Y-86338300D01*
X133321795Y-86441244D01*
X133243774Y-86629602D01*
X133204000Y-86829561D01*
X133204000Y-87033439D01*
X133243774Y-87233398D01*
X133321795Y-87421756D01*
X133435063Y-87591274D01*
X133579226Y-87735437D01*
X133748744Y-87848705D01*
X133937102Y-87926726D01*
X134137061Y-87966500D01*
X134340939Y-87966500D01*
X134540898Y-87926726D01*
X134729256Y-87848705D01*
X134866997Y-87756669D01*
X134975658Y-87814750D01*
X135136392Y-87863508D01*
X135303550Y-87879972D01*
X135816050Y-87879972D01*
X135983208Y-87863508D01*
X136143942Y-87814750D01*
X136292075Y-87735571D01*
X136421915Y-87629015D01*
X136528471Y-87499175D01*
X136607650Y-87351042D01*
X136626683Y-87288300D01*
X138125766Y-87288300D01*
X138171698Y-87292824D01*
X138217630Y-87288300D01*
X138354990Y-87274771D01*
X138531238Y-87221307D01*
X138624728Y-87171336D01*
X138624728Y-88353300D01*
X138639390Y-88502168D01*
X138682813Y-88645315D01*
X138753329Y-88777240D01*
X138848227Y-88892873D01*
X138963860Y-88987771D01*
X139095785Y-89058287D01*
X139238932Y-89101710D01*
X139387800Y-89116372D01*
X139637800Y-89116372D01*
X139786668Y-89101710D01*
X139912800Y-89063448D01*
X140038932Y-89101710D01*
X140187800Y-89116372D01*
X140352800Y-89116372D01*
X140352801Y-102005997D01*
X139857672Y-102501127D01*
X139782757Y-102532158D01*
X139641902Y-102626275D01*
X139522115Y-102746062D01*
X139427998Y-102886917D01*
X139363169Y-103043427D01*
X139330120Y-103209577D01*
X139330120Y-103378983D01*
X139363169Y-103545133D01*
X139427998Y-103701643D01*
X139522115Y-103842498D01*
X139641902Y-103962285D01*
X139782757Y-104056402D01*
X139939267Y-104121231D01*
X140105417Y-104154280D01*
X140274823Y-104154280D01*
X140440973Y-104121231D01*
X140597483Y-104056402D01*
X140738338Y-103962285D01*
X140858125Y-103842498D01*
X140952242Y-103701643D01*
X141017071Y-103545133D01*
X141030430Y-103477971D01*
X141152801Y-103355601D01*
X141152801Y-107398845D01*
X141149124Y-107436178D01*
X141163798Y-107585163D01*
X141175200Y-107622752D01*
X141175200Y-107670958D01*
X139521575Y-109324583D01*
X139517827Y-109325329D01*
X139361317Y-109390158D01*
X139220462Y-109484275D01*
X139100675Y-109604062D01*
X139006558Y-109744917D01*
X138941729Y-109901427D01*
X138908680Y-110067577D01*
X138908680Y-110236983D01*
X138941729Y-110403133D01*
X139006558Y-110559643D01*
X139100675Y-110700498D01*
X139220462Y-110820285D01*
X139361317Y-110914402D01*
X139517827Y-110979231D01*
X139683977Y-111012280D01*
X139853383Y-111012280D01*
X140019533Y-110979231D01*
X140176043Y-110914402D01*
X140316898Y-110820285D01*
X140436685Y-110700498D01*
X140530802Y-110559643D01*
X140595631Y-110403133D01*
X140596377Y-110399385D01*
X142446203Y-108549559D01*
X142475201Y-108525761D01*
X142545325Y-108440315D01*
X142570174Y-108410037D01*
X142640746Y-108278007D01*
X142644483Y-108265688D01*
X142684203Y-108134746D01*
X142695200Y-108023093D01*
X142695200Y-108023083D01*
X142698876Y-107985760D01*
X142695200Y-107948437D01*
X142695200Y-107495900D01*
X142698876Y-107458577D01*
X142695200Y-107421255D01*
X142695200Y-107421245D01*
X142684203Y-107309592D01*
X142672800Y-107272001D01*
X142672800Y-104553337D01*
X142752217Y-104606402D01*
X142908727Y-104671231D01*
X143074877Y-104704280D01*
X143244283Y-104704280D01*
X143410433Y-104671231D01*
X143566943Y-104606402D01*
X143600901Y-104583712D01*
X143600901Y-105278860D01*
X143598778Y-105282037D01*
X143533949Y-105438547D01*
X143500900Y-105604697D01*
X143500900Y-105774103D01*
X143533949Y-105940253D01*
X143598778Y-106096763D01*
X143692895Y-106237618D01*
X143812682Y-106357405D01*
X143953537Y-106451522D01*
X144110047Y-106516351D01*
X144276197Y-106549400D01*
X144445603Y-106549400D01*
X144611753Y-106516351D01*
X144768263Y-106451522D01*
X144909118Y-106357405D01*
X145028905Y-106237618D01*
X145123022Y-106096763D01*
X145187851Y-105940253D01*
X145220900Y-105774103D01*
X145220900Y-105604697D01*
X145187851Y-105438547D01*
X145123022Y-105282037D01*
X145120900Y-105278861D01*
X145120900Y-93897102D01*
X145340800Y-94117002D01*
X145340801Y-105902448D01*
X145337124Y-105939780D01*
X145351798Y-106088765D01*
X145395254Y-106232026D01*
X145465826Y-106364056D01*
X145526842Y-106438403D01*
X145560800Y-106479781D01*
X145589798Y-106503579D01*
X147334494Y-108248275D01*
X147319037Y-108254678D01*
X147178182Y-108348795D01*
X147058395Y-108468582D01*
X146964278Y-108609437D01*
X146899449Y-108765947D01*
X146866400Y-108932097D01*
X146866400Y-109101503D01*
X146899449Y-109267653D01*
X146964278Y-109424163D01*
X146966400Y-109427339D01*
X146966400Y-109436678D01*
X146962724Y-109474000D01*
X146966400Y-109511322D01*
X146966400Y-109511332D01*
X146977397Y-109622985D01*
X147011594Y-109735718D01*
X147020854Y-109766246D01*
X147091426Y-109898276D01*
X147108896Y-109919563D01*
X147186399Y-110014001D01*
X147215402Y-110037804D01*
X147897130Y-110719532D01*
X147864649Y-110797947D01*
X147831600Y-110964097D01*
X147831600Y-111133503D01*
X147864649Y-111299653D01*
X147921665Y-111437300D01*
X146890423Y-111437300D01*
X146959305Y-111368418D01*
X147053422Y-111227563D01*
X147118251Y-111071053D01*
X147151300Y-110904903D01*
X147151300Y-110735497D01*
X147118251Y-110569347D01*
X147053422Y-110412837D01*
X146959305Y-110271982D01*
X146839518Y-110152195D01*
X146698663Y-110058078D01*
X146597383Y-110016126D01*
X146162445Y-109581188D01*
X146137864Y-109551236D01*
X146018333Y-109453138D01*
X145881960Y-109380246D01*
X145733987Y-109335359D01*
X145618661Y-109324000D01*
X145618653Y-109324000D01*
X145580100Y-109320203D01*
X145541547Y-109324000D01*
X145192777Y-109324000D01*
X145164974Y-109296197D01*
X145123022Y-109194917D01*
X145028905Y-109054062D01*
X144909118Y-108934275D01*
X144768263Y-108840158D01*
X144611753Y-108775329D01*
X144445603Y-108742280D01*
X144276197Y-108742280D01*
X144110047Y-108775329D01*
X143953537Y-108840158D01*
X143812943Y-108934100D01*
X143707798Y-108828955D01*
X143566943Y-108734838D01*
X143410433Y-108670009D01*
X143244283Y-108636960D01*
X143074877Y-108636960D01*
X142908727Y-108670009D01*
X142752217Y-108734838D01*
X142611362Y-108828955D01*
X142491575Y-108948742D01*
X142397458Y-109089597D01*
X142332629Y-109246107D01*
X142299580Y-109412257D01*
X142299580Y-109581663D01*
X142332629Y-109747813D01*
X142374581Y-109849093D01*
X142374580Y-110471819D01*
X142373069Y-110475467D01*
X142340020Y-110641617D01*
X142340020Y-110811023D01*
X142373069Y-110977173D01*
X142437898Y-111133683D01*
X142532015Y-111274538D01*
X142651802Y-111394325D01*
X142716118Y-111437300D01*
X134143727Y-111437300D01*
X134072482Y-111415688D01*
X133948000Y-111403428D01*
X133045535Y-111403428D01*
X133154305Y-111294658D01*
X133248422Y-111153803D01*
X133313251Y-110997293D01*
X133346300Y-110831143D01*
X133346300Y-110661737D01*
X133313251Y-110495587D01*
X133271300Y-110394309D01*
X133271300Y-109938842D01*
X133284182Y-109919563D01*
X133349011Y-109763053D01*
X133382060Y-109596903D01*
X133382060Y-109427497D01*
X133349011Y-109261347D01*
X133284182Y-109104837D01*
X133190065Y-108963982D01*
X133070278Y-108844195D01*
X132929423Y-108750078D01*
X132772913Y-108685249D01*
X132606763Y-108652200D01*
X132437357Y-108652200D01*
X132271207Y-108685249D01*
X132114697Y-108750078D01*
X131973842Y-108844195D01*
X131854055Y-108963982D01*
X131786072Y-109065725D01*
X131786072Y-108891500D01*
X131773812Y-108767018D01*
X131737502Y-108647320D01*
X131678537Y-108537006D01*
X131599185Y-108440315D01*
X131502494Y-108360963D01*
X131392180Y-108301998D01*
X131272482Y-108265688D01*
X131148000Y-108253428D01*
X128948000Y-108253428D01*
X128823518Y-108265688D01*
X128703820Y-108301998D01*
X128593506Y-108360963D01*
X128496815Y-108440315D01*
X128417463Y-108537006D01*
X128358498Y-108647320D01*
X128322188Y-108767018D01*
X128309928Y-108891500D01*
X128309928Y-110691500D01*
X128322188Y-110815982D01*
X128358498Y-110935680D01*
X128417463Y-111045994D01*
X128496815Y-111142685D01*
X128593506Y-111222037D01*
X128703820Y-111281002D01*
X128823518Y-111317312D01*
X128948000Y-111329572D01*
X131148000Y-111329572D01*
X131272482Y-111317312D01*
X131392180Y-111281002D01*
X131502494Y-111222037D01*
X131599185Y-111142685D01*
X131678537Y-111045994D01*
X131679092Y-111044956D01*
X131724178Y-111153803D01*
X131818295Y-111294658D01*
X131938082Y-111414445D01*
X132078937Y-111508562D01*
X132223478Y-111568433D01*
X132196815Y-111590315D01*
X132117463Y-111687006D01*
X132058498Y-111797320D01*
X132023619Y-111912300D01*
X131955952Y-111912300D01*
X131917399Y-111908503D01*
X131911050Y-111909128D01*
X131904700Y-111908503D01*
X131866144Y-111912300D01*
X131866139Y-111912300D01*
X131825726Y-111916280D01*
X131750813Y-111923658D01*
X131602840Y-111968546D01*
X131466467Y-112041438D01*
X131346936Y-112139536D01*
X131322353Y-112169490D01*
X130802343Y-112689500D01*
X127361211Y-112689500D01*
X127342274Y-112670563D01*
X127172756Y-112557295D01*
X126984398Y-112479274D01*
X126784439Y-112439500D01*
X126580561Y-112439500D01*
X126380602Y-112479274D01*
X126192244Y-112557295D01*
X126022726Y-112670563D01*
X125878563Y-112814726D01*
X125765295Y-112984244D01*
X125687274Y-113172602D01*
X125647500Y-113372561D01*
X125647500Y-113576439D01*
X125687274Y-113776398D01*
X125765295Y-113964756D01*
X125878563Y-114134274D01*
X126022726Y-114278437D01*
X126192244Y-114391705D01*
X126380602Y-114469726D01*
X126580561Y-114509500D01*
X126784439Y-114509500D01*
X126984398Y-114469726D01*
X127172756Y-114391705D01*
X127342274Y-114278437D01*
X127361211Y-114259500D01*
X131088947Y-114259500D01*
X131127500Y-114263297D01*
X131166053Y-114259500D01*
X131166061Y-114259500D01*
X131281387Y-114248141D01*
X131429360Y-114203254D01*
X131565733Y-114130362D01*
X131685264Y-114032264D01*
X131709847Y-114002310D01*
X132009928Y-113702229D01*
X132009928Y-113841500D01*
X132019777Y-113941500D01*
X132009928Y-114041500D01*
X132009928Y-114341500D01*
X132019777Y-114441500D01*
X132009928Y-114541500D01*
X132009928Y-114841500D01*
X132022188Y-114965982D01*
X132058498Y-115085680D01*
X132115061Y-115191500D01*
X132058498Y-115297320D01*
X132022188Y-115417018D01*
X132019933Y-115439912D01*
X131925540Y-115468546D01*
X131789167Y-115541438D01*
X131669636Y-115639536D01*
X131645053Y-115669490D01*
X131424643Y-115889900D01*
X128029156Y-115889900D01*
X127990600Y-115886103D01*
X127952044Y-115889900D01*
X127952039Y-115889900D01*
X127911626Y-115893880D01*
X127836713Y-115901258D01*
X127727438Y-115934407D01*
X127688740Y-115946146D01*
X127552367Y-116019038D01*
X127432836Y-116117136D01*
X127408255Y-116147088D01*
X127026443Y-116528900D01*
X126999661Y-116528900D01*
X126799702Y-116568674D01*
X126611344Y-116646695D01*
X126441826Y-116759963D01*
X126297663Y-116904126D01*
X126184395Y-117073644D01*
X126106374Y-117262002D01*
X126066600Y-117461961D01*
X126066600Y-117665839D01*
X126106374Y-117865798D01*
X126184395Y-118054156D01*
X126297663Y-118223674D01*
X126441826Y-118367837D01*
X126611344Y-118481105D01*
X126799702Y-118559126D01*
X126999661Y-118598900D01*
X127203539Y-118598900D01*
X127403498Y-118559126D01*
X127591856Y-118481105D01*
X127761374Y-118367837D01*
X127905537Y-118223674D01*
X128018805Y-118054156D01*
X128096826Y-117865798D01*
X128136600Y-117665839D01*
X128136600Y-117639057D01*
X128309928Y-117465729D01*
X128309928Y-118991500D01*
X128322188Y-119115982D01*
X128358498Y-119235680D01*
X128417463Y-119345994D01*
X128496815Y-119442685D01*
X128593506Y-119522037D01*
X128703820Y-119581002D01*
X128823518Y-119617312D01*
X128948000Y-119629572D01*
X131148000Y-119629572D01*
X131272482Y-119617312D01*
X131392180Y-119581002D01*
X131502494Y-119522037D01*
X131599185Y-119442685D01*
X131678537Y-119345994D01*
X131737502Y-119235680D01*
X131773812Y-119115982D01*
X131786072Y-118991500D01*
X131786072Y-117460125D01*
X131788353Y-117459900D01*
X131788361Y-117459900D01*
X131903687Y-117448541D01*
X132051660Y-117403654D01*
X132188033Y-117330762D01*
X132307564Y-117232664D01*
X132332147Y-117202710D01*
X132552557Y-116982300D01*
X133514361Y-116982300D01*
X133542058Y-116979572D01*
X133948000Y-116979572D01*
X134072482Y-116967312D01*
X134192180Y-116931002D01*
X134302494Y-116872037D01*
X134399185Y-116792685D01*
X134478537Y-116695994D01*
X134537502Y-116585680D01*
X134573812Y-116465982D01*
X134574667Y-116457300D01*
X135118900Y-116457300D01*
X135118900Y-116544983D01*
X135151949Y-116711133D01*
X135193901Y-116812413D01*
X135193900Y-117275268D01*
X135151949Y-117376547D01*
X135118900Y-117542697D01*
X135118900Y-117712103D01*
X135151949Y-117878253D01*
X135216778Y-118034763D01*
X135310895Y-118175618D01*
X135430682Y-118295405D01*
X135571537Y-118389522D01*
X135728047Y-118454351D01*
X135894197Y-118487400D01*
X136063603Y-118487400D01*
X136229753Y-118454351D01*
X136386263Y-118389522D01*
X136527118Y-118295405D01*
X136646905Y-118175618D01*
X136741022Y-118034763D01*
X136805851Y-117878253D01*
X136838900Y-117712103D01*
X136838900Y-117542697D01*
X136805851Y-117376547D01*
X136763900Y-117275269D01*
X136763900Y-116812411D01*
X136805851Y-116711133D01*
X136838900Y-116544983D01*
X136838900Y-116457300D01*
X136972499Y-116457300D01*
X140355401Y-119840203D01*
X140379199Y-119869201D01*
X140494924Y-119964174D01*
X140626953Y-120034746D01*
X140770214Y-120078203D01*
X140881867Y-120089200D01*
X140881876Y-120089200D01*
X140919199Y-120092876D01*
X140956522Y-120089200D01*
X147231878Y-120089200D01*
X147269200Y-120092876D01*
X147306522Y-120089200D01*
X147306533Y-120089200D01*
X147418186Y-120078203D01*
X147561447Y-120034746D01*
X147693476Y-119964174D01*
X147809201Y-119869201D01*
X147833004Y-119840197D01*
X149202604Y-118470598D01*
X149231601Y-118446801D01*
X149326574Y-118331076D01*
X149397146Y-118199047D01*
X149440603Y-118055786D01*
X149451600Y-117944133D01*
X149451600Y-117944124D01*
X149455276Y-117906801D01*
X149451600Y-117869478D01*
X149451600Y-116323497D01*
X150003300Y-116323497D01*
X150003300Y-116492903D01*
X150036349Y-116659053D01*
X150078301Y-116760333D01*
X150078300Y-117208148D01*
X150036349Y-117309427D01*
X150003300Y-117475577D01*
X150003300Y-117644983D01*
X150036349Y-117811133D01*
X150101178Y-117967643D01*
X150195295Y-118108498D01*
X150315082Y-118228285D01*
X150455937Y-118322402D01*
X150612447Y-118387231D01*
X150778597Y-118420280D01*
X150948003Y-118420280D01*
X151114153Y-118387231D01*
X151270663Y-118322402D01*
X151411518Y-118228285D01*
X151531305Y-118108498D01*
X151625422Y-117967643D01*
X151690251Y-117811133D01*
X151723300Y-117644983D01*
X151723300Y-117475577D01*
X151690251Y-117309427D01*
X151648300Y-117208149D01*
X151648300Y-116760331D01*
X151690251Y-116659053D01*
X151723300Y-116492903D01*
X151723300Y-116323497D01*
X151708669Y-116249937D01*
X153135220Y-116249937D01*
X153135220Y-116419343D01*
X153168269Y-116585493D01*
X153225461Y-116723565D01*
X153225460Y-117208148D01*
X153183509Y-117309427D01*
X153150460Y-117475577D01*
X153150460Y-117644983D01*
X153183509Y-117811133D01*
X153248338Y-117967643D01*
X153342455Y-118108498D01*
X153462242Y-118228285D01*
X153603097Y-118322402D01*
X153759607Y-118387231D01*
X153925757Y-118420280D01*
X154095163Y-118420280D01*
X154261313Y-118387231D01*
X154417823Y-118322402D01*
X154558678Y-118228285D01*
X154678465Y-118108498D01*
X154772582Y-117967643D01*
X154837411Y-117811133D01*
X154870460Y-117644983D01*
X154870460Y-117475577D01*
X154837411Y-117309427D01*
X154795460Y-117208149D01*
X154795460Y-116649979D01*
X154822171Y-116585493D01*
X154855220Y-116419343D01*
X154855220Y-116249937D01*
X154822171Y-116083787D01*
X154757342Y-115927277D01*
X154663225Y-115786422D01*
X154543438Y-115666635D01*
X154402583Y-115572518D01*
X154246073Y-115507689D01*
X154079923Y-115474640D01*
X153910517Y-115474640D01*
X153744367Y-115507689D01*
X153587857Y-115572518D01*
X153447002Y-115666635D01*
X153327215Y-115786422D01*
X153233098Y-115927277D01*
X153168269Y-116083787D01*
X153135220Y-116249937D01*
X151708669Y-116249937D01*
X151690251Y-116157347D01*
X151625422Y-116000837D01*
X151531305Y-115859982D01*
X151411518Y-115740195D01*
X151270663Y-115646078D01*
X151114153Y-115581249D01*
X150948003Y-115548200D01*
X150778597Y-115548200D01*
X150612447Y-115581249D01*
X150455937Y-115646078D01*
X150315082Y-115740195D01*
X150195295Y-115859982D01*
X150101178Y-116000837D01*
X150036349Y-116157347D01*
X150003300Y-116323497D01*
X149451600Y-116323497D01*
X149451600Y-116285339D01*
X149453722Y-116282163D01*
X149518551Y-116125653D01*
X149551600Y-115959503D01*
X149551600Y-115790097D01*
X149518551Y-115623947D01*
X149453722Y-115467437D01*
X149446949Y-115457300D01*
X162785778Y-115457300D01*
X162823100Y-115460976D01*
X162860422Y-115457300D01*
X162860433Y-115457300D01*
X162972086Y-115446303D01*
X163115347Y-115402846D01*
X163247376Y-115332274D01*
X163363101Y-115237301D01*
X163386904Y-115208297D01*
X164595004Y-114000198D01*
X164606902Y-113990433D01*
X164617330Y-132969000D01*
X120548330Y-132969000D01*
X120542946Y-123168897D01*
X131768740Y-123168897D01*
X131768740Y-123338303D01*
X131801789Y-123504453D01*
X131843740Y-123605732D01*
X131843741Y-124168369D01*
X131832069Y-124196547D01*
X131799020Y-124362697D01*
X131799020Y-124532103D01*
X131832069Y-124698253D01*
X131896898Y-124854763D01*
X131991015Y-124995618D01*
X132110802Y-125115405D01*
X132251657Y-125209522D01*
X132408167Y-125274351D01*
X132574317Y-125307400D01*
X132743723Y-125307400D01*
X132909873Y-125274351D01*
X133066383Y-125209522D01*
X133207238Y-125115405D01*
X133327025Y-124995618D01*
X133421142Y-124854763D01*
X133485971Y-124698253D01*
X133519020Y-124532103D01*
X133519020Y-124362697D01*
X133513228Y-124333577D01*
X142416220Y-124333577D01*
X142416220Y-124502983D01*
X142449269Y-124669133D01*
X142514098Y-124825643D01*
X142608215Y-124966498D01*
X142728002Y-125086285D01*
X142868857Y-125180402D01*
X143025367Y-125245231D01*
X143191517Y-125278280D01*
X143360923Y-125278280D01*
X143527073Y-125245231D01*
X143683583Y-125180402D01*
X143824438Y-125086285D01*
X143944225Y-124966498D01*
X144038342Y-124825643D01*
X144103171Y-124669133D01*
X144136220Y-124502983D01*
X144136220Y-124333577D01*
X144103171Y-124167427D01*
X144061220Y-124066149D01*
X144061220Y-123879997D01*
X151946400Y-123879997D01*
X151946400Y-124049403D01*
X151979449Y-124215553D01*
X152044278Y-124372063D01*
X152138395Y-124512918D01*
X152258182Y-124632705D01*
X152399037Y-124726822D01*
X152555547Y-124791651D01*
X152721697Y-124824700D01*
X152891103Y-124824700D01*
X153057253Y-124791651D01*
X153213763Y-124726822D01*
X153354618Y-124632705D01*
X153455060Y-124532263D01*
X153455060Y-124562383D01*
X153488109Y-124728533D01*
X153552938Y-124885043D01*
X153647055Y-125025898D01*
X153766842Y-125145685D01*
X153907697Y-125239802D01*
X154064207Y-125304631D01*
X154230357Y-125337680D01*
X154399763Y-125337680D01*
X154565913Y-125304631D01*
X154722423Y-125239802D01*
X154863278Y-125145685D01*
X154983065Y-125025898D01*
X155077182Y-124885043D01*
X155142011Y-124728533D01*
X155175060Y-124562383D01*
X155175060Y-124392977D01*
X155142011Y-124226827D01*
X155100060Y-124125549D01*
X155100060Y-123632907D01*
X155140782Y-123571963D01*
X155205611Y-123415453D01*
X155238660Y-123249303D01*
X155238660Y-123079897D01*
X155205611Y-122913747D01*
X155140782Y-122757237D01*
X155046665Y-122616382D01*
X154926878Y-122496595D01*
X154786023Y-122402478D01*
X154629513Y-122337649D01*
X154463363Y-122304600D01*
X154293957Y-122304600D01*
X154127807Y-122337649D01*
X153971297Y-122402478D01*
X153830442Y-122496595D01*
X153710655Y-122616382D01*
X153616538Y-122757237D01*
X153551709Y-122913747D01*
X153518660Y-123079897D01*
X153518660Y-123249303D01*
X153530061Y-123306620D01*
X153530061Y-123499776D01*
X153474405Y-123416482D01*
X153354618Y-123296695D01*
X153213763Y-123202578D01*
X153057253Y-123137749D01*
X152891103Y-123104700D01*
X152721697Y-123104700D01*
X152555547Y-123137749D01*
X152399037Y-123202578D01*
X152258182Y-123296695D01*
X152138395Y-123416482D01*
X152044278Y-123557337D01*
X151979449Y-123713847D01*
X151946400Y-123879997D01*
X144061220Y-123879997D01*
X144061220Y-123670894D01*
X144103371Y-123569133D01*
X144136420Y-123402983D01*
X144136420Y-123233577D01*
X144103371Y-123067427D01*
X144038542Y-122910917D01*
X143944425Y-122770062D01*
X143824638Y-122650275D01*
X143683783Y-122556158D01*
X143527273Y-122491329D01*
X143361123Y-122458280D01*
X143191717Y-122458280D01*
X143025567Y-122491329D01*
X142869057Y-122556158D01*
X142728202Y-122650275D01*
X142608415Y-122770062D01*
X142514298Y-122910917D01*
X142449469Y-123067427D01*
X142416420Y-123233577D01*
X142416420Y-123402983D01*
X142449469Y-123569133D01*
X142491221Y-123669930D01*
X142491220Y-124066148D01*
X142449269Y-124167427D01*
X142416220Y-124333577D01*
X133513228Y-124333577D01*
X133485971Y-124196547D01*
X133421142Y-124040037D01*
X133413740Y-124028959D01*
X133413740Y-123605731D01*
X133455691Y-123504453D01*
X133488740Y-123338303D01*
X133488740Y-123168897D01*
X133455691Y-123002747D01*
X133390862Y-122846237D01*
X133296745Y-122705382D01*
X133176958Y-122585595D01*
X133036103Y-122491478D01*
X132879593Y-122426649D01*
X132713443Y-122393600D01*
X132544037Y-122393600D01*
X132377887Y-122426649D01*
X132221377Y-122491478D01*
X132080522Y-122585595D01*
X131960735Y-122705382D01*
X131866618Y-122846237D01*
X131801789Y-123002747D01*
X131768740Y-123168897D01*
X120542946Y-123168897D01*
X120531639Y-102589617D01*
X131605980Y-102589617D01*
X131605980Y-102759023D01*
X131639029Y-102925173D01*
X131703858Y-103081683D01*
X131737061Y-103131374D01*
X131737060Y-103541588D01*
X131695109Y-103642867D01*
X131662060Y-103809017D01*
X131662060Y-103978423D01*
X131695109Y-104144573D01*
X131759938Y-104301083D01*
X131854055Y-104441938D01*
X131973842Y-104561725D01*
X132114697Y-104655842D01*
X132271207Y-104720671D01*
X132437357Y-104753720D01*
X132606763Y-104753720D01*
X132772913Y-104720671D01*
X132929423Y-104655842D01*
X133070278Y-104561725D01*
X133190065Y-104441938D01*
X133284182Y-104301083D01*
X133349011Y-104144573D01*
X133382060Y-103978423D01*
X133382060Y-103809017D01*
X133349011Y-103642867D01*
X133307060Y-103541589D01*
X133307060Y-102854141D01*
X133325980Y-102759023D01*
X133325980Y-102589617D01*
X133292931Y-102423467D01*
X133228102Y-102266957D01*
X133133985Y-102126102D01*
X133014198Y-102006315D01*
X132873343Y-101912198D01*
X132716833Y-101847369D01*
X132550683Y-101814320D01*
X132381277Y-101814320D01*
X132215127Y-101847369D01*
X132058617Y-101912198D01*
X131917762Y-102006315D01*
X131797975Y-102126102D01*
X131703858Y-102266957D01*
X131639029Y-102423467D01*
X131605980Y-102589617D01*
X120531639Y-102589617D01*
X120527388Y-94852777D01*
X131570420Y-94852777D01*
X131570420Y-95022183D01*
X131603469Y-95188333D01*
X131668298Y-95344843D01*
X131680981Y-95363824D01*
X131680980Y-96200788D01*
X131639029Y-96302067D01*
X131605980Y-96468217D01*
X131605980Y-96637623D01*
X131639029Y-96803773D01*
X131703858Y-96960283D01*
X131797975Y-97101138D01*
X131917762Y-97220925D01*
X132058617Y-97315042D01*
X132215127Y-97379871D01*
X132381277Y-97412920D01*
X132550683Y-97412920D01*
X132716833Y-97379871D01*
X132873343Y-97315042D01*
X133014198Y-97220925D01*
X133133985Y-97101138D01*
X133228102Y-96960283D01*
X133292931Y-96803773D01*
X133325980Y-96637623D01*
X133325980Y-96468217D01*
X133292931Y-96302067D01*
X133250980Y-96200789D01*
X133250980Y-95203762D01*
X133257371Y-95188333D01*
X133290420Y-95022183D01*
X133290420Y-94852777D01*
X133257371Y-94686627D01*
X133192542Y-94530117D01*
X133098425Y-94389262D01*
X132978638Y-94269475D01*
X132837783Y-94175358D01*
X132681273Y-94110529D01*
X132515123Y-94077480D01*
X132345717Y-94077480D01*
X132179567Y-94110529D01*
X132023057Y-94175358D01*
X131882202Y-94269475D01*
X131762415Y-94389262D01*
X131668298Y-94530117D01*
X131603469Y-94686627D01*
X131570420Y-94852777D01*
X120527388Y-94852777D01*
X120507557Y-58761630D01*
X120564358Y-58750332D01*
X120834611Y-58638390D01*
X120896200Y-58597238D01*
X120896200Y-58743283D01*
X120962875Y-59078481D01*
X121093663Y-59394231D01*
X121283537Y-59678398D01*
X121525202Y-59920063D01*
X121809369Y-60109937D01*
X122125119Y-60240725D01*
X122460317Y-60307400D01*
X122802083Y-60307400D01*
X123137281Y-60240725D01*
X123453031Y-60109937D01*
X123737198Y-59920063D01*
X123978863Y-59678398D01*
X124168737Y-59394231D01*
X124299525Y-59078481D01*
X124366200Y-58743283D01*
X124366200Y-58401517D01*
X124299525Y-58066319D01*
X124168737Y-57750569D01*
X123978863Y-57466402D01*
X123863661Y-57351200D01*
X124414511Y-57351200D01*
X124430192Y-57510408D01*
G37*
X124430192Y-57510408D02*
X124478950Y-57671142D01*
X124558129Y-57819275D01*
X124634226Y-57912000D01*
X124558129Y-58004725D01*
X124478950Y-58152858D01*
X124430192Y-58313592D01*
X124413728Y-58480750D01*
X124413728Y-58918250D01*
X124429162Y-59074952D01*
X124358278Y-59181037D01*
X124293449Y-59337547D01*
X124260400Y-59503697D01*
X124260400Y-59673103D01*
X124293449Y-59839253D01*
X124358278Y-59995763D01*
X124452395Y-60136618D01*
X124572182Y-60256405D01*
X124713037Y-60350522D01*
X124869547Y-60415351D01*
X125035697Y-60448400D01*
X125205103Y-60448400D01*
X125371253Y-60415351D01*
X125527763Y-60350522D01*
X125537992Y-60343687D01*
X125625460Y-60317154D01*
X125761833Y-60244262D01*
X125881364Y-60146164D01*
X125905947Y-60116210D01*
X126054611Y-59967546D01*
X126084564Y-59942964D01*
X126182662Y-59823433D01*
X126255554Y-59687060D01*
X126277162Y-59615827D01*
X126388915Y-59524115D01*
X126495471Y-59394275D01*
X126574650Y-59246142D01*
X126623408Y-59085408D01*
X126639872Y-58918250D01*
X126639872Y-58480750D01*
X126623408Y-58313592D01*
X126574650Y-58152858D01*
X126495471Y-58004725D01*
X126419374Y-57912000D01*
X126421426Y-57909500D01*
X126852543Y-57909500D01*
X127129401Y-58186359D01*
X127129400Y-59822042D01*
X124135385Y-62816058D01*
X124105437Y-62840636D01*
X124080859Y-62870584D01*
X124080855Y-62870588D01*
X124047890Y-62910756D01*
X124007339Y-62960167D01*
X123987302Y-62997654D01*
X123934446Y-63096541D01*
X123889559Y-63244514D01*
X123874403Y-63398400D01*
X123878201Y-63436963D01*
X123878200Y-77329847D01*
X123874403Y-77368400D01*
X123878200Y-77406953D01*
X123878200Y-77406960D01*
X123889559Y-77522286D01*
X123934446Y-77670259D01*
X124007338Y-77806632D01*
X124105436Y-77926164D01*
X124135390Y-77950747D01*
X130665753Y-84481110D01*
X130690336Y-84511064D01*
X130809867Y-84609162D01*
X130925421Y-84670926D01*
X130946240Y-84682054D01*
X131094213Y-84726942D01*
X131169126Y-84734320D01*
X131209539Y-84738300D01*
X131209544Y-84738300D01*
X131248100Y-84742097D01*
X131286656Y-84738300D01*
X135949728Y-84738300D01*
X135949728Y-84768300D01*
X130690056Y-84768300D01*
X130651500Y-84764503D01*
X130612944Y-84768300D01*
X130612939Y-84768300D01*
X130572526Y-84772280D01*
X130497613Y-84779658D01*
X130349640Y-84824546D01*
X130213267Y-84897438D01*
X130093736Y-84995536D01*
X130069153Y-85025490D01*
X127792985Y-87301658D01*
X127763037Y-87326236D01*
X127738459Y-87356184D01*
X127738455Y-87356188D01*
X127715007Y-87384760D01*
X127664939Y-87445767D01*
X127652658Y-87468744D01*
X127592046Y-87582141D01*
X127547159Y-87730114D01*
X127532003Y-87884000D01*
X127535801Y-87922563D01*
X127535800Y-89970269D01*
X127493849Y-90071547D01*
X127460800Y-90237697D01*
X127460800Y-90407103D01*
X127493849Y-90573253D01*
X127558678Y-90729763D01*
X127652795Y-90870618D01*
X127772582Y-90990405D01*
X127913437Y-91084522D01*
X128069947Y-91149351D01*
X128236097Y-91182400D01*
X128405503Y-91182400D01*
X128571653Y-91149351D01*
X128728163Y-91084522D01*
X128869018Y-90990405D01*
X128988805Y-90870618D01*
X129082922Y-90729763D01*
X129147751Y-90573253D01*
X129180800Y-90407103D01*
X129180800Y-90237697D01*
X129147751Y-90071547D01*
X129121884Y-90009097D01*
X134661700Y-90009097D01*
X134661700Y-90178503D01*
X134694749Y-90344653D01*
X134759578Y-90501163D01*
X134853695Y-90642018D01*
X134973482Y-90761805D01*
X135114337Y-90855922D01*
X135270847Y-90920751D01*
X135436997Y-90953800D01*
X135606403Y-90953800D01*
X135772553Y-90920751D01*
X135929063Y-90855922D01*
X136069918Y-90761805D01*
X136189705Y-90642018D01*
X136283822Y-90501163D01*
X136348651Y-90344653D01*
X136381700Y-90178503D01*
X136381700Y-90092701D01*
X137305505Y-89168896D01*
X137309253Y-89168151D01*
X137465763Y-89103322D01*
X137606618Y-89009205D01*
X137726405Y-88889418D01*
X137820522Y-88748563D01*
X137885351Y-88592053D01*
X137918400Y-88425903D01*
X137918400Y-88256497D01*
X137885351Y-88090347D01*
X137820522Y-87933837D01*
X137726405Y-87792982D01*
X137606618Y-87673195D01*
X137465763Y-87579078D01*
X137309253Y-87514249D01*
X137143103Y-87481200D01*
X136973697Y-87481200D01*
X136807547Y-87514249D01*
X136651037Y-87579078D01*
X136510182Y-87673195D01*
X136390395Y-87792982D01*
X136296278Y-87933837D01*
X136231449Y-88090347D01*
X136230704Y-88094095D01*
X135010701Y-89314098D01*
X134981699Y-89337899D01*
X134886726Y-89453624D01*
X134816154Y-89585653D01*
X134807203Y-89615162D01*
X134759578Y-89686437D01*
X134694749Y-89842947D01*
X134661700Y-90009097D01*
X129121884Y-90009097D01*
X129105800Y-89970269D01*
X129105800Y-88209157D01*
X130976657Y-86338300D01*
X133390580Y-86338300D01*
X133321795Y-86441244D01*
X133243774Y-86629602D01*
X133204000Y-86829561D01*
X133204000Y-87033439D01*
X133243774Y-87233398D01*
X133321795Y-87421756D01*
X133435063Y-87591274D01*
X133579226Y-87735437D01*
X133748744Y-87848705D01*
X133937102Y-87926726D01*
X134137061Y-87966500D01*
X134340939Y-87966500D01*
X134540898Y-87926726D01*
X134729256Y-87848705D01*
X134866997Y-87756669D01*
X134975658Y-87814750D01*
X135136392Y-87863508D01*
X135303550Y-87879972D01*
X135816050Y-87879972D01*
X135983208Y-87863508D01*
X136143942Y-87814750D01*
X136292075Y-87735571D01*
X136421915Y-87629015D01*
X136528471Y-87499175D01*
X136607650Y-87351042D01*
X136626683Y-87288300D01*
X138125766Y-87288300D01*
X138171698Y-87292824D01*
X138217630Y-87288300D01*
X138354990Y-87274771D01*
X138531238Y-87221307D01*
X138624728Y-87171336D01*
X138624728Y-88353300D01*
X138639390Y-88502168D01*
X138682813Y-88645315D01*
X138753329Y-88777240D01*
X138848227Y-88892873D01*
X138963860Y-88987771D01*
X139095785Y-89058287D01*
X139238932Y-89101710D01*
X139387800Y-89116372D01*
X139637800Y-89116372D01*
X139786668Y-89101710D01*
X139912800Y-89063448D01*
X140038932Y-89101710D01*
X140187800Y-89116372D01*
X140352800Y-89116372D01*
X140352801Y-102005997D01*
X139857672Y-102501127D01*
X139782757Y-102532158D01*
X139641902Y-102626275D01*
X139522115Y-102746062D01*
X139427998Y-102886917D01*
X139363169Y-103043427D01*
X139330120Y-103209577D01*
X139330120Y-103378983D01*
X139363169Y-103545133D01*
X139427998Y-103701643D01*
X139522115Y-103842498D01*
X139641902Y-103962285D01*
X139782757Y-104056402D01*
X139939267Y-104121231D01*
X140105417Y-104154280D01*
X140274823Y-104154280D01*
X140440973Y-104121231D01*
X140597483Y-104056402D01*
X140738338Y-103962285D01*
X140858125Y-103842498D01*
X140952242Y-103701643D01*
X141017071Y-103545133D01*
X141030430Y-103477971D01*
X141152801Y-103355601D01*
X141152801Y-107398845D01*
X141149124Y-107436178D01*
X141163798Y-107585163D01*
X141175200Y-107622752D01*
X141175200Y-107670958D01*
X139521575Y-109324583D01*
X139517827Y-109325329D01*
X139361317Y-109390158D01*
X139220462Y-109484275D01*
X139100675Y-109604062D01*
X139006558Y-109744917D01*
X138941729Y-109901427D01*
X138908680Y-110067577D01*
X138908680Y-110236983D01*
X138941729Y-110403133D01*
X139006558Y-110559643D01*
X139100675Y-110700498D01*
X139220462Y-110820285D01*
X139361317Y-110914402D01*
X139517827Y-110979231D01*
X139683977Y-111012280D01*
X139853383Y-111012280D01*
X140019533Y-110979231D01*
X140176043Y-110914402D01*
X140316898Y-110820285D01*
X140436685Y-110700498D01*
X140530802Y-110559643D01*
X140595631Y-110403133D01*
X140596377Y-110399385D01*
X142446203Y-108549559D01*
X142475201Y-108525761D01*
X142545325Y-108440315D01*
X142570174Y-108410037D01*
X142640746Y-108278007D01*
X142644483Y-108265688D01*
X142684203Y-108134746D01*
X142695200Y-108023093D01*
X142695200Y-108023083D01*
X142698876Y-107985760D01*
X142695200Y-107948437D01*
X142695200Y-107495900D01*
X142698876Y-107458577D01*
X142695200Y-107421255D01*
X142695200Y-107421245D01*
X142684203Y-107309592D01*
X142672800Y-107272001D01*
X142672800Y-104553337D01*
X142752217Y-104606402D01*
X142908727Y-104671231D01*
X143074877Y-104704280D01*
X143244283Y-104704280D01*
X143410433Y-104671231D01*
X143566943Y-104606402D01*
X143600901Y-104583712D01*
X143600901Y-105278860D01*
X143598778Y-105282037D01*
X143533949Y-105438547D01*
X143500900Y-105604697D01*
X143500900Y-105774103D01*
X143533949Y-105940253D01*
X143598778Y-106096763D01*
X143692895Y-106237618D01*
X143812682Y-106357405D01*
X143953537Y-106451522D01*
X144110047Y-106516351D01*
X144276197Y-106549400D01*
X144445603Y-106549400D01*
X144611753Y-106516351D01*
X144768263Y-106451522D01*
X144909118Y-106357405D01*
X145028905Y-106237618D01*
X145123022Y-106096763D01*
X145187851Y-105940253D01*
X145220900Y-105774103D01*
X145220900Y-105604697D01*
X145187851Y-105438547D01*
X145123022Y-105282037D01*
X145120900Y-105278861D01*
X145120900Y-93897102D01*
X145340800Y-94117002D01*
X145340801Y-105902448D01*
X145337124Y-105939780D01*
X145351798Y-106088765D01*
X145395254Y-106232026D01*
X145465826Y-106364056D01*
X145526842Y-106438403D01*
X145560800Y-106479781D01*
X145589798Y-106503579D01*
X147334494Y-108248275D01*
X147319037Y-108254678D01*
X147178182Y-108348795D01*
X147058395Y-108468582D01*
X146964278Y-108609437D01*
X146899449Y-108765947D01*
X146866400Y-108932097D01*
X146866400Y-109101503D01*
X146899449Y-109267653D01*
X146964278Y-109424163D01*
X146966400Y-109427339D01*
X146966400Y-109436678D01*
X146962724Y-109474000D01*
X146966400Y-109511322D01*
X146966400Y-109511332D01*
X146977397Y-109622985D01*
X147011594Y-109735718D01*
X147020854Y-109766246D01*
X147091426Y-109898276D01*
X147108896Y-109919563D01*
X147186399Y-110014001D01*
X147215402Y-110037804D01*
X147897130Y-110719532D01*
X147864649Y-110797947D01*
X147831600Y-110964097D01*
X147831600Y-111133503D01*
X147864649Y-111299653D01*
X147921665Y-111437300D01*
X146890423Y-111437300D01*
X146959305Y-111368418D01*
X147053422Y-111227563D01*
X147118251Y-111071053D01*
X147151300Y-110904903D01*
X147151300Y-110735497D01*
X147118251Y-110569347D01*
X147053422Y-110412837D01*
X146959305Y-110271982D01*
X146839518Y-110152195D01*
X146698663Y-110058078D01*
X146597383Y-110016126D01*
X146162445Y-109581188D01*
X146137864Y-109551236D01*
X146018333Y-109453138D01*
X145881960Y-109380246D01*
X145733987Y-109335359D01*
X145618661Y-109324000D01*
X145618653Y-109324000D01*
X145580100Y-109320203D01*
X145541547Y-109324000D01*
X145192777Y-109324000D01*
X145164974Y-109296197D01*
X145123022Y-109194917D01*
X145028905Y-109054062D01*
X144909118Y-108934275D01*
X144768263Y-108840158D01*
X144611753Y-108775329D01*
X144445603Y-108742280D01*
X144276197Y-108742280D01*
X144110047Y-108775329D01*
X143953537Y-108840158D01*
X143812943Y-108934100D01*
X143707798Y-108828955D01*
X143566943Y-108734838D01*
X143410433Y-108670009D01*
X143244283Y-108636960D01*
X143074877Y-108636960D01*
X142908727Y-108670009D01*
X142752217Y-108734838D01*
X142611362Y-108828955D01*
X142491575Y-108948742D01*
X142397458Y-109089597D01*
X142332629Y-109246107D01*
X142299580Y-109412257D01*
X142299580Y-109581663D01*
X142332629Y-109747813D01*
X142374581Y-109849093D01*
X142374580Y-110471819D01*
X142373069Y-110475467D01*
X142340020Y-110641617D01*
X142340020Y-110811023D01*
X142373069Y-110977173D01*
X142437898Y-111133683D01*
X142532015Y-111274538D01*
X142651802Y-111394325D01*
X142716118Y-111437300D01*
X134143727Y-111437300D01*
X134072482Y-111415688D01*
X133948000Y-111403428D01*
X133045535Y-111403428D01*
X133154305Y-111294658D01*
X133248422Y-111153803D01*
X133313251Y-110997293D01*
X133346300Y-110831143D01*
X133346300Y-110661737D01*
X133313251Y-110495587D01*
X133271300Y-110394309D01*
X133271300Y-109938842D01*
X133284182Y-109919563D01*
X133349011Y-109763053D01*
X133382060Y-109596903D01*
X133382060Y-109427497D01*
X133349011Y-109261347D01*
X133284182Y-109104837D01*
X133190065Y-108963982D01*
X133070278Y-108844195D01*
X132929423Y-108750078D01*
X132772913Y-108685249D01*
X132606763Y-108652200D01*
X132437357Y-108652200D01*
X132271207Y-108685249D01*
X132114697Y-108750078D01*
X131973842Y-108844195D01*
X131854055Y-108963982D01*
X131786072Y-109065725D01*
X131786072Y-108891500D01*
X131773812Y-108767018D01*
X131737502Y-108647320D01*
X131678537Y-108537006D01*
X131599185Y-108440315D01*
X131502494Y-108360963D01*
X131392180Y-108301998D01*
X131272482Y-108265688D01*
X131148000Y-108253428D01*
X128948000Y-108253428D01*
X128823518Y-108265688D01*
X128703820Y-108301998D01*
X128593506Y-108360963D01*
X128496815Y-108440315D01*
X128417463Y-108537006D01*
X128358498Y-108647320D01*
X128322188Y-108767018D01*
X128309928Y-108891500D01*
X128309928Y-110691500D01*
X128322188Y-110815982D01*
X128358498Y-110935680D01*
X128417463Y-111045994D01*
X128496815Y-111142685D01*
X128593506Y-111222037D01*
X128703820Y-111281002D01*
X128823518Y-111317312D01*
X128948000Y-111329572D01*
X131148000Y-111329572D01*
X131272482Y-111317312D01*
X131392180Y-111281002D01*
X131502494Y-111222037D01*
X131599185Y-111142685D01*
X131678537Y-111045994D01*
X131679092Y-111044956D01*
X131724178Y-111153803D01*
X131818295Y-111294658D01*
X131938082Y-111414445D01*
X132078937Y-111508562D01*
X132223478Y-111568433D01*
X132196815Y-111590315D01*
X132117463Y-111687006D01*
X132058498Y-111797320D01*
X132023619Y-111912300D01*
X131955952Y-111912300D01*
X131917399Y-111908503D01*
X131911050Y-111909128D01*
X131904700Y-111908503D01*
X131866144Y-111912300D01*
X131866139Y-111912300D01*
X131825726Y-111916280D01*
X131750813Y-111923658D01*
X131602840Y-111968546D01*
X131466467Y-112041438D01*
X131346936Y-112139536D01*
X131322353Y-112169490D01*
X130802343Y-112689500D01*
X127361211Y-112689500D01*
X127342274Y-112670563D01*
X127172756Y-112557295D01*
X126984398Y-112479274D01*
X126784439Y-112439500D01*
X126580561Y-112439500D01*
X126380602Y-112479274D01*
X126192244Y-112557295D01*
X126022726Y-112670563D01*
X125878563Y-112814726D01*
X125765295Y-112984244D01*
X125687274Y-113172602D01*
X125647500Y-113372561D01*
X125647500Y-113576439D01*
X125687274Y-113776398D01*
X125765295Y-113964756D01*
X125878563Y-114134274D01*
X126022726Y-114278437D01*
X126192244Y-114391705D01*
X126380602Y-114469726D01*
X126580561Y-114509500D01*
X126784439Y-114509500D01*
X126984398Y-114469726D01*
X127172756Y-114391705D01*
X127342274Y-114278437D01*
X127361211Y-114259500D01*
X131088947Y-114259500D01*
X131127500Y-114263297D01*
X131166053Y-114259500D01*
X131166061Y-114259500D01*
X131281387Y-114248141D01*
X131429360Y-114203254D01*
X131565733Y-114130362D01*
X131685264Y-114032264D01*
X131709847Y-114002310D01*
X132009928Y-113702229D01*
X132009928Y-113841500D01*
X132019777Y-113941500D01*
X132009928Y-114041500D01*
X132009928Y-114341500D01*
X132019777Y-114441500D01*
X132009928Y-114541500D01*
X132009928Y-114841500D01*
X132022188Y-114965982D01*
X132058498Y-115085680D01*
X132115061Y-115191500D01*
X132058498Y-115297320D01*
X132022188Y-115417018D01*
X132019933Y-115439912D01*
X131925540Y-115468546D01*
X131789167Y-115541438D01*
X131669636Y-115639536D01*
X131645053Y-115669490D01*
X131424643Y-115889900D01*
X128029156Y-115889900D01*
X127990600Y-115886103D01*
X127952044Y-115889900D01*
X127952039Y-115889900D01*
X127911626Y-115893880D01*
X127836713Y-115901258D01*
X127727438Y-115934407D01*
X127688740Y-115946146D01*
X127552367Y-116019038D01*
X127432836Y-116117136D01*
X127408255Y-116147088D01*
X127026443Y-116528900D01*
X126999661Y-116528900D01*
X126799702Y-116568674D01*
X126611344Y-116646695D01*
X126441826Y-116759963D01*
X126297663Y-116904126D01*
X126184395Y-117073644D01*
X126106374Y-117262002D01*
X126066600Y-117461961D01*
X126066600Y-117665839D01*
X126106374Y-117865798D01*
X126184395Y-118054156D01*
X126297663Y-118223674D01*
X126441826Y-118367837D01*
X126611344Y-118481105D01*
X126799702Y-118559126D01*
X126999661Y-118598900D01*
X127203539Y-118598900D01*
X127403498Y-118559126D01*
X127591856Y-118481105D01*
X127761374Y-118367837D01*
X127905537Y-118223674D01*
X128018805Y-118054156D01*
X128096826Y-117865798D01*
X128136600Y-117665839D01*
X128136600Y-117639057D01*
X128309928Y-117465729D01*
X128309928Y-118991500D01*
X128322188Y-119115982D01*
X128358498Y-119235680D01*
X128417463Y-119345994D01*
X128496815Y-119442685D01*
X128593506Y-119522037D01*
X128703820Y-119581002D01*
X128823518Y-119617312D01*
X128948000Y-119629572D01*
X131148000Y-119629572D01*
X131272482Y-119617312D01*
X131392180Y-119581002D01*
X131502494Y-119522037D01*
X131599185Y-119442685D01*
X131678537Y-119345994D01*
X131737502Y-119235680D01*
X131773812Y-119115982D01*
X131786072Y-118991500D01*
X131786072Y-117460125D01*
X131788353Y-117459900D01*
X131788361Y-117459900D01*
X131903687Y-117448541D01*
X132051660Y-117403654D01*
X132188033Y-117330762D01*
X132307564Y-117232664D01*
X132332147Y-117202710D01*
X132552557Y-116982300D01*
X133514361Y-116982300D01*
X133542058Y-116979572D01*
X133948000Y-116979572D01*
X134072482Y-116967312D01*
X134192180Y-116931002D01*
X134302494Y-116872037D01*
X134399185Y-116792685D01*
X134478537Y-116695994D01*
X134537502Y-116585680D01*
X134573812Y-116465982D01*
X134574667Y-116457300D01*
X135118900Y-116457300D01*
X135118900Y-116544983D01*
X135151949Y-116711133D01*
X135193901Y-116812413D01*
X135193900Y-117275268D01*
X135151949Y-117376547D01*
X135118900Y-117542697D01*
X135118900Y-117712103D01*
X135151949Y-117878253D01*
X135216778Y-118034763D01*
X135310895Y-118175618D01*
X135430682Y-118295405D01*
X135571537Y-118389522D01*
X135728047Y-118454351D01*
X135894197Y-118487400D01*
X136063603Y-118487400D01*
X136229753Y-118454351D01*
X136386263Y-118389522D01*
X136527118Y-118295405D01*
X136646905Y-118175618D01*
X136741022Y-118034763D01*
X136805851Y-117878253D01*
X136838900Y-117712103D01*
X136838900Y-117542697D01*
X136805851Y-117376547D01*
X136763900Y-117275269D01*
X136763900Y-116812411D01*
X136805851Y-116711133D01*
X136838900Y-116544983D01*
X136838900Y-116457300D01*
X136972499Y-116457300D01*
X140355401Y-119840203D01*
X140379199Y-119869201D01*
X140494924Y-119964174D01*
X140626953Y-120034746D01*
X140770214Y-120078203D01*
X140881867Y-120089200D01*
X140881876Y-120089200D01*
X140919199Y-120092876D01*
X140956522Y-120089200D01*
X147231878Y-120089200D01*
X147269200Y-120092876D01*
X147306522Y-120089200D01*
X147306533Y-120089200D01*
X147418186Y-120078203D01*
X147561447Y-120034746D01*
X147693476Y-119964174D01*
X147809201Y-119869201D01*
X147833004Y-119840197D01*
X149202604Y-118470598D01*
X149231601Y-118446801D01*
X149326574Y-118331076D01*
X149397146Y-118199047D01*
X149440603Y-118055786D01*
X149451600Y-117944133D01*
X149451600Y-117944124D01*
X149455276Y-117906801D01*
X149451600Y-117869478D01*
X149451600Y-116323497D01*
X150003300Y-116323497D01*
X150003300Y-116492903D01*
X150036349Y-116659053D01*
X150078301Y-116760333D01*
X150078300Y-117208148D01*
X150036349Y-117309427D01*
X150003300Y-117475577D01*
X150003300Y-117644983D01*
X150036349Y-117811133D01*
X150101178Y-117967643D01*
X150195295Y-118108498D01*
X150315082Y-118228285D01*
X150455937Y-118322402D01*
X150612447Y-118387231D01*
X150778597Y-118420280D01*
X150948003Y-118420280D01*
X151114153Y-118387231D01*
X151270663Y-118322402D01*
X151411518Y-118228285D01*
X151531305Y-118108498D01*
X151625422Y-117967643D01*
X151690251Y-117811133D01*
X151723300Y-117644983D01*
X151723300Y-117475577D01*
X151690251Y-117309427D01*
X151648300Y-117208149D01*
X151648300Y-116760331D01*
X151690251Y-116659053D01*
X151723300Y-116492903D01*
X151723300Y-116323497D01*
X151708669Y-116249937D01*
X153135220Y-116249937D01*
X153135220Y-116419343D01*
X153168269Y-116585493D01*
X153225461Y-116723565D01*
X153225460Y-117208148D01*
X153183509Y-117309427D01*
X153150460Y-117475577D01*
X153150460Y-117644983D01*
X153183509Y-117811133D01*
X153248338Y-117967643D01*
X153342455Y-118108498D01*
X153462242Y-118228285D01*
X153603097Y-118322402D01*
X153759607Y-118387231D01*
X153925757Y-118420280D01*
X154095163Y-118420280D01*
X154261313Y-118387231D01*
X154417823Y-118322402D01*
X154558678Y-118228285D01*
X154678465Y-118108498D01*
X154772582Y-117967643D01*
X154837411Y-117811133D01*
X154870460Y-117644983D01*
X154870460Y-117475577D01*
X154837411Y-117309427D01*
X154795460Y-117208149D01*
X154795460Y-116649979D01*
X154822171Y-116585493D01*
X154855220Y-116419343D01*
X154855220Y-116249937D01*
X154822171Y-116083787D01*
X154757342Y-115927277D01*
X154663225Y-115786422D01*
X154543438Y-115666635D01*
X154402583Y-115572518D01*
X154246073Y-115507689D01*
X154079923Y-115474640D01*
X153910517Y-115474640D01*
X153744367Y-115507689D01*
X153587857Y-115572518D01*
X153447002Y-115666635D01*
X153327215Y-115786422D01*
X153233098Y-115927277D01*
X153168269Y-116083787D01*
X153135220Y-116249937D01*
X151708669Y-116249937D01*
X151690251Y-116157347D01*
X151625422Y-116000837D01*
X151531305Y-115859982D01*
X151411518Y-115740195D01*
X151270663Y-115646078D01*
X151114153Y-115581249D01*
X150948003Y-115548200D01*
X150778597Y-115548200D01*
X150612447Y-115581249D01*
X150455937Y-115646078D01*
X150315082Y-115740195D01*
X150195295Y-115859982D01*
X150101178Y-116000837D01*
X150036349Y-116157347D01*
X150003300Y-116323497D01*
X149451600Y-116323497D01*
X149451600Y-116285339D01*
X149453722Y-116282163D01*
X149518551Y-116125653D01*
X149551600Y-115959503D01*
X149551600Y-115790097D01*
X149518551Y-115623947D01*
X149453722Y-115467437D01*
X149446949Y-115457300D01*
X162785778Y-115457300D01*
X162823100Y-115460976D01*
X162860422Y-115457300D01*
X162860433Y-115457300D01*
X162972086Y-115446303D01*
X163115347Y-115402846D01*
X163247376Y-115332274D01*
X163363101Y-115237301D01*
X163386904Y-115208297D01*
X164595004Y-114000198D01*
X164606902Y-113990433D01*
X164617330Y-132969000D01*
X120548330Y-132969000D01*
X120542946Y-123168897D01*
X131768740Y-123168897D01*
X131768740Y-123338303D01*
X131801789Y-123504453D01*
X131843740Y-123605732D01*
X131843741Y-124168369D01*
X131832069Y-124196547D01*
X131799020Y-124362697D01*
X131799020Y-124532103D01*
X131832069Y-124698253D01*
X131896898Y-124854763D01*
X131991015Y-124995618D01*
X132110802Y-125115405D01*
X132251657Y-125209522D01*
X132408167Y-125274351D01*
X132574317Y-125307400D01*
X132743723Y-125307400D01*
X132909873Y-125274351D01*
X133066383Y-125209522D01*
X133207238Y-125115405D01*
X133327025Y-124995618D01*
X133421142Y-124854763D01*
X133485971Y-124698253D01*
X133519020Y-124532103D01*
X133519020Y-124362697D01*
X133513228Y-124333577D01*
X142416220Y-124333577D01*
X142416220Y-124502983D01*
X142449269Y-124669133D01*
X142514098Y-124825643D01*
X142608215Y-124966498D01*
X142728002Y-125086285D01*
X142868857Y-125180402D01*
X143025367Y-125245231D01*
X143191517Y-125278280D01*
X143360923Y-125278280D01*
X143527073Y-125245231D01*
X143683583Y-125180402D01*
X143824438Y-125086285D01*
X143944225Y-124966498D01*
X144038342Y-124825643D01*
X144103171Y-124669133D01*
X144136220Y-124502983D01*
X144136220Y-124333577D01*
X144103171Y-124167427D01*
X144061220Y-124066149D01*
X144061220Y-123879997D01*
X151946400Y-123879997D01*
X151946400Y-124049403D01*
X151979449Y-124215553D01*
X152044278Y-124372063D01*
X152138395Y-124512918D01*
X152258182Y-124632705D01*
X152399037Y-124726822D01*
X152555547Y-124791651D01*
X152721697Y-124824700D01*
X152891103Y-124824700D01*
X153057253Y-124791651D01*
X153213763Y-124726822D01*
X153354618Y-124632705D01*
X153455060Y-124532263D01*
X153455060Y-124562383D01*
X153488109Y-124728533D01*
X153552938Y-124885043D01*
X153647055Y-125025898D01*
X153766842Y-125145685D01*
X153907697Y-125239802D01*
X154064207Y-125304631D01*
X154230357Y-125337680D01*
X154399763Y-125337680D01*
X154565913Y-125304631D01*
X154722423Y-125239802D01*
X154863278Y-125145685D01*
X154983065Y-125025898D01*
X155077182Y-124885043D01*
X155142011Y-124728533D01*
X155175060Y-124562383D01*
X155175060Y-124392977D01*
X155142011Y-124226827D01*
X155100060Y-124125549D01*
X155100060Y-123632907D01*
X155140782Y-123571963D01*
X155205611Y-123415453D01*
X155238660Y-123249303D01*
X155238660Y-123079897D01*
X155205611Y-122913747D01*
X155140782Y-122757237D01*
X155046665Y-122616382D01*
X154926878Y-122496595D01*
X154786023Y-122402478D01*
X154629513Y-122337649D01*
X154463363Y-122304600D01*
X154293957Y-122304600D01*
X154127807Y-122337649D01*
X153971297Y-122402478D01*
X153830442Y-122496595D01*
X153710655Y-122616382D01*
X153616538Y-122757237D01*
X153551709Y-122913747D01*
X153518660Y-123079897D01*
X153518660Y-123249303D01*
X153530061Y-123306620D01*
X153530061Y-123499776D01*
X153474405Y-123416482D01*
X153354618Y-123296695D01*
X153213763Y-123202578D01*
X153057253Y-123137749D01*
X152891103Y-123104700D01*
X152721697Y-123104700D01*
X152555547Y-123137749D01*
X152399037Y-123202578D01*
X152258182Y-123296695D01*
X152138395Y-123416482D01*
X152044278Y-123557337D01*
X151979449Y-123713847D01*
X151946400Y-123879997D01*
X144061220Y-123879997D01*
X144061220Y-123670894D01*
X144103371Y-123569133D01*
X144136420Y-123402983D01*
X144136420Y-123233577D01*
X144103371Y-123067427D01*
X144038542Y-122910917D01*
X143944425Y-122770062D01*
X143824638Y-122650275D01*
X143683783Y-122556158D01*
X143527273Y-122491329D01*
X143361123Y-122458280D01*
X143191717Y-122458280D01*
X143025567Y-122491329D01*
X142869057Y-122556158D01*
X142728202Y-122650275D01*
X142608415Y-122770062D01*
X142514298Y-122910917D01*
X142449469Y-123067427D01*
X142416420Y-123233577D01*
X142416420Y-123402983D01*
X142449469Y-123569133D01*
X142491221Y-123669930D01*
X142491220Y-124066148D01*
X142449269Y-124167427D01*
X142416220Y-124333577D01*
X133513228Y-124333577D01*
X133485971Y-124196547D01*
X133421142Y-124040037D01*
X133413740Y-124028959D01*
X133413740Y-123605731D01*
X133455691Y-123504453D01*
X133488740Y-123338303D01*
X133488740Y-123168897D01*
X133455691Y-123002747D01*
X133390862Y-122846237D01*
X133296745Y-122705382D01*
X133176958Y-122585595D01*
X133036103Y-122491478D01*
X132879593Y-122426649D01*
X132713443Y-122393600D01*
X132544037Y-122393600D01*
X132377887Y-122426649D01*
X132221377Y-122491478D01*
X132080522Y-122585595D01*
X131960735Y-122705382D01*
X131866618Y-122846237D01*
X131801789Y-123002747D01*
X131768740Y-123168897D01*
X120542946Y-123168897D01*
X120531639Y-102589617D01*
X131605980Y-102589617D01*
X131605980Y-102759023D01*
X131639029Y-102925173D01*
X131703858Y-103081683D01*
X131737061Y-103131374D01*
X131737060Y-103541588D01*
X131695109Y-103642867D01*
X131662060Y-103809017D01*
X131662060Y-103978423D01*
X131695109Y-104144573D01*
X131759938Y-104301083D01*
X131854055Y-104441938D01*
X131973842Y-104561725D01*
X132114697Y-104655842D01*
X132271207Y-104720671D01*
X132437357Y-104753720D01*
X132606763Y-104753720D01*
X132772913Y-104720671D01*
X132929423Y-104655842D01*
X133070278Y-104561725D01*
X133190065Y-104441938D01*
X133284182Y-104301083D01*
X133349011Y-104144573D01*
X133382060Y-103978423D01*
X133382060Y-103809017D01*
X133349011Y-103642867D01*
X133307060Y-103541589D01*
X133307060Y-102854141D01*
X133325980Y-102759023D01*
X133325980Y-102589617D01*
X133292931Y-102423467D01*
X133228102Y-102266957D01*
X133133985Y-102126102D01*
X133014198Y-102006315D01*
X132873343Y-101912198D01*
X132716833Y-101847369D01*
X132550683Y-101814320D01*
X132381277Y-101814320D01*
X132215127Y-101847369D01*
X132058617Y-101912198D01*
X131917762Y-102006315D01*
X131797975Y-102126102D01*
X131703858Y-102266957D01*
X131639029Y-102423467D01*
X131605980Y-102589617D01*
X120531639Y-102589617D01*
X120527388Y-94852777D01*
X131570420Y-94852777D01*
X131570420Y-95022183D01*
X131603469Y-95188333D01*
X131668298Y-95344843D01*
X131680981Y-95363824D01*
X131680980Y-96200788D01*
X131639029Y-96302067D01*
X131605980Y-96468217D01*
X131605980Y-96637623D01*
X131639029Y-96803773D01*
X131703858Y-96960283D01*
X131797975Y-97101138D01*
X131917762Y-97220925D01*
X132058617Y-97315042D01*
X132215127Y-97379871D01*
X132381277Y-97412920D01*
X132550683Y-97412920D01*
X132716833Y-97379871D01*
X132873343Y-97315042D01*
X133014198Y-97220925D01*
X133133985Y-97101138D01*
X133228102Y-96960283D01*
X133292931Y-96803773D01*
X133325980Y-96637623D01*
X133325980Y-96468217D01*
X133292931Y-96302067D01*
X133250980Y-96200789D01*
X133250980Y-95203762D01*
X133257371Y-95188333D01*
X133290420Y-95022183D01*
X133290420Y-94852777D01*
X133257371Y-94686627D01*
X133192542Y-94530117D01*
X133098425Y-94389262D01*
X132978638Y-94269475D01*
X132837783Y-94175358D01*
X132681273Y-94110529D01*
X132515123Y-94077480D01*
X132345717Y-94077480D01*
X132179567Y-94110529D01*
X132023057Y-94175358D01*
X131882202Y-94269475D01*
X131762415Y-94389262D01*
X131668298Y-94530117D01*
X131603469Y-94686627D01*
X131570420Y-94852777D01*
X120527388Y-94852777D01*
X120507557Y-58761630D01*
X120564358Y-58750332D01*
X120834611Y-58638390D01*
X120896200Y-58597238D01*
X120896200Y-58743283D01*
X120962875Y-59078481D01*
X121093663Y-59394231D01*
X121283537Y-59678398D01*
X121525202Y-59920063D01*
X121809369Y-60109937D01*
X122125119Y-60240725D01*
X122460317Y-60307400D01*
X122802083Y-60307400D01*
X123137281Y-60240725D01*
X123453031Y-60109937D01*
X123737198Y-59920063D01*
X123978863Y-59678398D01*
X124168737Y-59394231D01*
X124299525Y-59078481D01*
X124366200Y-58743283D01*
X124366200Y-58401517D01*
X124299525Y-58066319D01*
X124168737Y-57750569D01*
X123978863Y-57466402D01*
X123863661Y-57351200D01*
X124414511Y-57351200D01*
X124430192Y-57510408D01*
G36*
X147929478Y-115467437D02*
G01*
X147864649Y-115623947D01*
X147831600Y-115790097D01*
X147831600Y-115959503D01*
X147864649Y-116125653D01*
X147929478Y-116282163D01*
X147931601Y-116285340D01*
X147931600Y-117591998D01*
X146954399Y-118569200D01*
X141234002Y-118569200D01*
X138952739Y-116287937D01*
X142408700Y-116287937D01*
X142408700Y-116457343D01*
X142441749Y-116623493D01*
X142483701Y-116724773D01*
X142483700Y-117208148D01*
X142441749Y-117309427D01*
X142408700Y-117475577D01*
X142408700Y-117644983D01*
X142441749Y-117811133D01*
X142506578Y-117967643D01*
X142600695Y-118108498D01*
X142720482Y-118228285D01*
X142861337Y-118322402D01*
X143017847Y-118387231D01*
X143183997Y-118420280D01*
X143353403Y-118420280D01*
X143519553Y-118387231D01*
X143676063Y-118322402D01*
X143816918Y-118228285D01*
X143936705Y-118108498D01*
X144030822Y-117967643D01*
X144095651Y-117811133D01*
X144128700Y-117644983D01*
X144128700Y-117475577D01*
X144095651Y-117309427D01*
X144053700Y-117208149D01*
X144053700Y-116724771D01*
X144095651Y-116623493D01*
X144128700Y-116457343D01*
X144128700Y-116287937D01*
X144095651Y-116121787D01*
X144030822Y-115965277D01*
X143936705Y-115824422D01*
X143816918Y-115704635D01*
X143676063Y-115610518D01*
X143519553Y-115545689D01*
X143353403Y-115512640D01*
X143183997Y-115512640D01*
X143017847Y-115545689D01*
X142861337Y-115610518D01*
X142720482Y-115704635D01*
X142600695Y-115824422D01*
X142506578Y-115965277D01*
X142441749Y-116121787D01*
X142408700Y-116287937D01*
X138952739Y-116287937D01*
X138122101Y-115457300D01*
X147936251Y-115457300D01*
X147929478Y-115467437D01*
G37*
X147929478Y-115467437D02*
X147864649Y-115623947D01*
X147831600Y-115790097D01*
X147831600Y-115959503D01*
X147864649Y-116125653D01*
X147929478Y-116282163D01*
X147931601Y-116285340D01*
X147931600Y-117591998D01*
X146954399Y-118569200D01*
X141234002Y-118569200D01*
X138952739Y-116287937D01*
X142408700Y-116287937D01*
X142408700Y-116457343D01*
X142441749Y-116623493D01*
X142483701Y-116724773D01*
X142483700Y-117208148D01*
X142441749Y-117309427D01*
X142408700Y-117475577D01*
X142408700Y-117644983D01*
X142441749Y-117811133D01*
X142506578Y-117967643D01*
X142600695Y-118108498D01*
X142720482Y-118228285D01*
X142861337Y-118322402D01*
X143017847Y-118387231D01*
X143183997Y-118420280D01*
X143353403Y-118420280D01*
X143519553Y-118387231D01*
X143676063Y-118322402D01*
X143816918Y-118228285D01*
X143936705Y-118108498D01*
X144030822Y-117967643D01*
X144095651Y-117811133D01*
X144128700Y-117644983D01*
X144128700Y-117475577D01*
X144095651Y-117309427D01*
X144053700Y-117208149D01*
X144053700Y-116724771D01*
X144095651Y-116623493D01*
X144128700Y-116457343D01*
X144128700Y-116287937D01*
X144095651Y-116121787D01*
X144030822Y-115965277D01*
X143936705Y-115824422D01*
X143816918Y-115704635D01*
X143676063Y-115610518D01*
X143519553Y-115545689D01*
X143353403Y-115512640D01*
X143183997Y-115512640D01*
X143017847Y-115545689D01*
X142861337Y-115610518D01*
X142720482Y-115704635D01*
X142600695Y-115824422D01*
X142506578Y-115965277D01*
X142441749Y-116121787D01*
X142408700Y-116287937D01*
X138952739Y-116287937D01*
X138122101Y-115457300D01*
X147936251Y-115457300D01*
X147929478Y-115467437D01*
G36*
X159717200Y-81848802D02*
G01*
X159717201Y-99225867D01*
X159713524Y-99263200D01*
X159728198Y-99412185D01*
X159768000Y-99543400D01*
X159768001Y-112105597D01*
X159436299Y-112437300D01*
X158588702Y-112437300D01*
X158600602Y-112425400D01*
X158629601Y-112401601D01*
X158724574Y-112285876D01*
X158795146Y-112153847D01*
X158838603Y-112010586D01*
X158849600Y-111898933D01*
X158849600Y-111898924D01*
X158853276Y-111861601D01*
X158849600Y-111824278D01*
X158849600Y-80981202D01*
X159717200Y-81848802D01*
G37*
X159717200Y-81848802D02*
X159717201Y-99225867D01*
X159713524Y-99263200D01*
X159728198Y-99412185D01*
X159768000Y-99543400D01*
X159768001Y-112105597D01*
X159436299Y-112437300D01*
X158588702Y-112437300D01*
X158600602Y-112425400D01*
X158629601Y-112401601D01*
X158724574Y-112285876D01*
X158795146Y-112153847D01*
X158838603Y-112010586D01*
X158849600Y-111898933D01*
X158849600Y-111898924D01*
X158853276Y-111861601D01*
X158849600Y-111824278D01*
X158849600Y-80981202D01*
X159717200Y-81848802D01*
G36*
X157329600Y-81036002D02*
G01*
X157329600Y-81246743D01*
X157303163Y-81229078D01*
X157146653Y-81164249D01*
X156980503Y-81131200D01*
X156811097Y-81131200D01*
X156644947Y-81164249D01*
X156488437Y-81229078D01*
X156347582Y-81323195D01*
X156227795Y-81442982D01*
X156133678Y-81583837D01*
X156068849Y-81740347D01*
X156035800Y-81906497D01*
X156035800Y-82075903D01*
X156068849Y-82242053D01*
X156133678Y-82398563D01*
X156135801Y-82401740D01*
X156135800Y-89677398D01*
X154269599Y-91543600D01*
X153140739Y-91543600D01*
X153137563Y-91541478D01*
X152981053Y-91476649D01*
X152814903Y-91443600D01*
X152645497Y-91443600D01*
X152479347Y-91476649D01*
X152322837Y-91541478D01*
X152181982Y-91635595D01*
X152062195Y-91755382D01*
X151968078Y-91896237D01*
X151903249Y-92052747D01*
X151870200Y-92218897D01*
X151870200Y-92388303D01*
X151903249Y-92554453D01*
X151968078Y-92710963D01*
X152062195Y-92851818D01*
X152181982Y-92971605D01*
X152322837Y-93065722D01*
X152479347Y-93130551D01*
X152645497Y-93163600D01*
X152814903Y-93163600D01*
X152981053Y-93130551D01*
X153137563Y-93065722D01*
X153140739Y-93063600D01*
X154547078Y-93063600D01*
X154584400Y-93067276D01*
X154621722Y-93063600D01*
X154621733Y-93063600D01*
X154733386Y-93052603D01*
X154876647Y-93009146D01*
X155008676Y-92938574D01*
X155124401Y-92843601D01*
X155148204Y-92814597D01*
X157329600Y-90633202D01*
X157329601Y-111437300D01*
X154498824Y-111437300D01*
X154599118Y-111370285D01*
X154718905Y-111250498D01*
X154813022Y-111109643D01*
X154877851Y-110953133D01*
X154910900Y-110786983D01*
X154910900Y-110617577D01*
X154877851Y-110451427D01*
X154835900Y-110350149D01*
X154835900Y-109823491D01*
X154877851Y-109722213D01*
X154910900Y-109556063D01*
X154910900Y-109386657D01*
X154877851Y-109220507D01*
X154813022Y-109063997D01*
X154718905Y-108923142D01*
X154599118Y-108803355D01*
X154458263Y-108709238D01*
X154301753Y-108644409D01*
X154135603Y-108611360D01*
X153966197Y-108611360D01*
X153800047Y-108644409D01*
X153643537Y-108709238D01*
X153502682Y-108803355D01*
X153382895Y-108923142D01*
X153288778Y-109063997D01*
X153223949Y-109220507D01*
X153190900Y-109386657D01*
X153190900Y-109556063D01*
X153223949Y-109722213D01*
X153265901Y-109823493D01*
X153265900Y-110350148D01*
X153223949Y-110451427D01*
X153190900Y-110617577D01*
X153190900Y-110786983D01*
X153223949Y-110953133D01*
X153288778Y-111109643D01*
X153382895Y-111250498D01*
X153502682Y-111370285D01*
X153602976Y-111437300D01*
X151311224Y-111437300D01*
X151411518Y-111370285D01*
X151531305Y-111250498D01*
X151625422Y-111109643D01*
X151690251Y-110953133D01*
X151723300Y-110786983D01*
X151723300Y-110617577D01*
X151690251Y-110451427D01*
X151625422Y-110294917D01*
X151531305Y-110154062D01*
X151411518Y-110034275D01*
X151270663Y-109940158D01*
X151114153Y-109875329D01*
X151110406Y-109874584D01*
X146860800Y-105624979D01*
X146860800Y-102378897D01*
X148441200Y-102378897D01*
X148441200Y-102548303D01*
X148474249Y-102714453D01*
X148539078Y-102870963D01*
X148541201Y-102874140D01*
X148541200Y-103729461D01*
X148539078Y-103732637D01*
X148474249Y-103889147D01*
X148441200Y-104055297D01*
X148441200Y-104224703D01*
X148474249Y-104390853D01*
X148539078Y-104547363D01*
X148633195Y-104688218D01*
X148752982Y-104808005D01*
X148893837Y-104902122D01*
X149050347Y-104966951D01*
X149216497Y-105000000D01*
X149385903Y-105000000D01*
X149552053Y-104966951D01*
X149708563Y-104902122D01*
X149849418Y-104808005D01*
X149969205Y-104688218D01*
X150063322Y-104547363D01*
X150128151Y-104390853D01*
X150161200Y-104224703D01*
X150161200Y-104055297D01*
X150128151Y-103889147D01*
X150063322Y-103732637D01*
X150061200Y-103729461D01*
X150061200Y-102874139D01*
X150063322Y-102870963D01*
X150128151Y-102714453D01*
X150161200Y-102548303D01*
X150161200Y-102503457D01*
X153165500Y-102503457D01*
X153165500Y-102672863D01*
X153198549Y-102839013D01*
X153240501Y-102940293D01*
X153240500Y-103510908D01*
X153198549Y-103612187D01*
X153165500Y-103778337D01*
X153165500Y-103947743D01*
X153198549Y-104113893D01*
X153263378Y-104270403D01*
X153357495Y-104411258D01*
X153477282Y-104531045D01*
X153618137Y-104625162D01*
X153774647Y-104689991D01*
X153940797Y-104723040D01*
X154110203Y-104723040D01*
X154276353Y-104689991D01*
X154432863Y-104625162D01*
X154573718Y-104531045D01*
X154693505Y-104411258D01*
X154787622Y-104270403D01*
X154852451Y-104113893D01*
X154885500Y-103947743D01*
X154885500Y-103778337D01*
X154852451Y-103612187D01*
X154810500Y-103510909D01*
X154810500Y-102940291D01*
X154852451Y-102839013D01*
X154885500Y-102672863D01*
X154885500Y-102503457D01*
X154852451Y-102337307D01*
X154787622Y-102180797D01*
X154693505Y-102039942D01*
X154573718Y-101920155D01*
X154432863Y-101826038D01*
X154276353Y-101761209D01*
X154110203Y-101728160D01*
X153940797Y-101728160D01*
X153774647Y-101761209D01*
X153618137Y-101826038D01*
X153477282Y-101920155D01*
X153357495Y-102039942D01*
X153263378Y-102180797D01*
X153198549Y-102337307D01*
X153165500Y-102503457D01*
X150161200Y-102503457D01*
X150161200Y-102378897D01*
X150128151Y-102212747D01*
X150063322Y-102056237D01*
X149969205Y-101915382D01*
X149849418Y-101795595D01*
X149708563Y-101701478D01*
X149552053Y-101636649D01*
X149385903Y-101603600D01*
X149216497Y-101603600D01*
X149050347Y-101636649D01*
X148893837Y-101701478D01*
X148752982Y-101795595D01*
X148633195Y-101915382D01*
X148539078Y-102056237D01*
X148474249Y-102212747D01*
X148441200Y-102378897D01*
X146860800Y-102378897D01*
X146860800Y-93839525D01*
X146864476Y-93802200D01*
X146860800Y-93764875D01*
X146860800Y-93764867D01*
X146849803Y-93653214D01*
X146806346Y-93509953D01*
X146735774Y-93377924D01*
X146701776Y-93336497D01*
X148441200Y-93336497D01*
X148441200Y-93505903D01*
X148474249Y-93672053D01*
X148539078Y-93828563D01*
X148541201Y-93831740D01*
X148541200Y-96312661D01*
X148539078Y-96315837D01*
X148474249Y-96472347D01*
X148441200Y-96638497D01*
X148441200Y-96807903D01*
X148474249Y-96974053D01*
X148539078Y-97130563D01*
X148633195Y-97271418D01*
X148752982Y-97391205D01*
X148893837Y-97485322D01*
X149050347Y-97550151D01*
X149216497Y-97583200D01*
X149385903Y-97583200D01*
X149552053Y-97550151D01*
X149708563Y-97485322D01*
X149849418Y-97391205D01*
X149969205Y-97271418D01*
X150063322Y-97130563D01*
X150128151Y-96974053D01*
X150161200Y-96807903D01*
X150161200Y-96638497D01*
X150128151Y-96472347D01*
X150063322Y-96315837D01*
X150061200Y-96312661D01*
X150061200Y-94888337D01*
X153150260Y-94888337D01*
X153150260Y-95057743D01*
X153183309Y-95223893D01*
X153238061Y-95356074D01*
X153238060Y-96086588D01*
X153196109Y-96187867D01*
X153163060Y-96354017D01*
X153163060Y-96523423D01*
X153196109Y-96689573D01*
X153260938Y-96846083D01*
X153355055Y-96986938D01*
X153474842Y-97106725D01*
X153615697Y-97200842D01*
X153772207Y-97265671D01*
X153938357Y-97298720D01*
X154107763Y-97298720D01*
X154273913Y-97265671D01*
X154430423Y-97200842D01*
X154571278Y-97106725D01*
X154691065Y-96986938D01*
X154785182Y-96846083D01*
X154850011Y-96689573D01*
X154883060Y-96523423D01*
X154883060Y-96354017D01*
X154850011Y-96187867D01*
X154808060Y-96086589D01*
X154808060Y-95294269D01*
X154837211Y-95223893D01*
X154870260Y-95057743D01*
X154870260Y-94888337D01*
X154837211Y-94722187D01*
X154772382Y-94565677D01*
X154678265Y-94424822D01*
X154558478Y-94305035D01*
X154417623Y-94210918D01*
X154261113Y-94146089D01*
X154094963Y-94113040D01*
X153925557Y-94113040D01*
X153759407Y-94146089D01*
X153602897Y-94210918D01*
X153462042Y-94305035D01*
X153342255Y-94424822D01*
X153248138Y-94565677D01*
X153183309Y-94722187D01*
X153150260Y-94888337D01*
X150061200Y-94888337D01*
X150061200Y-93831739D01*
X150063322Y-93828563D01*
X150128151Y-93672053D01*
X150161200Y-93505903D01*
X150161200Y-93336497D01*
X150128151Y-93170347D01*
X150063322Y-93013837D01*
X149969205Y-92872982D01*
X149849418Y-92753195D01*
X149708563Y-92659078D01*
X149552053Y-92594249D01*
X149385903Y-92561200D01*
X149216497Y-92561200D01*
X149050347Y-92594249D01*
X148893837Y-92659078D01*
X148752982Y-92753195D01*
X148633195Y-92872982D01*
X148539078Y-93013837D01*
X148474249Y-93170347D01*
X148441200Y-93336497D01*
X146701776Y-93336497D01*
X146640801Y-93262199D01*
X146611804Y-93238402D01*
X145827402Y-92454000D01*
X149784578Y-92454000D01*
X149821900Y-92457676D01*
X149859222Y-92454000D01*
X149859233Y-92454000D01*
X149970886Y-92443003D01*
X150114147Y-92399546D01*
X150246176Y-92328974D01*
X150361901Y-92234001D01*
X150385704Y-92204998D01*
X151212005Y-91378696D01*
X151215753Y-91377951D01*
X151372263Y-91313122D01*
X151513118Y-91219005D01*
X151632905Y-91099218D01*
X151727022Y-90958363D01*
X151791851Y-90801853D01*
X151824900Y-90635703D01*
X151824900Y-90466297D01*
X151791851Y-90300147D01*
X151727022Y-90143637D01*
X151632905Y-90002782D01*
X151513118Y-89882995D01*
X151372263Y-89788878D01*
X151215753Y-89724049D01*
X151049603Y-89691000D01*
X150880197Y-89691000D01*
X150714047Y-89724049D01*
X150557537Y-89788878D01*
X150416682Y-89882995D01*
X150296895Y-90002782D01*
X150202778Y-90143637D01*
X150137949Y-90300147D01*
X150137204Y-90303895D01*
X149507099Y-90934000D01*
X146802977Y-90934000D01*
X146826151Y-90878053D01*
X146826897Y-90874305D01*
X148085003Y-89616199D01*
X148114001Y-89592401D01*
X148208974Y-89476676D01*
X148279546Y-89344647D01*
X148323003Y-89201386D01*
X148334000Y-89089733D01*
X148337677Y-89052400D01*
X148334000Y-89015067D01*
X148334000Y-87311722D01*
X148337676Y-87274399D01*
X148334000Y-87237076D01*
X148334000Y-87237067D01*
X148323003Y-87125414D01*
X148279546Y-86982153D01*
X148222962Y-86876293D01*
X148208974Y-86850123D01*
X148137799Y-86763397D01*
X148114001Y-86734399D01*
X148085004Y-86710602D01*
X147440301Y-86065900D01*
X148145728Y-86065900D01*
X148145728Y-86205900D01*
X148157988Y-86330382D01*
X148194298Y-86450080D01*
X148253263Y-86560394D01*
X148332615Y-86657085D01*
X148429306Y-86736437D01*
X148539620Y-86795402D01*
X148659318Y-86831712D01*
X148783800Y-86843972D01*
X149886409Y-86843972D01*
X149779860Y-86876293D01*
X149617428Y-86963114D01*
X149475056Y-87079956D01*
X149358214Y-87222328D01*
X149271393Y-87384760D01*
X149217929Y-87561008D01*
X149199876Y-87744300D01*
X149217929Y-87927592D01*
X149271393Y-88103840D01*
X149358214Y-88266272D01*
X149475056Y-88408644D01*
X149617428Y-88525486D01*
X149779860Y-88612307D01*
X149956108Y-88665771D01*
X150093468Y-88679300D01*
X150855468Y-88679300D01*
X150901400Y-88683824D01*
X150947332Y-88679300D01*
X151084692Y-88665771D01*
X151260940Y-88612307D01*
X151423372Y-88525486D01*
X151514167Y-88450972D01*
X151526550Y-88450972D01*
X151693708Y-88434508D01*
X151854442Y-88385750D01*
X152002575Y-88306571D01*
X152132415Y-88200015D01*
X152238971Y-88070175D01*
X152318150Y-87922042D01*
X152366908Y-87761308D01*
X152383372Y-87594150D01*
X152383372Y-87081650D01*
X152366908Y-86914492D01*
X152318150Y-86753758D01*
X152238971Y-86605625D01*
X152132415Y-86475785D01*
X152092800Y-86443274D01*
X152092800Y-82379857D01*
X152715420Y-81757237D01*
X152783800Y-81763972D01*
X154783800Y-81763972D01*
X154908282Y-81751712D01*
X155027980Y-81715402D01*
X155138294Y-81656437D01*
X155234985Y-81577085D01*
X155314337Y-81480394D01*
X155373302Y-81370080D01*
X155409612Y-81250382D01*
X155421872Y-81125900D01*
X155421872Y-79325900D01*
X155409612Y-79201418D01*
X155373302Y-79081720D01*
X155370986Y-79077388D01*
X157329600Y-81036002D01*
G37*
X157329600Y-81036002D02*
X157329600Y-81246743D01*
X157303163Y-81229078D01*
X157146653Y-81164249D01*
X156980503Y-81131200D01*
X156811097Y-81131200D01*
X156644947Y-81164249D01*
X156488437Y-81229078D01*
X156347582Y-81323195D01*
X156227795Y-81442982D01*
X156133678Y-81583837D01*
X156068849Y-81740347D01*
X156035800Y-81906497D01*
X156035800Y-82075903D01*
X156068849Y-82242053D01*
X156133678Y-82398563D01*
X156135801Y-82401740D01*
X156135800Y-89677398D01*
X154269599Y-91543600D01*
X153140739Y-91543600D01*
X153137563Y-91541478D01*
X152981053Y-91476649D01*
X152814903Y-91443600D01*
X152645497Y-91443600D01*
X152479347Y-91476649D01*
X152322837Y-91541478D01*
X152181982Y-91635595D01*
X152062195Y-91755382D01*
X151968078Y-91896237D01*
X151903249Y-92052747D01*
X151870200Y-92218897D01*
X151870200Y-92388303D01*
X151903249Y-92554453D01*
X151968078Y-92710963D01*
X152062195Y-92851818D01*
X152181982Y-92971605D01*
X152322837Y-93065722D01*
X152479347Y-93130551D01*
X152645497Y-93163600D01*
X152814903Y-93163600D01*
X152981053Y-93130551D01*
X153137563Y-93065722D01*
X153140739Y-93063600D01*
X154547078Y-93063600D01*
X154584400Y-93067276D01*
X154621722Y-93063600D01*
X154621733Y-93063600D01*
X154733386Y-93052603D01*
X154876647Y-93009146D01*
X155008676Y-92938574D01*
X155124401Y-92843601D01*
X155148204Y-92814597D01*
X157329600Y-90633202D01*
X157329601Y-111437300D01*
X154498824Y-111437300D01*
X154599118Y-111370285D01*
X154718905Y-111250498D01*
X154813022Y-111109643D01*
X154877851Y-110953133D01*
X154910900Y-110786983D01*
X154910900Y-110617577D01*
X154877851Y-110451427D01*
X154835900Y-110350149D01*
X154835900Y-109823491D01*
X154877851Y-109722213D01*
X154910900Y-109556063D01*
X154910900Y-109386657D01*
X154877851Y-109220507D01*
X154813022Y-109063997D01*
X154718905Y-108923142D01*
X154599118Y-108803355D01*
X154458263Y-108709238D01*
X154301753Y-108644409D01*
X154135603Y-108611360D01*
X153966197Y-108611360D01*
X153800047Y-108644409D01*
X153643537Y-108709238D01*
X153502682Y-108803355D01*
X153382895Y-108923142D01*
X153288778Y-109063997D01*
X153223949Y-109220507D01*
X153190900Y-109386657D01*
X153190900Y-109556063D01*
X153223949Y-109722213D01*
X153265901Y-109823493D01*
X153265900Y-110350148D01*
X153223949Y-110451427D01*
X153190900Y-110617577D01*
X153190900Y-110786983D01*
X153223949Y-110953133D01*
X153288778Y-111109643D01*
X153382895Y-111250498D01*
X153502682Y-111370285D01*
X153602976Y-111437300D01*
X151311224Y-111437300D01*
X151411518Y-111370285D01*
X151531305Y-111250498D01*
X151625422Y-111109643D01*
X151690251Y-110953133D01*
X151723300Y-110786983D01*
X151723300Y-110617577D01*
X151690251Y-110451427D01*
X151625422Y-110294917D01*
X151531305Y-110154062D01*
X151411518Y-110034275D01*
X151270663Y-109940158D01*
X151114153Y-109875329D01*
X151110406Y-109874584D01*
X146860800Y-105624979D01*
X146860800Y-102378897D01*
X148441200Y-102378897D01*
X148441200Y-102548303D01*
X148474249Y-102714453D01*
X148539078Y-102870963D01*
X148541201Y-102874140D01*
X148541200Y-103729461D01*
X148539078Y-103732637D01*
X148474249Y-103889147D01*
X148441200Y-104055297D01*
X148441200Y-104224703D01*
X148474249Y-104390853D01*
X148539078Y-104547363D01*
X148633195Y-104688218D01*
X148752982Y-104808005D01*
X148893837Y-104902122D01*
X149050347Y-104966951D01*
X149216497Y-105000000D01*
X149385903Y-105000000D01*
X149552053Y-104966951D01*
X149708563Y-104902122D01*
X149849418Y-104808005D01*
X149969205Y-104688218D01*
X150063322Y-104547363D01*
X150128151Y-104390853D01*
X150161200Y-104224703D01*
X150161200Y-104055297D01*
X150128151Y-103889147D01*
X150063322Y-103732637D01*
X150061200Y-103729461D01*
X150061200Y-102874139D01*
X150063322Y-102870963D01*
X150128151Y-102714453D01*
X150161200Y-102548303D01*
X150161200Y-102503457D01*
X153165500Y-102503457D01*
X153165500Y-102672863D01*
X153198549Y-102839013D01*
X153240501Y-102940293D01*
X153240500Y-103510908D01*
X153198549Y-103612187D01*
X153165500Y-103778337D01*
X153165500Y-103947743D01*
X153198549Y-104113893D01*
X153263378Y-104270403D01*
X153357495Y-104411258D01*
X153477282Y-104531045D01*
X153618137Y-104625162D01*
X153774647Y-104689991D01*
X153940797Y-104723040D01*
X154110203Y-104723040D01*
X154276353Y-104689991D01*
X154432863Y-104625162D01*
X154573718Y-104531045D01*
X154693505Y-104411258D01*
X154787622Y-104270403D01*
X154852451Y-104113893D01*
X154885500Y-103947743D01*
X154885500Y-103778337D01*
X154852451Y-103612187D01*
X154810500Y-103510909D01*
X154810500Y-102940291D01*
X154852451Y-102839013D01*
X154885500Y-102672863D01*
X154885500Y-102503457D01*
X154852451Y-102337307D01*
X154787622Y-102180797D01*
X154693505Y-102039942D01*
X154573718Y-101920155D01*
X154432863Y-101826038D01*
X154276353Y-101761209D01*
X154110203Y-101728160D01*
X153940797Y-101728160D01*
X153774647Y-101761209D01*
X153618137Y-101826038D01*
X153477282Y-101920155D01*
X153357495Y-102039942D01*
X153263378Y-102180797D01*
X153198549Y-102337307D01*
X153165500Y-102503457D01*
X150161200Y-102503457D01*
X150161200Y-102378897D01*
X150128151Y-102212747D01*
X150063322Y-102056237D01*
X149969205Y-101915382D01*
X149849418Y-101795595D01*
X149708563Y-101701478D01*
X149552053Y-101636649D01*
X149385903Y-101603600D01*
X149216497Y-101603600D01*
X149050347Y-101636649D01*
X148893837Y-101701478D01*
X148752982Y-101795595D01*
X148633195Y-101915382D01*
X148539078Y-102056237D01*
X148474249Y-102212747D01*
X148441200Y-102378897D01*
X146860800Y-102378897D01*
X146860800Y-93839525D01*
X146864476Y-93802200D01*
X146860800Y-93764875D01*
X146860800Y-93764867D01*
X146849803Y-93653214D01*
X146806346Y-93509953D01*
X146735774Y-93377924D01*
X146701776Y-93336497D01*
X148441200Y-93336497D01*
X148441200Y-93505903D01*
X148474249Y-93672053D01*
X148539078Y-93828563D01*
X148541201Y-93831740D01*
X148541200Y-96312661D01*
X148539078Y-96315837D01*
X148474249Y-96472347D01*
X148441200Y-96638497D01*
X148441200Y-96807903D01*
X148474249Y-96974053D01*
X148539078Y-97130563D01*
X148633195Y-97271418D01*
X148752982Y-97391205D01*
X148893837Y-97485322D01*
X149050347Y-97550151D01*
X149216497Y-97583200D01*
X149385903Y-97583200D01*
X149552053Y-97550151D01*
X149708563Y-97485322D01*
X149849418Y-97391205D01*
X149969205Y-97271418D01*
X150063322Y-97130563D01*
X150128151Y-96974053D01*
X150161200Y-96807903D01*
X150161200Y-96638497D01*
X150128151Y-96472347D01*
X150063322Y-96315837D01*
X150061200Y-96312661D01*
X150061200Y-94888337D01*
X153150260Y-94888337D01*
X153150260Y-95057743D01*
X153183309Y-95223893D01*
X153238061Y-95356074D01*
X153238060Y-96086588D01*
X153196109Y-96187867D01*
X153163060Y-96354017D01*
X153163060Y-96523423D01*
X153196109Y-96689573D01*
X153260938Y-96846083D01*
X153355055Y-96986938D01*
X153474842Y-97106725D01*
X153615697Y-97200842D01*
X153772207Y-97265671D01*
X153938357Y-97298720D01*
X154107763Y-97298720D01*
X154273913Y-97265671D01*
X154430423Y-97200842D01*
X154571278Y-97106725D01*
X154691065Y-96986938D01*
X154785182Y-96846083D01*
X154850011Y-96689573D01*
X154883060Y-96523423D01*
X154883060Y-96354017D01*
X154850011Y-96187867D01*
X154808060Y-96086589D01*
X154808060Y-95294269D01*
X154837211Y-95223893D01*
X154870260Y-95057743D01*
X154870260Y-94888337D01*
X154837211Y-94722187D01*
X154772382Y-94565677D01*
X154678265Y-94424822D01*
X154558478Y-94305035D01*
X154417623Y-94210918D01*
X154261113Y-94146089D01*
X154094963Y-94113040D01*
X153925557Y-94113040D01*
X153759407Y-94146089D01*
X153602897Y-94210918D01*
X153462042Y-94305035D01*
X153342255Y-94424822D01*
X153248138Y-94565677D01*
X153183309Y-94722187D01*
X153150260Y-94888337D01*
X150061200Y-94888337D01*
X150061200Y-93831739D01*
X150063322Y-93828563D01*
X150128151Y-93672053D01*
X150161200Y-93505903D01*
X150161200Y-93336497D01*
X150128151Y-93170347D01*
X150063322Y-93013837D01*
X149969205Y-92872982D01*
X149849418Y-92753195D01*
X149708563Y-92659078D01*
X149552053Y-92594249D01*
X149385903Y-92561200D01*
X149216497Y-92561200D01*
X149050347Y-92594249D01*
X148893837Y-92659078D01*
X148752982Y-92753195D01*
X148633195Y-92872982D01*
X148539078Y-93013837D01*
X148474249Y-93170347D01*
X148441200Y-93336497D01*
X146701776Y-93336497D01*
X146640801Y-93262199D01*
X146611804Y-93238402D01*
X145827402Y-92454000D01*
X149784578Y-92454000D01*
X149821900Y-92457676D01*
X149859222Y-92454000D01*
X149859233Y-92454000D01*
X149970886Y-92443003D01*
X150114147Y-92399546D01*
X150246176Y-92328974D01*
X150361901Y-92234001D01*
X150385704Y-92204998D01*
X151212005Y-91378696D01*
X151215753Y-91377951D01*
X151372263Y-91313122D01*
X151513118Y-91219005D01*
X151632905Y-91099218D01*
X151727022Y-90958363D01*
X151791851Y-90801853D01*
X151824900Y-90635703D01*
X151824900Y-90466297D01*
X151791851Y-90300147D01*
X151727022Y-90143637D01*
X151632905Y-90002782D01*
X151513118Y-89882995D01*
X151372263Y-89788878D01*
X151215753Y-89724049D01*
X151049603Y-89691000D01*
X150880197Y-89691000D01*
X150714047Y-89724049D01*
X150557537Y-89788878D01*
X150416682Y-89882995D01*
X150296895Y-90002782D01*
X150202778Y-90143637D01*
X150137949Y-90300147D01*
X150137204Y-90303895D01*
X149507099Y-90934000D01*
X146802977Y-90934000D01*
X146826151Y-90878053D01*
X146826897Y-90874305D01*
X148085003Y-89616199D01*
X148114001Y-89592401D01*
X148208974Y-89476676D01*
X148279546Y-89344647D01*
X148323003Y-89201386D01*
X148334000Y-89089733D01*
X148337677Y-89052400D01*
X148334000Y-89015067D01*
X148334000Y-87311722D01*
X148337676Y-87274399D01*
X148334000Y-87237076D01*
X148334000Y-87237067D01*
X148323003Y-87125414D01*
X148279546Y-86982153D01*
X148222962Y-86876293D01*
X148208974Y-86850123D01*
X148137799Y-86763397D01*
X148114001Y-86734399D01*
X148085004Y-86710602D01*
X147440301Y-86065900D01*
X148145728Y-86065900D01*
X148145728Y-86205900D01*
X148157988Y-86330382D01*
X148194298Y-86450080D01*
X148253263Y-86560394D01*
X148332615Y-86657085D01*
X148429306Y-86736437D01*
X148539620Y-86795402D01*
X148659318Y-86831712D01*
X148783800Y-86843972D01*
X149886409Y-86843972D01*
X149779860Y-86876293D01*
X149617428Y-86963114D01*
X149475056Y-87079956D01*
X149358214Y-87222328D01*
X149271393Y-87384760D01*
X149217929Y-87561008D01*
X149199876Y-87744300D01*
X149217929Y-87927592D01*
X149271393Y-88103840D01*
X149358214Y-88266272D01*
X149475056Y-88408644D01*
X149617428Y-88525486D01*
X149779860Y-88612307D01*
X149956108Y-88665771D01*
X150093468Y-88679300D01*
X150855468Y-88679300D01*
X150901400Y-88683824D01*
X150947332Y-88679300D01*
X151084692Y-88665771D01*
X151260940Y-88612307D01*
X151423372Y-88525486D01*
X151514167Y-88450972D01*
X151526550Y-88450972D01*
X151693708Y-88434508D01*
X151854442Y-88385750D01*
X152002575Y-88306571D01*
X152132415Y-88200015D01*
X152238971Y-88070175D01*
X152318150Y-87922042D01*
X152366908Y-87761308D01*
X152383372Y-87594150D01*
X152383372Y-87081650D01*
X152366908Y-86914492D01*
X152318150Y-86753758D01*
X152238971Y-86605625D01*
X152132415Y-86475785D01*
X152092800Y-86443274D01*
X152092800Y-82379857D01*
X152715420Y-81757237D01*
X152783800Y-81763972D01*
X154783800Y-81763972D01*
X154908282Y-81751712D01*
X155027980Y-81715402D01*
X155138294Y-81656437D01*
X155234985Y-81577085D01*
X155314337Y-81480394D01*
X155373302Y-81370080D01*
X155409612Y-81250382D01*
X155421872Y-81125900D01*
X155421872Y-79325900D01*
X155409612Y-79201418D01*
X155373302Y-79081720D01*
X155370986Y-79077388D01*
X157329600Y-81036002D01*
G36*
X146814000Y-87589202D02*
G01*
X146814001Y-88737597D01*
X145752095Y-89799503D01*
X145748347Y-89800249D01*
X145591837Y-89865078D01*
X145450982Y-89959195D01*
X145331195Y-90078982D01*
X145237078Y-90219837D01*
X145172249Y-90376347D01*
X145159590Y-90439989D01*
X145072800Y-90353199D01*
X145072800Y-88776250D01*
X145142787Y-88645315D01*
X145186210Y-88502168D01*
X145200872Y-88353300D01*
X145200872Y-87241372D01*
X146312800Y-87241372D01*
X146452420Y-87227621D01*
X146814000Y-87589202D01*
G37*
X146814000Y-87589202D02*
X146814001Y-88737597D01*
X145752095Y-89799503D01*
X145748347Y-89800249D01*
X145591837Y-89865078D01*
X145450982Y-89959195D01*
X145331195Y-90078982D01*
X145237078Y-90219837D01*
X145172249Y-90376347D01*
X145159590Y-90439989D01*
X145072800Y-90353199D01*
X145072800Y-88776250D01*
X145142787Y-88645315D01*
X145186210Y-88502168D01*
X145200872Y-88353300D01*
X145200872Y-87241372D01*
X146312800Y-87241372D01*
X146452420Y-87227621D01*
X146814000Y-87589202D01*
G36*
X150027716Y-77282497D02*
G01*
X150051519Y-77311501D01*
X150167244Y-77406474D01*
X150299273Y-77477046D01*
X150442534Y-77520503D01*
X150554187Y-77531500D01*
X150554197Y-77531500D01*
X150591520Y-77535176D01*
X150628843Y-77531500D01*
X152472061Y-77531500D01*
X152475237Y-77533622D01*
X152631747Y-77598451D01*
X152797897Y-77631500D01*
X152967303Y-77631500D01*
X153133453Y-77598451D01*
X153289963Y-77533622D01*
X153430818Y-77439505D01*
X153550605Y-77319718D01*
X153575724Y-77282125D01*
X155032312Y-78738714D01*
X155027980Y-78736398D01*
X154908282Y-78700088D01*
X154783800Y-78687828D01*
X152783800Y-78687828D01*
X152659318Y-78700088D01*
X152539620Y-78736398D01*
X152429306Y-78795363D01*
X152332615Y-78874715D01*
X152253263Y-78971406D01*
X152194298Y-79081720D01*
X152157988Y-79201418D01*
X152145728Y-79325900D01*
X152145728Y-80106615D01*
X151460200Y-80792143D01*
X151421872Y-80753814D01*
X151421872Y-79325900D01*
X151409612Y-79201418D01*
X151373302Y-79081720D01*
X151314337Y-78971406D01*
X151234985Y-78874715D01*
X151138294Y-78795363D01*
X151027980Y-78736398D01*
X150908282Y-78700088D01*
X150783800Y-78687828D01*
X148783800Y-78687828D01*
X148659318Y-78700088D01*
X148539620Y-78736398D01*
X148429306Y-78795363D01*
X148332615Y-78874715D01*
X148328353Y-78879908D01*
X148273772Y-78835114D01*
X148111340Y-78748293D01*
X147935092Y-78694829D01*
X147797732Y-78681300D01*
X147781323Y-78681300D01*
X147520582Y-78420559D01*
X147390742Y-78314003D01*
X147242609Y-78234824D01*
X147081875Y-78186066D01*
X146914717Y-78169602D01*
X146747559Y-78186066D01*
X146586825Y-78234824D01*
X146438692Y-78314003D01*
X146308852Y-78420559D01*
X145946459Y-78782952D01*
X145839903Y-78912792D01*
X145760724Y-79060925D01*
X145711966Y-79221659D01*
X145695502Y-79388817D01*
X145711966Y-79555975D01*
X145760724Y-79716709D01*
X145815026Y-79818300D01*
X145289135Y-79818300D01*
X145243200Y-79813776D01*
X145059909Y-79831828D01*
X144901471Y-79879890D01*
X144883660Y-79885293D01*
X144867308Y-79894033D01*
X144770785Y-79923313D01*
X144638860Y-79993829D01*
X144523227Y-80088727D01*
X144428329Y-80204360D01*
X144357813Y-80336285D01*
X144325227Y-80443707D01*
X144325204Y-80443750D01*
X144271739Y-80619999D01*
X144253686Y-80803290D01*
X144271739Y-80986581D01*
X144325204Y-81162830D01*
X144340870Y-81192139D01*
X144314390Y-81279432D01*
X144299728Y-81428300D01*
X144299728Y-81678300D01*
X144314390Y-81827168D01*
X144352652Y-81953300D01*
X144314390Y-82079432D01*
X144299728Y-82228300D01*
X144299728Y-82234733D01*
X144178903Y-82210700D01*
X144009497Y-82210700D01*
X143843347Y-82243749D01*
X143686837Y-82308578D01*
X143545982Y-82402695D01*
X143426195Y-82522482D01*
X143332078Y-82663337D01*
X143267249Y-82819847D01*
X143234200Y-82985997D01*
X143234200Y-83018300D01*
X140617633Y-83018300D01*
X140571698Y-83013776D01*
X140388406Y-83031828D01*
X140212157Y-83085293D01*
X140160750Y-83112771D01*
X140049726Y-83172114D01*
X139907354Y-83288956D01*
X139878068Y-83324641D01*
X139012816Y-84189893D01*
X138952818Y-84129895D01*
X138811963Y-84035778D01*
X138725872Y-84000118D01*
X138725872Y-83828300D01*
X138711210Y-83679432D01*
X138672948Y-83553300D01*
X138711210Y-83427168D01*
X138725872Y-83278300D01*
X138725872Y-83028300D01*
X138711210Y-82879432D01*
X138672948Y-82753300D01*
X138711210Y-82627168D01*
X138725872Y-82478300D01*
X138725872Y-82228300D01*
X138711210Y-82079432D01*
X138672948Y-81953300D01*
X138711210Y-81827168D01*
X138725872Y-81678300D01*
X138725872Y-81428300D01*
X138711210Y-81279432D01*
X138672948Y-81153300D01*
X138711210Y-81027168D01*
X138725872Y-80878300D01*
X138725872Y-80766372D01*
X138837800Y-80766372D01*
X138986668Y-80751710D01*
X139112800Y-80713448D01*
X139238932Y-80751710D01*
X139387800Y-80766372D01*
X139637800Y-80766372D01*
X139786668Y-80751710D01*
X139912800Y-80713448D01*
X140038932Y-80751710D01*
X140187800Y-80766372D01*
X140437800Y-80766372D01*
X140586668Y-80751710D01*
X140712800Y-80713448D01*
X140838932Y-80751710D01*
X140987800Y-80766372D01*
X141237800Y-80766372D01*
X141386668Y-80751710D01*
X141512800Y-80713448D01*
X141638932Y-80751710D01*
X141787800Y-80766372D01*
X142037800Y-80766372D01*
X142186668Y-80751710D01*
X142312800Y-80713448D01*
X142438932Y-80751710D01*
X142587800Y-80766372D01*
X142837800Y-80766372D01*
X142986668Y-80751710D01*
X143112800Y-80713448D01*
X143238932Y-80751710D01*
X143387800Y-80766372D01*
X143637800Y-80766372D01*
X143786668Y-80751710D01*
X143929815Y-80708287D01*
X144061740Y-80637771D01*
X144177373Y-80542873D01*
X144272271Y-80427240D01*
X144342787Y-80295315D01*
X144386210Y-80152168D01*
X144400872Y-80003300D01*
X144400872Y-78753300D01*
X144386210Y-78604432D01*
X144342787Y-78461285D01*
X144272271Y-78329360D01*
X144177373Y-78213727D01*
X144061740Y-78118829D01*
X143929815Y-78048313D01*
X143786668Y-78004890D01*
X143637800Y-77990228D01*
X143387800Y-77990228D01*
X143238932Y-78004890D01*
X143112800Y-78043152D01*
X142986668Y-78004890D01*
X142837800Y-77990228D01*
X142781873Y-77990228D01*
X143657162Y-77114940D01*
X149860159Y-77114940D01*
X150027716Y-77282497D01*
G37*
X150027716Y-77282497D02*
X150051519Y-77311501D01*
X150167244Y-77406474D01*
X150299273Y-77477046D01*
X150442534Y-77520503D01*
X150554187Y-77531500D01*
X150554197Y-77531500D01*
X150591520Y-77535176D01*
X150628843Y-77531500D01*
X152472061Y-77531500D01*
X152475237Y-77533622D01*
X152631747Y-77598451D01*
X152797897Y-77631500D01*
X152967303Y-77631500D01*
X153133453Y-77598451D01*
X153289963Y-77533622D01*
X153430818Y-77439505D01*
X153550605Y-77319718D01*
X153575724Y-77282125D01*
X155032312Y-78738714D01*
X155027980Y-78736398D01*
X154908282Y-78700088D01*
X154783800Y-78687828D01*
X152783800Y-78687828D01*
X152659318Y-78700088D01*
X152539620Y-78736398D01*
X152429306Y-78795363D01*
X152332615Y-78874715D01*
X152253263Y-78971406D01*
X152194298Y-79081720D01*
X152157988Y-79201418D01*
X152145728Y-79325900D01*
X152145728Y-80106615D01*
X151460200Y-80792143D01*
X151421872Y-80753814D01*
X151421872Y-79325900D01*
X151409612Y-79201418D01*
X151373302Y-79081720D01*
X151314337Y-78971406D01*
X151234985Y-78874715D01*
X151138294Y-78795363D01*
X151027980Y-78736398D01*
X150908282Y-78700088D01*
X150783800Y-78687828D01*
X148783800Y-78687828D01*
X148659318Y-78700088D01*
X148539620Y-78736398D01*
X148429306Y-78795363D01*
X148332615Y-78874715D01*
X148328353Y-78879908D01*
X148273772Y-78835114D01*
X148111340Y-78748293D01*
X147935092Y-78694829D01*
X147797732Y-78681300D01*
X147781323Y-78681300D01*
X147520582Y-78420559D01*
X147390742Y-78314003D01*
X147242609Y-78234824D01*
X147081875Y-78186066D01*
X146914717Y-78169602D01*
X146747559Y-78186066D01*
X146586825Y-78234824D01*
X146438692Y-78314003D01*
X146308852Y-78420559D01*
X145946459Y-78782952D01*
X145839903Y-78912792D01*
X145760724Y-79060925D01*
X145711966Y-79221659D01*
X145695502Y-79388817D01*
X145711966Y-79555975D01*
X145760724Y-79716709D01*
X145815026Y-79818300D01*
X145289135Y-79818300D01*
X145243200Y-79813776D01*
X145059909Y-79831828D01*
X144901471Y-79879890D01*
X144883660Y-79885293D01*
X144867308Y-79894033D01*
X144770785Y-79923313D01*
X144638860Y-79993829D01*
X144523227Y-80088727D01*
X144428329Y-80204360D01*
X144357813Y-80336285D01*
X144325227Y-80443707D01*
X144325204Y-80443750D01*
X144271739Y-80619999D01*
X144253686Y-80803290D01*
X144271739Y-80986581D01*
X144325204Y-81162830D01*
X144340870Y-81192139D01*
X144314390Y-81279432D01*
X144299728Y-81428300D01*
X144299728Y-81678300D01*
X144314390Y-81827168D01*
X144352652Y-81953300D01*
X144314390Y-82079432D01*
X144299728Y-82228300D01*
X144299728Y-82234733D01*
X144178903Y-82210700D01*
X144009497Y-82210700D01*
X143843347Y-82243749D01*
X143686837Y-82308578D01*
X143545982Y-82402695D01*
X143426195Y-82522482D01*
X143332078Y-82663337D01*
X143267249Y-82819847D01*
X143234200Y-82985997D01*
X143234200Y-83018300D01*
X140617633Y-83018300D01*
X140571698Y-83013776D01*
X140388406Y-83031828D01*
X140212157Y-83085293D01*
X140160750Y-83112771D01*
X140049726Y-83172114D01*
X139907354Y-83288956D01*
X139878068Y-83324641D01*
X139012816Y-84189893D01*
X138952818Y-84129895D01*
X138811963Y-84035778D01*
X138725872Y-84000118D01*
X138725872Y-83828300D01*
X138711210Y-83679432D01*
X138672948Y-83553300D01*
X138711210Y-83427168D01*
X138725872Y-83278300D01*
X138725872Y-83028300D01*
X138711210Y-82879432D01*
X138672948Y-82753300D01*
X138711210Y-82627168D01*
X138725872Y-82478300D01*
X138725872Y-82228300D01*
X138711210Y-82079432D01*
X138672948Y-81953300D01*
X138711210Y-81827168D01*
X138725872Y-81678300D01*
X138725872Y-81428300D01*
X138711210Y-81279432D01*
X138672948Y-81153300D01*
X138711210Y-81027168D01*
X138725872Y-80878300D01*
X138725872Y-80766372D01*
X138837800Y-80766372D01*
X138986668Y-80751710D01*
X139112800Y-80713448D01*
X139238932Y-80751710D01*
X139387800Y-80766372D01*
X139637800Y-80766372D01*
X139786668Y-80751710D01*
X139912800Y-80713448D01*
X140038932Y-80751710D01*
X140187800Y-80766372D01*
X140437800Y-80766372D01*
X140586668Y-80751710D01*
X140712800Y-80713448D01*
X140838932Y-80751710D01*
X140987800Y-80766372D01*
X141237800Y-80766372D01*
X141386668Y-80751710D01*
X141512800Y-80713448D01*
X141638932Y-80751710D01*
X141787800Y-80766372D01*
X142037800Y-80766372D01*
X142186668Y-80751710D01*
X142312800Y-80713448D01*
X142438932Y-80751710D01*
X142587800Y-80766372D01*
X142837800Y-80766372D01*
X142986668Y-80751710D01*
X143112800Y-80713448D01*
X143238932Y-80751710D01*
X143387800Y-80766372D01*
X143637800Y-80766372D01*
X143786668Y-80751710D01*
X143929815Y-80708287D01*
X144061740Y-80637771D01*
X144177373Y-80542873D01*
X144272271Y-80427240D01*
X144342787Y-80295315D01*
X144386210Y-80152168D01*
X144400872Y-80003300D01*
X144400872Y-78753300D01*
X144386210Y-78604432D01*
X144342787Y-78461285D01*
X144272271Y-78329360D01*
X144177373Y-78213727D01*
X144061740Y-78118829D01*
X143929815Y-78048313D01*
X143786668Y-78004890D01*
X143637800Y-77990228D01*
X143387800Y-77990228D01*
X143238932Y-78004890D01*
X143112800Y-78043152D01*
X142986668Y-78004890D01*
X142837800Y-77990228D01*
X142781873Y-77990228D01*
X143657162Y-77114940D01*
X149860159Y-77114940D01*
X150027716Y-77282497D01*
G36*
X128755000Y-49194757D02*
G01*
X128755001Y-60736441D01*
X125760990Y-63730453D01*
X125731036Y-63755036D01*
X125632938Y-63874568D01*
X125560046Y-64010941D01*
X125515159Y-64158914D01*
X125503800Y-64274240D01*
X125503800Y-64274247D01*
X125500003Y-64312800D01*
X125503800Y-64351353D01*
X125503801Y-76466237D01*
X125500003Y-76504800D01*
X125515159Y-76658686D01*
X125560046Y-76806659D01*
X125591734Y-76865943D01*
X125632939Y-76943033D01*
X125645551Y-76958400D01*
X125706455Y-77032612D01*
X125706459Y-77032616D01*
X125731037Y-77062564D01*
X125760985Y-77087142D01*
X131599253Y-82925410D01*
X131623836Y-82955364D01*
X131743367Y-83053462D01*
X131854328Y-83112771D01*
X131879740Y-83126354D01*
X132018015Y-83168300D01*
X131573257Y-83168300D01*
X125448200Y-77043243D01*
X125448200Y-63723557D01*
X128442217Y-60729541D01*
X128472164Y-60704964D01*
X128570262Y-60585433D01*
X128643154Y-60449060D01*
X128643354Y-60448400D01*
X128688041Y-60301088D01*
X128693986Y-60240725D01*
X128699400Y-60185761D01*
X128699400Y-60185754D01*
X128703197Y-60147201D01*
X128699400Y-60108648D01*
X128699400Y-57899752D01*
X128703197Y-57861199D01*
X128699400Y-57822646D01*
X128699400Y-57822639D01*
X128688041Y-57707313D01*
X128682532Y-57689150D01*
X128643154Y-57559340D01*
X128637507Y-57548776D01*
X128570262Y-57422967D01*
X128520850Y-57362759D01*
X128496745Y-57333387D01*
X128496742Y-57333384D01*
X128472164Y-57303436D01*
X128442215Y-57278857D01*
X127760047Y-56596689D01*
X127735464Y-56566736D01*
X127615933Y-56468638D01*
X127479560Y-56395746D01*
X127331587Y-56350859D01*
X127216261Y-56339500D01*
X127216253Y-56339500D01*
X127177700Y-56335703D01*
X127139147Y-56339500D01*
X126421426Y-56339500D01*
X126388915Y-56299885D01*
X126259075Y-56193329D01*
X126110942Y-56114150D01*
X125950208Y-56065392D01*
X125783050Y-56048928D01*
X125530734Y-56048928D01*
X125417776Y-55956226D01*
X125285747Y-55885654D01*
X125142486Y-55842197D01*
X125030833Y-55831200D01*
X125030822Y-55831200D01*
X124993500Y-55827524D01*
X124956178Y-55831200D01*
X120686122Y-55831200D01*
X120648799Y-55827524D01*
X120611476Y-55831200D01*
X120611467Y-55831200D01*
X120505953Y-55841592D01*
X120502148Y-48917316D01*
X120665958Y-48884732D01*
X120936211Y-48772790D01*
X120997800Y-48731638D01*
X120997800Y-48877683D01*
X121064475Y-49212881D01*
X121195263Y-49528631D01*
X121385137Y-49812798D01*
X121626802Y-50054463D01*
X121703419Y-50105657D01*
X121525202Y-50224737D01*
X121283537Y-50466402D01*
X121093663Y-50750569D01*
X120962875Y-51066319D01*
X120896200Y-51401517D01*
X120896200Y-51743283D01*
X120962875Y-52078481D01*
X121093663Y-52394231D01*
X121283537Y-52678398D01*
X121525202Y-52920063D01*
X121809369Y-53109937D01*
X122125119Y-53240725D01*
X122460317Y-53307400D01*
X122802083Y-53307400D01*
X123137281Y-53240725D01*
X123453031Y-53109937D01*
X123737198Y-52920063D01*
X123978863Y-52678398D01*
X124168737Y-52394231D01*
X124299525Y-52078481D01*
X124366200Y-51743283D01*
X124366200Y-51401517D01*
X124299525Y-51066319D01*
X124168737Y-50750569D01*
X123978863Y-50466402D01*
X123737198Y-50224737D01*
X123660581Y-50173543D01*
X123838798Y-50054463D01*
X124080463Y-49812798D01*
X124235330Y-49581024D01*
X124256678Y-49632563D01*
X124350795Y-49773418D01*
X124470582Y-49893205D01*
X124611437Y-49987322D01*
X124767947Y-50052151D01*
X124934097Y-50085200D01*
X125103503Y-50085200D01*
X125269653Y-50052151D01*
X125426163Y-49987322D01*
X125567018Y-49893205D01*
X125686805Y-49773418D01*
X125780922Y-49632563D01*
X125822874Y-49531283D01*
X126054610Y-49299547D01*
X126084564Y-49274964D01*
X126181958Y-49156291D01*
X126259075Y-49115071D01*
X126388915Y-49008515D01*
X126495471Y-48878675D01*
X126574650Y-48730542D01*
X126623408Y-48569808D01*
X126639872Y-48402650D01*
X126639872Y-47965150D01*
X126623408Y-47797992D01*
X126574650Y-47637258D01*
X126495471Y-47489125D01*
X126419374Y-47396400D01*
X126421426Y-47393900D01*
X126954143Y-47393900D01*
X128755000Y-49194757D01*
G37*
X128755000Y-49194757D02*
X128755001Y-60736441D01*
X125760990Y-63730453D01*
X125731036Y-63755036D01*
X125632938Y-63874568D01*
X125560046Y-64010941D01*
X125515159Y-64158914D01*
X125503800Y-64274240D01*
X125503800Y-64274247D01*
X125500003Y-64312800D01*
X125503800Y-64351353D01*
X125503801Y-76466237D01*
X125500003Y-76504800D01*
X125515159Y-76658686D01*
X125560046Y-76806659D01*
X125591734Y-76865943D01*
X125632939Y-76943033D01*
X125645551Y-76958400D01*
X125706455Y-77032612D01*
X125706459Y-77032616D01*
X125731037Y-77062564D01*
X125760985Y-77087142D01*
X131599253Y-82925410D01*
X131623836Y-82955364D01*
X131743367Y-83053462D01*
X131854328Y-83112771D01*
X131879740Y-83126354D01*
X132018015Y-83168300D01*
X131573257Y-83168300D01*
X125448200Y-77043243D01*
X125448200Y-63723557D01*
X128442217Y-60729541D01*
X128472164Y-60704964D01*
X128570262Y-60585433D01*
X128643154Y-60449060D01*
X128643354Y-60448400D01*
X128688041Y-60301088D01*
X128693986Y-60240725D01*
X128699400Y-60185761D01*
X128699400Y-60185754D01*
X128703197Y-60147201D01*
X128699400Y-60108648D01*
X128699400Y-57899752D01*
X128703197Y-57861199D01*
X128699400Y-57822646D01*
X128699400Y-57822639D01*
X128688041Y-57707313D01*
X128682532Y-57689150D01*
X128643154Y-57559340D01*
X128637507Y-57548776D01*
X128570262Y-57422967D01*
X128520850Y-57362759D01*
X128496745Y-57333387D01*
X128496742Y-57333384D01*
X128472164Y-57303436D01*
X128442215Y-57278857D01*
X127760047Y-56596689D01*
X127735464Y-56566736D01*
X127615933Y-56468638D01*
X127479560Y-56395746D01*
X127331587Y-56350859D01*
X127216261Y-56339500D01*
X127216253Y-56339500D01*
X127177700Y-56335703D01*
X127139147Y-56339500D01*
X126421426Y-56339500D01*
X126388915Y-56299885D01*
X126259075Y-56193329D01*
X126110942Y-56114150D01*
X125950208Y-56065392D01*
X125783050Y-56048928D01*
X125530734Y-56048928D01*
X125417776Y-55956226D01*
X125285747Y-55885654D01*
X125142486Y-55842197D01*
X125030833Y-55831200D01*
X125030822Y-55831200D01*
X124993500Y-55827524D01*
X124956178Y-55831200D01*
X120686122Y-55831200D01*
X120648799Y-55827524D01*
X120611476Y-55831200D01*
X120611467Y-55831200D01*
X120505953Y-55841592D01*
X120502148Y-48917316D01*
X120665958Y-48884732D01*
X120936211Y-48772790D01*
X120997800Y-48731638D01*
X120997800Y-48877683D01*
X121064475Y-49212881D01*
X121195263Y-49528631D01*
X121385137Y-49812798D01*
X121626802Y-50054463D01*
X121703419Y-50105657D01*
X121525202Y-50224737D01*
X121283537Y-50466402D01*
X121093663Y-50750569D01*
X120962875Y-51066319D01*
X120896200Y-51401517D01*
X120896200Y-51743283D01*
X120962875Y-52078481D01*
X121093663Y-52394231D01*
X121283537Y-52678398D01*
X121525202Y-52920063D01*
X121809369Y-53109937D01*
X122125119Y-53240725D01*
X122460317Y-53307400D01*
X122802083Y-53307400D01*
X123137281Y-53240725D01*
X123453031Y-53109937D01*
X123737198Y-52920063D01*
X123978863Y-52678398D01*
X124168737Y-52394231D01*
X124299525Y-52078481D01*
X124366200Y-51743283D01*
X124366200Y-51401517D01*
X124299525Y-51066319D01*
X124168737Y-50750569D01*
X123978863Y-50466402D01*
X123737198Y-50224737D01*
X123660581Y-50173543D01*
X123838798Y-50054463D01*
X124080463Y-49812798D01*
X124235330Y-49581024D01*
X124256678Y-49632563D01*
X124350795Y-49773418D01*
X124470582Y-49893205D01*
X124611437Y-49987322D01*
X124767947Y-50052151D01*
X124934097Y-50085200D01*
X125103503Y-50085200D01*
X125269653Y-50052151D01*
X125426163Y-49987322D01*
X125567018Y-49893205D01*
X125686805Y-49773418D01*
X125780922Y-49632563D01*
X125822874Y-49531283D01*
X126054610Y-49299547D01*
X126084564Y-49274964D01*
X126181958Y-49156291D01*
X126259075Y-49115071D01*
X126388915Y-49008515D01*
X126495471Y-48878675D01*
X126574650Y-48730542D01*
X126623408Y-48569808D01*
X126639872Y-48402650D01*
X126639872Y-47965150D01*
X126623408Y-47797992D01*
X126574650Y-47637258D01*
X126495471Y-47489125D01*
X126419374Y-47396400D01*
X126421426Y-47393900D01*
X126954143Y-47393900D01*
X128755000Y-49194757D01*
G36*
X121195263Y-40884969D02*
G01*
X121064475Y-41200719D01*
X120997800Y-41535917D01*
X120997800Y-41877683D01*
X121064475Y-42212881D01*
X121195263Y-42528631D01*
X121385137Y-42812798D01*
X121626802Y-43054463D01*
X121910969Y-43244337D01*
X122226719Y-43375125D01*
X122561917Y-43441800D01*
X122903683Y-43441800D01*
X123238881Y-43375125D01*
X123554631Y-43244337D01*
X123838798Y-43054463D01*
X124080463Y-42812798D01*
X124147813Y-42712000D01*
X135850728Y-42712000D01*
X135850728Y-44912000D01*
X135862988Y-45036482D01*
X135899298Y-45156180D01*
X135958263Y-45266494D01*
X136037615Y-45363185D01*
X136134306Y-45442537D01*
X136244620Y-45501502D01*
X136364318Y-45537812D01*
X136488800Y-45550072D01*
X138288800Y-45550072D01*
X138413282Y-45537812D01*
X138532980Y-45501502D01*
X138643294Y-45442537D01*
X138739985Y-45363185D01*
X138819337Y-45266494D01*
X138878302Y-45156180D01*
X138914612Y-45036482D01*
X138926872Y-44912000D01*
X138926872Y-42712000D01*
X150150728Y-42712000D01*
X150150728Y-44912000D01*
X150162988Y-45036482D01*
X150199298Y-45156180D01*
X150258263Y-45266494D01*
X150337615Y-45363185D01*
X150434306Y-45442537D01*
X150544620Y-45501502D01*
X150664318Y-45537812D01*
X150788800Y-45550072D01*
X152588800Y-45550072D01*
X152713282Y-45537812D01*
X152832980Y-45501502D01*
X152943294Y-45442537D01*
X153039985Y-45363185D01*
X153119337Y-45266494D01*
X153178302Y-45156180D01*
X153214612Y-45036482D01*
X153226872Y-44912000D01*
X153226872Y-42712000D01*
X153214612Y-42587518D01*
X153178302Y-42467820D01*
X153119337Y-42357506D01*
X153039985Y-42260815D01*
X152943294Y-42181463D01*
X152832980Y-42122498D01*
X152713282Y-42086188D01*
X152588800Y-42073928D01*
X150788800Y-42073928D01*
X150664318Y-42086188D01*
X150544620Y-42122498D01*
X150434306Y-42181463D01*
X150337615Y-42260815D01*
X150258263Y-42357506D01*
X150199298Y-42467820D01*
X150162988Y-42587518D01*
X150150728Y-42712000D01*
X138926872Y-42712000D01*
X138914612Y-42587518D01*
X138878302Y-42467820D01*
X138819337Y-42357506D01*
X138739985Y-42260815D01*
X138643294Y-42181463D01*
X138532980Y-42122498D01*
X138413282Y-42086188D01*
X138288800Y-42073928D01*
X136488800Y-42073928D01*
X136364318Y-42086188D01*
X136244620Y-42122498D01*
X136134306Y-42181463D01*
X136037615Y-42260815D01*
X135958263Y-42357506D01*
X135899298Y-42467820D01*
X135862988Y-42587518D01*
X135850728Y-42712000D01*
X124147813Y-42712000D01*
X124270337Y-42528631D01*
X124401125Y-42212881D01*
X124467800Y-41877683D01*
X124467800Y-41535917D01*
X124401125Y-41200719D01*
X124270337Y-40884969D01*
X124191513Y-40767000D01*
X157289476Y-40767000D01*
X157262098Y-40818220D01*
X157225788Y-40937918D01*
X157213528Y-41062400D01*
X157213528Y-43062400D01*
X157225788Y-43186882D01*
X157262098Y-43306580D01*
X157321063Y-43416894D01*
X157400415Y-43513585D01*
X157497106Y-43592937D01*
X157607420Y-43651902D01*
X157642687Y-43662600D01*
X157607420Y-43673298D01*
X157497106Y-43732263D01*
X157400415Y-43811615D01*
X157321063Y-43908306D01*
X157262098Y-44018620D01*
X157225788Y-44138318D01*
X157213528Y-44262800D01*
X157213528Y-46262800D01*
X157225788Y-46387282D01*
X157262098Y-46506980D01*
X157321063Y-46617294D01*
X157400415Y-46713985D01*
X157497106Y-46793337D01*
X157607420Y-46852302D01*
X157727118Y-46888612D01*
X157851600Y-46900872D01*
X159851600Y-46900872D01*
X159976082Y-46888612D01*
X160095780Y-46852302D01*
X160206094Y-46793337D01*
X160302785Y-46713985D01*
X160382137Y-46617294D01*
X160441102Y-46506980D01*
X160477412Y-46387282D01*
X160489672Y-46262800D01*
X160489672Y-46259930D01*
X160680061Y-46297800D01*
X160883939Y-46297800D01*
X161083898Y-46258026D01*
X161272256Y-46180005D01*
X161441774Y-46066737D01*
X161460711Y-46047800D01*
X161610748Y-46047800D01*
X161649301Y-46051597D01*
X161687854Y-46047800D01*
X161687862Y-46047800D01*
X161803188Y-46036441D01*
X161951161Y-45991554D01*
X162087534Y-45918662D01*
X162207065Y-45820564D01*
X162231649Y-45790608D01*
X162249187Y-45773071D01*
X162319142Y-45751850D01*
X162467275Y-45672671D01*
X162560000Y-45596574D01*
X162562500Y-45598626D01*
X162562501Y-46418728D01*
X161458400Y-46418728D01*
X161333918Y-46430988D01*
X161214220Y-46467298D01*
X161103906Y-46526263D01*
X161007215Y-46605615D01*
X160927863Y-46702306D01*
X160868898Y-46812620D01*
X160832588Y-46932318D01*
X160820328Y-47056800D01*
X160820328Y-49056800D01*
X160832588Y-49181282D01*
X160868898Y-49300980D01*
X160927863Y-49411294D01*
X161007215Y-49507985D01*
X161103906Y-49587337D01*
X161214220Y-49646302D01*
X161333918Y-49682612D01*
X161458400Y-49694872D01*
X163458400Y-49694872D01*
X163582882Y-49682612D01*
X163702580Y-49646302D01*
X163812894Y-49587337D01*
X163909585Y-49507985D01*
X163988937Y-49411294D01*
X164047902Y-49300980D01*
X164084212Y-49181282D01*
X164096472Y-49056800D01*
X164096472Y-47402910D01*
X164121141Y-47321587D01*
X164132500Y-47206261D01*
X164132500Y-47206254D01*
X164136297Y-47167701D01*
X164132500Y-47129148D01*
X164132500Y-45598626D01*
X164172115Y-45566115D01*
X164278671Y-45436275D01*
X164357850Y-45288142D01*
X164406608Y-45127408D01*
X164423072Y-44960250D01*
X164423072Y-44447750D01*
X164406608Y-44280592D01*
X164357850Y-44119858D01*
X164297689Y-44007305D01*
X164368026Y-43837498D01*
X164407800Y-43637539D01*
X164407800Y-43433661D01*
X164368026Y-43233702D01*
X164290005Y-43045344D01*
X164248725Y-42983564D01*
X164278671Y-42947075D01*
X164357850Y-42798942D01*
X164406608Y-42638208D01*
X164423072Y-42471050D01*
X164423072Y-41958550D01*
X164406608Y-41791392D01*
X164357850Y-41630658D01*
X164278671Y-41482525D01*
X164172115Y-41352685D01*
X164042275Y-41246129D01*
X163894142Y-41166950D01*
X163733408Y-41118192D01*
X163566250Y-41101728D01*
X163128750Y-41101728D01*
X162961592Y-41118192D01*
X162800858Y-41166950D01*
X162652725Y-41246129D01*
X162560000Y-41322226D01*
X162467275Y-41246129D01*
X162319142Y-41166950D01*
X162158408Y-41118192D01*
X161991250Y-41101728D01*
X161553750Y-41101728D01*
X161386592Y-41118192D01*
X161341609Y-41131838D01*
X161185498Y-41067174D01*
X160985539Y-41027400D01*
X160781661Y-41027400D01*
X160581702Y-41067174D01*
X160489672Y-41105294D01*
X160489672Y-41062400D01*
X160477412Y-40937918D01*
X160441102Y-40818220D01*
X160413724Y-40767000D01*
X164566670Y-40767000D01*
X164588218Y-79985516D01*
X161547033Y-76944331D01*
X161642453Y-76925351D01*
X161798963Y-76860522D01*
X161939818Y-76766405D01*
X162059605Y-76646618D01*
X162153722Y-76505763D01*
X162218551Y-76349253D01*
X162251600Y-76183103D01*
X162251600Y-76013697D01*
X162218551Y-75847547D01*
X162153722Y-75691037D01*
X162059605Y-75550182D01*
X161939818Y-75430395D01*
X161798963Y-75336278D01*
X161642453Y-75271449D01*
X161638706Y-75270704D01*
X157943452Y-71575451D01*
X157902975Y-71499724D01*
X157831800Y-71412998D01*
X157808002Y-71384000D01*
X157779005Y-71360203D01*
X156481704Y-70062903D01*
X156457901Y-70033899D01*
X156342176Y-69938926D01*
X156293736Y-69913034D01*
X151280400Y-64899699D01*
X151280400Y-52318218D01*
X151382515Y-52234415D01*
X151489071Y-52104575D01*
X151568250Y-51956442D01*
X151617008Y-51795708D01*
X151633472Y-51628550D01*
X151633472Y-51191050D01*
X151617008Y-51023892D01*
X151568250Y-50863158D01*
X151489071Y-50715025D01*
X151412974Y-50622300D01*
X151489071Y-50529575D01*
X151568250Y-50381442D01*
X151617008Y-50220708D01*
X151633472Y-50053550D01*
X151633472Y-49616050D01*
X151617008Y-49448892D01*
X151568250Y-49288158D01*
X151489071Y-49140025D01*
X151382515Y-49010185D01*
X151252675Y-48903629D01*
X151104542Y-48824450D01*
X150943808Y-48775692D01*
X150776650Y-48759228D01*
X150418030Y-48759228D01*
X150048800Y-48389999D01*
X150048800Y-47888607D01*
X150064612Y-47836482D01*
X150076872Y-47712000D01*
X150076872Y-46412000D01*
X150064612Y-46287518D01*
X150028302Y-46167820D01*
X149969337Y-46057506D01*
X149889985Y-45960815D01*
X149793294Y-45881463D01*
X149682980Y-45822498D01*
X149563282Y-45786188D01*
X149438800Y-45773928D01*
X149138800Y-45773928D01*
X149038800Y-45783777D01*
X148938800Y-45773928D01*
X148638800Y-45773928D01*
X148538800Y-45783777D01*
X148438800Y-45773928D01*
X148138800Y-45773928D01*
X148038800Y-45783777D01*
X147938800Y-45773928D01*
X147638800Y-45773928D01*
X147538800Y-45783777D01*
X147438800Y-45773928D01*
X147138800Y-45773928D01*
X147038800Y-45783777D01*
X146938800Y-45773928D01*
X146638800Y-45773928D01*
X146514318Y-45786188D01*
X146394620Y-45822498D01*
X146284306Y-45881463D01*
X146187615Y-45960815D01*
X146108263Y-46057506D01*
X146049298Y-46167820D01*
X146012988Y-46287518D01*
X146000728Y-46412000D01*
X146000728Y-47712000D01*
X146012988Y-47836482D01*
X146028800Y-47888609D01*
X146028801Y-48476397D01*
X144573803Y-49931396D01*
X144544799Y-49955199D01*
X144496545Y-50013997D01*
X144449826Y-50070924D01*
X144379255Y-50202953D01*
X144379254Y-50202954D01*
X144335797Y-50346215D01*
X144324800Y-50457868D01*
X144324800Y-50457878D01*
X144321124Y-50495200D01*
X144324800Y-50532522D01*
X144324801Y-71171567D01*
X144321124Y-71208900D01*
X144324801Y-71246233D01*
X144335798Y-71357886D01*
X144348481Y-71399698D01*
X144379254Y-71501146D01*
X144449826Y-71633176D01*
X144521001Y-71719902D01*
X144544800Y-71748901D01*
X144573798Y-71772699D01*
X145755704Y-72954606D01*
X145756449Y-72958353D01*
X145821278Y-73114863D01*
X145915395Y-73255718D01*
X146035182Y-73375505D01*
X146176037Y-73469622D01*
X146332547Y-73534451D01*
X146498697Y-73567500D01*
X146668103Y-73567500D01*
X146834253Y-73534451D01*
X146990763Y-73469622D01*
X147131618Y-73375505D01*
X147162111Y-73345012D01*
X147391200Y-73574102D01*
X147414999Y-73603101D01*
X147443997Y-73626899D01*
X147530723Y-73698074D01*
X147622341Y-73747045D01*
X147662753Y-73768646D01*
X147806014Y-73812103D01*
X147917667Y-73823100D01*
X147917676Y-73823100D01*
X147954999Y-73826776D01*
X147992322Y-73823100D01*
X154790299Y-73823100D01*
X155097973Y-74130774D01*
X155072080Y-74128224D01*
X155034758Y-74131900D01*
X148581602Y-74131900D01*
X148544279Y-74128224D01*
X148506957Y-74131900D01*
X148506947Y-74131900D01*
X148455370Y-74136980D01*
X143753682Y-74136980D01*
X142048800Y-72432099D01*
X142048800Y-47888607D01*
X142064612Y-47836482D01*
X142076872Y-47712000D01*
X142076872Y-46412000D01*
X142064612Y-46287518D01*
X142028302Y-46167820D01*
X141969337Y-46057506D01*
X141889985Y-45960815D01*
X141793294Y-45881463D01*
X141682980Y-45822498D01*
X141563282Y-45786188D01*
X141438800Y-45773928D01*
X141138800Y-45773928D01*
X141014318Y-45786188D01*
X140894620Y-45822498D01*
X140788800Y-45879061D01*
X140682980Y-45822498D01*
X140563282Y-45786188D01*
X140438800Y-45773928D01*
X140138800Y-45773928D01*
X140014318Y-45786188D01*
X139894620Y-45822498D01*
X139784306Y-45881463D01*
X139687615Y-45960815D01*
X139608263Y-46057506D01*
X139549298Y-46167820D01*
X139512988Y-46287518D01*
X139500728Y-46412000D01*
X139500728Y-47712000D01*
X139512988Y-47836482D01*
X139528800Y-47888607D01*
X139528801Y-73464707D01*
X139525124Y-73502040D01*
X139539798Y-73651025D01*
X139583254Y-73794286D01*
X139653826Y-73926316D01*
X139725001Y-74013042D01*
X139748800Y-74042041D01*
X139777798Y-74065839D01*
X141727000Y-76015042D01*
X141750799Y-76044041D01*
X141779797Y-76067839D01*
X141866524Y-76139014D01*
X141998553Y-76209586D01*
X142141814Y-76253043D01*
X142290800Y-76267717D01*
X142328133Y-76264040D01*
X142358458Y-76264040D01*
X141401803Y-77220696D01*
X141372799Y-77244499D01*
X141344944Y-77278441D01*
X141277826Y-77360224D01*
X141237088Y-77436439D01*
X141207254Y-77492254D01*
X141163797Y-77635515D01*
X141152800Y-77747168D01*
X141152800Y-77747178D01*
X141149124Y-77784500D01*
X141152800Y-77821823D01*
X141152800Y-77990228D01*
X140987800Y-77990228D01*
X140838932Y-78004890D01*
X140712800Y-78043152D01*
X140586668Y-78004890D01*
X140437800Y-77990228D01*
X140187800Y-77990228D01*
X140038932Y-78004890D01*
X139912800Y-78043152D01*
X139786668Y-78004890D01*
X139637800Y-77990228D01*
X139387800Y-77990228D01*
X139238932Y-78004890D01*
X139112800Y-78043152D01*
X138986668Y-78004890D01*
X138837800Y-77990228D01*
X138587800Y-77990228D01*
X138438932Y-78004890D01*
X138295785Y-78048313D01*
X138163860Y-78118829D01*
X138048227Y-78213727D01*
X137953329Y-78329360D01*
X137882813Y-78461285D01*
X137839390Y-78604432D01*
X137824728Y-78753300D01*
X137824728Y-78754942D01*
X137745163Y-78701778D01*
X137643885Y-78659827D01*
X136751200Y-77767143D01*
X136751200Y-72847652D01*
X136754997Y-72809099D01*
X136751200Y-72770546D01*
X136751200Y-72770539D01*
X136739841Y-72655213D01*
X136736891Y-72645486D01*
X136729394Y-72620772D01*
X136694954Y-72507240D01*
X136622062Y-72370867D01*
X136564015Y-72300137D01*
X136548545Y-72281287D01*
X136548542Y-72281284D01*
X136523964Y-72251336D01*
X136494017Y-72226759D01*
X133691047Y-69423790D01*
X133666464Y-69393836D01*
X133546933Y-69295738D01*
X133410560Y-69222846D01*
X133262587Y-69177959D01*
X133147261Y-69166600D01*
X133147253Y-69166600D01*
X133108700Y-69162803D01*
X133100357Y-69163625D01*
X132955920Y-69019188D01*
X132770024Y-68894976D01*
X132563467Y-68809417D01*
X132344188Y-68765800D01*
X132120612Y-68765800D01*
X131901333Y-68809417D01*
X131694776Y-68894976D01*
X131508880Y-69019188D01*
X131350788Y-69177280D01*
X131226576Y-69363176D01*
X131141017Y-69569733D01*
X131097400Y-69789012D01*
X131097400Y-70012588D01*
X131141017Y-70231867D01*
X131226576Y-70438424D01*
X131291641Y-70535800D01*
X131226576Y-70633176D01*
X131141017Y-70839733D01*
X131097400Y-71059012D01*
X131097400Y-71282588D01*
X131141017Y-71501867D01*
X131187288Y-71613574D01*
X131142898Y-71696620D01*
X131106588Y-71816318D01*
X131094328Y-71940800D01*
X131094328Y-72940800D01*
X131106588Y-73065282D01*
X131142898Y-73184980D01*
X131201863Y-73295294D01*
X131281215Y-73391985D01*
X131377906Y-73471337D01*
X131488220Y-73530302D01*
X131607918Y-73566612D01*
X131732400Y-73578872D01*
X132732400Y-73578872D01*
X132856882Y-73566612D01*
X132976580Y-73530302D01*
X132999496Y-73518053D01*
X133301600Y-73820157D01*
X133301601Y-79831737D01*
X133297803Y-79870300D01*
X133312959Y-80024186D01*
X133357846Y-80172159D01*
X133375058Y-80204360D01*
X133430739Y-80308533D01*
X133471290Y-80357944D01*
X133504255Y-80398112D01*
X133504259Y-80398116D01*
X133528837Y-80428064D01*
X133558785Y-80452642D01*
X134719767Y-81613625D01*
X134709361Y-81612600D01*
X134709353Y-81612600D01*
X134670800Y-81608803D01*
X134632247Y-81612600D01*
X132506757Y-81612600D01*
X127073800Y-76179643D01*
X127073800Y-64637957D01*
X130067816Y-61643942D01*
X130097764Y-61619364D01*
X130195862Y-61499833D01*
X130268754Y-61363460D01*
X130313641Y-61215487D01*
X130325000Y-61100161D01*
X130325000Y-61100154D01*
X130328797Y-61061601D01*
X130325000Y-61023048D01*
X130325000Y-48908156D01*
X130328797Y-48869600D01*
X130325000Y-48831040D01*
X130325000Y-48831039D01*
X130317511Y-48755002D01*
X130313642Y-48715713D01*
X130268754Y-48567740D01*
X130257134Y-48546000D01*
X130195862Y-48431367D01*
X130097764Y-48311836D01*
X130067811Y-48287254D01*
X127861647Y-46081090D01*
X127837064Y-46051136D01*
X127717533Y-45953038D01*
X127581160Y-45880146D01*
X127433187Y-45835259D01*
X127317861Y-45823900D01*
X127317853Y-45823900D01*
X127279300Y-45820103D01*
X127240747Y-45823900D01*
X126421426Y-45823900D01*
X126388915Y-45784285D01*
X126259075Y-45677729D01*
X126110942Y-45598550D01*
X125950208Y-45549792D01*
X125783050Y-45533328D01*
X125270550Y-45533328D01*
X125103392Y-45549792D01*
X124942658Y-45598550D01*
X124794525Y-45677729D01*
X124664685Y-45784285D01*
X124611657Y-45848900D01*
X120722425Y-45848900D01*
X120685100Y-45845224D01*
X120647775Y-45848900D01*
X120647767Y-45848900D01*
X120536114Y-45859897D01*
X120500474Y-45870708D01*
X120497670Y-40767000D01*
X121274087Y-40767000D01*
X121195263Y-40884969D01*
G37*
X121195263Y-40884969D02*
X121064475Y-41200719D01*
X120997800Y-41535917D01*
X120997800Y-41877683D01*
X121064475Y-42212881D01*
X121195263Y-42528631D01*
X121385137Y-42812798D01*
X121626802Y-43054463D01*
X121910969Y-43244337D01*
X122226719Y-43375125D01*
X122561917Y-43441800D01*
X122903683Y-43441800D01*
X123238881Y-43375125D01*
X123554631Y-43244337D01*
X123838798Y-43054463D01*
X124080463Y-42812798D01*
X124147813Y-42712000D01*
X135850728Y-42712000D01*
X135850728Y-44912000D01*
X135862988Y-45036482D01*
X135899298Y-45156180D01*
X135958263Y-45266494D01*
X136037615Y-45363185D01*
X136134306Y-45442537D01*
X136244620Y-45501502D01*
X136364318Y-45537812D01*
X136488800Y-45550072D01*
X138288800Y-45550072D01*
X138413282Y-45537812D01*
X138532980Y-45501502D01*
X138643294Y-45442537D01*
X138739985Y-45363185D01*
X138819337Y-45266494D01*
X138878302Y-45156180D01*
X138914612Y-45036482D01*
X138926872Y-44912000D01*
X138926872Y-42712000D01*
X150150728Y-42712000D01*
X150150728Y-44912000D01*
X150162988Y-45036482D01*
X150199298Y-45156180D01*
X150258263Y-45266494D01*
X150337615Y-45363185D01*
X150434306Y-45442537D01*
X150544620Y-45501502D01*
X150664318Y-45537812D01*
X150788800Y-45550072D01*
X152588800Y-45550072D01*
X152713282Y-45537812D01*
X152832980Y-45501502D01*
X152943294Y-45442537D01*
X153039985Y-45363185D01*
X153119337Y-45266494D01*
X153178302Y-45156180D01*
X153214612Y-45036482D01*
X153226872Y-44912000D01*
X153226872Y-42712000D01*
X153214612Y-42587518D01*
X153178302Y-42467820D01*
X153119337Y-42357506D01*
X153039985Y-42260815D01*
X152943294Y-42181463D01*
X152832980Y-42122498D01*
X152713282Y-42086188D01*
X152588800Y-42073928D01*
X150788800Y-42073928D01*
X150664318Y-42086188D01*
X150544620Y-42122498D01*
X150434306Y-42181463D01*
X150337615Y-42260815D01*
X150258263Y-42357506D01*
X150199298Y-42467820D01*
X150162988Y-42587518D01*
X150150728Y-42712000D01*
X138926872Y-42712000D01*
X138914612Y-42587518D01*
X138878302Y-42467820D01*
X138819337Y-42357506D01*
X138739985Y-42260815D01*
X138643294Y-42181463D01*
X138532980Y-42122498D01*
X138413282Y-42086188D01*
X138288800Y-42073928D01*
X136488800Y-42073928D01*
X136364318Y-42086188D01*
X136244620Y-42122498D01*
X136134306Y-42181463D01*
X136037615Y-42260815D01*
X135958263Y-42357506D01*
X135899298Y-42467820D01*
X135862988Y-42587518D01*
X135850728Y-42712000D01*
X124147813Y-42712000D01*
X124270337Y-42528631D01*
X124401125Y-42212881D01*
X124467800Y-41877683D01*
X124467800Y-41535917D01*
X124401125Y-41200719D01*
X124270337Y-40884969D01*
X124191513Y-40767000D01*
X157289476Y-40767000D01*
X157262098Y-40818220D01*
X157225788Y-40937918D01*
X157213528Y-41062400D01*
X157213528Y-43062400D01*
X157225788Y-43186882D01*
X157262098Y-43306580D01*
X157321063Y-43416894D01*
X157400415Y-43513585D01*
X157497106Y-43592937D01*
X157607420Y-43651902D01*
X157642687Y-43662600D01*
X157607420Y-43673298D01*
X157497106Y-43732263D01*
X157400415Y-43811615D01*
X157321063Y-43908306D01*
X157262098Y-44018620D01*
X157225788Y-44138318D01*
X157213528Y-44262800D01*
X157213528Y-46262800D01*
X157225788Y-46387282D01*
X157262098Y-46506980D01*
X157321063Y-46617294D01*
X157400415Y-46713985D01*
X157497106Y-46793337D01*
X157607420Y-46852302D01*
X157727118Y-46888612D01*
X157851600Y-46900872D01*
X159851600Y-46900872D01*
X159976082Y-46888612D01*
X160095780Y-46852302D01*
X160206094Y-46793337D01*
X160302785Y-46713985D01*
X160382137Y-46617294D01*
X160441102Y-46506980D01*
X160477412Y-46387282D01*
X160489672Y-46262800D01*
X160489672Y-46259930D01*
X160680061Y-46297800D01*
X160883939Y-46297800D01*
X161083898Y-46258026D01*
X161272256Y-46180005D01*
X161441774Y-46066737D01*
X161460711Y-46047800D01*
X161610748Y-46047800D01*
X161649301Y-46051597D01*
X161687854Y-46047800D01*
X161687862Y-46047800D01*
X161803188Y-46036441D01*
X161951161Y-45991554D01*
X162087534Y-45918662D01*
X162207065Y-45820564D01*
X162231649Y-45790608D01*
X162249187Y-45773071D01*
X162319142Y-45751850D01*
X162467275Y-45672671D01*
X162560000Y-45596574D01*
X162562500Y-45598626D01*
X162562501Y-46418728D01*
X161458400Y-46418728D01*
X161333918Y-46430988D01*
X161214220Y-46467298D01*
X161103906Y-46526263D01*
X161007215Y-46605615D01*
X160927863Y-46702306D01*
X160868898Y-46812620D01*
X160832588Y-46932318D01*
X160820328Y-47056800D01*
X160820328Y-49056800D01*
X160832588Y-49181282D01*
X160868898Y-49300980D01*
X160927863Y-49411294D01*
X161007215Y-49507985D01*
X161103906Y-49587337D01*
X161214220Y-49646302D01*
X161333918Y-49682612D01*
X161458400Y-49694872D01*
X163458400Y-49694872D01*
X163582882Y-49682612D01*
X163702580Y-49646302D01*
X163812894Y-49587337D01*
X163909585Y-49507985D01*
X163988937Y-49411294D01*
X164047902Y-49300980D01*
X164084212Y-49181282D01*
X164096472Y-49056800D01*
X164096472Y-47402910D01*
X164121141Y-47321587D01*
X164132500Y-47206261D01*
X164132500Y-47206254D01*
X164136297Y-47167701D01*
X164132500Y-47129148D01*
X164132500Y-45598626D01*
X164172115Y-45566115D01*
X164278671Y-45436275D01*
X164357850Y-45288142D01*
X164406608Y-45127408D01*
X164423072Y-44960250D01*
X164423072Y-44447750D01*
X164406608Y-44280592D01*
X164357850Y-44119858D01*
X164297689Y-44007305D01*
X164368026Y-43837498D01*
X164407800Y-43637539D01*
X164407800Y-43433661D01*
X164368026Y-43233702D01*
X164290005Y-43045344D01*
X164248725Y-42983564D01*
X164278671Y-42947075D01*
X164357850Y-42798942D01*
X164406608Y-42638208D01*
X164423072Y-42471050D01*
X164423072Y-41958550D01*
X164406608Y-41791392D01*
X164357850Y-41630658D01*
X164278671Y-41482525D01*
X164172115Y-41352685D01*
X164042275Y-41246129D01*
X163894142Y-41166950D01*
X163733408Y-41118192D01*
X163566250Y-41101728D01*
X163128750Y-41101728D01*
X162961592Y-41118192D01*
X162800858Y-41166950D01*
X162652725Y-41246129D01*
X162560000Y-41322226D01*
X162467275Y-41246129D01*
X162319142Y-41166950D01*
X162158408Y-41118192D01*
X161991250Y-41101728D01*
X161553750Y-41101728D01*
X161386592Y-41118192D01*
X161341609Y-41131838D01*
X161185498Y-41067174D01*
X160985539Y-41027400D01*
X160781661Y-41027400D01*
X160581702Y-41067174D01*
X160489672Y-41105294D01*
X160489672Y-41062400D01*
X160477412Y-40937918D01*
X160441102Y-40818220D01*
X160413724Y-40767000D01*
X164566670Y-40767000D01*
X164588218Y-79985516D01*
X161547033Y-76944331D01*
X161642453Y-76925351D01*
X161798963Y-76860522D01*
X161939818Y-76766405D01*
X162059605Y-76646618D01*
X162153722Y-76505763D01*
X162218551Y-76349253D01*
X162251600Y-76183103D01*
X162251600Y-76013697D01*
X162218551Y-75847547D01*
X162153722Y-75691037D01*
X162059605Y-75550182D01*
X161939818Y-75430395D01*
X161798963Y-75336278D01*
X161642453Y-75271449D01*
X161638706Y-75270704D01*
X157943452Y-71575451D01*
X157902975Y-71499724D01*
X157831800Y-71412998D01*
X157808002Y-71384000D01*
X157779005Y-71360203D01*
X156481704Y-70062903D01*
X156457901Y-70033899D01*
X156342176Y-69938926D01*
X156293736Y-69913034D01*
X151280400Y-64899699D01*
X151280400Y-52318218D01*
X151382515Y-52234415D01*
X151489071Y-52104575D01*
X151568250Y-51956442D01*
X151617008Y-51795708D01*
X151633472Y-51628550D01*
X151633472Y-51191050D01*
X151617008Y-51023892D01*
X151568250Y-50863158D01*
X151489071Y-50715025D01*
X151412974Y-50622300D01*
X151489071Y-50529575D01*
X151568250Y-50381442D01*
X151617008Y-50220708D01*
X151633472Y-50053550D01*
X151633472Y-49616050D01*
X151617008Y-49448892D01*
X151568250Y-49288158D01*
X151489071Y-49140025D01*
X151382515Y-49010185D01*
X151252675Y-48903629D01*
X151104542Y-48824450D01*
X150943808Y-48775692D01*
X150776650Y-48759228D01*
X150418030Y-48759228D01*
X150048800Y-48389999D01*
X150048800Y-47888607D01*
X150064612Y-47836482D01*
X150076872Y-47712000D01*
X150076872Y-46412000D01*
X150064612Y-46287518D01*
X150028302Y-46167820D01*
X149969337Y-46057506D01*
X149889985Y-45960815D01*
X149793294Y-45881463D01*
X149682980Y-45822498D01*
X149563282Y-45786188D01*
X149438800Y-45773928D01*
X149138800Y-45773928D01*
X149038800Y-45783777D01*
X148938800Y-45773928D01*
X148638800Y-45773928D01*
X148538800Y-45783777D01*
X148438800Y-45773928D01*
X148138800Y-45773928D01*
X148038800Y-45783777D01*
X147938800Y-45773928D01*
X147638800Y-45773928D01*
X147538800Y-45783777D01*
X147438800Y-45773928D01*
X147138800Y-45773928D01*
X147038800Y-45783777D01*
X146938800Y-45773928D01*
X146638800Y-45773928D01*
X146514318Y-45786188D01*
X146394620Y-45822498D01*
X146284306Y-45881463D01*
X146187615Y-45960815D01*
X146108263Y-46057506D01*
X146049298Y-46167820D01*
X146012988Y-46287518D01*
X146000728Y-46412000D01*
X146000728Y-47712000D01*
X146012988Y-47836482D01*
X146028800Y-47888609D01*
X146028801Y-48476397D01*
X144573803Y-49931396D01*
X144544799Y-49955199D01*
X144496545Y-50013997D01*
X144449826Y-50070924D01*
X144379255Y-50202953D01*
X144379254Y-50202954D01*
X144335797Y-50346215D01*
X144324800Y-50457868D01*
X144324800Y-50457878D01*
X144321124Y-50495200D01*
X144324800Y-50532522D01*
X144324801Y-71171567D01*
X144321124Y-71208900D01*
X144324801Y-71246233D01*
X144335798Y-71357886D01*
X144348481Y-71399698D01*
X144379254Y-71501146D01*
X144449826Y-71633176D01*
X144521001Y-71719902D01*
X144544800Y-71748901D01*
X144573798Y-71772699D01*
X145755704Y-72954606D01*
X145756449Y-72958353D01*
X145821278Y-73114863D01*
X145915395Y-73255718D01*
X146035182Y-73375505D01*
X146176037Y-73469622D01*
X146332547Y-73534451D01*
X146498697Y-73567500D01*
X146668103Y-73567500D01*
X146834253Y-73534451D01*
X146990763Y-73469622D01*
X147131618Y-73375505D01*
X147162111Y-73345012D01*
X147391200Y-73574102D01*
X147414999Y-73603101D01*
X147443997Y-73626899D01*
X147530723Y-73698074D01*
X147622341Y-73747045D01*
X147662753Y-73768646D01*
X147806014Y-73812103D01*
X147917667Y-73823100D01*
X147917676Y-73823100D01*
X147954999Y-73826776D01*
X147992322Y-73823100D01*
X154790299Y-73823100D01*
X155097973Y-74130774D01*
X155072080Y-74128224D01*
X155034758Y-74131900D01*
X148581602Y-74131900D01*
X148544279Y-74128224D01*
X148506957Y-74131900D01*
X148506947Y-74131900D01*
X148455370Y-74136980D01*
X143753682Y-74136980D01*
X142048800Y-72432099D01*
X142048800Y-47888607D01*
X142064612Y-47836482D01*
X142076872Y-47712000D01*
X142076872Y-46412000D01*
X142064612Y-46287518D01*
X142028302Y-46167820D01*
X141969337Y-46057506D01*
X141889985Y-45960815D01*
X141793294Y-45881463D01*
X141682980Y-45822498D01*
X141563282Y-45786188D01*
X141438800Y-45773928D01*
X141138800Y-45773928D01*
X141014318Y-45786188D01*
X140894620Y-45822498D01*
X140788800Y-45879061D01*
X140682980Y-45822498D01*
X140563282Y-45786188D01*
X140438800Y-45773928D01*
X140138800Y-45773928D01*
X140014318Y-45786188D01*
X139894620Y-45822498D01*
X139784306Y-45881463D01*
X139687615Y-45960815D01*
X139608263Y-46057506D01*
X139549298Y-46167820D01*
X139512988Y-46287518D01*
X139500728Y-46412000D01*
X139500728Y-47712000D01*
X139512988Y-47836482D01*
X139528800Y-47888607D01*
X139528801Y-73464707D01*
X139525124Y-73502040D01*
X139539798Y-73651025D01*
X139583254Y-73794286D01*
X139653826Y-73926316D01*
X139725001Y-74013042D01*
X139748800Y-74042041D01*
X139777798Y-74065839D01*
X141727000Y-76015042D01*
X141750799Y-76044041D01*
X141779797Y-76067839D01*
X141866524Y-76139014D01*
X141998553Y-76209586D01*
X142141814Y-76253043D01*
X142290800Y-76267717D01*
X142328133Y-76264040D01*
X142358458Y-76264040D01*
X141401803Y-77220696D01*
X141372799Y-77244499D01*
X141344944Y-77278441D01*
X141277826Y-77360224D01*
X141237088Y-77436439D01*
X141207254Y-77492254D01*
X141163797Y-77635515D01*
X141152800Y-77747168D01*
X141152800Y-77747178D01*
X141149124Y-77784500D01*
X141152800Y-77821823D01*
X141152800Y-77990228D01*
X140987800Y-77990228D01*
X140838932Y-78004890D01*
X140712800Y-78043152D01*
X140586668Y-78004890D01*
X140437800Y-77990228D01*
X140187800Y-77990228D01*
X140038932Y-78004890D01*
X139912800Y-78043152D01*
X139786668Y-78004890D01*
X139637800Y-77990228D01*
X139387800Y-77990228D01*
X139238932Y-78004890D01*
X139112800Y-78043152D01*
X138986668Y-78004890D01*
X138837800Y-77990228D01*
X138587800Y-77990228D01*
X138438932Y-78004890D01*
X138295785Y-78048313D01*
X138163860Y-78118829D01*
X138048227Y-78213727D01*
X137953329Y-78329360D01*
X137882813Y-78461285D01*
X137839390Y-78604432D01*
X137824728Y-78753300D01*
X137824728Y-78754942D01*
X137745163Y-78701778D01*
X137643885Y-78659827D01*
X136751200Y-77767143D01*
X136751200Y-72847652D01*
X136754997Y-72809099D01*
X136751200Y-72770546D01*
X136751200Y-72770539D01*
X136739841Y-72655213D01*
X136736891Y-72645486D01*
X136729394Y-72620772D01*
X136694954Y-72507240D01*
X136622062Y-72370867D01*
X136564015Y-72300137D01*
X136548545Y-72281287D01*
X136548542Y-72281284D01*
X136523964Y-72251336D01*
X136494017Y-72226759D01*
X133691047Y-69423790D01*
X133666464Y-69393836D01*
X133546933Y-69295738D01*
X133410560Y-69222846D01*
X133262587Y-69177959D01*
X133147261Y-69166600D01*
X133147253Y-69166600D01*
X133108700Y-69162803D01*
X133100357Y-69163625D01*
X132955920Y-69019188D01*
X132770024Y-68894976D01*
X132563467Y-68809417D01*
X132344188Y-68765800D01*
X132120612Y-68765800D01*
X131901333Y-68809417D01*
X131694776Y-68894976D01*
X131508880Y-69019188D01*
X131350788Y-69177280D01*
X131226576Y-69363176D01*
X131141017Y-69569733D01*
X131097400Y-69789012D01*
X131097400Y-70012588D01*
X131141017Y-70231867D01*
X131226576Y-70438424D01*
X131291641Y-70535800D01*
X131226576Y-70633176D01*
X131141017Y-70839733D01*
X131097400Y-71059012D01*
X131097400Y-71282588D01*
X131141017Y-71501867D01*
X131187288Y-71613574D01*
X131142898Y-71696620D01*
X131106588Y-71816318D01*
X131094328Y-71940800D01*
X131094328Y-72940800D01*
X131106588Y-73065282D01*
X131142898Y-73184980D01*
X131201863Y-73295294D01*
X131281215Y-73391985D01*
X131377906Y-73471337D01*
X131488220Y-73530302D01*
X131607918Y-73566612D01*
X131732400Y-73578872D01*
X132732400Y-73578872D01*
X132856882Y-73566612D01*
X132976580Y-73530302D01*
X132999496Y-73518053D01*
X133301600Y-73820157D01*
X133301601Y-79831737D01*
X133297803Y-79870300D01*
X133312959Y-80024186D01*
X133357846Y-80172159D01*
X133375058Y-80204360D01*
X133430739Y-80308533D01*
X133471290Y-80357944D01*
X133504255Y-80398112D01*
X133504259Y-80398116D01*
X133528837Y-80428064D01*
X133558785Y-80452642D01*
X134719767Y-81613625D01*
X134709361Y-81612600D01*
X134709353Y-81612600D01*
X134670800Y-81608803D01*
X134632247Y-81612600D01*
X132506757Y-81612600D01*
X127073800Y-76179643D01*
X127073800Y-64637957D01*
X130067816Y-61643942D01*
X130097764Y-61619364D01*
X130195862Y-61499833D01*
X130268754Y-61363460D01*
X130313641Y-61215487D01*
X130325000Y-61100161D01*
X130325000Y-61100154D01*
X130328797Y-61061601D01*
X130325000Y-61023048D01*
X130325000Y-48908156D01*
X130328797Y-48869600D01*
X130325000Y-48831040D01*
X130325000Y-48831039D01*
X130317511Y-48755002D01*
X130313642Y-48715713D01*
X130268754Y-48567740D01*
X130257134Y-48546000D01*
X130195862Y-48431367D01*
X130097764Y-48311836D01*
X130067811Y-48287254D01*
X127861647Y-46081090D01*
X127837064Y-46051136D01*
X127717533Y-45953038D01*
X127581160Y-45880146D01*
X127433187Y-45835259D01*
X127317861Y-45823900D01*
X127317853Y-45823900D01*
X127279300Y-45820103D01*
X127240747Y-45823900D01*
X126421426Y-45823900D01*
X126388915Y-45784285D01*
X126259075Y-45677729D01*
X126110942Y-45598550D01*
X125950208Y-45549792D01*
X125783050Y-45533328D01*
X125270550Y-45533328D01*
X125103392Y-45549792D01*
X124942658Y-45598550D01*
X124794525Y-45677729D01*
X124664685Y-45784285D01*
X124611657Y-45848900D01*
X120722425Y-45848900D01*
X120685100Y-45845224D01*
X120647775Y-45848900D01*
X120647767Y-45848900D01*
X120536114Y-45859897D01*
X120500474Y-45870708D01*
X120497670Y-40767000D01*
X121274087Y-40767000D01*
X121195263Y-40884969D01*
G36*
X149551729Y-52104575D02*
G01*
X149658285Y-52234415D01*
X149760400Y-52318218D01*
X149760401Y-65177168D01*
X149756724Y-65214500D01*
X149771398Y-65363485D01*
X149814854Y-65506746D01*
X149885426Y-65638776D01*
X149956601Y-65725502D01*
X149980400Y-65754501D01*
X150009398Y-65778299D01*
X155316000Y-71084902D01*
X155339799Y-71113901D01*
X155455524Y-71208874D01*
X155503966Y-71234767D01*
X155808629Y-71539430D01*
X155791678Y-71541100D01*
X148868423Y-71541100D01*
X148808018Y-71480695D01*
X148667163Y-71386578D01*
X148510653Y-71321749D01*
X148344503Y-71288700D01*
X148175097Y-71288700D01*
X148048800Y-71313822D01*
X148048800Y-70618300D01*
X148082339Y-70618300D01*
X148282298Y-70578526D01*
X148470656Y-70500505D01*
X148640174Y-70387237D01*
X148784337Y-70243074D01*
X148897605Y-70073556D01*
X148975626Y-69885198D01*
X149015400Y-69685239D01*
X149015400Y-69481361D01*
X148975626Y-69281402D01*
X148915400Y-69136005D01*
X148915400Y-68168732D01*
X148918052Y-68141805D01*
X148942453Y-68136951D01*
X149098963Y-68072122D01*
X149239818Y-67978005D01*
X149359605Y-67858218D01*
X149453722Y-67717363D01*
X149518551Y-67560853D01*
X149551600Y-67394703D01*
X149551600Y-67225297D01*
X149551363Y-67224107D01*
X149552477Y-67212800D01*
X149548800Y-67175467D01*
X149548800Y-52099095D01*
X149551729Y-52104575D01*
G37*
X149551729Y-52104575D02*
X149658285Y-52234415D01*
X149760400Y-52318218D01*
X149760401Y-65177168D01*
X149756724Y-65214500D01*
X149771398Y-65363485D01*
X149814854Y-65506746D01*
X149885426Y-65638776D01*
X149956601Y-65725502D01*
X149980400Y-65754501D01*
X150009398Y-65778299D01*
X155316000Y-71084902D01*
X155339799Y-71113901D01*
X155455524Y-71208874D01*
X155503966Y-71234767D01*
X155808629Y-71539430D01*
X155791678Y-71541100D01*
X148868423Y-71541100D01*
X148808018Y-71480695D01*
X148667163Y-71386578D01*
X148510653Y-71321749D01*
X148344503Y-71288700D01*
X148175097Y-71288700D01*
X148048800Y-71313822D01*
X148048800Y-70618300D01*
X148082339Y-70618300D01*
X148282298Y-70578526D01*
X148470656Y-70500505D01*
X148640174Y-70387237D01*
X148784337Y-70243074D01*
X148897605Y-70073556D01*
X148975626Y-69885198D01*
X149015400Y-69685239D01*
X149015400Y-69481361D01*
X148975626Y-69281402D01*
X148915400Y-69136005D01*
X148915400Y-68168732D01*
X148918052Y-68141805D01*
X148942453Y-68136951D01*
X149098963Y-68072122D01*
X149239818Y-67978005D01*
X149359605Y-67858218D01*
X149453722Y-67717363D01*
X149518551Y-67560853D01*
X149551600Y-67394703D01*
X149551600Y-67225297D01*
X149551363Y-67224107D01*
X149552477Y-67212800D01*
X149548800Y-67175467D01*
X149548800Y-52099095D01*
X149551729Y-52104575D01*
G36*
X147118800Y-63388398D02*
G01*
X145844800Y-64662399D01*
X145844800Y-50810001D01*
X147118801Y-49536001D01*
X147118800Y-63388398D01*
G37*
X147118800Y-63388398D02*
X145844800Y-64662399D01*
X145844800Y-50810001D01*
X147118801Y-49536001D01*
X147118800Y-63388398D01*
M02*
