M48
; DRILL file {KiCad 5.1.6-c6e7f7d~87~ubuntu18.04.1} date Thu Jul 23 00:25:42 2020
; FORMAT={-:-/ absolute / inch / decimal}
; #@! TF.CreationDate,2020-07-23T00:25:42+02:00
; #@! TF.GenerationSoftware,Kicad,Pcbnew,5.1.6-c6e7f7d~87~ubuntu18.04.1
; #@! TF.FileFunction,Plated,1,2,PTH
FMAT,2
INCH
T1C0.0079
T2C0.0118
T3C0.0157
T4C0.0236
T5C0.0256
T6C0.0315
T7C0.0394
T8C0.0512
T9C0.0866
%
G90
G05
T1
X0.773Y-6.549
X0.775Y-4.116
X0.802Y-6.58
X0.808Y-4.08
X0.825Y-3.0
X0.825Y-3.07
X0.825Y-3.145
X0.825Y-3.22
X0.825Y-3.3
X0.825Y-3.375
X0.825Y-3.45
X0.825Y-3.525
X0.825Y-3.6
X0.825Y-3.675
X0.842Y-6.655
X0.845Y-2.95
X0.8808Y-5.2548
X0.8828Y-4.4018
X0.8832Y-3.153
X0.884Y-6.078
X0.885Y-4.6714
X0.887Y-4.357
X0.888Y-4.311
X0.888Y-5.2285
X0.89Y-6.302
X0.8914Y-4.5906
X0.8916Y-3.2182
X0.893Y-4.233
X0.894Y-3.3174
X0.8945Y-6.388
X0.8952Y-3.3922
X0.8958Y-3.2612
X0.896Y-4.4645
X0.9095Y-6.2172
X0.915Y-6.716
X0.917Y-3.972
X0.9184Y-4.4326
X0.919Y-5.214
X0.9195Y-6.0947
X0.922Y-5.122
X0.9225Y-6.017
X0.925Y-2.95
X0.9276Y-4.612
X0.9322Y-4.504
X0.9334Y-4.6776
X0.934Y-4.9604
X0.9342Y-4.869
X0.935Y-6.592
X0.936Y-4.219
X0.937Y-3.1
X0.942Y-6.4147
X0.954Y-3.559
X0.956Y-3.515
X0.957Y-3.4376
X0.965Y-6.777
X0.968Y-5.938
X0.97Y-6.897
X0.972Y-6.844
X0.977Y-6.3222
X0.9775Y-3.2565
X0.9775Y-3.596
X0.98Y-5.117
X0.982Y-5.329
X0.9823Y-6.2072
X0.9898Y-4.9046
X0.992Y-5.225
X0.995Y-4.8144
X0.999Y-4.683
X0.9994Y-3.2036
X0.9994Y-3.2036
X0.9994Y-3.2036
X0.9994Y-3.2036
X0.9994Y-3.2036
X1.0Y-2.95
X1.005Y-6.024
X1.008Y-3.623
X1.008Y-4.184
X1.01Y-5.5155
X1.0116Y-5.7984
X1.0144Y-4.9604
X1.0164Y-5.7362
X1.017Y-6.592
X1.018Y-5.467
X1.0205Y-3.256
X1.0212Y-5.8474
X1.022Y-6.2197
X1.026Y-5.182
X1.027Y-5.121
X1.03Y-5.903
X1.0314Y-5.6852
X1.033Y-5.5
X1.034Y-5.279
X1.0385Y-6.4225
X1.039Y-3.6575
X1.04Y-6.791
X1.042Y-3.44
X1.047Y-3.542
X1.048Y-3.398
X1.055Y-4.249
X1.0555Y-5.471
X1.057Y-4.305
X1.057Y-6.2697
X1.0595Y-4.3655
X1.0605Y-4.186
X1.061Y-4.446
X1.0635Y-5.0655
X1.064Y-4.106
X1.065Y-3.0955
X1.067Y-3.875
X1.067Y-3.991
X1.07Y-2.95
X1.073Y-6.899
X1.0738Y-5.2398
X1.075Y-3.716
X1.077Y-5.326
X1.078Y-3.425
X1.082Y-3.473
X1.0886Y-4.8958
X1.094Y-5.902
X1.0956Y-5.6438
X1.0992Y-5.1856
X1.0995Y-6.099
X1.1Y-3.544
X1.102Y-5.0416
X1.1062Y-3.3088
X1.1068Y-4.778
X1.107Y-5.71
X1.1078Y-3.2742
X1.108Y-6.42
X1.112Y-3.8675
X1.113Y-6.592
X1.1138Y-3.1256
X1.1158Y-3.186
X1.124Y-6.2227
X1.129Y-3.0905
X1.129Y-5.272
X1.135Y-6.023
X1.1354Y-3.1868
X1.137Y-3.3122
X1.1376Y-3.2732
X1.141Y-3.63
X1.15Y-2.95
X1.154Y-4.869
X1.155Y-6.899
X1.1565Y-6.4005
X1.1585Y-4.2725
X1.1615Y-4.56
X1.163Y-4.911
X1.1685Y-4.6285
X1.1736Y-4.176
X1.174Y-6.428
X1.1785Y-3.065
X1.179Y-4.088
X1.183Y-3.719
X1.1885Y-6.3975
X1.189Y-5.4435
X1.19Y-3.8145
X1.1915Y-4.67
X1.1915Y-4.7315
X1.194Y-3.631
X1.205Y-5.9744
X1.2092Y-6.317
X1.215Y-6.258
X1.217Y-3.2685
X1.2205Y-6.3835
X1.221Y-3.722
X1.221Y-4.025
X1.225Y-2.95
X1.225Y-3.3925
X1.225Y-3.968
X1.225Y-5.0956
X1.225Y-6.207
X1.2265Y-3.1
X1.227Y-3.138
X1.227Y-3.491
X1.2288Y-4.947
X1.23Y-3.35
X1.2315Y-3.867
X1.239Y-6.594
X1.239Y-6.899
X1.2418Y-3.1842
X1.245Y-3.43
X1.245Y-5.439
X1.2525Y-4.069
X1.2556Y-5.0694
X1.2558Y-4.5166
X1.257Y-5.489
X1.2575Y-3.5375
X1.258Y-4.688
X1.2596Y-3.2656
X1.262Y-4.175
X1.266Y-5.946
X1.2675Y-4.139
X1.272Y-4.736
X1.2748Y-5.5902
X1.275Y-3.8775
X1.28Y-3.3325
X1.28Y-4.354
X1.2815Y-4.2645
X1.2834Y-4.9494
X1.29Y-5.508
X1.2902Y-5.0084
X1.2925Y-3.079
X1.295Y-2.95
X1.297Y-6.0375
X1.299Y-5.442
X1.3025Y-3.43
X1.3075Y-6.443
X1.3085Y-6.3475
X1.3105Y-6.1285
X1.312Y-6.26
X1.3125Y-3.8745
X1.313Y-4.351
X1.313Y-6.194
X1.318Y-3.7994
X1.3235Y-3.1
X1.3245Y-4.0705
X1.33Y-3.54
X1.332Y-3.715
X1.335Y-3.3325
X1.336Y-5.511
X1.338Y-5.477
X1.3414Y-5.2018
X1.3475Y-3.43
X1.3475Y-4.4945
X1.3536Y-4.7768
X1.3538Y-5.1462
X1.363Y-3.715
X1.3668Y-6.771
X1.3686Y-5.3744
X1.3695Y-5.243
X1.372Y-3.54
X1.3745Y-3.843
X1.375Y-2.95
X1.375Y-5.2996
X1.376Y-4.526
X1.3786Y-5.423
X1.3825Y-3.3675
X1.3825Y-3.4075
X1.384Y-6.298
X1.3883Y-5.5864
X1.389Y-6.258
X1.39Y-3.628
X1.3915Y-3.8205
X1.394Y-6.355
X1.396Y-6.418
X1.397Y-5.7445
X1.397Y-5.81
X1.3985Y-6.134
X1.4Y-4.0757
X1.4005Y-4.3395
X1.402Y-3.9255
X1.4028Y-3.9687
X1.4045Y-3.098
X1.405Y-3.715
X1.406Y-3.3275
X1.4062Y-6.023
X1.41Y-4.144
X1.4108Y-4.0996
X1.42Y-4.4442
X1.4222Y-4.3532
X1.4232Y-4.4846
X1.4285Y-3.0795
X1.431Y-6.593
X1.443Y-6.027
X1.448Y-6.438
X1.449Y-3.715
X1.45Y-2.95
X1.454Y-5.5372
X1.457Y-3.36
X1.458Y-3.623
X1.466Y-3.591
X1.4665Y-5.729
X1.467Y-6.318
X1.468Y-5.6332
X1.468Y-5.689
X1.4695Y-5.758
X1.471Y-3.18
X1.4726Y-4.9174
X1.4734Y-3.139
X1.4738Y-4.0414
X1.4758Y-3.1042
X1.476Y-3.265
X1.4807Y-6.0156
X1.4815Y-4.017
X1.483Y-3.0592
X1.49Y-6.64
X1.503Y-3.2845
X1.5046Y-5.5336
X1.5053Y-3.9526
X1.5058Y-3.3564
X1.5077Y-6.0192
X1.508Y-4.8036
X1.51Y-4.954
X1.51Y-6.373
X1.5108Y-4.643
X1.5115Y-5.113
X1.5125Y-3.706
X1.5125Y-5.822
X1.514Y-3.628
X1.518Y-3.534
X1.519Y-6.44
X1.5208Y-3.0394
X1.5222Y-5.9108
X1.525Y-2.95
X1.529Y-3.7385
X1.5345Y-5.1365
X1.5386Y-4.3966
X1.544Y-4.3
X1.5445Y-4.949
X1.546Y-5.5552
X1.548Y-6.698
X1.55Y-3.355
X1.55Y-3.39
X1.5533Y-3.8744
X1.5537Y-4.1474
X1.5538Y-6.5858
X1.5541Y-3.9391
X1.5595Y-5.101
X1.5645Y-5.143
X1.5658Y-5.7024
X1.5674Y-4.3542
X1.5675Y-5.7555
X1.569Y-5.7295
X1.569Y-5.902
X1.5693Y-5.0003
X1.57Y-5.8602
X1.5715Y-3.1605
X1.573Y-6.645
X1.5744Y-3.1032
X1.575Y-3.4175
X1.5762Y-3.2706
X1.5764Y-3.0688
X1.577Y-5.566
X1.5772Y-5.8014
X1.58Y-4.1474
X1.5825Y-3.315
X1.593Y-6.2735
X1.595Y-3.627
X1.598Y-3.949
X1.6Y-2.95
X1.601Y-5.146
X1.601Y-6.437
X1.6036Y-5.3004
X1.6049Y-5.536
X1.6075Y-6.2515
X1.608Y-4.293
X1.609Y-6.905
X1.6095Y-6.1435
X1.611Y-5.2148
X1.6142Y-5.2692
X1.6148Y-3.043
X1.6196Y-5.7521
X1.62Y-5.6044
X1.622Y-6.028
X1.625Y-3.42
X1.626Y-5.4122
X1.6264Y-5.8002
X1.6311Y-5.3918
X1.6332Y-6.1418
X1.6337Y-5.2875
X1.636Y-5.703
X1.6367Y-5.3201
X1.6374Y-5.3528
X1.638Y-5.864
X1.6415Y-6.2225
X1.643Y-6.906
X1.6435Y-5.7685
X1.644Y-5.543
X1.6445Y-5.9795
X1.6465Y-3.7385
X1.6505Y-5.935
X1.651Y-3.944
X1.653Y-3.593
X1.6545Y-6.0055
X1.6549Y-4.8825
X1.6554Y-5.5698
X1.656Y-6.0295
X1.6584Y-4.6934
X1.659Y-3.627
X1.6615Y-4.5565
X1.6615Y-4.6195
X1.6624Y-5.1906
X1.6655Y-4.7205
X1.6664Y-3.0724
X1.6684Y-3.1062
X1.669Y-5.683
X1.6705Y-6.221
X1.672Y-3.712
X1.673Y-3.3155
X1.673Y-3.454
X1.675Y-2.95
X1.682Y-6.441
X1.684Y-3.244
X1.6845Y-3.138
X1.6948Y-4.4684
X1.6956Y-4.6552
X1.6982Y-4.624
X1.6995Y-5.555
X1.7Y-4.556
X1.703Y-3.898
X1.703Y-6.022
X1.7055Y-3.2665
X1.715Y-5.644
X1.718Y-6.137
X1.7204Y-5.4194
X1.721Y-6.0345
X1.7245Y-5.541
X1.7274Y-4.6918
X1.728Y-3.2435
X1.729Y-3.724
X1.73Y-3.4275
X1.737Y-3.458
X1.737Y-3.51
X1.7396Y-5.2284
X1.7423Y-5.7536
X1.7435Y-3.2665
X1.7446Y-3.5779
X1.746Y-5.593
X1.7472Y-5.4103
X1.7482Y-3.1386
X1.75Y-2.95
X1.7525Y-3.6525
X1.753Y-3.2275
X1.755Y-6.2115
X1.7594Y-4.3476
X1.7599Y-5.7319
X1.76Y-6.395
X1.7622Y-4.4056
X1.7622Y-4.4752
X1.7695Y-4.5105
X1.7718Y-5.2002
X1.7721Y-5.4222
X1.774Y-4.5445
X1.7745Y-5.8185
X1.775Y-3.71
X1.7775Y-3.4275
X1.7788Y-5.5553
X1.7824Y-5.875
X1.785Y-3.6525
X1.786Y-5.8455
X1.7875Y-3.395
X1.7934Y-4.783
X1.794Y-3.735
X1.7946Y-4.8786
X1.7954Y-5.0132
X1.799Y-5.137
X1.8005Y-3.085
X1.8005Y-5.749
X1.8055Y-5.5545
X1.807Y-3.45
X1.8072Y-3.3718
X1.8075Y-4.2885
X1.8084Y-5.7935
X1.8106Y-4.069
X1.8108Y-5.24
X1.811Y-5.675
X1.8144Y-3.871
X1.818Y-5.4161
X1.8195Y-6.1475
X1.823Y-4.574
X1.8238Y-3.2219
X1.824Y-5.771
X1.827Y-5.702
X1.8275Y-3.5275
X1.8275Y-3.5725
X1.8275Y-3.62
X1.8275Y-3.6525
X1.8302Y-4.6748
X1.8316Y-6.0216
X1.8326Y-4.7152
X1.8338Y-4.4082
X1.834Y-5.527
X1.835Y-2.95
X1.8356Y-5.3207
X1.8358Y-5.5542
X1.8368Y-3.9522
X1.839Y-4.3226
X1.8456Y-5.9078
X1.847Y-5.748
X1.849Y-6.3675
X1.8526Y-3.7908
X1.854Y-5.2014
X1.8548Y-3.3922
X1.855Y-4.599
X1.8555Y-4.466
X1.857Y-5.701
X1.8586Y-4.646
X1.8588Y-3.0918
X1.859Y-4.5145
X1.862Y-3.4212
X1.863Y-4.6832
X1.8635Y-6.147
X1.8646Y-4.8654
X1.865Y-3.171
X1.865Y-6.233
X1.867Y-5.9048
X1.8684Y-3.363
X1.872Y-4.771
X1.8725Y-3.3327
X1.8738Y-4.0008
X1.875Y-3.564
X1.875Y-3.641
X1.877Y-4.9664
X1.8775Y-4.1285
X1.878Y-5.63
X1.878Y-5.692
X1.879Y-3.295
X1.8806Y-5.003
X1.882Y-4.718
X1.8884Y-4.8384
X1.8946Y-5.8442
X1.896Y-5.962
X1.8978Y-4.7508
X1.905Y-4.8705
X1.91Y-2.95
X1.9114Y-3.0924
X1.9155Y-4.062
X1.9166Y-3.0324
X1.919Y-3.2945
X1.9203Y-3.2219
X1.9224Y-4.8038
X1.9252Y-2.994
X1.9312Y-4.739
X1.9405Y-4.0125
X1.9414Y-6.0521
X1.942Y-5.2592
X1.947Y-5.0676
X1.949Y-4.357
X1.95Y-4.4175
X1.95Y-6.211
X1.9505Y-6.261
X1.951Y-6.1585
X1.9532Y-5.5154
X1.9538Y-3.7218
X1.9578Y-5.458
X1.958Y-3.7918
X1.9596Y-2.9834
X1.963Y-3.672
X1.967Y-4.635
X1.9685Y-4.128
X1.974Y-4.1875
X1.9755Y-4.322
X1.9765Y-4.392
X1.9792Y-5.0632
X1.9825Y-5.4409
X1.984Y-4.0465
X1.985Y-2.95
X1.994Y-5.992
X1.996Y-3.1705
X1.999Y-4.46
X2.0018Y-5.0814
X2.002Y-4.5275
X2.002Y-5.97
X2.0023Y-3.2547
X2.0025Y-5.7835
X2.003Y-4.119
X2.0035Y-5.903
X2.0044Y-5.7526
X2.005Y-3.0
X2.0062Y-4.6482
X2.0076Y-3.379
X2.0076Y-3.4386
X2.0086Y-5.0072
X2.012Y-4.9618
X2.0136Y-3.041
X2.014Y-6.445
X2.0146Y-4.9094
X2.015Y-3.63
X2.016Y-5.1875
X2.02Y-6.608
X2.0245Y-4.488
X2.027Y-3.1835
X2.027Y-3.248
X2.028Y-6.118
X2.0355Y-4.086
X2.0364Y-3.7318
X2.0364Y-4.8722
X2.039Y-4.3065
X2.0397Y-5.2233
X2.0405Y-4.3745
X2.0465Y-5.877
X2.047Y-3.989
X2.049Y-5.9075
X2.0496Y-3.4392
X2.0602Y-3.042
X2.0614Y-6.7027
X2.0625Y-4.131
X2.063Y-5.3444
X2.0646Y-5.2908
X2.065Y-2.95
X2.0654Y-3.4112
X2.067Y-3.2475
X2.0705Y-6.075
X2.0724Y-4.6582
X2.0785Y-4.0395
X2.0785Y-4.4325
X2.0796Y-3.3796
X2.0815Y-4.3865
X2.0824Y-4.6074
X2.0828Y-5.3206
X2.083Y-4.188
X2.084Y-3.729
X2.084Y-6.4165
X2.086Y-6.604
X2.0865Y-5.7835
X2.0866Y-3.436
X2.088Y-5.7526
X2.0881Y-5.1181
X2.0885Y-5.99
X2.0906Y-2.9258
X2.091Y-3.949
X2.0912Y-2.9588
X2.0918Y-2.9904
X2.101Y-5.6982
X2.101Y-6.363
X2.1034Y-3.0252
X2.105Y-4.1605
X2.1085Y-4.3365
X2.111Y-3.506
X2.119Y-3.13
X2.121Y-3.3766
X2.121Y-3.9985
X2.125Y-3.64
X2.127Y-3.0548
X2.127Y-3.247
X2.131Y-4.8686
X2.132Y-4.683
X2.134Y-4.9455
X2.1341Y-4.9721
X2.135Y-5.263
X2.1352Y-5.148
X2.1354Y-5.1912
X2.136Y-4.014
X2.1366Y-5.6608
X2.137Y-5.88
X2.138Y-4.312
X2.1412Y-4.5268
X2.144Y-5.928
X2.1448Y-4.6318
X2.149Y-3.782
X2.15Y-5.732
X2.152Y-4.413
X2.155Y-4.189
X2.1586Y-3.376
X2.161Y-4.351
X2.1626Y-5.6745
X2.166Y-4.4905
X2.167Y-4.019
X2.1695Y-3.5145
X2.171Y-5.394
X2.174Y-5.422
X2.174Y-5.704
X2.1758Y-4.7774
X2.176Y-5.732
X2.179Y-5.874
X2.186Y-5.0755
X2.187Y-5.973
X2.1916Y-2.9366
X2.1922Y-2.977
X2.1995Y-4.089
X2.2006Y-4.0122
X2.2018Y-3.2356
X2.202Y-4.9915
X2.2042Y-3.2032
X2.208Y-5.9
X2.2085Y-3.841
X2.2095Y-3.73
X2.2122Y-3.3814
X2.2155Y-4.684
X2.2194Y-3.0104
X2.221Y-3.0524
X2.2225Y-3.104
X2.2228Y-4.6364
X2.2235Y-4.8265
X2.225Y-3.475
X2.235Y-2.95
X2.236Y-5.4085
X2.236Y-6.279
X2.237Y-5.443
X2.2385Y-5.948
X2.2398Y-4.2044
X2.24Y-3.206
X2.2418Y-3.2354
X2.2484Y-4.0888
X2.254Y-6.3715
X2.255Y-4.551
X2.256Y-4.3755
X2.256Y-5.5025
X2.2565Y-5.324
X2.263Y-4.302
X2.265Y-3.675
X2.2675Y-3.115
X2.272Y-4.623
X2.2744Y-3.3716
X2.2746Y-3.272
X2.2765Y-4.445
X2.2766Y-3.3312
X2.278Y-4.568
X2.282Y-3.2075
X2.2885Y-4.834
X2.294Y-4.189
X2.2965Y-4.587
X2.302Y-5.369
X2.3062Y-3.8742
X2.307Y-5.433
X2.308Y-5.0035
X2.3094Y-4.4452
X2.3095Y-4.942
X2.31Y-2.95
X2.3115Y-5.1405
X2.3135Y-4.3605
X2.3156Y-4.1206
X2.316Y-3.1355
X2.317Y-4.569
X2.3172Y-3.8282
X2.3175Y-3.181
X2.3215Y-4.868
X2.3224Y-4.6472
X2.3226Y-3.924
X2.3254Y-6.5752
X2.328Y-4.6814
X2.338Y-6.195
X2.3385Y-5.9805
X2.3395Y-4.149
X2.3395Y-5.279
X2.3395Y-6.096
X2.34Y-2.975
X2.34Y-3.02
X2.34Y-3.205
X2.34Y-3.28
X2.34Y-3.36
X2.34Y-3.44
X2.34Y-3.52
X2.34Y-3.595
X2.34Y-3.675
X2.3404Y-4.7968
X2.3405Y-6.142
X2.3422Y-4.573
X2.343Y-3.9964
X2.345Y-6.237
X2.348Y-4.317
X2.351Y-4.898
X2.3586Y-3.7992
X2.364Y-3.09
X2.368Y-5.432
X2.37Y-3.164
X2.37Y-5.5015
X2.372Y-4.158
X2.372Y-4.219
X2.375Y-4.5286
X2.378Y-5.2235
X2.3852Y-6.574
X2.3852Y-6.6136
X2.3896Y-3.9382
X2.3898Y-4.8532
X2.392Y-5.736
X2.394Y-3.215
X2.396Y-4.097
X2.3975Y-5.5335
X2.4065Y-4.3765
X2.409Y-2.963
X2.409Y-5.614
X2.41Y-4.442
X2.4114Y-5.0352
X2.4138Y-5.6974
X2.414Y-5.1672
X2.415Y-4.201
X2.4156Y-4.7104
X2.4274Y-5.8292
X2.433Y-3.274
X2.433Y-6.174
X2.4355Y-6.0385
X2.436Y-6.235
X2.4365Y-6.093
X2.438Y-6.5716
X2.4392Y-6.613
X2.4396Y-4.6514
X2.443Y-4.169
X2.443Y-6.291
X2.4495Y-5.981
X2.45Y-2.964
X2.4512Y-5.2034
X2.455Y-5.305
X2.467Y-4.3115
X2.4705Y-5.4095
X2.4716Y-4.7092
X2.4725Y-6.3945
X2.4726Y-6.5104
X2.474Y-4.074
X2.4758Y-4.5604
X2.4785Y-3.73
X2.479Y-3.6765
X2.48Y-3.938
X2.4805Y-3.869
X2.4815Y-3.8005
X2.483Y-4.759
X2.4832Y-5.7794
X2.4834Y-4.6138
X2.484Y-4.806
X2.486Y-4.4365
X2.488Y-4.354
X2.488Y-4.523
X2.489Y-3.274
X2.497Y-2.961
X2.497Y-5.969
X2.498Y-5.5445
X2.5012Y-5.2508
X2.502Y-5.7
X2.5032Y-5.6352
X2.515Y-5.371
X2.518Y-6.5054
X2.5185Y-6.171
X2.522Y-3.212
X2.523Y-3.185
X2.524Y-4.6542
X2.525Y-3.117
X2.5275Y-6.132
X2.531Y-6.4
X2.5466Y-5.5786
X2.5544Y-6.5024
X2.555Y-6.02
X1.8476Y-3.1956
X1.8476Y-3.2756
X1.8776Y-3.2256
X1.8776Y-3.2506
X1.9076Y-3.1956
X1.9076Y-3.2756
X1.5131Y-3.9791
X1.5131Y-4.0264
X1.5131Y-4.0736
X1.5131Y-4.1209
X1.5604Y-3.9791
X1.5604Y-4.0264
X1.5604Y-4.0736
X1.5604Y-4.1209
X1.6076Y-3.9791
X1.6076Y-4.0264
X1.6076Y-4.0736
X1.6076Y-4.1209
X1.6549Y-3.9791
X1.6549Y-4.0264
X1.6549Y-4.0736
X1.6549Y-4.1209
T2
X1.112Y-5.77
X1.245Y-6.296
T3
X0.8376Y-5.5499
X0.889Y-3.866
X0.9648Y-3.8112
X1.032Y-6.3497
X1.0805Y-3.775
X1.0995Y-5.4265
X1.1005Y-3.9015
X1.146Y-5.4145
X1.1595Y-5.336
X1.1935Y-5.506
X1.2095Y-5.351
X1.2121Y-6.0253
X1.419Y-3.831
X1.4291Y-6.2299
X1.6549Y-3.8179
X1.666Y-6.724
X1.6805Y-3.4145
X1.702Y-6.381
X1.7188Y-6.5892
X1.7206Y-6.6384
X1.759Y-6.6506
X1.7604Y-6.6808
X1.8058Y-6.7088
X1.8094Y-6.7464
X1.8178Y-6.771
X1.866Y-6.711
X1.973Y-4.2807
X2.0176Y-6.6792
X2.0188Y-6.7142
X2.0443Y-5.037
X2.0585Y-3.9238
X2.152Y-6.782
X2.2375Y-4.492
X2.283Y-3.963
X2.531Y-3.004
X0.9754Y-3.0304
X0.9754Y-3.0704
X1.0004Y-3.0104
X1.0004Y-3.0504
X1.0004Y-3.0904
X1.0254Y-3.0304
X1.0254Y-3.0704
X1.3354Y-3.0316
X1.3354Y-3.0716
X1.3604Y-3.0116
X1.3604Y-3.0516
X1.3604Y-3.0916
X1.3854Y-3.0316
X1.3854Y-3.0716
T4
X1.8153Y-5.9487
X2.095Y-6.4925
X2.296Y-5.6805
X2.1945Y-6.4433
X2.1945Y-6.522
T5
X1.9725Y-5.1255
X1.9725Y-5.1755
X1.9725Y-5.2255
X1.9725Y-5.2755
X1.9725Y-5.3255
X1.0384Y-6.8372
X1.0884Y-6.8372
X1.1384Y-6.8372
X2.278Y-6.483
X2.278Y-6.533
X1.061Y-5.779
X1.061Y-5.829
X1.061Y-5.879
X1.9705Y-4.8185
X1.9705Y-4.8685
X1.9705Y-4.9185
X1.9705Y-4.9685
X1.9705Y-5.0185
X2.5182Y-6.5708
X2.5182Y-6.6208
X2.5182Y-6.6708
T6
X0.9745Y-3.654
X0.9992Y-3.5587
X1.1005Y-4.268
X1.696Y-3.672
X1.763Y-6.0265
X1.9535Y-3.963
X2.0825Y-4.8275
X2.259Y-4.925
X2.266Y-6.88
X2.375Y-5.818
X2.4585Y-5.4725
X2.4593Y-5.6807
T7
X2.289Y-6.0125
X2.289Y-6.1125
X2.289Y-6.2125
X2.289Y-6.3125
X2.389Y-6.0125
X2.389Y-6.1125
X2.389Y-6.2125
X2.389Y-6.3125
X0.9026Y-4.727
X1.1388Y-4.727
X0.7916Y-3.8092
X0.7916Y-3.9864
T8
X0.89Y-3.76
X0.89Y-4.0356
T9
X2.46Y-6.82
X0.86Y-6.82
X2.46Y-2.83
X0.87Y-2.83
T0
M30
