G04 #@! TF.GenerationSoftware,KiCad,Pcbnew,5.1.6-c6e7f7d~87~ubuntu18.04.1*
G04 #@! TF.CreationDate,2020-09-13T22:45:34+02:00*
G04 #@! TF.ProjectId,Mainboard,4d61696e-626f-4617-9264-2e6b69636164,rev?*
G04 #@! TF.SameCoordinates,Original*
G04 #@! TF.FileFunction,Legend,Bot*
G04 #@! TF.FilePolarity,Positive*
%FSLAX46Y46*%
G04 Gerber Fmt 4.6, Leading zero omitted, Abs format (unit mm)*
G04 Created by KiCad (PCBNEW 5.1.6-c6e7f7d~87~ubuntu18.04.1) date 2020-09-13 22:45:34*
%MOMM*%
%LPD*%
G01*
G04 APERTURE LIST*
%ADD10C,0.150000*%
%ADD11C,0.250000*%
%ADD12C,0.100000*%
%ADD13C,0.125000*%
%ADD14C,0.175000*%
%ADD15C,0.120000*%
%ADD16C,0.350000*%
G04 APERTURE END LIST*
D10*
X44903259Y-123716681D02*
X44760401Y-123764300D01*
X44522306Y-123764300D01*
X44427068Y-123716681D01*
X44379449Y-123669062D01*
X44331830Y-123573824D01*
X44331830Y-123478586D01*
X44379449Y-123383348D01*
X44427068Y-123335729D01*
X44522306Y-123288110D01*
X44712782Y-123240491D01*
X44808020Y-123192872D01*
X44855640Y-123145253D01*
X44903259Y-123050015D01*
X44903259Y-122954777D01*
X44855640Y-122859539D01*
X44808020Y-122811920D01*
X44712782Y-122764300D01*
X44474687Y-122764300D01*
X44331830Y-122811920D01*
X43903259Y-123764300D02*
X43903259Y-122764300D01*
X43331830Y-123764300D01*
X43331830Y-122764300D01*
X42855640Y-123669062D02*
X42808020Y-123716681D01*
X42855640Y-123764300D01*
X42903259Y-123716681D01*
X42855640Y-123669062D01*
X42855640Y-123764300D01*
X42855640Y-123145253D02*
X42808020Y-123192872D01*
X42855640Y-123240491D01*
X42903259Y-123192872D01*
X42855640Y-123145253D01*
X42855640Y-123240491D01*
D11*
X23299822Y-130704148D02*
X22990299Y-131570815D01*
X22680775Y-130704148D01*
X22247441Y-130394624D02*
X22185537Y-130332720D01*
X22061727Y-130270815D01*
X21752203Y-130270815D01*
X21628394Y-130332720D01*
X21566489Y-130394624D01*
X21504584Y-130518434D01*
X21504584Y-130642243D01*
X21566489Y-130827958D01*
X22309346Y-131570815D01*
X21504584Y-131570815D01*
X20947441Y-131447005D02*
X20885537Y-131508910D01*
X20947441Y-131570815D01*
X21009346Y-131508910D01*
X20947441Y-131447005D01*
X20947441Y-131570815D01*
X20080775Y-130270815D02*
X19956965Y-130270815D01*
X19833156Y-130332720D01*
X19771251Y-130394624D01*
X19709346Y-130518434D01*
X19647441Y-130766053D01*
X19647441Y-131075577D01*
X19709346Y-131323196D01*
X19771251Y-131447005D01*
X19833156Y-131508910D01*
X19956965Y-131570815D01*
X20080775Y-131570815D01*
X20204584Y-131508910D01*
X20266489Y-131447005D01*
X20328394Y-131323196D01*
X20390299Y-131075577D01*
X20390299Y-130766053D01*
X20328394Y-130518434D01*
X20266489Y-130394624D01*
X20204584Y-130332720D01*
X20080775Y-130270815D01*
D10*
X47505000Y-71513000D02*
X47371666Y-71979666D01*
X47238333Y-71646333D01*
X47105000Y-71979666D01*
X46971666Y-71513000D01*
X46705000Y-71979666D02*
X46705000Y-71513000D01*
X46705000Y-71646333D02*
X46671666Y-71579666D01*
X46638333Y-71546333D01*
X46571666Y-71513000D01*
X46505000Y-71513000D01*
X46271666Y-71979666D02*
X46271666Y-71513000D01*
X46271666Y-71279666D02*
X46305000Y-71313000D01*
X46271666Y-71346333D01*
X46238333Y-71313000D01*
X46271666Y-71279666D01*
X46271666Y-71346333D01*
X46038333Y-71513000D02*
X45771666Y-71513000D01*
X45938333Y-71279666D02*
X45938333Y-71879666D01*
X45905000Y-71946333D01*
X45838333Y-71979666D01*
X45771666Y-71979666D01*
X45271666Y-71946333D02*
X45338333Y-71979666D01*
X45471666Y-71979666D01*
X45538333Y-71946333D01*
X45571666Y-71879666D01*
X45571666Y-71613000D01*
X45538333Y-71546333D01*
X45471666Y-71513000D01*
X45338333Y-71513000D01*
X45271666Y-71546333D01*
X45238333Y-71613000D01*
X45238333Y-71679666D01*
X45571666Y-71746333D01*
X49071666Y-73146333D02*
X49005000Y-73179666D01*
X48871666Y-73179666D01*
X48805000Y-73146333D01*
X48771666Y-73079666D01*
X48771666Y-73046333D01*
X48805000Y-72979666D01*
X48871666Y-72946333D01*
X48971666Y-72946333D01*
X49038333Y-72913000D01*
X49071666Y-72846333D01*
X49071666Y-72813000D01*
X49038333Y-72746333D01*
X48971666Y-72713000D01*
X48871666Y-72713000D01*
X48805000Y-72746333D01*
X48371666Y-73179666D02*
X48438333Y-73146333D01*
X48471666Y-73113000D01*
X48505000Y-73046333D01*
X48505000Y-72846333D01*
X48471666Y-72779666D01*
X48438333Y-72746333D01*
X48371666Y-72713000D01*
X48271666Y-72713000D01*
X48205000Y-72746333D01*
X48171666Y-72779666D01*
X48138333Y-72846333D01*
X48138333Y-73046333D01*
X48171666Y-73113000D01*
X48205000Y-73146333D01*
X48271666Y-73179666D01*
X48371666Y-73179666D01*
X47838333Y-73179666D02*
X47838333Y-72713000D01*
X47838333Y-72779666D02*
X47805000Y-72746333D01*
X47738333Y-72713000D01*
X47638333Y-72713000D01*
X47571666Y-72746333D01*
X47538333Y-72813000D01*
X47538333Y-73179666D01*
X47538333Y-72813000D02*
X47505000Y-72746333D01*
X47438333Y-72713000D01*
X47338333Y-72713000D01*
X47271666Y-72746333D01*
X47238333Y-72813000D01*
X47238333Y-73179666D01*
X46638333Y-73146333D02*
X46705000Y-73179666D01*
X46838333Y-73179666D01*
X46905000Y-73146333D01*
X46938333Y-73079666D01*
X46938333Y-72813000D01*
X46905000Y-72746333D01*
X46838333Y-72713000D01*
X46705000Y-72713000D01*
X46638333Y-72746333D01*
X46605000Y-72813000D01*
X46605000Y-72879666D01*
X46938333Y-72946333D01*
X46405000Y-72713000D02*
X46138333Y-72713000D01*
X46305000Y-72479666D02*
X46305000Y-73079666D01*
X46271666Y-73146333D01*
X46205000Y-73179666D01*
X46138333Y-73179666D01*
X45905000Y-73179666D02*
X45905000Y-72479666D01*
X45605000Y-73179666D02*
X45605000Y-72813000D01*
X45638333Y-72746333D01*
X45705000Y-72713000D01*
X45805000Y-72713000D01*
X45871666Y-72746333D01*
X45905000Y-72779666D01*
X45271666Y-73179666D02*
X45271666Y-72713000D01*
X45271666Y-72479666D02*
X45305000Y-72513000D01*
X45271666Y-72546333D01*
X45238333Y-72513000D01*
X45271666Y-72479666D01*
X45271666Y-72546333D01*
X44938333Y-72713000D02*
X44938333Y-73179666D01*
X44938333Y-72779666D02*
X44905000Y-72746333D01*
X44838333Y-72713000D01*
X44738333Y-72713000D01*
X44671666Y-72746333D01*
X44638333Y-72813000D01*
X44638333Y-73179666D01*
X44005000Y-72713000D02*
X44005000Y-73279666D01*
X44038333Y-73346333D01*
X44071666Y-73379666D01*
X44138333Y-73413000D01*
X44238333Y-73413000D01*
X44305000Y-73379666D01*
X44005000Y-73146333D02*
X44071666Y-73179666D01*
X44205000Y-73179666D01*
X44271666Y-73146333D01*
X44305000Y-73113000D01*
X44338333Y-73046333D01*
X44338333Y-72846333D01*
X44305000Y-72779666D01*
X44271666Y-72746333D01*
X44205000Y-72713000D01*
X44071666Y-72713000D01*
X44005000Y-72746333D01*
X43671666Y-73113000D02*
X43638333Y-73146333D01*
X43671666Y-73179666D01*
X43705000Y-73146333D01*
X43671666Y-73113000D01*
X43671666Y-73179666D01*
X43671666Y-72746333D02*
X43638333Y-72779666D01*
X43671666Y-72813000D01*
X43705000Y-72779666D01*
X43671666Y-72746333D01*
X43671666Y-72813000D01*
D12*
G36*
X43042840Y-74041000D02*
G01*
X25019000Y-74041000D01*
X25019000Y-70307200D01*
X43042840Y-70307200D01*
X43042840Y-74041000D01*
G37*
X43042840Y-74041000D02*
X25019000Y-74041000D01*
X25019000Y-70307200D01*
X43042840Y-70307200D01*
X43042840Y-74041000D01*
D13*
X25062310Y-140302931D02*
X24562310Y-140302931D01*
X24752786Y-140302931D02*
X24728977Y-140350550D01*
X24728977Y-140445788D01*
X24752786Y-140493407D01*
X24776596Y-140517217D01*
X24824215Y-140541026D01*
X24967072Y-140541026D01*
X25014691Y-140517217D01*
X25038500Y-140493407D01*
X25062310Y-140445788D01*
X25062310Y-140350550D01*
X25038500Y-140302931D01*
X24728977Y-140969598D02*
X25062310Y-140969598D01*
X24728977Y-140755312D02*
X24990881Y-140755312D01*
X25038500Y-140779121D01*
X25062310Y-140826740D01*
X25062310Y-140898169D01*
X25038500Y-140945788D01*
X25014691Y-140969598D01*
X24728977Y-141207693D02*
X25062310Y-141207693D01*
X24776596Y-141207693D02*
X24752786Y-141231502D01*
X24728977Y-141279121D01*
X24728977Y-141350550D01*
X24752786Y-141398169D01*
X24800405Y-141421979D01*
X25062310Y-141421979D01*
X25038500Y-141874360D02*
X25062310Y-141826740D01*
X25062310Y-141731502D01*
X25038500Y-141683883D01*
X25014691Y-141660074D01*
X24967072Y-141636264D01*
X24824215Y-141636264D01*
X24776596Y-141660074D01*
X24752786Y-141683883D01*
X24728977Y-141731502D01*
X24728977Y-141826740D01*
X24752786Y-141874360D01*
X25062310Y-142088645D02*
X24562310Y-142088645D01*
X25062310Y-142302931D02*
X24800405Y-142302931D01*
X24752786Y-142279121D01*
X24728977Y-142231502D01*
X24728977Y-142160074D01*
X24752786Y-142112455D01*
X24776596Y-142088645D01*
X25062310Y-142993407D02*
X25038500Y-142945788D01*
X25014691Y-142921979D01*
X24967072Y-142898169D01*
X24824215Y-142898169D01*
X24776596Y-142921979D01*
X24752786Y-142945788D01*
X24728977Y-142993407D01*
X24728977Y-143064836D01*
X24752786Y-143112455D01*
X24776596Y-143136264D01*
X24824215Y-143160074D01*
X24967072Y-143160074D01*
X25014691Y-143136264D01*
X25038500Y-143112455D01*
X25062310Y-143064836D01*
X25062310Y-142993407D01*
X24728977Y-143302931D02*
X24728977Y-143493407D01*
X25062310Y-143374360D02*
X24633739Y-143374360D01*
X24586120Y-143398169D01*
X24562310Y-143445788D01*
X24562310Y-143493407D01*
X24728977Y-144041026D02*
X25062310Y-144041026D01*
X24776596Y-144041026D02*
X24752786Y-144064836D01*
X24728977Y-144112455D01*
X24728977Y-144183883D01*
X24752786Y-144231502D01*
X24800405Y-144255312D01*
X25062310Y-144255312D01*
X25062310Y-144564836D02*
X25038500Y-144517217D01*
X25014691Y-144493407D01*
X24967072Y-144469598D01*
X24824215Y-144469598D01*
X24776596Y-144493407D01*
X24752786Y-144517217D01*
X24728977Y-144564836D01*
X24728977Y-144636264D01*
X24752786Y-144683883D01*
X24776596Y-144707693D01*
X24824215Y-144731502D01*
X24967072Y-144731502D01*
X25014691Y-144707693D01*
X25038500Y-144683883D01*
X25062310Y-144636264D01*
X25062310Y-144564836D01*
X24728977Y-144874360D02*
X24728977Y-145064836D01*
X24562310Y-144945788D02*
X24990881Y-144945788D01*
X25038500Y-144969598D01*
X25062310Y-145017217D01*
X25062310Y-145064836D01*
X24728977Y-145826740D02*
X25062310Y-145826740D01*
X24728977Y-145612455D02*
X24990881Y-145612455D01*
X25038500Y-145636264D01*
X25062310Y-145683883D01*
X25062310Y-145755312D01*
X25038500Y-145802931D01*
X25014691Y-145826740D01*
X25038500Y-146041026D02*
X25062310Y-146088645D01*
X25062310Y-146183883D01*
X25038500Y-146231502D01*
X24990881Y-146255312D01*
X24967072Y-146255312D01*
X24919453Y-146231502D01*
X24895643Y-146183883D01*
X24895643Y-146112455D01*
X24871834Y-146064836D01*
X24824215Y-146041026D01*
X24800405Y-146041026D01*
X24752786Y-146064836D01*
X24728977Y-146112455D01*
X24728977Y-146183883D01*
X24752786Y-146231502D01*
X25038500Y-146660074D02*
X25062310Y-146612455D01*
X25062310Y-146517217D01*
X25038500Y-146469598D01*
X24990881Y-146445788D01*
X24800405Y-146445788D01*
X24752786Y-146469598D01*
X24728977Y-146517217D01*
X24728977Y-146612455D01*
X24752786Y-146660074D01*
X24800405Y-146683883D01*
X24848024Y-146683883D01*
X24895643Y-146445788D01*
X25062310Y-147112455D02*
X24562310Y-147112455D01*
X25038500Y-147112455D02*
X25062310Y-147064836D01*
X25062310Y-146969598D01*
X25038500Y-146921979D01*
X25014691Y-146898169D01*
X24967072Y-146874360D01*
X24824215Y-146874360D01*
X24776596Y-146898169D01*
X24752786Y-146921979D01*
X24728977Y-146969598D01*
X24728977Y-147064836D01*
X24752786Y-147112455D01*
X24728977Y-147945788D02*
X25133739Y-147945788D01*
X25181358Y-147921979D01*
X25205167Y-147898169D01*
X25228977Y-147850550D01*
X25228977Y-147779121D01*
X25205167Y-147731502D01*
X25038500Y-147945788D02*
X25062310Y-147898169D01*
X25062310Y-147802931D01*
X25038500Y-147755312D01*
X25014691Y-147731502D01*
X24967072Y-147707693D01*
X24824215Y-147707693D01*
X24776596Y-147731502D01*
X24752786Y-147755312D01*
X24728977Y-147802931D01*
X24728977Y-147898169D01*
X24752786Y-147945788D01*
X24728977Y-148183883D02*
X25228977Y-148183883D01*
X24752786Y-148183883D02*
X24728977Y-148231502D01*
X24728977Y-148326740D01*
X24752786Y-148374360D01*
X24776596Y-148398169D01*
X24824215Y-148421979D01*
X24967072Y-148421979D01*
X25014691Y-148398169D01*
X25038500Y-148374360D01*
X25062310Y-148326740D01*
X25062310Y-148231502D01*
X25038500Y-148183883D01*
X25062310Y-148636264D02*
X24728977Y-148636264D01*
X24562310Y-148636264D02*
X24586120Y-148612455D01*
X24609929Y-148636264D01*
X24586120Y-148660074D01*
X24562310Y-148636264D01*
X24609929Y-148636264D01*
X25062310Y-148945788D02*
X25038500Y-148898169D01*
X25014691Y-148874360D01*
X24967072Y-148850550D01*
X24824215Y-148850550D01*
X24776596Y-148874360D01*
X24752786Y-148898169D01*
X24728977Y-148945788D01*
X24728977Y-149017217D01*
X24752786Y-149064836D01*
X24776596Y-149088645D01*
X24824215Y-149112455D01*
X24967072Y-149112455D01*
X25014691Y-149088645D01*
X25038500Y-149064836D01*
X25062310Y-149017217D01*
X25062310Y-148945788D01*
X25038500Y-149302931D02*
X25062310Y-149350550D01*
X25062310Y-149445788D01*
X25038500Y-149493407D01*
X24990881Y-149517217D01*
X24967072Y-149517217D01*
X24919453Y-149493407D01*
X24895643Y-149445788D01*
X24895643Y-149374360D01*
X24871834Y-149326740D01*
X24824215Y-149302931D01*
X24800405Y-149302931D01*
X24752786Y-149326740D01*
X24728977Y-149374360D01*
X24728977Y-149445788D01*
X24752786Y-149493407D01*
X25038500Y-150136264D02*
X25062310Y-150136264D01*
X25109929Y-150112455D01*
X25133739Y-150088645D01*
X24752786Y-150112455D02*
X24776596Y-150136264D01*
X24800405Y-150112455D01*
X24776596Y-150088645D01*
X24752786Y-150112455D01*
X24800405Y-150112455D01*
X25252786Y-150302931D02*
X25228977Y-150326740D01*
X25157548Y-150374360D01*
X25109929Y-150398169D01*
X25038500Y-150421979D01*
X24919453Y-150445788D01*
X24824215Y-150445788D01*
X24705167Y-150421979D01*
X24633739Y-150398169D01*
X24586120Y-150374360D01*
X24514691Y-150326740D01*
X24490881Y-150302931D01*
D12*
G36*
X47244000Y-130098800D02*
G01*
X40132000Y-130098800D01*
X40132000Y-126949200D01*
X47244000Y-126949200D01*
X47244000Y-130098800D01*
G37*
X47244000Y-130098800D02*
X40132000Y-130098800D01*
X40132000Y-126949200D01*
X47244000Y-126949200D01*
X47244000Y-130098800D01*
G36*
X47244000Y-126898400D02*
G01*
X40132000Y-126923800D01*
X40132000Y-124536200D01*
X47244000Y-124510800D01*
X47244000Y-126898400D01*
G37*
X47244000Y-126898400D02*
X40132000Y-126923800D01*
X40132000Y-124536200D01*
X47244000Y-124510800D01*
X47244000Y-126898400D01*
D14*
X39459466Y-114867766D02*
X39459466Y-114167766D01*
X39192800Y-114167766D01*
X39126133Y-114201100D01*
X39092800Y-114234433D01*
X39059466Y-114301100D01*
X39059466Y-114401100D01*
X39092800Y-114467766D01*
X39126133Y-114501100D01*
X39192800Y-114534433D01*
X39459466Y-114534433D01*
X38459466Y-114834433D02*
X38526133Y-114867766D01*
X38659466Y-114867766D01*
X38726133Y-114834433D01*
X38759466Y-114801100D01*
X38792800Y-114734433D01*
X38792800Y-114534433D01*
X38759466Y-114467766D01*
X38726133Y-114434433D01*
X38659466Y-114401100D01*
X38526133Y-114401100D01*
X38459466Y-114434433D01*
X38159466Y-114867766D02*
X38159466Y-114167766D01*
X38159466Y-114434433D02*
X38092800Y-114401100D01*
X37959466Y-114401100D01*
X37892800Y-114434433D01*
X37859466Y-114467766D01*
X37826133Y-114534433D01*
X37826133Y-114734433D01*
X37859466Y-114801100D01*
X37892800Y-114834433D01*
X37959466Y-114867766D01*
X38092800Y-114867766D01*
X38159466Y-114834433D01*
X36992800Y-114867766D02*
X36992800Y-114167766D01*
X36992800Y-114434433D02*
X36926133Y-114401100D01*
X36792800Y-114401100D01*
X36726133Y-114434433D01*
X36692800Y-114467766D01*
X36659466Y-114534433D01*
X36659466Y-114734433D01*
X36692800Y-114801100D01*
X36726133Y-114834433D01*
X36792800Y-114867766D01*
X36926133Y-114867766D01*
X36992800Y-114834433D01*
X36426133Y-114401100D02*
X36259466Y-114867766D01*
X36092800Y-114401100D02*
X36259466Y-114867766D01*
X36326133Y-115034433D01*
X36359466Y-115067766D01*
X36426133Y-115101100D01*
X35826133Y-114801100D02*
X35792800Y-114834433D01*
X35826133Y-114867766D01*
X35859466Y-114834433D01*
X35826133Y-114801100D01*
X35826133Y-114867766D01*
X35826133Y-114434433D02*
X35792800Y-114467766D01*
X35826133Y-114501100D01*
X35859466Y-114467766D01*
X35826133Y-114434433D01*
X35826133Y-114501100D01*
X41626133Y-116092766D02*
X41626133Y-115392766D01*
X41226133Y-116092766D01*
X41226133Y-115392766D01*
X40892800Y-116092766D02*
X40892800Y-115626100D01*
X40892800Y-115392766D02*
X40926133Y-115426100D01*
X40892800Y-115459433D01*
X40859466Y-115426100D01*
X40892800Y-115392766D01*
X40892800Y-115459433D01*
X40559466Y-116092766D02*
X40559466Y-115392766D01*
X40492800Y-115826100D02*
X40292800Y-116092766D01*
X40292800Y-115626100D02*
X40559466Y-115892766D01*
X39892800Y-116092766D02*
X39959466Y-116059433D01*
X39992800Y-116026100D01*
X40026133Y-115959433D01*
X40026133Y-115759433D01*
X39992800Y-115692766D01*
X39959466Y-115659433D01*
X39892800Y-115626100D01*
X39792800Y-115626100D01*
X39726133Y-115659433D01*
X39692800Y-115692766D01*
X39659466Y-115759433D01*
X39659466Y-115959433D01*
X39692800Y-116026100D01*
X39726133Y-116059433D01*
X39792800Y-116092766D01*
X39892800Y-116092766D01*
X39259466Y-116092766D02*
X39326133Y-116059433D01*
X39359466Y-115992766D01*
X39359466Y-115392766D01*
X38892800Y-116092766D02*
X38959466Y-116059433D01*
X38992800Y-116026100D01*
X39026133Y-115959433D01*
X39026133Y-115759433D01*
X38992800Y-115692766D01*
X38959466Y-115659433D01*
X38892800Y-115626100D01*
X38792800Y-115626100D01*
X38726133Y-115659433D01*
X38692800Y-115692766D01*
X38659466Y-115759433D01*
X38659466Y-115959433D01*
X38692800Y-116026100D01*
X38726133Y-116059433D01*
X38792800Y-116092766D01*
X38892800Y-116092766D01*
X38426133Y-115626100D02*
X38059466Y-115626100D01*
X38426133Y-116092766D01*
X38059466Y-116092766D01*
X37292800Y-116059433D02*
X37192800Y-116092766D01*
X37026133Y-116092766D01*
X36959466Y-116059433D01*
X36926133Y-116026100D01*
X36892800Y-115959433D01*
X36892800Y-115892766D01*
X36926133Y-115826100D01*
X36959466Y-115792766D01*
X37026133Y-115759433D01*
X37159466Y-115726100D01*
X37226133Y-115692766D01*
X37259466Y-115659433D01*
X37292800Y-115592766D01*
X37292800Y-115526100D01*
X37259466Y-115459433D01*
X37226133Y-115426100D01*
X37159466Y-115392766D01*
X36992800Y-115392766D01*
X36892800Y-115426100D01*
X36459466Y-115392766D02*
X36326133Y-115392766D01*
X36259466Y-115426100D01*
X36192800Y-115492766D01*
X36159466Y-115626100D01*
X36159466Y-115859433D01*
X36192800Y-115992766D01*
X36259466Y-116059433D01*
X36326133Y-116092766D01*
X36459466Y-116092766D01*
X36526133Y-116059433D01*
X36592800Y-115992766D01*
X36626133Y-115859433D01*
X36626133Y-115626100D01*
X36592800Y-115492766D01*
X36526133Y-115426100D01*
X36459466Y-115392766D01*
X35926133Y-115392766D02*
X35492800Y-115392766D01*
X35726133Y-115659433D01*
X35626133Y-115659433D01*
X35559466Y-115692766D01*
X35526133Y-115726100D01*
X35492800Y-115792766D01*
X35492800Y-115959433D01*
X35526133Y-116026100D01*
X35559466Y-116059433D01*
X35626133Y-116092766D01*
X35826133Y-116092766D01*
X35892800Y-116059433D01*
X35926133Y-116026100D01*
X35226133Y-115892766D02*
X34892800Y-115892766D01*
X35292800Y-116092766D02*
X35059466Y-115392766D01*
X34826133Y-116092766D01*
X34259466Y-116092766D02*
X34592800Y-116092766D01*
X34592800Y-115392766D01*
X33659466Y-115426100D02*
X33726133Y-115392766D01*
X33826133Y-115392766D01*
X33926133Y-115426100D01*
X33992800Y-115492766D01*
X34026133Y-115559433D01*
X34059466Y-115692766D01*
X34059466Y-115792766D01*
X34026133Y-115926100D01*
X33992800Y-115992766D01*
X33926133Y-116059433D01*
X33826133Y-116092766D01*
X33759466Y-116092766D01*
X33659466Y-116059433D01*
X33626133Y-116026100D01*
X33626133Y-115792766D01*
X33759466Y-115792766D01*
D15*
X27305000Y-92456000D02*
X27305000Y-112522000D01*
X27686000Y-92456000D02*
X27305000Y-92456000D01*
X28067000Y-92456000D02*
X27686000Y-92456000D01*
X28829000Y-92456000D02*
X28067000Y-92456000D01*
X47244000Y-92456000D02*
X28829000Y-92456000D01*
X47244000Y-112522000D02*
X47244000Y-92456000D01*
X27305000Y-112522000D02*
X47244000Y-112522000D01*
D16*
X28166495Y-127202398D02*
X26909352Y-127202398D01*
X27537923Y-129402398D02*
X27537923Y-127202398D01*
X24918876Y-129402398D02*
X25652209Y-128354779D01*
X26176019Y-129402398D02*
X26176019Y-127202398D01*
X25337923Y-127202398D01*
X25128400Y-127307160D01*
X25023638Y-127411921D01*
X24918876Y-127621445D01*
X24918876Y-127935731D01*
X25023638Y-128145255D01*
X25128400Y-128250017D01*
X25337923Y-128354779D01*
X26176019Y-128354779D01*
X23976019Y-128564302D02*
X22299828Y-128564302D01*
X21147447Y-129402398D02*
X20728400Y-129402398D01*
X20518876Y-129297636D01*
X20414114Y-129192874D01*
X20204590Y-128878588D01*
X20099828Y-128459540D01*
X20099828Y-127621445D01*
X20204590Y-127411921D01*
X20309352Y-127307160D01*
X20518876Y-127202398D01*
X20937923Y-127202398D01*
X21147447Y-127307160D01*
X21252209Y-127411921D01*
X21356971Y-127621445D01*
X21356971Y-128145255D01*
X21252209Y-128354779D01*
X21147447Y-128459540D01*
X20937923Y-128564302D01*
X20518876Y-128564302D01*
X20309352Y-128459540D01*
X20204590Y-128354779D01*
X20099828Y-128145255D01*
D11*
X29987348Y-126434935D02*
X29987348Y-125134935D01*
X29554015Y-126063506D01*
X29120681Y-125134935D01*
X29120681Y-126434935D01*
X27820681Y-126434935D02*
X28563539Y-126434935D01*
X28192110Y-126434935D02*
X28192110Y-125134935D01*
X28315920Y-125320649D01*
X28439729Y-125444459D01*
X28563539Y-125506363D01*
X27387348Y-125134935D02*
X26520681Y-125134935D01*
X27077824Y-126434935D01*
D14*
X39702133Y-117422333D02*
X39602133Y-117455666D01*
X39435466Y-117455666D01*
X39368800Y-117422333D01*
X39335466Y-117389000D01*
X39302133Y-117322333D01*
X39302133Y-117255666D01*
X39335466Y-117189000D01*
X39368800Y-117155666D01*
X39435466Y-117122333D01*
X39568800Y-117089000D01*
X39635466Y-117055666D01*
X39668800Y-117022333D01*
X39702133Y-116955666D01*
X39702133Y-116889000D01*
X39668800Y-116822333D01*
X39635466Y-116789000D01*
X39568800Y-116755666D01*
X39402133Y-116755666D01*
X39302133Y-116789000D01*
X38702133Y-117422333D02*
X38768800Y-117455666D01*
X38902133Y-117455666D01*
X38968800Y-117422333D01*
X39002133Y-117389000D01*
X39035466Y-117322333D01*
X39035466Y-117122333D01*
X39002133Y-117055666D01*
X38968800Y-117022333D01*
X38902133Y-116989000D01*
X38768800Y-116989000D01*
X38702133Y-117022333D01*
X38402133Y-117455666D02*
X38402133Y-116755666D01*
X38102133Y-117455666D02*
X38102133Y-117089000D01*
X38135466Y-117022333D01*
X38202133Y-116989000D01*
X38302133Y-116989000D01*
X38368800Y-117022333D01*
X38402133Y-117055666D01*
X37502133Y-117422333D02*
X37568800Y-117455666D01*
X37702133Y-117455666D01*
X37768800Y-117422333D01*
X37802133Y-117355666D01*
X37802133Y-117089000D01*
X37768800Y-117022333D01*
X37702133Y-116989000D01*
X37568800Y-116989000D01*
X37502133Y-117022333D01*
X37468800Y-117089000D01*
X37468800Y-117155666D01*
X37802133Y-117222333D01*
X37168800Y-117455666D02*
X37168800Y-116989000D01*
X37168800Y-117055666D02*
X37135466Y-117022333D01*
X37068800Y-116989000D01*
X36968800Y-116989000D01*
X36902133Y-117022333D01*
X36868800Y-117089000D01*
X36868800Y-117455666D01*
X36868800Y-117089000D02*
X36835466Y-117022333D01*
X36768800Y-116989000D01*
X36668800Y-116989000D01*
X36602133Y-117022333D01*
X36568800Y-117089000D01*
X36568800Y-117455666D01*
X35935466Y-117455666D02*
X35935466Y-117089000D01*
X35968800Y-117022333D01*
X36035466Y-116989000D01*
X36168800Y-116989000D01*
X36235466Y-117022333D01*
X35935466Y-117422333D02*
X36002133Y-117455666D01*
X36168800Y-117455666D01*
X36235466Y-117422333D01*
X36268800Y-117355666D01*
X36268800Y-117289000D01*
X36235466Y-117222333D01*
X36168800Y-117189000D01*
X36002133Y-117189000D01*
X35935466Y-117155666D01*
X35702133Y-116989000D02*
X35435466Y-116989000D01*
X35602133Y-116755666D02*
X35602133Y-117355666D01*
X35568800Y-117422333D01*
X35502133Y-117455666D01*
X35435466Y-117455666D01*
X35202133Y-117455666D02*
X35202133Y-116989000D01*
X35202133Y-116755666D02*
X35235466Y-116789000D01*
X35202133Y-116822333D01*
X35168800Y-116789000D01*
X35202133Y-116755666D01*
X35202133Y-116822333D01*
X34568800Y-117422333D02*
X34635466Y-117455666D01*
X34768800Y-117455666D01*
X34835466Y-117422333D01*
X34868800Y-117389000D01*
X34902133Y-117322333D01*
X34902133Y-117122333D01*
X34868800Y-117055666D01*
X34835466Y-117022333D01*
X34768800Y-116989000D01*
X34635466Y-116989000D01*
X34568800Y-117022333D01*
X33735466Y-117455666D02*
X33735466Y-116755666D01*
X33735466Y-117022333D02*
X33668800Y-116989000D01*
X33535466Y-116989000D01*
X33468800Y-117022333D01*
X33435466Y-117055666D01*
X33402133Y-117122333D01*
X33402133Y-117322333D01*
X33435466Y-117389000D01*
X33468800Y-117422333D01*
X33535466Y-117455666D01*
X33668800Y-117455666D01*
X33735466Y-117422333D01*
X33168800Y-116989000D02*
X33002133Y-117455666D01*
X32835466Y-116989000D02*
X33002133Y-117455666D01*
X33068800Y-117622333D01*
X33102133Y-117655666D01*
X33168800Y-117689000D01*
X32568800Y-117389000D02*
X32535466Y-117422333D01*
X32568800Y-117455666D01*
X32602133Y-117422333D01*
X32568800Y-117389000D01*
X32568800Y-117455666D01*
X32568800Y-117022333D02*
X32535466Y-117055666D01*
X32568800Y-117089000D01*
X32602133Y-117055666D01*
X32568800Y-117022333D01*
X32568800Y-117089000D01*
X40285466Y-117980666D02*
X40118800Y-118680666D01*
X39985466Y-118180666D01*
X39852133Y-118680666D01*
X39685466Y-117980666D01*
X39318800Y-118680666D02*
X39385466Y-118647333D01*
X39418800Y-118614000D01*
X39452133Y-118547333D01*
X39452133Y-118347333D01*
X39418800Y-118280666D01*
X39385466Y-118247333D01*
X39318800Y-118214000D01*
X39218800Y-118214000D01*
X39152133Y-118247333D01*
X39118800Y-118280666D01*
X39085466Y-118347333D01*
X39085466Y-118547333D01*
X39118800Y-118614000D01*
X39152133Y-118647333D01*
X39218800Y-118680666D01*
X39318800Y-118680666D01*
X38785466Y-118214000D02*
X38785466Y-118814000D01*
X38818800Y-118880666D01*
X38885466Y-118914000D01*
X38918800Y-118914000D01*
X38785466Y-117980666D02*
X38818800Y-118014000D01*
X38785466Y-118047333D01*
X38752133Y-118014000D01*
X38785466Y-117980666D01*
X38785466Y-118047333D01*
X38552133Y-118214000D02*
X38285466Y-118214000D01*
X38452133Y-117980666D02*
X38452133Y-118580666D01*
X38418800Y-118647333D01*
X38352133Y-118680666D01*
X38285466Y-118680666D01*
X37785466Y-118647333D02*
X37852133Y-118680666D01*
X37985466Y-118680666D01*
X38052133Y-118647333D01*
X38085466Y-118580666D01*
X38085466Y-118314000D01*
X38052133Y-118247333D01*
X37985466Y-118214000D01*
X37852133Y-118214000D01*
X37785466Y-118247333D01*
X37752133Y-118314000D01*
X37752133Y-118380666D01*
X38085466Y-118447333D01*
X37452133Y-118680666D02*
X37452133Y-117980666D01*
X37385466Y-118414000D02*
X37185466Y-118680666D01*
X37185466Y-118214000D02*
X37452133Y-118480666D01*
X36385466Y-118647333D02*
X36285466Y-118680666D01*
X36118800Y-118680666D01*
X36052133Y-118647333D01*
X36018800Y-118614000D01*
X35985466Y-118547333D01*
X35985466Y-118480666D01*
X36018800Y-118414000D01*
X36052133Y-118380666D01*
X36118800Y-118347333D01*
X36252133Y-118314000D01*
X36318800Y-118280666D01*
X36352133Y-118247333D01*
X36385466Y-118180666D01*
X36385466Y-118114000D01*
X36352133Y-118047333D01*
X36318800Y-118014000D01*
X36252133Y-117980666D01*
X36085466Y-117980666D01*
X35985466Y-118014000D01*
X35685466Y-118680666D02*
X35685466Y-117980666D01*
X35418800Y-117980666D01*
X35352133Y-118014000D01*
X35318800Y-118047333D01*
X35285466Y-118114000D01*
X35285466Y-118214000D01*
X35318800Y-118280666D01*
X35352133Y-118314000D01*
X35418800Y-118347333D01*
X35685466Y-118347333D01*
X34652133Y-117980666D02*
X34985466Y-117980666D01*
X35018800Y-118314000D01*
X34985466Y-118280666D01*
X34918800Y-118247333D01*
X34752133Y-118247333D01*
X34685466Y-118280666D01*
X34652133Y-118314000D01*
X34618800Y-118380666D01*
X34618800Y-118547333D01*
X34652133Y-118614000D01*
X34685466Y-118647333D01*
X34752133Y-118680666D01*
X34918800Y-118680666D01*
X34985466Y-118647333D01*
X35018800Y-118614000D01*
X34385466Y-117980666D02*
X34218800Y-118680666D01*
X34085466Y-118180666D01*
X33952133Y-118680666D01*
X33785466Y-117980666D01*
X33585466Y-117980666D02*
X33418800Y-118680666D01*
X33285466Y-118180666D01*
X33152133Y-118680666D01*
X32985466Y-117980666D01*
X32718800Y-118680666D02*
X32718800Y-117980666D01*
X32452133Y-117980666D01*
X32385466Y-118014000D01*
X32352133Y-118047333D01*
X32318800Y-118114000D01*
X32318800Y-118214000D01*
X32352133Y-118280666D01*
X32385466Y-118314000D01*
X32452133Y-118347333D01*
X32718800Y-118347333D01*
X31985466Y-118647333D02*
X31985466Y-118680666D01*
X32018800Y-118747333D01*
X32052133Y-118780666D01*
X41602133Y-119905666D02*
X41602133Y-119205666D01*
X41368800Y-119705666D01*
X41135466Y-119205666D01*
X41135466Y-119905666D01*
X40502133Y-119905666D02*
X40502133Y-119539000D01*
X40535466Y-119472333D01*
X40602133Y-119439000D01*
X40735466Y-119439000D01*
X40802133Y-119472333D01*
X40502133Y-119872333D02*
X40568800Y-119905666D01*
X40735466Y-119905666D01*
X40802133Y-119872333D01*
X40835466Y-119805666D01*
X40835466Y-119739000D01*
X40802133Y-119672333D01*
X40735466Y-119639000D01*
X40568800Y-119639000D01*
X40502133Y-119605666D01*
X40268800Y-119439000D02*
X40002133Y-119439000D01*
X40168800Y-119205666D02*
X40168800Y-119805666D01*
X40135466Y-119872333D01*
X40068800Y-119905666D01*
X40002133Y-119905666D01*
X39768800Y-119905666D02*
X39768800Y-119205666D01*
X39468800Y-119905666D02*
X39468800Y-119539000D01*
X39502133Y-119472333D01*
X39568800Y-119439000D01*
X39668800Y-119439000D01*
X39735466Y-119472333D01*
X39768800Y-119505666D01*
X39135466Y-119905666D02*
X39135466Y-119439000D01*
X39135466Y-119205666D02*
X39168800Y-119239000D01*
X39135466Y-119272333D01*
X39102133Y-119239000D01*
X39135466Y-119205666D01*
X39135466Y-119272333D01*
X38835466Y-119872333D02*
X38768800Y-119905666D01*
X38635466Y-119905666D01*
X38568800Y-119872333D01*
X38535466Y-119805666D01*
X38535466Y-119772333D01*
X38568800Y-119705666D01*
X38635466Y-119672333D01*
X38735466Y-119672333D01*
X38802133Y-119639000D01*
X38835466Y-119572333D01*
X38835466Y-119539000D01*
X38802133Y-119472333D01*
X38735466Y-119439000D01*
X38635466Y-119439000D01*
X38568800Y-119472333D01*
X37702133Y-119905666D02*
X37702133Y-119205666D01*
X37535466Y-119205666D01*
X37435466Y-119239000D01*
X37368800Y-119305666D01*
X37335466Y-119372333D01*
X37302133Y-119505666D01*
X37302133Y-119605666D01*
X37335466Y-119739000D01*
X37368800Y-119805666D01*
X37435466Y-119872333D01*
X37535466Y-119905666D01*
X37702133Y-119905666D01*
X36768800Y-119539000D02*
X36668800Y-119572333D01*
X36635466Y-119605666D01*
X36602133Y-119672333D01*
X36602133Y-119772333D01*
X36635466Y-119839000D01*
X36668800Y-119872333D01*
X36735466Y-119905666D01*
X37002133Y-119905666D01*
X37002133Y-119205666D01*
X36768800Y-119205666D01*
X36702133Y-119239000D01*
X36668800Y-119272333D01*
X36635466Y-119339000D01*
X36635466Y-119405666D01*
X36668800Y-119472333D01*
X36702133Y-119505666D01*
X36768800Y-119539000D01*
X37002133Y-119539000D01*
X36268800Y-119905666D02*
X36135466Y-119905666D01*
X36068800Y-119872333D01*
X36035466Y-119839000D01*
X35968800Y-119739000D01*
X35935466Y-119605666D01*
X35935466Y-119339000D01*
X35968800Y-119272333D01*
X36002133Y-119239000D01*
X36068800Y-119205666D01*
X36202133Y-119205666D01*
X36268800Y-119239000D01*
X36302133Y-119272333D01*
X36335466Y-119339000D01*
X36335466Y-119505666D01*
X36302133Y-119572333D01*
X36268800Y-119605666D01*
X36202133Y-119639000D01*
X36068800Y-119639000D01*
X36002133Y-119605666D01*
X35968800Y-119572333D01*
X35935466Y-119505666D01*
X35635466Y-119905666D02*
X35635466Y-119205666D01*
X35402133Y-119705666D01*
X35168800Y-119205666D01*
X35168800Y-119905666D01*
X34868800Y-119705666D02*
X34535466Y-119705666D01*
X34935466Y-119905666D02*
X34702133Y-119205666D01*
X34468800Y-119905666D01*
X34335466Y-119205666D02*
X33935466Y-119205666D01*
X34135466Y-119905666D02*
X34135466Y-119205666D01*
X32902133Y-119872333D02*
X32968800Y-119905666D01*
X33102133Y-119905666D01*
X33168800Y-119872333D01*
X33202133Y-119805666D01*
X33202133Y-119539000D01*
X33168800Y-119472333D01*
X33102133Y-119439000D01*
X32968800Y-119439000D01*
X32902133Y-119472333D01*
X32868800Y-119539000D01*
X32868800Y-119605666D01*
X33202133Y-119672333D01*
X32668800Y-119439000D02*
X32402133Y-119439000D01*
X32568800Y-119205666D02*
X32568800Y-119805666D01*
X32535466Y-119872333D01*
X32468800Y-119905666D01*
X32402133Y-119905666D01*
X31335466Y-119905666D02*
X31335466Y-119539000D01*
X31368800Y-119472333D01*
X31435466Y-119439000D01*
X31568800Y-119439000D01*
X31635466Y-119472333D01*
X31335466Y-119872333D02*
X31402133Y-119905666D01*
X31568800Y-119905666D01*
X31635466Y-119872333D01*
X31668800Y-119805666D01*
X31668800Y-119739000D01*
X31635466Y-119672333D01*
X31568800Y-119639000D01*
X31402133Y-119639000D01*
X31335466Y-119605666D01*
X30902133Y-119905666D02*
X30968800Y-119872333D01*
X31002133Y-119805666D01*
X31002133Y-119205666D01*
X30635466Y-119839000D02*
X30602133Y-119872333D01*
X30635466Y-119905666D01*
X30668800Y-119872333D01*
X30635466Y-119839000D01*
X30635466Y-119905666D01*
D15*
X63349600Y-78348621D02*
X63349600Y-78674179D01*
X62329600Y-78348621D02*
X62329600Y-78674179D01*
X61800200Y-78348521D02*
X61800200Y-78674079D01*
X60780200Y-78348521D02*
X60780200Y-78674079D01*
X57860300Y-164658800D02*
G75*
G03*
X57860300Y-164658800I-2120000J0D01*
G01*
X57820300Y-164658800D02*
X53660300Y-164658800D01*
X57820300Y-164618800D02*
X53660300Y-164618800D01*
X57819300Y-164578800D02*
X53661300Y-164578800D01*
X57817300Y-164538800D02*
X53663300Y-164538800D01*
X57814300Y-164498800D02*
X53666300Y-164498800D01*
X57811300Y-164458800D02*
X56580300Y-164458800D01*
X54900300Y-164458800D02*
X53669300Y-164458800D01*
X57807300Y-164418800D02*
X56580300Y-164418800D01*
X54900300Y-164418800D02*
X53673300Y-164418800D01*
X57802300Y-164378800D02*
X56580300Y-164378800D01*
X54900300Y-164378800D02*
X53678300Y-164378800D01*
X57796300Y-164338800D02*
X56580300Y-164338800D01*
X54900300Y-164338800D02*
X53684300Y-164338800D01*
X57790300Y-164298800D02*
X56580300Y-164298800D01*
X54900300Y-164298800D02*
X53690300Y-164298800D01*
X57782300Y-164258800D02*
X56580300Y-164258800D01*
X54900300Y-164258800D02*
X53698300Y-164258800D01*
X57774300Y-164218800D02*
X56580300Y-164218800D01*
X54900300Y-164218800D02*
X53706300Y-164218800D01*
X57765300Y-164178800D02*
X56580300Y-164178800D01*
X54900300Y-164178800D02*
X53715300Y-164178800D01*
X57756300Y-164138800D02*
X56580300Y-164138800D01*
X54900300Y-164138800D02*
X53724300Y-164138800D01*
X57745300Y-164098800D02*
X56580300Y-164098800D01*
X54900300Y-164098800D02*
X53735300Y-164098800D01*
X57734300Y-164058800D02*
X56580300Y-164058800D01*
X54900300Y-164058800D02*
X53746300Y-164058800D01*
X57722300Y-164018800D02*
X56580300Y-164018800D01*
X54900300Y-164018800D02*
X53758300Y-164018800D01*
X57708300Y-163978800D02*
X56580300Y-163978800D01*
X54900300Y-163978800D02*
X53772300Y-163978800D01*
X57694300Y-163937800D02*
X56580300Y-163937800D01*
X54900300Y-163937800D02*
X53786300Y-163937800D01*
X57680300Y-163897800D02*
X56580300Y-163897800D01*
X54900300Y-163897800D02*
X53800300Y-163897800D01*
X57664300Y-163857800D02*
X56580300Y-163857800D01*
X54900300Y-163857800D02*
X53816300Y-163857800D01*
X57647300Y-163817800D02*
X56580300Y-163817800D01*
X54900300Y-163817800D02*
X53833300Y-163817800D01*
X57629300Y-163777800D02*
X56580300Y-163777800D01*
X54900300Y-163777800D02*
X53851300Y-163777800D01*
X57610300Y-163737800D02*
X56580300Y-163737800D01*
X54900300Y-163737800D02*
X53870300Y-163737800D01*
X57591300Y-163697800D02*
X56580300Y-163697800D01*
X54900300Y-163697800D02*
X53889300Y-163697800D01*
X57570300Y-163657800D02*
X56580300Y-163657800D01*
X54900300Y-163657800D02*
X53910300Y-163657800D01*
X57548300Y-163617800D02*
X56580300Y-163617800D01*
X54900300Y-163617800D02*
X53932300Y-163617800D01*
X57525300Y-163577800D02*
X56580300Y-163577800D01*
X54900300Y-163577800D02*
X53955300Y-163577800D01*
X57500300Y-163537800D02*
X56580300Y-163537800D01*
X54900300Y-163537800D02*
X53980300Y-163537800D01*
X57475300Y-163497800D02*
X56580300Y-163497800D01*
X54900300Y-163497800D02*
X54005300Y-163497800D01*
X57448300Y-163457800D02*
X56580300Y-163457800D01*
X54900300Y-163457800D02*
X54032300Y-163457800D01*
X57420300Y-163417800D02*
X56580300Y-163417800D01*
X54900300Y-163417800D02*
X54060300Y-163417800D01*
X57390300Y-163377800D02*
X56580300Y-163377800D01*
X54900300Y-163377800D02*
X54090300Y-163377800D01*
X57359300Y-163337800D02*
X56580300Y-163337800D01*
X54900300Y-163337800D02*
X54121300Y-163337800D01*
X57327300Y-163297800D02*
X56580300Y-163297800D01*
X54900300Y-163297800D02*
X54153300Y-163297800D01*
X57292300Y-163257800D02*
X56580300Y-163257800D01*
X54900300Y-163257800D02*
X54188300Y-163257800D01*
X57256300Y-163217800D02*
X56580300Y-163217800D01*
X54900300Y-163217800D02*
X54224300Y-163217800D01*
X57218300Y-163177800D02*
X56580300Y-163177800D01*
X54900300Y-163177800D02*
X54262300Y-163177800D01*
X57178300Y-163137800D02*
X56580300Y-163137800D01*
X54900300Y-163137800D02*
X54302300Y-163137800D01*
X57136300Y-163097800D02*
X56580300Y-163097800D01*
X54900300Y-163097800D02*
X54344300Y-163097800D01*
X57091300Y-163057800D02*
X56580300Y-163057800D01*
X54900300Y-163057800D02*
X54389300Y-163057800D01*
X57044300Y-163017800D02*
X56580300Y-163017800D01*
X54900300Y-163017800D02*
X54436300Y-163017800D01*
X56994300Y-162977800D02*
X56580300Y-162977800D01*
X54900300Y-162977800D02*
X54486300Y-162977800D01*
X56940300Y-162937800D02*
X56580300Y-162937800D01*
X54900300Y-162937800D02*
X54540300Y-162937800D01*
X56882300Y-162897800D02*
X56580300Y-162897800D01*
X54900300Y-162897800D02*
X54598300Y-162897800D01*
X56820300Y-162857800D02*
X56580300Y-162857800D01*
X54900300Y-162857800D02*
X54660300Y-162857800D01*
X56753300Y-162817800D02*
X54727300Y-162817800D01*
X56680300Y-162777800D02*
X54800300Y-162777800D01*
X56599300Y-162737800D02*
X54881300Y-162737800D01*
X56508300Y-162697800D02*
X54972300Y-162697800D01*
X56404300Y-162657800D02*
X55076300Y-162657800D01*
X56277300Y-162617800D02*
X55203300Y-162617800D01*
X56110300Y-162577800D02*
X55370300Y-162577800D01*
X56935300Y-166928601D02*
X56935300Y-166528601D01*
X57135300Y-166728601D02*
X56735300Y-166728601D01*
X34541800Y-140497000D02*
X34541800Y-139797000D01*
X34541800Y-139797000D02*
X35241800Y-139797000D01*
X34541800Y-153317000D02*
X34541800Y-154017000D01*
X34541800Y-154017000D02*
X35241800Y-154017000D01*
X48761800Y-140497000D02*
X48761800Y-139797000D01*
X48761800Y-139797000D02*
X48061800Y-139797000D01*
X48761800Y-153317000D02*
X48761800Y-154017000D01*
X48761800Y-154017000D02*
X48061800Y-154017000D01*
X48061800Y-154017000D02*
X48061800Y-155382000D01*
X49189600Y-83576200D02*
X51089600Y-83576200D01*
X51089600Y-83576200D02*
X51089600Y-81676200D01*
X51089600Y-81676200D02*
X49189600Y-81676200D01*
X49189600Y-81676200D02*
X49189600Y-83576200D01*
X56901200Y-123048300D02*
X55971200Y-123048300D01*
X53741200Y-123048300D02*
X54671200Y-123048300D01*
X53741200Y-123048300D02*
X53741200Y-120888300D01*
X56901200Y-123048300D02*
X56901200Y-121588300D01*
X32577000Y-148767800D02*
G75*
G03*
X32577000Y-148767800I-700000J0D01*
G01*
X31053000Y-148767800D02*
G75*
G03*
X31053000Y-148767800I-700000J0D01*
G01*
X29529000Y-148767800D02*
G75*
G03*
X29529000Y-148767800I-700000J0D01*
G01*
X53939221Y-120258300D02*
X54264779Y-120258300D01*
X53939221Y-119238300D02*
X54264779Y-119238300D01*
X31256200Y-142494000D02*
G75*
G03*
X31256200Y-142494000I-700000J0D01*
G01*
X29402000Y-142519400D02*
G75*
G03*
X29402000Y-142519400I-700000J0D01*
G01*
X31256200Y-144170400D02*
G75*
G03*
X31256200Y-144170400I-700000J0D01*
G01*
X29427400Y-144170400D02*
G75*
G03*
X29427400Y-144170400I-700000J0D01*
G01*
X52766500Y-108409621D02*
X52766500Y-108735179D01*
X53786500Y-108409621D02*
X53786500Y-108735179D01*
X51318700Y-107596821D02*
X51318700Y-107922379D01*
X52338700Y-107596821D02*
X52338700Y-107922379D01*
X42801000Y-169022079D02*
X42801000Y-168696521D01*
X41781000Y-169022079D02*
X41781000Y-168696521D01*
X31930021Y-109869700D02*
X32255579Y-109869700D01*
X31930021Y-108849700D02*
X32255579Y-108849700D01*
X34927221Y-109882400D02*
X35252779Y-109882400D01*
X34927221Y-108862400D02*
X35252779Y-108862400D01*
X35240279Y-111186500D02*
X34914721Y-111186500D01*
X35240279Y-112206500D02*
X34914721Y-112206500D01*
X27861800Y-110225721D02*
X27861800Y-110551279D01*
X28881800Y-110225721D02*
X28881800Y-110551279D01*
X30393100Y-110284479D02*
X30393100Y-109958921D01*
X29373100Y-110284479D02*
X29373100Y-109958921D01*
X32255779Y-111211900D02*
X31930221Y-111211900D01*
X32255779Y-112231900D02*
X31930221Y-112231900D01*
X52516000Y-116001800D02*
G75*
G03*
X52516000Y-116001800I-700000J0D01*
G01*
X49087000Y-91249500D02*
G75*
G03*
X49087000Y-91249500I-700000J0D01*
G01*
X59501000Y-96012000D02*
G75*
G03*
X59501000Y-96012000I-700000J0D01*
G01*
X52897000Y-89281000D02*
G75*
G03*
X52897000Y-89281000I-700000J0D01*
G01*
X56961000Y-89789000D02*
G75*
G03*
X56961000Y-89789000I-700000J0D01*
G01*
X51262000Y-129917000D02*
X51262000Y-126007000D01*
X51262000Y-126007000D02*
X53132000Y-126007000D01*
X53132000Y-126007000D02*
X53132000Y-129917000D01*
X52344600Y-119460200D02*
X52344600Y-123370200D01*
X52344600Y-123370200D02*
X50474600Y-123370200D01*
X50474600Y-123370200D02*
X50474600Y-119460200D01*
X27917021Y-163539900D02*
X28242579Y-163539900D01*
X27917021Y-162519900D02*
X28242579Y-162519900D01*
X38200600Y-122496900D02*
X38200600Y-121696900D01*
X34760600Y-122496900D02*
X34760600Y-121696900D01*
X41979000Y-122497800D02*
X41979000Y-121697800D01*
X38539000Y-122497800D02*
X38539000Y-121697800D01*
X30086300Y-104254300D02*
X33838900Y-104254100D01*
X30086300Y-107175300D02*
X30086300Y-104254300D01*
X36623600Y-106005000D02*
X36623600Y-106480000D01*
X36623600Y-106480000D02*
X37098600Y-106480000D01*
X43843600Y-99735000D02*
X43843600Y-99260000D01*
X43843600Y-99260000D02*
X43368600Y-99260000D01*
X43843600Y-106005000D02*
X43843600Y-106480000D01*
X43843600Y-106480000D02*
X43368600Y-106480000D01*
X36623600Y-99735000D02*
X36623600Y-99260000D01*
X32700279Y-100480400D02*
X32374721Y-100480400D01*
X32700279Y-101500400D02*
X32374721Y-101500400D01*
X32687579Y-101953600D02*
X32362021Y-101953600D01*
X32687579Y-102973600D02*
X32362021Y-102973600D01*
X34584100Y-97203379D02*
X34584100Y-96877821D01*
X33564100Y-97203379D02*
X33564100Y-96877821D01*
X30554200Y-96560321D02*
X30554200Y-96885879D01*
X31574200Y-96560321D02*
X31574200Y-96885879D01*
X32052800Y-95366721D02*
X32052800Y-95692279D01*
X33072800Y-95366721D02*
X33072800Y-95692279D01*
X34186400Y-101119821D02*
X34186400Y-101445379D01*
X35206400Y-101119821D02*
X35206400Y-101445379D01*
X39893121Y-97957100D02*
X40218679Y-97957100D01*
X39893121Y-96937100D02*
X40218679Y-96937100D01*
X36946521Y-96877600D02*
X37272079Y-96877600D01*
X36946521Y-95857600D02*
X37272079Y-95857600D01*
X34351500Y-105234421D02*
X34351500Y-105559979D01*
X35371500Y-105234421D02*
X35371500Y-105559979D01*
X32700279Y-99019900D02*
X32374721Y-99019900D01*
X32700279Y-100039900D02*
X32374721Y-100039900D01*
X43525221Y-98528600D02*
X43850779Y-98528600D01*
X43525221Y-97508600D02*
X43850779Y-97508600D01*
X43525221Y-97055400D02*
X43850779Y-97055400D01*
X43525221Y-96035400D02*
X43850779Y-96035400D01*
X41327800Y-95412679D02*
X41327800Y-95087121D01*
X40307800Y-95412679D02*
X40307800Y-95087121D01*
X38910800Y-94820621D02*
X38910800Y-95146179D01*
X39930800Y-94820621D02*
X39930800Y-95146179D01*
X37209000Y-93982421D02*
X37209000Y-94307979D01*
X38229000Y-93982421D02*
X38229000Y-94307979D01*
X39380700Y-159400121D02*
X39380700Y-159725679D01*
X40400700Y-159400121D02*
X40400700Y-159725679D01*
X42560021Y-161546000D02*
X42885579Y-161546000D01*
X42560021Y-160526000D02*
X42885579Y-160526000D01*
X61579879Y-116520500D02*
X61254321Y-116520500D01*
X61579879Y-117540500D02*
X61254321Y-117540500D01*
X46531500Y-160812600D02*
X46531500Y-159882600D01*
X46531500Y-157652600D02*
X46531500Y-158582600D01*
X46531500Y-157652600D02*
X48691500Y-157652600D01*
X46531500Y-160812600D02*
X47991500Y-160812600D01*
X50251900Y-96306421D02*
X50251900Y-96631979D01*
X51271900Y-96306421D02*
X51271900Y-96631979D01*
X50226500Y-93309221D02*
X50226500Y-93634779D01*
X51246500Y-93309221D02*
X51246500Y-93634779D01*
X62060400Y-169182552D02*
X62060400Y-166410048D01*
X58640400Y-169182552D02*
X58640400Y-166410048D01*
X58070800Y-173309200D02*
X56810800Y-173309200D01*
X51250800Y-173309200D02*
X52510800Y-173309200D01*
X58070800Y-169549200D02*
X58070800Y-173309200D01*
X51250800Y-167299200D02*
X51250800Y-173309200D01*
X50806400Y-173309600D02*
X49546400Y-173309600D01*
X43986400Y-173309600D02*
X45246400Y-173309600D01*
X50806400Y-169549600D02*
X50806400Y-173309600D01*
X43986400Y-167299600D02*
X43986400Y-173309600D01*
X60030800Y-164677600D02*
X60030800Y-162677600D01*
X60030800Y-162677600D02*
X63930800Y-162677600D01*
X60030800Y-164677600D02*
X63930800Y-164677600D01*
X57260400Y-146544700D02*
X58260400Y-146544700D01*
X59260400Y-146544700D02*
X60310400Y-146544700D01*
X60310400Y-146544700D02*
X60310400Y-144694700D01*
X57250400Y-146524700D02*
X57250400Y-144094700D01*
X35064380Y-171074080D02*
X35064380Y-173024080D01*
X35064380Y-171074080D02*
X35064380Y-169124080D01*
X29944380Y-171074080D02*
X29944380Y-173024080D01*
X29944380Y-171074080D02*
X29944380Y-167624080D01*
X56750900Y-96215200D02*
X56750900Y-98165200D01*
X56750900Y-96215200D02*
X56750900Y-94265200D01*
X51630900Y-96215200D02*
X51630900Y-98165200D01*
X51630900Y-96215200D02*
X51630900Y-92765200D01*
X57164921Y-115546600D02*
X57490479Y-115546600D01*
X57164921Y-114526600D02*
X57490479Y-114526600D01*
X56225121Y-117019800D02*
X56550679Y-117019800D01*
X56225121Y-115999800D02*
X56550679Y-115999800D01*
X59027600Y-114137121D02*
X59027600Y-114462679D01*
X60047600Y-114137121D02*
X60047600Y-114462679D01*
X60704000Y-114137121D02*
X60704000Y-114462679D01*
X61724000Y-114137121D02*
X61724000Y-114462679D01*
X21080000Y-98820921D02*
X21080000Y-99146479D01*
X22100000Y-98820921D02*
X22100000Y-99146479D01*
X25677079Y-156454380D02*
X25351521Y-156454380D01*
X25677079Y-157474380D02*
X25351521Y-157474380D01*
X27963079Y-161026380D02*
X27637521Y-161026380D01*
X27963079Y-162046380D02*
X27637521Y-162046380D01*
X25334079Y-158105380D02*
X25008521Y-158105380D01*
X25334079Y-159125380D02*
X25008521Y-159125380D01*
X57668379Y-101674200D02*
X57342821Y-101674200D01*
X57668379Y-102694200D02*
X57342821Y-102694200D01*
X62189579Y-104620600D02*
X61864021Y-104620600D01*
X62189579Y-105640600D02*
X61864021Y-105640600D01*
X57109900Y-98287621D02*
X57109900Y-98613179D01*
X58129900Y-98287621D02*
X58129900Y-98613179D01*
X56507600Y-106268600D02*
X56507600Y-105338600D01*
X56507600Y-103108600D02*
X56507600Y-104038600D01*
X56507600Y-103108600D02*
X58667600Y-103108600D01*
X56507600Y-106268600D02*
X57967600Y-106268600D01*
X60774800Y-109316600D02*
X60774800Y-108386600D01*
X60774800Y-106156600D02*
X60774800Y-107086600D01*
X60774800Y-106156600D02*
X62934800Y-106156600D01*
X60774800Y-109316600D02*
X62234800Y-109316600D01*
X44259800Y-160173600D02*
X41109800Y-160173600D01*
X41109800Y-160173600D02*
X41109800Y-156173600D01*
X55827200Y-144756821D02*
X55827200Y-145082379D01*
X56847200Y-144756821D02*
X56847200Y-145082379D01*
X31256200Y-145821400D02*
G75*
G03*
X31256200Y-145821400I-700000J0D01*
G01*
X29478200Y-145821400D02*
G75*
G03*
X29478200Y-145821400I-700000J0D01*
G01*
X40257000Y-170357681D02*
X40257000Y-170683239D01*
X41277000Y-170357681D02*
X41277000Y-170683239D01*
X59294300Y-103443821D02*
X59294300Y-103769379D01*
X60314300Y-103443821D02*
X60314300Y-103769379D01*
X19581400Y-98821021D02*
X19581400Y-99146579D01*
X20601400Y-98821021D02*
X20601400Y-99146579D01*
X39862160Y-167927000D02*
X39862160Y-175987000D01*
X39862160Y-175987000D02*
X35342160Y-175987000D01*
X35342160Y-175987000D02*
X35342160Y-167927000D01*
X40262080Y-173324401D02*
X40262080Y-173649959D01*
X41282080Y-173324401D02*
X41282080Y-173649959D01*
X41760680Y-173329481D02*
X41760680Y-173655039D01*
X42780680Y-173329481D02*
X42780680Y-173655039D01*
X28369800Y-155976101D02*
X28369800Y-156301659D01*
X29389800Y-155976101D02*
X29389800Y-156301659D01*
X26972800Y-159087601D02*
X26972800Y-159413159D01*
X27992800Y-159087601D02*
X27992800Y-159413159D01*
X25639079Y-154930380D02*
X25313521Y-154930380D01*
X25639079Y-155950380D02*
X25313521Y-155950380D01*
X58443079Y-106678000D02*
X58117521Y-106678000D01*
X58443079Y-107698000D02*
X58117521Y-107698000D01*
X22718300Y-156014101D02*
X22718300Y-156339659D01*
X23738300Y-156014101D02*
X23738300Y-156339659D01*
X54303200Y-103901021D02*
X54303200Y-104226579D01*
X55323200Y-103901021D02*
X55323200Y-104226579D01*
X25334079Y-159565880D02*
X25008521Y-159565880D01*
X25334079Y-160585880D02*
X25008521Y-160585880D01*
X61127421Y-101830600D02*
X61452979Y-101830600D01*
X61127421Y-100810600D02*
X61452979Y-100810600D01*
X51246500Y-99908579D02*
X51246500Y-99583021D01*
X50226500Y-99908579D02*
X50226500Y-99583021D01*
X54218721Y-92254800D02*
X54544279Y-92254800D01*
X54218721Y-91234800D02*
X54544279Y-91234800D01*
X28266600Y-139806400D02*
X32176600Y-139806400D01*
X32176600Y-139806400D02*
X32176600Y-141676400D01*
X32176600Y-141676400D02*
X28266600Y-141676400D01*
X30929300Y-155540500D02*
X30929300Y-151630500D01*
X30929300Y-151630500D02*
X32799300Y-151630500D01*
X32799300Y-151630500D02*
X32799300Y-155540500D01*
D13*
X64059571Y-78053476D02*
X64083380Y-78029666D01*
X64107190Y-77958238D01*
X64107190Y-77910619D01*
X64083380Y-77839190D01*
X64035761Y-77791571D01*
X63988142Y-77767761D01*
X63892904Y-77743952D01*
X63821476Y-77743952D01*
X63726238Y-77767761D01*
X63678619Y-77791571D01*
X63631000Y-77839190D01*
X63607190Y-77910619D01*
X63607190Y-77958238D01*
X63631000Y-78029666D01*
X63654809Y-78053476D01*
X64107190Y-78529666D02*
X64107190Y-78243952D01*
X64107190Y-78386809D02*
X63607190Y-78386809D01*
X63678619Y-78339190D01*
X63726238Y-78291571D01*
X63750047Y-78243952D01*
X63607190Y-78839190D02*
X63607190Y-78886809D01*
X63631000Y-78934428D01*
X63654809Y-78958238D01*
X63702428Y-78982047D01*
X63797666Y-79005857D01*
X63916714Y-79005857D01*
X64011952Y-78982047D01*
X64059571Y-78958238D01*
X64083380Y-78934428D01*
X64107190Y-78886809D01*
X64107190Y-78839190D01*
X64083380Y-78791571D01*
X64059571Y-78767761D01*
X64011952Y-78743952D01*
X63916714Y-78720142D01*
X63797666Y-78720142D01*
X63702428Y-78743952D01*
X63654809Y-78767761D01*
X63631000Y-78791571D01*
X63607190Y-78839190D01*
X63607190Y-79315380D02*
X63607190Y-79363000D01*
X63631000Y-79410619D01*
X63654809Y-79434428D01*
X63702428Y-79458238D01*
X63797666Y-79482047D01*
X63916714Y-79482047D01*
X64011952Y-79458238D01*
X64059571Y-79434428D01*
X64083380Y-79410619D01*
X64107190Y-79363000D01*
X64107190Y-79315380D01*
X64083380Y-79267761D01*
X64059571Y-79243952D01*
X64011952Y-79220142D01*
X63916714Y-79196333D01*
X63797666Y-79196333D01*
X63702428Y-79220142D01*
X63654809Y-79243952D01*
X63631000Y-79267761D01*
X63607190Y-79315380D01*
D10*
D13*
X60478171Y-78291571D02*
X60501980Y-78267761D01*
X60525790Y-78196333D01*
X60525790Y-78148714D01*
X60501980Y-78077285D01*
X60454361Y-78029666D01*
X60406742Y-78005857D01*
X60311504Y-77982047D01*
X60240076Y-77982047D01*
X60144838Y-78005857D01*
X60097219Y-78029666D01*
X60049600Y-78077285D01*
X60025790Y-78148714D01*
X60025790Y-78196333D01*
X60049600Y-78267761D01*
X60073409Y-78291571D01*
X60525790Y-78529666D02*
X60525790Y-78624904D01*
X60501980Y-78672523D01*
X60478171Y-78696333D01*
X60406742Y-78743952D01*
X60311504Y-78767761D01*
X60121028Y-78767761D01*
X60073409Y-78743952D01*
X60049600Y-78720142D01*
X60025790Y-78672523D01*
X60025790Y-78577285D01*
X60049600Y-78529666D01*
X60073409Y-78505857D01*
X60121028Y-78482047D01*
X60240076Y-78482047D01*
X60287695Y-78505857D01*
X60311504Y-78529666D01*
X60335314Y-78577285D01*
X60335314Y-78672523D01*
X60311504Y-78720142D01*
X60287695Y-78743952D01*
X60240076Y-78767761D01*
X60525790Y-79005857D02*
X60525790Y-79101095D01*
X60501980Y-79148714D01*
X60478171Y-79172523D01*
X60406742Y-79220142D01*
X60311504Y-79243952D01*
X60121028Y-79243952D01*
X60073409Y-79220142D01*
X60049600Y-79196333D01*
X60025790Y-79148714D01*
X60025790Y-79053476D01*
X60049600Y-79005857D01*
X60073409Y-78982047D01*
X60121028Y-78958238D01*
X60240076Y-78958238D01*
X60287695Y-78982047D01*
X60311504Y-79005857D01*
X60335314Y-79053476D01*
X60335314Y-79148714D01*
X60311504Y-79196333D01*
X60287695Y-79220142D01*
X60240076Y-79243952D01*
D10*
D13*
X55414693Y-162159451D02*
X55438502Y-162183260D01*
X55509931Y-162207070D01*
X55557550Y-162207070D01*
X55628979Y-162183260D01*
X55676598Y-162135641D01*
X55700407Y-162088022D01*
X55724217Y-161992784D01*
X55724217Y-161921356D01*
X55700407Y-161826118D01*
X55676598Y-161778499D01*
X55628979Y-161730880D01*
X55557550Y-161707070D01*
X55509931Y-161707070D01*
X55438502Y-161730880D01*
X55414693Y-161754689D01*
X55128979Y-161921356D02*
X55176598Y-161897546D01*
X55200407Y-161873737D01*
X55224217Y-161826118D01*
X55224217Y-161802308D01*
X55200407Y-161754689D01*
X55176598Y-161730880D01*
X55128979Y-161707070D01*
X55033740Y-161707070D01*
X54986121Y-161730880D01*
X54962312Y-161754689D01*
X54938502Y-161802308D01*
X54938502Y-161826118D01*
X54962312Y-161873737D01*
X54986121Y-161897546D01*
X55033740Y-161921356D01*
X55128979Y-161921356D01*
X55176598Y-161945165D01*
X55200407Y-161968975D01*
X55224217Y-162016594D01*
X55224217Y-162111832D01*
X55200407Y-162159451D01*
X55176598Y-162183260D01*
X55128979Y-162207070D01*
X55033740Y-162207070D01*
X54986121Y-162183260D01*
X54962312Y-162159451D01*
X54938502Y-162111832D01*
X54938502Y-162016594D01*
X54962312Y-161968975D01*
X54986121Y-161945165D01*
X55033740Y-161921356D01*
D10*
D13*
X48199550Y-100589638D02*
X48556693Y-100589638D01*
X48628121Y-100565828D01*
X48675740Y-100518209D01*
X48699550Y-100446780D01*
X48699550Y-100399161D01*
X48651931Y-101113447D02*
X48675740Y-101089638D01*
X48699550Y-101018209D01*
X48699550Y-100970590D01*
X48675740Y-100899161D01*
X48628121Y-100851542D01*
X48580502Y-100827733D01*
X48485264Y-100803923D01*
X48413836Y-100803923D01*
X48318598Y-100827733D01*
X48270979Y-100851542D01*
X48223360Y-100899161D01*
X48199550Y-100970590D01*
X48199550Y-101018209D01*
X48223360Y-101089638D01*
X48247169Y-101113447D01*
X48699550Y-101589638D02*
X48699550Y-101303923D01*
X48699550Y-101446780D02*
X48199550Y-101446780D01*
X48270979Y-101399161D01*
X48318598Y-101351542D01*
X48342407Y-101303923D01*
X48366217Y-102018209D02*
X48699550Y-102018209D01*
X48175740Y-101899161D02*
X48532883Y-101780114D01*
X48532883Y-102089638D01*
D10*
D13*
X44882690Y-84232038D02*
X45239833Y-84232038D01*
X45311261Y-84208228D01*
X45358880Y-84160609D01*
X45382690Y-84089180D01*
X45382690Y-84041561D01*
X45335071Y-84755847D02*
X45358880Y-84732038D01*
X45382690Y-84660609D01*
X45382690Y-84612990D01*
X45358880Y-84541561D01*
X45311261Y-84493942D01*
X45263642Y-84470133D01*
X45168404Y-84446323D01*
X45096976Y-84446323D01*
X45001738Y-84470133D01*
X44954119Y-84493942D01*
X44906500Y-84541561D01*
X44882690Y-84612990D01*
X44882690Y-84660609D01*
X44906500Y-84732038D01*
X44930309Y-84755847D01*
X45382690Y-85232038D02*
X45382690Y-84946323D01*
X45382690Y-85089180D02*
X44882690Y-85089180D01*
X44954119Y-85041561D01*
X45001738Y-84993942D01*
X45025547Y-84946323D01*
X44882690Y-85398704D02*
X44882690Y-85708228D01*
X45073166Y-85541561D01*
X45073166Y-85612990D01*
X45096976Y-85660609D01*
X45120785Y-85684419D01*
X45168404Y-85708228D01*
X45287452Y-85708228D01*
X45335071Y-85684419D01*
X45358880Y-85660609D01*
X45382690Y-85612990D01*
X45382690Y-85470133D01*
X45358880Y-85422514D01*
X45335071Y-85398704D01*
D10*
D13*
X49905361Y-92126310D02*
X49905361Y-92483453D01*
X49929171Y-92554881D01*
X49976790Y-92602500D01*
X50048219Y-92626310D01*
X50095838Y-92626310D01*
X49381552Y-92578691D02*
X49405361Y-92602500D01*
X49476790Y-92626310D01*
X49524409Y-92626310D01*
X49595838Y-92602500D01*
X49643457Y-92554881D01*
X49667266Y-92507262D01*
X49691076Y-92412024D01*
X49691076Y-92340596D01*
X49667266Y-92245358D01*
X49643457Y-92197739D01*
X49595838Y-92150120D01*
X49524409Y-92126310D01*
X49476790Y-92126310D01*
X49405361Y-92150120D01*
X49381552Y-92173929D01*
X48905361Y-92626310D02*
X49191076Y-92626310D01*
X49048219Y-92626310D02*
X49048219Y-92126310D01*
X49095838Y-92197739D01*
X49143457Y-92245358D01*
X49191076Y-92269167D01*
X48714885Y-92173929D02*
X48691076Y-92150120D01*
X48643457Y-92126310D01*
X48524409Y-92126310D01*
X48476790Y-92150120D01*
X48452980Y-92173929D01*
X48429171Y-92221548D01*
X48429171Y-92269167D01*
X48452980Y-92340596D01*
X48738695Y-92626310D01*
X48429171Y-92626310D01*
D10*
D13*
X33801761Y-83736690D02*
X33801761Y-84093833D01*
X33825571Y-84165261D01*
X33873190Y-84212880D01*
X33944619Y-84236690D01*
X33992238Y-84236690D01*
X33277952Y-84189071D02*
X33301761Y-84212880D01*
X33373190Y-84236690D01*
X33420809Y-84236690D01*
X33492238Y-84212880D01*
X33539857Y-84165261D01*
X33563666Y-84117642D01*
X33587476Y-84022404D01*
X33587476Y-83950976D01*
X33563666Y-83855738D01*
X33539857Y-83808119D01*
X33492238Y-83760500D01*
X33420809Y-83736690D01*
X33373190Y-83736690D01*
X33301761Y-83760500D01*
X33277952Y-83784309D01*
X32801761Y-84236690D02*
X33087476Y-84236690D01*
X32944619Y-84236690D02*
X32944619Y-83736690D01*
X32992238Y-83808119D01*
X33039857Y-83855738D01*
X33087476Y-83879547D01*
X32325571Y-84236690D02*
X32611285Y-84236690D01*
X32468428Y-84236690D02*
X32468428Y-83736690D01*
X32516047Y-83808119D01*
X32563666Y-83855738D01*
X32611285Y-83879547D01*
D10*
D13*
X38633352Y-136733790D02*
X38633352Y-137138552D01*
X38609542Y-137186171D01*
X38585733Y-137209980D01*
X38538114Y-137233790D01*
X38442876Y-137233790D01*
X38395257Y-137209980D01*
X38371447Y-137186171D01*
X38347638Y-137138552D01*
X38347638Y-136733790D01*
X37847638Y-137233790D02*
X38133352Y-137233790D01*
X37990495Y-137233790D02*
X37990495Y-136733790D01*
X38038114Y-136805219D01*
X38085733Y-136852838D01*
X38133352Y-136876647D01*
D10*
D13*
X50556266Y-84000390D02*
X50556266Y-84357533D01*
X50580076Y-84428961D01*
X50627695Y-84476580D01*
X50699123Y-84500390D01*
X50746742Y-84500390D01*
X50032457Y-84452771D02*
X50056266Y-84476580D01*
X50127695Y-84500390D01*
X50175314Y-84500390D01*
X50246742Y-84476580D01*
X50294361Y-84428961D01*
X50318171Y-84381342D01*
X50341980Y-84286104D01*
X50341980Y-84214676D01*
X50318171Y-84119438D01*
X50294361Y-84071819D01*
X50246742Y-84024200D01*
X50175314Y-84000390D01*
X50127695Y-84000390D01*
X50056266Y-84024200D01*
X50032457Y-84048009D01*
X49794361Y-84500390D02*
X49699123Y-84500390D01*
X49651504Y-84476580D01*
X49627695Y-84452771D01*
X49580076Y-84381342D01*
X49556266Y-84286104D01*
X49556266Y-84095628D01*
X49580076Y-84048009D01*
X49603885Y-84024200D01*
X49651504Y-84000390D01*
X49746742Y-84000390D01*
X49794361Y-84024200D01*
X49818171Y-84048009D01*
X49841980Y-84095628D01*
X49841980Y-84214676D01*
X49818171Y-84262295D01*
X49794361Y-84286104D01*
X49746742Y-84309914D01*
X49651504Y-84309914D01*
X49603885Y-84286104D01*
X49580076Y-84262295D01*
X49556266Y-84214676D01*
D10*
D13*
X62986361Y-74478390D02*
X62986361Y-74835533D01*
X63010171Y-74906961D01*
X63057790Y-74954580D01*
X63129219Y-74978390D01*
X63176838Y-74978390D01*
X62462552Y-74930771D02*
X62486361Y-74954580D01*
X62557790Y-74978390D01*
X62605409Y-74978390D01*
X62676838Y-74954580D01*
X62724457Y-74906961D01*
X62748266Y-74859342D01*
X62772076Y-74764104D01*
X62772076Y-74692676D01*
X62748266Y-74597438D01*
X62724457Y-74549819D01*
X62676838Y-74502200D01*
X62605409Y-74478390D01*
X62557790Y-74478390D01*
X62486361Y-74502200D01*
X62462552Y-74526009D01*
X61986361Y-74978390D02*
X62272076Y-74978390D01*
X62129219Y-74978390D02*
X62129219Y-74478390D01*
X62176838Y-74549819D01*
X62224457Y-74597438D01*
X62272076Y-74621247D01*
X61676838Y-74478390D02*
X61629219Y-74478390D01*
X61581600Y-74502200D01*
X61557790Y-74526009D01*
X61533980Y-74573628D01*
X61510171Y-74668866D01*
X61510171Y-74787914D01*
X61533980Y-74883152D01*
X61557790Y-74930771D01*
X61581600Y-74954580D01*
X61629219Y-74978390D01*
X61676838Y-74978390D01*
X61724457Y-74954580D01*
X61748266Y-74930771D01*
X61772076Y-74883152D01*
X61795885Y-74787914D01*
X61795885Y-74668866D01*
X61772076Y-74573628D01*
X61748266Y-74526009D01*
X61724457Y-74502200D01*
X61676838Y-74478390D01*
D10*
D13*
X41755166Y-83863690D02*
X41755166Y-84220833D01*
X41778976Y-84292261D01*
X41826595Y-84339880D01*
X41898023Y-84363690D01*
X41945642Y-84363690D01*
X41231357Y-84316071D02*
X41255166Y-84339880D01*
X41326595Y-84363690D01*
X41374214Y-84363690D01*
X41445642Y-84339880D01*
X41493261Y-84292261D01*
X41517071Y-84244642D01*
X41540880Y-84149404D01*
X41540880Y-84077976D01*
X41517071Y-83982738D01*
X41493261Y-83935119D01*
X41445642Y-83887500D01*
X41374214Y-83863690D01*
X41326595Y-83863690D01*
X41255166Y-83887500D01*
X41231357Y-83911309D01*
X40945642Y-84077976D02*
X40993261Y-84054166D01*
X41017071Y-84030357D01*
X41040880Y-83982738D01*
X41040880Y-83958928D01*
X41017071Y-83911309D01*
X40993261Y-83887500D01*
X40945642Y-83863690D01*
X40850404Y-83863690D01*
X40802785Y-83887500D01*
X40778976Y-83911309D01*
X40755166Y-83958928D01*
X40755166Y-83982738D01*
X40778976Y-84030357D01*
X40802785Y-84054166D01*
X40850404Y-84077976D01*
X40945642Y-84077976D01*
X40993261Y-84101785D01*
X41017071Y-84125595D01*
X41040880Y-84173214D01*
X41040880Y-84268452D01*
X41017071Y-84316071D01*
X40993261Y-84339880D01*
X40945642Y-84363690D01*
X40850404Y-84363690D01*
X40802785Y-84339880D01*
X40778976Y-84316071D01*
X40755166Y-84268452D01*
X40755166Y-84173214D01*
X40778976Y-84125595D01*
X40802785Y-84101785D01*
X40850404Y-84077976D01*
D10*
D13*
X64610490Y-89550133D02*
X64967633Y-89550133D01*
X65039061Y-89526323D01*
X65086680Y-89478704D01*
X65110490Y-89407276D01*
X65110490Y-89359657D01*
X65062871Y-90073942D02*
X65086680Y-90050133D01*
X65110490Y-89978704D01*
X65110490Y-89931085D01*
X65086680Y-89859657D01*
X65039061Y-89812038D01*
X64991442Y-89788228D01*
X64896204Y-89764419D01*
X64824776Y-89764419D01*
X64729538Y-89788228D01*
X64681919Y-89812038D01*
X64634300Y-89859657D01*
X64610490Y-89931085D01*
X64610490Y-89978704D01*
X64634300Y-90050133D01*
X64658109Y-90073942D01*
X64610490Y-90240609D02*
X64610490Y-90573942D01*
X65110490Y-90359657D01*
D10*
D13*
X57794649Y-121664100D02*
X57770840Y-121616481D01*
X57723220Y-121568862D01*
X57651792Y-121497434D01*
X57627982Y-121449815D01*
X57627982Y-121402196D01*
X57747030Y-121426005D02*
X57723220Y-121378386D01*
X57675601Y-121330767D01*
X57580363Y-121306958D01*
X57413697Y-121306958D01*
X57318459Y-121330767D01*
X57270840Y-121378386D01*
X57247030Y-121426005D01*
X57247030Y-121521243D01*
X57270840Y-121568862D01*
X57318459Y-121616481D01*
X57413697Y-121640291D01*
X57580363Y-121640291D01*
X57675601Y-121616481D01*
X57723220Y-121568862D01*
X57747030Y-121521243D01*
X57747030Y-121426005D01*
X57247030Y-121806958D02*
X57247030Y-122140291D01*
X57747030Y-121926005D01*
D10*
D13*
X32257952Y-150263990D02*
X32257952Y-149763990D01*
X31972238Y-150263990D01*
X31972238Y-149763990D01*
X31781761Y-149763990D02*
X31448428Y-149763990D01*
X31662714Y-150263990D01*
D10*
D13*
X30733952Y-150263990D02*
X30733952Y-149763990D01*
X30448238Y-150263990D01*
X30448238Y-149763990D01*
X30138714Y-149978276D02*
X30186333Y-149954466D01*
X30210142Y-149930657D01*
X30233952Y-149883038D01*
X30233952Y-149859228D01*
X30210142Y-149811609D01*
X30186333Y-149787800D01*
X30138714Y-149763990D01*
X30043476Y-149763990D01*
X29995857Y-149787800D01*
X29972047Y-149811609D01*
X29948238Y-149859228D01*
X29948238Y-149883038D01*
X29972047Y-149930657D01*
X29995857Y-149954466D01*
X30043476Y-149978276D01*
X30138714Y-149978276D01*
X30186333Y-150002085D01*
X30210142Y-150025895D01*
X30233952Y-150073514D01*
X30233952Y-150168752D01*
X30210142Y-150216371D01*
X30186333Y-150240180D01*
X30138714Y-150263990D01*
X30043476Y-150263990D01*
X29995857Y-150240180D01*
X29972047Y-150216371D01*
X29948238Y-150168752D01*
X29948238Y-150073514D01*
X29972047Y-150025895D01*
X29995857Y-150002085D01*
X30043476Y-149978276D01*
D10*
D13*
X29209952Y-150263990D02*
X29209952Y-149763990D01*
X28924238Y-150263990D01*
X28924238Y-149763990D01*
X28662333Y-150263990D02*
X28567095Y-150263990D01*
X28519476Y-150240180D01*
X28495666Y-150216371D01*
X28448047Y-150144942D01*
X28424238Y-150049704D01*
X28424238Y-149859228D01*
X28448047Y-149811609D01*
X28471857Y-149787800D01*
X28519476Y-149763990D01*
X28614714Y-149763990D01*
X28662333Y-149787800D01*
X28686142Y-149811609D01*
X28709952Y-149859228D01*
X28709952Y-149978276D01*
X28686142Y-150025895D01*
X28662333Y-150049704D01*
X28614714Y-150073514D01*
X28519476Y-150073514D01*
X28471857Y-150049704D01*
X28448047Y-150025895D01*
X28424238Y-149978276D01*
D10*
D13*
X55373388Y-118915310D02*
X55540055Y-118677215D01*
X55659102Y-118915310D02*
X55659102Y-118415310D01*
X55468626Y-118415310D01*
X55421007Y-118439120D01*
X55397198Y-118462929D01*
X55373388Y-118510548D01*
X55373388Y-118581977D01*
X55397198Y-118629596D01*
X55421007Y-118653405D01*
X55468626Y-118677215D01*
X55659102Y-118677215D01*
X55182912Y-118462929D02*
X55159102Y-118439120D01*
X55111483Y-118415310D01*
X54992436Y-118415310D01*
X54944817Y-118439120D01*
X54921007Y-118462929D01*
X54897198Y-118510548D01*
X54897198Y-118558167D01*
X54921007Y-118629596D01*
X55206721Y-118915310D01*
X54897198Y-118915310D01*
X54587674Y-118415310D02*
X54540055Y-118415310D01*
X54492436Y-118439120D01*
X54468626Y-118462929D01*
X54444817Y-118510548D01*
X54421007Y-118605786D01*
X54421007Y-118724834D01*
X54444817Y-118820072D01*
X54468626Y-118867691D01*
X54492436Y-118891500D01*
X54540055Y-118915310D01*
X54587674Y-118915310D01*
X54635293Y-118891500D01*
X54659102Y-118867691D01*
X54682912Y-118820072D01*
X54706721Y-118724834D01*
X54706721Y-118605786D01*
X54682912Y-118510548D01*
X54659102Y-118462929D01*
X54635293Y-118439120D01*
X54587674Y-118415310D01*
X32001590Y-142113047D02*
X31501590Y-142113047D01*
X32001590Y-142398761D01*
X31501590Y-142398761D01*
X32001590Y-142898761D02*
X32001590Y-142613047D01*
X32001590Y-142755904D02*
X31501590Y-142755904D01*
X31573019Y-142708285D01*
X31620638Y-142660666D01*
X31644447Y-142613047D01*
D10*
D13*
X27785190Y-142138447D02*
X27285190Y-142138447D01*
X27785190Y-142424161D01*
X27285190Y-142424161D01*
X27332809Y-142638447D02*
X27309000Y-142662257D01*
X27285190Y-142709876D01*
X27285190Y-142828923D01*
X27309000Y-142876542D01*
X27332809Y-142900352D01*
X27380428Y-142924161D01*
X27428047Y-142924161D01*
X27499476Y-142900352D01*
X27785190Y-142614638D01*
X27785190Y-142924161D01*
D10*
D13*
X32001590Y-143789447D02*
X31501590Y-143789447D01*
X32001590Y-144075161D01*
X31501590Y-144075161D01*
X31501590Y-144265638D02*
X31501590Y-144575161D01*
X31692066Y-144408495D01*
X31692066Y-144479923D01*
X31715876Y-144527542D01*
X31739685Y-144551352D01*
X31787304Y-144575161D01*
X31906352Y-144575161D01*
X31953971Y-144551352D01*
X31977780Y-144527542D01*
X32001590Y-144479923D01*
X32001590Y-144337066D01*
X31977780Y-144289447D01*
X31953971Y-144265638D01*
D10*
D13*
X27785190Y-143789447D02*
X27285190Y-143789447D01*
X27785190Y-144075161D01*
X27285190Y-144075161D01*
X27451857Y-144527542D02*
X27785190Y-144527542D01*
X27261380Y-144408495D02*
X27618523Y-144289447D01*
X27618523Y-144598971D01*
D10*
D13*
X53534428Y-110639990D02*
X53701095Y-110401895D01*
X53820142Y-110639990D02*
X53820142Y-110139990D01*
X53629666Y-110139990D01*
X53582047Y-110163800D01*
X53558238Y-110187609D01*
X53534428Y-110235228D01*
X53534428Y-110306657D01*
X53558238Y-110354276D01*
X53582047Y-110378085D01*
X53629666Y-110401895D01*
X53820142Y-110401895D01*
X53105857Y-110139990D02*
X53201095Y-110139990D01*
X53248714Y-110163800D01*
X53272523Y-110187609D01*
X53320142Y-110259038D01*
X53343952Y-110354276D01*
X53343952Y-110544752D01*
X53320142Y-110592371D01*
X53296333Y-110616180D01*
X53248714Y-110639990D01*
X53153476Y-110639990D01*
X53105857Y-110616180D01*
X53082047Y-110592371D01*
X53058238Y-110544752D01*
X53058238Y-110425704D01*
X53082047Y-110378085D01*
X53105857Y-110354276D01*
X53153476Y-110330466D01*
X53248714Y-110330466D01*
X53296333Y-110354276D01*
X53320142Y-110378085D01*
X53343952Y-110425704D01*
X52629666Y-110139990D02*
X52724904Y-110139990D01*
X52772523Y-110163800D01*
X52796333Y-110187609D01*
X52843952Y-110259038D01*
X52867761Y-110354276D01*
X52867761Y-110544752D01*
X52843952Y-110592371D01*
X52820142Y-110616180D01*
X52772523Y-110639990D01*
X52677285Y-110639990D01*
X52629666Y-110616180D01*
X52605857Y-110592371D01*
X52582047Y-110544752D01*
X52582047Y-110425704D01*
X52605857Y-110378085D01*
X52629666Y-110354276D01*
X52677285Y-110330466D01*
X52772523Y-110330466D01*
X52820142Y-110354276D01*
X52843952Y-110378085D01*
X52867761Y-110425704D01*
D10*
D13*
X52137428Y-109903390D02*
X52304095Y-109665295D01*
X52423142Y-109903390D02*
X52423142Y-109403390D01*
X52232666Y-109403390D01*
X52185047Y-109427200D01*
X52161238Y-109451009D01*
X52137428Y-109498628D01*
X52137428Y-109570057D01*
X52161238Y-109617676D01*
X52185047Y-109641485D01*
X52232666Y-109665295D01*
X52423142Y-109665295D01*
X51708857Y-109403390D02*
X51804095Y-109403390D01*
X51851714Y-109427200D01*
X51875523Y-109451009D01*
X51923142Y-109522438D01*
X51946952Y-109617676D01*
X51946952Y-109808152D01*
X51923142Y-109855771D01*
X51899333Y-109879580D01*
X51851714Y-109903390D01*
X51756476Y-109903390D01*
X51708857Y-109879580D01*
X51685047Y-109855771D01*
X51661238Y-109808152D01*
X51661238Y-109689104D01*
X51685047Y-109641485D01*
X51708857Y-109617676D01*
X51756476Y-109593866D01*
X51851714Y-109593866D01*
X51899333Y-109617676D01*
X51923142Y-109641485D01*
X51946952Y-109689104D01*
X51208857Y-109403390D02*
X51446952Y-109403390D01*
X51470761Y-109641485D01*
X51446952Y-109617676D01*
X51399333Y-109593866D01*
X51280285Y-109593866D01*
X51232666Y-109617676D01*
X51208857Y-109641485D01*
X51185047Y-109689104D01*
X51185047Y-109808152D01*
X51208857Y-109855771D01*
X51232666Y-109879580D01*
X51280285Y-109903390D01*
X51399333Y-109903390D01*
X51446952Y-109879580D01*
X51470761Y-109855771D01*
D10*
D13*
X43607491Y-168527611D02*
X43631300Y-168503801D01*
X43655110Y-168432373D01*
X43655110Y-168384754D01*
X43631300Y-168313325D01*
X43583681Y-168265706D01*
X43536062Y-168241897D01*
X43440824Y-168218087D01*
X43369396Y-168218087D01*
X43274158Y-168241897D01*
X43226539Y-168265706D01*
X43178920Y-168313325D01*
X43155110Y-168384754D01*
X43155110Y-168432373D01*
X43178920Y-168503801D01*
X43202729Y-168527611D01*
X43369396Y-168813325D02*
X43345586Y-168765706D01*
X43321777Y-168741897D01*
X43274158Y-168718087D01*
X43250348Y-168718087D01*
X43202729Y-168741897D01*
X43178920Y-168765706D01*
X43155110Y-168813325D01*
X43155110Y-168908563D01*
X43178920Y-168956182D01*
X43202729Y-168979992D01*
X43250348Y-169003801D01*
X43274158Y-169003801D01*
X43321777Y-168979992D01*
X43345586Y-168956182D01*
X43369396Y-168908563D01*
X43369396Y-168813325D01*
X43393205Y-168765706D01*
X43417015Y-168741897D01*
X43464634Y-168718087D01*
X43559872Y-168718087D01*
X43607491Y-168741897D01*
X43631300Y-168765706D01*
X43655110Y-168813325D01*
X43655110Y-168908563D01*
X43631300Y-168956182D01*
X43607491Y-168979992D01*
X43559872Y-169003801D01*
X43464634Y-169003801D01*
X43417015Y-168979992D01*
X43393205Y-168956182D01*
X43369396Y-168908563D01*
X43202729Y-169194278D02*
X43178920Y-169218087D01*
X43155110Y-169265706D01*
X43155110Y-169384754D01*
X43178920Y-169432373D01*
X43202729Y-169456182D01*
X43250348Y-169479992D01*
X43297967Y-169479992D01*
X43369396Y-169456182D01*
X43655110Y-169170468D01*
X43655110Y-169479992D01*
D10*
D13*
X31753928Y-108417490D02*
X31920595Y-108179395D01*
X32039642Y-108417490D02*
X32039642Y-107917490D01*
X31849166Y-107917490D01*
X31801547Y-107941300D01*
X31777738Y-107965109D01*
X31753928Y-108012728D01*
X31753928Y-108084157D01*
X31777738Y-108131776D01*
X31801547Y-108155585D01*
X31849166Y-108179395D01*
X32039642Y-108179395D01*
X31301547Y-107917490D02*
X31539642Y-107917490D01*
X31563452Y-108155585D01*
X31539642Y-108131776D01*
X31492023Y-108107966D01*
X31372976Y-108107966D01*
X31325357Y-108131776D01*
X31301547Y-108155585D01*
X31277738Y-108203204D01*
X31277738Y-108322252D01*
X31301547Y-108369871D01*
X31325357Y-108393680D01*
X31372976Y-108417490D01*
X31492023Y-108417490D01*
X31539642Y-108393680D01*
X31563452Y-108369871D01*
X31039642Y-108417490D02*
X30944404Y-108417490D01*
X30896785Y-108393680D01*
X30872976Y-108369871D01*
X30825357Y-108298442D01*
X30801547Y-108203204D01*
X30801547Y-108012728D01*
X30825357Y-107965109D01*
X30849166Y-107941300D01*
X30896785Y-107917490D01*
X30992023Y-107917490D01*
X31039642Y-107941300D01*
X31063452Y-107965109D01*
X31087261Y-108012728D01*
X31087261Y-108131776D01*
X31063452Y-108179395D01*
X31039642Y-108203204D01*
X30992023Y-108227014D01*
X30896785Y-108227014D01*
X30849166Y-108203204D01*
X30825357Y-108179395D01*
X30801547Y-108131776D01*
D10*
D13*
X35360728Y-108582590D02*
X35527395Y-108344495D01*
X35646442Y-108582590D02*
X35646442Y-108082590D01*
X35455966Y-108082590D01*
X35408347Y-108106400D01*
X35384538Y-108130209D01*
X35360728Y-108177828D01*
X35360728Y-108249257D01*
X35384538Y-108296876D01*
X35408347Y-108320685D01*
X35455966Y-108344495D01*
X35646442Y-108344495D01*
X34908347Y-108082590D02*
X35146442Y-108082590D01*
X35170252Y-108320685D01*
X35146442Y-108296876D01*
X35098823Y-108273066D01*
X34979776Y-108273066D01*
X34932157Y-108296876D01*
X34908347Y-108320685D01*
X34884538Y-108368304D01*
X34884538Y-108487352D01*
X34908347Y-108534971D01*
X34932157Y-108558780D01*
X34979776Y-108582590D01*
X35098823Y-108582590D01*
X35146442Y-108558780D01*
X35170252Y-108534971D01*
X34598823Y-108296876D02*
X34646442Y-108273066D01*
X34670252Y-108249257D01*
X34694061Y-108201638D01*
X34694061Y-108177828D01*
X34670252Y-108130209D01*
X34646442Y-108106400D01*
X34598823Y-108082590D01*
X34503585Y-108082590D01*
X34455966Y-108106400D01*
X34432157Y-108130209D01*
X34408347Y-108177828D01*
X34408347Y-108201638D01*
X34432157Y-108249257D01*
X34455966Y-108273066D01*
X34503585Y-108296876D01*
X34598823Y-108296876D01*
X34646442Y-108320685D01*
X34670252Y-108344495D01*
X34694061Y-108392114D01*
X34694061Y-108487352D01*
X34670252Y-108534971D01*
X34646442Y-108558780D01*
X34598823Y-108582590D01*
X34503585Y-108582590D01*
X34455966Y-108558780D01*
X34432157Y-108534971D01*
X34408347Y-108487352D01*
X34408347Y-108392114D01*
X34432157Y-108344495D01*
X34455966Y-108320685D01*
X34503585Y-108296876D01*
D10*
D13*
X35373428Y-110706671D02*
X35397238Y-110730480D01*
X35468666Y-110754290D01*
X35516285Y-110754290D01*
X35587714Y-110730480D01*
X35635333Y-110682861D01*
X35659142Y-110635242D01*
X35682952Y-110540004D01*
X35682952Y-110468576D01*
X35659142Y-110373338D01*
X35635333Y-110325719D01*
X35587714Y-110278100D01*
X35516285Y-110254290D01*
X35468666Y-110254290D01*
X35397238Y-110278100D01*
X35373428Y-110301909D01*
X35135333Y-110754290D02*
X35040095Y-110754290D01*
X34992476Y-110730480D01*
X34968666Y-110706671D01*
X34921047Y-110635242D01*
X34897238Y-110540004D01*
X34897238Y-110349528D01*
X34921047Y-110301909D01*
X34944857Y-110278100D01*
X34992476Y-110254290D01*
X35087714Y-110254290D01*
X35135333Y-110278100D01*
X35159142Y-110301909D01*
X35182952Y-110349528D01*
X35182952Y-110468576D01*
X35159142Y-110516195D01*
X35135333Y-110540004D01*
X35087714Y-110563814D01*
X34992476Y-110563814D01*
X34944857Y-110540004D01*
X34921047Y-110516195D01*
X34897238Y-110468576D01*
X34468666Y-110254290D02*
X34563904Y-110254290D01*
X34611523Y-110278100D01*
X34635333Y-110301909D01*
X34682952Y-110373338D01*
X34706761Y-110468576D01*
X34706761Y-110659052D01*
X34682952Y-110706671D01*
X34659142Y-110730480D01*
X34611523Y-110754290D01*
X34516285Y-110754290D01*
X34468666Y-110730480D01*
X34444857Y-110706671D01*
X34421047Y-110659052D01*
X34421047Y-110540004D01*
X34444857Y-110492385D01*
X34468666Y-110468576D01*
X34516285Y-110444766D01*
X34611523Y-110444766D01*
X34659142Y-110468576D01*
X34682952Y-110492385D01*
X34706761Y-110540004D01*
D10*
D13*
X28744028Y-107811171D02*
X28767838Y-107834980D01*
X28839266Y-107858790D01*
X28886885Y-107858790D01*
X28958314Y-107834980D01*
X29005933Y-107787361D01*
X29029742Y-107739742D01*
X29053552Y-107644504D01*
X29053552Y-107573076D01*
X29029742Y-107477838D01*
X29005933Y-107430219D01*
X28958314Y-107382600D01*
X28886885Y-107358790D01*
X28839266Y-107358790D01*
X28767838Y-107382600D01*
X28744028Y-107406409D01*
X28505933Y-107858790D02*
X28410695Y-107858790D01*
X28363076Y-107834980D01*
X28339266Y-107811171D01*
X28291647Y-107739742D01*
X28267838Y-107644504D01*
X28267838Y-107454028D01*
X28291647Y-107406409D01*
X28315457Y-107382600D01*
X28363076Y-107358790D01*
X28458314Y-107358790D01*
X28505933Y-107382600D01*
X28529742Y-107406409D01*
X28553552Y-107454028D01*
X28553552Y-107573076D01*
X28529742Y-107620695D01*
X28505933Y-107644504D01*
X28458314Y-107668314D01*
X28363076Y-107668314D01*
X28315457Y-107644504D01*
X28291647Y-107620695D01*
X28267838Y-107573076D01*
X27815457Y-107358790D02*
X28053552Y-107358790D01*
X28077361Y-107596885D01*
X28053552Y-107573076D01*
X28005933Y-107549266D01*
X27886885Y-107549266D01*
X27839266Y-107573076D01*
X27815457Y-107596885D01*
X27791647Y-107644504D01*
X27791647Y-107763552D01*
X27815457Y-107811171D01*
X27839266Y-107834980D01*
X27886885Y-107858790D01*
X28005933Y-107858790D01*
X28053552Y-107834980D01*
X28077361Y-107811171D01*
D10*
D13*
X30141028Y-108023790D02*
X30307695Y-107785695D01*
X30426742Y-108023790D02*
X30426742Y-107523790D01*
X30236266Y-107523790D01*
X30188647Y-107547600D01*
X30164838Y-107571409D01*
X30141028Y-107619028D01*
X30141028Y-107690457D01*
X30164838Y-107738076D01*
X30188647Y-107761885D01*
X30236266Y-107785695D01*
X30426742Y-107785695D01*
X29664838Y-108023790D02*
X29950552Y-108023790D01*
X29807695Y-108023790D02*
X29807695Y-107523790D01*
X29855314Y-107595219D01*
X29902933Y-107642838D01*
X29950552Y-107666647D01*
X29426742Y-108023790D02*
X29331504Y-108023790D01*
X29283885Y-107999980D01*
X29260076Y-107976171D01*
X29212457Y-107904742D01*
X29188647Y-107809504D01*
X29188647Y-107619028D01*
X29212457Y-107571409D01*
X29236266Y-107547600D01*
X29283885Y-107523790D01*
X29379123Y-107523790D01*
X29426742Y-107547600D01*
X29450552Y-107571409D01*
X29474361Y-107619028D01*
X29474361Y-107738076D01*
X29450552Y-107785695D01*
X29426742Y-107809504D01*
X29379123Y-107833314D01*
X29283885Y-107833314D01*
X29236266Y-107809504D01*
X29212457Y-107785695D01*
X29188647Y-107738076D01*
D10*
D13*
X31919028Y-110668571D02*
X31942838Y-110692380D01*
X32014266Y-110716190D01*
X32061885Y-110716190D01*
X32133314Y-110692380D01*
X32180933Y-110644761D01*
X32204742Y-110597142D01*
X32228552Y-110501904D01*
X32228552Y-110430476D01*
X32204742Y-110335238D01*
X32180933Y-110287619D01*
X32133314Y-110240000D01*
X32061885Y-110216190D01*
X32014266Y-110216190D01*
X31942838Y-110240000D01*
X31919028Y-110263809D01*
X31752361Y-110216190D02*
X31419028Y-110216190D01*
X31633314Y-110716190D01*
X31252361Y-110263809D02*
X31228552Y-110240000D01*
X31180933Y-110216190D01*
X31061885Y-110216190D01*
X31014266Y-110240000D01*
X30990457Y-110263809D01*
X30966647Y-110311428D01*
X30966647Y-110359047D01*
X30990457Y-110430476D01*
X31276171Y-110716190D01*
X30966647Y-110716190D01*
D10*
D13*
X52446952Y-117429790D02*
X52161238Y-117429790D01*
X52304095Y-117929790D02*
X52304095Y-117429790D01*
X51994571Y-117929790D02*
X51994571Y-117429790D01*
X51804095Y-117429790D01*
X51756476Y-117453600D01*
X51732666Y-117477409D01*
X51708857Y-117525028D01*
X51708857Y-117596457D01*
X51732666Y-117644076D01*
X51756476Y-117667885D01*
X51804095Y-117691695D01*
X51994571Y-117691695D01*
X51470761Y-117929790D02*
X51375523Y-117929790D01*
X51327904Y-117905980D01*
X51304095Y-117882171D01*
X51256476Y-117810742D01*
X51232666Y-117715504D01*
X51232666Y-117525028D01*
X51256476Y-117477409D01*
X51280285Y-117453600D01*
X51327904Y-117429790D01*
X51423142Y-117429790D01*
X51470761Y-117453600D01*
X51494571Y-117477409D01*
X51518380Y-117525028D01*
X51518380Y-117644076D01*
X51494571Y-117691695D01*
X51470761Y-117715504D01*
X51423142Y-117739314D01*
X51327904Y-117739314D01*
X51280285Y-117715504D01*
X51256476Y-117691695D01*
X51232666Y-117644076D01*
D10*
D13*
X49208452Y-89896190D02*
X48922738Y-89896190D01*
X49065595Y-90396190D02*
X49065595Y-89896190D01*
X48756071Y-90396190D02*
X48756071Y-89896190D01*
X48565595Y-89896190D01*
X48517976Y-89920000D01*
X48494166Y-89943809D01*
X48470357Y-89991428D01*
X48470357Y-90062857D01*
X48494166Y-90110476D01*
X48517976Y-90134285D01*
X48565595Y-90158095D01*
X48756071Y-90158095D01*
X48303690Y-89896190D02*
X47970357Y-89896190D01*
X48184642Y-90396190D01*
D10*
D13*
X60432190Y-95381047D02*
X60432190Y-95666761D01*
X60932190Y-95523904D02*
X60432190Y-95523904D01*
X60932190Y-95833428D02*
X60432190Y-95833428D01*
X60432190Y-96023904D01*
X60456000Y-96071523D01*
X60479809Y-96095333D01*
X60527428Y-96119142D01*
X60598857Y-96119142D01*
X60646476Y-96095333D01*
X60670285Y-96071523D01*
X60694095Y-96023904D01*
X60694095Y-95833428D01*
X60432190Y-96547714D02*
X60432190Y-96452476D01*
X60456000Y-96404857D01*
X60479809Y-96381047D01*
X60551238Y-96333428D01*
X60646476Y-96309619D01*
X60836952Y-96309619D01*
X60884571Y-96333428D01*
X60908380Y-96357238D01*
X60932190Y-96404857D01*
X60932190Y-96500095D01*
X60908380Y-96547714D01*
X60884571Y-96571523D01*
X60836952Y-96595333D01*
X60717904Y-96595333D01*
X60670285Y-96571523D01*
X60646476Y-96547714D01*
X60622666Y-96500095D01*
X60622666Y-96404857D01*
X60646476Y-96357238D01*
X60670285Y-96333428D01*
X60717904Y-96309619D01*
D10*
D13*
X50145190Y-88650047D02*
X50145190Y-88935761D01*
X50645190Y-88792904D02*
X50145190Y-88792904D01*
X50645190Y-89102428D02*
X50145190Y-89102428D01*
X50145190Y-89292904D01*
X50169000Y-89340523D01*
X50192809Y-89364333D01*
X50240428Y-89388142D01*
X50311857Y-89388142D01*
X50359476Y-89364333D01*
X50383285Y-89340523D01*
X50407095Y-89292904D01*
X50407095Y-89102428D01*
X50145190Y-89840523D02*
X50145190Y-89602428D01*
X50383285Y-89578619D01*
X50359476Y-89602428D01*
X50335666Y-89650047D01*
X50335666Y-89769095D01*
X50359476Y-89816714D01*
X50383285Y-89840523D01*
X50430904Y-89864333D01*
X50549952Y-89864333D01*
X50597571Y-89840523D01*
X50621380Y-89816714D01*
X50645190Y-89769095D01*
X50645190Y-89650047D01*
X50621380Y-89602428D01*
X50597571Y-89578619D01*
D10*
D13*
X57892190Y-89158047D02*
X57892190Y-89443761D01*
X58392190Y-89300904D02*
X57892190Y-89300904D01*
X58392190Y-89610428D02*
X57892190Y-89610428D01*
X57892190Y-89800904D01*
X57916000Y-89848523D01*
X57939809Y-89872333D01*
X57987428Y-89896142D01*
X58058857Y-89896142D01*
X58106476Y-89872333D01*
X58130285Y-89848523D01*
X58154095Y-89800904D01*
X58154095Y-89610428D01*
X58058857Y-90324714D02*
X58392190Y-90324714D01*
X57868380Y-90205666D02*
X58225523Y-90086619D01*
X58225523Y-90396142D01*
D10*
D13*
X54194211Y-127719971D02*
X54218020Y-127696161D01*
X54241830Y-127624733D01*
X54241830Y-127577114D01*
X54218020Y-127505685D01*
X54170401Y-127458066D01*
X54122782Y-127434257D01*
X54027544Y-127410447D01*
X53956116Y-127410447D01*
X53860878Y-127434257D01*
X53813259Y-127458066D01*
X53765640Y-127505685D01*
X53741830Y-127577114D01*
X53741830Y-127624733D01*
X53765640Y-127696161D01*
X53789449Y-127719971D01*
X54241830Y-128196161D02*
X54241830Y-127910447D01*
X54241830Y-128053304D02*
X53741830Y-128053304D01*
X53813259Y-128005685D01*
X53860878Y-127958066D01*
X53884687Y-127910447D01*
X53956116Y-128481876D02*
X53932306Y-128434257D01*
X53908497Y-128410447D01*
X53860878Y-128386638D01*
X53837068Y-128386638D01*
X53789449Y-128410447D01*
X53765640Y-128434257D01*
X53741830Y-128481876D01*
X53741830Y-128577114D01*
X53765640Y-128624733D01*
X53789449Y-128648542D01*
X53837068Y-128672352D01*
X53860878Y-128672352D01*
X53908497Y-128648542D01*
X53932306Y-128624733D01*
X53956116Y-128577114D01*
X53956116Y-128481876D01*
X53979925Y-128434257D01*
X54003735Y-128410447D01*
X54051354Y-128386638D01*
X54146592Y-128386638D01*
X54194211Y-128410447D01*
X54218020Y-128434257D01*
X54241830Y-128481876D01*
X54241830Y-128577114D01*
X54218020Y-128624733D01*
X54194211Y-128648542D01*
X54146592Y-128672352D01*
X54051354Y-128672352D01*
X54003735Y-128648542D01*
X53979925Y-128624733D01*
X53956116Y-128577114D01*
D10*
D13*
X50013371Y-120211731D02*
X50037180Y-120187921D01*
X50060990Y-120116493D01*
X50060990Y-120068874D01*
X50037180Y-119997445D01*
X49989561Y-119949826D01*
X49941942Y-119926017D01*
X49846704Y-119902207D01*
X49775276Y-119902207D01*
X49680038Y-119926017D01*
X49632419Y-119949826D01*
X49584800Y-119997445D01*
X49560990Y-120068874D01*
X49560990Y-120116493D01*
X49584800Y-120187921D01*
X49608609Y-120211731D01*
X50060990Y-120687921D02*
X50060990Y-120402207D01*
X50060990Y-120545064D02*
X49560990Y-120545064D01*
X49632419Y-120497445D01*
X49680038Y-120449826D01*
X49703847Y-120402207D01*
X49560990Y-121116493D02*
X49560990Y-121021255D01*
X49584800Y-120973636D01*
X49608609Y-120949826D01*
X49680038Y-120902207D01*
X49775276Y-120878398D01*
X49965752Y-120878398D01*
X50013371Y-120902207D01*
X50037180Y-120926017D01*
X50060990Y-120973636D01*
X50060990Y-121068874D01*
X50037180Y-121116493D01*
X50013371Y-121140302D01*
X49965752Y-121164112D01*
X49846704Y-121164112D01*
X49799085Y-121140302D01*
X49775276Y-121116493D01*
X49751466Y-121068874D01*
X49751466Y-120973636D01*
X49775276Y-120926017D01*
X49799085Y-120902207D01*
X49846704Y-120878398D01*
D10*
D13*
X28525588Y-164237171D02*
X28549398Y-164260980D01*
X28620826Y-164284790D01*
X28668445Y-164284790D01*
X28739874Y-164260980D01*
X28787493Y-164213361D01*
X28811302Y-164165742D01*
X28835112Y-164070504D01*
X28835112Y-163999076D01*
X28811302Y-163903838D01*
X28787493Y-163856219D01*
X28739874Y-163808600D01*
X28668445Y-163784790D01*
X28620826Y-163784790D01*
X28549398Y-163808600D01*
X28525588Y-163832409D01*
X28049398Y-164284790D02*
X28335112Y-164284790D01*
X28192255Y-164284790D02*
X28192255Y-163784790D01*
X28239874Y-163856219D01*
X28287493Y-163903838D01*
X28335112Y-163927647D01*
X27620826Y-163951457D02*
X27620826Y-164284790D01*
X27739874Y-163760980D02*
X27858921Y-164118123D01*
X27549398Y-164118123D01*
D10*
D13*
X34106790Y-121751661D02*
X33868695Y-121584995D01*
X34106790Y-121465947D02*
X33606790Y-121465947D01*
X33606790Y-121656423D01*
X33630600Y-121704042D01*
X33654409Y-121727852D01*
X33702028Y-121751661D01*
X33773457Y-121751661D01*
X33821076Y-121727852D01*
X33844885Y-121704042D01*
X33868695Y-121656423D01*
X33868695Y-121465947D01*
X34106790Y-121965947D02*
X33606790Y-121965947D01*
X34106790Y-122251661D01*
X33606790Y-122251661D01*
X33654409Y-122465947D02*
X33630600Y-122489757D01*
X33606790Y-122537376D01*
X33606790Y-122656423D01*
X33630600Y-122704042D01*
X33654409Y-122727852D01*
X33702028Y-122751661D01*
X33749647Y-122751661D01*
X33821076Y-122727852D01*
X34106790Y-122442138D01*
X34106790Y-122751661D01*
D10*
D13*
X42669590Y-121765261D02*
X42431495Y-121598595D01*
X42669590Y-121479547D02*
X42169590Y-121479547D01*
X42169590Y-121670023D01*
X42193400Y-121717642D01*
X42217209Y-121741452D01*
X42264828Y-121765261D01*
X42336257Y-121765261D01*
X42383876Y-121741452D01*
X42407685Y-121717642D01*
X42431495Y-121670023D01*
X42431495Y-121479547D01*
X42669590Y-121979547D02*
X42169590Y-121979547D01*
X42669590Y-122265261D01*
X42169590Y-122265261D01*
X42669590Y-122765261D02*
X42669590Y-122479547D01*
X42669590Y-122622404D02*
X42169590Y-122622404D01*
X42241019Y-122574785D01*
X42288638Y-122527166D01*
X42312447Y-122479547D01*
D10*
D13*
X32865961Y-103485190D02*
X32532628Y-103985190D01*
X32532628Y-103485190D02*
X32865961Y-103985190D01*
X32080247Y-103985190D02*
X32365961Y-103985190D01*
X32223104Y-103985190D02*
X32223104Y-103485190D01*
X32270723Y-103556619D01*
X32318342Y-103604238D01*
X32365961Y-103628047D01*
D10*
D13*
X37134752Y-107257090D02*
X37134752Y-107661852D01*
X37110942Y-107709471D01*
X37087133Y-107733280D01*
X37039514Y-107757090D01*
X36944276Y-107757090D01*
X36896657Y-107733280D01*
X36872847Y-107709471D01*
X36849038Y-107661852D01*
X36849038Y-107257090D01*
X36372847Y-107257090D02*
X36610942Y-107257090D01*
X36634752Y-107495185D01*
X36610942Y-107471376D01*
X36563323Y-107447566D01*
X36444276Y-107447566D01*
X36396657Y-107471376D01*
X36372847Y-107495185D01*
X36349038Y-107542804D01*
X36349038Y-107661852D01*
X36372847Y-107709471D01*
X36396657Y-107733280D01*
X36444276Y-107757090D01*
X36563323Y-107757090D01*
X36610942Y-107733280D01*
X36634752Y-107709471D01*
D10*
D13*
X30782390Y-100745171D02*
X30544295Y-100578504D01*
X30782390Y-100459457D02*
X30282390Y-100459457D01*
X30282390Y-100649933D01*
X30306200Y-100697552D01*
X30330009Y-100721361D01*
X30377628Y-100745171D01*
X30449057Y-100745171D01*
X30496676Y-100721361D01*
X30520485Y-100697552D01*
X30544295Y-100649933D01*
X30544295Y-100459457D01*
X30782390Y-101221361D02*
X30782390Y-100935647D01*
X30782390Y-101078504D02*
X30282390Y-101078504D01*
X30353819Y-101030885D01*
X30401438Y-100983266D01*
X30425247Y-100935647D01*
X30282390Y-101388028D02*
X30282390Y-101721361D01*
X30782390Y-101507076D01*
D10*
D13*
X30693590Y-102269171D02*
X30455495Y-102102504D01*
X30693590Y-101983457D02*
X30193590Y-101983457D01*
X30193590Y-102173933D01*
X30217400Y-102221552D01*
X30241209Y-102245361D01*
X30288828Y-102269171D01*
X30360257Y-102269171D01*
X30407876Y-102245361D01*
X30431685Y-102221552D01*
X30455495Y-102173933D01*
X30455495Y-101983457D01*
X30693590Y-102745361D02*
X30693590Y-102459647D01*
X30693590Y-102602504D02*
X30193590Y-102602504D01*
X30265019Y-102554885D01*
X30312638Y-102507266D01*
X30336447Y-102459647D01*
X30193590Y-103197742D02*
X30193590Y-102959647D01*
X30431685Y-102935838D01*
X30407876Y-102959647D01*
X30384066Y-103007266D01*
X30384066Y-103126314D01*
X30407876Y-103173933D01*
X30431685Y-103197742D01*
X30479304Y-103221552D01*
X30598352Y-103221552D01*
X30645971Y-103197742D01*
X30669780Y-103173933D01*
X30693590Y-103126314D01*
X30693590Y-103007266D01*
X30669780Y-102959647D01*
X30645971Y-102935838D01*
D10*
D13*
X33106490Y-97582671D02*
X32868395Y-97416004D01*
X33106490Y-97296957D02*
X32606490Y-97296957D01*
X32606490Y-97487433D01*
X32630300Y-97535052D01*
X32654109Y-97558861D01*
X32701728Y-97582671D01*
X32773157Y-97582671D01*
X32820776Y-97558861D01*
X32844585Y-97535052D01*
X32868395Y-97487433D01*
X32868395Y-97296957D01*
X33106490Y-98058861D02*
X33106490Y-97773147D01*
X33106490Y-97916004D02*
X32606490Y-97916004D01*
X32677919Y-97868385D01*
X32725538Y-97820766D01*
X32749347Y-97773147D01*
X32606490Y-98225528D02*
X32606490Y-98535052D01*
X32796966Y-98368385D01*
X32796966Y-98439814D01*
X32820776Y-98487433D01*
X32844585Y-98511242D01*
X32892204Y-98535052D01*
X33011252Y-98535052D01*
X33058871Y-98511242D01*
X33082680Y-98487433D01*
X33106490Y-98439814D01*
X33106490Y-98296957D01*
X33082680Y-98249338D01*
X33058871Y-98225528D01*
D10*
D13*
X30725228Y-94968190D02*
X30891895Y-94730095D01*
X31010942Y-94968190D02*
X31010942Y-94468190D01*
X30820466Y-94468190D01*
X30772847Y-94492000D01*
X30749038Y-94515809D01*
X30725228Y-94563428D01*
X30725228Y-94634857D01*
X30749038Y-94682476D01*
X30772847Y-94706285D01*
X30820466Y-94730095D01*
X31010942Y-94730095D01*
X30249038Y-94968190D02*
X30534752Y-94968190D01*
X30391895Y-94968190D02*
X30391895Y-94468190D01*
X30439514Y-94539619D01*
X30487133Y-94587238D01*
X30534752Y-94611047D01*
X29939514Y-94468190D02*
X29891895Y-94468190D01*
X29844276Y-94492000D01*
X29820466Y-94515809D01*
X29796657Y-94563428D01*
X29772847Y-94658666D01*
X29772847Y-94777714D01*
X29796657Y-94872952D01*
X29820466Y-94920571D01*
X29844276Y-94944380D01*
X29891895Y-94968190D01*
X29939514Y-94968190D01*
X29987133Y-94944380D01*
X30010942Y-94920571D01*
X30034752Y-94872952D01*
X30058561Y-94777714D01*
X30058561Y-94658666D01*
X30034752Y-94563428D01*
X30010942Y-94515809D01*
X29987133Y-94492000D01*
X29939514Y-94468190D01*
D10*
D13*
X32671533Y-93875990D02*
X32838200Y-93637895D01*
X32957247Y-93875990D02*
X32957247Y-93375990D01*
X32766771Y-93375990D01*
X32719152Y-93399800D01*
X32695342Y-93423609D01*
X32671533Y-93471228D01*
X32671533Y-93542657D01*
X32695342Y-93590276D01*
X32719152Y-93614085D01*
X32766771Y-93637895D01*
X32957247Y-93637895D01*
X32385819Y-93590276D02*
X32433438Y-93566466D01*
X32457247Y-93542657D01*
X32481057Y-93495038D01*
X32481057Y-93471228D01*
X32457247Y-93423609D01*
X32433438Y-93399800D01*
X32385819Y-93375990D01*
X32290580Y-93375990D01*
X32242961Y-93399800D01*
X32219152Y-93423609D01*
X32195342Y-93471228D01*
X32195342Y-93495038D01*
X32219152Y-93542657D01*
X32242961Y-93566466D01*
X32290580Y-93590276D01*
X32385819Y-93590276D01*
X32433438Y-93614085D01*
X32457247Y-93637895D01*
X32481057Y-93685514D01*
X32481057Y-93780752D01*
X32457247Y-93828371D01*
X32433438Y-93852180D01*
X32385819Y-93875990D01*
X32290580Y-93875990D01*
X32242961Y-93852180D01*
X32219152Y-93828371D01*
X32195342Y-93780752D01*
X32195342Y-93685514D01*
X32219152Y-93637895D01*
X32242961Y-93614085D01*
X32290580Y-93590276D01*
D10*
D13*
X35017828Y-99590990D02*
X35255923Y-99590990D01*
X35255923Y-99090990D01*
X34589257Y-99590990D02*
X34874971Y-99590990D01*
X34732114Y-99590990D02*
X34732114Y-99090990D01*
X34779733Y-99162419D01*
X34827352Y-99210038D01*
X34874971Y-99233847D01*
X34160685Y-99257657D02*
X34160685Y-99590990D01*
X34279733Y-99067180D02*
X34398780Y-99424323D01*
X34089257Y-99424323D01*
D10*
D13*
X41958590Y-97795566D02*
X41958590Y-97557471D01*
X41458590Y-97557471D01*
X41625257Y-98176519D02*
X41958590Y-98176519D01*
X41434780Y-98057471D02*
X41791923Y-97938423D01*
X41791923Y-98247947D01*
D10*
D13*
X37192633Y-98023790D02*
X37430728Y-98023790D01*
X37430728Y-97523790D01*
X37073585Y-97523790D02*
X36764061Y-97523790D01*
X36930728Y-97714266D01*
X36859300Y-97714266D01*
X36811680Y-97738076D01*
X36787871Y-97761885D01*
X36764061Y-97809504D01*
X36764061Y-97928552D01*
X36787871Y-97976171D01*
X36811680Y-97999980D01*
X36859300Y-98023790D01*
X37002157Y-98023790D01*
X37049776Y-97999980D01*
X37073585Y-97976171D01*
D10*
D13*
X34979728Y-107518771D02*
X35003538Y-107542580D01*
X35074966Y-107566390D01*
X35122585Y-107566390D01*
X35194014Y-107542580D01*
X35241633Y-107494961D01*
X35265442Y-107447342D01*
X35289252Y-107352104D01*
X35289252Y-107280676D01*
X35265442Y-107185438D01*
X35241633Y-107137819D01*
X35194014Y-107090200D01*
X35122585Y-107066390D01*
X35074966Y-107066390D01*
X35003538Y-107090200D01*
X34979728Y-107114009D01*
X34527347Y-107066390D02*
X34765442Y-107066390D01*
X34789252Y-107304485D01*
X34765442Y-107280676D01*
X34717823Y-107256866D01*
X34598776Y-107256866D01*
X34551157Y-107280676D01*
X34527347Y-107304485D01*
X34503538Y-107352104D01*
X34503538Y-107471152D01*
X34527347Y-107518771D01*
X34551157Y-107542580D01*
X34598776Y-107566390D01*
X34717823Y-107566390D01*
X34765442Y-107542580D01*
X34789252Y-107518771D01*
X34194014Y-107066390D02*
X34146395Y-107066390D01*
X34098776Y-107090200D01*
X34074966Y-107114009D01*
X34051157Y-107161628D01*
X34027347Y-107256866D01*
X34027347Y-107375914D01*
X34051157Y-107471152D01*
X34074966Y-107518771D01*
X34098776Y-107542580D01*
X34146395Y-107566390D01*
X34194014Y-107566390D01*
X34241633Y-107542580D01*
X34265442Y-107518771D01*
X34289252Y-107471152D01*
X34313061Y-107375914D01*
X34313061Y-107256866D01*
X34289252Y-107161628D01*
X34265442Y-107114009D01*
X34241633Y-107090200D01*
X34194014Y-107066390D01*
D10*
D13*
X30861771Y-99233871D02*
X30885580Y-99210061D01*
X30909390Y-99138633D01*
X30909390Y-99091014D01*
X30885580Y-99019585D01*
X30837961Y-98971966D01*
X30790342Y-98948157D01*
X30695104Y-98924347D01*
X30623676Y-98924347D01*
X30528438Y-98948157D01*
X30480819Y-98971966D01*
X30433200Y-99019585D01*
X30409390Y-99091014D01*
X30409390Y-99138633D01*
X30433200Y-99210061D01*
X30457009Y-99233871D01*
X30576057Y-99662442D02*
X30909390Y-99662442D01*
X30385580Y-99543395D02*
X30742723Y-99424347D01*
X30742723Y-99733871D01*
X30909390Y-100186252D02*
X30909390Y-99900538D01*
X30909390Y-100043395D02*
X30409390Y-100043395D01*
X30480819Y-99995776D01*
X30528438Y-99948157D01*
X30552247Y-99900538D01*
D10*
D13*
X45771571Y-97671771D02*
X45795380Y-97647961D01*
X45819190Y-97576533D01*
X45819190Y-97528914D01*
X45795380Y-97457485D01*
X45747761Y-97409866D01*
X45700142Y-97386057D01*
X45604904Y-97362247D01*
X45533476Y-97362247D01*
X45438238Y-97386057D01*
X45390619Y-97409866D01*
X45343000Y-97457485D01*
X45319190Y-97528914D01*
X45319190Y-97576533D01*
X45343000Y-97647961D01*
X45366809Y-97671771D01*
X45319190Y-97838438D02*
X45319190Y-98147961D01*
X45509666Y-97981295D01*
X45509666Y-98052723D01*
X45533476Y-98100342D01*
X45557285Y-98124152D01*
X45604904Y-98147961D01*
X45723952Y-98147961D01*
X45771571Y-98124152D01*
X45795380Y-98100342D01*
X45819190Y-98052723D01*
X45819190Y-97909866D01*
X45795380Y-97862247D01*
X45771571Y-97838438D01*
X45319190Y-98314628D02*
X45319190Y-98624152D01*
X45509666Y-98457485D01*
X45509666Y-98528914D01*
X45533476Y-98576533D01*
X45557285Y-98600342D01*
X45604904Y-98624152D01*
X45723952Y-98624152D01*
X45771571Y-98600342D01*
X45795380Y-98576533D01*
X45819190Y-98528914D01*
X45819190Y-98386057D01*
X45795380Y-98338438D01*
X45771571Y-98314628D01*
D10*
D13*
X45796971Y-96071571D02*
X45820780Y-96047761D01*
X45844590Y-95976333D01*
X45844590Y-95928714D01*
X45820780Y-95857285D01*
X45773161Y-95809666D01*
X45725542Y-95785857D01*
X45630304Y-95762047D01*
X45558876Y-95762047D01*
X45463638Y-95785857D01*
X45416019Y-95809666D01*
X45368400Y-95857285D01*
X45344590Y-95928714D01*
X45344590Y-95976333D01*
X45368400Y-96047761D01*
X45392209Y-96071571D01*
X45392209Y-96262047D02*
X45368400Y-96285857D01*
X45344590Y-96333476D01*
X45344590Y-96452523D01*
X45368400Y-96500142D01*
X45392209Y-96523952D01*
X45439828Y-96547761D01*
X45487447Y-96547761D01*
X45558876Y-96523952D01*
X45844590Y-96238238D01*
X45844590Y-96547761D01*
X45558876Y-96833476D02*
X45535066Y-96785857D01*
X45511257Y-96762047D01*
X45463638Y-96738238D01*
X45439828Y-96738238D01*
X45392209Y-96762047D01*
X45368400Y-96785857D01*
X45344590Y-96833476D01*
X45344590Y-96928714D01*
X45368400Y-96976333D01*
X45392209Y-97000142D01*
X45439828Y-97023952D01*
X45463638Y-97023952D01*
X45511257Y-97000142D01*
X45535066Y-96976333D01*
X45558876Y-96928714D01*
X45558876Y-96833476D01*
X45582685Y-96785857D01*
X45606495Y-96762047D01*
X45654114Y-96738238D01*
X45749352Y-96738238D01*
X45796971Y-96762047D01*
X45820780Y-96785857D01*
X45844590Y-96833476D01*
X45844590Y-96928714D01*
X45820780Y-96976333D01*
X45796971Y-97000142D01*
X45749352Y-97023952D01*
X45654114Y-97023952D01*
X45606495Y-97000142D01*
X45582685Y-96976333D01*
X45558876Y-96928714D01*
D10*
D13*
X42113971Y-95410971D02*
X42137780Y-95387161D01*
X42161590Y-95315733D01*
X42161590Y-95268114D01*
X42137780Y-95196685D01*
X42090161Y-95149066D01*
X42042542Y-95125257D01*
X41947304Y-95101447D01*
X41875876Y-95101447D01*
X41780638Y-95125257D01*
X41733019Y-95149066D01*
X41685400Y-95196685D01*
X41661590Y-95268114D01*
X41661590Y-95315733D01*
X41685400Y-95387161D01*
X41709209Y-95410971D01*
X41709209Y-95601447D02*
X41685400Y-95625257D01*
X41661590Y-95672876D01*
X41661590Y-95791923D01*
X41685400Y-95839542D01*
X41709209Y-95863352D01*
X41756828Y-95887161D01*
X41804447Y-95887161D01*
X41875876Y-95863352D01*
X42161590Y-95577638D01*
X42161590Y-95887161D01*
X41661590Y-96339542D02*
X41661590Y-96101447D01*
X41899685Y-96077638D01*
X41875876Y-96101447D01*
X41852066Y-96149066D01*
X41852066Y-96268114D01*
X41875876Y-96315733D01*
X41899685Y-96339542D01*
X41947304Y-96363352D01*
X42066352Y-96363352D01*
X42113971Y-96339542D01*
X42137780Y-96315733D01*
X42161590Y-96268114D01*
X42161590Y-96149066D01*
X42137780Y-96101447D01*
X42113971Y-96077638D01*
D10*
D13*
X39793028Y-93282371D02*
X39816838Y-93306180D01*
X39888266Y-93329990D01*
X39935885Y-93329990D01*
X40007314Y-93306180D01*
X40054933Y-93258561D01*
X40078742Y-93210942D01*
X40102552Y-93115704D01*
X40102552Y-93044276D01*
X40078742Y-92949038D01*
X40054933Y-92901419D01*
X40007314Y-92853800D01*
X39935885Y-92829990D01*
X39888266Y-92829990D01*
X39816838Y-92853800D01*
X39793028Y-92877609D01*
X39602552Y-92877609D02*
X39578742Y-92853800D01*
X39531123Y-92829990D01*
X39412076Y-92829990D01*
X39364457Y-92853800D01*
X39340647Y-92877609D01*
X39316838Y-92925228D01*
X39316838Y-92972847D01*
X39340647Y-93044276D01*
X39626361Y-93329990D01*
X39316838Y-93329990D01*
X39150171Y-92829990D02*
X38840647Y-92829990D01*
X39007314Y-93020466D01*
X38935885Y-93020466D01*
X38888266Y-93044276D01*
X38864457Y-93068085D01*
X38840647Y-93115704D01*
X38840647Y-93234752D01*
X38864457Y-93282371D01*
X38888266Y-93306180D01*
X38935885Y-93329990D01*
X39078742Y-93329990D01*
X39126361Y-93306180D01*
X39150171Y-93282371D01*
D10*
D13*
X36467571Y-93823771D02*
X36491380Y-93799961D01*
X36515190Y-93728533D01*
X36515190Y-93680914D01*
X36491380Y-93609485D01*
X36443761Y-93561866D01*
X36396142Y-93538057D01*
X36300904Y-93514247D01*
X36229476Y-93514247D01*
X36134238Y-93538057D01*
X36086619Y-93561866D01*
X36039000Y-93609485D01*
X36015190Y-93680914D01*
X36015190Y-93728533D01*
X36039000Y-93799961D01*
X36062809Y-93823771D01*
X36062809Y-94014247D02*
X36039000Y-94038057D01*
X36015190Y-94085676D01*
X36015190Y-94204723D01*
X36039000Y-94252342D01*
X36062809Y-94276152D01*
X36110428Y-94299961D01*
X36158047Y-94299961D01*
X36229476Y-94276152D01*
X36515190Y-93990438D01*
X36515190Y-94299961D01*
X36062809Y-94490438D02*
X36039000Y-94514247D01*
X36015190Y-94561866D01*
X36015190Y-94680914D01*
X36039000Y-94728533D01*
X36062809Y-94752342D01*
X36110428Y-94776152D01*
X36158047Y-94776152D01*
X36229476Y-94752342D01*
X36515190Y-94466628D01*
X36515190Y-94776152D01*
D10*
D13*
X39062790Y-159609671D02*
X38824695Y-159443004D01*
X39062790Y-159323957D02*
X38562790Y-159323957D01*
X38562790Y-159514433D01*
X38586600Y-159562052D01*
X38610409Y-159585861D01*
X38658028Y-159609671D01*
X38729457Y-159609671D01*
X38777076Y-159585861D01*
X38800885Y-159562052D01*
X38824695Y-159514433D01*
X38824695Y-159323957D01*
X38562790Y-160038242D02*
X38562790Y-159943004D01*
X38586600Y-159895385D01*
X38610409Y-159871576D01*
X38681838Y-159823957D01*
X38777076Y-159800147D01*
X38967552Y-159800147D01*
X39015171Y-159823957D01*
X39038980Y-159847766D01*
X39062790Y-159895385D01*
X39062790Y-159990623D01*
X39038980Y-160038242D01*
X39015171Y-160062052D01*
X38967552Y-160085861D01*
X38848504Y-160085861D01*
X38800885Y-160062052D01*
X38777076Y-160038242D01*
X38753266Y-159990623D01*
X38753266Y-159895385D01*
X38777076Y-159847766D01*
X38800885Y-159823957D01*
X38848504Y-159800147D01*
X38562790Y-160252528D02*
X38562790Y-160585861D01*
X39062790Y-160371576D01*
D10*
D13*
X42551468Y-162388051D02*
X42575278Y-162411860D01*
X42646706Y-162435670D01*
X42694325Y-162435670D01*
X42765754Y-162411860D01*
X42813373Y-162364241D01*
X42837182Y-162316622D01*
X42860992Y-162221384D01*
X42860992Y-162149956D01*
X42837182Y-162054718D01*
X42813373Y-162007099D01*
X42765754Y-161959480D01*
X42694325Y-161935670D01*
X42646706Y-161935670D01*
X42575278Y-161959480D01*
X42551468Y-161983289D01*
X42360992Y-161983289D02*
X42337182Y-161959480D01*
X42289563Y-161935670D01*
X42170516Y-161935670D01*
X42122897Y-161959480D01*
X42099087Y-161983289D01*
X42075278Y-162030908D01*
X42075278Y-162078527D01*
X42099087Y-162149956D01*
X42384801Y-162435670D01*
X42075278Y-162435670D01*
X41765754Y-161935670D02*
X41718135Y-161935670D01*
X41670516Y-161959480D01*
X41646706Y-161983289D01*
X41622897Y-162030908D01*
X41599087Y-162126146D01*
X41599087Y-162245194D01*
X41622897Y-162340432D01*
X41646706Y-162388051D01*
X41670516Y-162411860D01*
X41718135Y-162435670D01*
X41765754Y-162435670D01*
X41813373Y-162411860D01*
X41837182Y-162388051D01*
X41860992Y-162340432D01*
X41884801Y-162245194D01*
X41884801Y-162126146D01*
X41860992Y-162030908D01*
X41837182Y-161983289D01*
X41813373Y-161959480D01*
X41765754Y-161935670D01*
D10*
D13*
X61776628Y-118225071D02*
X61800438Y-118248880D01*
X61871866Y-118272690D01*
X61919485Y-118272690D01*
X61990914Y-118248880D01*
X62038533Y-118201261D01*
X62062342Y-118153642D01*
X62086152Y-118058404D01*
X62086152Y-117986976D01*
X62062342Y-117891738D01*
X62038533Y-117844119D01*
X61990914Y-117796500D01*
X61919485Y-117772690D01*
X61871866Y-117772690D01*
X61800438Y-117796500D01*
X61776628Y-117820309D01*
X61300438Y-118272690D02*
X61586152Y-118272690D01*
X61443295Y-118272690D02*
X61443295Y-117772690D01*
X61490914Y-117844119D01*
X61538533Y-117891738D01*
X61586152Y-117915547D01*
X61062342Y-118272690D02*
X60967104Y-118272690D01*
X60919485Y-118248880D01*
X60895676Y-118225071D01*
X60848057Y-118153642D01*
X60824247Y-118058404D01*
X60824247Y-117867928D01*
X60848057Y-117820309D01*
X60871866Y-117796500D01*
X60919485Y-117772690D01*
X61014723Y-117772690D01*
X61062342Y-117796500D01*
X61086152Y-117820309D01*
X61109961Y-117867928D01*
X61109961Y-117986976D01*
X61086152Y-118034595D01*
X61062342Y-118058404D01*
X61014723Y-118082214D01*
X60919485Y-118082214D01*
X60871866Y-118058404D01*
X60848057Y-118034595D01*
X60824247Y-117986976D01*
D10*
D13*
X46991899Y-157398209D02*
X47039518Y-157374400D01*
X47087137Y-157326780D01*
X47158565Y-157255352D01*
X47206184Y-157231542D01*
X47253803Y-157231542D01*
X47229994Y-157350590D02*
X47277613Y-157326780D01*
X47325232Y-157279161D01*
X47349041Y-157183923D01*
X47349041Y-157017257D01*
X47325232Y-156922019D01*
X47277613Y-156874400D01*
X47229994Y-156850590D01*
X47134756Y-156850590D01*
X47087137Y-156874400D01*
X47039518Y-156922019D01*
X47015708Y-157017257D01*
X47015708Y-157183923D01*
X47039518Y-157279161D01*
X47087137Y-157326780D01*
X47134756Y-157350590D01*
X47229994Y-157350590D01*
X46587137Y-156850590D02*
X46682375Y-156850590D01*
X46729994Y-156874400D01*
X46753803Y-156898209D01*
X46801422Y-156969638D01*
X46825232Y-157064876D01*
X46825232Y-157255352D01*
X46801422Y-157302971D01*
X46777613Y-157326780D01*
X46729994Y-157350590D01*
X46634756Y-157350590D01*
X46587137Y-157326780D01*
X46563327Y-157302971D01*
X46539518Y-157255352D01*
X46539518Y-157136304D01*
X46563327Y-157088685D01*
X46587137Y-157064876D01*
X46634756Y-157041066D01*
X46729994Y-157041066D01*
X46777613Y-157064876D01*
X46801422Y-157088685D01*
X46825232Y-157136304D01*
D10*
D13*
X50010190Y-96706571D02*
X49772095Y-96539904D01*
X50010190Y-96420857D02*
X49510190Y-96420857D01*
X49510190Y-96611333D01*
X49534000Y-96658952D01*
X49557809Y-96682761D01*
X49605428Y-96706571D01*
X49676857Y-96706571D01*
X49724476Y-96682761D01*
X49748285Y-96658952D01*
X49772095Y-96611333D01*
X49772095Y-96420857D01*
X49510190Y-97135142D02*
X49510190Y-97039904D01*
X49534000Y-96992285D01*
X49557809Y-96968476D01*
X49629238Y-96920857D01*
X49724476Y-96897047D01*
X49914952Y-96897047D01*
X49962571Y-96920857D01*
X49986380Y-96944666D01*
X50010190Y-96992285D01*
X50010190Y-97087523D01*
X49986380Y-97135142D01*
X49962571Y-97158952D01*
X49914952Y-97182761D01*
X49795904Y-97182761D01*
X49748285Y-97158952D01*
X49724476Y-97135142D01*
X49700666Y-97087523D01*
X49700666Y-96992285D01*
X49724476Y-96944666D01*
X49748285Y-96920857D01*
X49795904Y-96897047D01*
X49676857Y-97611333D02*
X50010190Y-97611333D01*
X49486380Y-97492285D02*
X49843523Y-97373238D01*
X49843523Y-97682761D01*
D10*
D13*
X50867428Y-91729690D02*
X51034095Y-91491595D01*
X51153142Y-91729690D02*
X51153142Y-91229690D01*
X50962666Y-91229690D01*
X50915047Y-91253500D01*
X50891238Y-91277309D01*
X50867428Y-91324928D01*
X50867428Y-91396357D01*
X50891238Y-91443976D01*
X50915047Y-91467785D01*
X50962666Y-91491595D01*
X51153142Y-91491595D01*
X50438857Y-91229690D02*
X50534095Y-91229690D01*
X50581714Y-91253500D01*
X50605523Y-91277309D01*
X50653142Y-91348738D01*
X50676952Y-91443976D01*
X50676952Y-91634452D01*
X50653142Y-91682071D01*
X50629333Y-91705880D01*
X50581714Y-91729690D01*
X50486476Y-91729690D01*
X50438857Y-91705880D01*
X50415047Y-91682071D01*
X50391238Y-91634452D01*
X50391238Y-91515404D01*
X50415047Y-91467785D01*
X50438857Y-91443976D01*
X50486476Y-91420166D01*
X50581714Y-91420166D01*
X50629333Y-91443976D01*
X50653142Y-91467785D01*
X50676952Y-91515404D01*
X50224571Y-91229690D02*
X49915047Y-91229690D01*
X50081714Y-91420166D01*
X50010285Y-91420166D01*
X49962666Y-91443976D01*
X49938857Y-91467785D01*
X49915047Y-91515404D01*
X49915047Y-91634452D01*
X49938857Y-91682071D01*
X49962666Y-91705880D01*
X50010285Y-91729690D01*
X50153142Y-91729690D01*
X50200761Y-91705880D01*
X50224571Y-91682071D01*
D10*
D13*
X62829285Y-167000893D02*
X62829285Y-166834226D01*
X63091190Y-166834226D02*
X62591190Y-166834226D01*
X62591190Y-167072321D01*
X63091190Y-167524702D02*
X63091190Y-167238988D01*
X63091190Y-167381845D02*
X62591190Y-167381845D01*
X62662619Y-167334226D01*
X62710238Y-167286607D01*
X62734047Y-167238988D01*
D10*
D13*
X58552590Y-174269447D02*
X58957352Y-174269447D01*
X59004971Y-174293257D01*
X59028780Y-174317066D01*
X59052590Y-174364685D01*
X59052590Y-174459923D01*
X59028780Y-174507542D01*
X59004971Y-174531352D01*
X58957352Y-174555161D01*
X58552590Y-174555161D01*
X58552590Y-174745638D02*
X58552590Y-175055161D01*
X58743066Y-174888495D01*
X58743066Y-174959923D01*
X58766876Y-175007542D01*
X58790685Y-175031352D01*
X58838304Y-175055161D01*
X58957352Y-175055161D01*
X59004971Y-175031352D01*
X59028780Y-175007542D01*
X59052590Y-174959923D01*
X59052590Y-174817066D01*
X59028780Y-174769447D01*
X59004971Y-174745638D01*
D10*
D13*
X44099990Y-174223727D02*
X44504752Y-174223727D01*
X44552371Y-174247537D01*
X44576180Y-174271346D01*
X44599990Y-174318965D01*
X44599990Y-174414203D01*
X44576180Y-174461822D01*
X44552371Y-174485632D01*
X44504752Y-174509441D01*
X44099990Y-174509441D01*
X44266657Y-174961822D02*
X44599990Y-174961822D01*
X44076180Y-174842775D02*
X44433323Y-174723727D01*
X44433323Y-175033251D01*
D10*
D13*
X62182487Y-162389950D02*
X62182487Y-161889950D01*
X62063440Y-161889950D01*
X61992011Y-161913760D01*
X61944392Y-161961379D01*
X61920582Y-162008998D01*
X61896773Y-162104236D01*
X61896773Y-162175664D01*
X61920582Y-162270902D01*
X61944392Y-162318521D01*
X61992011Y-162366140D01*
X62063440Y-162389950D01*
X62182487Y-162389950D01*
X61420582Y-162389950D02*
X61706297Y-162389950D01*
X61563440Y-162389950D02*
X61563440Y-161889950D01*
X61611059Y-161961379D01*
X61658678Y-162008998D01*
X61706297Y-162032807D01*
D10*
D13*
X61109990Y-146239752D02*
X60609990Y-146239752D01*
X60609990Y-146358800D01*
X60633800Y-146430228D01*
X60681419Y-146477847D01*
X60729038Y-146501657D01*
X60824276Y-146525466D01*
X60895704Y-146525466D01*
X60990942Y-146501657D01*
X61038561Y-146477847D01*
X61086180Y-146430228D01*
X61109990Y-146358800D01*
X61109990Y-146239752D01*
X60609990Y-146977847D02*
X60609990Y-146739752D01*
X60848085Y-146715942D01*
X60824276Y-146739752D01*
X60800466Y-146787371D01*
X60800466Y-146906419D01*
X60824276Y-146954038D01*
X60848085Y-146977847D01*
X60895704Y-147001657D01*
X61014752Y-147001657D01*
X61062371Y-146977847D01*
X61086180Y-146954038D01*
X61109990Y-146906419D01*
X61109990Y-146787371D01*
X61086180Y-146739752D01*
X61062371Y-146715942D01*
D10*
D13*
X28885390Y-168067432D02*
X29290152Y-168067432D01*
X29337771Y-168091241D01*
X29361580Y-168115051D01*
X29385390Y-168162670D01*
X29385390Y-168257908D01*
X29361580Y-168305527D01*
X29337771Y-168329337D01*
X29290152Y-168353146D01*
X28885390Y-168353146D01*
X29385390Y-168853146D02*
X29385390Y-168567432D01*
X29385390Y-168710289D02*
X28885390Y-168710289D01*
X28956819Y-168662670D01*
X29004438Y-168615051D01*
X29028247Y-168567432D01*
X28885390Y-169162670D02*
X28885390Y-169210289D01*
X28909200Y-169257908D01*
X28933009Y-169281718D01*
X28980628Y-169305527D01*
X29075866Y-169329337D01*
X29194914Y-169329337D01*
X29290152Y-169305527D01*
X29337771Y-169281718D01*
X29361580Y-169257908D01*
X29385390Y-169210289D01*
X29385390Y-169162670D01*
X29361580Y-169115051D01*
X29337771Y-169091241D01*
X29290152Y-169067432D01*
X29194914Y-169043622D01*
X29075866Y-169043622D01*
X28980628Y-169067432D01*
X28933009Y-169091241D01*
X28909200Y-169115051D01*
X28885390Y-169162670D01*
D10*
D13*
X57498490Y-93472047D02*
X57903252Y-93472047D01*
X57950871Y-93495857D01*
X57974680Y-93519666D01*
X57998490Y-93567285D01*
X57998490Y-93662523D01*
X57974680Y-93710142D01*
X57950871Y-93733952D01*
X57903252Y-93757761D01*
X57498490Y-93757761D01*
X57498490Y-93948238D02*
X57498490Y-94281571D01*
X57998490Y-94067285D01*
D10*
D13*
X55725190Y-114651671D02*
X55487095Y-114485004D01*
X55725190Y-114365957D02*
X55225190Y-114365957D01*
X55225190Y-114556433D01*
X55249000Y-114604052D01*
X55272809Y-114627861D01*
X55320428Y-114651671D01*
X55391857Y-114651671D01*
X55439476Y-114627861D01*
X55463285Y-114604052D01*
X55487095Y-114556433D01*
X55487095Y-114365957D01*
X55225190Y-115104052D02*
X55225190Y-114865957D01*
X55463285Y-114842147D01*
X55439476Y-114865957D01*
X55415666Y-114913576D01*
X55415666Y-115032623D01*
X55439476Y-115080242D01*
X55463285Y-115104052D01*
X55510904Y-115127861D01*
X55629952Y-115127861D01*
X55677571Y-115104052D01*
X55701380Y-115080242D01*
X55725190Y-115032623D01*
X55725190Y-114913576D01*
X55701380Y-114865957D01*
X55677571Y-114842147D01*
X55391857Y-115556433D02*
X55725190Y-115556433D01*
X55201380Y-115437385D02*
X55558523Y-115318338D01*
X55558523Y-115627861D01*
D10*
D13*
X54912390Y-116188371D02*
X54674295Y-116021704D01*
X54912390Y-115902657D02*
X54412390Y-115902657D01*
X54412390Y-116093133D01*
X54436200Y-116140752D01*
X54460009Y-116164561D01*
X54507628Y-116188371D01*
X54579057Y-116188371D01*
X54626676Y-116164561D01*
X54650485Y-116140752D01*
X54674295Y-116093133D01*
X54674295Y-115902657D01*
X54412390Y-116640752D02*
X54412390Y-116402657D01*
X54650485Y-116378847D01*
X54626676Y-116402657D01*
X54602866Y-116450276D01*
X54602866Y-116569323D01*
X54626676Y-116616942D01*
X54650485Y-116640752D01*
X54698104Y-116664561D01*
X54817152Y-116664561D01*
X54864771Y-116640752D01*
X54888580Y-116616942D01*
X54912390Y-116569323D01*
X54912390Y-116450276D01*
X54888580Y-116402657D01*
X54864771Y-116378847D01*
X54412390Y-116831228D02*
X54412390Y-117140752D01*
X54602866Y-116974085D01*
X54602866Y-117045514D01*
X54626676Y-117093133D01*
X54650485Y-117116942D01*
X54698104Y-117140752D01*
X54817152Y-117140752D01*
X54864771Y-117116942D01*
X54888580Y-117093133D01*
X54912390Y-117045514D01*
X54912390Y-116902657D01*
X54888580Y-116855038D01*
X54864771Y-116831228D01*
D10*
D13*
X60024128Y-112684690D02*
X60190795Y-112446595D01*
X60309842Y-112684690D02*
X60309842Y-112184690D01*
X60119366Y-112184690D01*
X60071747Y-112208500D01*
X60047938Y-112232309D01*
X60024128Y-112279928D01*
X60024128Y-112351357D01*
X60047938Y-112398976D01*
X60071747Y-112422785D01*
X60119366Y-112446595D01*
X60309842Y-112446595D01*
X59571747Y-112184690D02*
X59809842Y-112184690D01*
X59833652Y-112422785D01*
X59809842Y-112398976D01*
X59762223Y-112375166D01*
X59643176Y-112375166D01*
X59595557Y-112398976D01*
X59571747Y-112422785D01*
X59547938Y-112470404D01*
X59547938Y-112589452D01*
X59571747Y-112637071D01*
X59595557Y-112660880D01*
X59643176Y-112684690D01*
X59762223Y-112684690D01*
X59809842Y-112660880D01*
X59833652Y-112637071D01*
X59357461Y-112232309D02*
X59333652Y-112208500D01*
X59286033Y-112184690D01*
X59166985Y-112184690D01*
X59119366Y-112208500D01*
X59095557Y-112232309D01*
X59071747Y-112279928D01*
X59071747Y-112327547D01*
X59095557Y-112398976D01*
X59381271Y-112684690D01*
X59071747Y-112684690D01*
D10*
D13*
X62578110Y-113892211D02*
X62340015Y-113725544D01*
X62578110Y-113606497D02*
X62078110Y-113606497D01*
X62078110Y-113796973D01*
X62101920Y-113844592D01*
X62125729Y-113868401D01*
X62173348Y-113892211D01*
X62244777Y-113892211D01*
X62292396Y-113868401D01*
X62316205Y-113844592D01*
X62340015Y-113796973D01*
X62340015Y-113606497D01*
X62078110Y-114344592D02*
X62078110Y-114106497D01*
X62316205Y-114082687D01*
X62292396Y-114106497D01*
X62268586Y-114154116D01*
X62268586Y-114273163D01*
X62292396Y-114320782D01*
X62316205Y-114344592D01*
X62363824Y-114368401D01*
X62482872Y-114368401D01*
X62530491Y-114344592D01*
X62554300Y-114320782D01*
X62578110Y-114273163D01*
X62578110Y-114154116D01*
X62554300Y-114106497D01*
X62530491Y-114082687D01*
X62578110Y-114844592D02*
X62578110Y-114558878D01*
X62578110Y-114701735D02*
X62078110Y-114701735D01*
X62149539Y-114654116D01*
X62197158Y-114606497D01*
X62220967Y-114558878D01*
D10*
D13*
X23746590Y-98636971D02*
X23508495Y-98470304D01*
X23746590Y-98351257D02*
X23246590Y-98351257D01*
X23246590Y-98541733D01*
X23270400Y-98589352D01*
X23294209Y-98613161D01*
X23341828Y-98636971D01*
X23413257Y-98636971D01*
X23460876Y-98613161D01*
X23484685Y-98589352D01*
X23508495Y-98541733D01*
X23508495Y-98351257D01*
X23413257Y-99065542D02*
X23746590Y-99065542D01*
X23222780Y-98946495D02*
X23579923Y-98827447D01*
X23579923Y-99136971D01*
X23460876Y-99398876D02*
X23437066Y-99351257D01*
X23413257Y-99327447D01*
X23365638Y-99303638D01*
X23341828Y-99303638D01*
X23294209Y-99327447D01*
X23270400Y-99351257D01*
X23246590Y-99398876D01*
X23246590Y-99494114D01*
X23270400Y-99541733D01*
X23294209Y-99565542D01*
X23341828Y-99589352D01*
X23365638Y-99589352D01*
X23413257Y-99565542D01*
X23437066Y-99541733D01*
X23460876Y-99494114D01*
X23460876Y-99398876D01*
X23484685Y-99351257D01*
X23508495Y-99327447D01*
X23556114Y-99303638D01*
X23651352Y-99303638D01*
X23698971Y-99327447D01*
X23722780Y-99351257D01*
X23746590Y-99398876D01*
X23746590Y-99494114D01*
X23722780Y-99541733D01*
X23698971Y-99565542D01*
X23651352Y-99589352D01*
X23556114Y-99589352D01*
X23508495Y-99565542D01*
X23484685Y-99541733D01*
X23460876Y-99494114D01*
D10*
D13*
X27592150Y-156696291D02*
X27354055Y-156529624D01*
X27592150Y-156410577D02*
X27092150Y-156410577D01*
X27092150Y-156601053D01*
X27115960Y-156648672D01*
X27139769Y-156672481D01*
X27187388Y-156696291D01*
X27258817Y-156696291D01*
X27306436Y-156672481D01*
X27330245Y-156648672D01*
X27354055Y-156601053D01*
X27354055Y-156410577D01*
X27092150Y-156862958D02*
X27092150Y-157172481D01*
X27282626Y-157005815D01*
X27282626Y-157077243D01*
X27306436Y-157124862D01*
X27330245Y-157148672D01*
X27377864Y-157172481D01*
X27496912Y-157172481D01*
X27544531Y-157148672D01*
X27568340Y-157124862D01*
X27592150Y-157077243D01*
X27592150Y-156934386D01*
X27568340Y-156886767D01*
X27544531Y-156862958D01*
X27306436Y-157458196D02*
X27282626Y-157410577D01*
X27258817Y-157386767D01*
X27211198Y-157362958D01*
X27187388Y-157362958D01*
X27139769Y-157386767D01*
X27115960Y-157410577D01*
X27092150Y-157458196D01*
X27092150Y-157553434D01*
X27115960Y-157601053D01*
X27139769Y-157624862D01*
X27187388Y-157648672D01*
X27211198Y-157648672D01*
X27258817Y-157624862D01*
X27282626Y-157601053D01*
X27306436Y-157553434D01*
X27306436Y-157458196D01*
X27330245Y-157410577D01*
X27354055Y-157386767D01*
X27401674Y-157362958D01*
X27496912Y-157362958D01*
X27544531Y-157386767D01*
X27568340Y-157410577D01*
X27592150Y-157458196D01*
X27592150Y-157553434D01*
X27568340Y-157601053D01*
X27544531Y-157624862D01*
X27496912Y-157648672D01*
X27401674Y-157648672D01*
X27354055Y-157624862D01*
X27330245Y-157601053D01*
X27306436Y-157553434D01*
D10*
D13*
X29878150Y-161171771D02*
X29640055Y-161005104D01*
X29878150Y-160886057D02*
X29378150Y-160886057D01*
X29378150Y-161076533D01*
X29401960Y-161124152D01*
X29425769Y-161147961D01*
X29473388Y-161171771D01*
X29544817Y-161171771D01*
X29592436Y-161147961D01*
X29616245Y-161124152D01*
X29640055Y-161076533D01*
X29640055Y-160886057D01*
X29378150Y-161338438D02*
X29378150Y-161647961D01*
X29568626Y-161481295D01*
X29568626Y-161552723D01*
X29592436Y-161600342D01*
X29616245Y-161624152D01*
X29663864Y-161647961D01*
X29782912Y-161647961D01*
X29830531Y-161624152D01*
X29854340Y-161600342D01*
X29878150Y-161552723D01*
X29878150Y-161409866D01*
X29854340Y-161362247D01*
X29830531Y-161338438D01*
X29378150Y-161814628D02*
X29378150Y-162147961D01*
X29878150Y-161933676D01*
D10*
D13*
X23313508Y-159077790D02*
X23480175Y-158839695D01*
X23599222Y-159077790D02*
X23599222Y-158577790D01*
X23408746Y-158577790D01*
X23361127Y-158601600D01*
X23337318Y-158625409D01*
X23313508Y-158673028D01*
X23313508Y-158744457D01*
X23337318Y-158792076D01*
X23361127Y-158815885D01*
X23408746Y-158839695D01*
X23599222Y-158839695D01*
X23146841Y-158577790D02*
X22837318Y-158577790D01*
X23003984Y-158768266D01*
X22932556Y-158768266D01*
X22884937Y-158792076D01*
X22861127Y-158815885D01*
X22837318Y-158863504D01*
X22837318Y-158982552D01*
X22861127Y-159030171D01*
X22884937Y-159053980D01*
X22932556Y-159077790D01*
X23075413Y-159077790D01*
X23123032Y-159053980D01*
X23146841Y-159030171D01*
X22384937Y-158577790D02*
X22623032Y-158577790D01*
X22646841Y-158815885D01*
X22623032Y-158792076D01*
X22575413Y-158768266D01*
X22456365Y-158768266D01*
X22408746Y-158792076D01*
X22384937Y-158815885D01*
X22361127Y-158863504D01*
X22361127Y-158982552D01*
X22384937Y-159030171D01*
X22408746Y-159053980D01*
X22456365Y-159077790D01*
X22575413Y-159077790D01*
X22623032Y-159053980D01*
X22646841Y-159030171D01*
D10*
D13*
X57237748Y-101348670D02*
X57404415Y-101110575D01*
X57523462Y-101348670D02*
X57523462Y-100848670D01*
X57332986Y-100848670D01*
X57285367Y-100872480D01*
X57261558Y-100896289D01*
X57237748Y-100943908D01*
X57237748Y-101015337D01*
X57261558Y-101062956D01*
X57285367Y-101086765D01*
X57332986Y-101110575D01*
X57523462Y-101110575D01*
X57071081Y-100848670D02*
X56761558Y-100848670D01*
X56928224Y-101039146D01*
X56856796Y-101039146D01*
X56809177Y-101062956D01*
X56785367Y-101086765D01*
X56761558Y-101134384D01*
X56761558Y-101253432D01*
X56785367Y-101301051D01*
X56809177Y-101324860D01*
X56856796Y-101348670D01*
X56999653Y-101348670D01*
X57047272Y-101324860D01*
X57071081Y-101301051D01*
X56571081Y-100896289D02*
X56547272Y-100872480D01*
X56499653Y-100848670D01*
X56380605Y-100848670D01*
X56332986Y-100872480D01*
X56309177Y-100896289D01*
X56285367Y-100943908D01*
X56285367Y-100991527D01*
X56309177Y-101062956D01*
X56594891Y-101348670D01*
X56285367Y-101348670D01*
D10*
D13*
X64107190Y-104732971D02*
X63869095Y-104566304D01*
X64107190Y-104447257D02*
X63607190Y-104447257D01*
X63607190Y-104637733D01*
X63631000Y-104685352D01*
X63654809Y-104709161D01*
X63702428Y-104732971D01*
X63773857Y-104732971D01*
X63821476Y-104709161D01*
X63845285Y-104685352D01*
X63869095Y-104637733D01*
X63869095Y-104447257D01*
X63607190Y-104899638D02*
X63607190Y-105209161D01*
X63797666Y-105042495D01*
X63797666Y-105113923D01*
X63821476Y-105161542D01*
X63845285Y-105185352D01*
X63892904Y-105209161D01*
X64011952Y-105209161D01*
X64059571Y-105185352D01*
X64083380Y-105161542D01*
X64107190Y-105113923D01*
X64107190Y-104971066D01*
X64083380Y-104923447D01*
X64059571Y-104899638D01*
X63607190Y-105518685D02*
X63607190Y-105566304D01*
X63631000Y-105613923D01*
X63654809Y-105637733D01*
X63702428Y-105661542D01*
X63797666Y-105685352D01*
X63916714Y-105685352D01*
X64011952Y-105661542D01*
X64059571Y-105637733D01*
X64083380Y-105613923D01*
X64107190Y-105566304D01*
X64107190Y-105518685D01*
X64083380Y-105471066D01*
X64059571Y-105447257D01*
X64011952Y-105423447D01*
X63916714Y-105399638D01*
X63797666Y-105399638D01*
X63702428Y-105423447D01*
X63654809Y-105447257D01*
X63631000Y-105471066D01*
X63607190Y-105518685D01*
D10*
D13*
X58938290Y-98001971D02*
X58700195Y-97835304D01*
X58938290Y-97716257D02*
X58438290Y-97716257D01*
X58438290Y-97906733D01*
X58462100Y-97954352D01*
X58485909Y-97978161D01*
X58533528Y-98001971D01*
X58604957Y-98001971D01*
X58652576Y-97978161D01*
X58676385Y-97954352D01*
X58700195Y-97906733D01*
X58700195Y-97716257D01*
X58485909Y-98192447D02*
X58462100Y-98216257D01*
X58438290Y-98263876D01*
X58438290Y-98382923D01*
X58462100Y-98430542D01*
X58485909Y-98454352D01*
X58533528Y-98478161D01*
X58581147Y-98478161D01*
X58652576Y-98454352D01*
X58938290Y-98168638D01*
X58938290Y-98478161D01*
X58438290Y-98906733D02*
X58438290Y-98811495D01*
X58462100Y-98763876D01*
X58485909Y-98740066D01*
X58557338Y-98692447D01*
X58652576Y-98668638D01*
X58843052Y-98668638D01*
X58890671Y-98692447D01*
X58914480Y-98716257D01*
X58938290Y-98763876D01*
X58938290Y-98859114D01*
X58914480Y-98906733D01*
X58890671Y-98930542D01*
X58843052Y-98954352D01*
X58724004Y-98954352D01*
X58676385Y-98930542D01*
X58652576Y-98906733D01*
X58628766Y-98859114D01*
X58628766Y-98763876D01*
X58652576Y-98716257D01*
X58676385Y-98692447D01*
X58724004Y-98668638D01*
D10*
D13*
X56166379Y-107319569D02*
X56213998Y-107295760D01*
X56261617Y-107248140D01*
X56333045Y-107176712D01*
X56380664Y-107152902D01*
X56428283Y-107152902D01*
X56404474Y-107271950D02*
X56452093Y-107248140D01*
X56499712Y-107200521D01*
X56523521Y-107105283D01*
X56523521Y-106938617D01*
X56499712Y-106843379D01*
X56452093Y-106795760D01*
X56404474Y-106771950D01*
X56309236Y-106771950D01*
X56261617Y-106795760D01*
X56213998Y-106843379D01*
X56190188Y-106938617D01*
X56190188Y-107105283D01*
X56213998Y-107200521D01*
X56261617Y-107248140D01*
X56309236Y-107271950D01*
X56404474Y-107271950D01*
X55737807Y-106771950D02*
X55975902Y-106771950D01*
X55999712Y-107010045D01*
X55975902Y-106986236D01*
X55928283Y-106962426D01*
X55809236Y-106962426D01*
X55761617Y-106986236D01*
X55737807Y-107010045D01*
X55713998Y-107057664D01*
X55713998Y-107176712D01*
X55737807Y-107224331D01*
X55761617Y-107248140D01*
X55809236Y-107271950D01*
X55928283Y-107271950D01*
X55975902Y-107248140D01*
X55999712Y-107224331D01*
D10*
D13*
X64078609Y-107800780D02*
X64054800Y-107753161D01*
X64007180Y-107705542D01*
X63935752Y-107634114D01*
X63911942Y-107586495D01*
X63911942Y-107538876D01*
X64030990Y-107562685D02*
X64007180Y-107515066D01*
X63959561Y-107467447D01*
X63864323Y-107443638D01*
X63697657Y-107443638D01*
X63602419Y-107467447D01*
X63554800Y-107515066D01*
X63530990Y-107562685D01*
X63530990Y-107657923D01*
X63554800Y-107705542D01*
X63602419Y-107753161D01*
X63697657Y-107776971D01*
X63864323Y-107776971D01*
X63959561Y-107753161D01*
X64007180Y-107705542D01*
X64030990Y-107657923D01*
X64030990Y-107562685D01*
X63697657Y-108205542D02*
X64030990Y-108205542D01*
X63507180Y-108086495D02*
X63864323Y-107967447D01*
X63864323Y-108276971D01*
D10*
D13*
X44480990Y-156549790D02*
X44480990Y-156645028D01*
X44504800Y-156692647D01*
X44552419Y-156740266D01*
X44647657Y-156764076D01*
X44814323Y-156764076D01*
X44909561Y-156740266D01*
X44957180Y-156692647D01*
X44980990Y-156645028D01*
X44980990Y-156549790D01*
X44957180Y-156502171D01*
X44909561Y-156454552D01*
X44814323Y-156430742D01*
X44647657Y-156430742D01*
X44552419Y-156454552D01*
X44504800Y-156502171D01*
X44480990Y-156549790D01*
X44957180Y-156954552D02*
X44980990Y-157025980D01*
X44980990Y-157145028D01*
X44957180Y-157192647D01*
X44933371Y-157216457D01*
X44885752Y-157240266D01*
X44838133Y-157240266D01*
X44790514Y-157216457D01*
X44766704Y-157192647D01*
X44742895Y-157145028D01*
X44719085Y-157049790D01*
X44695276Y-157002171D01*
X44671466Y-156978361D01*
X44623847Y-156954552D01*
X44576228Y-156954552D01*
X44528609Y-156978361D01*
X44504800Y-157002171D01*
X44480990Y-157049790D01*
X44480990Y-157168838D01*
X44504800Y-157240266D01*
X44980990Y-157716457D02*
X44980990Y-157430742D01*
X44980990Y-157573600D02*
X44480990Y-157573600D01*
X44552419Y-157525980D01*
X44600038Y-157478361D01*
X44623847Y-157430742D01*
D10*
D13*
X56410373Y-143131670D02*
X56648468Y-143131670D01*
X56648468Y-142631670D01*
X55981801Y-143131670D02*
X56267516Y-143131670D01*
X56124659Y-143131670D02*
X56124659Y-142631670D01*
X56172278Y-142703099D01*
X56219897Y-142750718D01*
X56267516Y-142774527D01*
D10*
D13*
X32001590Y-145440447D02*
X31501590Y-145440447D01*
X32001590Y-145726161D01*
X31501590Y-145726161D01*
X31501590Y-146202352D02*
X31501590Y-145964257D01*
X31739685Y-145940447D01*
X31715876Y-145964257D01*
X31692066Y-146011876D01*
X31692066Y-146130923D01*
X31715876Y-146178542D01*
X31739685Y-146202352D01*
X31787304Y-146226161D01*
X31906352Y-146226161D01*
X31953971Y-146202352D01*
X31977780Y-146178542D01*
X32001590Y-146130923D01*
X32001590Y-146011876D01*
X31977780Y-145964257D01*
X31953971Y-145940447D01*
D10*
D13*
X27785190Y-145186447D02*
X27285190Y-145186447D01*
X27785190Y-145472161D01*
X27285190Y-145472161D01*
X27285190Y-145924542D02*
X27285190Y-145829304D01*
X27309000Y-145781685D01*
X27332809Y-145757876D01*
X27404238Y-145710257D01*
X27499476Y-145686447D01*
X27689952Y-145686447D01*
X27737571Y-145710257D01*
X27761380Y-145734066D01*
X27785190Y-145781685D01*
X27785190Y-145876923D01*
X27761380Y-145924542D01*
X27737571Y-145948352D01*
X27689952Y-145972161D01*
X27570904Y-145972161D01*
X27523285Y-145948352D01*
X27499476Y-145924542D01*
X27475666Y-145876923D01*
X27475666Y-145781685D01*
X27499476Y-145734066D01*
X27523285Y-145710257D01*
X27570904Y-145686447D01*
D10*
D13*
X40837965Y-167777053D02*
X40837965Y-167610386D01*
X41099870Y-167610386D02*
X40599870Y-167610386D01*
X40599870Y-167848481D01*
X40837965Y-168205624D02*
X40861775Y-168277053D01*
X40885584Y-168300862D01*
X40933203Y-168324672D01*
X41004632Y-168324672D01*
X41052251Y-168300862D01*
X41076060Y-168277053D01*
X41099870Y-168229434D01*
X41099870Y-168038958D01*
X40599870Y-168038958D01*
X40599870Y-168205624D01*
X40623680Y-168253243D01*
X40647489Y-168277053D01*
X40695108Y-168300862D01*
X40742727Y-168300862D01*
X40790346Y-168277053D01*
X40814156Y-168253243D01*
X40837965Y-168205624D01*
X40837965Y-168038958D01*
X40766537Y-168753243D02*
X41099870Y-168753243D01*
X40576060Y-168634196D02*
X40933203Y-168515148D01*
X40933203Y-168824672D01*
D10*
D13*
X60975085Y-102524453D02*
X60975085Y-102357786D01*
X61236990Y-102357786D02*
X60736990Y-102357786D01*
X60736990Y-102595881D01*
X60975085Y-102953024D02*
X60998895Y-103024453D01*
X61022704Y-103048262D01*
X61070323Y-103072072D01*
X61141752Y-103072072D01*
X61189371Y-103048262D01*
X61213180Y-103024453D01*
X61236990Y-102976834D01*
X61236990Y-102786358D01*
X60736990Y-102786358D01*
X60736990Y-102953024D01*
X60760800Y-103000643D01*
X60784609Y-103024453D01*
X60832228Y-103048262D01*
X60879847Y-103048262D01*
X60927466Y-103024453D01*
X60951276Y-103000643D01*
X60975085Y-102953024D01*
X60975085Y-102786358D01*
X60736990Y-103238739D02*
X60736990Y-103548262D01*
X60927466Y-103381596D01*
X60927466Y-103453024D01*
X60951276Y-103500643D01*
X60975085Y-103524453D01*
X61022704Y-103548262D01*
X61141752Y-103548262D01*
X61189371Y-103524453D01*
X61213180Y-103500643D01*
X61236990Y-103453024D01*
X61236990Y-103310167D01*
X61213180Y-103262548D01*
X61189371Y-103238739D01*
D10*
D13*
X22886171Y-98636971D02*
X22909980Y-98613161D01*
X22933790Y-98541733D01*
X22933790Y-98494114D01*
X22909980Y-98422685D01*
X22862361Y-98375066D01*
X22814742Y-98351257D01*
X22719504Y-98327447D01*
X22648076Y-98327447D01*
X22552838Y-98351257D01*
X22505219Y-98375066D01*
X22457600Y-98422685D01*
X22433790Y-98494114D01*
X22433790Y-98541733D01*
X22457600Y-98613161D01*
X22481409Y-98636971D01*
X22933790Y-98875066D02*
X22933790Y-98970304D01*
X22909980Y-99017923D01*
X22886171Y-99041733D01*
X22814742Y-99089352D01*
X22719504Y-99113161D01*
X22529028Y-99113161D01*
X22481409Y-99089352D01*
X22457600Y-99065542D01*
X22433790Y-99017923D01*
X22433790Y-98922685D01*
X22457600Y-98875066D01*
X22481409Y-98851257D01*
X22529028Y-98827447D01*
X22648076Y-98827447D01*
X22695695Y-98851257D01*
X22719504Y-98875066D01*
X22743314Y-98922685D01*
X22743314Y-99017923D01*
X22719504Y-99065542D01*
X22695695Y-99089352D01*
X22648076Y-99113161D01*
X22433790Y-99422685D02*
X22433790Y-99470304D01*
X22457600Y-99517923D01*
X22481409Y-99541733D01*
X22529028Y-99565542D01*
X22624266Y-99589352D01*
X22743314Y-99589352D01*
X22838552Y-99565542D01*
X22886171Y-99541733D01*
X22909980Y-99517923D01*
X22933790Y-99470304D01*
X22933790Y-99422685D01*
X22909980Y-99375066D01*
X22886171Y-99351257D01*
X22838552Y-99327447D01*
X22743314Y-99303638D01*
X22624266Y-99303638D01*
X22529028Y-99327447D01*
X22481409Y-99351257D01*
X22457600Y-99375066D01*
X22433790Y-99422685D01*
D10*
D13*
X38456988Y-167452811D02*
X38480798Y-167476620D01*
X38552226Y-167500430D01*
X38599845Y-167500430D01*
X38671274Y-167476620D01*
X38718893Y-167429001D01*
X38742702Y-167381382D01*
X38766512Y-167286144D01*
X38766512Y-167214716D01*
X38742702Y-167119478D01*
X38718893Y-167071859D01*
X38671274Y-167024240D01*
X38599845Y-167000430D01*
X38552226Y-167000430D01*
X38480798Y-167024240D01*
X38456988Y-167048049D01*
X38171274Y-167214716D02*
X38218893Y-167190906D01*
X38242702Y-167167097D01*
X38266512Y-167119478D01*
X38266512Y-167095668D01*
X38242702Y-167048049D01*
X38218893Y-167024240D01*
X38171274Y-167000430D01*
X38076036Y-167000430D01*
X38028417Y-167024240D01*
X38004607Y-167048049D01*
X37980798Y-167095668D01*
X37980798Y-167119478D01*
X38004607Y-167167097D01*
X38028417Y-167190906D01*
X38076036Y-167214716D01*
X38171274Y-167214716D01*
X38218893Y-167238525D01*
X38242702Y-167262335D01*
X38266512Y-167309954D01*
X38266512Y-167405192D01*
X38242702Y-167452811D01*
X38218893Y-167476620D01*
X38171274Y-167500430D01*
X38076036Y-167500430D01*
X38028417Y-167476620D01*
X38004607Y-167452811D01*
X37980798Y-167405192D01*
X37980798Y-167309954D01*
X38004607Y-167262335D01*
X38028417Y-167238525D01*
X38076036Y-167214716D01*
X37552226Y-167000430D02*
X37647464Y-167000430D01*
X37695083Y-167024240D01*
X37718893Y-167048049D01*
X37766512Y-167119478D01*
X37790321Y-167214716D01*
X37790321Y-167405192D01*
X37766512Y-167452811D01*
X37742702Y-167476620D01*
X37695083Y-167500430D01*
X37599845Y-167500430D01*
X37552226Y-167476620D01*
X37528417Y-167452811D01*
X37504607Y-167405192D01*
X37504607Y-167286144D01*
X37528417Y-167238525D01*
X37552226Y-167214716D01*
X37599845Y-167190906D01*
X37695083Y-167190906D01*
X37742702Y-167214716D01*
X37766512Y-167238525D01*
X37790321Y-167286144D01*
D10*
D13*
X43262668Y-175723051D02*
X43286478Y-175746860D01*
X43357906Y-175770670D01*
X43405525Y-175770670D01*
X43476954Y-175746860D01*
X43524573Y-175699241D01*
X43548382Y-175651622D01*
X43572192Y-175556384D01*
X43572192Y-175484956D01*
X43548382Y-175389718D01*
X43524573Y-175342099D01*
X43476954Y-175294480D01*
X43405525Y-175270670D01*
X43357906Y-175270670D01*
X43286478Y-175294480D01*
X43262668Y-175318289D01*
X42976954Y-175484956D02*
X43024573Y-175461146D01*
X43048382Y-175437337D01*
X43072192Y-175389718D01*
X43072192Y-175365908D01*
X43048382Y-175318289D01*
X43024573Y-175294480D01*
X42976954Y-175270670D01*
X42881716Y-175270670D01*
X42834097Y-175294480D01*
X42810287Y-175318289D01*
X42786478Y-175365908D01*
X42786478Y-175389718D01*
X42810287Y-175437337D01*
X42834097Y-175461146D01*
X42881716Y-175484956D01*
X42976954Y-175484956D01*
X43024573Y-175508765D01*
X43048382Y-175532575D01*
X43072192Y-175580194D01*
X43072192Y-175675432D01*
X43048382Y-175723051D01*
X43024573Y-175746860D01*
X42976954Y-175770670D01*
X42881716Y-175770670D01*
X42834097Y-175746860D01*
X42810287Y-175723051D01*
X42786478Y-175675432D01*
X42786478Y-175580194D01*
X42810287Y-175532575D01*
X42834097Y-175508765D01*
X42881716Y-175484956D01*
X42334097Y-175270670D02*
X42572192Y-175270670D01*
X42596001Y-175508765D01*
X42572192Y-175484956D01*
X42524573Y-175461146D01*
X42405525Y-175461146D01*
X42357906Y-175484956D01*
X42334097Y-175508765D01*
X42310287Y-175556384D01*
X42310287Y-175675432D01*
X42334097Y-175723051D01*
X42357906Y-175746860D01*
X42405525Y-175770670D01*
X42524573Y-175770670D01*
X42572192Y-175746860D01*
X42596001Y-175723051D01*
D10*
D13*
X43510971Y-172784651D02*
X43534780Y-172760841D01*
X43558590Y-172689413D01*
X43558590Y-172641794D01*
X43534780Y-172570365D01*
X43487161Y-172522746D01*
X43439542Y-172498937D01*
X43344304Y-172475127D01*
X43272876Y-172475127D01*
X43177638Y-172498937D01*
X43130019Y-172522746D01*
X43082400Y-172570365D01*
X43058590Y-172641794D01*
X43058590Y-172689413D01*
X43082400Y-172760841D01*
X43106209Y-172784651D01*
X43272876Y-173070365D02*
X43249066Y-173022746D01*
X43225257Y-172998937D01*
X43177638Y-172975127D01*
X43153828Y-172975127D01*
X43106209Y-172998937D01*
X43082400Y-173022746D01*
X43058590Y-173070365D01*
X43058590Y-173165603D01*
X43082400Y-173213222D01*
X43106209Y-173237032D01*
X43153828Y-173260841D01*
X43177638Y-173260841D01*
X43225257Y-173237032D01*
X43249066Y-173213222D01*
X43272876Y-173165603D01*
X43272876Y-173070365D01*
X43296685Y-173022746D01*
X43320495Y-172998937D01*
X43368114Y-172975127D01*
X43463352Y-172975127D01*
X43510971Y-172998937D01*
X43534780Y-173022746D01*
X43558590Y-173070365D01*
X43558590Y-173165603D01*
X43534780Y-173213222D01*
X43510971Y-173237032D01*
X43463352Y-173260841D01*
X43368114Y-173260841D01*
X43320495Y-173237032D01*
X43296685Y-173213222D01*
X43272876Y-173165603D01*
X43225257Y-173689413D02*
X43558590Y-173689413D01*
X43034780Y-173570365D02*
X43391923Y-173451318D01*
X43391923Y-173760841D01*
D10*
D13*
X30125171Y-155715851D02*
X30148980Y-155692041D01*
X30172790Y-155620613D01*
X30172790Y-155572994D01*
X30148980Y-155501565D01*
X30101361Y-155453946D01*
X30053742Y-155430137D01*
X29958504Y-155406327D01*
X29887076Y-155406327D01*
X29791838Y-155430137D01*
X29744219Y-155453946D01*
X29696600Y-155501565D01*
X29672790Y-155572994D01*
X29672790Y-155620613D01*
X29696600Y-155692041D01*
X29720409Y-155715851D01*
X29887076Y-156001565D02*
X29863266Y-155953946D01*
X29839457Y-155930137D01*
X29791838Y-155906327D01*
X29768028Y-155906327D01*
X29720409Y-155930137D01*
X29696600Y-155953946D01*
X29672790Y-156001565D01*
X29672790Y-156096803D01*
X29696600Y-156144422D01*
X29720409Y-156168232D01*
X29768028Y-156192041D01*
X29791838Y-156192041D01*
X29839457Y-156168232D01*
X29863266Y-156144422D01*
X29887076Y-156096803D01*
X29887076Y-156001565D01*
X29910885Y-155953946D01*
X29934695Y-155930137D01*
X29982314Y-155906327D01*
X30077552Y-155906327D01*
X30125171Y-155930137D01*
X30148980Y-155953946D01*
X30172790Y-156001565D01*
X30172790Y-156096803D01*
X30148980Y-156144422D01*
X30125171Y-156168232D01*
X30077552Y-156192041D01*
X29982314Y-156192041D01*
X29934695Y-156168232D01*
X29910885Y-156144422D01*
X29887076Y-156096803D01*
X29672790Y-156501565D02*
X29672790Y-156549184D01*
X29696600Y-156596803D01*
X29720409Y-156620613D01*
X29768028Y-156644422D01*
X29863266Y-156668232D01*
X29982314Y-156668232D01*
X30077552Y-156644422D01*
X30125171Y-156620613D01*
X30148980Y-156596803D01*
X30172790Y-156549184D01*
X30172790Y-156501565D01*
X30148980Y-156453946D01*
X30125171Y-156430137D01*
X30077552Y-156406327D01*
X29982314Y-156382518D01*
X29863266Y-156382518D01*
X29768028Y-156406327D01*
X29720409Y-156430137D01*
X29696600Y-156453946D01*
X29672790Y-156501565D01*
D10*
D13*
X28768811Y-158956891D02*
X28792620Y-158933081D01*
X28816430Y-158861653D01*
X28816430Y-158814034D01*
X28792620Y-158742605D01*
X28745001Y-158694986D01*
X28697382Y-158671177D01*
X28602144Y-158647367D01*
X28530716Y-158647367D01*
X28435478Y-158671177D01*
X28387859Y-158694986D01*
X28340240Y-158742605D01*
X28316430Y-158814034D01*
X28316430Y-158861653D01*
X28340240Y-158933081D01*
X28364049Y-158956891D01*
X28316430Y-159123558D02*
X28316430Y-159456891D01*
X28816430Y-159242605D01*
X28816430Y-159671177D02*
X28816430Y-159766415D01*
X28792620Y-159814034D01*
X28768811Y-159837843D01*
X28697382Y-159885462D01*
X28602144Y-159909272D01*
X28411668Y-159909272D01*
X28364049Y-159885462D01*
X28340240Y-159861653D01*
X28316430Y-159814034D01*
X28316430Y-159718796D01*
X28340240Y-159671177D01*
X28364049Y-159647367D01*
X28411668Y-159623558D01*
X28530716Y-159623558D01*
X28578335Y-159647367D01*
X28602144Y-159671177D01*
X28625954Y-159718796D01*
X28625954Y-159814034D01*
X28602144Y-159861653D01*
X28578335Y-159885462D01*
X28530716Y-159909272D01*
D10*
D13*
X26381828Y-154651211D02*
X26405638Y-154675020D01*
X26477066Y-154698830D01*
X26524685Y-154698830D01*
X26596114Y-154675020D01*
X26643733Y-154627401D01*
X26667542Y-154579782D01*
X26691352Y-154484544D01*
X26691352Y-154413116D01*
X26667542Y-154317878D01*
X26643733Y-154270259D01*
X26596114Y-154222640D01*
X26524685Y-154198830D01*
X26477066Y-154198830D01*
X26405638Y-154222640D01*
X26381828Y-154246449D01*
X26215161Y-154198830D02*
X25881828Y-154198830D01*
X26096114Y-154698830D01*
X25619923Y-154413116D02*
X25667542Y-154389306D01*
X25691352Y-154365497D01*
X25715161Y-154317878D01*
X25715161Y-154294068D01*
X25691352Y-154246449D01*
X25667542Y-154222640D01*
X25619923Y-154198830D01*
X25524685Y-154198830D01*
X25477066Y-154222640D01*
X25453257Y-154246449D01*
X25429447Y-154294068D01*
X25429447Y-154317878D01*
X25453257Y-154365497D01*
X25477066Y-154389306D01*
X25524685Y-154413116D01*
X25619923Y-154413116D01*
X25667542Y-154436925D01*
X25691352Y-154460735D01*
X25715161Y-154508354D01*
X25715161Y-154603592D01*
X25691352Y-154651211D01*
X25667542Y-154675020D01*
X25619923Y-154698830D01*
X25524685Y-154698830D01*
X25477066Y-154675020D01*
X25453257Y-154651211D01*
X25429447Y-154603592D01*
X25429447Y-154508354D01*
X25453257Y-154460735D01*
X25477066Y-154436925D01*
X25524685Y-154413116D01*
D10*
D13*
X58982728Y-108636571D02*
X59006538Y-108660380D01*
X59077966Y-108684190D01*
X59125585Y-108684190D01*
X59197014Y-108660380D01*
X59244633Y-108612761D01*
X59268442Y-108565142D01*
X59292252Y-108469904D01*
X59292252Y-108398476D01*
X59268442Y-108303238D01*
X59244633Y-108255619D01*
X59197014Y-108208000D01*
X59125585Y-108184190D01*
X59077966Y-108184190D01*
X59006538Y-108208000D01*
X58982728Y-108231809D01*
X58816061Y-108184190D02*
X58482728Y-108184190D01*
X58697014Y-108684190D01*
X58339871Y-108184190D02*
X58006538Y-108184190D01*
X58220823Y-108684190D01*
D10*
D13*
X22388331Y-155634571D02*
X22412140Y-155610761D01*
X22435950Y-155539333D01*
X22435950Y-155491714D01*
X22412140Y-155420285D01*
X22364521Y-155372666D01*
X22316902Y-155348857D01*
X22221664Y-155325047D01*
X22150236Y-155325047D01*
X22054998Y-155348857D01*
X22007379Y-155372666D01*
X21959760Y-155420285D01*
X21935950Y-155491714D01*
X21935950Y-155539333D01*
X21959760Y-155610761D01*
X21983569Y-155634571D01*
X21935950Y-155801238D02*
X21935950Y-156134571D01*
X22435950Y-155920285D01*
X21935950Y-156539333D02*
X21935950Y-156444095D01*
X21959760Y-156396476D01*
X21983569Y-156372666D01*
X22054998Y-156325047D01*
X22150236Y-156301238D01*
X22340712Y-156301238D01*
X22388331Y-156325047D01*
X22412140Y-156348857D01*
X22435950Y-156396476D01*
X22435950Y-156491714D01*
X22412140Y-156539333D01*
X22388331Y-156563142D01*
X22340712Y-156586952D01*
X22221664Y-156586952D01*
X22174045Y-156563142D01*
X22150236Y-156539333D01*
X22126426Y-156491714D01*
X22126426Y-156396476D01*
X22150236Y-156348857D01*
X22174045Y-156325047D01*
X22221664Y-156301238D01*
D10*
D13*
X55114308Y-106005131D02*
X55138118Y-106028940D01*
X55209546Y-106052750D01*
X55257165Y-106052750D01*
X55328594Y-106028940D01*
X55376213Y-105981321D01*
X55400022Y-105933702D01*
X55423832Y-105838464D01*
X55423832Y-105767036D01*
X55400022Y-105671798D01*
X55376213Y-105624179D01*
X55328594Y-105576560D01*
X55257165Y-105552750D01*
X55209546Y-105552750D01*
X55138118Y-105576560D01*
X55114308Y-105600369D01*
X54947641Y-105552750D02*
X54614308Y-105552750D01*
X54828594Y-106052750D01*
X54185737Y-105552750D02*
X54423832Y-105552750D01*
X54447641Y-105790845D01*
X54423832Y-105767036D01*
X54376213Y-105743226D01*
X54257165Y-105743226D01*
X54209546Y-105767036D01*
X54185737Y-105790845D01*
X54161927Y-105838464D01*
X54161927Y-105957512D01*
X54185737Y-106005131D01*
X54209546Y-106028940D01*
X54257165Y-106052750D01*
X54376213Y-106052750D01*
X54423832Y-106028940D01*
X54447641Y-106005131D01*
D10*
D13*
X23632931Y-159901771D02*
X23656740Y-159877961D01*
X23680550Y-159806533D01*
X23680550Y-159758914D01*
X23656740Y-159687485D01*
X23609121Y-159639866D01*
X23561502Y-159616057D01*
X23466264Y-159592247D01*
X23394836Y-159592247D01*
X23299598Y-159616057D01*
X23251979Y-159639866D01*
X23204360Y-159687485D01*
X23180550Y-159758914D01*
X23180550Y-159806533D01*
X23204360Y-159877961D01*
X23228169Y-159901771D01*
X23180550Y-160068438D02*
X23180550Y-160401771D01*
X23680550Y-160187485D01*
X23347217Y-160806533D02*
X23680550Y-160806533D01*
X23156740Y-160687485D02*
X23513883Y-160568438D01*
X23513883Y-160877961D01*
D10*
D13*
X62114548Y-100528891D02*
X62138358Y-100552700D01*
X62209786Y-100576510D01*
X62257405Y-100576510D01*
X62328834Y-100552700D01*
X62376453Y-100505081D01*
X62400262Y-100457462D01*
X62424072Y-100362224D01*
X62424072Y-100290796D01*
X62400262Y-100195558D01*
X62376453Y-100147939D01*
X62328834Y-100100320D01*
X62257405Y-100076510D01*
X62209786Y-100076510D01*
X62138358Y-100100320D01*
X62114548Y-100124129D01*
X61947881Y-100076510D02*
X61614548Y-100076510D01*
X61828834Y-100576510D01*
X61471691Y-100076510D02*
X61162167Y-100076510D01*
X61328834Y-100266986D01*
X61257405Y-100266986D01*
X61209786Y-100290796D01*
X61185977Y-100314605D01*
X61162167Y-100362224D01*
X61162167Y-100481272D01*
X61185977Y-100528891D01*
X61209786Y-100552700D01*
X61257405Y-100576510D01*
X61400262Y-100576510D01*
X61447881Y-100552700D01*
X61471691Y-100528891D01*
D10*
D13*
X49962571Y-98421071D02*
X49986380Y-98397261D01*
X50010190Y-98325833D01*
X50010190Y-98278214D01*
X49986380Y-98206785D01*
X49938761Y-98159166D01*
X49891142Y-98135357D01*
X49795904Y-98111547D01*
X49724476Y-98111547D01*
X49629238Y-98135357D01*
X49581619Y-98159166D01*
X49534000Y-98206785D01*
X49510190Y-98278214D01*
X49510190Y-98325833D01*
X49534000Y-98397261D01*
X49557809Y-98421071D01*
X49510190Y-98587738D02*
X49510190Y-98921071D01*
X50010190Y-98706785D01*
X50010190Y-99373452D02*
X50010190Y-99087738D01*
X50010190Y-99230595D02*
X49510190Y-99230595D01*
X49581619Y-99182976D01*
X49629238Y-99135357D01*
X49653047Y-99087738D01*
D10*
D13*
X52528171Y-91270971D02*
X52551980Y-91247161D01*
X52575790Y-91175733D01*
X52575790Y-91128114D01*
X52551980Y-91056685D01*
X52504361Y-91009066D01*
X52456742Y-90985257D01*
X52361504Y-90961447D01*
X52290076Y-90961447D01*
X52194838Y-90985257D01*
X52147219Y-91009066D01*
X52099600Y-91056685D01*
X52075790Y-91128114D01*
X52075790Y-91175733D01*
X52099600Y-91247161D01*
X52123409Y-91270971D01*
X52075790Y-91699542D02*
X52075790Y-91604304D01*
X52099600Y-91556685D01*
X52123409Y-91532876D01*
X52194838Y-91485257D01*
X52290076Y-91461447D01*
X52480552Y-91461447D01*
X52528171Y-91485257D01*
X52551980Y-91509066D01*
X52575790Y-91556685D01*
X52575790Y-91651923D01*
X52551980Y-91699542D01*
X52528171Y-91723352D01*
X52480552Y-91747161D01*
X52361504Y-91747161D01*
X52313885Y-91723352D01*
X52290076Y-91699542D01*
X52266266Y-91651923D01*
X52266266Y-91556685D01*
X52290076Y-91509066D01*
X52313885Y-91485257D01*
X52361504Y-91461447D01*
X52575790Y-91985257D02*
X52575790Y-92080495D01*
X52551980Y-92128114D01*
X52528171Y-92151923D01*
X52456742Y-92199542D01*
X52361504Y-92223352D01*
X52171028Y-92223352D01*
X52123409Y-92199542D01*
X52099600Y-92175733D01*
X52075790Y-92128114D01*
X52075790Y-92032876D01*
X52099600Y-91985257D01*
X52123409Y-91961447D01*
X52171028Y-91937638D01*
X52290076Y-91937638D01*
X52337695Y-91961447D01*
X52361504Y-91985257D01*
X52385314Y-92032876D01*
X52385314Y-92128114D01*
X52361504Y-92175733D01*
X52337695Y-92199542D01*
X52290076Y-92223352D01*
D10*
D13*
X30188028Y-139169971D02*
X30211838Y-139193780D01*
X30283266Y-139217590D01*
X30330885Y-139217590D01*
X30402314Y-139193780D01*
X30449933Y-139146161D01*
X30473742Y-139098542D01*
X30497552Y-139003304D01*
X30497552Y-138931876D01*
X30473742Y-138836638D01*
X30449933Y-138789019D01*
X30402314Y-138741400D01*
X30330885Y-138717590D01*
X30283266Y-138717590D01*
X30211838Y-138741400D01*
X30188028Y-138765209D01*
X29711838Y-139217590D02*
X29997552Y-139217590D01*
X29854695Y-139217590D02*
X29854695Y-138717590D01*
X29902314Y-138789019D01*
X29949933Y-138836638D01*
X29997552Y-138860447D01*
X29545171Y-138717590D02*
X29211838Y-138717590D01*
X29426123Y-139217590D01*
D10*
D13*
X30602691Y-153942931D02*
X30626500Y-153919121D01*
X30650310Y-153847693D01*
X30650310Y-153800074D01*
X30626500Y-153728645D01*
X30578881Y-153681026D01*
X30531262Y-153657217D01*
X30436024Y-153633407D01*
X30364596Y-153633407D01*
X30269358Y-153657217D01*
X30221739Y-153681026D01*
X30174120Y-153728645D01*
X30150310Y-153800074D01*
X30150310Y-153847693D01*
X30174120Y-153919121D01*
X30197929Y-153942931D01*
X30650310Y-154419121D02*
X30650310Y-154133407D01*
X30650310Y-154276264D02*
X30150310Y-154276264D01*
X30221739Y-154228645D01*
X30269358Y-154181026D01*
X30293167Y-154133407D01*
X30150310Y-154871502D02*
X30150310Y-154633407D01*
X30388405Y-154609598D01*
X30364596Y-154633407D01*
X30340786Y-154681026D01*
X30340786Y-154800074D01*
X30364596Y-154847693D01*
X30388405Y-154871502D01*
X30436024Y-154895312D01*
X30555072Y-154895312D01*
X30602691Y-154871502D01*
X30626500Y-154847693D01*
X30650310Y-154800074D01*
X30650310Y-154681026D01*
X30626500Y-154633407D01*
X30602691Y-154609598D01*
D10*
M02*
