G04 #@! TF.GenerationSoftware,KiCad,Pcbnew,5.1.6-c6e7f7d~87~ubuntu18.04.1*
G04 #@! TF.CreationDate,2020-09-13T22:45:34+02:00*
G04 #@! TF.ProjectId,Mainboard,4d61696e-626f-4617-9264-2e6b69636164,rev?*
G04 #@! TF.SameCoordinates,Original*
G04 #@! TF.FileFunction,Legend,Top*
G04 #@! TF.FilePolarity,Positive*
%FSLAX46Y46*%
G04 Gerber Fmt 4.6, Leading zero omitted, Abs format (unit mm)*
G04 Created by KiCad (PCBNEW 5.1.6-c6e7f7d~87~ubuntu18.04.1) date 2020-09-13 22:45:34*
%MOMM*%
%LPD*%
G01*
G04 APERTURE LIST*
%ADD10C,0.150000*%
%ADD11C,0.125000*%
%ADD12C,0.120000*%
%ADD13C,0.300000*%
%ADD14C,0.200000*%
%ADD15C,0.254000*%
G04 APERTURE END LIST*
D10*
X24892260Y-150311904D02*
X23892260Y-150311904D01*
X23892260Y-150073809D01*
X23939880Y-149930952D01*
X24035118Y-149835714D01*
X24130356Y-149788095D01*
X24320832Y-149740476D01*
X24463689Y-149740476D01*
X24654165Y-149788095D01*
X24749403Y-149835714D01*
X24844641Y-149930952D01*
X24892260Y-150073809D01*
X24892260Y-150311904D01*
X24844641Y-148930952D02*
X24892260Y-149026190D01*
X24892260Y-149216666D01*
X24844641Y-149311904D01*
X24749403Y-149359523D01*
X24368451Y-149359523D01*
X24273213Y-149311904D01*
X24225594Y-149216666D01*
X24225594Y-149026190D01*
X24273213Y-148930952D01*
X24368451Y-148883333D01*
X24463689Y-148883333D01*
X24558927Y-149359523D01*
X24892260Y-148454761D02*
X23892260Y-148454761D01*
X24273213Y-148454761D02*
X24225594Y-148359523D01*
X24225594Y-148169047D01*
X24273213Y-148073809D01*
X24320832Y-148026190D01*
X24416070Y-147978571D01*
X24701784Y-147978571D01*
X24797022Y-148026190D01*
X24844641Y-148073809D01*
X24892260Y-148169047D01*
X24892260Y-148359523D01*
X24844641Y-148454761D01*
X24225594Y-147121428D02*
X24892260Y-147121428D01*
X24225594Y-147550000D02*
X24749403Y-147550000D01*
X24844641Y-147502380D01*
X24892260Y-147407142D01*
X24892260Y-147264285D01*
X24844641Y-147169047D01*
X24797022Y-147121428D01*
X24225594Y-146216666D02*
X25035118Y-146216666D01*
X25130356Y-146264285D01*
X25177975Y-146311904D01*
X25225594Y-146407142D01*
X25225594Y-146550000D01*
X25177975Y-146645238D01*
X24844641Y-146216666D02*
X24892260Y-146311904D01*
X24892260Y-146502380D01*
X24844641Y-146597619D01*
X24797022Y-146645238D01*
X24701784Y-146692857D01*
X24416070Y-146692857D01*
X24320832Y-146645238D01*
X24273213Y-146597619D01*
X24225594Y-146502380D01*
X24225594Y-146311904D01*
X24273213Y-146216666D01*
X23892260Y-144978571D02*
X24701784Y-144978571D01*
X24797022Y-144930952D01*
X24844641Y-144883333D01*
X24892260Y-144788095D01*
X24892260Y-144597619D01*
X24844641Y-144502380D01*
X24797022Y-144454761D01*
X24701784Y-144407142D01*
X23892260Y-144407142D01*
X24606546Y-143978571D02*
X24606546Y-143502380D01*
X24892260Y-144073809D02*
X23892260Y-143740476D01*
X24892260Y-143407142D01*
X24892260Y-142502380D02*
X24416070Y-142835714D01*
X24892260Y-143073809D02*
X23892260Y-143073809D01*
X23892260Y-142692857D01*
X23939880Y-142597619D01*
X23987499Y-142550000D01*
X24082737Y-142502380D01*
X24225594Y-142502380D01*
X24320832Y-142550000D01*
X24368451Y-142597619D01*
X24416070Y-142692857D01*
X24416070Y-143073809D01*
X23892260Y-142216666D02*
X23892260Y-141645238D01*
X24892260Y-141930952D02*
X23892260Y-141930952D01*
X39575241Y-139085580D02*
X39575241Y-138085580D01*
X39575241Y-138561771D02*
X40146670Y-138561771D01*
X40146670Y-139085580D02*
X40146670Y-138085580D01*
X40622860Y-139085580D02*
X40622860Y-138085580D01*
X40956194Y-138799866D01*
X41289527Y-138085580D01*
X41289527Y-139085580D01*
X41765718Y-139085580D02*
X41765718Y-138085580D01*
D11*
X61172097Y-168997422D02*
X61210192Y-168883137D01*
X61248287Y-168845041D01*
X61324478Y-168806946D01*
X61438763Y-168806946D01*
X61514954Y-168845041D01*
X61553049Y-168883137D01*
X61591144Y-168959327D01*
X61591144Y-169264089D01*
X60791144Y-169264089D01*
X60791144Y-168997422D01*
X60829240Y-168921232D01*
X60867335Y-168883137D01*
X60943525Y-168845041D01*
X61019716Y-168845041D01*
X61095906Y-168883137D01*
X61134001Y-168921232D01*
X61172097Y-168997422D01*
X61172097Y-169264089D01*
X61591144Y-168121232D02*
X61172097Y-168121232D01*
X61095906Y-168159327D01*
X61057811Y-168235518D01*
X61057811Y-168387899D01*
X61095906Y-168464089D01*
X61553049Y-168121232D02*
X61591144Y-168197422D01*
X61591144Y-168387899D01*
X61553049Y-168464089D01*
X61476859Y-168502184D01*
X61400668Y-168502184D01*
X61324478Y-168464089D01*
X61286382Y-168387899D01*
X61286382Y-168197422D01*
X61248287Y-168121232D01*
X61057811Y-167854565D02*
X61057811Y-167549803D01*
X60791144Y-167740280D02*
X61476859Y-167740280D01*
X61553049Y-167702184D01*
X61591144Y-167625994D01*
X61591144Y-167549803D01*
X61057811Y-167397422D02*
X61057811Y-167092660D01*
X60791144Y-167283137D02*
X61476859Y-167283137D01*
X61553049Y-167245041D01*
X61591144Y-167168851D01*
X61591144Y-167092660D01*
X61553049Y-166521232D02*
X61591144Y-166597422D01*
X61591144Y-166749803D01*
X61553049Y-166825994D01*
X61476859Y-166864089D01*
X61172097Y-166864089D01*
X61095906Y-166825994D01*
X61057811Y-166749803D01*
X61057811Y-166597422D01*
X61095906Y-166521232D01*
X61172097Y-166483137D01*
X61248287Y-166483137D01*
X61324478Y-166864089D01*
X61591144Y-166140280D02*
X61057811Y-166140280D01*
X61210192Y-166140280D02*
X61134001Y-166102184D01*
X61095906Y-166064089D01*
X61057811Y-165987899D01*
X61057811Y-165911708D01*
X61057811Y-165721232D02*
X61591144Y-165530756D01*
X61057811Y-165340280D02*
X61591144Y-165530756D01*
X61781620Y-165606946D01*
X61819716Y-165645041D01*
X61857811Y-165721232D01*
X48585234Y-72843373D02*
X48966186Y-72843373D01*
X48509043Y-73071944D02*
X48775710Y-72271944D01*
X49042377Y-73071944D01*
X49309043Y-73071944D02*
X49309043Y-72271944D01*
X49766186Y-73071944D01*
X49766186Y-72271944D01*
X50032853Y-72271944D02*
X50489996Y-72271944D01*
X50261424Y-73071944D02*
X50261424Y-72271944D01*
X21736152Y-105022604D02*
X21736152Y-104222604D01*
X22040914Y-104222604D01*
X22117104Y-104260700D01*
X22155200Y-104298795D01*
X22193295Y-104374985D01*
X22193295Y-104489271D01*
X22155200Y-104565461D01*
X22117104Y-104603557D01*
X22040914Y-104641652D01*
X21736152Y-104641652D01*
X22421866Y-104222604D02*
X22879009Y-104222604D01*
X22650438Y-105022604D02*
X22650438Y-104222604D01*
X23031390Y-104222604D02*
X23488533Y-104222604D01*
X23259961Y-105022604D02*
X23259961Y-104222604D01*
X46577300Y-127704557D02*
X46539204Y-127780747D01*
X46539204Y-127895033D01*
X46577300Y-128009319D01*
X46653490Y-128085509D01*
X46729680Y-128123604D01*
X46882061Y-128161700D01*
X46996347Y-128161700D01*
X47148728Y-128123604D01*
X47224919Y-128085509D01*
X47301109Y-128009319D01*
X47339204Y-127895033D01*
X47339204Y-127818842D01*
X47301109Y-127704557D01*
X47263014Y-127666461D01*
X46996347Y-127666461D01*
X46996347Y-127818842D01*
X47339204Y-127323604D02*
X46539204Y-127323604D01*
X46539204Y-127018842D01*
X46577300Y-126942652D01*
X46615395Y-126904557D01*
X46691585Y-126866461D01*
X46805871Y-126866461D01*
X46882061Y-126904557D01*
X46920157Y-126942652D01*
X46958252Y-127018842D01*
X46958252Y-127323604D01*
X47301109Y-126561700D02*
X47339204Y-126447414D01*
X47339204Y-126256938D01*
X47301109Y-126180747D01*
X47263014Y-126142652D01*
X47186823Y-126104557D01*
X47110633Y-126104557D01*
X47034442Y-126142652D01*
X46996347Y-126180747D01*
X46958252Y-126256938D01*
X46920157Y-126409319D01*
X46882061Y-126485509D01*
X46843966Y-126523604D01*
X46767776Y-126561700D01*
X46691585Y-126561700D01*
X46615395Y-126523604D01*
X46577300Y-126485509D01*
X46539204Y-126409319D01*
X46539204Y-126218842D01*
X46577300Y-126104557D01*
X46539204Y-125152176D02*
X47186823Y-125152176D01*
X47263014Y-125114080D01*
X47301109Y-125075985D01*
X47339204Y-124999795D01*
X47339204Y-124847414D01*
X47301109Y-124771223D01*
X47263014Y-124733128D01*
X47186823Y-124695033D01*
X46539204Y-124695033D01*
X47110633Y-124352176D02*
X47110633Y-123971223D01*
X47339204Y-124428366D02*
X46539204Y-124161700D01*
X47339204Y-123895033D01*
X47339204Y-123171223D02*
X46958252Y-123437890D01*
X47339204Y-123628366D02*
X46539204Y-123628366D01*
X46539204Y-123323604D01*
X46577300Y-123247414D01*
X46615395Y-123209319D01*
X46691585Y-123171223D01*
X46805871Y-123171223D01*
X46882061Y-123209319D01*
X46920157Y-123247414D01*
X46958252Y-123323604D01*
X46958252Y-123628366D01*
X46539204Y-122942652D02*
X46539204Y-122485509D01*
X47339204Y-122714080D02*
X46539204Y-122714080D01*
X48177409Y-137591295D02*
X48215504Y-137477009D01*
X48215504Y-137286533D01*
X48177409Y-137210342D01*
X48139314Y-137172247D01*
X48063123Y-137134152D01*
X47986933Y-137134152D01*
X47910742Y-137172247D01*
X47872647Y-137210342D01*
X47834552Y-137286533D01*
X47796457Y-137438914D01*
X47758361Y-137515104D01*
X47720266Y-137553200D01*
X47644076Y-137591295D01*
X47567885Y-137591295D01*
X47491695Y-137553200D01*
X47453600Y-137515104D01*
X47415504Y-137438914D01*
X47415504Y-137248438D01*
X47453600Y-137134152D01*
X47415504Y-136867485D02*
X48215504Y-136677009D01*
X47644076Y-136524628D01*
X48215504Y-136372247D01*
X47415504Y-136181771D01*
X48215504Y-135877009D02*
X47415504Y-135877009D01*
X47415504Y-135686533D01*
X47453600Y-135572247D01*
X47529790Y-135496057D01*
X47605980Y-135457961D01*
X47758361Y-135419866D01*
X47872647Y-135419866D01*
X48025028Y-135457961D01*
X48101219Y-135496057D01*
X48177409Y-135572247D01*
X48215504Y-135686533D01*
X48215504Y-135877009D01*
X48215504Y-134467485D02*
X47415504Y-134467485D01*
X47682171Y-134086533D02*
X48215504Y-134086533D01*
X47758361Y-134086533D02*
X47720266Y-134048438D01*
X47682171Y-133972247D01*
X47682171Y-133857961D01*
X47720266Y-133781771D01*
X47796457Y-133743676D01*
X48215504Y-133743676D01*
X47682171Y-133477009D02*
X47682171Y-133172247D01*
X47415504Y-133362723D02*
X48101219Y-133362723D01*
X48177409Y-133324628D01*
X48215504Y-133248438D01*
X48215504Y-133172247D01*
X48177409Y-132600819D02*
X48215504Y-132677009D01*
X48215504Y-132829390D01*
X48177409Y-132905580D01*
X48101219Y-132943676D01*
X47796457Y-132943676D01*
X47720266Y-132905580D01*
X47682171Y-132829390D01*
X47682171Y-132677009D01*
X47720266Y-132600819D01*
X47796457Y-132562723D01*
X47872647Y-132562723D01*
X47948838Y-132943676D01*
X48215504Y-132219866D02*
X47682171Y-132219866D01*
X47834552Y-132219866D02*
X47758361Y-132181771D01*
X47720266Y-132143676D01*
X47682171Y-132067485D01*
X47682171Y-131991295D01*
X47682171Y-131838914D02*
X47682171Y-131534152D01*
X48215504Y-131724628D02*
X47529790Y-131724628D01*
X47453600Y-131686533D01*
X47415504Y-131610342D01*
X47415504Y-131534152D01*
X48215504Y-130924628D02*
X47796457Y-130924628D01*
X47720266Y-130962723D01*
X47682171Y-131038914D01*
X47682171Y-131191295D01*
X47720266Y-131267485D01*
X48177409Y-130924628D02*
X48215504Y-131000819D01*
X48215504Y-131191295D01*
X48177409Y-131267485D01*
X48101219Y-131305580D01*
X48025028Y-131305580D01*
X47948838Y-131267485D01*
X47910742Y-131191295D01*
X47910742Y-131000819D01*
X47872647Y-130924628D01*
X48177409Y-130200819D02*
X48215504Y-130277009D01*
X48215504Y-130429390D01*
X48177409Y-130505580D01*
X48139314Y-130543676D01*
X48063123Y-130581771D01*
X47834552Y-130581771D01*
X47758361Y-130543676D01*
X47720266Y-130505580D01*
X47682171Y-130429390D01*
X47682171Y-130277009D01*
X47720266Y-130200819D01*
X48177409Y-129553200D02*
X48215504Y-129629390D01*
X48215504Y-129781771D01*
X48177409Y-129857961D01*
X48101219Y-129896057D01*
X47796457Y-129896057D01*
X47720266Y-129857961D01*
X47682171Y-129781771D01*
X47682171Y-129629390D01*
X47720266Y-129553200D01*
X47796457Y-129515104D01*
X47872647Y-129515104D01*
X47948838Y-129896057D01*
X60509109Y-130523961D02*
X60547204Y-130409676D01*
X60547204Y-130219200D01*
X60509109Y-130143009D01*
X60471014Y-130104914D01*
X60394823Y-130066819D01*
X60318633Y-130066819D01*
X60242442Y-130104914D01*
X60204347Y-130143009D01*
X60166252Y-130219200D01*
X60128157Y-130371580D01*
X60090061Y-130447771D01*
X60051966Y-130485866D01*
X59975776Y-130523961D01*
X59899585Y-130523961D01*
X59823395Y-130485866D01*
X59785300Y-130447771D01*
X59747204Y-130371580D01*
X59747204Y-130181104D01*
X59785300Y-130066819D01*
X60547204Y-129723961D02*
X59747204Y-129723961D01*
X59747204Y-129533485D01*
X59785300Y-129419200D01*
X59861490Y-129343009D01*
X59937680Y-129304914D01*
X60090061Y-129266819D01*
X60204347Y-129266819D01*
X60356728Y-129304914D01*
X60432919Y-129343009D01*
X60509109Y-129419200D01*
X60547204Y-129533485D01*
X60547204Y-129723961D01*
X60471014Y-127857295D02*
X60509109Y-127895390D01*
X60547204Y-128009676D01*
X60547204Y-128085866D01*
X60509109Y-128200152D01*
X60432919Y-128276342D01*
X60356728Y-128314438D01*
X60204347Y-128352533D01*
X60090061Y-128352533D01*
X59937680Y-128314438D01*
X59861490Y-128276342D01*
X59785300Y-128200152D01*
X59747204Y-128085866D01*
X59747204Y-128009676D01*
X59785300Y-127895390D01*
X59823395Y-127857295D01*
X60547204Y-127171580D02*
X60128157Y-127171580D01*
X60051966Y-127209676D01*
X60013871Y-127285866D01*
X60013871Y-127438247D01*
X60051966Y-127514438D01*
X60509109Y-127171580D02*
X60547204Y-127247771D01*
X60547204Y-127438247D01*
X60509109Y-127514438D01*
X60432919Y-127552533D01*
X60356728Y-127552533D01*
X60280538Y-127514438D01*
X60242442Y-127438247D01*
X60242442Y-127247771D01*
X60204347Y-127171580D01*
X60547204Y-126790628D02*
X60013871Y-126790628D01*
X60166252Y-126790628D02*
X60090061Y-126752533D01*
X60051966Y-126714438D01*
X60013871Y-126638247D01*
X60013871Y-126562057D01*
X60547204Y-125952533D02*
X59747204Y-125952533D01*
X60509109Y-125952533D02*
X60547204Y-126028723D01*
X60547204Y-126181104D01*
X60509109Y-126257295D01*
X60471014Y-126295390D01*
X60394823Y-126333485D01*
X60166252Y-126333485D01*
X60090061Y-126295390D01*
X60051966Y-126257295D01*
X60013871Y-126181104D01*
X60013871Y-126028723D01*
X60051966Y-125952533D01*
X54004657Y-159435490D02*
X54004657Y-159168823D01*
X54423704Y-159054538D02*
X54423704Y-159435490D01*
X53623704Y-159435490D01*
X53623704Y-159054538D01*
X54385609Y-158749776D02*
X54423704Y-158635490D01*
X54423704Y-158445014D01*
X54385609Y-158368823D01*
X54347514Y-158330728D01*
X54271323Y-158292633D01*
X54195133Y-158292633D01*
X54118942Y-158330728D01*
X54080847Y-158368823D01*
X54042752Y-158445014D01*
X54004657Y-158597395D01*
X53966561Y-158673585D01*
X53928466Y-158711680D01*
X53852276Y-158749776D01*
X53776085Y-158749776D01*
X53699895Y-158711680D01*
X53661800Y-158673585D01*
X53623704Y-158597395D01*
X53623704Y-158406919D01*
X53661800Y-158292633D01*
X54423704Y-157949776D02*
X53623704Y-157949776D01*
X53623704Y-157645014D01*
X53661800Y-157568823D01*
X53699895Y-157530728D01*
X53776085Y-157492633D01*
X53890371Y-157492633D01*
X53966561Y-157530728D01*
X54004657Y-157568823D01*
X54042752Y-157645014D01*
X54042752Y-157949776D01*
X53966561Y-157035490D02*
X53928466Y-157111680D01*
X53890371Y-157149776D01*
X53814180Y-157187871D01*
X53776085Y-157187871D01*
X53699895Y-157149776D01*
X53661800Y-157111680D01*
X53623704Y-157035490D01*
X53623704Y-156883109D01*
X53661800Y-156806919D01*
X53699895Y-156768823D01*
X53776085Y-156730728D01*
X53814180Y-156730728D01*
X53890371Y-156768823D01*
X53928466Y-156806919D01*
X53966561Y-156883109D01*
X53966561Y-157035490D01*
X54004657Y-157111680D01*
X54042752Y-157149776D01*
X54118942Y-157187871D01*
X54271323Y-157187871D01*
X54347514Y-157149776D01*
X54385609Y-157111680D01*
X54423704Y-157035490D01*
X54423704Y-156883109D01*
X54385609Y-156806919D01*
X54347514Y-156768823D01*
X54271323Y-156730728D01*
X54118942Y-156730728D01*
X54042752Y-156768823D01*
X54004657Y-156806919D01*
X53966561Y-156883109D01*
X53699895Y-156425966D02*
X53661800Y-156387871D01*
X53623704Y-156311680D01*
X53623704Y-156121204D01*
X53661800Y-156045014D01*
X53699895Y-156006919D01*
X53776085Y-155968823D01*
X53852276Y-155968823D01*
X53966561Y-156006919D01*
X54423704Y-156464061D01*
X54423704Y-155968823D01*
X53623704Y-155283109D02*
X53623704Y-155435490D01*
X53661800Y-155511680D01*
X53699895Y-155549776D01*
X53814180Y-155625966D01*
X53966561Y-155664061D01*
X54271323Y-155664061D01*
X54347514Y-155625966D01*
X54385609Y-155587871D01*
X54423704Y-155511680D01*
X54423704Y-155359300D01*
X54385609Y-155283109D01*
X54347514Y-155245014D01*
X54271323Y-155206919D01*
X54080847Y-155206919D01*
X54004657Y-155245014D01*
X53966561Y-155283109D01*
X53928466Y-155359300D01*
X53928466Y-155511680D01*
X53966561Y-155587871D01*
X54004657Y-155625966D01*
X54080847Y-155664061D01*
X53623704Y-154521204D02*
X53623704Y-154673585D01*
X53661800Y-154749776D01*
X53699895Y-154787871D01*
X53814180Y-154864061D01*
X53966561Y-154902157D01*
X54271323Y-154902157D01*
X54347514Y-154864061D01*
X54385609Y-154825966D01*
X54423704Y-154749776D01*
X54423704Y-154597395D01*
X54385609Y-154521204D01*
X54347514Y-154483109D01*
X54271323Y-154445014D01*
X54080847Y-154445014D01*
X54004657Y-154483109D01*
X53966561Y-154521204D01*
X53928466Y-154597395D01*
X53928466Y-154749776D01*
X53966561Y-154825966D01*
X54004657Y-154864061D01*
X54080847Y-154902157D01*
X55748704Y-158864061D02*
X54948704Y-158864061D01*
X55520133Y-158597395D01*
X54948704Y-158330728D01*
X55748704Y-158330728D01*
X55748704Y-157835490D02*
X55710609Y-157911680D01*
X55672514Y-157949776D01*
X55596323Y-157987871D01*
X55367752Y-157987871D01*
X55291561Y-157949776D01*
X55253466Y-157911680D01*
X55215371Y-157835490D01*
X55215371Y-157721204D01*
X55253466Y-157645014D01*
X55291561Y-157606919D01*
X55367752Y-157568823D01*
X55596323Y-157568823D01*
X55672514Y-157606919D01*
X55710609Y-157645014D01*
X55748704Y-157721204D01*
X55748704Y-157835490D01*
X55748704Y-156883109D02*
X54948704Y-156883109D01*
X55710609Y-156883109D02*
X55748704Y-156959300D01*
X55748704Y-157111680D01*
X55710609Y-157187871D01*
X55672514Y-157225966D01*
X55596323Y-157264061D01*
X55367752Y-157264061D01*
X55291561Y-157225966D01*
X55253466Y-157187871D01*
X55215371Y-157111680D01*
X55215371Y-156959300D01*
X55253466Y-156883109D01*
X55215371Y-156159300D02*
X55748704Y-156159300D01*
X55215371Y-156502157D02*
X55634419Y-156502157D01*
X55710609Y-156464061D01*
X55748704Y-156387871D01*
X55748704Y-156273585D01*
X55710609Y-156197395D01*
X55672514Y-156159300D01*
X55748704Y-155664061D02*
X55710609Y-155740252D01*
X55634419Y-155778347D01*
X54948704Y-155778347D01*
X55710609Y-155054538D02*
X55748704Y-155130728D01*
X55748704Y-155283109D01*
X55710609Y-155359300D01*
X55634419Y-155397395D01*
X55329657Y-155397395D01*
X55253466Y-155359300D01*
X55215371Y-155283109D01*
X55215371Y-155130728D01*
X55253466Y-155054538D01*
X55329657Y-155016442D01*
X55405847Y-155016442D01*
X55482038Y-155397395D01*
D12*
X60325000Y-94107000D02*
X60325000Y-90043000D01*
X58864500Y-94107000D02*
X60325000Y-94107000D01*
X20193000Y-74041000D02*
X22225000Y-74041000D01*
X20193000Y-76136500D02*
X20193000Y-74041000D01*
X20193000Y-94107000D02*
X20193000Y-76136500D01*
X58864500Y-94107000D02*
X20193000Y-94107000D01*
X60325000Y-74041000D02*
X60325000Y-90043000D01*
X53022500Y-74041000D02*
X60325000Y-74041000D01*
X38608000Y-74041000D02*
X53022500Y-74041000D01*
X22225000Y-74041000D02*
X38608000Y-74041000D01*
X32043600Y-150622000D02*
G75*
G03*
X32043600Y-150622000I-700000J0D01*
G01*
X46644779Y-169928000D02*
X46319221Y-169928000D01*
X46644779Y-168908000D02*
X46319221Y-168908000D01*
X44751200Y-168422600D02*
X48661200Y-168422600D01*
X48661200Y-168422600D02*
X48661200Y-166552600D01*
X48661200Y-166552600D02*
X44751200Y-166552600D01*
X64433300Y-155505000D02*
X64733300Y-155205000D01*
X64733300Y-155805000D02*
X64733300Y-155205000D01*
X64433300Y-155505000D02*
X64733300Y-155805000D01*
X63533300Y-156355000D02*
X62933300Y-156355000D01*
X64233300Y-152905000D02*
X64233300Y-155705000D01*
X62933300Y-152255000D02*
X63533300Y-152255000D01*
X62233300Y-155705000D02*
X62233300Y-152905000D01*
X62933300Y-156355000D02*
G75*
G02*
X62233300Y-155655000I0J700000D01*
G01*
X64233300Y-155655000D02*
G75*
G02*
X63533300Y-156355000I-700000J0D01*
G01*
X63533300Y-152255000D02*
G75*
G02*
X64233300Y-152955000I0J-700000D01*
G01*
X62233300Y-152955000D02*
G75*
G02*
X62933300Y-152255000I700000J0D01*
G01*
X64433300Y-160115100D02*
X64733300Y-159815100D01*
X64733300Y-160415100D02*
X64733300Y-159815100D01*
X64433300Y-160115100D02*
X64733300Y-160415100D01*
X63533300Y-160965100D02*
X62933300Y-160965100D01*
X64233300Y-157515100D02*
X64233300Y-160315100D01*
X62933300Y-156865100D02*
X63533300Y-156865100D01*
X62233300Y-160315100D02*
X62233300Y-157515100D01*
X62933300Y-160965100D02*
G75*
G02*
X62233300Y-160265100I0J700000D01*
G01*
X64233300Y-160265100D02*
G75*
G02*
X63533300Y-160965100I-700000J0D01*
G01*
X63533300Y-156865100D02*
G75*
G02*
X64233300Y-157565100I0J-700000D01*
G01*
X62233300Y-157565100D02*
G75*
G02*
X62933300Y-156865100I700000J0D01*
G01*
X43597600Y-97737700D02*
X44997600Y-97737700D01*
X44997600Y-97737700D02*
X44997600Y-99137700D01*
X44997600Y-99137700D02*
X43597600Y-99137700D01*
X43597600Y-99137700D02*
X43597600Y-97737700D01*
X35253700Y-95362800D02*
X36653700Y-95362800D01*
X36653700Y-95362800D02*
X36653700Y-96762800D01*
X36653700Y-96762800D02*
X35253700Y-96762800D01*
X35253700Y-96762800D02*
X35253700Y-95362800D01*
X39664321Y-80947800D02*
X39989879Y-80947800D01*
X39664321Y-81967800D02*
X39989879Y-81967800D01*
X45439300Y-148470500D02*
X45439300Y-149400500D01*
X45439300Y-151630500D02*
X45439300Y-150700500D01*
X45439300Y-151630500D02*
X47599300Y-151630500D01*
X45439300Y-148470500D02*
X46899300Y-148470500D01*
X62010600Y-151387500D02*
X56810600Y-151387500D01*
X62010600Y-159067500D02*
X62010600Y-151387500D01*
X56810600Y-161667500D02*
X56810600Y-151387500D01*
X62010600Y-159067500D02*
X59410600Y-159067500D01*
X59410600Y-159067500D02*
X59410600Y-161667500D01*
X59410600Y-161667500D02*
X56810600Y-161667500D01*
X62010600Y-160337500D02*
X62010600Y-161667500D01*
X62010600Y-161667500D02*
X60680600Y-161667500D01*
X61229021Y-150391400D02*
X61554579Y-150391400D01*
X61229021Y-151411400D02*
X61554579Y-151411400D01*
D13*
X37769800Y-84632800D02*
X33705800Y-85394800D01*
X37769800Y-85394800D02*
X33705800Y-85394800D01*
X37769800Y-85394800D02*
X33705800Y-86156800D01*
X37769800Y-86156800D02*
X33705800Y-86156800D01*
X37769800Y-86156800D02*
X33705800Y-86918800D01*
X37769800Y-86918800D02*
X33705800Y-86918800D01*
X37769800Y-86918800D02*
X33705800Y-87680800D01*
X37769800Y-87680800D02*
X33705800Y-87680800D01*
X37769800Y-87680800D02*
X33705800Y-88442800D01*
D12*
X52072221Y-147686300D02*
X52397779Y-147686300D01*
X52072221Y-148706300D02*
X52397779Y-148706300D01*
X50294000Y-77434121D02*
X50294000Y-77759679D01*
X49274000Y-77434121D02*
X49274000Y-77759679D01*
X44587379Y-102389400D02*
X44261821Y-102389400D01*
X44587379Y-101369400D02*
X44261821Y-101369400D01*
X45768800Y-106944279D02*
X45768800Y-106618721D01*
X46788800Y-106944279D02*
X46788800Y-106618721D01*
X46643500Y-155608300D02*
X50553500Y-155608300D01*
X50553500Y-155608300D02*
X50553500Y-153738300D01*
X50553500Y-153738300D02*
X46643500Y-153738300D01*
X26172379Y-136971500D02*
X25846821Y-136971500D01*
X26172379Y-135951500D02*
X25846821Y-135951500D01*
X26172479Y-138457400D02*
X25846921Y-138457400D01*
X26172479Y-137437400D02*
X25846921Y-137437400D01*
X27777121Y-126490000D02*
X28102679Y-126490000D01*
X27777121Y-127510000D02*
X28102679Y-127510000D01*
X30761821Y-126490000D02*
X31087379Y-126490000D01*
X30761821Y-127510000D02*
X31087379Y-127510000D01*
D14*
X19926300Y-122565800D02*
X19926300Y-122065800D01*
X19926300Y-122065800D02*
X18426300Y-122065800D01*
X18426300Y-122065800D02*
X18426300Y-118065800D01*
X18426300Y-118065800D02*
X19926300Y-118065800D01*
X19926300Y-118065800D02*
X19926300Y-117565800D01*
X19926300Y-117565800D02*
X22790300Y-117565800D01*
X23276300Y-122565800D02*
X29686300Y-122565800D01*
X25926300Y-117565800D02*
X29726300Y-117565800D01*
X31926300Y-118324800D02*
X31926300Y-121806800D01*
X19923200Y-128118500D02*
X19923200Y-133308170D01*
X35423200Y-128118500D02*
X27002870Y-128118500D01*
X35423200Y-135118500D02*
X35423200Y-133117500D01*
X18423200Y-129318500D02*
X19923200Y-129318500D01*
X19923200Y-129318500D02*
X19923200Y-133855500D01*
X19923200Y-133855500D02*
X18423200Y-133855500D01*
X18423200Y-133855500D02*
X18423200Y-129318500D01*
D12*
X23264400Y-138630879D02*
X23264400Y-138305321D01*
X24284400Y-138630879D02*
X24284400Y-138305321D01*
X27789921Y-124978700D02*
X28115479Y-124978700D01*
X27789921Y-125998700D02*
X28115479Y-125998700D01*
X41539700Y-89659579D02*
X41539700Y-89334021D01*
X42559700Y-89659579D02*
X42559700Y-89334021D01*
X45096700Y-89718900D02*
X43196700Y-89718900D01*
X43696700Y-92038900D02*
X45096700Y-92038900D01*
X50484721Y-90079100D02*
X50810279Y-90079100D01*
X50484721Y-91099100D02*
X50810279Y-91099100D01*
X47838900Y-87043379D02*
X47838900Y-86717821D01*
X48858900Y-87043379D02*
X48858900Y-86717821D01*
X48909921Y-88593200D02*
X49235479Y-88593200D01*
X48909921Y-89613200D02*
X49235479Y-89613200D01*
X45951021Y-88161400D02*
X46276579Y-88161400D01*
X45951021Y-89181400D02*
X46276579Y-89181400D01*
X49053048Y-83794600D02*
X49301800Y-83794600D01*
X49301800Y-83794600D02*
X49301800Y-83594600D01*
X46330552Y-83794600D02*
X46081800Y-83794600D01*
X46081800Y-83794600D02*
X46081800Y-83594600D01*
X49053048Y-80574600D02*
X49301800Y-80574600D01*
X49301800Y-80574600D02*
X49301800Y-80774600D01*
X46330552Y-80574600D02*
X46081800Y-80574600D01*
X46081800Y-80574600D02*
X46081800Y-80774600D01*
X46081800Y-80774600D02*
X44841800Y-80774600D01*
X40870100Y-109740700D02*
G75*
G03*
X40870100Y-109740700I-700000J0D01*
G01*
X52415221Y-92200000D02*
X52740779Y-92200000D01*
X52415221Y-93220000D02*
X52740779Y-93220000D01*
X62232000Y-81396721D02*
X62232000Y-81722279D01*
X61212000Y-81396721D02*
X61212000Y-81722279D01*
X63730600Y-81396521D02*
X63730600Y-81722079D01*
X62710600Y-81396521D02*
X62710600Y-81722079D01*
X47680600Y-106604000D02*
X47680600Y-110514000D01*
X47680600Y-110514000D02*
X49550600Y-110514000D01*
X49550600Y-110514000D02*
X49550600Y-106604000D01*
X55598600Y-146111279D02*
X55598600Y-145785721D01*
X56618600Y-146111279D02*
X56618600Y-145785721D01*
X32857121Y-142009400D02*
X33182679Y-142009400D01*
X32857121Y-143029400D02*
X33182679Y-143029400D01*
X48940700Y-128164900D02*
X49743170Y-128164900D01*
X50358230Y-128164900D02*
X51160700Y-128164900D01*
X48940700Y-123149900D02*
X48940700Y-128164900D01*
X51160700Y-123149900D02*
X51160700Y-128164900D01*
X48940700Y-123149900D02*
X49487229Y-123149900D01*
X50614171Y-123149900D02*
X51160700Y-123149900D01*
X48940700Y-122389900D02*
X48940700Y-121629900D01*
X48940700Y-121629900D02*
X50050700Y-121629900D01*
X48991500Y-135962700D02*
X49793970Y-135962700D01*
X50409030Y-135962700D02*
X51211500Y-135962700D01*
X48991500Y-130947700D02*
X48991500Y-135962700D01*
X51211500Y-130947700D02*
X51211500Y-135962700D01*
X48991500Y-130947700D02*
X49538029Y-130947700D01*
X50664971Y-130947700D02*
X51211500Y-130947700D01*
X48991500Y-130187700D02*
X48991500Y-129427700D01*
X48991500Y-129427700D02*
X50101500Y-129427700D01*
X43542100Y-163696800D02*
X45942100Y-163696800D01*
X45942100Y-163696800D02*
X45942100Y-166096800D01*
X45942100Y-166096800D02*
X43542100Y-166096800D01*
X43542100Y-166096800D02*
X43542100Y-163696800D01*
X46475800Y-163633300D02*
X48875800Y-163633300D01*
X48875800Y-163633300D02*
X48875800Y-166033300D01*
X48875800Y-166033300D02*
X46475800Y-166033300D01*
X46475800Y-166033300D02*
X46475800Y-163633300D01*
X56751200Y-166633200D02*
X57553670Y-166633200D01*
X58168730Y-166633200D02*
X58971200Y-166633200D01*
X56751200Y-165428200D02*
X56751200Y-166633200D01*
X58971200Y-165428200D02*
X58971200Y-166633200D01*
X56751200Y-165428200D02*
X57297729Y-165428200D01*
X58424671Y-165428200D02*
X58971200Y-165428200D01*
X56751200Y-164668200D02*
X56751200Y-163908200D01*
X56751200Y-163908200D02*
X57861200Y-163908200D01*
X33504100Y-103924100D02*
G75*
G03*
X33504100Y-103924100I-700000J0D01*
G01*
X31002200Y-102527100D02*
G75*
G03*
X31002200Y-102527100I-700000J0D01*
G01*
X35244000Y-95796100D02*
G75*
G03*
X35244000Y-95796100I-700000J0D01*
G01*
X32095321Y-98981800D02*
X32420879Y-98981800D01*
X32095321Y-100001800D02*
X32420879Y-100001800D01*
X37119679Y-99163600D02*
X36794121Y-99163600D01*
X37119679Y-98143600D02*
X36794121Y-98143600D01*
X41527000Y-98943379D02*
X41527000Y-98617821D01*
X42547000Y-98943379D02*
X42547000Y-98617821D01*
X40053800Y-98943379D02*
X40053800Y-98617821D01*
X41073800Y-98943379D02*
X41073800Y-98617821D01*
X28585700Y-105445879D02*
X28585700Y-105120321D01*
X29605700Y-105445879D02*
X29605700Y-105120321D01*
X38059679Y-106224800D02*
X37734121Y-106224800D01*
X38059679Y-105204800D02*
X37734121Y-105204800D01*
X41590279Y-106224800D02*
X41264721Y-106224800D01*
X41590279Y-105204800D02*
X41264721Y-105204800D01*
X34237200Y-102918379D02*
X34237200Y-102592821D01*
X35257200Y-102918379D02*
X35257200Y-102592821D01*
X37162200Y-103405621D02*
X37162200Y-103731179D01*
X36142200Y-103405621D02*
X36142200Y-103731179D01*
X32349321Y-100442300D02*
X32674879Y-100442300D01*
X32349321Y-101462300D02*
X32674879Y-101462300D01*
X36893381Y-99558380D02*
X37218939Y-99558380D01*
X36893381Y-100578380D02*
X37218939Y-100578380D01*
X32349321Y-101902800D02*
X32674879Y-101902800D01*
X32349321Y-102922800D02*
X32674879Y-102922800D01*
X32852679Y-97677700D02*
X32527121Y-97677700D01*
X32852679Y-96657700D02*
X32527121Y-96657700D01*
X37746821Y-96708500D02*
X38072379Y-96708500D01*
X37746821Y-97728500D02*
X38072379Y-97728500D01*
X35257200Y-99608321D02*
X35257200Y-99933879D01*
X34237200Y-99608321D02*
X34237200Y-99933879D01*
X31041221Y-95184500D02*
X31366779Y-95184500D01*
X31041221Y-96204500D02*
X31366779Y-96204500D01*
X56102000Y-140287100D02*
X54302000Y-140287100D01*
X54302000Y-143507100D02*
X56752000Y-143507100D01*
X65072280Y-166203320D02*
X64269810Y-166203320D01*
X63654750Y-166203320D02*
X62852280Y-166203320D01*
X65072280Y-168678320D02*
X65072280Y-166203320D01*
X62852280Y-168678320D02*
X62852280Y-166203320D01*
X65072280Y-168678320D02*
X64525751Y-168678320D01*
X63398809Y-168678320D02*
X62852280Y-168678320D01*
X65072280Y-169438320D02*
X65072280Y-170198320D01*
X65072280Y-170198320D02*
X63962280Y-170198320D01*
X50179700Y-148478121D02*
X50179700Y-148803679D01*
X49159700Y-148478121D02*
X49159700Y-148803679D01*
X33661500Y-118484800D02*
X36061500Y-118484800D01*
X36061500Y-118484800D02*
X36061500Y-120884800D01*
X36061500Y-120884800D02*
X33661500Y-120884800D01*
X33661500Y-120884800D02*
X33661500Y-118484800D01*
X33661500Y-115462200D02*
X36061500Y-115462200D01*
X36061500Y-115462200D02*
X36061500Y-117862200D01*
X36061500Y-117862200D02*
X33661500Y-117862200D01*
X33661500Y-117862200D02*
X33661500Y-115462200D01*
X36201500Y-128822300D02*
X36201500Y-126422300D01*
X36201500Y-126422300D02*
X38601500Y-126422300D01*
X38601500Y-126422300D02*
X38601500Y-128822300D01*
X38601500Y-128822300D02*
X36201500Y-128822300D01*
X33178900Y-125139600D02*
X35578900Y-125139600D01*
X35578900Y-125139600D02*
X35578900Y-127539600D01*
X35578900Y-127539600D02*
X33178900Y-127539600D01*
X33178900Y-127539600D02*
X33178900Y-125139600D01*
X49825200Y-163153600D02*
X49825200Y-161153600D01*
X49825200Y-161153600D02*
X45925200Y-161153600D01*
X49825200Y-163153600D02*
X45925200Y-163153600D01*
X59941679Y-149887400D02*
X59616121Y-149887400D01*
X59941679Y-148867400D02*
X59616121Y-148867400D01*
X53579079Y-171604400D02*
X53253521Y-171604400D01*
X53579079Y-170584400D02*
X53253521Y-170584400D01*
X34952400Y-154167621D02*
X34952400Y-154493179D01*
X33932400Y-154167621D02*
X33932400Y-154493179D01*
X59027600Y-169479279D02*
X59027600Y-169153721D01*
X60047600Y-169479279D02*
X60047600Y-169153721D01*
X58561700Y-169153721D02*
X58561700Y-169479279D01*
X57541700Y-169153721D02*
X57541700Y-169479279D01*
X42274400Y-144792400D02*
X42274400Y-143302400D01*
X42274400Y-143302400D02*
X40934400Y-143302400D01*
X42274400Y-150112400D02*
X42274400Y-151602400D01*
X42274400Y-151602400D02*
X40934400Y-151602400D01*
X38214400Y-143302400D02*
X36474400Y-143302400D01*
X36474400Y-143302400D02*
X36474400Y-151602400D01*
X36474400Y-151602400D02*
X38214400Y-151602400D01*
X42274400Y-144792400D02*
X43474400Y-144792400D01*
X52001340Y-135554300D02*
X65209340Y-135554300D01*
X65209340Y-135554300D02*
X65209340Y-118409300D01*
X65209340Y-118409300D02*
X52763340Y-118409300D01*
X52763340Y-118409300D02*
X51747340Y-118409300D01*
X51747340Y-118409300D02*
X51747340Y-135554300D01*
X51747340Y-135554300D02*
X52001340Y-135554300D01*
X65209340Y-135554300D02*
X65844340Y-135554300D01*
X65844340Y-135554300D02*
X65844340Y-118409300D01*
X65844340Y-118409300D02*
X65209340Y-118409300D01*
X53271340Y-118409300D02*
X51747340Y-119933300D01*
X25680360Y-172554880D02*
X25680360Y-173357350D01*
X25680360Y-173972410D02*
X25680360Y-174774880D01*
X28155360Y-172554880D02*
X25680360Y-172554880D01*
X28155360Y-174774880D02*
X25680360Y-174774880D01*
X28155360Y-172554880D02*
X28155360Y-173101409D01*
X28155360Y-174228351D02*
X28155360Y-174774880D01*
X28915360Y-172554880D02*
X29675360Y-172554880D01*
X29675360Y-172554880D02*
X29675360Y-173664880D01*
X25839400Y-150021600D02*
X26641870Y-150021600D01*
X27256930Y-150021600D02*
X28059400Y-150021600D01*
X25839400Y-147546600D02*
X25839400Y-150021600D01*
X28059400Y-147546600D02*
X28059400Y-150021600D01*
X25839400Y-147546600D02*
X26385929Y-147546600D01*
X27512871Y-147546600D02*
X28059400Y-147546600D01*
X25839400Y-146786600D02*
X25839400Y-146026600D01*
X25839400Y-146026600D02*
X26949400Y-146026600D01*
X32154160Y-77001460D02*
X33354160Y-77001460D01*
X32154160Y-81001460D02*
X32154160Y-77001460D01*
X36954160Y-77001460D02*
X36954160Y-79701460D01*
X35754160Y-77001460D02*
X36954160Y-77001460D01*
X27810160Y-76970160D02*
X27810160Y-79670160D01*
X23010160Y-76970160D02*
X24210160Y-76970160D01*
X23010160Y-80970160D02*
X23010160Y-76970160D01*
X26610160Y-76970160D02*
X27810160Y-76970160D01*
X51863200Y-170251400D02*
X55773200Y-170251400D01*
X55773200Y-170251400D02*
X55773200Y-168381400D01*
X55773200Y-168381400D02*
X51863200Y-168381400D01*
X56872800Y-115638800D02*
G75*
G03*
X56872800Y-115638800I-60000J0D01*
G01*
X56962800Y-115638800D02*
G75*
G03*
X56962800Y-115638800I-150000J0D01*
G01*
X60212800Y-115638800D02*
X59512800Y-115638800D01*
X60212800Y-111738800D02*
X60212800Y-112488800D01*
X56812800Y-111738800D02*
X57512800Y-111738800D01*
X56812800Y-112488800D02*
X56812800Y-111738800D01*
X59512800Y-111738800D02*
X60212800Y-111738800D01*
X60212800Y-114888800D02*
X60212800Y-115638800D01*
X22636800Y-159250380D02*
X22636800Y-161200380D01*
X22636800Y-159250380D02*
X22636800Y-157300380D01*
X27756800Y-159250380D02*
X27756800Y-161200380D01*
X27756800Y-159250380D02*
X27756800Y-155800380D01*
X63350300Y-105827600D02*
X63350300Y-103877600D01*
X63350300Y-105827600D02*
X63350300Y-107777600D01*
X54480300Y-105827600D02*
X54480300Y-103877600D01*
X54480300Y-105827600D02*
X54480300Y-109277600D01*
X24226000Y-96024000D02*
X23876000Y-96024000D01*
X24226000Y-95134000D02*
X24226000Y-96024000D01*
X23926000Y-95134000D02*
X24226000Y-95134000D01*
X21286000Y-95134000D02*
X17436000Y-95134000D01*
X17436000Y-95134000D02*
X17436000Y-102874000D01*
X17436000Y-102874000D02*
X21286000Y-102874000D01*
X21676000Y-101494000D02*
X21676000Y-96514000D01*
X24226000Y-101984000D02*
X24226000Y-102874000D01*
X24226000Y-101984000D02*
X23876000Y-101984000D01*
X23926000Y-102874000D02*
X24226000Y-102874000D01*
X29149580Y-169319159D02*
X29149580Y-168993601D01*
X30169580Y-169319159D02*
X30169580Y-168993601D01*
X61376879Y-117045200D02*
X61051321Y-117045200D01*
X61376879Y-116025200D02*
X61051321Y-116025200D01*
X61724000Y-114111721D02*
X61724000Y-114437279D01*
X60704000Y-114111721D02*
X60704000Y-114437279D01*
X25643300Y-100611621D02*
X25643300Y-100937179D01*
X24623300Y-100611621D02*
X24623300Y-100937179D01*
X33106679Y-168962800D02*
X32781121Y-168962800D01*
X33106679Y-167942800D02*
X32781121Y-167942800D01*
X27599759Y-171888880D02*
X27274201Y-171888880D01*
X27599759Y-170868880D02*
X27274201Y-170868880D01*
X28141200Y-158574959D02*
X28141200Y-158249401D01*
X29161200Y-158574959D02*
X29161200Y-158249401D01*
X29161200Y-155277501D02*
X29161200Y-155603059D01*
X28141200Y-155277501D02*
X28141200Y-155603059D01*
X25232579Y-155315380D02*
X24907021Y-155315380D01*
X25232579Y-154295380D02*
X24907021Y-154295380D01*
X53634321Y-94790800D02*
X53959879Y-94790800D01*
X53634321Y-95810800D02*
X53959879Y-95810800D01*
X56631300Y-96001521D02*
X56631300Y-96327079D01*
X55611300Y-96001521D02*
X55611300Y-96327079D01*
X54341079Y-98884200D02*
X54015521Y-98884200D01*
X54341079Y-97864200D02*
X54015521Y-97864200D01*
X51932621Y-87793100D02*
X52258179Y-87793100D01*
X51932621Y-88813100D02*
X52258179Y-88813100D01*
X54904421Y-87767700D02*
X55229979Y-87767700D01*
X54904421Y-88787700D02*
X55229979Y-88787700D01*
X57101200Y-83885921D02*
X57101200Y-84211479D01*
X56081200Y-83885921D02*
X56081200Y-84211479D01*
X51064700Y-85722779D02*
X51064700Y-85397221D01*
X52084700Y-85722779D02*
X52084700Y-85397221D01*
X32079981Y-83332860D02*
X32405539Y-83332860D01*
X32079981Y-84352860D02*
X32405539Y-84352860D01*
X29733121Y-89215500D02*
X30058679Y-89215500D01*
X29733121Y-90235500D02*
X30058679Y-90235500D01*
X47525821Y-141742700D02*
X47851379Y-141742700D01*
X47525821Y-142762700D02*
X47851379Y-142762700D01*
X47525821Y-143215900D02*
X47851379Y-143215900D01*
X47525821Y-144235900D02*
X47851379Y-144235900D01*
X42479179Y-154637200D02*
X42153621Y-154637200D01*
X42479179Y-153617200D02*
X42153621Y-153617200D01*
X55298221Y-138847100D02*
X55623779Y-138847100D01*
X55298221Y-139867100D02*
X55623779Y-139867100D01*
X51239500Y-151109900D02*
X50309500Y-151109900D01*
X48079500Y-151109900D02*
X49009500Y-151109900D01*
X48079500Y-151109900D02*
X48079500Y-153269900D01*
X51239500Y-151109900D02*
X51239500Y-152569900D01*
X53507521Y-79766700D02*
X53833079Y-79766700D01*
X53507521Y-80786700D02*
X53833079Y-80786700D01*
X51267900Y-82674779D02*
X51267900Y-82349221D01*
X52287900Y-82674779D02*
X52287900Y-82349221D01*
X47220921Y-79111380D02*
X47546479Y-79111380D01*
X47220921Y-80131380D02*
X47546479Y-80131380D01*
X36718021Y-81493900D02*
X37043579Y-81493900D01*
X36718021Y-82513900D02*
X37043579Y-82513900D01*
X32079981Y-81504060D02*
X32405539Y-81504060D01*
X32079981Y-82524060D02*
X32405539Y-82524060D01*
X26474960Y-84386639D02*
X26474960Y-84061081D01*
X27494960Y-84386639D02*
X27494960Y-84061081D01*
X24790619Y-85643180D02*
X24465061Y-85643180D01*
X24790619Y-84623180D02*
X24465061Y-84623180D01*
X24854440Y-87536239D02*
X24854440Y-87210681D01*
X25874440Y-87536239D02*
X25874440Y-87210681D01*
X54702000Y-73880000D02*
X54452000Y-73380000D01*
X54202000Y-73880000D02*
X54702000Y-73880000D01*
X54452000Y-73380000D02*
X54202000Y-73880000D01*
X56402000Y-69120000D02*
X55292000Y-69120000D01*
X53612000Y-69120000D02*
X52502000Y-69120000D01*
X56402000Y-72830000D02*
X55292000Y-72830000D01*
X53612000Y-72830000D02*
X52502000Y-72830000D01*
X62635100Y-145443800D02*
X60035100Y-145443800D01*
X60035100Y-137523800D02*
X62635100Y-137523800D01*
X57725100Y-144683800D02*
X57725100Y-143533800D01*
X57725100Y-143533800D02*
X57135100Y-143533800D01*
X57135100Y-143533800D02*
X57135100Y-142833800D01*
X57725100Y-139433800D02*
X57725100Y-138283800D01*
X65535100Y-145443800D02*
X67195100Y-145443800D01*
X67195100Y-145443800D02*
X67195100Y-137523800D01*
X67195100Y-137523800D02*
X65535100Y-137523800D01*
X36713279Y-157736000D02*
X36387721Y-157736000D01*
X36713279Y-156716000D02*
X36387721Y-156716000D01*
X39385121Y-156716000D02*
X39710679Y-156716000D01*
X39385121Y-157736000D02*
X39710679Y-157736000D01*
X63614100Y-75769800D02*
X61329100Y-75769800D01*
X61329100Y-75769800D02*
X61329100Y-77239800D01*
X61329100Y-77239800D02*
X63614100Y-77239800D01*
X63614100Y-77243000D02*
X61329100Y-77243000D01*
X61329100Y-77243000D02*
X61329100Y-78713000D01*
X61329100Y-78713000D02*
X63614100Y-78713000D01*
X52524540Y-86548500D02*
X53454540Y-86548500D01*
X55684540Y-86548500D02*
X54754540Y-86548500D01*
X55684540Y-86548500D02*
X55684540Y-84388500D01*
X52524540Y-86548500D02*
X52524540Y-85088500D01*
X56415400Y-115534321D02*
X56415400Y-115859879D01*
X55395400Y-115534321D02*
X55395400Y-115859879D01*
X55395400Y-112887879D02*
X55395400Y-112562321D01*
X56415400Y-112887879D02*
X56415400Y-112562321D01*
X39960300Y-170774960D02*
X31900300Y-170774960D01*
X31900300Y-170774960D02*
X31900300Y-175294960D01*
X31900300Y-175294960D02*
X39960300Y-175294960D01*
X32780921Y-169365200D02*
X33106479Y-169365200D01*
X32780921Y-170385200D02*
X33106479Y-170385200D01*
X30246201Y-170868880D02*
X30571759Y-170868880D01*
X30246201Y-171888880D02*
X30571759Y-171888880D01*
X27676380Y-169319259D02*
X27676380Y-168993701D01*
X28696380Y-169319259D02*
X28696380Y-168993701D01*
X53959879Y-97334800D02*
X53634321Y-97334800D01*
X53959879Y-96314800D02*
X53634321Y-96314800D01*
X56792400Y-87678479D02*
X56792400Y-87352921D01*
X57812400Y-87678479D02*
X57812400Y-87352921D01*
X56792079Y-80786700D02*
X56466521Y-80786700D01*
X56792079Y-79766700D02*
X56466521Y-79766700D01*
X54290500Y-82662079D02*
X54290500Y-82336521D01*
X55310500Y-82662079D02*
X55310500Y-82336521D01*
X52741100Y-82649379D02*
X52741100Y-82323821D01*
X53761100Y-82649379D02*
X53761100Y-82323821D01*
X51881721Y-77950600D02*
X52207279Y-77950600D01*
X51881721Y-78970600D02*
X52207279Y-78970600D01*
X50861079Y-80469200D02*
X50535521Y-80469200D01*
X50861079Y-79449200D02*
X50535521Y-79449200D01*
X45887521Y-84140580D02*
X46213079Y-84140580D01*
X45887521Y-85160580D02*
X46213079Y-85160580D01*
X48910021Y-84140580D02*
X49235579Y-84140580D01*
X48910021Y-85160580D02*
X49235579Y-85160580D01*
X50339720Y-86697601D02*
X50339720Y-87023159D01*
X49319720Y-86697601D02*
X49319720Y-87023159D01*
X42948979Y-81967800D02*
X42623421Y-81967800D01*
X42948979Y-80947800D02*
X42623421Y-80947800D01*
X40650700Y-79410679D02*
X40650700Y-79085121D01*
X41670700Y-79410679D02*
X41670700Y-79085121D01*
X40790400Y-83576479D02*
X40790400Y-83250921D01*
X41810400Y-83576479D02*
X41810400Y-83250921D01*
X38148800Y-79410679D02*
X38148800Y-79085121D01*
X39168800Y-79410679D02*
X39168800Y-79085121D01*
X38606000Y-83843179D02*
X38606000Y-83517621D01*
X39626000Y-83843179D02*
X39626000Y-83517621D01*
X35104800Y-82730121D02*
X35104800Y-83055679D01*
X34084800Y-82730121D02*
X34084800Y-83055679D01*
X33212769Y-87939720D02*
X33442974Y-88169925D01*
X32491520Y-88660969D02*
X32721725Y-88891174D01*
X38679339Y-89483660D02*
X38353781Y-89483660D01*
X38679339Y-88463660D02*
X38353781Y-88463660D01*
X39086600Y-89920800D02*
X35176600Y-89920800D01*
X35176600Y-89920800D02*
X35176600Y-91790800D01*
X35176600Y-91790800D02*
X39086600Y-91790800D01*
X29446760Y-79941639D02*
X29446760Y-79616081D01*
X30466760Y-79941639D02*
X30466760Y-79616081D01*
X30466760Y-82587881D02*
X30466760Y-82913439D01*
X29446760Y-82587881D02*
X29446760Y-82913439D01*
X27884339Y-82524060D02*
X27558781Y-82524060D01*
X27884339Y-81504060D02*
X27558781Y-81504060D01*
X29057481Y-84704460D02*
X29383039Y-84704460D01*
X29057481Y-85724460D02*
X29383039Y-85724460D01*
X29062361Y-87655940D02*
X29387919Y-87655940D01*
X29062361Y-88675940D02*
X29387919Y-88675940D01*
X29052301Y-86197980D02*
X29377859Y-86197980D01*
X29052301Y-87217980D02*
X29377859Y-87217980D01*
X24401240Y-82709801D02*
X24401240Y-83035359D01*
X23381240Y-82709801D02*
X23381240Y-83035359D01*
X24874760Y-83040439D02*
X24874760Y-82714881D01*
X25894760Y-83040439D02*
X25894760Y-82714881D01*
X41995300Y-156840200D02*
X45905300Y-156840200D01*
X45905300Y-156840200D02*
X45905300Y-154970200D01*
X45905300Y-154970200D02*
X41995300Y-154970200D01*
X52055300Y-143545879D02*
X52055300Y-143220321D01*
X53075300Y-143545879D02*
X53075300Y-143220321D01*
X53075300Y-140248321D02*
X53075300Y-140573879D01*
X52055300Y-140248321D02*
X52055300Y-140573879D01*
X48135659Y-139656280D02*
X47810101Y-139656280D01*
X48135659Y-138636280D02*
X47810101Y-138636280D01*
X39575200Y-154828121D02*
X39575200Y-155153679D01*
X38555200Y-154828121D02*
X38555200Y-155153679D01*
X37390800Y-154853521D02*
X37390800Y-155179079D01*
X36370800Y-154853521D02*
X36370800Y-155179079D01*
D11*
X29621790Y-151491047D02*
X29621790Y-151205333D01*
X30121790Y-151348190D02*
X29621790Y-151348190D01*
X30121790Y-151038666D02*
X29621790Y-151038666D01*
X29621790Y-150848190D01*
X29645600Y-150800571D01*
X29669409Y-150776761D01*
X29717028Y-150752952D01*
X29788457Y-150752952D01*
X29836076Y-150776761D01*
X29859885Y-150800571D01*
X29883695Y-150848190D01*
X29883695Y-151038666D01*
X30121790Y-150276761D02*
X30121790Y-150562476D01*
X30121790Y-150419619D02*
X29621790Y-150419619D01*
X29693219Y-150467238D01*
X29740838Y-150514857D01*
X29764647Y-150562476D01*
X29621790Y-149967238D02*
X29621790Y-149919619D01*
X29645600Y-149872000D01*
X29669409Y-149848190D01*
X29717028Y-149824380D01*
X29812266Y-149800571D01*
X29931314Y-149800571D01*
X30026552Y-149824380D01*
X30074171Y-149848190D01*
X30097980Y-149872000D01*
X30121790Y-149919619D01*
X30121790Y-149967238D01*
X30097980Y-150014857D01*
X30074171Y-150038666D01*
X30026552Y-150062476D01*
X29931314Y-150086285D01*
X29812266Y-150086285D01*
X29717028Y-150062476D01*
X29669409Y-150038666D01*
X29645600Y-150014857D01*
X29621790Y-149967238D01*
X48844971Y-170282323D02*
X48868780Y-170306133D01*
X48892590Y-170377561D01*
X48892590Y-170425180D01*
X48868780Y-170496609D01*
X48821161Y-170544228D01*
X48773542Y-170568038D01*
X48678304Y-170591847D01*
X48606876Y-170591847D01*
X48511638Y-170568038D01*
X48464019Y-170544228D01*
X48416400Y-170496609D01*
X48392590Y-170425180D01*
X48392590Y-170377561D01*
X48416400Y-170306133D01*
X48440209Y-170282323D01*
X48892590Y-169806133D02*
X48892590Y-170091847D01*
X48892590Y-169948990D02*
X48392590Y-169948990D01*
X48464019Y-169996609D01*
X48511638Y-170044228D01*
X48535447Y-170091847D01*
X48392590Y-169496609D02*
X48392590Y-169448990D01*
X48416400Y-169401371D01*
X48440209Y-169377561D01*
X48487828Y-169353752D01*
X48583066Y-169329942D01*
X48702114Y-169329942D01*
X48797352Y-169353752D01*
X48844971Y-169377561D01*
X48868780Y-169401371D01*
X48892590Y-169448990D01*
X48892590Y-169496609D01*
X48868780Y-169544228D01*
X48844971Y-169568038D01*
X48797352Y-169591847D01*
X48702114Y-169615657D01*
X48583066Y-169615657D01*
X48487828Y-169591847D01*
X48440209Y-169568038D01*
X48416400Y-169544228D01*
X48392590Y-169496609D01*
X48392590Y-168877561D02*
X48392590Y-169115657D01*
X48630685Y-169139466D01*
X48606876Y-169115657D01*
X48583066Y-169068038D01*
X48583066Y-168948990D01*
X48606876Y-168901371D01*
X48630685Y-168877561D01*
X48678304Y-168853752D01*
X48797352Y-168853752D01*
X48844971Y-168877561D01*
X48868780Y-168901371D01*
X48892590Y-168948990D01*
X48892590Y-169068038D01*
X48868780Y-169115657D01*
X48844971Y-169139466D01*
X49708571Y-168148723D02*
X49732380Y-168172533D01*
X49756190Y-168243961D01*
X49756190Y-168291580D01*
X49732380Y-168363009D01*
X49684761Y-168410628D01*
X49637142Y-168434438D01*
X49541904Y-168458247D01*
X49470476Y-168458247D01*
X49375238Y-168434438D01*
X49327619Y-168410628D01*
X49280000Y-168363009D01*
X49256190Y-168291580D01*
X49256190Y-168243961D01*
X49280000Y-168172533D01*
X49303809Y-168148723D01*
X49756190Y-167672533D02*
X49756190Y-167958247D01*
X49756190Y-167815390D02*
X49256190Y-167815390D01*
X49327619Y-167863009D01*
X49375238Y-167910628D01*
X49399047Y-167958247D01*
X49256190Y-167363009D02*
X49256190Y-167315390D01*
X49280000Y-167267771D01*
X49303809Y-167243961D01*
X49351428Y-167220152D01*
X49446666Y-167196342D01*
X49565714Y-167196342D01*
X49660952Y-167220152D01*
X49708571Y-167243961D01*
X49732380Y-167267771D01*
X49756190Y-167315390D01*
X49756190Y-167363009D01*
X49732380Y-167410628D01*
X49708571Y-167434438D01*
X49660952Y-167458247D01*
X49565714Y-167482057D01*
X49446666Y-167482057D01*
X49351428Y-167458247D01*
X49303809Y-167434438D01*
X49280000Y-167410628D01*
X49256190Y-167363009D01*
X49422857Y-166767771D02*
X49756190Y-166767771D01*
X49232380Y-166886819D02*
X49589523Y-167005866D01*
X49589523Y-166696342D01*
X62842033Y-151427690D02*
X62842033Y-151784833D01*
X62818223Y-151856261D01*
X62770604Y-151903880D01*
X62699176Y-151927690D01*
X62651557Y-151927690D01*
X63080128Y-151927690D02*
X63080128Y-151427690D01*
X63270604Y-151427690D01*
X63318223Y-151451500D01*
X63342033Y-151475309D01*
X63365842Y-151522928D01*
X63365842Y-151594357D01*
X63342033Y-151641976D01*
X63318223Y-151665785D01*
X63270604Y-151689595D01*
X63080128Y-151689595D01*
X63556319Y-151475309D02*
X63580128Y-151451500D01*
X63627747Y-151427690D01*
X63746795Y-151427690D01*
X63794414Y-151451500D01*
X63818223Y-151475309D01*
X63842033Y-151522928D01*
X63842033Y-151570547D01*
X63818223Y-151641976D01*
X63532509Y-151927690D01*
X63842033Y-151927690D01*
X62715033Y-161346390D02*
X62715033Y-161703533D01*
X62691223Y-161774961D01*
X62643604Y-161822580D01*
X62572176Y-161846390D01*
X62524557Y-161846390D01*
X62953128Y-161846390D02*
X62953128Y-161346390D01*
X63143604Y-161346390D01*
X63191223Y-161370200D01*
X63215033Y-161394009D01*
X63238842Y-161441628D01*
X63238842Y-161513057D01*
X63215033Y-161560676D01*
X63191223Y-161584485D01*
X63143604Y-161608295D01*
X62953128Y-161608295D01*
X63715033Y-161846390D02*
X63429319Y-161846390D01*
X63572176Y-161846390D02*
X63572176Y-161346390D01*
X63524557Y-161417819D01*
X63476938Y-161465438D01*
X63429319Y-161489247D01*
X49372413Y-96256350D02*
X49372413Y-96613493D01*
X49348603Y-96684921D01*
X49300984Y-96732540D01*
X49229556Y-96756350D01*
X49181937Y-96756350D01*
X49896222Y-96708731D02*
X49872413Y-96732540D01*
X49800984Y-96756350D01*
X49753365Y-96756350D01*
X49681937Y-96732540D01*
X49634318Y-96684921D01*
X49610508Y-96637302D01*
X49586699Y-96542064D01*
X49586699Y-96470636D01*
X49610508Y-96375398D01*
X49634318Y-96327779D01*
X49681937Y-96280160D01*
X49753365Y-96256350D01*
X49800984Y-96256350D01*
X49872413Y-96280160D01*
X49896222Y-96303969D01*
X50348603Y-96256350D02*
X50110508Y-96256350D01*
X50086699Y-96494445D01*
X50110508Y-96470636D01*
X50158127Y-96446826D01*
X50277175Y-96446826D01*
X50324794Y-96470636D01*
X50348603Y-96494445D01*
X50372413Y-96542064D01*
X50372413Y-96661112D01*
X50348603Y-96708731D01*
X50324794Y-96732540D01*
X50277175Y-96756350D01*
X50158127Y-96756350D01*
X50110508Y-96732540D01*
X50086699Y-96708731D01*
X43642838Y-96715890D02*
X43642838Y-97073033D01*
X43619028Y-97144461D01*
X43571409Y-97192080D01*
X43499980Y-97215890D01*
X43452361Y-97215890D01*
X44166647Y-97168271D02*
X44142838Y-97192080D01*
X44071409Y-97215890D01*
X44023790Y-97215890D01*
X43952361Y-97192080D01*
X43904742Y-97144461D01*
X43880933Y-97096842D01*
X43857123Y-97001604D01*
X43857123Y-96930176D01*
X43880933Y-96834938D01*
X43904742Y-96787319D01*
X43952361Y-96739700D01*
X44023790Y-96715890D01*
X44071409Y-96715890D01*
X44142838Y-96739700D01*
X44166647Y-96763509D01*
X44642838Y-97215890D02*
X44357123Y-97215890D01*
X44499980Y-97215890D02*
X44499980Y-96715890D01*
X44452361Y-96787319D01*
X44404742Y-96834938D01*
X44357123Y-96858747D01*
X45071409Y-96715890D02*
X44976171Y-96715890D01*
X44928552Y-96739700D01*
X44904742Y-96763509D01*
X44857123Y-96834938D01*
X44833314Y-96930176D01*
X44833314Y-97120652D01*
X44857123Y-97168271D01*
X44880933Y-97192080D01*
X44928552Y-97215890D01*
X45023790Y-97215890D01*
X45071409Y-97192080D01*
X45095219Y-97168271D01*
X45119028Y-97120652D01*
X45119028Y-97001604D01*
X45095219Y-96953985D01*
X45071409Y-96930176D01*
X45023790Y-96906366D01*
X44928552Y-96906366D01*
X44880933Y-96930176D01*
X44857123Y-96953985D01*
X44833314Y-97001604D01*
D10*
D11*
X37000738Y-95077790D02*
X37000738Y-95434933D01*
X36976928Y-95506361D01*
X36929309Y-95553980D01*
X36857880Y-95577790D01*
X36810261Y-95577790D01*
X37524547Y-95530171D02*
X37500738Y-95553980D01*
X37429309Y-95577790D01*
X37381690Y-95577790D01*
X37310261Y-95553980D01*
X37262642Y-95506361D01*
X37238833Y-95458742D01*
X37215023Y-95363504D01*
X37215023Y-95292076D01*
X37238833Y-95196838D01*
X37262642Y-95149219D01*
X37310261Y-95101600D01*
X37381690Y-95077790D01*
X37429309Y-95077790D01*
X37500738Y-95101600D01*
X37524547Y-95125409D01*
X38000738Y-95577790D02*
X37715023Y-95577790D01*
X37857880Y-95577790D02*
X37857880Y-95077790D01*
X37810261Y-95149219D01*
X37762642Y-95196838D01*
X37715023Y-95220647D01*
X38453119Y-95077790D02*
X38215023Y-95077790D01*
X38191214Y-95315885D01*
X38215023Y-95292076D01*
X38262642Y-95268266D01*
X38381690Y-95268266D01*
X38429309Y-95292076D01*
X38453119Y-95315885D01*
X38476928Y-95363504D01*
X38476928Y-95482552D01*
X38453119Y-95530171D01*
X38429309Y-95553980D01*
X38381690Y-95577790D01*
X38262642Y-95577790D01*
X38215023Y-95553980D01*
X38191214Y-95530171D01*
D10*
D11*
X40256490Y-80179028D02*
X40256490Y-80417123D01*
X39756490Y-80417123D01*
X40256490Y-79750457D02*
X40256490Y-80036171D01*
X40256490Y-79893314D02*
X39756490Y-79893314D01*
X39827919Y-79940933D01*
X39875538Y-79988552D01*
X39899347Y-80036171D01*
X39756490Y-79440933D02*
X39756490Y-79393314D01*
X39780300Y-79345695D01*
X39804109Y-79321885D01*
X39851728Y-79298076D01*
X39946966Y-79274266D01*
X40066014Y-79274266D01*
X40161252Y-79298076D01*
X40208871Y-79321885D01*
X40232680Y-79345695D01*
X40256490Y-79393314D01*
X40256490Y-79440933D01*
X40232680Y-79488552D01*
X40208871Y-79512361D01*
X40161252Y-79536171D01*
X40066014Y-79559980D01*
X39946966Y-79559980D01*
X39851728Y-79536171D01*
X39804109Y-79512361D01*
X39780300Y-79488552D01*
X39756490Y-79440933D01*
D10*
D11*
X46129580Y-152407109D02*
X46081961Y-152383300D01*
X46034342Y-152335680D01*
X45962914Y-152264252D01*
X45915295Y-152240442D01*
X45867676Y-152240442D01*
X45891485Y-152359490D02*
X45843866Y-152335680D01*
X45796247Y-152288061D01*
X45772438Y-152192823D01*
X45772438Y-152026157D01*
X45796247Y-151930919D01*
X45843866Y-151883300D01*
X45891485Y-151859490D01*
X45986723Y-151859490D01*
X46034342Y-151883300D01*
X46081961Y-151930919D01*
X46105771Y-152026157D01*
X46105771Y-152192823D01*
X46081961Y-152288061D01*
X46034342Y-152335680D01*
X45986723Y-152359490D01*
X45891485Y-152359490D01*
X46296247Y-151907109D02*
X46320057Y-151883300D01*
X46367676Y-151859490D01*
X46486723Y-151859490D01*
X46534342Y-151883300D01*
X46558152Y-151907109D01*
X46581961Y-151954728D01*
X46581961Y-152002347D01*
X46558152Y-152073776D01*
X46272438Y-152359490D01*
X46581961Y-152359490D01*
D10*
D11*
X59243933Y-162393690D02*
X59243933Y-162750833D01*
X59220123Y-162822261D01*
X59172504Y-162869880D01*
X59101076Y-162893690D01*
X59053457Y-162893690D01*
X59743933Y-162893690D02*
X59458219Y-162893690D01*
X59601076Y-162893690D02*
X59601076Y-162393690D01*
X59553457Y-162465119D01*
X59505838Y-162512738D01*
X59458219Y-162536547D01*
D10*
D11*
X61954291Y-150251931D02*
X61930481Y-150275740D01*
X61859053Y-150299550D01*
X61811434Y-150299550D01*
X61740005Y-150275740D01*
X61692386Y-150228121D01*
X61668577Y-150180502D01*
X61644767Y-150085264D01*
X61644767Y-150013836D01*
X61668577Y-149918598D01*
X61692386Y-149870979D01*
X61740005Y-149823360D01*
X61811434Y-149799550D01*
X61859053Y-149799550D01*
X61930481Y-149823360D01*
X61954291Y-149847169D01*
X62192386Y-150299550D02*
X62287624Y-150299550D01*
X62335243Y-150275740D01*
X62359053Y-150251931D01*
X62406672Y-150180502D01*
X62430481Y-150085264D01*
X62430481Y-149894788D01*
X62406672Y-149847169D01*
X62382862Y-149823360D01*
X62335243Y-149799550D01*
X62240005Y-149799550D01*
X62192386Y-149823360D01*
X62168577Y-149847169D01*
X62144767Y-149894788D01*
X62144767Y-150013836D01*
X62168577Y-150061455D01*
X62192386Y-150085264D01*
X62240005Y-150109074D01*
X62335243Y-150109074D01*
X62382862Y-150085264D01*
X62406672Y-150061455D01*
X62430481Y-150013836D01*
X62859053Y-149966217D02*
X62859053Y-150299550D01*
X62740005Y-149775740D02*
X62620958Y-150132883D01*
X62930481Y-150132883D01*
D10*
D11*
X28651093Y-98003870D02*
X28651093Y-98361013D01*
X28627283Y-98432441D01*
X28579664Y-98480060D01*
X28508236Y-98503870D01*
X28460617Y-98503870D01*
X29174902Y-98456251D02*
X29151093Y-98480060D01*
X29079664Y-98503870D01*
X29032045Y-98503870D01*
X28960617Y-98480060D01*
X28912998Y-98432441D01*
X28889188Y-98384822D01*
X28865379Y-98289584D01*
X28865379Y-98218156D01*
X28889188Y-98122918D01*
X28912998Y-98075299D01*
X28960617Y-98027680D01*
X29032045Y-98003870D01*
X29079664Y-98003870D01*
X29151093Y-98027680D01*
X29174902Y-98051489D01*
X29603474Y-98003870D02*
X29508236Y-98003870D01*
X29460617Y-98027680D01*
X29436807Y-98051489D01*
X29389188Y-98122918D01*
X29365379Y-98218156D01*
X29365379Y-98408632D01*
X29389188Y-98456251D01*
X29412998Y-98480060D01*
X29460617Y-98503870D01*
X29555855Y-98503870D01*
X29603474Y-98480060D01*
X29627283Y-98456251D01*
X29651093Y-98408632D01*
X29651093Y-98289584D01*
X29627283Y-98241965D01*
X29603474Y-98218156D01*
X29555855Y-98194346D01*
X29460617Y-98194346D01*
X29412998Y-98218156D01*
X29389188Y-98241965D01*
X29365379Y-98289584D01*
D10*
D11*
X25413284Y-97301759D02*
X25160746Y-97554297D01*
X25093403Y-97587969D01*
X25026059Y-97587969D01*
X24958716Y-97554297D01*
X24925044Y-97520625D01*
X25463792Y-97992030D02*
X25430120Y-97992030D01*
X25362777Y-97958358D01*
X25329105Y-97924687D01*
X25295433Y-97857343D01*
X25295433Y-97790000D01*
X25312269Y-97739492D01*
X25362777Y-97655312D01*
X25413284Y-97604805D01*
X25497464Y-97554297D01*
X25547971Y-97537461D01*
X25615315Y-97537461D01*
X25682658Y-97571133D01*
X25716330Y-97604805D01*
X25750002Y-97672148D01*
X25750002Y-97705820D01*
X25968868Y-98093045D02*
X25733166Y-98328748D01*
X26019376Y-97874179D02*
X25682658Y-98042538D01*
X25901525Y-98261404D01*
D10*
D11*
X31800693Y-90536270D02*
X31800693Y-90893413D01*
X31776883Y-90964841D01*
X31729264Y-91012460D01*
X31657836Y-91036270D01*
X31610217Y-91036270D01*
X32324502Y-90988651D02*
X32300693Y-91012460D01*
X32229264Y-91036270D01*
X32181645Y-91036270D01*
X32110217Y-91012460D01*
X32062598Y-90964841D01*
X32038788Y-90917222D01*
X32014979Y-90821984D01*
X32014979Y-90750556D01*
X32038788Y-90655318D01*
X32062598Y-90607699D01*
X32110217Y-90560080D01*
X32181645Y-90536270D01*
X32229264Y-90536270D01*
X32300693Y-90560080D01*
X32324502Y-90583889D01*
X32491169Y-90536270D02*
X32800693Y-90536270D01*
X32634026Y-90726746D01*
X32705455Y-90726746D01*
X32753074Y-90750556D01*
X32776883Y-90774365D01*
X32800693Y-90821984D01*
X32800693Y-90941032D01*
X32776883Y-90988651D01*
X32753074Y-91012460D01*
X32705455Y-91036270D01*
X32562598Y-91036270D01*
X32514979Y-91012460D01*
X32491169Y-90988651D01*
D10*
D11*
X55773213Y-99096070D02*
X55773213Y-99453213D01*
X55749403Y-99524641D01*
X55701784Y-99572260D01*
X55630356Y-99596070D01*
X55582737Y-99596070D01*
X56297022Y-99548451D02*
X56273213Y-99572260D01*
X56201784Y-99596070D01*
X56154165Y-99596070D01*
X56082737Y-99572260D01*
X56035118Y-99524641D01*
X56011308Y-99477022D01*
X55987499Y-99381784D01*
X55987499Y-99310356D01*
X56011308Y-99215118D01*
X56035118Y-99167499D01*
X56082737Y-99119880D01*
X56154165Y-99096070D01*
X56201784Y-99096070D01*
X56273213Y-99119880D01*
X56297022Y-99143689D01*
X56487499Y-99143689D02*
X56511308Y-99119880D01*
X56558927Y-99096070D01*
X56677975Y-99096070D01*
X56725594Y-99119880D01*
X56749403Y-99143689D01*
X56773213Y-99191308D01*
X56773213Y-99238927D01*
X56749403Y-99310356D01*
X56463689Y-99596070D01*
X56773213Y-99596070D01*
D10*
D11*
X22430633Y-90670890D02*
X22430633Y-91028033D01*
X22406823Y-91099461D01*
X22359204Y-91147080D01*
X22287776Y-91170890D01*
X22240157Y-91170890D01*
X22954442Y-91123271D02*
X22930633Y-91147080D01*
X22859204Y-91170890D01*
X22811585Y-91170890D01*
X22740157Y-91147080D01*
X22692538Y-91099461D01*
X22668728Y-91051842D01*
X22644919Y-90956604D01*
X22644919Y-90885176D01*
X22668728Y-90789938D01*
X22692538Y-90742319D01*
X22740157Y-90694700D01*
X22811585Y-90670890D01*
X22859204Y-90670890D01*
X22930633Y-90694700D01*
X22954442Y-90718509D01*
X23430633Y-91170890D02*
X23144919Y-91170890D01*
X23287776Y-91170890D02*
X23287776Y-90670890D01*
X23240157Y-90742319D01*
X23192538Y-90789938D01*
X23144919Y-90813747D01*
D10*
D11*
X38824030Y-87022453D02*
X38824030Y-87260548D01*
X38324030Y-87260548D01*
X38538316Y-86784358D02*
X38514506Y-86831977D01*
X38490697Y-86855786D01*
X38443078Y-86879596D01*
X38419268Y-86879596D01*
X38371649Y-86855786D01*
X38347840Y-86831977D01*
X38324030Y-86784358D01*
X38324030Y-86689120D01*
X38347840Y-86641500D01*
X38371649Y-86617691D01*
X38419268Y-86593881D01*
X38443078Y-86593881D01*
X38490697Y-86617691D01*
X38514506Y-86641500D01*
X38538316Y-86689120D01*
X38538316Y-86784358D01*
X38562125Y-86831977D01*
X38585935Y-86855786D01*
X38633554Y-86879596D01*
X38728792Y-86879596D01*
X38776411Y-86855786D01*
X38800220Y-86831977D01*
X38824030Y-86784358D01*
X38824030Y-86689120D01*
X38800220Y-86641500D01*
X38776411Y-86617691D01*
X38728792Y-86593881D01*
X38633554Y-86593881D01*
X38585935Y-86617691D01*
X38562125Y-86641500D01*
X38538316Y-86689120D01*
D10*
D11*
X59156647Y-174520990D02*
X59156647Y-174020990D01*
X59156647Y-174259085D02*
X59442361Y-174259085D01*
X59442361Y-174520990D02*
X59442361Y-174020990D01*
X59894742Y-174187657D02*
X59894742Y-174520990D01*
X59775695Y-173997180D02*
X59656647Y-174354323D01*
X59966171Y-174354323D01*
D10*
D11*
X21463047Y-170554190D02*
X21463047Y-170054190D01*
X21463047Y-170292285D02*
X21748761Y-170292285D01*
X21748761Y-170554190D02*
X21748761Y-170054190D01*
X22248761Y-170554190D02*
X21963047Y-170554190D01*
X22105904Y-170554190D02*
X22105904Y-170054190D01*
X22058285Y-170125619D01*
X22010666Y-170173238D01*
X21963047Y-170197047D01*
D10*
D11*
X52659766Y-149590890D02*
X52493100Y-149352795D01*
X52374052Y-149590890D02*
X52374052Y-149090890D01*
X52564528Y-149090890D01*
X52612147Y-149114700D01*
X52635957Y-149138509D01*
X52659766Y-149186128D01*
X52659766Y-149257557D01*
X52635957Y-149305176D01*
X52612147Y-149328985D01*
X52564528Y-149352795D01*
X52374052Y-149352795D01*
X52850242Y-149138509D02*
X52874052Y-149114700D01*
X52921671Y-149090890D01*
X53040719Y-149090890D01*
X53088338Y-149114700D01*
X53112147Y-149138509D01*
X53135957Y-149186128D01*
X53135957Y-149233747D01*
X53112147Y-149305176D01*
X52826433Y-149590890D01*
X53135957Y-149590890D01*
D10*
D11*
X48276011Y-76861788D02*
X48299820Y-76885598D01*
X48323630Y-76957026D01*
X48323630Y-77004645D01*
X48299820Y-77076074D01*
X48252201Y-77123693D01*
X48204582Y-77147502D01*
X48109344Y-77171312D01*
X48037916Y-77171312D01*
X47942678Y-77147502D01*
X47895059Y-77123693D01*
X47847440Y-77076074D01*
X47823630Y-77004645D01*
X47823630Y-76957026D01*
X47847440Y-76885598D01*
X47871249Y-76861788D01*
X47823630Y-76433217D02*
X47823630Y-76528455D01*
X47847440Y-76576074D01*
X47871249Y-76599883D01*
X47942678Y-76647502D01*
X48037916Y-76671312D01*
X48228392Y-76671312D01*
X48276011Y-76647502D01*
X48299820Y-76623693D01*
X48323630Y-76576074D01*
X48323630Y-76480836D01*
X48299820Y-76433217D01*
X48276011Y-76409407D01*
X48228392Y-76385598D01*
X48109344Y-76385598D01*
X48061725Y-76409407D01*
X48037916Y-76433217D01*
X48014106Y-76480836D01*
X48014106Y-76576074D01*
X48037916Y-76623693D01*
X48061725Y-76647502D01*
X48109344Y-76671312D01*
X47871249Y-76195121D02*
X47847440Y-76171312D01*
X47823630Y-76123693D01*
X47823630Y-76004645D01*
X47847440Y-75957026D01*
X47871249Y-75933217D01*
X47918868Y-75909407D01*
X47966487Y-75909407D01*
X48037916Y-75933217D01*
X48323630Y-76218931D01*
X48323630Y-75909407D01*
D10*
D11*
X44166671Y-103150171D02*
X44142861Y-103173980D01*
X44071433Y-103197790D01*
X44023814Y-103197790D01*
X43952385Y-103173980D01*
X43904766Y-103126361D01*
X43880957Y-103078742D01*
X43857147Y-102983504D01*
X43857147Y-102912076D01*
X43880957Y-102816838D01*
X43904766Y-102769219D01*
X43952385Y-102721600D01*
X44023814Y-102697790D01*
X44071433Y-102697790D01*
X44142861Y-102721600D01*
X44166671Y-102745409D01*
X44357147Y-102745409D02*
X44380957Y-102721600D01*
X44428576Y-102697790D01*
X44547623Y-102697790D01*
X44595242Y-102721600D01*
X44619052Y-102745409D01*
X44642861Y-102793028D01*
X44642861Y-102840647D01*
X44619052Y-102912076D01*
X44333338Y-103197790D01*
X44642861Y-103197790D01*
X45071433Y-102697790D02*
X44976195Y-102697790D01*
X44928576Y-102721600D01*
X44904766Y-102745409D01*
X44857147Y-102816838D01*
X44833338Y-102912076D01*
X44833338Y-103102552D01*
X44857147Y-103150171D01*
X44880957Y-103173980D01*
X44928576Y-103197790D01*
X45023814Y-103197790D01*
X45071433Y-103173980D01*
X45095242Y-103150171D01*
X45119052Y-103102552D01*
X45119052Y-102983504D01*
X45095242Y-102935885D01*
X45071433Y-102912076D01*
X45023814Y-102888266D01*
X44928576Y-102888266D01*
X44880957Y-102912076D01*
X44857147Y-102935885D01*
X44833338Y-102983504D01*
D10*
D11*
X45238171Y-107915628D02*
X45261980Y-107939438D01*
X45285790Y-108010866D01*
X45285790Y-108058485D01*
X45261980Y-108129914D01*
X45214361Y-108177533D01*
X45166742Y-108201342D01*
X45071504Y-108225152D01*
X45000076Y-108225152D01*
X44904838Y-108201342D01*
X44857219Y-108177533D01*
X44809600Y-108129914D01*
X44785790Y-108058485D01*
X44785790Y-108010866D01*
X44809600Y-107939438D01*
X44833409Y-107915628D01*
X44833409Y-107725152D02*
X44809600Y-107701342D01*
X44785790Y-107653723D01*
X44785790Y-107534676D01*
X44809600Y-107487057D01*
X44833409Y-107463247D01*
X44881028Y-107439438D01*
X44928647Y-107439438D01*
X45000076Y-107463247D01*
X45285790Y-107748961D01*
X45285790Y-107439438D01*
X45285790Y-106963247D02*
X45285790Y-107248961D01*
X45285790Y-107106104D02*
X44785790Y-107106104D01*
X44857219Y-107153723D01*
X44904838Y-107201342D01*
X44928647Y-107248961D01*
D10*
D11*
X47922071Y-156601871D02*
X47898261Y-156625680D01*
X47826833Y-156649490D01*
X47779214Y-156649490D01*
X47707785Y-156625680D01*
X47660166Y-156578061D01*
X47636357Y-156530442D01*
X47612547Y-156435204D01*
X47612547Y-156363776D01*
X47636357Y-156268538D01*
X47660166Y-156220919D01*
X47707785Y-156173300D01*
X47779214Y-156149490D01*
X47826833Y-156149490D01*
X47898261Y-156173300D01*
X47922071Y-156197109D01*
X48398261Y-156649490D02*
X48112547Y-156649490D01*
X48255404Y-156649490D02*
X48255404Y-156149490D01*
X48207785Y-156220919D01*
X48160166Y-156268538D01*
X48112547Y-156292347D01*
X48874452Y-156649490D02*
X48588738Y-156649490D01*
X48731595Y-156649490D02*
X48731595Y-156149490D01*
X48683976Y-156220919D01*
X48636357Y-156268538D01*
X48588738Y-156292347D01*
D10*
D11*
X25637371Y-135595490D02*
X25470704Y-135357395D01*
X25351657Y-135595490D02*
X25351657Y-135095490D01*
X25542133Y-135095490D01*
X25589752Y-135119300D01*
X25613561Y-135143109D01*
X25637371Y-135190728D01*
X25637371Y-135262157D01*
X25613561Y-135309776D01*
X25589752Y-135333585D01*
X25542133Y-135357395D01*
X25351657Y-135357395D01*
X26089752Y-135095490D02*
X25851657Y-135095490D01*
X25827847Y-135333585D01*
X25851657Y-135309776D01*
X25899276Y-135285966D01*
X26018323Y-135285966D01*
X26065942Y-135309776D01*
X26089752Y-135333585D01*
X26113561Y-135381204D01*
X26113561Y-135500252D01*
X26089752Y-135547871D01*
X26065942Y-135571680D01*
X26018323Y-135595490D01*
X25899276Y-135595490D01*
X25851657Y-135571680D01*
X25827847Y-135547871D01*
X26423085Y-135095490D02*
X26470704Y-135095490D01*
X26518323Y-135119300D01*
X26542133Y-135143109D01*
X26565942Y-135190728D01*
X26589752Y-135285966D01*
X26589752Y-135405014D01*
X26565942Y-135500252D01*
X26542133Y-135547871D01*
X26518323Y-135571680D01*
X26470704Y-135595490D01*
X26423085Y-135595490D01*
X26375466Y-135571680D01*
X26351657Y-135547871D01*
X26327847Y-135500252D01*
X26304038Y-135405014D01*
X26304038Y-135285966D01*
X26327847Y-135190728D01*
X26351657Y-135143109D01*
X26375466Y-135119300D01*
X26423085Y-135095490D01*
D10*
D11*
X25675471Y-139253090D02*
X25508804Y-139014995D01*
X25389757Y-139253090D02*
X25389757Y-138753090D01*
X25580233Y-138753090D01*
X25627852Y-138776900D01*
X25651661Y-138800709D01*
X25675471Y-138848328D01*
X25675471Y-138919757D01*
X25651661Y-138967376D01*
X25627852Y-138991185D01*
X25580233Y-139014995D01*
X25389757Y-139014995D01*
X26104042Y-138919757D02*
X26104042Y-139253090D01*
X25984995Y-138729280D02*
X25865947Y-139086423D01*
X26175471Y-139086423D01*
X26389757Y-139253090D02*
X26484995Y-139253090D01*
X26532614Y-139229280D01*
X26556423Y-139205471D01*
X26604042Y-139134042D01*
X26627852Y-139038804D01*
X26627852Y-138848328D01*
X26604042Y-138800709D01*
X26580233Y-138776900D01*
X26532614Y-138753090D01*
X26437376Y-138753090D01*
X26389757Y-138776900D01*
X26365947Y-138800709D01*
X26342138Y-138848328D01*
X26342138Y-138967376D01*
X26365947Y-139014995D01*
X26389757Y-139038804D01*
X26437376Y-139062614D01*
X26532614Y-139062614D01*
X26580233Y-139038804D01*
X26604042Y-139014995D01*
X26627852Y-138967376D01*
D10*
D11*
X25294471Y-126286390D02*
X25127804Y-126048295D01*
X25008757Y-126286390D02*
X25008757Y-125786390D01*
X25199233Y-125786390D01*
X25246852Y-125810200D01*
X25270661Y-125834009D01*
X25294471Y-125881628D01*
X25294471Y-125953057D01*
X25270661Y-126000676D01*
X25246852Y-126024485D01*
X25199233Y-126048295D01*
X25008757Y-126048295D01*
X25723042Y-125953057D02*
X25723042Y-126286390D01*
X25603995Y-125762580D02*
X25484947Y-126119723D01*
X25794471Y-126119723D01*
X26223042Y-125786390D02*
X25984947Y-125786390D01*
X25961138Y-126024485D01*
X25984947Y-126000676D01*
X26032566Y-125976866D01*
X26151614Y-125976866D01*
X26199233Y-126000676D01*
X26223042Y-126024485D01*
X26246852Y-126072104D01*
X26246852Y-126191152D01*
X26223042Y-126238771D01*
X26199233Y-126262580D01*
X26151614Y-126286390D01*
X26032566Y-126286390D01*
X25984947Y-126262580D01*
X25961138Y-126238771D01*
D10*
D11*
X30577671Y-126210190D02*
X30411004Y-125972095D01*
X30291957Y-126210190D02*
X30291957Y-125710190D01*
X30482433Y-125710190D01*
X30530052Y-125734000D01*
X30553861Y-125757809D01*
X30577671Y-125805428D01*
X30577671Y-125876857D01*
X30553861Y-125924476D01*
X30530052Y-125948285D01*
X30482433Y-125972095D01*
X30291957Y-125972095D01*
X31006242Y-125876857D02*
X31006242Y-126210190D01*
X30887195Y-125686380D02*
X30768147Y-126043523D01*
X31077671Y-126043523D01*
X31482433Y-125876857D02*
X31482433Y-126210190D01*
X31363385Y-125686380D02*
X31244338Y-126043523D01*
X31553861Y-126043523D01*
D10*
D11*
X26012538Y-119760990D02*
X26012538Y-120118133D01*
X25988728Y-120189561D01*
X25941109Y-120237180D01*
X25869680Y-120260990D01*
X25822061Y-120260990D01*
X26512538Y-120260990D02*
X26226823Y-120260990D01*
X26369680Y-120260990D02*
X26369680Y-119760990D01*
X26322061Y-119832419D01*
X26274442Y-119880038D01*
X26226823Y-119903847D01*
X26703014Y-119808609D02*
X26726823Y-119784800D01*
X26774442Y-119760990D01*
X26893490Y-119760990D01*
X26941109Y-119784800D01*
X26964919Y-119808609D01*
X26988728Y-119856228D01*
X26988728Y-119903847D01*
X26964919Y-119975276D01*
X26679204Y-120260990D01*
X26988728Y-120260990D01*
D15*
D11*
X20537538Y-137673590D02*
X20537538Y-138030733D01*
X20513728Y-138102161D01*
X20466109Y-138149780D01*
X20394680Y-138173590D01*
X20347061Y-138173590D01*
X21037538Y-138173590D02*
X20751823Y-138173590D01*
X20894680Y-138173590D02*
X20894680Y-137673590D01*
X20847061Y-137745019D01*
X20799442Y-137792638D01*
X20751823Y-137816447D01*
X21347061Y-137673590D02*
X21394680Y-137673590D01*
X21442300Y-137697400D01*
X21466109Y-137721209D01*
X21489919Y-137768828D01*
X21513728Y-137864066D01*
X21513728Y-137983114D01*
X21489919Y-138078352D01*
X21466109Y-138125971D01*
X21442300Y-138149780D01*
X21394680Y-138173590D01*
X21347061Y-138173590D01*
X21299442Y-138149780D01*
X21275633Y-138125971D01*
X21251823Y-138078352D01*
X21228014Y-137983114D01*
X21228014Y-137864066D01*
X21251823Y-137768828D01*
X21275633Y-137721209D01*
X21299442Y-137697400D01*
X21347061Y-137673590D01*
D15*
D11*
X22522971Y-138789528D02*
X22546780Y-138813338D01*
X22570590Y-138884766D01*
X22570590Y-138932385D01*
X22546780Y-139003814D01*
X22499161Y-139051433D01*
X22451542Y-139075242D01*
X22356304Y-139099052D01*
X22284876Y-139099052D01*
X22189638Y-139075242D01*
X22142019Y-139051433D01*
X22094400Y-139003814D01*
X22070590Y-138932385D01*
X22070590Y-138884766D01*
X22094400Y-138813338D01*
X22118209Y-138789528D01*
X22570590Y-138551433D02*
X22570590Y-138456195D01*
X22546780Y-138408576D01*
X22522971Y-138384766D01*
X22451542Y-138337147D01*
X22356304Y-138313338D01*
X22165828Y-138313338D01*
X22118209Y-138337147D01*
X22094400Y-138360957D01*
X22070590Y-138408576D01*
X22070590Y-138503814D01*
X22094400Y-138551433D01*
X22118209Y-138575242D01*
X22165828Y-138599052D01*
X22284876Y-138599052D01*
X22332495Y-138575242D01*
X22356304Y-138551433D01*
X22380114Y-138503814D01*
X22380114Y-138408576D01*
X22356304Y-138360957D01*
X22332495Y-138337147D01*
X22284876Y-138313338D01*
X22570590Y-137837147D02*
X22570590Y-138122861D01*
X22570590Y-137980004D02*
X22070590Y-137980004D01*
X22142019Y-138027623D01*
X22189638Y-138075242D01*
X22213447Y-138122861D01*
D10*
D11*
X27428071Y-124587771D02*
X27404261Y-124611580D01*
X27332833Y-124635390D01*
X27285214Y-124635390D01*
X27213785Y-124611580D01*
X27166166Y-124563961D01*
X27142357Y-124516342D01*
X27118547Y-124421104D01*
X27118547Y-124349676D01*
X27142357Y-124254438D01*
X27166166Y-124206819D01*
X27213785Y-124159200D01*
X27285214Y-124135390D01*
X27332833Y-124135390D01*
X27404261Y-124159200D01*
X27428071Y-124183009D01*
X27713785Y-124349676D02*
X27666166Y-124325866D01*
X27642357Y-124302057D01*
X27618547Y-124254438D01*
X27618547Y-124230628D01*
X27642357Y-124183009D01*
X27666166Y-124159200D01*
X27713785Y-124135390D01*
X27809023Y-124135390D01*
X27856642Y-124159200D01*
X27880452Y-124183009D01*
X27904261Y-124230628D01*
X27904261Y-124254438D01*
X27880452Y-124302057D01*
X27856642Y-124325866D01*
X27809023Y-124349676D01*
X27713785Y-124349676D01*
X27666166Y-124373485D01*
X27642357Y-124397295D01*
X27618547Y-124444914D01*
X27618547Y-124540152D01*
X27642357Y-124587771D01*
X27666166Y-124611580D01*
X27713785Y-124635390D01*
X27809023Y-124635390D01*
X27856642Y-124611580D01*
X27880452Y-124587771D01*
X27904261Y-124540152D01*
X27904261Y-124444914D01*
X27880452Y-124397295D01*
X27856642Y-124373485D01*
X27809023Y-124349676D01*
X28070928Y-124135390D02*
X28404261Y-124135390D01*
X28189976Y-124635390D01*
D10*
D11*
X41224971Y-89332423D02*
X41248780Y-89356233D01*
X41272590Y-89427661D01*
X41272590Y-89475280D01*
X41248780Y-89546709D01*
X41201161Y-89594328D01*
X41153542Y-89618138D01*
X41058304Y-89641947D01*
X40986876Y-89641947D01*
X40891638Y-89618138D01*
X40844019Y-89594328D01*
X40796400Y-89546709D01*
X40772590Y-89475280D01*
X40772590Y-89427661D01*
X40796400Y-89356233D01*
X40820209Y-89332423D01*
X41272590Y-88856233D02*
X41272590Y-89141947D01*
X41272590Y-88999090D02*
X40772590Y-88999090D01*
X40844019Y-89046709D01*
X40891638Y-89094328D01*
X40915447Y-89141947D01*
X40772590Y-88546709D02*
X40772590Y-88499090D01*
X40796400Y-88451471D01*
X40820209Y-88427661D01*
X40867828Y-88403852D01*
X40963066Y-88380042D01*
X41082114Y-88380042D01*
X41177352Y-88403852D01*
X41224971Y-88427661D01*
X41248780Y-88451471D01*
X41272590Y-88499090D01*
X41272590Y-88546709D01*
X41248780Y-88594328D01*
X41224971Y-88618138D01*
X41177352Y-88641947D01*
X41082114Y-88665757D01*
X40963066Y-88665757D01*
X40867828Y-88641947D01*
X40820209Y-88618138D01*
X40796400Y-88594328D01*
X40772590Y-88546709D01*
X40986876Y-88094328D02*
X40963066Y-88141947D01*
X40939257Y-88165757D01*
X40891638Y-88189566D01*
X40867828Y-88189566D01*
X40820209Y-88165757D01*
X40796400Y-88141947D01*
X40772590Y-88094328D01*
X40772590Y-87999090D01*
X40796400Y-87951471D01*
X40820209Y-87927661D01*
X40867828Y-87903852D01*
X40891638Y-87903852D01*
X40939257Y-87927661D01*
X40963066Y-87951471D01*
X40986876Y-87999090D01*
X40986876Y-88094328D01*
X41010685Y-88141947D01*
X41034495Y-88165757D01*
X41082114Y-88189566D01*
X41177352Y-88189566D01*
X41224971Y-88165757D01*
X41248780Y-88141947D01*
X41272590Y-88094328D01*
X41272590Y-87999090D01*
X41248780Y-87951471D01*
X41224971Y-87927661D01*
X41177352Y-87903852D01*
X41082114Y-87903852D01*
X41034495Y-87927661D01*
X41010685Y-87951471D01*
X40986876Y-87999090D01*
D10*
D11*
X42835272Y-92151710D02*
X42835272Y-92556472D01*
X42859081Y-92604091D01*
X42882891Y-92627900D01*
X42930510Y-92651710D01*
X43025748Y-92651710D01*
X43073367Y-92627900D01*
X43097177Y-92604091D01*
X43120986Y-92556472D01*
X43120986Y-92151710D01*
X43620986Y-92651710D02*
X43335272Y-92651710D01*
X43478129Y-92651710D02*
X43478129Y-92151710D01*
X43430510Y-92223139D01*
X43382891Y-92270758D01*
X43335272Y-92294567D01*
X43787653Y-92151710D02*
X44097177Y-92151710D01*
X43930510Y-92342186D01*
X44001939Y-92342186D01*
X44049558Y-92365996D01*
X44073367Y-92389805D01*
X44097177Y-92437424D01*
X44097177Y-92556472D01*
X44073367Y-92604091D01*
X44049558Y-92627900D01*
X44001939Y-92651710D01*
X43859081Y-92651710D01*
X43811462Y-92627900D01*
X43787653Y-92604091D01*
D10*
D11*
X49805471Y-91996390D02*
X49567376Y-91996390D01*
X49567376Y-91496390D01*
X50234042Y-91996390D02*
X49948328Y-91996390D01*
X50091185Y-91996390D02*
X50091185Y-91496390D01*
X50043566Y-91567819D01*
X49995947Y-91615438D01*
X49948328Y-91639247D01*
X50400709Y-91496390D02*
X50734042Y-91496390D01*
X50519757Y-91996390D01*
D10*
D11*
X47446476Y-90216491D02*
X47422666Y-90240300D01*
X47351238Y-90264110D01*
X47303619Y-90264110D01*
X47232190Y-90240300D01*
X47184571Y-90192681D01*
X47160761Y-90145062D01*
X47136952Y-90049824D01*
X47136952Y-89978396D01*
X47160761Y-89883158D01*
X47184571Y-89835539D01*
X47232190Y-89787920D01*
X47303619Y-89764110D01*
X47351238Y-89764110D01*
X47422666Y-89787920D01*
X47446476Y-89811729D01*
X47922666Y-90264110D02*
X47636952Y-90264110D01*
X47779809Y-90264110D02*
X47779809Y-89764110D01*
X47732190Y-89835539D01*
X47684571Y-89883158D01*
X47636952Y-89906967D01*
X48232190Y-89764110D02*
X48279809Y-89764110D01*
X48327428Y-89787920D01*
X48351238Y-89811729D01*
X48375047Y-89859348D01*
X48398857Y-89954586D01*
X48398857Y-90073634D01*
X48375047Y-90168872D01*
X48351238Y-90216491D01*
X48327428Y-90240300D01*
X48279809Y-90264110D01*
X48232190Y-90264110D01*
X48184571Y-90240300D01*
X48160761Y-90216491D01*
X48136952Y-90168872D01*
X48113142Y-90073634D01*
X48113142Y-89954586D01*
X48136952Y-89859348D01*
X48160761Y-89811729D01*
X48184571Y-89787920D01*
X48232190Y-89764110D01*
X48565523Y-89764110D02*
X48898857Y-89764110D01*
X48684571Y-90264110D01*
D10*
D11*
X44932647Y-79553310D02*
X44932647Y-79958072D01*
X44956457Y-80005691D01*
X44980266Y-80029500D01*
X45027885Y-80053310D01*
X45123123Y-80053310D01*
X45170742Y-80029500D01*
X45194552Y-80005691D01*
X45218361Y-79958072D01*
X45218361Y-79553310D01*
X45670742Y-79553310D02*
X45575504Y-79553310D01*
X45527885Y-79577120D01*
X45504076Y-79600929D01*
X45456457Y-79672358D01*
X45432647Y-79767596D01*
X45432647Y-79958072D01*
X45456457Y-80005691D01*
X45480266Y-80029500D01*
X45527885Y-80053310D01*
X45623123Y-80053310D01*
X45670742Y-80029500D01*
X45694552Y-80005691D01*
X45718361Y-79958072D01*
X45718361Y-79839024D01*
X45694552Y-79791405D01*
X45670742Y-79767596D01*
X45623123Y-79743786D01*
X45527885Y-79743786D01*
X45480266Y-79767596D01*
X45456457Y-79791405D01*
X45432647Y-79839024D01*
D10*
D11*
X39539147Y-108018890D02*
X39824861Y-108018890D01*
X39682004Y-108518890D02*
X39682004Y-108018890D01*
X39991528Y-108518890D02*
X39991528Y-108018890D01*
X40182004Y-108018890D01*
X40229623Y-108042700D01*
X40253433Y-108066509D01*
X40277242Y-108114128D01*
X40277242Y-108185557D01*
X40253433Y-108233176D01*
X40229623Y-108256985D01*
X40182004Y-108280795D01*
X39991528Y-108280795D01*
X40562957Y-108233176D02*
X40515338Y-108209366D01*
X40491528Y-108185557D01*
X40467719Y-108137938D01*
X40467719Y-108114128D01*
X40491528Y-108066509D01*
X40515338Y-108042700D01*
X40562957Y-108018890D01*
X40658195Y-108018890D01*
X40705814Y-108042700D01*
X40729623Y-108066509D01*
X40753433Y-108114128D01*
X40753433Y-108137938D01*
X40729623Y-108185557D01*
X40705814Y-108209366D01*
X40658195Y-108233176D01*
X40562957Y-108233176D01*
X40515338Y-108256985D01*
X40491528Y-108280795D01*
X40467719Y-108328414D01*
X40467719Y-108423652D01*
X40491528Y-108471271D01*
X40515338Y-108495080D01*
X40562957Y-108518890D01*
X40658195Y-108518890D01*
X40705814Y-108495080D01*
X40729623Y-108471271D01*
X40753433Y-108423652D01*
X40753433Y-108328414D01*
X40729623Y-108280795D01*
X40705814Y-108256985D01*
X40658195Y-108233176D01*
D10*
D11*
X54928271Y-93548923D02*
X54952080Y-93572733D01*
X54975890Y-93644161D01*
X54975890Y-93691780D01*
X54952080Y-93763209D01*
X54904461Y-93810828D01*
X54856842Y-93834638D01*
X54761604Y-93858447D01*
X54690176Y-93858447D01*
X54594938Y-93834638D01*
X54547319Y-93810828D01*
X54499700Y-93763209D01*
X54475890Y-93691780D01*
X54475890Y-93644161D01*
X54499700Y-93572733D01*
X54523509Y-93548923D01*
X54975890Y-93072733D02*
X54975890Y-93358447D01*
X54975890Y-93215590D02*
X54475890Y-93215590D01*
X54547319Y-93263209D01*
X54594938Y-93310828D01*
X54618747Y-93358447D01*
X54475890Y-92763209D02*
X54475890Y-92715590D01*
X54499700Y-92667971D01*
X54523509Y-92644161D01*
X54571128Y-92620352D01*
X54666366Y-92596542D01*
X54785414Y-92596542D01*
X54880652Y-92620352D01*
X54928271Y-92644161D01*
X54952080Y-92667971D01*
X54975890Y-92715590D01*
X54975890Y-92763209D01*
X54952080Y-92810828D01*
X54928271Y-92834638D01*
X54880652Y-92858447D01*
X54785414Y-92882257D01*
X54666366Y-92882257D01*
X54571128Y-92858447D01*
X54523509Y-92834638D01*
X54499700Y-92810828D01*
X54475890Y-92763209D01*
X54475890Y-92167971D02*
X54475890Y-92263209D01*
X54499700Y-92310828D01*
X54523509Y-92334638D01*
X54594938Y-92382257D01*
X54690176Y-92406066D01*
X54880652Y-92406066D01*
X54928271Y-92382257D01*
X54952080Y-92358447D01*
X54975890Y-92310828D01*
X54975890Y-92215590D01*
X54952080Y-92167971D01*
X54928271Y-92144161D01*
X54880652Y-92120352D01*
X54761604Y-92120352D01*
X54713985Y-92144161D01*
X54690176Y-92167971D01*
X54666366Y-92215590D01*
X54666366Y-92310828D01*
X54690176Y-92358447D01*
X54713985Y-92382257D01*
X54761604Y-92406066D01*
D10*
D11*
X62151390Y-85081228D02*
X61913295Y-85247895D01*
X62151390Y-85366942D02*
X61651390Y-85366942D01*
X61651390Y-85176466D01*
X61675200Y-85128847D01*
X61699009Y-85105038D01*
X61746628Y-85081228D01*
X61818057Y-85081228D01*
X61865676Y-85105038D01*
X61889485Y-85128847D01*
X61913295Y-85176466D01*
X61913295Y-85366942D01*
X61818057Y-84652657D02*
X62151390Y-84652657D01*
X61627580Y-84771704D02*
X61984723Y-84890752D01*
X61984723Y-84581228D01*
X61651390Y-84438371D02*
X61651390Y-84128847D01*
X61841866Y-84295514D01*
X61841866Y-84224085D01*
X61865676Y-84176466D01*
X61889485Y-84152657D01*
X61937104Y-84128847D01*
X62056152Y-84128847D01*
X62103771Y-84152657D01*
X62127580Y-84176466D01*
X62151390Y-84224085D01*
X62151390Y-84366942D01*
X62127580Y-84414561D01*
X62103771Y-84438371D01*
D10*
D11*
X63573790Y-85081228D02*
X63335695Y-85247895D01*
X63573790Y-85366942D02*
X63073790Y-85366942D01*
X63073790Y-85176466D01*
X63097600Y-85128847D01*
X63121409Y-85105038D01*
X63169028Y-85081228D01*
X63240457Y-85081228D01*
X63288076Y-85105038D01*
X63311885Y-85128847D01*
X63335695Y-85176466D01*
X63335695Y-85366942D01*
X63240457Y-84652657D02*
X63573790Y-84652657D01*
X63049980Y-84771704D02*
X63407123Y-84890752D01*
X63407123Y-84581228D01*
X63121409Y-84414561D02*
X63097600Y-84390752D01*
X63073790Y-84343133D01*
X63073790Y-84224085D01*
X63097600Y-84176466D01*
X63121409Y-84152657D01*
X63169028Y-84128847D01*
X63216647Y-84128847D01*
X63288076Y-84152657D01*
X63573790Y-84438371D01*
X63573790Y-84128847D01*
D10*
D11*
X50526451Y-107910748D02*
X50550260Y-107934558D01*
X50574070Y-108005986D01*
X50574070Y-108053605D01*
X50550260Y-108125034D01*
X50502641Y-108172653D01*
X50455022Y-108196462D01*
X50359784Y-108220272D01*
X50288356Y-108220272D01*
X50193118Y-108196462D01*
X50145499Y-108172653D01*
X50097880Y-108125034D01*
X50074070Y-108053605D01*
X50074070Y-108005986D01*
X50097880Y-107934558D01*
X50121689Y-107910748D01*
X50574070Y-107434558D02*
X50574070Y-107720272D01*
X50574070Y-107577415D02*
X50074070Y-107577415D01*
X50145499Y-107625034D01*
X50193118Y-107672653D01*
X50216927Y-107720272D01*
X50121689Y-107244081D02*
X50097880Y-107220272D01*
X50074070Y-107172653D01*
X50074070Y-107053605D01*
X50097880Y-107005986D01*
X50121689Y-106982177D01*
X50169308Y-106958367D01*
X50216927Y-106958367D01*
X50288356Y-106982177D01*
X50574070Y-107267891D01*
X50574070Y-106958367D01*
D10*
D11*
X55118771Y-146349233D02*
X55142580Y-146373042D01*
X55166390Y-146444471D01*
X55166390Y-146492090D01*
X55142580Y-146563519D01*
X55094961Y-146611138D01*
X55047342Y-146634947D01*
X54952104Y-146658757D01*
X54880676Y-146658757D01*
X54785438Y-146634947D01*
X54737819Y-146611138D01*
X54690200Y-146563519D01*
X54666390Y-146492090D01*
X54666390Y-146444471D01*
X54690200Y-146373042D01*
X54714009Y-146349233D01*
X54666390Y-145896852D02*
X54666390Y-146134947D01*
X54904485Y-146158757D01*
X54880676Y-146134947D01*
X54856866Y-146087328D01*
X54856866Y-145968280D01*
X54880676Y-145920661D01*
X54904485Y-145896852D01*
X54952104Y-145873042D01*
X55071152Y-145873042D01*
X55118771Y-145896852D01*
X55142580Y-145920661D01*
X55166390Y-145968280D01*
X55166390Y-146087328D01*
X55142580Y-146134947D01*
X55118771Y-146158757D01*
D10*
D11*
X35255971Y-142877053D02*
X35279780Y-142900862D01*
X35303590Y-142972291D01*
X35303590Y-143019910D01*
X35279780Y-143091339D01*
X35232161Y-143138958D01*
X35184542Y-143162767D01*
X35089304Y-143186577D01*
X35017876Y-143186577D01*
X34922638Y-143162767D01*
X34875019Y-143138958D01*
X34827400Y-143091339D01*
X34803590Y-143019910D01*
X34803590Y-142972291D01*
X34827400Y-142900862D01*
X34851209Y-142877053D01*
X34803590Y-142710386D02*
X34803590Y-142400862D01*
X34994066Y-142567529D01*
X34994066Y-142496100D01*
X35017876Y-142448481D01*
X35041685Y-142424672D01*
X35089304Y-142400862D01*
X35208352Y-142400862D01*
X35255971Y-142424672D01*
X35279780Y-142448481D01*
X35303590Y-142496100D01*
X35303590Y-142638958D01*
X35279780Y-142686577D01*
X35255971Y-142710386D01*
D10*
D11*
X47589950Y-128568081D02*
X47947093Y-128568081D01*
X48018521Y-128591891D01*
X48066140Y-128639510D01*
X48089950Y-128710939D01*
X48089950Y-128758558D01*
X48089950Y-128068081D02*
X48089950Y-128353796D01*
X48089950Y-128210939D02*
X47589950Y-128210939D01*
X47661379Y-128258558D01*
X47708998Y-128306177D01*
X47732807Y-128353796D01*
X47589950Y-127901415D02*
X47589950Y-127591891D01*
X47780426Y-127758558D01*
X47780426Y-127687129D01*
X47804236Y-127639510D01*
X47828045Y-127615700D01*
X47875664Y-127591891D01*
X47994712Y-127591891D01*
X48042331Y-127615700D01*
X48066140Y-127639510D01*
X48089950Y-127687129D01*
X48089950Y-127829986D01*
X48066140Y-127877605D01*
X48042331Y-127901415D01*
D10*
D11*
X49470013Y-136307070D02*
X49470013Y-136664213D01*
X49446203Y-136735641D01*
X49398584Y-136783260D01*
X49327156Y-136807070D01*
X49279537Y-136807070D01*
X49922394Y-136473737D02*
X49922394Y-136807070D01*
X49803346Y-136283260D02*
X49684299Y-136640403D01*
X49993822Y-136640403D01*
D10*
D11*
X42642030Y-165443801D02*
X42999173Y-165443801D01*
X43070601Y-165467611D01*
X43118220Y-165515230D01*
X43142030Y-165586659D01*
X43142030Y-165634278D01*
X43142030Y-164943801D02*
X43142030Y-165229516D01*
X43142030Y-165086659D02*
X42642030Y-165086659D01*
X42713459Y-165134278D01*
X42761078Y-165181897D01*
X42784887Y-165229516D01*
X43142030Y-164467611D02*
X43142030Y-164753325D01*
X43142030Y-164610468D02*
X42642030Y-164610468D01*
X42713459Y-164658087D01*
X42761078Y-164705706D01*
X42784887Y-164753325D01*
D10*
D11*
X49129190Y-164951706D02*
X49486333Y-164951706D01*
X49557761Y-164975516D01*
X49605380Y-165023135D01*
X49629190Y-165094563D01*
X49629190Y-165142182D01*
X49629190Y-164689801D02*
X49629190Y-164594563D01*
X49605380Y-164546944D01*
X49581571Y-164523135D01*
X49510142Y-164475516D01*
X49414904Y-164451706D01*
X49224428Y-164451706D01*
X49176809Y-164475516D01*
X49153000Y-164499325D01*
X49129190Y-164546944D01*
X49129190Y-164642182D01*
X49153000Y-164689801D01*
X49176809Y-164713611D01*
X49224428Y-164737420D01*
X49343476Y-164737420D01*
X49391095Y-164713611D01*
X49414904Y-164689801D01*
X49438714Y-164642182D01*
X49438714Y-164546944D01*
X49414904Y-164499325D01*
X49391095Y-164475516D01*
X49343476Y-164451706D01*
D10*
D11*
X59548733Y-164711890D02*
X59548733Y-165069033D01*
X59524923Y-165140461D01*
X59477304Y-165188080D01*
X59405876Y-165211890D01*
X59358257Y-165211890D01*
X60001114Y-164711890D02*
X59905876Y-164711890D01*
X59858257Y-164735700D01*
X59834447Y-164759509D01*
X59786828Y-164830938D01*
X59763019Y-164926176D01*
X59763019Y-165116652D01*
X59786828Y-165164271D01*
X59810638Y-165188080D01*
X59858257Y-165211890D01*
X59953495Y-165211890D01*
X60001114Y-165188080D01*
X60024923Y-165164271D01*
X60048733Y-165116652D01*
X60048733Y-164997604D01*
X60024923Y-164949985D01*
X60001114Y-164926176D01*
X59953495Y-164902366D01*
X59858257Y-164902366D01*
X59810638Y-164926176D01*
X59786828Y-164949985D01*
X59763019Y-164997604D01*
D10*
D11*
X32350947Y-104780590D02*
X32636661Y-104780590D01*
X32493804Y-105280590D02*
X32493804Y-104780590D01*
X32803328Y-105280590D02*
X32803328Y-104780590D01*
X32993804Y-104780590D01*
X33041423Y-104804400D01*
X33065233Y-104828209D01*
X33089042Y-104875828D01*
X33089042Y-104947257D01*
X33065233Y-104994876D01*
X33041423Y-105018685D01*
X32993804Y-105042495D01*
X32803328Y-105042495D01*
X33255709Y-104780590D02*
X33565233Y-104780590D01*
X33398566Y-104971066D01*
X33469995Y-104971066D01*
X33517614Y-104994876D01*
X33541423Y-105018685D01*
X33565233Y-105066304D01*
X33565233Y-105185352D01*
X33541423Y-105232971D01*
X33517614Y-105256780D01*
X33469995Y-105280590D01*
X33327138Y-105280590D01*
X33279519Y-105256780D01*
X33255709Y-105232971D01*
D10*
D11*
X28109147Y-102253290D02*
X28394861Y-102253290D01*
X28252004Y-102753290D02*
X28252004Y-102253290D01*
X28561528Y-102753290D02*
X28561528Y-102253290D01*
X28752004Y-102253290D01*
X28799623Y-102277100D01*
X28823433Y-102300909D01*
X28847242Y-102348528D01*
X28847242Y-102419957D01*
X28823433Y-102467576D01*
X28799623Y-102491385D01*
X28752004Y-102515195D01*
X28561528Y-102515195D01*
X29037719Y-102300909D02*
X29061528Y-102277100D01*
X29109147Y-102253290D01*
X29228195Y-102253290D01*
X29275814Y-102277100D01*
X29299623Y-102300909D01*
X29323433Y-102348528D01*
X29323433Y-102396147D01*
X29299623Y-102467576D01*
X29013909Y-102753290D01*
X29323433Y-102753290D01*
D10*
D11*
X32617647Y-95319090D02*
X32903361Y-95319090D01*
X32760504Y-95819090D02*
X32760504Y-95319090D01*
X33070028Y-95819090D02*
X33070028Y-95319090D01*
X33260504Y-95319090D01*
X33308123Y-95342900D01*
X33331933Y-95366709D01*
X33355742Y-95414328D01*
X33355742Y-95485757D01*
X33331933Y-95533376D01*
X33308123Y-95557185D01*
X33260504Y-95580995D01*
X33070028Y-95580995D01*
X33831933Y-95819090D02*
X33546219Y-95819090D01*
X33689076Y-95819090D02*
X33689076Y-95319090D01*
X33641457Y-95390519D01*
X33593838Y-95438138D01*
X33546219Y-95461947D01*
D10*
D11*
X30617290Y-99902128D02*
X30379195Y-100068795D01*
X30617290Y-100187842D02*
X30117290Y-100187842D01*
X30117290Y-99997366D01*
X30141100Y-99949747D01*
X30164909Y-99925938D01*
X30212528Y-99902128D01*
X30283957Y-99902128D01*
X30331576Y-99925938D01*
X30355385Y-99949747D01*
X30379195Y-99997366D01*
X30379195Y-100187842D01*
X30617290Y-99425938D02*
X30617290Y-99711652D01*
X30617290Y-99568795D02*
X30117290Y-99568795D01*
X30188719Y-99616414D01*
X30236338Y-99664033D01*
X30260147Y-99711652D01*
X30283957Y-98997366D02*
X30617290Y-98997366D01*
X30093480Y-99116414D02*
X30450623Y-99235461D01*
X30450623Y-98925938D01*
D10*
D11*
X39138990Y-98848028D02*
X38900895Y-99014695D01*
X39138990Y-99133742D02*
X38638990Y-99133742D01*
X38638990Y-98943266D01*
X38662800Y-98895647D01*
X38686609Y-98871838D01*
X38734228Y-98848028D01*
X38805657Y-98848028D01*
X38853276Y-98871838D01*
X38877085Y-98895647D01*
X38900895Y-98943266D01*
X38900895Y-99133742D01*
X39138990Y-98371838D02*
X39138990Y-98657552D01*
X39138990Y-98514695D02*
X38638990Y-98514695D01*
X38710419Y-98562314D01*
X38758038Y-98609933D01*
X38781847Y-98657552D01*
X38686609Y-98181361D02*
X38662800Y-98157552D01*
X38638990Y-98109933D01*
X38638990Y-97990885D01*
X38662800Y-97943266D01*
X38686609Y-97919457D01*
X38734228Y-97895647D01*
X38781847Y-97895647D01*
X38853276Y-97919457D01*
X39138990Y-98205171D01*
X39138990Y-97895647D01*
D10*
D11*
X43368090Y-99089328D02*
X43129995Y-99255995D01*
X43368090Y-99375042D02*
X42868090Y-99375042D01*
X42868090Y-99184566D01*
X42891900Y-99136947D01*
X42915709Y-99113138D01*
X42963328Y-99089328D01*
X43034757Y-99089328D01*
X43082376Y-99113138D01*
X43106185Y-99136947D01*
X43129995Y-99184566D01*
X43129995Y-99375042D01*
X43368090Y-98613138D02*
X43368090Y-98898852D01*
X43368090Y-98755995D02*
X42868090Y-98755995D01*
X42939519Y-98803614D01*
X42987138Y-98851233D01*
X43010947Y-98898852D01*
X43368090Y-98136947D02*
X43368090Y-98422661D01*
X43368090Y-98279804D02*
X42868090Y-98279804D01*
X42939519Y-98327423D01*
X42987138Y-98375042D01*
X43010947Y-98422661D01*
D10*
D11*
X40493166Y-97063690D02*
X40326500Y-96825595D01*
X40207452Y-97063690D02*
X40207452Y-96563690D01*
X40397928Y-96563690D01*
X40445547Y-96587500D01*
X40469357Y-96611309D01*
X40493166Y-96658928D01*
X40493166Y-96730357D01*
X40469357Y-96777976D01*
X40445547Y-96801785D01*
X40397928Y-96825595D01*
X40207452Y-96825595D01*
X40731261Y-97063690D02*
X40826500Y-97063690D01*
X40874119Y-97039880D01*
X40897928Y-97016071D01*
X40945547Y-96944642D01*
X40969357Y-96849404D01*
X40969357Y-96658928D01*
X40945547Y-96611309D01*
X40921738Y-96587500D01*
X40874119Y-96563690D01*
X40778880Y-96563690D01*
X40731261Y-96587500D01*
X40707452Y-96611309D01*
X40683642Y-96658928D01*
X40683642Y-96777976D01*
X40707452Y-96825595D01*
X40731261Y-96849404D01*
X40778880Y-96873214D01*
X40874119Y-96873214D01*
X40921738Y-96849404D01*
X40945547Y-96825595D01*
X40969357Y-96777976D01*
D10*
D11*
X27844271Y-105604528D02*
X27868080Y-105628338D01*
X27891890Y-105699766D01*
X27891890Y-105747385D01*
X27868080Y-105818814D01*
X27820461Y-105866433D01*
X27772842Y-105890242D01*
X27677604Y-105914052D01*
X27606176Y-105914052D01*
X27510938Y-105890242D01*
X27463319Y-105866433D01*
X27415700Y-105818814D01*
X27391890Y-105747385D01*
X27391890Y-105699766D01*
X27415700Y-105628338D01*
X27439509Y-105604528D01*
X27391890Y-105152147D02*
X27391890Y-105390242D01*
X27629985Y-105414052D01*
X27606176Y-105390242D01*
X27582366Y-105342623D01*
X27582366Y-105223576D01*
X27606176Y-105175957D01*
X27629985Y-105152147D01*
X27677604Y-105128338D01*
X27796652Y-105128338D01*
X27844271Y-105152147D01*
X27868080Y-105175957D01*
X27891890Y-105223576D01*
X27891890Y-105342623D01*
X27868080Y-105390242D01*
X27844271Y-105414052D01*
X27891890Y-104890242D02*
X27891890Y-104795004D01*
X27868080Y-104747385D01*
X27844271Y-104723576D01*
X27772842Y-104675957D01*
X27677604Y-104652147D01*
X27487128Y-104652147D01*
X27439509Y-104675957D01*
X27415700Y-104699766D01*
X27391890Y-104747385D01*
X27391890Y-104842623D01*
X27415700Y-104890242D01*
X27439509Y-104914052D01*
X27487128Y-104937861D01*
X27606176Y-104937861D01*
X27653795Y-104914052D01*
X27677604Y-104890242D01*
X27701414Y-104842623D01*
X27701414Y-104747385D01*
X27677604Y-104699766D01*
X27653795Y-104675957D01*
X27606176Y-104652147D01*
D10*
D11*
X37295971Y-106782371D02*
X37272161Y-106806180D01*
X37200733Y-106829990D01*
X37153114Y-106829990D01*
X37081685Y-106806180D01*
X37034066Y-106758561D01*
X37010257Y-106710942D01*
X36986447Y-106615704D01*
X36986447Y-106544276D01*
X37010257Y-106449038D01*
X37034066Y-106401419D01*
X37081685Y-106353800D01*
X37153114Y-106329990D01*
X37200733Y-106329990D01*
X37272161Y-106353800D01*
X37295971Y-106377609D01*
X37748352Y-106329990D02*
X37510257Y-106329990D01*
X37486447Y-106568085D01*
X37510257Y-106544276D01*
X37557876Y-106520466D01*
X37676923Y-106520466D01*
X37724542Y-106544276D01*
X37748352Y-106568085D01*
X37772161Y-106615704D01*
X37772161Y-106734752D01*
X37748352Y-106782371D01*
X37724542Y-106806180D01*
X37676923Y-106829990D01*
X37557876Y-106829990D01*
X37510257Y-106806180D01*
X37486447Y-106782371D01*
X38200733Y-106329990D02*
X38105495Y-106329990D01*
X38057876Y-106353800D01*
X38034066Y-106377609D01*
X37986447Y-106449038D01*
X37962638Y-106544276D01*
X37962638Y-106734752D01*
X37986447Y-106782371D01*
X38010257Y-106806180D01*
X38057876Y-106829990D01*
X38153114Y-106829990D01*
X38200733Y-106806180D01*
X38224542Y-106782371D01*
X38248352Y-106734752D01*
X38248352Y-106615704D01*
X38224542Y-106568085D01*
X38200733Y-106544276D01*
X38153114Y-106520466D01*
X38057876Y-106520466D01*
X38010257Y-106544276D01*
X37986447Y-106568085D01*
X37962638Y-106615704D01*
D10*
D11*
X41436171Y-106833171D02*
X41412361Y-106856980D01*
X41340933Y-106880790D01*
X41293314Y-106880790D01*
X41221885Y-106856980D01*
X41174266Y-106809361D01*
X41150457Y-106761742D01*
X41126647Y-106666504D01*
X41126647Y-106595076D01*
X41150457Y-106499838D01*
X41174266Y-106452219D01*
X41221885Y-106404600D01*
X41293314Y-106380790D01*
X41340933Y-106380790D01*
X41412361Y-106404600D01*
X41436171Y-106428409D01*
X41864742Y-106547457D02*
X41864742Y-106880790D01*
X41745695Y-106356980D02*
X41626647Y-106714123D01*
X41936171Y-106714123D01*
X42340933Y-106380790D02*
X42245695Y-106380790D01*
X42198076Y-106404600D01*
X42174266Y-106428409D01*
X42126647Y-106499838D01*
X42102838Y-106595076D01*
X42102838Y-106785552D01*
X42126647Y-106833171D01*
X42150457Y-106856980D01*
X42198076Y-106880790D01*
X42293314Y-106880790D01*
X42340933Y-106856980D01*
X42364742Y-106833171D01*
X42388552Y-106785552D01*
X42388552Y-106666504D01*
X42364742Y-106618885D01*
X42340933Y-106595076D01*
X42293314Y-106571266D01*
X42198076Y-106571266D01*
X42150457Y-106595076D01*
X42126647Y-106618885D01*
X42102838Y-106666504D01*
D10*
D11*
X34425771Y-104851971D02*
X34401961Y-104875780D01*
X34330533Y-104899590D01*
X34282914Y-104899590D01*
X34211485Y-104875780D01*
X34163866Y-104828161D01*
X34140057Y-104780542D01*
X34116247Y-104685304D01*
X34116247Y-104613876D01*
X34140057Y-104518638D01*
X34163866Y-104471019D01*
X34211485Y-104423400D01*
X34282914Y-104399590D01*
X34330533Y-104399590D01*
X34401961Y-104423400D01*
X34425771Y-104447209D01*
X34854342Y-104566257D02*
X34854342Y-104899590D01*
X34735295Y-104375780D02*
X34616247Y-104732923D01*
X34925771Y-104732923D01*
X35354342Y-104399590D02*
X35116247Y-104399590D01*
X35092438Y-104637685D01*
X35116247Y-104613876D01*
X35163866Y-104590066D01*
X35282914Y-104590066D01*
X35330533Y-104613876D01*
X35354342Y-104637685D01*
X35378152Y-104685304D01*
X35378152Y-104804352D01*
X35354342Y-104851971D01*
X35330533Y-104875780D01*
X35282914Y-104899590D01*
X35163866Y-104899590D01*
X35116247Y-104875780D01*
X35092438Y-104851971D01*
D10*
D11*
X37795971Y-103991528D02*
X37819780Y-104015338D01*
X37843590Y-104086766D01*
X37843590Y-104134385D01*
X37819780Y-104205814D01*
X37772161Y-104253433D01*
X37724542Y-104277242D01*
X37629304Y-104301052D01*
X37557876Y-104301052D01*
X37462638Y-104277242D01*
X37415019Y-104253433D01*
X37367400Y-104205814D01*
X37343590Y-104134385D01*
X37343590Y-104086766D01*
X37367400Y-104015338D01*
X37391209Y-103991528D01*
X37510257Y-103562957D02*
X37843590Y-103562957D01*
X37319780Y-103682004D02*
X37676923Y-103801052D01*
X37676923Y-103491528D01*
X37510257Y-103086766D02*
X37843590Y-103086766D01*
X37319780Y-103205814D02*
X37676923Y-103324861D01*
X37676923Y-103015338D01*
D10*
D11*
X29663271Y-101422971D02*
X29639461Y-101446780D01*
X29568033Y-101470590D01*
X29520414Y-101470590D01*
X29448985Y-101446780D01*
X29401366Y-101399161D01*
X29377557Y-101351542D01*
X29353747Y-101256304D01*
X29353747Y-101184876D01*
X29377557Y-101089638D01*
X29401366Y-101042019D01*
X29448985Y-100994400D01*
X29520414Y-100970590D01*
X29568033Y-100970590D01*
X29639461Y-100994400D01*
X29663271Y-101018209D01*
X29829938Y-100970590D02*
X30139461Y-100970590D01*
X29972795Y-101161066D01*
X30044223Y-101161066D01*
X30091842Y-101184876D01*
X30115652Y-101208685D01*
X30139461Y-101256304D01*
X30139461Y-101375352D01*
X30115652Y-101422971D01*
X30091842Y-101446780D01*
X30044223Y-101470590D01*
X29901366Y-101470590D01*
X29853747Y-101446780D01*
X29829938Y-101422971D01*
X30377557Y-101470590D02*
X30472795Y-101470590D01*
X30520414Y-101446780D01*
X30544223Y-101422971D01*
X30591842Y-101351542D01*
X30615652Y-101256304D01*
X30615652Y-101065828D01*
X30591842Y-101018209D01*
X30568033Y-100994400D01*
X30520414Y-100970590D01*
X30425176Y-100970590D01*
X30377557Y-100994400D01*
X30353747Y-101018209D01*
X30329938Y-101065828D01*
X30329938Y-101184876D01*
X30353747Y-101232495D01*
X30377557Y-101256304D01*
X30425176Y-101280114D01*
X30520414Y-101280114D01*
X30568033Y-101256304D01*
X30591842Y-101232495D01*
X30615652Y-101184876D01*
D10*
D11*
X36442731Y-101453451D02*
X36418921Y-101477260D01*
X36347493Y-101501070D01*
X36299874Y-101501070D01*
X36228445Y-101477260D01*
X36180826Y-101429641D01*
X36157017Y-101382022D01*
X36133207Y-101286784D01*
X36133207Y-101215356D01*
X36157017Y-101120118D01*
X36180826Y-101072499D01*
X36228445Y-101024880D01*
X36299874Y-101001070D01*
X36347493Y-101001070D01*
X36418921Y-101024880D01*
X36442731Y-101048689D01*
X36609398Y-101001070D02*
X36918921Y-101001070D01*
X36752255Y-101191546D01*
X36823683Y-101191546D01*
X36871302Y-101215356D01*
X36895112Y-101239165D01*
X36918921Y-101286784D01*
X36918921Y-101405832D01*
X36895112Y-101453451D01*
X36871302Y-101477260D01*
X36823683Y-101501070D01*
X36680826Y-101501070D01*
X36633207Y-101477260D01*
X36609398Y-101453451D01*
X37204636Y-101215356D02*
X37157017Y-101191546D01*
X37133207Y-101167737D01*
X37109398Y-101120118D01*
X37109398Y-101096308D01*
X37133207Y-101048689D01*
X37157017Y-101024880D01*
X37204636Y-101001070D01*
X37299874Y-101001070D01*
X37347493Y-101024880D01*
X37371302Y-101048689D01*
X37395112Y-101096308D01*
X37395112Y-101120118D01*
X37371302Y-101167737D01*
X37347493Y-101191546D01*
X37299874Y-101215356D01*
X37204636Y-101215356D01*
X37157017Y-101239165D01*
X37133207Y-101262975D01*
X37109398Y-101310594D01*
X37109398Y-101405832D01*
X37133207Y-101453451D01*
X37157017Y-101477260D01*
X37204636Y-101501070D01*
X37299874Y-101501070D01*
X37347493Y-101477260D01*
X37371302Y-101453451D01*
X37395112Y-101405832D01*
X37395112Y-101310594D01*
X37371302Y-101262975D01*
X37347493Y-101239165D01*
X37299874Y-101215356D01*
D10*
D11*
X31085671Y-103696271D02*
X31061861Y-103720080D01*
X30990433Y-103743890D01*
X30942814Y-103743890D01*
X30871385Y-103720080D01*
X30823766Y-103672461D01*
X30799957Y-103624842D01*
X30776147Y-103529604D01*
X30776147Y-103458176D01*
X30799957Y-103362938D01*
X30823766Y-103315319D01*
X30871385Y-103267700D01*
X30942814Y-103243890D01*
X30990433Y-103243890D01*
X31061861Y-103267700D01*
X31085671Y-103291509D01*
X31252338Y-103243890D02*
X31561861Y-103243890D01*
X31395195Y-103434366D01*
X31466623Y-103434366D01*
X31514242Y-103458176D01*
X31538052Y-103481985D01*
X31561861Y-103529604D01*
X31561861Y-103648652D01*
X31538052Y-103696271D01*
X31514242Y-103720080D01*
X31466623Y-103743890D01*
X31323766Y-103743890D01*
X31276147Y-103720080D01*
X31252338Y-103696271D01*
X31728528Y-103243890D02*
X32061861Y-103243890D01*
X31847576Y-103743890D01*
D10*
D11*
X30361771Y-98552771D02*
X30337961Y-98576580D01*
X30266533Y-98600390D01*
X30218914Y-98600390D01*
X30147485Y-98576580D01*
X30099866Y-98528961D01*
X30076057Y-98481342D01*
X30052247Y-98386104D01*
X30052247Y-98314676D01*
X30076057Y-98219438D01*
X30099866Y-98171819D01*
X30147485Y-98124200D01*
X30218914Y-98100390D01*
X30266533Y-98100390D01*
X30337961Y-98124200D01*
X30361771Y-98148009D01*
X30528438Y-98100390D02*
X30837961Y-98100390D01*
X30671295Y-98290866D01*
X30742723Y-98290866D01*
X30790342Y-98314676D01*
X30814152Y-98338485D01*
X30837961Y-98386104D01*
X30837961Y-98505152D01*
X30814152Y-98552771D01*
X30790342Y-98576580D01*
X30742723Y-98600390D01*
X30599866Y-98600390D01*
X30552247Y-98576580D01*
X30528438Y-98552771D01*
X31028438Y-98148009D02*
X31052247Y-98124200D01*
X31099866Y-98100390D01*
X31218914Y-98100390D01*
X31266533Y-98124200D01*
X31290342Y-98148009D01*
X31314152Y-98195628D01*
X31314152Y-98243247D01*
X31290342Y-98314676D01*
X31004628Y-98600390D01*
X31314152Y-98600390D01*
D10*
D11*
X38121471Y-96330271D02*
X38097661Y-96354080D01*
X38026233Y-96377890D01*
X37978614Y-96377890D01*
X37907185Y-96354080D01*
X37859566Y-96306461D01*
X37835757Y-96258842D01*
X37811947Y-96163604D01*
X37811947Y-96092176D01*
X37835757Y-95996938D01*
X37859566Y-95949319D01*
X37907185Y-95901700D01*
X37978614Y-95877890D01*
X38026233Y-95877890D01*
X38097661Y-95901700D01*
X38121471Y-95925509D01*
X38288138Y-95877890D02*
X38597661Y-95877890D01*
X38430995Y-96068366D01*
X38502423Y-96068366D01*
X38550042Y-96092176D01*
X38573852Y-96115985D01*
X38597661Y-96163604D01*
X38597661Y-96282652D01*
X38573852Y-96330271D01*
X38550042Y-96354080D01*
X38502423Y-96377890D01*
X38359566Y-96377890D01*
X38311947Y-96354080D01*
X38288138Y-96330271D01*
X39073852Y-96377890D02*
X38788138Y-96377890D01*
X38930995Y-96377890D02*
X38930995Y-95877890D01*
X38883376Y-95949319D01*
X38835757Y-95996938D01*
X38788138Y-96020747D01*
D10*
D11*
X33866971Y-98314011D02*
X33843161Y-98337820D01*
X33771733Y-98361630D01*
X33724114Y-98361630D01*
X33652685Y-98337820D01*
X33605066Y-98290201D01*
X33581257Y-98242582D01*
X33557447Y-98147344D01*
X33557447Y-98075916D01*
X33581257Y-97980678D01*
X33605066Y-97933059D01*
X33652685Y-97885440D01*
X33724114Y-97861630D01*
X33771733Y-97861630D01*
X33843161Y-97885440D01*
X33866971Y-97909249D01*
X34033638Y-97861630D02*
X34343161Y-97861630D01*
X34176495Y-98052106D01*
X34247923Y-98052106D01*
X34295542Y-98075916D01*
X34319352Y-98099725D01*
X34343161Y-98147344D01*
X34343161Y-98266392D01*
X34319352Y-98314011D01*
X34295542Y-98337820D01*
X34247923Y-98361630D01*
X34105066Y-98361630D01*
X34057447Y-98337820D01*
X34033638Y-98314011D01*
X34652685Y-97861630D02*
X34700304Y-97861630D01*
X34747923Y-97885440D01*
X34771733Y-97909249D01*
X34795542Y-97956868D01*
X34819352Y-98052106D01*
X34819352Y-98171154D01*
X34795542Y-98266392D01*
X34771733Y-98314011D01*
X34747923Y-98337820D01*
X34700304Y-98361630D01*
X34652685Y-98361630D01*
X34605066Y-98337820D01*
X34581257Y-98314011D01*
X34557447Y-98266392D01*
X34533638Y-98171154D01*
X34533638Y-98052106D01*
X34557447Y-97956868D01*
X34581257Y-97909249D01*
X34605066Y-97885440D01*
X34652685Y-97861630D01*
D10*
D11*
X31139011Y-94966291D02*
X31115201Y-94990100D01*
X31043773Y-95013910D01*
X30996154Y-95013910D01*
X30924725Y-94990100D01*
X30877106Y-94942481D01*
X30853297Y-94894862D01*
X30829487Y-94799624D01*
X30829487Y-94728196D01*
X30853297Y-94632958D01*
X30877106Y-94585339D01*
X30924725Y-94537720D01*
X30996154Y-94513910D01*
X31043773Y-94513910D01*
X31115201Y-94537720D01*
X31139011Y-94561529D01*
X31329487Y-94561529D02*
X31353297Y-94537720D01*
X31400916Y-94513910D01*
X31519963Y-94513910D01*
X31567582Y-94537720D01*
X31591392Y-94561529D01*
X31615201Y-94609148D01*
X31615201Y-94656767D01*
X31591392Y-94728196D01*
X31305678Y-95013910D01*
X31615201Y-95013910D01*
X31853297Y-95013910D02*
X31948535Y-95013910D01*
X31996154Y-94990100D01*
X32019963Y-94966291D01*
X32067582Y-94894862D01*
X32091392Y-94799624D01*
X32091392Y-94609148D01*
X32067582Y-94561529D01*
X32043773Y-94537720D01*
X31996154Y-94513910D01*
X31900916Y-94513910D01*
X31853297Y-94537720D01*
X31829487Y-94561529D01*
X31805678Y-94609148D01*
X31805678Y-94728196D01*
X31829487Y-94775815D01*
X31853297Y-94799624D01*
X31900916Y-94823434D01*
X31996154Y-94823434D01*
X32043773Y-94799624D01*
X32067582Y-94775815D01*
X32091392Y-94728196D01*
D10*
D11*
X53294790Y-139915852D02*
X53699552Y-139915852D01*
X53747171Y-139892042D01*
X53770980Y-139868233D01*
X53794790Y-139820614D01*
X53794790Y-139725376D01*
X53770980Y-139677757D01*
X53747171Y-139653947D01*
X53699552Y-139630138D01*
X53294790Y-139630138D01*
X53342409Y-139415852D02*
X53318600Y-139392042D01*
X53294790Y-139344423D01*
X53294790Y-139225376D01*
X53318600Y-139177757D01*
X53342409Y-139153947D01*
X53390028Y-139130138D01*
X53437647Y-139130138D01*
X53509076Y-139153947D01*
X53794790Y-139439661D01*
X53794790Y-139130138D01*
D10*
D11*
X64303613Y-165537390D02*
X64303613Y-165894533D01*
X64279803Y-165965961D01*
X64232184Y-166013580D01*
X64160756Y-166037390D01*
X64113137Y-166037390D01*
X64779803Y-165537390D02*
X64541708Y-165537390D01*
X64517899Y-165775485D01*
X64541708Y-165751676D01*
X64589327Y-165727866D01*
X64708375Y-165727866D01*
X64755994Y-165751676D01*
X64779803Y-165775485D01*
X64803613Y-165823104D01*
X64803613Y-165942152D01*
X64779803Y-165989771D01*
X64755994Y-166013580D01*
X64708375Y-166037390D01*
X64589327Y-166037390D01*
X64541708Y-166013580D01*
X64517899Y-165989771D01*
D10*
D11*
X48943390Y-149013028D02*
X48705295Y-149179695D01*
X48943390Y-149298742D02*
X48443390Y-149298742D01*
X48443390Y-149108266D01*
X48467200Y-149060647D01*
X48491009Y-149036838D01*
X48538628Y-149013028D01*
X48610057Y-149013028D01*
X48657676Y-149036838D01*
X48681485Y-149060647D01*
X48705295Y-149108266D01*
X48705295Y-149298742D01*
X48443390Y-148584457D02*
X48443390Y-148679695D01*
X48467200Y-148727314D01*
X48491009Y-148751123D01*
X48562438Y-148798742D01*
X48657676Y-148822552D01*
X48848152Y-148822552D01*
X48895771Y-148798742D01*
X48919580Y-148774933D01*
X48943390Y-148727314D01*
X48943390Y-148632076D01*
X48919580Y-148584457D01*
X48895771Y-148560647D01*
X48848152Y-148536838D01*
X48729104Y-148536838D01*
X48681485Y-148560647D01*
X48657676Y-148584457D01*
X48633866Y-148632076D01*
X48633866Y-148727314D01*
X48657676Y-148774933D01*
X48681485Y-148798742D01*
X48729104Y-148822552D01*
X48657676Y-148251123D02*
X48633866Y-148298742D01*
X48610057Y-148322552D01*
X48562438Y-148346361D01*
X48538628Y-148346361D01*
X48491009Y-148322552D01*
X48467200Y-148298742D01*
X48443390Y-148251123D01*
X48443390Y-148155885D01*
X48467200Y-148108266D01*
X48491009Y-148084457D01*
X48538628Y-148060647D01*
X48562438Y-148060647D01*
X48610057Y-148084457D01*
X48633866Y-148108266D01*
X48657676Y-148155885D01*
X48657676Y-148251123D01*
X48681485Y-148298742D01*
X48705295Y-148322552D01*
X48752914Y-148346361D01*
X48848152Y-148346361D01*
X48895771Y-148322552D01*
X48919580Y-148298742D01*
X48943390Y-148251123D01*
X48943390Y-148155885D01*
X48919580Y-148108266D01*
X48895771Y-148084457D01*
X48848152Y-148060647D01*
X48752914Y-148060647D01*
X48705295Y-148084457D01*
X48681485Y-148108266D01*
X48657676Y-148155885D01*
D10*
D11*
X37146680Y-120349852D02*
X37170490Y-120278423D01*
X37170490Y-120159376D01*
X37146680Y-120111757D01*
X37122871Y-120087947D01*
X37075252Y-120064138D01*
X37027633Y-120064138D01*
X36980014Y-120087947D01*
X36956204Y-120111757D01*
X36932395Y-120159376D01*
X36908585Y-120254614D01*
X36884776Y-120302233D01*
X36860966Y-120326042D01*
X36813347Y-120349852D01*
X36765728Y-120349852D01*
X36718109Y-120326042D01*
X36694300Y-120302233D01*
X36670490Y-120254614D01*
X36670490Y-120135566D01*
X36694300Y-120064138D01*
X37170490Y-119849852D02*
X36670490Y-119849852D01*
X36670490Y-119659376D01*
X36694300Y-119611757D01*
X36718109Y-119587947D01*
X36765728Y-119564138D01*
X36837157Y-119564138D01*
X36884776Y-119587947D01*
X36908585Y-119611757D01*
X36932395Y-119659376D01*
X36932395Y-119849852D01*
X37170490Y-119349852D02*
X36670490Y-119349852D01*
X37170490Y-119064138D02*
X36884776Y-119278423D01*
X36670490Y-119064138D02*
X36956204Y-119349852D01*
X36718109Y-118873661D02*
X36694300Y-118849852D01*
X36670490Y-118802233D01*
X36670490Y-118683185D01*
X36694300Y-118635566D01*
X36718109Y-118611757D01*
X36765728Y-118587947D01*
X36813347Y-118587947D01*
X36884776Y-118611757D01*
X37170490Y-118897471D01*
X37170490Y-118587947D01*
D10*
D11*
X37146680Y-117936852D02*
X37170490Y-117865423D01*
X37170490Y-117746376D01*
X37146680Y-117698757D01*
X37122871Y-117674947D01*
X37075252Y-117651138D01*
X37027633Y-117651138D01*
X36980014Y-117674947D01*
X36956204Y-117698757D01*
X36932395Y-117746376D01*
X36908585Y-117841614D01*
X36884776Y-117889233D01*
X36860966Y-117913042D01*
X36813347Y-117936852D01*
X36765728Y-117936852D01*
X36718109Y-117913042D01*
X36694300Y-117889233D01*
X36670490Y-117841614D01*
X36670490Y-117722566D01*
X36694300Y-117651138D01*
X37170490Y-117436852D02*
X36670490Y-117436852D01*
X36670490Y-117246376D01*
X36694300Y-117198757D01*
X36718109Y-117174947D01*
X36765728Y-117151138D01*
X36837157Y-117151138D01*
X36884776Y-117174947D01*
X36908585Y-117198757D01*
X36932395Y-117246376D01*
X36932395Y-117436852D01*
X37170490Y-116936852D02*
X36670490Y-116936852D01*
X37170490Y-116651138D02*
X36884776Y-116865423D01*
X36670490Y-116651138D02*
X36956204Y-116936852D01*
X37170490Y-116174947D02*
X37170490Y-116460661D01*
X37170490Y-116317804D02*
X36670490Y-116317804D01*
X36741919Y-116365423D01*
X36789538Y-116413042D01*
X36813347Y-116460661D01*
D10*
D11*
X36462590Y-125803790D02*
X36462590Y-125303790D01*
X36629257Y-125660933D01*
X36795923Y-125303790D01*
X36795923Y-125803790D01*
X37034019Y-125803790D02*
X37034019Y-125303790D01*
X37557828Y-125756171D02*
X37534019Y-125779980D01*
X37462590Y-125803790D01*
X37414971Y-125803790D01*
X37343542Y-125779980D01*
X37295923Y-125732361D01*
X37272114Y-125684742D01*
X37248304Y-125589504D01*
X37248304Y-125518076D01*
X37272114Y-125422838D01*
X37295923Y-125375219D01*
X37343542Y-125327600D01*
X37414971Y-125303790D01*
X37462590Y-125303790D01*
X37534019Y-125327600D01*
X37557828Y-125351409D01*
X37748304Y-125351409D02*
X37772114Y-125327600D01*
X37819733Y-125303790D01*
X37938780Y-125303790D01*
X37986400Y-125327600D01*
X38010209Y-125351409D01*
X38034019Y-125399028D01*
X38034019Y-125446647D01*
X38010209Y-125518076D01*
X37724495Y-125803790D01*
X38034019Y-125803790D01*
D10*
D11*
X33757490Y-124457590D02*
X33757490Y-123957590D01*
X33924157Y-124314733D01*
X34090823Y-123957590D01*
X34090823Y-124457590D01*
X34328919Y-124457590D02*
X34328919Y-123957590D01*
X34852728Y-124409971D02*
X34828919Y-124433780D01*
X34757490Y-124457590D01*
X34709871Y-124457590D01*
X34638442Y-124433780D01*
X34590823Y-124386161D01*
X34567014Y-124338542D01*
X34543204Y-124243304D01*
X34543204Y-124171876D01*
X34567014Y-124076638D01*
X34590823Y-124029019D01*
X34638442Y-123981400D01*
X34709871Y-123957590D01*
X34757490Y-123957590D01*
X34828919Y-123981400D01*
X34852728Y-124005209D01*
X35328919Y-124457590D02*
X35043204Y-124457590D01*
X35186061Y-124457590D02*
X35186061Y-123957590D01*
X35138442Y-124029019D01*
X35090823Y-124076638D01*
X35043204Y-124100447D01*
D10*
D11*
X47586152Y-160754190D02*
X47586152Y-160254190D01*
X47705200Y-160254190D01*
X47776628Y-160278000D01*
X47824247Y-160325619D01*
X47848057Y-160373238D01*
X47871866Y-160468476D01*
X47871866Y-160539904D01*
X47848057Y-160635142D01*
X47824247Y-160682761D01*
X47776628Y-160730380D01*
X47705200Y-160754190D01*
X47586152Y-160754190D01*
X48300438Y-160254190D02*
X48205200Y-160254190D01*
X48157580Y-160278000D01*
X48133771Y-160301809D01*
X48086152Y-160373238D01*
X48062342Y-160468476D01*
X48062342Y-160658952D01*
X48086152Y-160706571D01*
X48109961Y-160730380D01*
X48157580Y-160754190D01*
X48252819Y-160754190D01*
X48300438Y-160730380D01*
X48324247Y-160706571D01*
X48348057Y-160658952D01*
X48348057Y-160539904D01*
X48324247Y-160492285D01*
X48300438Y-160468476D01*
X48252819Y-160444666D01*
X48157580Y-160444666D01*
X48109961Y-160468476D01*
X48086152Y-160492285D01*
X48062342Y-160539904D01*
D10*
D11*
X58312596Y-150754851D02*
X58288786Y-150778660D01*
X58217358Y-150802470D01*
X58169739Y-150802470D01*
X58098310Y-150778660D01*
X58050691Y-150731041D01*
X58026881Y-150683422D01*
X58003072Y-150588184D01*
X58003072Y-150516756D01*
X58026881Y-150421518D01*
X58050691Y-150373899D01*
X58098310Y-150326280D01*
X58169739Y-150302470D01*
X58217358Y-150302470D01*
X58288786Y-150326280D01*
X58312596Y-150350089D01*
X58788786Y-150802470D02*
X58503072Y-150802470D01*
X58645929Y-150802470D02*
X58645929Y-150302470D01*
X58598310Y-150373899D01*
X58550691Y-150421518D01*
X58503072Y-150445327D01*
X59098310Y-150302470D02*
X59145929Y-150302470D01*
X59193548Y-150326280D01*
X59217358Y-150350089D01*
X59241167Y-150397708D01*
X59264977Y-150492946D01*
X59264977Y-150611994D01*
X59241167Y-150707232D01*
X59217358Y-150754851D01*
X59193548Y-150778660D01*
X59145929Y-150802470D01*
X59098310Y-150802470D01*
X59050691Y-150778660D01*
X59026881Y-150754851D01*
X59003072Y-150707232D01*
X58979262Y-150611994D01*
X58979262Y-150492946D01*
X59003072Y-150397708D01*
X59026881Y-150350089D01*
X59050691Y-150326280D01*
X59098310Y-150302470D01*
X59431643Y-150302470D02*
X59741167Y-150302470D01*
X59574500Y-150492946D01*
X59645929Y-150492946D01*
X59693548Y-150516756D01*
X59717358Y-150540565D01*
X59741167Y-150588184D01*
X59741167Y-150707232D01*
X59717358Y-150754851D01*
X59693548Y-150778660D01*
X59645929Y-150802470D01*
X59503072Y-150802470D01*
X59455453Y-150778660D01*
X59431643Y-150754851D01*
D10*
D11*
X24749807Y-71366510D02*
X24749807Y-70866510D01*
X24749807Y-71104605D02*
X25035521Y-71104605D01*
X25035521Y-71366510D02*
X25035521Y-70866510D01*
X25249807Y-70914129D02*
X25273617Y-70890320D01*
X25321236Y-70866510D01*
X25440283Y-70866510D01*
X25487902Y-70890320D01*
X25511712Y-70914129D01*
X25535521Y-70961748D01*
X25535521Y-71009367D01*
X25511712Y-71080796D01*
X25225998Y-71366510D01*
X25535521Y-71366510D01*
D10*
D11*
X52856011Y-172360091D02*
X52832201Y-172383900D01*
X52760773Y-172407710D01*
X52713154Y-172407710D01*
X52641725Y-172383900D01*
X52594106Y-172336281D01*
X52570297Y-172288662D01*
X52546487Y-172193424D01*
X52546487Y-172121996D01*
X52570297Y-172026758D01*
X52594106Y-171979139D01*
X52641725Y-171931520D01*
X52713154Y-171907710D01*
X52760773Y-171907710D01*
X52832201Y-171931520D01*
X52856011Y-171955329D01*
X53332201Y-172407710D02*
X53046487Y-172407710D01*
X53189344Y-172407710D02*
X53189344Y-171907710D01*
X53141725Y-171979139D01*
X53094106Y-172026758D01*
X53046487Y-172050567D01*
X53641725Y-171907710D02*
X53689344Y-171907710D01*
X53736963Y-171931520D01*
X53760773Y-171955329D01*
X53784582Y-172002948D01*
X53808392Y-172098186D01*
X53808392Y-172217234D01*
X53784582Y-172312472D01*
X53760773Y-172360091D01*
X53736963Y-172383900D01*
X53689344Y-172407710D01*
X53641725Y-172407710D01*
X53594106Y-172383900D01*
X53570297Y-172360091D01*
X53546487Y-172312472D01*
X53522678Y-172217234D01*
X53522678Y-172098186D01*
X53546487Y-172002948D01*
X53570297Y-171955329D01*
X53594106Y-171931520D01*
X53641725Y-171907710D01*
D10*
D11*
X34359066Y-152324571D02*
X34335257Y-152348380D01*
X34263828Y-152372190D01*
X34216209Y-152372190D01*
X34144780Y-152348380D01*
X34097161Y-152300761D01*
X34073352Y-152253142D01*
X34049542Y-152157904D01*
X34049542Y-152086476D01*
X34073352Y-151991238D01*
X34097161Y-151943619D01*
X34144780Y-151896000D01*
X34216209Y-151872190D01*
X34263828Y-151872190D01*
X34335257Y-151896000D01*
X34359066Y-151919809D01*
X34597161Y-152372190D02*
X34692400Y-152372190D01*
X34740019Y-152348380D01*
X34763828Y-152324571D01*
X34811447Y-152253142D01*
X34835257Y-152157904D01*
X34835257Y-151967428D01*
X34811447Y-151919809D01*
X34787638Y-151896000D01*
X34740019Y-151872190D01*
X34644780Y-151872190D01*
X34597161Y-151896000D01*
X34573352Y-151919809D01*
X34549542Y-151967428D01*
X34549542Y-152086476D01*
X34573352Y-152134095D01*
X34597161Y-152157904D01*
X34644780Y-152181714D01*
X34740019Y-152181714D01*
X34787638Y-152157904D01*
X34811447Y-152134095D01*
X34835257Y-152086476D01*
D10*
D11*
X59606666Y-167459990D02*
X59440000Y-167221895D01*
X59320952Y-167459990D02*
X59320952Y-166959990D01*
X59511428Y-166959990D01*
X59559047Y-166983800D01*
X59582857Y-167007609D01*
X59606666Y-167055228D01*
X59606666Y-167126657D01*
X59582857Y-167174276D01*
X59559047Y-167198085D01*
X59511428Y-167221895D01*
X59320952Y-167221895D01*
X59773333Y-166959990D02*
X60106666Y-166959990D01*
X59892380Y-167459990D01*
D10*
D11*
X57096790Y-168358333D02*
X56858695Y-168525000D01*
X57096790Y-168644047D02*
X56596790Y-168644047D01*
X56596790Y-168453571D01*
X56620600Y-168405952D01*
X56644409Y-168382142D01*
X56692028Y-168358333D01*
X56763457Y-168358333D01*
X56811076Y-168382142D01*
X56834885Y-168405952D01*
X56858695Y-168453571D01*
X56858695Y-168644047D01*
X56596790Y-167929761D02*
X56596790Y-168025000D01*
X56620600Y-168072619D01*
X56644409Y-168096428D01*
X56715838Y-168144047D01*
X56811076Y-168167857D01*
X57001552Y-168167857D01*
X57049171Y-168144047D01*
X57072980Y-168120238D01*
X57096790Y-168072619D01*
X57096790Y-167977380D01*
X57072980Y-167929761D01*
X57049171Y-167905952D01*
X57001552Y-167882142D01*
X56882504Y-167882142D01*
X56834885Y-167905952D01*
X56811076Y-167929761D01*
X56787266Y-167977380D01*
X56787266Y-168072619D01*
X56811076Y-168120238D01*
X56834885Y-168144047D01*
X56882504Y-168167857D01*
D10*
D11*
X35530030Y-150087626D02*
X35887173Y-150087626D01*
X35958601Y-150111436D01*
X36006220Y-150159055D01*
X36030030Y-150230483D01*
X36030030Y-150278102D01*
X35530030Y-149897150D02*
X35530030Y-149563817D01*
X36030030Y-149778102D01*
D10*
D11*
X57456438Y-127386590D02*
X57456438Y-127743733D01*
X57432628Y-127815161D01*
X57385009Y-127862780D01*
X57313580Y-127886590D01*
X57265961Y-127886590D01*
X57956438Y-127886590D02*
X57670723Y-127886590D01*
X57813580Y-127886590D02*
X57813580Y-127386590D01*
X57765961Y-127458019D01*
X57718342Y-127505638D01*
X57670723Y-127529447D01*
X58385009Y-127553257D02*
X58385009Y-127886590D01*
X58265961Y-127362780D02*
X58146914Y-127719923D01*
X58456438Y-127719923D01*
D10*
D11*
X29110500Y-175862110D02*
X28943834Y-175624015D01*
X28824786Y-175862110D02*
X28824786Y-175362110D01*
X29015262Y-175362110D01*
X29062881Y-175385920D01*
X29086691Y-175409729D01*
X29110500Y-175457348D01*
X29110500Y-175528777D01*
X29086691Y-175576396D01*
X29062881Y-175600205D01*
X29015262Y-175624015D01*
X28824786Y-175624015D01*
X29253358Y-175362110D02*
X29420024Y-175862110D01*
X29586691Y-175362110D01*
X30015262Y-175862110D02*
X29729548Y-175862110D01*
X29872405Y-175862110D02*
X29872405Y-175362110D01*
X29824786Y-175433539D01*
X29777167Y-175481158D01*
X29729548Y-175504967D01*
D10*
D11*
X26544638Y-144817790D02*
X26544638Y-145174933D01*
X26520828Y-145246361D01*
X26473209Y-145293980D01*
X26401780Y-145317790D01*
X26354161Y-145317790D01*
X27044638Y-145317790D02*
X26758923Y-145317790D01*
X26901780Y-145317790D02*
X26901780Y-144817790D01*
X26854161Y-144889219D01*
X26806542Y-144936838D01*
X26758923Y-144960647D01*
X27497019Y-144817790D02*
X27258923Y-144817790D01*
X27235114Y-145055885D01*
X27258923Y-145032076D01*
X27306542Y-145008266D01*
X27425590Y-145008266D01*
X27473209Y-145032076D01*
X27497019Y-145055885D01*
X27520828Y-145103504D01*
X27520828Y-145222552D01*
X27497019Y-145270171D01*
X27473209Y-145293980D01*
X27425590Y-145317790D01*
X27306542Y-145317790D01*
X27258923Y-145293980D01*
X27235114Y-145270171D01*
D10*
D11*
X31323790Y-77815392D02*
X31323790Y-77529678D01*
X31823790Y-77672535D02*
X31323790Y-77672535D01*
X31823790Y-77101106D02*
X31823790Y-77386820D01*
X31823790Y-77243963D02*
X31323790Y-77243963D01*
X31395219Y-77291582D01*
X31442838Y-77339201D01*
X31466647Y-77386820D01*
D10*
D11*
X28757369Y-76928339D02*
X28733560Y-76975958D01*
X28685940Y-77023577D01*
X28614512Y-77095005D01*
X28590702Y-77142624D01*
X28590702Y-77190243D01*
X28709750Y-77166434D02*
X28685940Y-77214053D01*
X28638321Y-77261672D01*
X28543083Y-77285481D01*
X28376417Y-77285481D01*
X28281179Y-77261672D01*
X28233560Y-77214053D01*
X28209750Y-77166434D01*
X28209750Y-77071196D01*
X28233560Y-77023577D01*
X28281179Y-76975958D01*
X28376417Y-76952148D01*
X28543083Y-76952148D01*
X28638321Y-76975958D01*
X28685940Y-77023577D01*
X28709750Y-77071196D01*
X28709750Y-77166434D01*
X28209750Y-76785481D02*
X28209750Y-76475958D01*
X28400226Y-76642624D01*
X28400226Y-76571196D01*
X28424036Y-76523577D01*
X28447845Y-76499767D01*
X28495464Y-76475958D01*
X28614512Y-76475958D01*
X28662131Y-76499767D01*
X28685940Y-76523577D01*
X28709750Y-76571196D01*
X28709750Y-76714053D01*
X28685940Y-76761672D01*
X28662131Y-76785481D01*
D10*
D11*
X54202211Y-167843971D02*
X54178401Y-167867780D01*
X54106973Y-167891590D01*
X54059354Y-167891590D01*
X53987925Y-167867780D01*
X53940306Y-167820161D01*
X53916497Y-167772542D01*
X53892687Y-167677304D01*
X53892687Y-167605876D01*
X53916497Y-167510638D01*
X53940306Y-167463019D01*
X53987925Y-167415400D01*
X54059354Y-167391590D01*
X54106973Y-167391590D01*
X54178401Y-167415400D01*
X54202211Y-167439209D01*
X54440306Y-167891590D02*
X54535544Y-167891590D01*
X54583163Y-167867780D01*
X54606973Y-167843971D01*
X54654592Y-167772542D01*
X54678401Y-167677304D01*
X54678401Y-167486828D01*
X54654592Y-167439209D01*
X54630782Y-167415400D01*
X54583163Y-167391590D01*
X54487925Y-167391590D01*
X54440306Y-167415400D01*
X54416497Y-167439209D01*
X54392687Y-167486828D01*
X54392687Y-167605876D01*
X54416497Y-167653495D01*
X54440306Y-167677304D01*
X54487925Y-167701114D01*
X54583163Y-167701114D01*
X54630782Y-167677304D01*
X54654592Y-167653495D01*
X54678401Y-167605876D01*
X54964116Y-167605876D02*
X54916497Y-167582066D01*
X54892687Y-167558257D01*
X54868878Y-167510638D01*
X54868878Y-167486828D01*
X54892687Y-167439209D01*
X54916497Y-167415400D01*
X54964116Y-167391590D01*
X55059354Y-167391590D01*
X55106973Y-167415400D01*
X55130782Y-167439209D01*
X55154592Y-167486828D01*
X55154592Y-167510638D01*
X55130782Y-167558257D01*
X55106973Y-167582066D01*
X55059354Y-167605876D01*
X54964116Y-167605876D01*
X54916497Y-167629685D01*
X54892687Y-167653495D01*
X54868878Y-167701114D01*
X54868878Y-167796352D01*
X54892687Y-167843971D01*
X54916497Y-167867780D01*
X54964116Y-167891590D01*
X55059354Y-167891590D01*
X55106973Y-167867780D01*
X55130782Y-167843971D01*
X55154592Y-167796352D01*
X55154592Y-167701114D01*
X55130782Y-167653495D01*
X55106973Y-167629685D01*
X55059354Y-167605876D01*
D10*
D11*
X60584590Y-112569547D02*
X60989352Y-112569547D01*
X61036971Y-112545738D01*
X61060780Y-112521928D01*
X61084590Y-112474309D01*
X61084590Y-112379071D01*
X61060780Y-112331452D01*
X61036971Y-112307642D01*
X60989352Y-112283833D01*
X60584590Y-112283833D01*
X61084590Y-111783833D02*
X61084590Y-112069547D01*
X61084590Y-111926690D02*
X60584590Y-111926690D01*
X60656019Y-111974309D01*
X60703638Y-112021928D01*
X60727447Y-112069547D01*
X61084590Y-111307642D02*
X61084590Y-111593357D01*
X61084590Y-111450500D02*
X60584590Y-111450500D01*
X60656019Y-111498119D01*
X60703638Y-111545738D01*
X60727447Y-111593357D01*
D10*
D11*
X28097990Y-161980832D02*
X28502752Y-161980832D01*
X28550371Y-161957022D01*
X28574180Y-161933213D01*
X28597990Y-161885594D01*
X28597990Y-161790356D01*
X28574180Y-161742737D01*
X28550371Y-161718927D01*
X28502752Y-161695118D01*
X28097990Y-161695118D01*
X28597990Y-161433213D02*
X28597990Y-161337975D01*
X28574180Y-161290356D01*
X28550371Y-161266546D01*
X28478942Y-161218927D01*
X28383704Y-161195118D01*
X28193228Y-161195118D01*
X28145609Y-161218927D01*
X28121800Y-161242737D01*
X28097990Y-161290356D01*
X28097990Y-161385594D01*
X28121800Y-161433213D01*
X28145609Y-161457022D01*
X28193228Y-161480832D01*
X28312276Y-161480832D01*
X28359895Y-161457022D01*
X28383704Y-161433213D01*
X28407514Y-161385594D01*
X28407514Y-161290356D01*
X28383704Y-161242737D01*
X28359895Y-161218927D01*
X28312276Y-161195118D01*
D10*
D11*
X63810390Y-105943352D02*
X64215152Y-105943352D01*
X64262771Y-105919542D01*
X64286580Y-105895733D01*
X64310390Y-105848114D01*
X64310390Y-105752876D01*
X64286580Y-105705257D01*
X64262771Y-105681447D01*
X64215152Y-105657638D01*
X63810390Y-105657638D01*
X64024676Y-105348114D02*
X64000866Y-105395733D01*
X63977057Y-105419542D01*
X63929438Y-105443352D01*
X63905628Y-105443352D01*
X63858009Y-105419542D01*
X63834200Y-105395733D01*
X63810390Y-105348114D01*
X63810390Y-105252876D01*
X63834200Y-105205257D01*
X63858009Y-105181447D01*
X63905628Y-105157638D01*
X63929438Y-105157638D01*
X63977057Y-105181447D01*
X64000866Y-105205257D01*
X64024676Y-105252876D01*
X64024676Y-105348114D01*
X64048485Y-105395733D01*
X64072295Y-105419542D01*
X64119914Y-105443352D01*
X64215152Y-105443352D01*
X64262771Y-105419542D01*
X64286580Y-105395733D01*
X64310390Y-105348114D01*
X64310390Y-105252876D01*
X64286580Y-105205257D01*
X64262771Y-105181447D01*
X64215152Y-105157638D01*
X64119914Y-105157638D01*
X64072295Y-105181447D01*
X64048485Y-105205257D01*
X64024676Y-105252876D01*
D10*
D11*
X22345733Y-97522480D02*
X22417161Y-97546290D01*
X22536209Y-97546290D01*
X22583828Y-97522480D01*
X22607638Y-97498671D01*
X22631447Y-97451052D01*
X22631447Y-97403433D01*
X22607638Y-97355814D01*
X22583828Y-97332004D01*
X22536209Y-97308195D01*
X22440971Y-97284385D01*
X22393352Y-97260576D01*
X22369542Y-97236766D01*
X22345733Y-97189147D01*
X22345733Y-97141528D01*
X22369542Y-97093909D01*
X22393352Y-97070100D01*
X22440971Y-97046290D01*
X22560019Y-97046290D01*
X22631447Y-97070100D01*
X22798114Y-97046290D02*
X22917161Y-97546290D01*
X23012400Y-97189147D01*
X23107638Y-97546290D01*
X23226685Y-97046290D01*
X23679066Y-97546290D02*
X23393352Y-97546290D01*
X23536209Y-97546290D02*
X23536209Y-97046290D01*
X23488590Y-97117719D01*
X23440971Y-97165338D01*
X23393352Y-97189147D01*
D10*
D11*
X30939870Y-169452408D02*
X30701775Y-169619075D01*
X30939870Y-169738122D02*
X30439870Y-169738122D01*
X30439870Y-169547646D01*
X30463680Y-169500027D01*
X30487489Y-169476218D01*
X30535108Y-169452408D01*
X30606537Y-169452408D01*
X30654156Y-169476218D01*
X30677965Y-169500027D01*
X30701775Y-169547646D01*
X30701775Y-169738122D01*
X30439870Y-169000027D02*
X30439870Y-169238122D01*
X30677965Y-169261932D01*
X30654156Y-169238122D01*
X30630346Y-169190503D01*
X30630346Y-169071456D01*
X30654156Y-169023837D01*
X30677965Y-169000027D01*
X30725584Y-168976218D01*
X30844632Y-168976218D01*
X30892251Y-169000027D01*
X30916060Y-169023837D01*
X30939870Y-169071456D01*
X30939870Y-169190503D01*
X30916060Y-169238122D01*
X30892251Y-169261932D01*
X30439870Y-168809551D02*
X30439870Y-168476218D01*
X30939870Y-168690503D01*
D10*
D11*
X60841771Y-117878990D02*
X60675104Y-117640895D01*
X60556057Y-117878990D02*
X60556057Y-117378990D01*
X60746533Y-117378990D01*
X60794152Y-117402800D01*
X60817961Y-117426609D01*
X60841771Y-117474228D01*
X60841771Y-117545657D01*
X60817961Y-117593276D01*
X60794152Y-117617085D01*
X60746533Y-117640895D01*
X60556057Y-117640895D01*
X61294152Y-117378990D02*
X61056057Y-117378990D01*
X61032247Y-117617085D01*
X61056057Y-117593276D01*
X61103676Y-117569466D01*
X61222723Y-117569466D01*
X61270342Y-117593276D01*
X61294152Y-117617085D01*
X61317961Y-117664704D01*
X61317961Y-117783752D01*
X61294152Y-117831371D01*
X61270342Y-117855180D01*
X61222723Y-117878990D01*
X61103676Y-117878990D01*
X61056057Y-117855180D01*
X61032247Y-117831371D01*
X61746533Y-117378990D02*
X61651295Y-117378990D01*
X61603676Y-117402800D01*
X61579866Y-117426609D01*
X61532247Y-117498038D01*
X61508438Y-117593276D01*
X61508438Y-117783752D01*
X61532247Y-117831371D01*
X61556057Y-117855180D01*
X61603676Y-117878990D01*
X61698914Y-117878990D01*
X61746533Y-117855180D01*
X61770342Y-117831371D01*
X61794152Y-117783752D01*
X61794152Y-117664704D01*
X61770342Y-117617085D01*
X61746533Y-117593276D01*
X61698914Y-117569466D01*
X61603676Y-117569466D01*
X61556057Y-117593276D01*
X61532247Y-117617085D01*
X61508438Y-117664704D01*
D10*
D11*
X62557790Y-114621428D02*
X62319695Y-114788095D01*
X62557790Y-114907142D02*
X62057790Y-114907142D01*
X62057790Y-114716666D01*
X62081600Y-114669047D01*
X62105409Y-114645238D01*
X62153028Y-114621428D01*
X62224457Y-114621428D01*
X62272076Y-114645238D01*
X62295885Y-114669047D01*
X62319695Y-114716666D01*
X62319695Y-114907142D01*
X62057790Y-114169047D02*
X62057790Y-114407142D01*
X62295885Y-114430952D01*
X62272076Y-114407142D01*
X62248266Y-114359523D01*
X62248266Y-114240476D01*
X62272076Y-114192857D01*
X62295885Y-114169047D01*
X62343504Y-114145238D01*
X62462552Y-114145238D01*
X62510171Y-114169047D01*
X62533980Y-114192857D01*
X62557790Y-114240476D01*
X62557790Y-114359523D01*
X62533980Y-114407142D01*
X62510171Y-114430952D01*
X62057790Y-113692857D02*
X62057790Y-113930952D01*
X62295885Y-113954761D01*
X62272076Y-113930952D01*
X62248266Y-113883333D01*
X62248266Y-113764285D01*
X62272076Y-113716666D01*
X62295885Y-113692857D01*
X62343504Y-113669047D01*
X62462552Y-113669047D01*
X62510171Y-113692857D01*
X62533980Y-113716666D01*
X62557790Y-113764285D01*
X62557790Y-113883333D01*
X62533980Y-113930952D01*
X62510171Y-113954761D01*
D10*
D11*
X24191090Y-101146528D02*
X23952995Y-101313195D01*
X24191090Y-101432242D02*
X23691090Y-101432242D01*
X23691090Y-101241766D01*
X23714900Y-101194147D01*
X23738709Y-101170338D01*
X23786328Y-101146528D01*
X23857757Y-101146528D01*
X23905376Y-101170338D01*
X23929185Y-101194147D01*
X23952995Y-101241766D01*
X23952995Y-101432242D01*
X23857757Y-100717957D02*
X24191090Y-100717957D01*
X23667280Y-100837004D02*
X24024423Y-100956052D01*
X24024423Y-100646528D01*
X23691090Y-100503671D02*
X23691090Y-100170338D01*
X24191090Y-100384623D01*
D10*
D11*
X32660471Y-167281990D02*
X32493804Y-167043895D01*
X32374757Y-167281990D02*
X32374757Y-166781990D01*
X32565233Y-166781990D01*
X32612852Y-166805800D01*
X32636661Y-166829609D01*
X32660471Y-166877228D01*
X32660471Y-166948657D01*
X32636661Y-166996276D01*
X32612852Y-167020085D01*
X32565233Y-167043895D01*
X32374757Y-167043895D01*
X33089042Y-166948657D02*
X33089042Y-167281990D01*
X32969995Y-166758180D02*
X32850947Y-167115323D01*
X33160471Y-167115323D01*
X33565233Y-166781990D02*
X33469995Y-166781990D01*
X33422376Y-166805800D01*
X33398566Y-166829609D01*
X33350947Y-166901038D01*
X33327138Y-166996276D01*
X33327138Y-167186752D01*
X33350947Y-167234371D01*
X33374757Y-167258180D01*
X33422376Y-167281990D01*
X33517614Y-167281990D01*
X33565233Y-167258180D01*
X33589042Y-167234371D01*
X33612852Y-167186752D01*
X33612852Y-167067704D01*
X33589042Y-167020085D01*
X33565233Y-166996276D01*
X33517614Y-166972466D01*
X33422376Y-166972466D01*
X33374757Y-166996276D01*
X33350947Y-167020085D01*
X33327138Y-167067704D01*
D10*
D11*
X24458811Y-171671110D02*
X24292144Y-171433015D01*
X24173097Y-171671110D02*
X24173097Y-171171110D01*
X24363573Y-171171110D01*
X24411192Y-171194920D01*
X24435001Y-171218729D01*
X24458811Y-171266348D01*
X24458811Y-171337777D01*
X24435001Y-171385396D01*
X24411192Y-171409205D01*
X24363573Y-171433015D01*
X24173097Y-171433015D01*
X24887382Y-171337777D02*
X24887382Y-171671110D01*
X24768335Y-171147300D02*
X24649287Y-171504443D01*
X24958811Y-171504443D01*
X25411192Y-171671110D02*
X25125478Y-171671110D01*
X25268335Y-171671110D02*
X25268335Y-171171110D01*
X25220716Y-171242539D01*
X25173097Y-171290158D01*
X25125478Y-171313967D01*
D10*
D11*
X30066110Y-158522788D02*
X29828015Y-158689455D01*
X30066110Y-158808502D02*
X29566110Y-158808502D01*
X29566110Y-158618026D01*
X29589920Y-158570407D01*
X29613729Y-158546598D01*
X29661348Y-158522788D01*
X29732777Y-158522788D01*
X29780396Y-158546598D01*
X29804205Y-158570407D01*
X29828015Y-158618026D01*
X29828015Y-158808502D01*
X29732777Y-158094217D02*
X30066110Y-158094217D01*
X29542300Y-158213264D02*
X29899443Y-158332312D01*
X29899443Y-158022788D01*
X29566110Y-157737074D02*
X29566110Y-157689455D01*
X29589920Y-157641836D01*
X29613729Y-157618026D01*
X29661348Y-157594217D01*
X29756586Y-157570407D01*
X29875634Y-157570407D01*
X29970872Y-157594217D01*
X30018491Y-157618026D01*
X30042300Y-157641836D01*
X30066110Y-157689455D01*
X30066110Y-157737074D01*
X30042300Y-157784693D01*
X30018491Y-157808502D01*
X29970872Y-157832312D01*
X29875634Y-157856121D01*
X29756586Y-157856121D01*
X29661348Y-157832312D01*
X29613729Y-157808502D01*
X29589920Y-157784693D01*
X29566110Y-157737074D01*
D10*
D11*
X30040710Y-155850708D02*
X29802615Y-156017375D01*
X30040710Y-156136422D02*
X29540710Y-156136422D01*
X29540710Y-155945946D01*
X29564520Y-155898327D01*
X29588329Y-155874518D01*
X29635948Y-155850708D01*
X29707377Y-155850708D01*
X29754996Y-155874518D01*
X29778805Y-155898327D01*
X29802615Y-155945946D01*
X29802615Y-156136422D01*
X29540710Y-155684041D02*
X29540710Y-155374518D01*
X29731186Y-155541184D01*
X29731186Y-155469756D01*
X29754996Y-155422137D01*
X29778805Y-155398327D01*
X29826424Y-155374518D01*
X29945472Y-155374518D01*
X29993091Y-155398327D01*
X30016900Y-155422137D01*
X30040710Y-155469756D01*
X30040710Y-155612613D01*
X30016900Y-155660232D01*
X29993091Y-155684041D01*
X30040710Y-155136422D02*
X30040710Y-155041184D01*
X30016900Y-154993565D01*
X29993091Y-154969756D01*
X29921662Y-154922137D01*
X29826424Y-154898327D01*
X29635948Y-154898327D01*
X29588329Y-154922137D01*
X29564520Y-154945946D01*
X29540710Y-154993565D01*
X29540710Y-155088803D01*
X29564520Y-155136422D01*
X29588329Y-155160232D01*
X29635948Y-155184041D01*
X29754996Y-155184041D01*
X29802615Y-155160232D01*
X29826424Y-155136422D01*
X29850234Y-155088803D01*
X29850234Y-154993565D01*
X29826424Y-154945946D01*
X29802615Y-154922137D01*
X29754996Y-154898327D01*
D10*
D11*
X24748371Y-154015570D02*
X24581704Y-153777475D01*
X24462657Y-154015570D02*
X24462657Y-153515570D01*
X24653133Y-153515570D01*
X24700752Y-153539380D01*
X24724561Y-153563189D01*
X24748371Y-153610808D01*
X24748371Y-153682237D01*
X24724561Y-153729856D01*
X24700752Y-153753665D01*
X24653133Y-153777475D01*
X24462657Y-153777475D01*
X24915038Y-153515570D02*
X25224561Y-153515570D01*
X25057895Y-153706046D01*
X25129323Y-153706046D01*
X25176942Y-153729856D01*
X25200752Y-153753665D01*
X25224561Y-153801284D01*
X25224561Y-153920332D01*
X25200752Y-153967951D01*
X25176942Y-153991760D01*
X25129323Y-154015570D01*
X24986466Y-154015570D01*
X24938847Y-153991760D01*
X24915038Y-153967951D01*
X25653133Y-153515570D02*
X25557895Y-153515570D01*
X25510276Y-153539380D01*
X25486466Y-153563189D01*
X25438847Y-153634618D01*
X25415038Y-153729856D01*
X25415038Y-153920332D01*
X25438847Y-153967951D01*
X25462657Y-153991760D01*
X25510276Y-154015570D01*
X25605514Y-154015570D01*
X25653133Y-153991760D01*
X25676942Y-153967951D01*
X25700752Y-153920332D01*
X25700752Y-153801284D01*
X25676942Y-153753665D01*
X25653133Y-153729856D01*
X25605514Y-153706046D01*
X25510276Y-153706046D01*
X25462657Y-153729856D01*
X25438847Y-153753665D01*
X25415038Y-153801284D01*
D10*
D11*
X51189771Y-95679390D02*
X51023104Y-95441295D01*
X50904057Y-95679390D02*
X50904057Y-95179390D01*
X51094533Y-95179390D01*
X51142152Y-95203200D01*
X51165961Y-95227009D01*
X51189771Y-95274628D01*
X51189771Y-95346057D01*
X51165961Y-95393676D01*
X51142152Y-95417485D01*
X51094533Y-95441295D01*
X50904057Y-95441295D01*
X51380247Y-95227009D02*
X51404057Y-95203200D01*
X51451676Y-95179390D01*
X51570723Y-95179390D01*
X51618342Y-95203200D01*
X51642152Y-95227009D01*
X51665961Y-95274628D01*
X51665961Y-95322247D01*
X51642152Y-95393676D01*
X51356438Y-95679390D01*
X51665961Y-95679390D01*
X51904057Y-95679390D02*
X51999295Y-95679390D01*
X52046914Y-95655580D01*
X52070723Y-95631771D01*
X52118342Y-95560342D01*
X52142152Y-95465104D01*
X52142152Y-95274628D01*
X52118342Y-95227009D01*
X52094533Y-95203200D01*
X52046914Y-95179390D01*
X51951676Y-95179390D01*
X51904057Y-95203200D01*
X51880247Y-95227009D01*
X51856438Y-95274628D01*
X51856438Y-95393676D01*
X51880247Y-95441295D01*
X51904057Y-95465104D01*
X51951676Y-95488914D01*
X52046914Y-95488914D01*
X52094533Y-95465104D01*
X52118342Y-95441295D01*
X52142152Y-95393676D01*
D10*
D11*
X57465090Y-96409628D02*
X57226995Y-96576295D01*
X57465090Y-96695342D02*
X56965090Y-96695342D01*
X56965090Y-96504866D01*
X56988900Y-96457247D01*
X57012709Y-96433438D01*
X57060328Y-96409628D01*
X57131757Y-96409628D01*
X57179376Y-96433438D01*
X57203185Y-96457247D01*
X57226995Y-96504866D01*
X57226995Y-96695342D01*
X57012709Y-96219152D02*
X56988900Y-96195342D01*
X56965090Y-96147723D01*
X56965090Y-96028676D01*
X56988900Y-95981057D01*
X57012709Y-95957247D01*
X57060328Y-95933438D01*
X57107947Y-95933438D01*
X57179376Y-95957247D01*
X57465090Y-96242961D01*
X57465090Y-95933438D01*
X57179376Y-95647723D02*
X57155566Y-95695342D01*
X57131757Y-95719152D01*
X57084138Y-95742961D01*
X57060328Y-95742961D01*
X57012709Y-95719152D01*
X56988900Y-95695342D01*
X56965090Y-95647723D01*
X56965090Y-95552485D01*
X56988900Y-95504866D01*
X57012709Y-95481057D01*
X57060328Y-95457247D01*
X57084138Y-95457247D01*
X57131757Y-95481057D01*
X57155566Y-95504866D01*
X57179376Y-95552485D01*
X57179376Y-95647723D01*
X57203185Y-95695342D01*
X57226995Y-95719152D01*
X57274614Y-95742961D01*
X57369852Y-95742961D01*
X57417471Y-95719152D01*
X57441280Y-95695342D01*
X57465090Y-95647723D01*
X57465090Y-95552485D01*
X57441280Y-95504866D01*
X57417471Y-95481057D01*
X57369852Y-95457247D01*
X57274614Y-95457247D01*
X57226995Y-95481057D01*
X57203185Y-95504866D01*
X57179376Y-95552485D01*
D10*
D11*
X53831571Y-99641790D02*
X53664904Y-99403695D01*
X53545857Y-99641790D02*
X53545857Y-99141790D01*
X53736333Y-99141790D01*
X53783952Y-99165600D01*
X53807761Y-99189409D01*
X53831571Y-99237028D01*
X53831571Y-99308457D01*
X53807761Y-99356076D01*
X53783952Y-99379885D01*
X53736333Y-99403695D01*
X53545857Y-99403695D01*
X54022047Y-99189409D02*
X54045857Y-99165600D01*
X54093476Y-99141790D01*
X54212523Y-99141790D01*
X54260142Y-99165600D01*
X54283952Y-99189409D01*
X54307761Y-99237028D01*
X54307761Y-99284647D01*
X54283952Y-99356076D01*
X53998238Y-99641790D01*
X54307761Y-99641790D01*
X54474428Y-99141790D02*
X54807761Y-99141790D01*
X54593476Y-99641790D01*
D10*
D11*
X52994690Y-90097728D02*
X52756595Y-90264395D01*
X52994690Y-90383442D02*
X52494690Y-90383442D01*
X52494690Y-90192966D01*
X52518500Y-90145347D01*
X52542309Y-90121538D01*
X52589928Y-90097728D01*
X52661357Y-90097728D01*
X52708976Y-90121538D01*
X52732785Y-90145347D01*
X52756595Y-90192966D01*
X52756595Y-90383442D01*
X52542309Y-89907252D02*
X52518500Y-89883442D01*
X52494690Y-89835823D01*
X52494690Y-89716776D01*
X52518500Y-89669157D01*
X52542309Y-89645347D01*
X52589928Y-89621538D01*
X52637547Y-89621538D01*
X52708976Y-89645347D01*
X52994690Y-89931061D01*
X52994690Y-89621538D01*
X52494690Y-89169157D02*
X52494690Y-89407252D01*
X52732785Y-89431061D01*
X52708976Y-89407252D01*
X52685166Y-89359633D01*
X52685166Y-89240585D01*
X52708976Y-89192966D01*
X52732785Y-89169157D01*
X52780404Y-89145347D01*
X52899452Y-89145347D01*
X52947071Y-89169157D01*
X52970880Y-89192966D01*
X52994690Y-89240585D01*
X52994690Y-89359633D01*
X52970880Y-89407252D01*
X52947071Y-89431061D01*
D10*
D11*
X54834671Y-91742390D02*
X54668004Y-91504295D01*
X54548957Y-91742390D02*
X54548957Y-91242390D01*
X54739433Y-91242390D01*
X54787052Y-91266200D01*
X54810861Y-91290009D01*
X54834671Y-91337628D01*
X54834671Y-91409057D01*
X54810861Y-91456676D01*
X54787052Y-91480485D01*
X54739433Y-91504295D01*
X54548957Y-91504295D01*
X55025147Y-91290009D02*
X55048957Y-91266200D01*
X55096576Y-91242390D01*
X55215623Y-91242390D01*
X55263242Y-91266200D01*
X55287052Y-91290009D01*
X55310861Y-91337628D01*
X55310861Y-91385247D01*
X55287052Y-91456676D01*
X55001338Y-91742390D01*
X55310861Y-91742390D01*
X55739433Y-91409057D02*
X55739433Y-91742390D01*
X55620385Y-91218580D02*
X55501338Y-91575723D01*
X55810861Y-91575723D01*
D10*
D11*
X58661430Y-84568148D02*
X58423335Y-84734815D01*
X58661430Y-84853862D02*
X58161430Y-84853862D01*
X58161430Y-84663386D01*
X58185240Y-84615767D01*
X58209049Y-84591958D01*
X58256668Y-84568148D01*
X58328097Y-84568148D01*
X58375716Y-84591958D01*
X58399525Y-84615767D01*
X58423335Y-84663386D01*
X58423335Y-84853862D01*
X58209049Y-84377672D02*
X58185240Y-84353862D01*
X58161430Y-84306243D01*
X58161430Y-84187196D01*
X58185240Y-84139577D01*
X58209049Y-84115767D01*
X58256668Y-84091958D01*
X58304287Y-84091958D01*
X58375716Y-84115767D01*
X58661430Y-84401481D01*
X58661430Y-84091958D01*
X58161430Y-83925291D02*
X58161430Y-83615767D01*
X58351906Y-83782434D01*
X58351906Y-83711005D01*
X58375716Y-83663386D01*
X58399525Y-83639577D01*
X58447144Y-83615767D01*
X58566192Y-83615767D01*
X58613811Y-83639577D01*
X58637620Y-83663386D01*
X58661430Y-83711005D01*
X58661430Y-83853862D01*
X58637620Y-83901481D01*
X58613811Y-83925291D01*
D10*
D11*
X32729051Y-85473670D02*
X32562384Y-85235575D01*
X32443337Y-85473670D02*
X32443337Y-84973670D01*
X32633813Y-84973670D01*
X32681432Y-84997480D01*
X32705241Y-85021289D01*
X32729051Y-85068908D01*
X32729051Y-85140337D01*
X32705241Y-85187956D01*
X32681432Y-85211765D01*
X32633813Y-85235575D01*
X32443337Y-85235575D01*
X33205241Y-85473670D02*
X32919527Y-85473670D01*
X33062384Y-85473670D02*
X33062384Y-84973670D01*
X33014765Y-85045099D01*
X32967146Y-85092718D01*
X32919527Y-85116527D01*
X33490956Y-85187956D02*
X33443337Y-85164146D01*
X33419527Y-85140337D01*
X33395718Y-85092718D01*
X33395718Y-85068908D01*
X33419527Y-85021289D01*
X33443337Y-84997480D01*
X33490956Y-84973670D01*
X33586194Y-84973670D01*
X33633813Y-84997480D01*
X33657622Y-85021289D01*
X33681432Y-85068908D01*
X33681432Y-85092718D01*
X33657622Y-85140337D01*
X33633813Y-85164146D01*
X33586194Y-85187956D01*
X33490956Y-85187956D01*
X33443337Y-85211765D01*
X33419527Y-85235575D01*
X33395718Y-85283194D01*
X33395718Y-85378432D01*
X33419527Y-85426051D01*
X33443337Y-85449860D01*
X33490956Y-85473670D01*
X33586194Y-85473670D01*
X33633813Y-85449860D01*
X33657622Y-85426051D01*
X33681432Y-85378432D01*
X33681432Y-85283194D01*
X33657622Y-85235575D01*
X33633813Y-85211765D01*
X33586194Y-85187956D01*
D10*
D11*
X29442391Y-91186130D02*
X29275724Y-90948035D01*
X29156677Y-91186130D02*
X29156677Y-90686130D01*
X29347153Y-90686130D01*
X29394772Y-90709940D01*
X29418581Y-90733749D01*
X29442391Y-90781368D01*
X29442391Y-90852797D01*
X29418581Y-90900416D01*
X29394772Y-90924225D01*
X29347153Y-90948035D01*
X29156677Y-90948035D01*
X29918581Y-91186130D02*
X29632867Y-91186130D01*
X29775724Y-91186130D02*
X29775724Y-90686130D01*
X29728105Y-90757559D01*
X29680486Y-90805178D01*
X29632867Y-90828987D01*
X30347153Y-90686130D02*
X30251915Y-90686130D01*
X30204296Y-90709940D01*
X30180486Y-90733749D01*
X30132867Y-90805178D01*
X30109058Y-90900416D01*
X30109058Y-91090892D01*
X30132867Y-91138511D01*
X30156677Y-91162320D01*
X30204296Y-91186130D01*
X30299534Y-91186130D01*
X30347153Y-91162320D01*
X30370962Y-91138511D01*
X30394772Y-91090892D01*
X30394772Y-90971844D01*
X30370962Y-90924225D01*
X30347153Y-90900416D01*
X30299534Y-90876606D01*
X30204296Y-90876606D01*
X30156677Y-90900416D01*
X30132867Y-90924225D01*
X30109058Y-90971844D01*
D10*
D11*
X49329309Y-142283666D02*
X49567404Y-142117000D01*
X49329309Y-141997952D02*
X49829309Y-141997952D01*
X49829309Y-142188428D01*
X49805500Y-142236047D01*
X49781690Y-142259857D01*
X49734071Y-142283666D01*
X49662642Y-142283666D01*
X49615023Y-142259857D01*
X49591214Y-142236047D01*
X49567404Y-142188428D01*
X49567404Y-141997952D01*
X49829309Y-142736047D02*
X49829309Y-142497952D01*
X49591214Y-142474142D01*
X49615023Y-142497952D01*
X49638833Y-142545571D01*
X49638833Y-142664619D01*
X49615023Y-142712238D01*
X49591214Y-142736047D01*
X49543595Y-142759857D01*
X49424547Y-142759857D01*
X49376928Y-142736047D01*
X49353119Y-142712238D01*
X49329309Y-142664619D01*
X49329309Y-142545571D01*
X49353119Y-142497952D01*
X49376928Y-142474142D01*
D10*
D11*
X49380209Y-143693366D02*
X49618304Y-143526700D01*
X49380209Y-143407652D02*
X49880209Y-143407652D01*
X49880209Y-143598128D01*
X49856400Y-143645747D01*
X49832590Y-143669557D01*
X49784971Y-143693366D01*
X49713542Y-143693366D01*
X49665923Y-143669557D01*
X49642114Y-143645747D01*
X49618304Y-143598128D01*
X49618304Y-143407652D01*
X49713542Y-144121938D02*
X49380209Y-144121938D01*
X49904019Y-144002890D02*
X49546876Y-143883842D01*
X49546876Y-144193366D01*
D10*
D11*
X40650290Y-154261333D02*
X40412195Y-154428000D01*
X40650290Y-154547047D02*
X40150290Y-154547047D01*
X40150290Y-154356571D01*
X40174100Y-154308952D01*
X40197909Y-154285142D01*
X40245528Y-154261333D01*
X40316957Y-154261333D01*
X40364576Y-154285142D01*
X40388385Y-154308952D01*
X40412195Y-154356571D01*
X40412195Y-154547047D01*
X40150290Y-154094666D02*
X40150290Y-153785142D01*
X40340766Y-153951809D01*
X40340766Y-153880380D01*
X40364576Y-153832761D01*
X40388385Y-153808952D01*
X40436004Y-153785142D01*
X40555052Y-153785142D01*
X40602671Y-153808952D01*
X40626480Y-153832761D01*
X40650290Y-153880380D01*
X40650290Y-154023238D01*
X40626480Y-154070857D01*
X40602671Y-154094666D01*
D10*
D11*
X55822066Y-138516490D02*
X55655400Y-138278395D01*
X55536352Y-138516490D02*
X55536352Y-138016490D01*
X55726828Y-138016490D01*
X55774447Y-138040300D01*
X55798257Y-138064109D01*
X55822066Y-138111728D01*
X55822066Y-138183157D01*
X55798257Y-138230776D01*
X55774447Y-138254585D01*
X55726828Y-138278395D01*
X55536352Y-138278395D01*
X56298257Y-138516490D02*
X56012542Y-138516490D01*
X56155400Y-138516490D02*
X56155400Y-138016490D01*
X56107780Y-138087919D01*
X56060161Y-138135538D01*
X56012542Y-138159347D01*
D10*
D11*
X52102509Y-152676219D02*
X52078700Y-152723838D01*
X52031080Y-152771457D01*
X51959652Y-152842885D01*
X51935842Y-152890504D01*
X51935842Y-152938123D01*
X52054890Y-152914314D02*
X52031080Y-152961933D01*
X51983461Y-153009552D01*
X51888223Y-153033361D01*
X51721557Y-153033361D01*
X51626319Y-153009552D01*
X51578700Y-152961933D01*
X51554890Y-152914314D01*
X51554890Y-152819076D01*
X51578700Y-152771457D01*
X51626319Y-152723838D01*
X51721557Y-152700028D01*
X51888223Y-152700028D01*
X51983461Y-152723838D01*
X52031080Y-152771457D01*
X52054890Y-152819076D01*
X52054890Y-152914314D01*
X52054890Y-152223838D02*
X52054890Y-152509552D01*
X52054890Y-152366695D02*
X51554890Y-152366695D01*
X51626319Y-152414314D01*
X51673938Y-152461933D01*
X51697747Y-152509552D01*
D10*
D11*
X54354611Y-79311630D02*
X54116516Y-79311630D01*
X54116516Y-78811630D01*
X54783182Y-79311630D02*
X54497468Y-79311630D01*
X54640325Y-79311630D02*
X54640325Y-78811630D01*
X54592706Y-78883059D01*
X54545087Y-78930678D01*
X54497468Y-78954487D01*
X54949849Y-78811630D02*
X55259373Y-78811630D01*
X55092706Y-79002106D01*
X55164135Y-79002106D01*
X55211754Y-79025916D01*
X55235563Y-79049725D01*
X55259373Y-79097344D01*
X55259373Y-79216392D01*
X55235563Y-79264011D01*
X55211754Y-79287820D01*
X55164135Y-79311630D01*
X55021278Y-79311630D01*
X54973659Y-79287820D01*
X54949849Y-79264011D01*
D10*
D11*
X47062271Y-78417570D02*
X46824176Y-78417570D01*
X46824176Y-77917570D01*
X47490842Y-78417570D02*
X47205128Y-78417570D01*
X47347985Y-78417570D02*
X47347985Y-77917570D01*
X47300366Y-77988999D01*
X47252747Y-78036618D01*
X47205128Y-78060427D01*
X47967033Y-78417570D02*
X47681319Y-78417570D01*
X47824176Y-78417570D02*
X47824176Y-77917570D01*
X47776557Y-77988999D01*
X47728938Y-78036618D01*
X47681319Y-78060427D01*
D10*
D11*
X37691190Y-80614033D02*
X37691190Y-80852128D01*
X37191190Y-80852128D01*
X37691190Y-80423557D02*
X37691190Y-80328319D01*
X37667380Y-80280700D01*
X37643571Y-80256890D01*
X37572142Y-80209271D01*
X37476904Y-80185461D01*
X37286428Y-80185461D01*
X37238809Y-80209271D01*
X37215000Y-80233080D01*
X37191190Y-80280700D01*
X37191190Y-80375938D01*
X37215000Y-80423557D01*
X37238809Y-80447366D01*
X37286428Y-80471176D01*
X37405476Y-80471176D01*
X37453095Y-80447366D01*
X37476904Y-80423557D01*
X37500714Y-80375938D01*
X37500714Y-80280700D01*
X37476904Y-80233080D01*
X37453095Y-80209271D01*
X37405476Y-80185461D01*
D10*
D11*
X31443146Y-80520670D02*
X31205051Y-80520670D01*
X31205051Y-80020670D01*
X31562194Y-80020670D02*
X31895527Y-80020670D01*
X31681241Y-80520670D01*
D10*
D11*
X22263586Y-85532090D02*
X22025491Y-85532090D01*
X22025491Y-85032090D01*
X22668348Y-85032090D02*
X22430253Y-85032090D01*
X22406443Y-85270185D01*
X22430253Y-85246376D01*
X22477872Y-85222566D01*
X22596920Y-85222566D01*
X22644539Y-85246376D01*
X22668348Y-85270185D01*
X22692158Y-85317804D01*
X22692158Y-85436852D01*
X22668348Y-85484471D01*
X22644539Y-85508280D01*
X22596920Y-85532090D01*
X22477872Y-85532090D01*
X22430253Y-85508280D01*
X22406443Y-85484471D01*
D10*
D11*
X24310470Y-88383893D02*
X24310470Y-88621988D01*
X23810470Y-88621988D01*
X23858089Y-88241036D02*
X23834280Y-88217226D01*
X23810470Y-88169607D01*
X23810470Y-88050560D01*
X23834280Y-88002940D01*
X23858089Y-87979131D01*
X23905708Y-87955321D01*
X23953327Y-87955321D01*
X24024756Y-87979131D01*
X24310470Y-88264845D01*
X24310470Y-87955321D01*
D10*
D11*
X49549790Y-71794666D02*
X49906933Y-71794666D01*
X49978361Y-71818476D01*
X50025980Y-71866095D01*
X50049790Y-71937523D01*
X50049790Y-71985142D01*
X49764076Y-71485142D02*
X49740266Y-71532761D01*
X49716457Y-71556571D01*
X49668838Y-71580380D01*
X49645028Y-71580380D01*
X49597409Y-71556571D01*
X49573600Y-71532761D01*
X49549790Y-71485142D01*
X49549790Y-71389904D01*
X49573600Y-71342285D01*
X49597409Y-71318476D01*
X49645028Y-71294666D01*
X49668838Y-71294666D01*
X49716457Y-71318476D01*
X49740266Y-71342285D01*
X49764076Y-71389904D01*
X49764076Y-71485142D01*
X49787885Y-71532761D01*
X49811695Y-71556571D01*
X49859314Y-71580380D01*
X49954552Y-71580380D01*
X50002171Y-71556571D01*
X50025980Y-71532761D01*
X50049790Y-71485142D01*
X50049790Y-71389904D01*
X50025980Y-71342285D01*
X50002171Y-71318476D01*
X49954552Y-71294666D01*
X49859314Y-71294666D01*
X49811695Y-71318476D01*
X49787885Y-71342285D01*
X49764076Y-71389904D01*
D10*
D11*
X61419290Y-148889466D02*
X61776433Y-148889466D01*
X61847861Y-148913276D01*
X61895480Y-148960895D01*
X61919290Y-149032323D01*
X61919290Y-149079942D01*
X61419290Y-148698990D02*
X61419290Y-148389466D01*
X61609766Y-148556133D01*
X61609766Y-148484704D01*
X61633576Y-148437085D01*
X61657385Y-148413276D01*
X61705004Y-148389466D01*
X61824052Y-148389466D01*
X61871671Y-148413276D01*
X61895480Y-148437085D01*
X61919290Y-148484704D01*
X61919290Y-148627561D01*
X61895480Y-148675180D01*
X61871671Y-148698990D01*
D10*
D11*
X59405567Y-71148070D02*
X59405567Y-70648070D01*
X59405567Y-70886165D02*
X59691281Y-70886165D01*
X59691281Y-71148070D02*
X59691281Y-70648070D01*
X59881758Y-70648070D02*
X60191281Y-70648070D01*
X60024615Y-70838546D01*
X60096043Y-70838546D01*
X60143662Y-70862356D01*
X60167472Y-70886165D01*
X60191281Y-70933784D01*
X60191281Y-71052832D01*
X60167472Y-71100451D01*
X60143662Y-71124260D01*
X60096043Y-71148070D01*
X59953186Y-71148070D01*
X59905567Y-71124260D01*
X59881758Y-71100451D01*
D10*
D11*
X36870533Y-158206285D02*
X36703866Y-158206285D01*
X36703866Y-158468190D02*
X36703866Y-157968190D01*
X36941961Y-157968190D01*
X37299104Y-158206285D02*
X37370533Y-158230095D01*
X37394342Y-158253904D01*
X37418152Y-158301523D01*
X37418152Y-158372952D01*
X37394342Y-158420571D01*
X37370533Y-158444380D01*
X37322914Y-158468190D01*
X37132438Y-158468190D01*
X37132438Y-157968190D01*
X37299104Y-157968190D01*
X37346723Y-157992000D01*
X37370533Y-158015809D01*
X37394342Y-158063428D01*
X37394342Y-158111047D01*
X37370533Y-158158666D01*
X37346723Y-158182476D01*
X37299104Y-158206285D01*
X37132438Y-158206285D01*
X37608628Y-158015809D02*
X37632438Y-157992000D01*
X37680057Y-157968190D01*
X37799104Y-157968190D01*
X37846723Y-157992000D01*
X37870533Y-158015809D01*
X37894342Y-158063428D01*
X37894342Y-158111047D01*
X37870533Y-158182476D01*
X37584819Y-158468190D01*
X37894342Y-158468190D01*
D10*
D11*
X38292933Y-158282485D02*
X38126266Y-158282485D01*
X38126266Y-158544390D02*
X38126266Y-158044390D01*
X38364361Y-158044390D01*
X38721504Y-158282485D02*
X38792933Y-158306295D01*
X38816742Y-158330104D01*
X38840552Y-158377723D01*
X38840552Y-158449152D01*
X38816742Y-158496771D01*
X38792933Y-158520580D01*
X38745314Y-158544390D01*
X38554838Y-158544390D01*
X38554838Y-158044390D01*
X38721504Y-158044390D01*
X38769123Y-158068200D01*
X38792933Y-158092009D01*
X38816742Y-158139628D01*
X38816742Y-158187247D01*
X38792933Y-158234866D01*
X38769123Y-158258676D01*
X38721504Y-158282485D01*
X38554838Y-158282485D01*
X39316742Y-158544390D02*
X39031028Y-158544390D01*
X39173885Y-158544390D02*
X39173885Y-158044390D01*
X39126266Y-158115819D01*
X39078647Y-158163438D01*
X39031028Y-158187247D01*
D10*
D11*
X62445052Y-75300990D02*
X62445052Y-74800990D01*
X62564100Y-74800990D01*
X62635528Y-74824800D01*
X62683147Y-74872419D01*
X62706957Y-74920038D01*
X62730766Y-75015276D01*
X62730766Y-75086704D01*
X62706957Y-75181942D01*
X62683147Y-75229561D01*
X62635528Y-75277180D01*
X62564100Y-75300990D01*
X62445052Y-75300990D01*
X63159338Y-74967657D02*
X63159338Y-75300990D01*
X63040290Y-74777180D02*
X62921242Y-75134323D01*
X63230766Y-75134323D01*
D10*
D11*
X62724552Y-79524990D02*
X62724552Y-79024990D01*
X62843600Y-79024990D01*
X62915028Y-79048800D01*
X62962647Y-79096419D01*
X62986457Y-79144038D01*
X63010266Y-79239276D01*
X63010266Y-79310704D01*
X62986457Y-79405942D01*
X62962647Y-79453561D01*
X62915028Y-79501180D01*
X62843600Y-79524990D01*
X62724552Y-79524990D01*
X63176933Y-79024990D02*
X63486457Y-79024990D01*
X63319790Y-79215466D01*
X63391219Y-79215466D01*
X63438838Y-79239276D01*
X63462647Y-79263085D01*
X63486457Y-79310704D01*
X63486457Y-79429752D01*
X63462647Y-79477371D01*
X63438838Y-79501180D01*
X63391219Y-79524990D01*
X63248361Y-79524990D01*
X63200742Y-79501180D01*
X63176933Y-79477371D01*
D10*
D11*
X54012352Y-90789890D02*
X54012352Y-90289890D01*
X54131400Y-90289890D01*
X54202828Y-90313700D01*
X54250447Y-90361319D01*
X54274257Y-90408938D01*
X54298066Y-90504176D01*
X54298066Y-90575604D01*
X54274257Y-90670842D01*
X54250447Y-90718461D01*
X54202828Y-90766080D01*
X54131400Y-90789890D01*
X54012352Y-90789890D01*
X54488542Y-90337509D02*
X54512352Y-90313700D01*
X54559971Y-90289890D01*
X54679019Y-90289890D01*
X54726638Y-90313700D01*
X54750447Y-90337509D01*
X54774257Y-90385128D01*
X54774257Y-90432747D01*
X54750447Y-90504176D01*
X54464733Y-90789890D01*
X54774257Y-90789890D01*
D10*
D11*
X55045371Y-116275728D02*
X55069180Y-116299538D01*
X55092990Y-116370966D01*
X55092990Y-116418585D01*
X55069180Y-116490014D01*
X55021561Y-116537633D01*
X54973942Y-116561442D01*
X54878704Y-116585252D01*
X54807276Y-116585252D01*
X54712038Y-116561442D01*
X54664419Y-116537633D01*
X54616800Y-116490014D01*
X54592990Y-116418585D01*
X54592990Y-116370966D01*
X54616800Y-116299538D01*
X54640609Y-116275728D01*
X55092990Y-116037633D02*
X55092990Y-115942395D01*
X55069180Y-115894776D01*
X55045371Y-115870966D01*
X54973942Y-115823347D01*
X54878704Y-115799538D01*
X54688228Y-115799538D01*
X54640609Y-115823347D01*
X54616800Y-115847157D01*
X54592990Y-115894776D01*
X54592990Y-115990014D01*
X54616800Y-116037633D01*
X54640609Y-116061442D01*
X54688228Y-116085252D01*
X54807276Y-116085252D01*
X54854895Y-116061442D01*
X54878704Y-116037633D01*
X54902514Y-115990014D01*
X54902514Y-115894776D01*
X54878704Y-115847157D01*
X54854895Y-115823347D01*
X54807276Y-115799538D01*
X54592990Y-115632871D02*
X54592990Y-115323347D01*
X54783466Y-115490014D01*
X54783466Y-115418585D01*
X54807276Y-115370966D01*
X54831085Y-115347157D01*
X54878704Y-115323347D01*
X54997752Y-115323347D01*
X55045371Y-115347157D01*
X55069180Y-115370966D01*
X55092990Y-115418585D01*
X55092990Y-115561442D01*
X55069180Y-115609061D01*
X55045371Y-115632871D01*
D10*
D11*
X55042571Y-113402228D02*
X55066380Y-113426038D01*
X55090190Y-113497466D01*
X55090190Y-113545085D01*
X55066380Y-113616514D01*
X55018761Y-113664133D01*
X54971142Y-113687942D01*
X54875904Y-113711752D01*
X54804476Y-113711752D01*
X54709238Y-113687942D01*
X54661619Y-113664133D01*
X54614000Y-113616514D01*
X54590190Y-113545085D01*
X54590190Y-113497466D01*
X54614000Y-113426038D01*
X54637809Y-113402228D01*
X55090190Y-113164133D02*
X55090190Y-113068895D01*
X55066380Y-113021276D01*
X55042571Y-112997466D01*
X54971142Y-112949847D01*
X54875904Y-112926038D01*
X54685428Y-112926038D01*
X54637809Y-112949847D01*
X54614000Y-112973657D01*
X54590190Y-113021276D01*
X54590190Y-113116514D01*
X54614000Y-113164133D01*
X54637809Y-113187942D01*
X54685428Y-113211752D01*
X54804476Y-113211752D01*
X54852095Y-113187942D01*
X54875904Y-113164133D01*
X54899714Y-113116514D01*
X54899714Y-113021276D01*
X54875904Y-112973657D01*
X54852095Y-112949847D01*
X54804476Y-112926038D01*
X54637809Y-112735561D02*
X54614000Y-112711752D01*
X54590190Y-112664133D01*
X54590190Y-112545085D01*
X54614000Y-112497466D01*
X54637809Y-112473657D01*
X54685428Y-112449847D01*
X54733047Y-112449847D01*
X54804476Y-112473657D01*
X55090190Y-112759371D01*
X55090190Y-112449847D01*
D10*
D11*
X37565211Y-170394131D02*
X37541401Y-170417940D01*
X37469973Y-170441750D01*
X37422354Y-170441750D01*
X37350925Y-170417940D01*
X37303306Y-170370321D01*
X37279497Y-170322702D01*
X37255687Y-170227464D01*
X37255687Y-170156036D01*
X37279497Y-170060798D01*
X37303306Y-170013179D01*
X37350925Y-169965560D01*
X37422354Y-169941750D01*
X37469973Y-169941750D01*
X37541401Y-169965560D01*
X37565211Y-169989369D01*
X37850925Y-170156036D02*
X37803306Y-170132226D01*
X37779497Y-170108417D01*
X37755687Y-170060798D01*
X37755687Y-170036988D01*
X37779497Y-169989369D01*
X37803306Y-169965560D01*
X37850925Y-169941750D01*
X37946163Y-169941750D01*
X37993782Y-169965560D01*
X38017592Y-169989369D01*
X38041401Y-170036988D01*
X38041401Y-170060798D01*
X38017592Y-170108417D01*
X37993782Y-170132226D01*
X37946163Y-170156036D01*
X37850925Y-170156036D01*
X37803306Y-170179845D01*
X37779497Y-170203655D01*
X37755687Y-170251274D01*
X37755687Y-170346512D01*
X37779497Y-170394131D01*
X37803306Y-170417940D01*
X37850925Y-170441750D01*
X37946163Y-170441750D01*
X37993782Y-170417940D01*
X38017592Y-170394131D01*
X38041401Y-170346512D01*
X38041401Y-170251274D01*
X38017592Y-170203655D01*
X37993782Y-170179845D01*
X37946163Y-170156036D01*
X38279497Y-170441750D02*
X38374735Y-170441750D01*
X38422354Y-170417940D01*
X38446163Y-170394131D01*
X38493782Y-170322702D01*
X38517592Y-170227464D01*
X38517592Y-170036988D01*
X38493782Y-169989369D01*
X38469973Y-169965560D01*
X38422354Y-169941750D01*
X38327116Y-169941750D01*
X38279497Y-169965560D01*
X38255687Y-169989369D01*
X38231878Y-170036988D01*
X38231878Y-170156036D01*
X38255687Y-170203655D01*
X38279497Y-170227464D01*
X38327116Y-170251274D01*
X38422354Y-170251274D01*
X38469973Y-170227464D01*
X38493782Y-170203655D01*
X38517592Y-170156036D01*
D10*
D11*
X35128971Y-170095028D02*
X35152780Y-170118838D01*
X35176590Y-170190266D01*
X35176590Y-170237885D01*
X35152780Y-170309314D01*
X35105161Y-170356933D01*
X35057542Y-170380742D01*
X34962304Y-170404552D01*
X34890876Y-170404552D01*
X34795638Y-170380742D01*
X34748019Y-170356933D01*
X34700400Y-170309314D01*
X34676590Y-170237885D01*
X34676590Y-170190266D01*
X34700400Y-170118838D01*
X34724209Y-170095028D01*
X34890876Y-169809314D02*
X34867066Y-169856933D01*
X34843257Y-169880742D01*
X34795638Y-169904552D01*
X34771828Y-169904552D01*
X34724209Y-169880742D01*
X34700400Y-169856933D01*
X34676590Y-169809314D01*
X34676590Y-169714076D01*
X34700400Y-169666457D01*
X34724209Y-169642647D01*
X34771828Y-169618838D01*
X34795638Y-169618838D01*
X34843257Y-169642647D01*
X34867066Y-169666457D01*
X34890876Y-169714076D01*
X34890876Y-169809314D01*
X34914685Y-169856933D01*
X34938495Y-169880742D01*
X34986114Y-169904552D01*
X35081352Y-169904552D01*
X35128971Y-169880742D01*
X35152780Y-169856933D01*
X35176590Y-169809314D01*
X35176590Y-169714076D01*
X35152780Y-169666457D01*
X35128971Y-169642647D01*
X35081352Y-169618838D01*
X34986114Y-169618838D01*
X34938495Y-169642647D01*
X34914685Y-169666457D01*
X34890876Y-169714076D01*
X34890876Y-169333123D02*
X34867066Y-169380742D01*
X34843257Y-169404552D01*
X34795638Y-169428361D01*
X34771828Y-169428361D01*
X34724209Y-169404552D01*
X34700400Y-169380742D01*
X34676590Y-169333123D01*
X34676590Y-169237885D01*
X34700400Y-169190266D01*
X34724209Y-169166457D01*
X34771828Y-169142647D01*
X34795638Y-169142647D01*
X34843257Y-169166457D01*
X34867066Y-169190266D01*
X34890876Y-169237885D01*
X34890876Y-169333123D01*
X34914685Y-169380742D01*
X34938495Y-169404552D01*
X34986114Y-169428361D01*
X35081352Y-169428361D01*
X35128971Y-169404552D01*
X35152780Y-169380742D01*
X35176590Y-169333123D01*
X35176590Y-169237885D01*
X35152780Y-169190266D01*
X35128971Y-169166457D01*
X35081352Y-169142647D01*
X34986114Y-169142647D01*
X34938495Y-169166457D01*
X34914685Y-169190266D01*
X34890876Y-169237885D01*
D10*
D11*
X30290651Y-172593771D02*
X30266841Y-172617580D01*
X30195413Y-172641390D01*
X30147794Y-172641390D01*
X30076365Y-172617580D01*
X30028746Y-172569961D01*
X30004937Y-172522342D01*
X29981127Y-172427104D01*
X29981127Y-172355676D01*
X30004937Y-172260438D01*
X30028746Y-172212819D01*
X30076365Y-172165200D01*
X30147794Y-172141390D01*
X30195413Y-172141390D01*
X30266841Y-172165200D01*
X30290651Y-172189009D01*
X30576365Y-172355676D02*
X30528746Y-172331866D01*
X30504937Y-172308057D01*
X30481127Y-172260438D01*
X30481127Y-172236628D01*
X30504937Y-172189009D01*
X30528746Y-172165200D01*
X30576365Y-172141390D01*
X30671603Y-172141390D01*
X30719222Y-172165200D01*
X30743032Y-172189009D01*
X30766841Y-172236628D01*
X30766841Y-172260438D01*
X30743032Y-172308057D01*
X30719222Y-172331866D01*
X30671603Y-172355676D01*
X30576365Y-172355676D01*
X30528746Y-172379485D01*
X30504937Y-172403295D01*
X30481127Y-172450914D01*
X30481127Y-172546152D01*
X30504937Y-172593771D01*
X30528746Y-172617580D01*
X30576365Y-172641390D01*
X30671603Y-172641390D01*
X30719222Y-172617580D01*
X30743032Y-172593771D01*
X30766841Y-172546152D01*
X30766841Y-172450914D01*
X30743032Y-172403295D01*
X30719222Y-172379485D01*
X30671603Y-172355676D01*
X30933508Y-172141390D02*
X31243032Y-172141390D01*
X31076365Y-172331866D01*
X31147794Y-172331866D01*
X31195413Y-172355676D01*
X31219222Y-172379485D01*
X31243032Y-172427104D01*
X31243032Y-172546152D01*
X31219222Y-172593771D01*
X31195413Y-172617580D01*
X31147794Y-172641390D01*
X31004937Y-172641390D01*
X30957318Y-172617580D01*
X30933508Y-172593771D01*
D10*
D11*
X27374351Y-169541308D02*
X27398160Y-169565118D01*
X27421970Y-169636546D01*
X27421970Y-169684165D01*
X27398160Y-169755594D01*
X27350541Y-169803213D01*
X27302922Y-169827022D01*
X27207684Y-169850832D01*
X27136256Y-169850832D01*
X27041018Y-169827022D01*
X26993399Y-169803213D01*
X26945780Y-169755594D01*
X26921970Y-169684165D01*
X26921970Y-169636546D01*
X26945780Y-169565118D01*
X26969589Y-169541308D01*
X27136256Y-169255594D02*
X27112446Y-169303213D01*
X27088637Y-169327022D01*
X27041018Y-169350832D01*
X27017208Y-169350832D01*
X26969589Y-169327022D01*
X26945780Y-169303213D01*
X26921970Y-169255594D01*
X26921970Y-169160356D01*
X26945780Y-169112737D01*
X26969589Y-169088927D01*
X27017208Y-169065118D01*
X27041018Y-169065118D01*
X27088637Y-169088927D01*
X27112446Y-169112737D01*
X27136256Y-169160356D01*
X27136256Y-169255594D01*
X27160065Y-169303213D01*
X27183875Y-169327022D01*
X27231494Y-169350832D01*
X27326732Y-169350832D01*
X27374351Y-169327022D01*
X27398160Y-169303213D01*
X27421970Y-169255594D01*
X27421970Y-169160356D01*
X27398160Y-169112737D01*
X27374351Y-169088927D01*
X27326732Y-169065118D01*
X27231494Y-169065118D01*
X27183875Y-169088927D01*
X27160065Y-169112737D01*
X27136256Y-169160356D01*
X27421970Y-168588927D02*
X27421970Y-168874641D01*
X27421970Y-168731784D02*
X26921970Y-168731784D01*
X26993399Y-168779403D01*
X27041018Y-168827022D01*
X27064827Y-168874641D01*
D10*
D11*
X51138971Y-96850971D02*
X51115161Y-96874780D01*
X51043733Y-96898590D01*
X50996114Y-96898590D01*
X50924685Y-96874780D01*
X50877066Y-96827161D01*
X50853257Y-96779542D01*
X50829447Y-96684304D01*
X50829447Y-96612876D01*
X50853257Y-96517638D01*
X50877066Y-96470019D01*
X50924685Y-96422400D01*
X50996114Y-96398590D01*
X51043733Y-96398590D01*
X51115161Y-96422400D01*
X51138971Y-96446209D01*
X51305638Y-96398590D02*
X51638971Y-96398590D01*
X51424685Y-96898590D01*
X51924685Y-96398590D02*
X51972304Y-96398590D01*
X52019923Y-96422400D01*
X52043733Y-96446209D01*
X52067542Y-96493828D01*
X52091352Y-96589066D01*
X52091352Y-96708114D01*
X52067542Y-96803352D01*
X52043733Y-96850971D01*
X52019923Y-96874780D01*
X51972304Y-96898590D01*
X51924685Y-96898590D01*
X51877066Y-96874780D01*
X51853257Y-96850971D01*
X51829447Y-96803352D01*
X51805638Y-96708114D01*
X51805638Y-96589066D01*
X51829447Y-96493828D01*
X51853257Y-96446209D01*
X51877066Y-96422400D01*
X51924685Y-96398590D01*
D10*
D11*
X56853971Y-90818471D02*
X56830161Y-90842280D01*
X56758733Y-90866090D01*
X56711114Y-90866090D01*
X56639685Y-90842280D01*
X56592066Y-90794661D01*
X56568257Y-90747042D01*
X56544447Y-90651804D01*
X56544447Y-90580376D01*
X56568257Y-90485138D01*
X56592066Y-90437519D01*
X56639685Y-90389900D01*
X56711114Y-90366090D01*
X56758733Y-90366090D01*
X56830161Y-90389900D01*
X56853971Y-90413709D01*
X57282542Y-90366090D02*
X57187304Y-90366090D01*
X57139685Y-90389900D01*
X57115876Y-90413709D01*
X57068257Y-90485138D01*
X57044447Y-90580376D01*
X57044447Y-90770852D01*
X57068257Y-90818471D01*
X57092066Y-90842280D01*
X57139685Y-90866090D01*
X57234923Y-90866090D01*
X57282542Y-90842280D01*
X57306352Y-90818471D01*
X57330161Y-90770852D01*
X57330161Y-90651804D01*
X57306352Y-90604185D01*
X57282542Y-90580376D01*
X57234923Y-90556566D01*
X57139685Y-90556566D01*
X57092066Y-90580376D01*
X57068257Y-90604185D01*
X57044447Y-90651804D01*
X57615876Y-90580376D02*
X57568257Y-90556566D01*
X57544447Y-90532757D01*
X57520638Y-90485138D01*
X57520638Y-90461328D01*
X57544447Y-90413709D01*
X57568257Y-90389900D01*
X57615876Y-90366090D01*
X57711114Y-90366090D01*
X57758733Y-90389900D01*
X57782542Y-90413709D01*
X57806352Y-90461328D01*
X57806352Y-90485138D01*
X57782542Y-90532757D01*
X57758733Y-90556566D01*
X57711114Y-90580376D01*
X57615876Y-90580376D01*
X57568257Y-90604185D01*
X57544447Y-90627995D01*
X57520638Y-90675614D01*
X57520638Y-90770852D01*
X57544447Y-90818471D01*
X57568257Y-90842280D01*
X57615876Y-90866090D01*
X57711114Y-90866090D01*
X57758733Y-90842280D01*
X57782542Y-90818471D01*
X57806352Y-90770852D01*
X57806352Y-90675614D01*
X57782542Y-90627995D01*
X57758733Y-90604185D01*
X57711114Y-90580376D01*
D10*
D11*
X56351051Y-79563731D02*
X56327241Y-79587540D01*
X56255813Y-79611350D01*
X56208194Y-79611350D01*
X56136765Y-79587540D01*
X56089146Y-79539921D01*
X56065337Y-79492302D01*
X56041527Y-79397064D01*
X56041527Y-79325636D01*
X56065337Y-79230398D01*
X56089146Y-79182779D01*
X56136765Y-79135160D01*
X56208194Y-79111350D01*
X56255813Y-79111350D01*
X56327241Y-79135160D01*
X56351051Y-79158969D01*
X56779622Y-79111350D02*
X56684384Y-79111350D01*
X56636765Y-79135160D01*
X56612956Y-79158969D01*
X56565337Y-79230398D01*
X56541527Y-79325636D01*
X56541527Y-79516112D01*
X56565337Y-79563731D01*
X56589146Y-79587540D01*
X56636765Y-79611350D01*
X56732003Y-79611350D01*
X56779622Y-79587540D01*
X56803432Y-79563731D01*
X56827241Y-79516112D01*
X56827241Y-79397064D01*
X56803432Y-79349445D01*
X56779622Y-79325636D01*
X56732003Y-79301826D01*
X56636765Y-79301826D01*
X56589146Y-79325636D01*
X56565337Y-79349445D01*
X56541527Y-79397064D01*
X56993908Y-79111350D02*
X57327241Y-79111350D01*
X57112956Y-79611350D01*
D10*
D11*
X55931571Y-83587708D02*
X55955380Y-83611518D01*
X55979190Y-83682946D01*
X55979190Y-83730565D01*
X55955380Y-83801994D01*
X55907761Y-83849613D01*
X55860142Y-83873422D01*
X55764904Y-83897232D01*
X55693476Y-83897232D01*
X55598238Y-83873422D01*
X55550619Y-83849613D01*
X55503000Y-83801994D01*
X55479190Y-83730565D01*
X55479190Y-83682946D01*
X55503000Y-83611518D01*
X55526809Y-83587708D01*
X55479190Y-83159137D02*
X55479190Y-83254375D01*
X55503000Y-83301994D01*
X55526809Y-83325803D01*
X55598238Y-83373422D01*
X55693476Y-83397232D01*
X55883952Y-83397232D01*
X55931571Y-83373422D01*
X55955380Y-83349613D01*
X55979190Y-83301994D01*
X55979190Y-83206756D01*
X55955380Y-83159137D01*
X55931571Y-83135327D01*
X55883952Y-83111518D01*
X55764904Y-83111518D01*
X55717285Y-83135327D01*
X55693476Y-83159137D01*
X55669666Y-83206756D01*
X55669666Y-83301994D01*
X55693476Y-83349613D01*
X55717285Y-83373422D01*
X55764904Y-83397232D01*
X55479190Y-82682946D02*
X55479190Y-82778184D01*
X55503000Y-82825803D01*
X55526809Y-82849613D01*
X55598238Y-82897232D01*
X55693476Y-82921041D01*
X55883952Y-82921041D01*
X55931571Y-82897232D01*
X55955380Y-82873422D01*
X55979190Y-82825803D01*
X55979190Y-82730565D01*
X55955380Y-82682946D01*
X55931571Y-82659137D01*
X55883952Y-82635327D01*
X55764904Y-82635327D01*
X55717285Y-82659137D01*
X55693476Y-82682946D01*
X55669666Y-82730565D01*
X55669666Y-82825803D01*
X55693476Y-82873422D01*
X55717285Y-82897232D01*
X55764904Y-82921041D01*
D10*
D11*
X51824771Y-76896731D02*
X51800961Y-76920540D01*
X51729533Y-76944350D01*
X51681914Y-76944350D01*
X51610485Y-76920540D01*
X51562866Y-76872921D01*
X51539057Y-76825302D01*
X51515247Y-76730064D01*
X51515247Y-76658636D01*
X51539057Y-76563398D01*
X51562866Y-76515779D01*
X51610485Y-76468160D01*
X51681914Y-76444350D01*
X51729533Y-76444350D01*
X51800961Y-76468160D01*
X51824771Y-76491969D01*
X52253342Y-76444350D02*
X52158104Y-76444350D01*
X52110485Y-76468160D01*
X52086676Y-76491969D01*
X52039057Y-76563398D01*
X52015247Y-76658636D01*
X52015247Y-76849112D01*
X52039057Y-76896731D01*
X52062866Y-76920540D01*
X52110485Y-76944350D01*
X52205723Y-76944350D01*
X52253342Y-76920540D01*
X52277152Y-76896731D01*
X52300961Y-76849112D01*
X52300961Y-76730064D01*
X52277152Y-76682445D01*
X52253342Y-76658636D01*
X52205723Y-76634826D01*
X52110485Y-76634826D01*
X52062866Y-76658636D01*
X52039057Y-76682445D01*
X52015247Y-76730064D01*
X52729533Y-76611017D02*
X52729533Y-76944350D01*
X52610485Y-76420540D02*
X52491438Y-76777683D01*
X52800961Y-76777683D01*
D10*
D11*
X44247571Y-84878028D02*
X44271380Y-84901838D01*
X44295190Y-84973266D01*
X44295190Y-85020885D01*
X44271380Y-85092314D01*
X44223761Y-85139933D01*
X44176142Y-85163742D01*
X44080904Y-85187552D01*
X44009476Y-85187552D01*
X43914238Y-85163742D01*
X43866619Y-85139933D01*
X43819000Y-85092314D01*
X43795190Y-85020885D01*
X43795190Y-84973266D01*
X43819000Y-84901838D01*
X43842809Y-84878028D01*
X43795190Y-84449457D02*
X43795190Y-84544695D01*
X43819000Y-84592314D01*
X43842809Y-84616123D01*
X43914238Y-84663742D01*
X44009476Y-84687552D01*
X44199952Y-84687552D01*
X44247571Y-84663742D01*
X44271380Y-84639933D01*
X44295190Y-84592314D01*
X44295190Y-84497076D01*
X44271380Y-84449457D01*
X44247571Y-84425647D01*
X44199952Y-84401838D01*
X44080904Y-84401838D01*
X44033285Y-84425647D01*
X44009476Y-84449457D01*
X43985666Y-84497076D01*
X43985666Y-84592314D01*
X44009476Y-84639933D01*
X44033285Y-84663742D01*
X44080904Y-84687552D01*
X44295190Y-83925647D02*
X44295190Y-84211361D01*
X44295190Y-84068504D02*
X43795190Y-84068504D01*
X43866619Y-84116123D01*
X43914238Y-84163742D01*
X43938047Y-84211361D01*
D10*
D11*
X50915071Y-85182828D02*
X50938880Y-85206638D01*
X50962690Y-85278066D01*
X50962690Y-85325685D01*
X50938880Y-85397114D01*
X50891261Y-85444733D01*
X50843642Y-85468542D01*
X50748404Y-85492352D01*
X50676976Y-85492352D01*
X50581738Y-85468542D01*
X50534119Y-85444733D01*
X50486500Y-85397114D01*
X50462690Y-85325685D01*
X50462690Y-85278066D01*
X50486500Y-85206638D01*
X50510309Y-85182828D01*
X50462690Y-84754257D02*
X50462690Y-84849495D01*
X50486500Y-84897114D01*
X50510309Y-84920923D01*
X50581738Y-84968542D01*
X50676976Y-84992352D01*
X50867452Y-84992352D01*
X50915071Y-84968542D01*
X50938880Y-84944733D01*
X50962690Y-84897114D01*
X50962690Y-84801876D01*
X50938880Y-84754257D01*
X50915071Y-84730447D01*
X50867452Y-84706638D01*
X50748404Y-84706638D01*
X50700785Y-84730447D01*
X50676976Y-84754257D01*
X50653166Y-84801876D01*
X50653166Y-84897114D01*
X50676976Y-84944733D01*
X50700785Y-84968542D01*
X50748404Y-84992352D01*
X50462690Y-84397114D02*
X50462690Y-84349495D01*
X50486500Y-84301876D01*
X50510309Y-84278066D01*
X50557928Y-84254257D01*
X50653166Y-84230447D01*
X50772214Y-84230447D01*
X50867452Y-84254257D01*
X50915071Y-84278066D01*
X50938880Y-84301876D01*
X50962690Y-84349495D01*
X50962690Y-84397114D01*
X50938880Y-84444733D01*
X50915071Y-84468542D01*
X50867452Y-84492352D01*
X50772214Y-84516161D01*
X50653166Y-84516161D01*
X50557928Y-84492352D01*
X50510309Y-84468542D01*
X50486500Y-84444733D01*
X50462690Y-84397114D01*
D10*
D11*
X42794871Y-80391771D02*
X42771061Y-80415580D01*
X42699633Y-80439390D01*
X42652014Y-80439390D01*
X42580585Y-80415580D01*
X42532966Y-80367961D01*
X42509157Y-80320342D01*
X42485347Y-80225104D01*
X42485347Y-80153676D01*
X42509157Y-80058438D01*
X42532966Y-80010819D01*
X42580585Y-79963200D01*
X42652014Y-79939390D01*
X42699633Y-79939390D01*
X42771061Y-79963200D01*
X42794871Y-79987009D01*
X43247252Y-79939390D02*
X43009157Y-79939390D01*
X42985347Y-80177485D01*
X43009157Y-80153676D01*
X43056776Y-80129866D01*
X43175823Y-80129866D01*
X43223442Y-80153676D01*
X43247252Y-80177485D01*
X43271061Y-80225104D01*
X43271061Y-80344152D01*
X43247252Y-80391771D01*
X43223442Y-80415580D01*
X43175823Y-80439390D01*
X43056776Y-80439390D01*
X43009157Y-80415580D01*
X42985347Y-80391771D01*
X43437728Y-79939390D02*
X43771061Y-79939390D01*
X43556776Y-80439390D01*
D10*
D11*
X41761291Y-77684131D02*
X41737481Y-77707940D01*
X41666053Y-77731750D01*
X41618434Y-77731750D01*
X41547005Y-77707940D01*
X41499386Y-77660321D01*
X41475577Y-77612702D01*
X41451767Y-77517464D01*
X41451767Y-77446036D01*
X41475577Y-77350798D01*
X41499386Y-77303179D01*
X41547005Y-77255560D01*
X41618434Y-77231750D01*
X41666053Y-77231750D01*
X41737481Y-77255560D01*
X41761291Y-77279369D01*
X42213672Y-77231750D02*
X41975577Y-77231750D01*
X41951767Y-77469845D01*
X41975577Y-77446036D01*
X42023196Y-77422226D01*
X42142243Y-77422226D01*
X42189862Y-77446036D01*
X42213672Y-77469845D01*
X42237481Y-77517464D01*
X42237481Y-77636512D01*
X42213672Y-77684131D01*
X42189862Y-77707940D01*
X42142243Y-77731750D01*
X42023196Y-77731750D01*
X41975577Y-77707940D01*
X41951767Y-77684131D01*
X42689862Y-77231750D02*
X42451767Y-77231750D01*
X42427958Y-77469845D01*
X42451767Y-77446036D01*
X42499386Y-77422226D01*
X42618434Y-77422226D01*
X42666053Y-77446036D01*
X42689862Y-77469845D01*
X42713672Y-77517464D01*
X42713672Y-77636512D01*
X42689862Y-77684131D01*
X42666053Y-77707940D01*
X42618434Y-77731750D01*
X42499386Y-77731750D01*
X42451767Y-77707940D01*
X42427958Y-77684131D01*
D10*
D11*
X42571171Y-83785828D02*
X42594980Y-83809638D01*
X42618790Y-83881066D01*
X42618790Y-83928685D01*
X42594980Y-84000114D01*
X42547361Y-84047733D01*
X42499742Y-84071542D01*
X42404504Y-84095352D01*
X42333076Y-84095352D01*
X42237838Y-84071542D01*
X42190219Y-84047733D01*
X42142600Y-84000114D01*
X42118790Y-83928685D01*
X42118790Y-83881066D01*
X42142600Y-83809638D01*
X42166409Y-83785828D01*
X42118790Y-83333447D02*
X42118790Y-83571542D01*
X42356885Y-83595352D01*
X42333076Y-83571542D01*
X42309266Y-83523923D01*
X42309266Y-83404876D01*
X42333076Y-83357257D01*
X42356885Y-83333447D01*
X42404504Y-83309638D01*
X42523552Y-83309638D01*
X42571171Y-83333447D01*
X42594980Y-83357257D01*
X42618790Y-83404876D01*
X42618790Y-83523923D01*
X42594980Y-83571542D01*
X42571171Y-83595352D01*
X42285457Y-82881066D02*
X42618790Y-82881066D01*
X42094980Y-83000114D02*
X42452123Y-83119161D01*
X42452123Y-82809638D01*
D10*
D11*
X38692971Y-77445271D02*
X38669161Y-77469080D01*
X38597733Y-77492890D01*
X38550114Y-77492890D01*
X38478685Y-77469080D01*
X38431066Y-77421461D01*
X38407257Y-77373842D01*
X38383447Y-77278604D01*
X38383447Y-77207176D01*
X38407257Y-77111938D01*
X38431066Y-77064319D01*
X38478685Y-77016700D01*
X38550114Y-76992890D01*
X38597733Y-76992890D01*
X38669161Y-77016700D01*
X38692971Y-77040509D01*
X39145352Y-76992890D02*
X38907257Y-76992890D01*
X38883447Y-77230985D01*
X38907257Y-77207176D01*
X38954876Y-77183366D01*
X39073923Y-77183366D01*
X39121542Y-77207176D01*
X39145352Y-77230985D01*
X39169161Y-77278604D01*
X39169161Y-77397652D01*
X39145352Y-77445271D01*
X39121542Y-77469080D01*
X39073923Y-77492890D01*
X38954876Y-77492890D01*
X38907257Y-77469080D01*
X38883447Y-77445271D01*
X39335828Y-76992890D02*
X39645352Y-76992890D01*
X39478685Y-77183366D01*
X39550114Y-77183366D01*
X39597733Y-77207176D01*
X39621542Y-77230985D01*
X39645352Y-77278604D01*
X39645352Y-77397652D01*
X39621542Y-77445271D01*
X39597733Y-77469080D01*
X39550114Y-77492890D01*
X39407257Y-77492890D01*
X39359638Y-77469080D01*
X39335828Y-77445271D01*
D10*
D11*
X40513771Y-84281128D02*
X40537580Y-84304938D01*
X40561390Y-84376366D01*
X40561390Y-84423985D01*
X40537580Y-84495414D01*
X40489961Y-84543033D01*
X40442342Y-84566842D01*
X40347104Y-84590652D01*
X40275676Y-84590652D01*
X40180438Y-84566842D01*
X40132819Y-84543033D01*
X40085200Y-84495414D01*
X40061390Y-84423985D01*
X40061390Y-84376366D01*
X40085200Y-84304938D01*
X40109009Y-84281128D01*
X40061390Y-83828747D02*
X40061390Y-84066842D01*
X40299485Y-84090652D01*
X40275676Y-84066842D01*
X40251866Y-84019223D01*
X40251866Y-83900176D01*
X40275676Y-83852557D01*
X40299485Y-83828747D01*
X40347104Y-83804938D01*
X40466152Y-83804938D01*
X40513771Y-83828747D01*
X40537580Y-83852557D01*
X40561390Y-83900176D01*
X40561390Y-84019223D01*
X40537580Y-84066842D01*
X40513771Y-84090652D01*
X40109009Y-83614461D02*
X40085200Y-83590652D01*
X40061390Y-83543033D01*
X40061390Y-83423985D01*
X40085200Y-83376366D01*
X40109009Y-83352557D01*
X40156628Y-83328747D01*
X40204247Y-83328747D01*
X40275676Y-83352557D01*
X40561390Y-83638271D01*
X40561390Y-83328747D01*
D10*
D11*
X35758891Y-83735028D02*
X35782700Y-83758838D01*
X35806510Y-83830266D01*
X35806510Y-83877885D01*
X35782700Y-83949314D01*
X35735081Y-83996933D01*
X35687462Y-84020742D01*
X35592224Y-84044552D01*
X35520796Y-84044552D01*
X35425558Y-84020742D01*
X35377939Y-83996933D01*
X35330320Y-83949314D01*
X35306510Y-83877885D01*
X35306510Y-83830266D01*
X35330320Y-83758838D01*
X35354129Y-83735028D01*
X35306510Y-83282647D02*
X35306510Y-83520742D01*
X35544605Y-83544552D01*
X35520796Y-83520742D01*
X35496986Y-83473123D01*
X35496986Y-83354076D01*
X35520796Y-83306457D01*
X35544605Y-83282647D01*
X35592224Y-83258838D01*
X35711272Y-83258838D01*
X35758891Y-83282647D01*
X35782700Y-83306457D01*
X35806510Y-83354076D01*
X35806510Y-83473123D01*
X35782700Y-83520742D01*
X35758891Y-83544552D01*
X35806510Y-82782647D02*
X35806510Y-83068361D01*
X35806510Y-82925504D02*
X35306510Y-82925504D01*
X35377939Y-82973123D01*
X35425558Y-83020742D01*
X35449367Y-83068361D01*
D10*
D11*
X32254966Y-89444144D02*
X32221294Y-89444144D01*
X32153951Y-89410472D01*
X32120279Y-89376801D01*
X32086607Y-89309457D01*
X32086607Y-89242114D01*
X32103443Y-89191606D01*
X32153951Y-89107427D01*
X32204458Y-89056919D01*
X32288638Y-89006411D01*
X32339145Y-88989576D01*
X32406489Y-88989576D01*
X32473832Y-89023247D01*
X32507504Y-89056919D01*
X32541176Y-89124263D01*
X32541176Y-89157934D01*
X32760042Y-89545160D02*
X32524340Y-89780862D01*
X32810550Y-89326293D02*
X32473832Y-89494652D01*
X32692699Y-89713518D01*
X32726371Y-89982892D02*
X32793714Y-90050236D01*
X32844222Y-90067072D01*
X32877894Y-90067072D01*
X32962073Y-90050236D01*
X33046252Y-89999728D01*
X33180939Y-89865041D01*
X33197775Y-89814534D01*
X33197775Y-89780862D01*
X33180939Y-89730354D01*
X33113596Y-89663011D01*
X33063088Y-89646175D01*
X33029416Y-89646175D01*
X32978909Y-89663011D01*
X32894729Y-89747190D01*
X32877894Y-89797698D01*
X32877894Y-89831369D01*
X32894729Y-89881877D01*
X32962073Y-89949221D01*
X33012581Y-89966056D01*
X33046252Y-89966056D01*
X33096760Y-89949221D01*
D10*
D11*
X40513771Y-89564328D02*
X40537580Y-89588138D01*
X40561390Y-89659566D01*
X40561390Y-89707185D01*
X40537580Y-89778614D01*
X40489961Y-89826233D01*
X40442342Y-89850042D01*
X40347104Y-89873852D01*
X40275676Y-89873852D01*
X40180438Y-89850042D01*
X40132819Y-89826233D01*
X40085200Y-89778614D01*
X40061390Y-89707185D01*
X40061390Y-89659566D01*
X40085200Y-89588138D01*
X40109009Y-89564328D01*
X40228057Y-89135757D02*
X40561390Y-89135757D01*
X40037580Y-89254804D02*
X40394723Y-89373852D01*
X40394723Y-89064328D01*
X40275676Y-88802423D02*
X40251866Y-88850042D01*
X40228057Y-88873852D01*
X40180438Y-88897661D01*
X40156628Y-88897661D01*
X40109009Y-88873852D01*
X40085200Y-88850042D01*
X40061390Y-88802423D01*
X40061390Y-88707185D01*
X40085200Y-88659566D01*
X40109009Y-88635757D01*
X40156628Y-88611947D01*
X40180438Y-88611947D01*
X40228057Y-88635757D01*
X40251866Y-88659566D01*
X40275676Y-88707185D01*
X40275676Y-88802423D01*
X40299485Y-88850042D01*
X40323295Y-88873852D01*
X40370914Y-88897661D01*
X40466152Y-88897661D01*
X40513771Y-88873852D01*
X40537580Y-88850042D01*
X40561390Y-88802423D01*
X40561390Y-88707185D01*
X40537580Y-88659566D01*
X40513771Y-88635757D01*
X40466152Y-88611947D01*
X40370914Y-88611947D01*
X40323295Y-88635757D01*
X40299485Y-88659566D01*
X40275676Y-88707185D01*
D10*
D11*
X37165171Y-89284371D02*
X37141361Y-89308180D01*
X37069933Y-89331990D01*
X37022314Y-89331990D01*
X36950885Y-89308180D01*
X36903266Y-89260561D01*
X36879457Y-89212942D01*
X36855647Y-89117704D01*
X36855647Y-89046276D01*
X36879457Y-88951038D01*
X36903266Y-88903419D01*
X36950885Y-88855800D01*
X37022314Y-88831990D01*
X37069933Y-88831990D01*
X37141361Y-88855800D01*
X37165171Y-88879609D01*
X37593742Y-88998657D02*
X37593742Y-89331990D01*
X37474695Y-88808180D02*
X37355647Y-89165323D01*
X37665171Y-89165323D01*
X37808028Y-88831990D02*
X38141361Y-88831990D01*
X37927076Y-89331990D01*
D10*
D11*
X29559131Y-77595231D02*
X29535321Y-77619040D01*
X29463893Y-77642850D01*
X29416274Y-77642850D01*
X29344845Y-77619040D01*
X29297226Y-77571421D01*
X29273417Y-77523802D01*
X29249607Y-77428564D01*
X29249607Y-77357136D01*
X29273417Y-77261898D01*
X29297226Y-77214279D01*
X29344845Y-77166660D01*
X29416274Y-77142850D01*
X29463893Y-77142850D01*
X29535321Y-77166660D01*
X29559131Y-77190469D01*
X29987702Y-77309517D02*
X29987702Y-77642850D01*
X29868655Y-77119040D02*
X29749607Y-77476183D01*
X30059131Y-77476183D01*
X30201988Y-77142850D02*
X30511512Y-77142850D01*
X30344845Y-77333326D01*
X30416274Y-77333326D01*
X30463893Y-77357136D01*
X30487702Y-77380945D01*
X30511512Y-77428564D01*
X30511512Y-77547612D01*
X30487702Y-77595231D01*
X30463893Y-77619040D01*
X30416274Y-77642850D01*
X30273417Y-77642850D01*
X30225798Y-77619040D01*
X30201988Y-77595231D01*
D10*
D11*
X28339931Y-80534011D02*
X28316121Y-80557820D01*
X28244693Y-80581630D01*
X28197074Y-80581630D01*
X28125645Y-80557820D01*
X28078026Y-80510201D01*
X28054217Y-80462582D01*
X28030407Y-80367344D01*
X28030407Y-80295916D01*
X28054217Y-80200678D01*
X28078026Y-80153059D01*
X28125645Y-80105440D01*
X28197074Y-80081630D01*
X28244693Y-80081630D01*
X28316121Y-80105440D01*
X28339931Y-80129249D01*
X28768502Y-80248297D02*
X28768502Y-80581630D01*
X28649455Y-80057820D02*
X28530407Y-80414963D01*
X28839931Y-80414963D01*
X29125645Y-80081630D02*
X29173264Y-80081630D01*
X29220883Y-80105440D01*
X29244693Y-80129249D01*
X29268502Y-80176868D01*
X29292312Y-80272106D01*
X29292312Y-80391154D01*
X29268502Y-80486392D01*
X29244693Y-80534011D01*
X29220883Y-80557820D01*
X29173264Y-80581630D01*
X29125645Y-80581630D01*
X29078026Y-80557820D01*
X29054217Y-80534011D01*
X29030407Y-80486392D01*
X29006598Y-80391154D01*
X29006598Y-80272106D01*
X29030407Y-80176868D01*
X29054217Y-80129249D01*
X29078026Y-80105440D01*
X29125645Y-80081630D01*
D10*
D11*
X32243531Y-85604468D02*
X32267340Y-85628278D01*
X32291150Y-85699706D01*
X32291150Y-85747325D01*
X32267340Y-85818754D01*
X32219721Y-85866373D01*
X32172102Y-85890182D01*
X32076864Y-85913992D01*
X32005436Y-85913992D01*
X31910198Y-85890182D01*
X31862579Y-85866373D01*
X31814960Y-85818754D01*
X31791150Y-85747325D01*
X31791150Y-85699706D01*
X31814960Y-85628278D01*
X31838769Y-85604468D01*
X31791150Y-85437801D02*
X31791150Y-85128278D01*
X31981626Y-85294944D01*
X31981626Y-85223516D01*
X32005436Y-85175897D01*
X32029245Y-85152087D01*
X32076864Y-85128278D01*
X32195912Y-85128278D01*
X32243531Y-85152087D01*
X32267340Y-85175897D01*
X32291150Y-85223516D01*
X32291150Y-85366373D01*
X32267340Y-85413992D01*
X32243531Y-85437801D01*
X31791150Y-84699706D02*
X31791150Y-84794944D01*
X31814960Y-84842563D01*
X31838769Y-84866373D01*
X31910198Y-84913992D01*
X32005436Y-84937801D01*
X32195912Y-84937801D01*
X32243531Y-84913992D01*
X32267340Y-84890182D01*
X32291150Y-84842563D01*
X32291150Y-84747325D01*
X32267340Y-84699706D01*
X32243531Y-84675897D01*
X32195912Y-84652087D01*
X32076864Y-84652087D01*
X32029245Y-84675897D01*
X32005436Y-84699706D01*
X31981626Y-84747325D01*
X31981626Y-84842563D01*
X32005436Y-84890182D01*
X32029245Y-84913992D01*
X32076864Y-84937801D01*
D10*
D11*
X31887931Y-88875988D02*
X31911740Y-88899798D01*
X31935550Y-88971226D01*
X31935550Y-89018845D01*
X31911740Y-89090274D01*
X31864121Y-89137893D01*
X31816502Y-89161702D01*
X31721264Y-89185512D01*
X31649836Y-89185512D01*
X31554598Y-89161702D01*
X31506979Y-89137893D01*
X31459360Y-89090274D01*
X31435550Y-89018845D01*
X31435550Y-88971226D01*
X31459360Y-88899798D01*
X31483169Y-88875988D01*
X31435550Y-88709321D02*
X31435550Y-88399798D01*
X31626026Y-88566464D01*
X31626026Y-88495036D01*
X31649836Y-88447417D01*
X31673645Y-88423607D01*
X31721264Y-88399798D01*
X31840312Y-88399798D01*
X31887931Y-88423607D01*
X31911740Y-88447417D01*
X31935550Y-88495036D01*
X31935550Y-88637893D01*
X31911740Y-88685512D01*
X31887931Y-88709321D01*
X31435550Y-87947417D02*
X31435550Y-88185512D01*
X31673645Y-88209321D01*
X31649836Y-88185512D01*
X31626026Y-88137893D01*
X31626026Y-88018845D01*
X31649836Y-87971226D01*
X31673645Y-87947417D01*
X31721264Y-87923607D01*
X31840312Y-87923607D01*
X31887931Y-87947417D01*
X31911740Y-87971226D01*
X31935550Y-88018845D01*
X31935550Y-88137893D01*
X31911740Y-88185512D01*
X31887931Y-88209321D01*
D10*
D11*
X31435811Y-86648408D02*
X31459620Y-86672218D01*
X31483430Y-86743646D01*
X31483430Y-86791265D01*
X31459620Y-86862694D01*
X31412001Y-86910313D01*
X31364382Y-86934122D01*
X31269144Y-86957932D01*
X31197716Y-86957932D01*
X31102478Y-86934122D01*
X31054859Y-86910313D01*
X31007240Y-86862694D01*
X30983430Y-86791265D01*
X30983430Y-86743646D01*
X31007240Y-86672218D01*
X31031049Y-86648408D01*
X30983430Y-86481741D02*
X30983430Y-86172218D01*
X31173906Y-86338884D01*
X31173906Y-86267456D01*
X31197716Y-86219837D01*
X31221525Y-86196027D01*
X31269144Y-86172218D01*
X31388192Y-86172218D01*
X31435811Y-86196027D01*
X31459620Y-86219837D01*
X31483430Y-86267456D01*
X31483430Y-86410313D01*
X31459620Y-86457932D01*
X31435811Y-86481741D01*
X31150097Y-85743646D02*
X31483430Y-85743646D01*
X30959620Y-85862694D02*
X31316763Y-85981741D01*
X31316763Y-85672218D01*
D10*
D11*
X22281651Y-83176228D02*
X22305460Y-83200038D01*
X22329270Y-83271466D01*
X22329270Y-83319085D01*
X22305460Y-83390514D01*
X22257841Y-83438133D01*
X22210222Y-83461942D01*
X22114984Y-83485752D01*
X22043556Y-83485752D01*
X21948318Y-83461942D01*
X21900699Y-83438133D01*
X21853080Y-83390514D01*
X21829270Y-83319085D01*
X21829270Y-83271466D01*
X21853080Y-83200038D01*
X21876889Y-83176228D01*
X21876889Y-82985752D02*
X21853080Y-82961942D01*
X21829270Y-82914323D01*
X21829270Y-82795276D01*
X21853080Y-82747657D01*
X21876889Y-82723847D01*
X21924508Y-82700038D01*
X21972127Y-82700038D01*
X22043556Y-82723847D01*
X22329270Y-83009561D01*
X22329270Y-82700038D01*
X21829270Y-82533371D02*
X21829270Y-82200038D01*
X22329270Y-82414323D01*
D10*
D11*
X43273871Y-157833771D02*
X43250061Y-157857580D01*
X43178633Y-157881390D01*
X43131014Y-157881390D01*
X43059585Y-157857580D01*
X43011966Y-157809961D01*
X42988157Y-157762342D01*
X42964347Y-157667104D01*
X42964347Y-157595676D01*
X42988157Y-157500438D01*
X43011966Y-157452819D01*
X43059585Y-157405200D01*
X43131014Y-157381390D01*
X43178633Y-157381390D01*
X43250061Y-157405200D01*
X43273871Y-157429009D01*
X43750061Y-157881390D02*
X43464347Y-157881390D01*
X43607204Y-157881390D02*
X43607204Y-157381390D01*
X43559585Y-157452819D01*
X43511966Y-157500438D01*
X43464347Y-157524247D01*
X43916728Y-157381390D02*
X44226252Y-157381390D01*
X44059585Y-157571866D01*
X44131014Y-157571866D01*
X44178633Y-157595676D01*
X44202442Y-157619485D01*
X44226252Y-157667104D01*
X44226252Y-157786152D01*
X44202442Y-157833771D01*
X44178633Y-157857580D01*
X44131014Y-157881390D01*
X43988157Y-157881390D01*
X43940538Y-157857580D01*
X43916728Y-157833771D01*
D10*
D11*
X51626271Y-142780533D02*
X51650080Y-142804342D01*
X51673890Y-142875771D01*
X51673890Y-142923390D01*
X51650080Y-142994819D01*
X51602461Y-143042438D01*
X51554842Y-143066247D01*
X51459604Y-143090057D01*
X51388176Y-143090057D01*
X51292938Y-143066247D01*
X51245319Y-143042438D01*
X51197700Y-142994819D01*
X51173890Y-142923390D01*
X51173890Y-142875771D01*
X51197700Y-142804342D01*
X51221509Y-142780533D01*
X51173890Y-142613866D02*
X51173890Y-142280533D01*
X51673890Y-142494819D01*
D10*
D11*
X51664371Y-141485133D02*
X51688180Y-141508942D01*
X51711990Y-141580371D01*
X51711990Y-141627990D01*
X51688180Y-141699419D01*
X51640561Y-141747038D01*
X51592942Y-141770847D01*
X51497704Y-141794657D01*
X51426276Y-141794657D01*
X51331038Y-141770847D01*
X51283419Y-141747038D01*
X51235800Y-141699419D01*
X51211990Y-141627990D01*
X51211990Y-141580371D01*
X51235800Y-141508942D01*
X51259609Y-141485133D01*
X51211990Y-141056561D02*
X51211990Y-141151800D01*
X51235800Y-141199419D01*
X51259609Y-141223228D01*
X51331038Y-141270847D01*
X51426276Y-141294657D01*
X51616752Y-141294657D01*
X51664371Y-141270847D01*
X51688180Y-141247038D01*
X51711990Y-141199419D01*
X51711990Y-141104180D01*
X51688180Y-141056561D01*
X51664371Y-141032752D01*
X51616752Y-141008942D01*
X51497704Y-141008942D01*
X51450085Y-141032752D01*
X51426276Y-141056561D01*
X51402466Y-141104180D01*
X51402466Y-141199419D01*
X51426276Y-141247038D01*
X51450085Y-141270847D01*
X51497704Y-141294657D01*
D10*
D11*
X48346646Y-140417051D02*
X48322837Y-140440860D01*
X48251408Y-140464670D01*
X48203789Y-140464670D01*
X48132360Y-140440860D01*
X48084741Y-140393241D01*
X48060932Y-140345622D01*
X48037122Y-140250384D01*
X48037122Y-140178956D01*
X48060932Y-140083718D01*
X48084741Y-140036099D01*
X48132360Y-139988480D01*
X48203789Y-139964670D01*
X48251408Y-139964670D01*
X48322837Y-139988480D01*
X48346646Y-140012289D01*
X48775218Y-140131337D02*
X48775218Y-140464670D01*
X48656170Y-139940860D02*
X48537122Y-140298003D01*
X48846646Y-140298003D01*
D10*
D11*
X38278571Y-154489933D02*
X38302380Y-154513742D01*
X38326190Y-154585171D01*
X38326190Y-154632790D01*
X38302380Y-154704219D01*
X38254761Y-154751838D01*
X38207142Y-154775647D01*
X38111904Y-154799457D01*
X38040476Y-154799457D01*
X37945238Y-154775647D01*
X37897619Y-154751838D01*
X37850000Y-154704219D01*
X37826190Y-154632790D01*
X37826190Y-154585171D01*
X37850000Y-154513742D01*
X37873809Y-154489933D01*
X37873809Y-154299457D02*
X37850000Y-154275647D01*
X37826190Y-154228028D01*
X37826190Y-154108980D01*
X37850000Y-154061361D01*
X37873809Y-154037552D01*
X37921428Y-154013742D01*
X37969047Y-154013742D01*
X38040476Y-154037552D01*
X38326190Y-154323266D01*
X38326190Y-154013742D01*
D10*
D11*
X37999171Y-155709133D02*
X38022980Y-155732942D01*
X38046790Y-155804371D01*
X38046790Y-155851990D01*
X38022980Y-155923419D01*
X37975361Y-155971038D01*
X37927742Y-155994847D01*
X37832504Y-156018657D01*
X37761076Y-156018657D01*
X37665838Y-155994847D01*
X37618219Y-155971038D01*
X37570600Y-155923419D01*
X37546790Y-155851990D01*
X37546790Y-155804371D01*
X37570600Y-155732942D01*
X37594409Y-155709133D01*
X38046790Y-155232942D02*
X38046790Y-155518657D01*
X38046790Y-155375800D02*
X37546790Y-155375800D01*
X37618219Y-155423419D01*
X37665838Y-155471038D01*
X37689647Y-155518657D01*
D10*
M02*
