G04 #@! TF.GenerationSoftware,KiCad,Pcbnew,5.1.6-c6e7f7d~87~ubuntu18.04.1*
G04 #@! TF.CreationDate,2020-09-13T22:45:34+02:00*
G04 #@! TF.ProjectId,Mainboard,4d61696e-626f-4617-9264-2e6b69636164,rev?*
G04 #@! TF.SameCoordinates,Original*
G04 #@! TF.FileFunction,Paste,Bot*
G04 #@! TF.FilePolarity,Positive*
%FSLAX46Y46*%
G04 Gerber Fmt 4.6, Leading zero omitted, Abs format (unit mm)*
G04 Created by KiCad (PCBNEW 5.1.6-c6e7f7d~87~ubuntu18.04.1) date 2020-09-13 22:45:34*
%MOMM*%
%LPD*%
G01*
G04 APERTURE LIST*
%ADD10R,0.800000X0.900000*%
%ADD11R,2.300000X2.800000*%
%ADD12R,0.400000X0.900000*%
%ADD13R,0.850000X1.090000*%
%ADD14R,0.900000X0.800000*%
%ADD15R,1.500000X2.000000*%
%ADD16R,3.800000X2.000000*%
%ADD17R,0.900000X1.200000*%
%ADD18R,0.650000X1.220000*%
%ADD19R,1.150000X1.400000*%
%ADD20R,1.350000X4.200000*%
G04 APERTURE END LIST*
G36*
G01*
X62583350Y-78861400D02*
X63095850Y-78861400D01*
G75*
G02*
X63314600Y-79080150I0J-218750D01*
G01*
X63314600Y-79517650D01*
G75*
G02*
X63095850Y-79736400I-218750J0D01*
G01*
X62583350Y-79736400D01*
G75*
G02*
X62364600Y-79517650I0J218750D01*
G01*
X62364600Y-79080150D01*
G75*
G02*
X62583350Y-78861400I218750J0D01*
G01*
G37*
G36*
G01*
X62583350Y-77286400D02*
X63095850Y-77286400D01*
G75*
G02*
X63314600Y-77505150I0J-218750D01*
G01*
X63314600Y-77942650D01*
G75*
G02*
X63095850Y-78161400I-218750J0D01*
G01*
X62583350Y-78161400D01*
G75*
G02*
X62364600Y-77942650I0J218750D01*
G01*
X62364600Y-77505150D01*
G75*
G02*
X62583350Y-77286400I218750J0D01*
G01*
G37*
G36*
G01*
X61033950Y-78861300D02*
X61546450Y-78861300D01*
G75*
G02*
X61765200Y-79080050I0J-218750D01*
G01*
X61765200Y-79517550D01*
G75*
G02*
X61546450Y-79736300I-218750J0D01*
G01*
X61033950Y-79736300D01*
G75*
G02*
X60815200Y-79517550I0J218750D01*
G01*
X60815200Y-79080050D01*
G75*
G02*
X61033950Y-78861300I218750J0D01*
G01*
G37*
G36*
G01*
X61033950Y-77286300D02*
X61546450Y-77286300D01*
G75*
G02*
X61765200Y-77505050I0J-218750D01*
G01*
X61765200Y-77942550D01*
G75*
G02*
X61546450Y-78161300I-218750J0D01*
G01*
X61033950Y-78161300D01*
G75*
G02*
X60815200Y-77942550I0J218750D01*
G01*
X60815200Y-77505050D01*
G75*
G02*
X61033950Y-77286300I218750J0D01*
G01*
G37*
G36*
G01*
X50051800Y-153057000D02*
X48601800Y-153057000D01*
G75*
G02*
X48526800Y-152982000I0J75000D01*
G01*
X48526800Y-152832000D01*
G75*
G02*
X48601800Y-152757000I75000J0D01*
G01*
X50051800Y-152757000D01*
G75*
G02*
X50126800Y-152832000I0J-75000D01*
G01*
X50126800Y-152982000D01*
G75*
G02*
X50051800Y-153057000I-75000J0D01*
G01*
G37*
G36*
G01*
X50051800Y-152557000D02*
X48601800Y-152557000D01*
G75*
G02*
X48526800Y-152482000I0J75000D01*
G01*
X48526800Y-152332000D01*
G75*
G02*
X48601800Y-152257000I75000J0D01*
G01*
X50051800Y-152257000D01*
G75*
G02*
X50126800Y-152332000I0J-75000D01*
G01*
X50126800Y-152482000D01*
G75*
G02*
X50051800Y-152557000I-75000J0D01*
G01*
G37*
G36*
G01*
X50051800Y-152057000D02*
X48601800Y-152057000D01*
G75*
G02*
X48526800Y-151982000I0J75000D01*
G01*
X48526800Y-151832000D01*
G75*
G02*
X48601800Y-151757000I75000J0D01*
G01*
X50051800Y-151757000D01*
G75*
G02*
X50126800Y-151832000I0J-75000D01*
G01*
X50126800Y-151982000D01*
G75*
G02*
X50051800Y-152057000I-75000J0D01*
G01*
G37*
G36*
G01*
X50051800Y-151557000D02*
X48601800Y-151557000D01*
G75*
G02*
X48526800Y-151482000I0J75000D01*
G01*
X48526800Y-151332000D01*
G75*
G02*
X48601800Y-151257000I75000J0D01*
G01*
X50051800Y-151257000D01*
G75*
G02*
X50126800Y-151332000I0J-75000D01*
G01*
X50126800Y-151482000D01*
G75*
G02*
X50051800Y-151557000I-75000J0D01*
G01*
G37*
G36*
G01*
X50051800Y-151057000D02*
X48601800Y-151057000D01*
G75*
G02*
X48526800Y-150982000I0J75000D01*
G01*
X48526800Y-150832000D01*
G75*
G02*
X48601800Y-150757000I75000J0D01*
G01*
X50051800Y-150757000D01*
G75*
G02*
X50126800Y-150832000I0J-75000D01*
G01*
X50126800Y-150982000D01*
G75*
G02*
X50051800Y-151057000I-75000J0D01*
G01*
G37*
G36*
G01*
X50051800Y-150557000D02*
X48601800Y-150557000D01*
G75*
G02*
X48526800Y-150482000I0J75000D01*
G01*
X48526800Y-150332000D01*
G75*
G02*
X48601800Y-150257000I75000J0D01*
G01*
X50051800Y-150257000D01*
G75*
G02*
X50126800Y-150332000I0J-75000D01*
G01*
X50126800Y-150482000D01*
G75*
G02*
X50051800Y-150557000I-75000J0D01*
G01*
G37*
G36*
G01*
X50051800Y-150057000D02*
X48601800Y-150057000D01*
G75*
G02*
X48526800Y-149982000I0J75000D01*
G01*
X48526800Y-149832000D01*
G75*
G02*
X48601800Y-149757000I75000J0D01*
G01*
X50051800Y-149757000D01*
G75*
G02*
X50126800Y-149832000I0J-75000D01*
G01*
X50126800Y-149982000D01*
G75*
G02*
X50051800Y-150057000I-75000J0D01*
G01*
G37*
G36*
G01*
X50051800Y-149557000D02*
X48601800Y-149557000D01*
G75*
G02*
X48526800Y-149482000I0J75000D01*
G01*
X48526800Y-149332000D01*
G75*
G02*
X48601800Y-149257000I75000J0D01*
G01*
X50051800Y-149257000D01*
G75*
G02*
X50126800Y-149332000I0J-75000D01*
G01*
X50126800Y-149482000D01*
G75*
G02*
X50051800Y-149557000I-75000J0D01*
G01*
G37*
G36*
G01*
X50051800Y-149057000D02*
X48601800Y-149057000D01*
G75*
G02*
X48526800Y-148982000I0J75000D01*
G01*
X48526800Y-148832000D01*
G75*
G02*
X48601800Y-148757000I75000J0D01*
G01*
X50051800Y-148757000D01*
G75*
G02*
X50126800Y-148832000I0J-75000D01*
G01*
X50126800Y-148982000D01*
G75*
G02*
X50051800Y-149057000I-75000J0D01*
G01*
G37*
G36*
G01*
X50051800Y-148557000D02*
X48601800Y-148557000D01*
G75*
G02*
X48526800Y-148482000I0J75000D01*
G01*
X48526800Y-148332000D01*
G75*
G02*
X48601800Y-148257000I75000J0D01*
G01*
X50051800Y-148257000D01*
G75*
G02*
X50126800Y-148332000I0J-75000D01*
G01*
X50126800Y-148482000D01*
G75*
G02*
X50051800Y-148557000I-75000J0D01*
G01*
G37*
G36*
G01*
X50051800Y-148057000D02*
X48601800Y-148057000D01*
G75*
G02*
X48526800Y-147982000I0J75000D01*
G01*
X48526800Y-147832000D01*
G75*
G02*
X48601800Y-147757000I75000J0D01*
G01*
X50051800Y-147757000D01*
G75*
G02*
X50126800Y-147832000I0J-75000D01*
G01*
X50126800Y-147982000D01*
G75*
G02*
X50051800Y-148057000I-75000J0D01*
G01*
G37*
G36*
G01*
X50051800Y-147557000D02*
X48601800Y-147557000D01*
G75*
G02*
X48526800Y-147482000I0J75000D01*
G01*
X48526800Y-147332000D01*
G75*
G02*
X48601800Y-147257000I75000J0D01*
G01*
X50051800Y-147257000D01*
G75*
G02*
X50126800Y-147332000I0J-75000D01*
G01*
X50126800Y-147482000D01*
G75*
G02*
X50051800Y-147557000I-75000J0D01*
G01*
G37*
G36*
G01*
X50051800Y-147057000D02*
X48601800Y-147057000D01*
G75*
G02*
X48526800Y-146982000I0J75000D01*
G01*
X48526800Y-146832000D01*
G75*
G02*
X48601800Y-146757000I75000J0D01*
G01*
X50051800Y-146757000D01*
G75*
G02*
X50126800Y-146832000I0J-75000D01*
G01*
X50126800Y-146982000D01*
G75*
G02*
X50051800Y-147057000I-75000J0D01*
G01*
G37*
G36*
G01*
X50051800Y-146557000D02*
X48601800Y-146557000D01*
G75*
G02*
X48526800Y-146482000I0J75000D01*
G01*
X48526800Y-146332000D01*
G75*
G02*
X48601800Y-146257000I75000J0D01*
G01*
X50051800Y-146257000D01*
G75*
G02*
X50126800Y-146332000I0J-75000D01*
G01*
X50126800Y-146482000D01*
G75*
G02*
X50051800Y-146557000I-75000J0D01*
G01*
G37*
G36*
G01*
X50051800Y-146057000D02*
X48601800Y-146057000D01*
G75*
G02*
X48526800Y-145982000I0J75000D01*
G01*
X48526800Y-145832000D01*
G75*
G02*
X48601800Y-145757000I75000J0D01*
G01*
X50051800Y-145757000D01*
G75*
G02*
X50126800Y-145832000I0J-75000D01*
G01*
X50126800Y-145982000D01*
G75*
G02*
X50051800Y-146057000I-75000J0D01*
G01*
G37*
G36*
G01*
X50051800Y-145557000D02*
X48601800Y-145557000D01*
G75*
G02*
X48526800Y-145482000I0J75000D01*
G01*
X48526800Y-145332000D01*
G75*
G02*
X48601800Y-145257000I75000J0D01*
G01*
X50051800Y-145257000D01*
G75*
G02*
X50126800Y-145332000I0J-75000D01*
G01*
X50126800Y-145482000D01*
G75*
G02*
X50051800Y-145557000I-75000J0D01*
G01*
G37*
G36*
G01*
X50051800Y-145057000D02*
X48601800Y-145057000D01*
G75*
G02*
X48526800Y-144982000I0J75000D01*
G01*
X48526800Y-144832000D01*
G75*
G02*
X48601800Y-144757000I75000J0D01*
G01*
X50051800Y-144757000D01*
G75*
G02*
X50126800Y-144832000I0J-75000D01*
G01*
X50126800Y-144982000D01*
G75*
G02*
X50051800Y-145057000I-75000J0D01*
G01*
G37*
G36*
G01*
X50051800Y-144557000D02*
X48601800Y-144557000D01*
G75*
G02*
X48526800Y-144482000I0J75000D01*
G01*
X48526800Y-144332000D01*
G75*
G02*
X48601800Y-144257000I75000J0D01*
G01*
X50051800Y-144257000D01*
G75*
G02*
X50126800Y-144332000I0J-75000D01*
G01*
X50126800Y-144482000D01*
G75*
G02*
X50051800Y-144557000I-75000J0D01*
G01*
G37*
G36*
G01*
X50051800Y-144057000D02*
X48601800Y-144057000D01*
G75*
G02*
X48526800Y-143982000I0J75000D01*
G01*
X48526800Y-143832000D01*
G75*
G02*
X48601800Y-143757000I75000J0D01*
G01*
X50051800Y-143757000D01*
G75*
G02*
X50126800Y-143832000I0J-75000D01*
G01*
X50126800Y-143982000D01*
G75*
G02*
X50051800Y-144057000I-75000J0D01*
G01*
G37*
G36*
G01*
X50051800Y-143557000D02*
X48601800Y-143557000D01*
G75*
G02*
X48526800Y-143482000I0J75000D01*
G01*
X48526800Y-143332000D01*
G75*
G02*
X48601800Y-143257000I75000J0D01*
G01*
X50051800Y-143257000D01*
G75*
G02*
X50126800Y-143332000I0J-75000D01*
G01*
X50126800Y-143482000D01*
G75*
G02*
X50051800Y-143557000I-75000J0D01*
G01*
G37*
G36*
G01*
X50051800Y-143057000D02*
X48601800Y-143057000D01*
G75*
G02*
X48526800Y-142982000I0J75000D01*
G01*
X48526800Y-142832000D01*
G75*
G02*
X48601800Y-142757000I75000J0D01*
G01*
X50051800Y-142757000D01*
G75*
G02*
X50126800Y-142832000I0J-75000D01*
G01*
X50126800Y-142982000D01*
G75*
G02*
X50051800Y-143057000I-75000J0D01*
G01*
G37*
G36*
G01*
X50051800Y-142557000D02*
X48601800Y-142557000D01*
G75*
G02*
X48526800Y-142482000I0J75000D01*
G01*
X48526800Y-142332000D01*
G75*
G02*
X48601800Y-142257000I75000J0D01*
G01*
X50051800Y-142257000D01*
G75*
G02*
X50126800Y-142332000I0J-75000D01*
G01*
X50126800Y-142482000D01*
G75*
G02*
X50051800Y-142557000I-75000J0D01*
G01*
G37*
G36*
G01*
X50051800Y-142057000D02*
X48601800Y-142057000D01*
G75*
G02*
X48526800Y-141982000I0J75000D01*
G01*
X48526800Y-141832000D01*
G75*
G02*
X48601800Y-141757000I75000J0D01*
G01*
X50051800Y-141757000D01*
G75*
G02*
X50126800Y-141832000I0J-75000D01*
G01*
X50126800Y-141982000D01*
G75*
G02*
X50051800Y-142057000I-75000J0D01*
G01*
G37*
G36*
G01*
X50051800Y-141557000D02*
X48601800Y-141557000D01*
G75*
G02*
X48526800Y-141482000I0J75000D01*
G01*
X48526800Y-141332000D01*
G75*
G02*
X48601800Y-141257000I75000J0D01*
G01*
X50051800Y-141257000D01*
G75*
G02*
X50126800Y-141332000I0J-75000D01*
G01*
X50126800Y-141482000D01*
G75*
G02*
X50051800Y-141557000I-75000J0D01*
G01*
G37*
G36*
G01*
X50051800Y-141057000D02*
X48601800Y-141057000D01*
G75*
G02*
X48526800Y-140982000I0J75000D01*
G01*
X48526800Y-140832000D01*
G75*
G02*
X48601800Y-140757000I75000J0D01*
G01*
X50051800Y-140757000D01*
G75*
G02*
X50126800Y-140832000I0J-75000D01*
G01*
X50126800Y-140982000D01*
G75*
G02*
X50051800Y-141057000I-75000J0D01*
G01*
G37*
G36*
G01*
X47726800Y-140032000D02*
X47576800Y-140032000D01*
G75*
G02*
X47501800Y-139957000I0J75000D01*
G01*
X47501800Y-138507000D01*
G75*
G02*
X47576800Y-138432000I75000J0D01*
G01*
X47726800Y-138432000D01*
G75*
G02*
X47801800Y-138507000I0J-75000D01*
G01*
X47801800Y-139957000D01*
G75*
G02*
X47726800Y-140032000I-75000J0D01*
G01*
G37*
G36*
G01*
X47226800Y-140032000D02*
X47076800Y-140032000D01*
G75*
G02*
X47001800Y-139957000I0J75000D01*
G01*
X47001800Y-138507000D01*
G75*
G02*
X47076800Y-138432000I75000J0D01*
G01*
X47226800Y-138432000D01*
G75*
G02*
X47301800Y-138507000I0J-75000D01*
G01*
X47301800Y-139957000D01*
G75*
G02*
X47226800Y-140032000I-75000J0D01*
G01*
G37*
G36*
G01*
X46726800Y-140032000D02*
X46576800Y-140032000D01*
G75*
G02*
X46501800Y-139957000I0J75000D01*
G01*
X46501800Y-138507000D01*
G75*
G02*
X46576800Y-138432000I75000J0D01*
G01*
X46726800Y-138432000D01*
G75*
G02*
X46801800Y-138507000I0J-75000D01*
G01*
X46801800Y-139957000D01*
G75*
G02*
X46726800Y-140032000I-75000J0D01*
G01*
G37*
G36*
G01*
X46226800Y-140032000D02*
X46076800Y-140032000D01*
G75*
G02*
X46001800Y-139957000I0J75000D01*
G01*
X46001800Y-138507000D01*
G75*
G02*
X46076800Y-138432000I75000J0D01*
G01*
X46226800Y-138432000D01*
G75*
G02*
X46301800Y-138507000I0J-75000D01*
G01*
X46301800Y-139957000D01*
G75*
G02*
X46226800Y-140032000I-75000J0D01*
G01*
G37*
G36*
G01*
X45726800Y-140032000D02*
X45576800Y-140032000D01*
G75*
G02*
X45501800Y-139957000I0J75000D01*
G01*
X45501800Y-138507000D01*
G75*
G02*
X45576800Y-138432000I75000J0D01*
G01*
X45726800Y-138432000D01*
G75*
G02*
X45801800Y-138507000I0J-75000D01*
G01*
X45801800Y-139957000D01*
G75*
G02*
X45726800Y-140032000I-75000J0D01*
G01*
G37*
G36*
G01*
X45226800Y-140032000D02*
X45076800Y-140032000D01*
G75*
G02*
X45001800Y-139957000I0J75000D01*
G01*
X45001800Y-138507000D01*
G75*
G02*
X45076800Y-138432000I75000J0D01*
G01*
X45226800Y-138432000D01*
G75*
G02*
X45301800Y-138507000I0J-75000D01*
G01*
X45301800Y-139957000D01*
G75*
G02*
X45226800Y-140032000I-75000J0D01*
G01*
G37*
G36*
G01*
X44726800Y-140032000D02*
X44576800Y-140032000D01*
G75*
G02*
X44501800Y-139957000I0J75000D01*
G01*
X44501800Y-138507000D01*
G75*
G02*
X44576800Y-138432000I75000J0D01*
G01*
X44726800Y-138432000D01*
G75*
G02*
X44801800Y-138507000I0J-75000D01*
G01*
X44801800Y-139957000D01*
G75*
G02*
X44726800Y-140032000I-75000J0D01*
G01*
G37*
G36*
G01*
X44226800Y-140032000D02*
X44076800Y-140032000D01*
G75*
G02*
X44001800Y-139957000I0J75000D01*
G01*
X44001800Y-138507000D01*
G75*
G02*
X44076800Y-138432000I75000J0D01*
G01*
X44226800Y-138432000D01*
G75*
G02*
X44301800Y-138507000I0J-75000D01*
G01*
X44301800Y-139957000D01*
G75*
G02*
X44226800Y-140032000I-75000J0D01*
G01*
G37*
G36*
G01*
X43726800Y-140032000D02*
X43576800Y-140032000D01*
G75*
G02*
X43501800Y-139957000I0J75000D01*
G01*
X43501800Y-138507000D01*
G75*
G02*
X43576800Y-138432000I75000J0D01*
G01*
X43726800Y-138432000D01*
G75*
G02*
X43801800Y-138507000I0J-75000D01*
G01*
X43801800Y-139957000D01*
G75*
G02*
X43726800Y-140032000I-75000J0D01*
G01*
G37*
G36*
G01*
X43226800Y-140032000D02*
X43076800Y-140032000D01*
G75*
G02*
X43001800Y-139957000I0J75000D01*
G01*
X43001800Y-138507000D01*
G75*
G02*
X43076800Y-138432000I75000J0D01*
G01*
X43226800Y-138432000D01*
G75*
G02*
X43301800Y-138507000I0J-75000D01*
G01*
X43301800Y-139957000D01*
G75*
G02*
X43226800Y-140032000I-75000J0D01*
G01*
G37*
G36*
G01*
X42726800Y-140032000D02*
X42576800Y-140032000D01*
G75*
G02*
X42501800Y-139957000I0J75000D01*
G01*
X42501800Y-138507000D01*
G75*
G02*
X42576800Y-138432000I75000J0D01*
G01*
X42726800Y-138432000D01*
G75*
G02*
X42801800Y-138507000I0J-75000D01*
G01*
X42801800Y-139957000D01*
G75*
G02*
X42726800Y-140032000I-75000J0D01*
G01*
G37*
G36*
G01*
X42226800Y-140032000D02*
X42076800Y-140032000D01*
G75*
G02*
X42001800Y-139957000I0J75000D01*
G01*
X42001800Y-138507000D01*
G75*
G02*
X42076800Y-138432000I75000J0D01*
G01*
X42226800Y-138432000D01*
G75*
G02*
X42301800Y-138507000I0J-75000D01*
G01*
X42301800Y-139957000D01*
G75*
G02*
X42226800Y-140032000I-75000J0D01*
G01*
G37*
G36*
G01*
X41726800Y-140032000D02*
X41576800Y-140032000D01*
G75*
G02*
X41501800Y-139957000I0J75000D01*
G01*
X41501800Y-138507000D01*
G75*
G02*
X41576800Y-138432000I75000J0D01*
G01*
X41726800Y-138432000D01*
G75*
G02*
X41801800Y-138507000I0J-75000D01*
G01*
X41801800Y-139957000D01*
G75*
G02*
X41726800Y-140032000I-75000J0D01*
G01*
G37*
G36*
G01*
X41226800Y-140032000D02*
X41076800Y-140032000D01*
G75*
G02*
X41001800Y-139957000I0J75000D01*
G01*
X41001800Y-138507000D01*
G75*
G02*
X41076800Y-138432000I75000J0D01*
G01*
X41226800Y-138432000D01*
G75*
G02*
X41301800Y-138507000I0J-75000D01*
G01*
X41301800Y-139957000D01*
G75*
G02*
X41226800Y-140032000I-75000J0D01*
G01*
G37*
G36*
G01*
X40726800Y-140032000D02*
X40576800Y-140032000D01*
G75*
G02*
X40501800Y-139957000I0J75000D01*
G01*
X40501800Y-138507000D01*
G75*
G02*
X40576800Y-138432000I75000J0D01*
G01*
X40726800Y-138432000D01*
G75*
G02*
X40801800Y-138507000I0J-75000D01*
G01*
X40801800Y-139957000D01*
G75*
G02*
X40726800Y-140032000I-75000J0D01*
G01*
G37*
G36*
G01*
X40226800Y-140032000D02*
X40076800Y-140032000D01*
G75*
G02*
X40001800Y-139957000I0J75000D01*
G01*
X40001800Y-138507000D01*
G75*
G02*
X40076800Y-138432000I75000J0D01*
G01*
X40226800Y-138432000D01*
G75*
G02*
X40301800Y-138507000I0J-75000D01*
G01*
X40301800Y-139957000D01*
G75*
G02*
X40226800Y-140032000I-75000J0D01*
G01*
G37*
G36*
G01*
X39726800Y-140032000D02*
X39576800Y-140032000D01*
G75*
G02*
X39501800Y-139957000I0J75000D01*
G01*
X39501800Y-138507000D01*
G75*
G02*
X39576800Y-138432000I75000J0D01*
G01*
X39726800Y-138432000D01*
G75*
G02*
X39801800Y-138507000I0J-75000D01*
G01*
X39801800Y-139957000D01*
G75*
G02*
X39726800Y-140032000I-75000J0D01*
G01*
G37*
G36*
G01*
X39226800Y-140032000D02*
X39076800Y-140032000D01*
G75*
G02*
X39001800Y-139957000I0J75000D01*
G01*
X39001800Y-138507000D01*
G75*
G02*
X39076800Y-138432000I75000J0D01*
G01*
X39226800Y-138432000D01*
G75*
G02*
X39301800Y-138507000I0J-75000D01*
G01*
X39301800Y-139957000D01*
G75*
G02*
X39226800Y-140032000I-75000J0D01*
G01*
G37*
G36*
G01*
X38726800Y-140032000D02*
X38576800Y-140032000D01*
G75*
G02*
X38501800Y-139957000I0J75000D01*
G01*
X38501800Y-138507000D01*
G75*
G02*
X38576800Y-138432000I75000J0D01*
G01*
X38726800Y-138432000D01*
G75*
G02*
X38801800Y-138507000I0J-75000D01*
G01*
X38801800Y-139957000D01*
G75*
G02*
X38726800Y-140032000I-75000J0D01*
G01*
G37*
G36*
G01*
X38226800Y-140032000D02*
X38076800Y-140032000D01*
G75*
G02*
X38001800Y-139957000I0J75000D01*
G01*
X38001800Y-138507000D01*
G75*
G02*
X38076800Y-138432000I75000J0D01*
G01*
X38226800Y-138432000D01*
G75*
G02*
X38301800Y-138507000I0J-75000D01*
G01*
X38301800Y-139957000D01*
G75*
G02*
X38226800Y-140032000I-75000J0D01*
G01*
G37*
G36*
G01*
X37726800Y-140032000D02*
X37576800Y-140032000D01*
G75*
G02*
X37501800Y-139957000I0J75000D01*
G01*
X37501800Y-138507000D01*
G75*
G02*
X37576800Y-138432000I75000J0D01*
G01*
X37726800Y-138432000D01*
G75*
G02*
X37801800Y-138507000I0J-75000D01*
G01*
X37801800Y-139957000D01*
G75*
G02*
X37726800Y-140032000I-75000J0D01*
G01*
G37*
G36*
G01*
X37226800Y-140032000D02*
X37076800Y-140032000D01*
G75*
G02*
X37001800Y-139957000I0J75000D01*
G01*
X37001800Y-138507000D01*
G75*
G02*
X37076800Y-138432000I75000J0D01*
G01*
X37226800Y-138432000D01*
G75*
G02*
X37301800Y-138507000I0J-75000D01*
G01*
X37301800Y-139957000D01*
G75*
G02*
X37226800Y-140032000I-75000J0D01*
G01*
G37*
G36*
G01*
X36726800Y-140032000D02*
X36576800Y-140032000D01*
G75*
G02*
X36501800Y-139957000I0J75000D01*
G01*
X36501800Y-138507000D01*
G75*
G02*
X36576800Y-138432000I75000J0D01*
G01*
X36726800Y-138432000D01*
G75*
G02*
X36801800Y-138507000I0J-75000D01*
G01*
X36801800Y-139957000D01*
G75*
G02*
X36726800Y-140032000I-75000J0D01*
G01*
G37*
G36*
G01*
X36226800Y-140032000D02*
X36076800Y-140032000D01*
G75*
G02*
X36001800Y-139957000I0J75000D01*
G01*
X36001800Y-138507000D01*
G75*
G02*
X36076800Y-138432000I75000J0D01*
G01*
X36226800Y-138432000D01*
G75*
G02*
X36301800Y-138507000I0J-75000D01*
G01*
X36301800Y-139957000D01*
G75*
G02*
X36226800Y-140032000I-75000J0D01*
G01*
G37*
G36*
G01*
X35726800Y-140032000D02*
X35576800Y-140032000D01*
G75*
G02*
X35501800Y-139957000I0J75000D01*
G01*
X35501800Y-138507000D01*
G75*
G02*
X35576800Y-138432000I75000J0D01*
G01*
X35726800Y-138432000D01*
G75*
G02*
X35801800Y-138507000I0J-75000D01*
G01*
X35801800Y-139957000D01*
G75*
G02*
X35726800Y-140032000I-75000J0D01*
G01*
G37*
G36*
G01*
X34701800Y-141057000D02*
X33251800Y-141057000D01*
G75*
G02*
X33176800Y-140982000I0J75000D01*
G01*
X33176800Y-140832000D01*
G75*
G02*
X33251800Y-140757000I75000J0D01*
G01*
X34701800Y-140757000D01*
G75*
G02*
X34776800Y-140832000I0J-75000D01*
G01*
X34776800Y-140982000D01*
G75*
G02*
X34701800Y-141057000I-75000J0D01*
G01*
G37*
G36*
G01*
X34701800Y-141557000D02*
X33251800Y-141557000D01*
G75*
G02*
X33176800Y-141482000I0J75000D01*
G01*
X33176800Y-141332000D01*
G75*
G02*
X33251800Y-141257000I75000J0D01*
G01*
X34701800Y-141257000D01*
G75*
G02*
X34776800Y-141332000I0J-75000D01*
G01*
X34776800Y-141482000D01*
G75*
G02*
X34701800Y-141557000I-75000J0D01*
G01*
G37*
G36*
G01*
X34701800Y-142057000D02*
X33251800Y-142057000D01*
G75*
G02*
X33176800Y-141982000I0J75000D01*
G01*
X33176800Y-141832000D01*
G75*
G02*
X33251800Y-141757000I75000J0D01*
G01*
X34701800Y-141757000D01*
G75*
G02*
X34776800Y-141832000I0J-75000D01*
G01*
X34776800Y-141982000D01*
G75*
G02*
X34701800Y-142057000I-75000J0D01*
G01*
G37*
G36*
G01*
X34701800Y-142557000D02*
X33251800Y-142557000D01*
G75*
G02*
X33176800Y-142482000I0J75000D01*
G01*
X33176800Y-142332000D01*
G75*
G02*
X33251800Y-142257000I75000J0D01*
G01*
X34701800Y-142257000D01*
G75*
G02*
X34776800Y-142332000I0J-75000D01*
G01*
X34776800Y-142482000D01*
G75*
G02*
X34701800Y-142557000I-75000J0D01*
G01*
G37*
G36*
G01*
X34701800Y-143057000D02*
X33251800Y-143057000D01*
G75*
G02*
X33176800Y-142982000I0J75000D01*
G01*
X33176800Y-142832000D01*
G75*
G02*
X33251800Y-142757000I75000J0D01*
G01*
X34701800Y-142757000D01*
G75*
G02*
X34776800Y-142832000I0J-75000D01*
G01*
X34776800Y-142982000D01*
G75*
G02*
X34701800Y-143057000I-75000J0D01*
G01*
G37*
G36*
G01*
X34701800Y-143557000D02*
X33251800Y-143557000D01*
G75*
G02*
X33176800Y-143482000I0J75000D01*
G01*
X33176800Y-143332000D01*
G75*
G02*
X33251800Y-143257000I75000J0D01*
G01*
X34701800Y-143257000D01*
G75*
G02*
X34776800Y-143332000I0J-75000D01*
G01*
X34776800Y-143482000D01*
G75*
G02*
X34701800Y-143557000I-75000J0D01*
G01*
G37*
G36*
G01*
X34701800Y-144057000D02*
X33251800Y-144057000D01*
G75*
G02*
X33176800Y-143982000I0J75000D01*
G01*
X33176800Y-143832000D01*
G75*
G02*
X33251800Y-143757000I75000J0D01*
G01*
X34701800Y-143757000D01*
G75*
G02*
X34776800Y-143832000I0J-75000D01*
G01*
X34776800Y-143982000D01*
G75*
G02*
X34701800Y-144057000I-75000J0D01*
G01*
G37*
G36*
G01*
X34701800Y-144557000D02*
X33251800Y-144557000D01*
G75*
G02*
X33176800Y-144482000I0J75000D01*
G01*
X33176800Y-144332000D01*
G75*
G02*
X33251800Y-144257000I75000J0D01*
G01*
X34701800Y-144257000D01*
G75*
G02*
X34776800Y-144332000I0J-75000D01*
G01*
X34776800Y-144482000D01*
G75*
G02*
X34701800Y-144557000I-75000J0D01*
G01*
G37*
G36*
G01*
X34701800Y-145057000D02*
X33251800Y-145057000D01*
G75*
G02*
X33176800Y-144982000I0J75000D01*
G01*
X33176800Y-144832000D01*
G75*
G02*
X33251800Y-144757000I75000J0D01*
G01*
X34701800Y-144757000D01*
G75*
G02*
X34776800Y-144832000I0J-75000D01*
G01*
X34776800Y-144982000D01*
G75*
G02*
X34701800Y-145057000I-75000J0D01*
G01*
G37*
G36*
G01*
X34701800Y-145557000D02*
X33251800Y-145557000D01*
G75*
G02*
X33176800Y-145482000I0J75000D01*
G01*
X33176800Y-145332000D01*
G75*
G02*
X33251800Y-145257000I75000J0D01*
G01*
X34701800Y-145257000D01*
G75*
G02*
X34776800Y-145332000I0J-75000D01*
G01*
X34776800Y-145482000D01*
G75*
G02*
X34701800Y-145557000I-75000J0D01*
G01*
G37*
G36*
G01*
X34701800Y-146057000D02*
X33251800Y-146057000D01*
G75*
G02*
X33176800Y-145982000I0J75000D01*
G01*
X33176800Y-145832000D01*
G75*
G02*
X33251800Y-145757000I75000J0D01*
G01*
X34701800Y-145757000D01*
G75*
G02*
X34776800Y-145832000I0J-75000D01*
G01*
X34776800Y-145982000D01*
G75*
G02*
X34701800Y-146057000I-75000J0D01*
G01*
G37*
G36*
G01*
X34701800Y-146557000D02*
X33251800Y-146557000D01*
G75*
G02*
X33176800Y-146482000I0J75000D01*
G01*
X33176800Y-146332000D01*
G75*
G02*
X33251800Y-146257000I75000J0D01*
G01*
X34701800Y-146257000D01*
G75*
G02*
X34776800Y-146332000I0J-75000D01*
G01*
X34776800Y-146482000D01*
G75*
G02*
X34701800Y-146557000I-75000J0D01*
G01*
G37*
G36*
G01*
X34701800Y-147057000D02*
X33251800Y-147057000D01*
G75*
G02*
X33176800Y-146982000I0J75000D01*
G01*
X33176800Y-146832000D01*
G75*
G02*
X33251800Y-146757000I75000J0D01*
G01*
X34701800Y-146757000D01*
G75*
G02*
X34776800Y-146832000I0J-75000D01*
G01*
X34776800Y-146982000D01*
G75*
G02*
X34701800Y-147057000I-75000J0D01*
G01*
G37*
G36*
G01*
X34701800Y-147557000D02*
X33251800Y-147557000D01*
G75*
G02*
X33176800Y-147482000I0J75000D01*
G01*
X33176800Y-147332000D01*
G75*
G02*
X33251800Y-147257000I75000J0D01*
G01*
X34701800Y-147257000D01*
G75*
G02*
X34776800Y-147332000I0J-75000D01*
G01*
X34776800Y-147482000D01*
G75*
G02*
X34701800Y-147557000I-75000J0D01*
G01*
G37*
G36*
G01*
X34701800Y-148057000D02*
X33251800Y-148057000D01*
G75*
G02*
X33176800Y-147982000I0J75000D01*
G01*
X33176800Y-147832000D01*
G75*
G02*
X33251800Y-147757000I75000J0D01*
G01*
X34701800Y-147757000D01*
G75*
G02*
X34776800Y-147832000I0J-75000D01*
G01*
X34776800Y-147982000D01*
G75*
G02*
X34701800Y-148057000I-75000J0D01*
G01*
G37*
G36*
G01*
X34701800Y-148557000D02*
X33251800Y-148557000D01*
G75*
G02*
X33176800Y-148482000I0J75000D01*
G01*
X33176800Y-148332000D01*
G75*
G02*
X33251800Y-148257000I75000J0D01*
G01*
X34701800Y-148257000D01*
G75*
G02*
X34776800Y-148332000I0J-75000D01*
G01*
X34776800Y-148482000D01*
G75*
G02*
X34701800Y-148557000I-75000J0D01*
G01*
G37*
G36*
G01*
X34701800Y-149057000D02*
X33251800Y-149057000D01*
G75*
G02*
X33176800Y-148982000I0J75000D01*
G01*
X33176800Y-148832000D01*
G75*
G02*
X33251800Y-148757000I75000J0D01*
G01*
X34701800Y-148757000D01*
G75*
G02*
X34776800Y-148832000I0J-75000D01*
G01*
X34776800Y-148982000D01*
G75*
G02*
X34701800Y-149057000I-75000J0D01*
G01*
G37*
G36*
G01*
X34701800Y-149557000D02*
X33251800Y-149557000D01*
G75*
G02*
X33176800Y-149482000I0J75000D01*
G01*
X33176800Y-149332000D01*
G75*
G02*
X33251800Y-149257000I75000J0D01*
G01*
X34701800Y-149257000D01*
G75*
G02*
X34776800Y-149332000I0J-75000D01*
G01*
X34776800Y-149482000D01*
G75*
G02*
X34701800Y-149557000I-75000J0D01*
G01*
G37*
G36*
G01*
X34701800Y-150057000D02*
X33251800Y-150057000D01*
G75*
G02*
X33176800Y-149982000I0J75000D01*
G01*
X33176800Y-149832000D01*
G75*
G02*
X33251800Y-149757000I75000J0D01*
G01*
X34701800Y-149757000D01*
G75*
G02*
X34776800Y-149832000I0J-75000D01*
G01*
X34776800Y-149982000D01*
G75*
G02*
X34701800Y-150057000I-75000J0D01*
G01*
G37*
G36*
G01*
X34701800Y-150557000D02*
X33251800Y-150557000D01*
G75*
G02*
X33176800Y-150482000I0J75000D01*
G01*
X33176800Y-150332000D01*
G75*
G02*
X33251800Y-150257000I75000J0D01*
G01*
X34701800Y-150257000D01*
G75*
G02*
X34776800Y-150332000I0J-75000D01*
G01*
X34776800Y-150482000D01*
G75*
G02*
X34701800Y-150557000I-75000J0D01*
G01*
G37*
G36*
G01*
X34701800Y-151057000D02*
X33251800Y-151057000D01*
G75*
G02*
X33176800Y-150982000I0J75000D01*
G01*
X33176800Y-150832000D01*
G75*
G02*
X33251800Y-150757000I75000J0D01*
G01*
X34701800Y-150757000D01*
G75*
G02*
X34776800Y-150832000I0J-75000D01*
G01*
X34776800Y-150982000D01*
G75*
G02*
X34701800Y-151057000I-75000J0D01*
G01*
G37*
G36*
G01*
X34701800Y-151557000D02*
X33251800Y-151557000D01*
G75*
G02*
X33176800Y-151482000I0J75000D01*
G01*
X33176800Y-151332000D01*
G75*
G02*
X33251800Y-151257000I75000J0D01*
G01*
X34701800Y-151257000D01*
G75*
G02*
X34776800Y-151332000I0J-75000D01*
G01*
X34776800Y-151482000D01*
G75*
G02*
X34701800Y-151557000I-75000J0D01*
G01*
G37*
G36*
G01*
X34701800Y-152057000D02*
X33251800Y-152057000D01*
G75*
G02*
X33176800Y-151982000I0J75000D01*
G01*
X33176800Y-151832000D01*
G75*
G02*
X33251800Y-151757000I75000J0D01*
G01*
X34701800Y-151757000D01*
G75*
G02*
X34776800Y-151832000I0J-75000D01*
G01*
X34776800Y-151982000D01*
G75*
G02*
X34701800Y-152057000I-75000J0D01*
G01*
G37*
G36*
G01*
X34701800Y-152557000D02*
X33251800Y-152557000D01*
G75*
G02*
X33176800Y-152482000I0J75000D01*
G01*
X33176800Y-152332000D01*
G75*
G02*
X33251800Y-152257000I75000J0D01*
G01*
X34701800Y-152257000D01*
G75*
G02*
X34776800Y-152332000I0J-75000D01*
G01*
X34776800Y-152482000D01*
G75*
G02*
X34701800Y-152557000I-75000J0D01*
G01*
G37*
G36*
G01*
X34701800Y-153057000D02*
X33251800Y-153057000D01*
G75*
G02*
X33176800Y-152982000I0J75000D01*
G01*
X33176800Y-152832000D01*
G75*
G02*
X33251800Y-152757000I75000J0D01*
G01*
X34701800Y-152757000D01*
G75*
G02*
X34776800Y-152832000I0J-75000D01*
G01*
X34776800Y-152982000D01*
G75*
G02*
X34701800Y-153057000I-75000J0D01*
G01*
G37*
G36*
G01*
X35726800Y-155382000D02*
X35576800Y-155382000D01*
G75*
G02*
X35501800Y-155307000I0J75000D01*
G01*
X35501800Y-153857000D01*
G75*
G02*
X35576800Y-153782000I75000J0D01*
G01*
X35726800Y-153782000D01*
G75*
G02*
X35801800Y-153857000I0J-75000D01*
G01*
X35801800Y-155307000D01*
G75*
G02*
X35726800Y-155382000I-75000J0D01*
G01*
G37*
G36*
G01*
X36226800Y-155382000D02*
X36076800Y-155382000D01*
G75*
G02*
X36001800Y-155307000I0J75000D01*
G01*
X36001800Y-153857000D01*
G75*
G02*
X36076800Y-153782000I75000J0D01*
G01*
X36226800Y-153782000D01*
G75*
G02*
X36301800Y-153857000I0J-75000D01*
G01*
X36301800Y-155307000D01*
G75*
G02*
X36226800Y-155382000I-75000J0D01*
G01*
G37*
G36*
G01*
X36726800Y-155382000D02*
X36576800Y-155382000D01*
G75*
G02*
X36501800Y-155307000I0J75000D01*
G01*
X36501800Y-153857000D01*
G75*
G02*
X36576800Y-153782000I75000J0D01*
G01*
X36726800Y-153782000D01*
G75*
G02*
X36801800Y-153857000I0J-75000D01*
G01*
X36801800Y-155307000D01*
G75*
G02*
X36726800Y-155382000I-75000J0D01*
G01*
G37*
G36*
G01*
X37226800Y-155382000D02*
X37076800Y-155382000D01*
G75*
G02*
X37001800Y-155307000I0J75000D01*
G01*
X37001800Y-153857000D01*
G75*
G02*
X37076800Y-153782000I75000J0D01*
G01*
X37226800Y-153782000D01*
G75*
G02*
X37301800Y-153857000I0J-75000D01*
G01*
X37301800Y-155307000D01*
G75*
G02*
X37226800Y-155382000I-75000J0D01*
G01*
G37*
G36*
G01*
X37726800Y-155382000D02*
X37576800Y-155382000D01*
G75*
G02*
X37501800Y-155307000I0J75000D01*
G01*
X37501800Y-153857000D01*
G75*
G02*
X37576800Y-153782000I75000J0D01*
G01*
X37726800Y-153782000D01*
G75*
G02*
X37801800Y-153857000I0J-75000D01*
G01*
X37801800Y-155307000D01*
G75*
G02*
X37726800Y-155382000I-75000J0D01*
G01*
G37*
G36*
G01*
X38226800Y-155382000D02*
X38076800Y-155382000D01*
G75*
G02*
X38001800Y-155307000I0J75000D01*
G01*
X38001800Y-153857000D01*
G75*
G02*
X38076800Y-153782000I75000J0D01*
G01*
X38226800Y-153782000D01*
G75*
G02*
X38301800Y-153857000I0J-75000D01*
G01*
X38301800Y-155307000D01*
G75*
G02*
X38226800Y-155382000I-75000J0D01*
G01*
G37*
G36*
G01*
X38726800Y-155382000D02*
X38576800Y-155382000D01*
G75*
G02*
X38501800Y-155307000I0J75000D01*
G01*
X38501800Y-153857000D01*
G75*
G02*
X38576800Y-153782000I75000J0D01*
G01*
X38726800Y-153782000D01*
G75*
G02*
X38801800Y-153857000I0J-75000D01*
G01*
X38801800Y-155307000D01*
G75*
G02*
X38726800Y-155382000I-75000J0D01*
G01*
G37*
G36*
G01*
X39226800Y-155382000D02*
X39076800Y-155382000D01*
G75*
G02*
X39001800Y-155307000I0J75000D01*
G01*
X39001800Y-153857000D01*
G75*
G02*
X39076800Y-153782000I75000J0D01*
G01*
X39226800Y-153782000D01*
G75*
G02*
X39301800Y-153857000I0J-75000D01*
G01*
X39301800Y-155307000D01*
G75*
G02*
X39226800Y-155382000I-75000J0D01*
G01*
G37*
G36*
G01*
X39726800Y-155382000D02*
X39576800Y-155382000D01*
G75*
G02*
X39501800Y-155307000I0J75000D01*
G01*
X39501800Y-153857000D01*
G75*
G02*
X39576800Y-153782000I75000J0D01*
G01*
X39726800Y-153782000D01*
G75*
G02*
X39801800Y-153857000I0J-75000D01*
G01*
X39801800Y-155307000D01*
G75*
G02*
X39726800Y-155382000I-75000J0D01*
G01*
G37*
G36*
G01*
X40226800Y-155382000D02*
X40076800Y-155382000D01*
G75*
G02*
X40001800Y-155307000I0J75000D01*
G01*
X40001800Y-153857000D01*
G75*
G02*
X40076800Y-153782000I75000J0D01*
G01*
X40226800Y-153782000D01*
G75*
G02*
X40301800Y-153857000I0J-75000D01*
G01*
X40301800Y-155307000D01*
G75*
G02*
X40226800Y-155382000I-75000J0D01*
G01*
G37*
G36*
G01*
X40726800Y-155382000D02*
X40576800Y-155382000D01*
G75*
G02*
X40501800Y-155307000I0J75000D01*
G01*
X40501800Y-153857000D01*
G75*
G02*
X40576800Y-153782000I75000J0D01*
G01*
X40726800Y-153782000D01*
G75*
G02*
X40801800Y-153857000I0J-75000D01*
G01*
X40801800Y-155307000D01*
G75*
G02*
X40726800Y-155382000I-75000J0D01*
G01*
G37*
G36*
G01*
X41226800Y-155382000D02*
X41076800Y-155382000D01*
G75*
G02*
X41001800Y-155307000I0J75000D01*
G01*
X41001800Y-153857000D01*
G75*
G02*
X41076800Y-153782000I75000J0D01*
G01*
X41226800Y-153782000D01*
G75*
G02*
X41301800Y-153857000I0J-75000D01*
G01*
X41301800Y-155307000D01*
G75*
G02*
X41226800Y-155382000I-75000J0D01*
G01*
G37*
G36*
G01*
X41726800Y-155382000D02*
X41576800Y-155382000D01*
G75*
G02*
X41501800Y-155307000I0J75000D01*
G01*
X41501800Y-153857000D01*
G75*
G02*
X41576800Y-153782000I75000J0D01*
G01*
X41726800Y-153782000D01*
G75*
G02*
X41801800Y-153857000I0J-75000D01*
G01*
X41801800Y-155307000D01*
G75*
G02*
X41726800Y-155382000I-75000J0D01*
G01*
G37*
G36*
G01*
X42226800Y-155382000D02*
X42076800Y-155382000D01*
G75*
G02*
X42001800Y-155307000I0J75000D01*
G01*
X42001800Y-153857000D01*
G75*
G02*
X42076800Y-153782000I75000J0D01*
G01*
X42226800Y-153782000D01*
G75*
G02*
X42301800Y-153857000I0J-75000D01*
G01*
X42301800Y-155307000D01*
G75*
G02*
X42226800Y-155382000I-75000J0D01*
G01*
G37*
G36*
G01*
X42726800Y-155382000D02*
X42576800Y-155382000D01*
G75*
G02*
X42501800Y-155307000I0J75000D01*
G01*
X42501800Y-153857000D01*
G75*
G02*
X42576800Y-153782000I75000J0D01*
G01*
X42726800Y-153782000D01*
G75*
G02*
X42801800Y-153857000I0J-75000D01*
G01*
X42801800Y-155307000D01*
G75*
G02*
X42726800Y-155382000I-75000J0D01*
G01*
G37*
G36*
G01*
X43226800Y-155382000D02*
X43076800Y-155382000D01*
G75*
G02*
X43001800Y-155307000I0J75000D01*
G01*
X43001800Y-153857000D01*
G75*
G02*
X43076800Y-153782000I75000J0D01*
G01*
X43226800Y-153782000D01*
G75*
G02*
X43301800Y-153857000I0J-75000D01*
G01*
X43301800Y-155307000D01*
G75*
G02*
X43226800Y-155382000I-75000J0D01*
G01*
G37*
G36*
G01*
X43726800Y-155382000D02*
X43576800Y-155382000D01*
G75*
G02*
X43501800Y-155307000I0J75000D01*
G01*
X43501800Y-153857000D01*
G75*
G02*
X43576800Y-153782000I75000J0D01*
G01*
X43726800Y-153782000D01*
G75*
G02*
X43801800Y-153857000I0J-75000D01*
G01*
X43801800Y-155307000D01*
G75*
G02*
X43726800Y-155382000I-75000J0D01*
G01*
G37*
G36*
G01*
X44226800Y-155382000D02*
X44076800Y-155382000D01*
G75*
G02*
X44001800Y-155307000I0J75000D01*
G01*
X44001800Y-153857000D01*
G75*
G02*
X44076800Y-153782000I75000J0D01*
G01*
X44226800Y-153782000D01*
G75*
G02*
X44301800Y-153857000I0J-75000D01*
G01*
X44301800Y-155307000D01*
G75*
G02*
X44226800Y-155382000I-75000J0D01*
G01*
G37*
G36*
G01*
X44726800Y-155382000D02*
X44576800Y-155382000D01*
G75*
G02*
X44501800Y-155307000I0J75000D01*
G01*
X44501800Y-153857000D01*
G75*
G02*
X44576800Y-153782000I75000J0D01*
G01*
X44726800Y-153782000D01*
G75*
G02*
X44801800Y-153857000I0J-75000D01*
G01*
X44801800Y-155307000D01*
G75*
G02*
X44726800Y-155382000I-75000J0D01*
G01*
G37*
G36*
G01*
X45226800Y-155382000D02*
X45076800Y-155382000D01*
G75*
G02*
X45001800Y-155307000I0J75000D01*
G01*
X45001800Y-153857000D01*
G75*
G02*
X45076800Y-153782000I75000J0D01*
G01*
X45226800Y-153782000D01*
G75*
G02*
X45301800Y-153857000I0J-75000D01*
G01*
X45301800Y-155307000D01*
G75*
G02*
X45226800Y-155382000I-75000J0D01*
G01*
G37*
G36*
G01*
X45726800Y-155382000D02*
X45576800Y-155382000D01*
G75*
G02*
X45501800Y-155307000I0J75000D01*
G01*
X45501800Y-153857000D01*
G75*
G02*
X45576800Y-153782000I75000J0D01*
G01*
X45726800Y-153782000D01*
G75*
G02*
X45801800Y-153857000I0J-75000D01*
G01*
X45801800Y-155307000D01*
G75*
G02*
X45726800Y-155382000I-75000J0D01*
G01*
G37*
G36*
G01*
X46226800Y-155382000D02*
X46076800Y-155382000D01*
G75*
G02*
X46001800Y-155307000I0J75000D01*
G01*
X46001800Y-153857000D01*
G75*
G02*
X46076800Y-153782000I75000J0D01*
G01*
X46226800Y-153782000D01*
G75*
G02*
X46301800Y-153857000I0J-75000D01*
G01*
X46301800Y-155307000D01*
G75*
G02*
X46226800Y-155382000I-75000J0D01*
G01*
G37*
G36*
G01*
X46726800Y-155382000D02*
X46576800Y-155382000D01*
G75*
G02*
X46501800Y-155307000I0J75000D01*
G01*
X46501800Y-153857000D01*
G75*
G02*
X46576800Y-153782000I75000J0D01*
G01*
X46726800Y-153782000D01*
G75*
G02*
X46801800Y-153857000I0J-75000D01*
G01*
X46801800Y-155307000D01*
G75*
G02*
X46726800Y-155382000I-75000J0D01*
G01*
G37*
G36*
G01*
X47226800Y-155382000D02*
X47076800Y-155382000D01*
G75*
G02*
X47001800Y-155307000I0J75000D01*
G01*
X47001800Y-153857000D01*
G75*
G02*
X47076800Y-153782000I75000J0D01*
G01*
X47226800Y-153782000D01*
G75*
G02*
X47301800Y-153857000I0J-75000D01*
G01*
X47301800Y-155307000D01*
G75*
G02*
X47226800Y-155382000I-75000J0D01*
G01*
G37*
G36*
G01*
X47726800Y-155382000D02*
X47576800Y-155382000D01*
G75*
G02*
X47501800Y-155307000I0J75000D01*
G01*
X47501800Y-153857000D01*
G75*
G02*
X47576800Y-153782000I75000J0D01*
G01*
X47726800Y-153782000D01*
G75*
G02*
X47801800Y-153857000I0J-75000D01*
G01*
X47801800Y-155307000D01*
G75*
G02*
X47726800Y-155382000I-75000J0D01*
G01*
G37*
D10*
X55321200Y-123288300D03*
X56271200Y-121288300D03*
X54371200Y-121288300D03*
G36*
G01*
X54452000Y-120004550D02*
X54452000Y-119492050D01*
G75*
G02*
X54670750Y-119273300I218750J0D01*
G01*
X55108250Y-119273300D01*
G75*
G02*
X55327000Y-119492050I0J-218750D01*
G01*
X55327000Y-120004550D01*
G75*
G02*
X55108250Y-120223300I-218750J0D01*
G01*
X54670750Y-120223300D01*
G75*
G02*
X54452000Y-120004550I0J218750D01*
G01*
G37*
G36*
G01*
X52877000Y-120004550D02*
X52877000Y-119492050D01*
G75*
G02*
X53095750Y-119273300I218750J0D01*
G01*
X53533250Y-119273300D01*
G75*
G02*
X53752000Y-119492050I0J-218750D01*
G01*
X53752000Y-120004550D01*
G75*
G02*
X53533250Y-120223300I-218750J0D01*
G01*
X53095750Y-120223300D01*
G75*
G02*
X52877000Y-120004550I0J218750D01*
G01*
G37*
G36*
G01*
X53020250Y-108922400D02*
X53532750Y-108922400D01*
G75*
G02*
X53751500Y-109141150I0J-218750D01*
G01*
X53751500Y-109578650D01*
G75*
G02*
X53532750Y-109797400I-218750J0D01*
G01*
X53020250Y-109797400D01*
G75*
G02*
X52801500Y-109578650I0J218750D01*
G01*
X52801500Y-109141150D01*
G75*
G02*
X53020250Y-108922400I218750J0D01*
G01*
G37*
G36*
G01*
X53020250Y-107347400D02*
X53532750Y-107347400D01*
G75*
G02*
X53751500Y-107566150I0J-218750D01*
G01*
X53751500Y-108003650D01*
G75*
G02*
X53532750Y-108222400I-218750J0D01*
G01*
X53020250Y-108222400D01*
G75*
G02*
X52801500Y-108003650I0J218750D01*
G01*
X52801500Y-107566150D01*
G75*
G02*
X53020250Y-107347400I218750J0D01*
G01*
G37*
G36*
G01*
X51572450Y-108109600D02*
X52084950Y-108109600D01*
G75*
G02*
X52303700Y-108328350I0J-218750D01*
G01*
X52303700Y-108765850D01*
G75*
G02*
X52084950Y-108984600I-218750J0D01*
G01*
X51572450Y-108984600D01*
G75*
G02*
X51353700Y-108765850I0J218750D01*
G01*
X51353700Y-108328350D01*
G75*
G02*
X51572450Y-108109600I218750J0D01*
G01*
G37*
G36*
G01*
X51572450Y-106534600D02*
X52084950Y-106534600D01*
G75*
G02*
X52303700Y-106753350I0J-218750D01*
G01*
X52303700Y-107190850D01*
G75*
G02*
X52084950Y-107409600I-218750J0D01*
G01*
X51572450Y-107409600D01*
G75*
G02*
X51353700Y-107190850I0J218750D01*
G01*
X51353700Y-106753350D01*
G75*
G02*
X51572450Y-106534600I218750J0D01*
G01*
G37*
G36*
G01*
X42547250Y-168509300D02*
X42034750Y-168509300D01*
G75*
G02*
X41816000Y-168290550I0J218750D01*
G01*
X41816000Y-167853050D01*
G75*
G02*
X42034750Y-167634300I218750J0D01*
G01*
X42547250Y-167634300D01*
G75*
G02*
X42766000Y-167853050I0J-218750D01*
G01*
X42766000Y-168290550D01*
G75*
G02*
X42547250Y-168509300I-218750J0D01*
G01*
G37*
G36*
G01*
X42547250Y-170084300D02*
X42034750Y-170084300D01*
G75*
G02*
X41816000Y-169865550I0J218750D01*
G01*
X41816000Y-169428050D01*
G75*
G02*
X42034750Y-169209300I218750J0D01*
G01*
X42547250Y-169209300D01*
G75*
G02*
X42766000Y-169428050I0J-218750D01*
G01*
X42766000Y-169865550D01*
G75*
G02*
X42547250Y-170084300I-218750J0D01*
G01*
G37*
G36*
G01*
X32442800Y-109615950D02*
X32442800Y-109103450D01*
G75*
G02*
X32661550Y-108884700I218750J0D01*
G01*
X33099050Y-108884700D01*
G75*
G02*
X33317800Y-109103450I0J-218750D01*
G01*
X33317800Y-109615950D01*
G75*
G02*
X33099050Y-109834700I-218750J0D01*
G01*
X32661550Y-109834700D01*
G75*
G02*
X32442800Y-109615950I0J218750D01*
G01*
G37*
G36*
G01*
X30867800Y-109615950D02*
X30867800Y-109103450D01*
G75*
G02*
X31086550Y-108884700I218750J0D01*
G01*
X31524050Y-108884700D01*
G75*
G02*
X31742800Y-109103450I0J-218750D01*
G01*
X31742800Y-109615950D01*
G75*
G02*
X31524050Y-109834700I-218750J0D01*
G01*
X31086550Y-109834700D01*
G75*
G02*
X30867800Y-109615950I0J218750D01*
G01*
G37*
G36*
G01*
X35440000Y-109628650D02*
X35440000Y-109116150D01*
G75*
G02*
X35658750Y-108897400I218750J0D01*
G01*
X36096250Y-108897400D01*
G75*
G02*
X36315000Y-109116150I0J-218750D01*
G01*
X36315000Y-109628650D01*
G75*
G02*
X36096250Y-109847400I-218750J0D01*
G01*
X35658750Y-109847400D01*
G75*
G02*
X35440000Y-109628650I0J218750D01*
G01*
G37*
G36*
G01*
X33865000Y-109628650D02*
X33865000Y-109116150D01*
G75*
G02*
X34083750Y-108897400I218750J0D01*
G01*
X34521250Y-108897400D01*
G75*
G02*
X34740000Y-109116150I0J-218750D01*
G01*
X34740000Y-109628650D01*
G75*
G02*
X34521250Y-109847400I-218750J0D01*
G01*
X34083750Y-109847400D01*
G75*
G02*
X33865000Y-109628650I0J218750D01*
G01*
G37*
G36*
G01*
X34727500Y-111440250D02*
X34727500Y-111952750D01*
G75*
G02*
X34508750Y-112171500I-218750J0D01*
G01*
X34071250Y-112171500D01*
G75*
G02*
X33852500Y-111952750I0J218750D01*
G01*
X33852500Y-111440250D01*
G75*
G02*
X34071250Y-111221500I218750J0D01*
G01*
X34508750Y-111221500D01*
G75*
G02*
X34727500Y-111440250I0J-218750D01*
G01*
G37*
G36*
G01*
X36302500Y-111440250D02*
X36302500Y-111952750D01*
G75*
G02*
X36083750Y-112171500I-218750J0D01*
G01*
X35646250Y-112171500D01*
G75*
G02*
X35427500Y-111952750I0J218750D01*
G01*
X35427500Y-111440250D01*
G75*
G02*
X35646250Y-111221500I218750J0D01*
G01*
X36083750Y-111221500D01*
G75*
G02*
X36302500Y-111440250I0J-218750D01*
G01*
G37*
G36*
G01*
X28115550Y-110738500D02*
X28628050Y-110738500D01*
G75*
G02*
X28846800Y-110957250I0J-218750D01*
G01*
X28846800Y-111394750D01*
G75*
G02*
X28628050Y-111613500I-218750J0D01*
G01*
X28115550Y-111613500D01*
G75*
G02*
X27896800Y-111394750I0J218750D01*
G01*
X27896800Y-110957250D01*
G75*
G02*
X28115550Y-110738500I218750J0D01*
G01*
G37*
G36*
G01*
X28115550Y-109163500D02*
X28628050Y-109163500D01*
G75*
G02*
X28846800Y-109382250I0J-218750D01*
G01*
X28846800Y-109819750D01*
G75*
G02*
X28628050Y-110038500I-218750J0D01*
G01*
X28115550Y-110038500D01*
G75*
G02*
X27896800Y-109819750I0J218750D01*
G01*
X27896800Y-109382250D01*
G75*
G02*
X28115550Y-109163500I218750J0D01*
G01*
G37*
G36*
G01*
X30139350Y-109771700D02*
X29626850Y-109771700D01*
G75*
G02*
X29408100Y-109552950I0J218750D01*
G01*
X29408100Y-109115450D01*
G75*
G02*
X29626850Y-108896700I218750J0D01*
G01*
X30139350Y-108896700D01*
G75*
G02*
X30358100Y-109115450I0J-218750D01*
G01*
X30358100Y-109552950D01*
G75*
G02*
X30139350Y-109771700I-218750J0D01*
G01*
G37*
G36*
G01*
X30139350Y-111346700D02*
X29626850Y-111346700D01*
G75*
G02*
X29408100Y-111127950I0J218750D01*
G01*
X29408100Y-110690450D01*
G75*
G02*
X29626850Y-110471700I218750J0D01*
G01*
X30139350Y-110471700D01*
G75*
G02*
X30358100Y-110690450I0J-218750D01*
G01*
X30358100Y-111127950D01*
G75*
G02*
X30139350Y-111346700I-218750J0D01*
G01*
G37*
G36*
G01*
X31743000Y-111465650D02*
X31743000Y-111978150D01*
G75*
G02*
X31524250Y-112196900I-218750J0D01*
G01*
X31086750Y-112196900D01*
G75*
G02*
X30868000Y-111978150I0J218750D01*
G01*
X30868000Y-111465650D01*
G75*
G02*
X31086750Y-111246900I218750J0D01*
G01*
X31524250Y-111246900D01*
G75*
G02*
X31743000Y-111465650I0J-218750D01*
G01*
G37*
G36*
G01*
X33318000Y-111465650D02*
X33318000Y-111978150D01*
G75*
G02*
X33099250Y-112196900I-218750J0D01*
G01*
X32661750Y-112196900D01*
G75*
G02*
X32443000Y-111978150I0J218750D01*
G01*
X32443000Y-111465650D01*
G75*
G02*
X32661750Y-111246900I218750J0D01*
G01*
X33099250Y-111246900D01*
G75*
G02*
X33318000Y-111465650I0J-218750D01*
G01*
G37*
D11*
X47691800Y-82184600D03*
G36*
G01*
X51771999Y-128967000D02*
X52622001Y-128967000D01*
G75*
G02*
X52872000Y-129216999I0J-249999D01*
G01*
X52872000Y-130117001D01*
G75*
G02*
X52622001Y-130367000I-249999J0D01*
G01*
X51771999Y-130367000D01*
G75*
G02*
X51522000Y-130117001I0J249999D01*
G01*
X51522000Y-129216999D01*
G75*
G02*
X51771999Y-128967000I249999J0D01*
G01*
G37*
G36*
G01*
X51771999Y-126267000D02*
X52622001Y-126267000D01*
G75*
G02*
X52872000Y-126516999I0J-249999D01*
G01*
X52872000Y-127417001D01*
G75*
G02*
X52622001Y-127667000I-249999J0D01*
G01*
X51771999Y-127667000D01*
G75*
G02*
X51522000Y-127417001I0J249999D01*
G01*
X51522000Y-126516999D01*
G75*
G02*
X51771999Y-126267000I249999J0D01*
G01*
G37*
G36*
G01*
X51834601Y-120410200D02*
X50984599Y-120410200D01*
G75*
G02*
X50734600Y-120160201I0J249999D01*
G01*
X50734600Y-119260199D01*
G75*
G02*
X50984599Y-119010200I249999J0D01*
G01*
X51834601Y-119010200D01*
G75*
G02*
X52084600Y-119260199I0J-249999D01*
G01*
X52084600Y-120160201D01*
G75*
G02*
X51834601Y-120410200I-249999J0D01*
G01*
G37*
G36*
G01*
X51834601Y-123110200D02*
X50984599Y-123110200D01*
G75*
G02*
X50734600Y-122860201I0J249999D01*
G01*
X50734600Y-121960199D01*
G75*
G02*
X50984599Y-121710200I249999J0D01*
G01*
X51834601Y-121710200D01*
G75*
G02*
X52084600Y-121960199I0J-249999D01*
G01*
X52084600Y-122860201D01*
G75*
G02*
X51834601Y-123110200I-249999J0D01*
G01*
G37*
G36*
G01*
X28429800Y-163286150D02*
X28429800Y-162773650D01*
G75*
G02*
X28648550Y-162554900I218750J0D01*
G01*
X29086050Y-162554900D01*
G75*
G02*
X29304800Y-162773650I0J-218750D01*
G01*
X29304800Y-163286150D01*
G75*
G02*
X29086050Y-163504900I-218750J0D01*
G01*
X28648550Y-163504900D01*
G75*
G02*
X28429800Y-163286150I0J218750D01*
G01*
G37*
G36*
G01*
X26854800Y-163286150D02*
X26854800Y-162773650D01*
G75*
G02*
X27073550Y-162554900I218750J0D01*
G01*
X27511050Y-162554900D01*
G75*
G02*
X27729800Y-162773650I0J-218750D01*
G01*
X27729800Y-163286150D01*
G75*
G02*
X27511050Y-163504900I-218750J0D01*
G01*
X27073550Y-163504900D01*
G75*
G02*
X26854800Y-163286150I0J218750D01*
G01*
G37*
D12*
X37680600Y-122946900D03*
X36880600Y-122946900D03*
X36080600Y-122946900D03*
X35280600Y-122946900D03*
X37680600Y-121246900D03*
X35280600Y-121246900D03*
X36880600Y-121246900D03*
X36080600Y-121246900D03*
X41459000Y-122947800D03*
X40659000Y-122947800D03*
X39859000Y-122947800D03*
X39059000Y-122947800D03*
X41459000Y-121247800D03*
X39059000Y-121247800D03*
X40659000Y-121247800D03*
X39859000Y-121247800D03*
D13*
X30738900Y-104876600D03*
X33464500Y-106680000D03*
X30738900Y-106679900D03*
X33464500Y-104876600D03*
G36*
G01*
X41283599Y-103670000D02*
X41923601Y-103670000D01*
G75*
G02*
X42173600Y-103919999I0J-249999D01*
G01*
X42173600Y-104560001D01*
G75*
G02*
X41923601Y-104810000I-249999J0D01*
G01*
X41283599Y-104810000D01*
G75*
G02*
X41033600Y-104560001I0J249999D01*
G01*
X41033600Y-103919999D01*
G75*
G02*
X41283599Y-103670000I249999J0D01*
G01*
G37*
G36*
G01*
X39913599Y-103670000D02*
X40553601Y-103670000D01*
G75*
G02*
X40803600Y-103919999I0J-249999D01*
G01*
X40803600Y-104560001D01*
G75*
G02*
X40553601Y-104810000I-249999J0D01*
G01*
X39913599Y-104810000D01*
G75*
G02*
X39663600Y-104560001I0J249999D01*
G01*
X39663600Y-103919999D01*
G75*
G02*
X39913599Y-103670000I249999J0D01*
G01*
G37*
G36*
G01*
X38543599Y-103670000D02*
X39183601Y-103670000D01*
G75*
G02*
X39433600Y-103919999I0J-249999D01*
G01*
X39433600Y-104560001D01*
G75*
G02*
X39183601Y-104810000I-249999J0D01*
G01*
X38543599Y-104810000D01*
G75*
G02*
X38293600Y-104560001I0J249999D01*
G01*
X38293600Y-103919999D01*
G75*
G02*
X38543599Y-103670000I249999J0D01*
G01*
G37*
G36*
G01*
X41283599Y-102300000D02*
X41923601Y-102300000D01*
G75*
G02*
X42173600Y-102549999I0J-249999D01*
G01*
X42173600Y-103190001D01*
G75*
G02*
X41923601Y-103440000I-249999J0D01*
G01*
X41283599Y-103440000D01*
G75*
G02*
X41033600Y-103190001I0J249999D01*
G01*
X41033600Y-102549999D01*
G75*
G02*
X41283599Y-102300000I249999J0D01*
G01*
G37*
G36*
G01*
X39913599Y-102300000D02*
X40553601Y-102300000D01*
G75*
G02*
X40803600Y-102549999I0J-249999D01*
G01*
X40803600Y-103190001D01*
G75*
G02*
X40553601Y-103440000I-249999J0D01*
G01*
X39913599Y-103440000D01*
G75*
G02*
X39663600Y-103190001I0J249999D01*
G01*
X39663600Y-102549999D01*
G75*
G02*
X39913599Y-102300000I249999J0D01*
G01*
G37*
G36*
G01*
X38543599Y-102300000D02*
X39183601Y-102300000D01*
G75*
G02*
X39433600Y-102549999I0J-249999D01*
G01*
X39433600Y-103190001D01*
G75*
G02*
X39183601Y-103440000I-249999J0D01*
G01*
X38543599Y-103440000D01*
G75*
G02*
X38293600Y-103190001I0J249999D01*
G01*
X38293600Y-102549999D01*
G75*
G02*
X38543599Y-102300000I249999J0D01*
G01*
G37*
G36*
G01*
X41283599Y-100930000D02*
X41923601Y-100930000D01*
G75*
G02*
X42173600Y-101179999I0J-249999D01*
G01*
X42173600Y-101820001D01*
G75*
G02*
X41923601Y-102070000I-249999J0D01*
G01*
X41283599Y-102070000D01*
G75*
G02*
X41033600Y-101820001I0J249999D01*
G01*
X41033600Y-101179999D01*
G75*
G02*
X41283599Y-100930000I249999J0D01*
G01*
G37*
G36*
G01*
X39913599Y-100930000D02*
X40553601Y-100930000D01*
G75*
G02*
X40803600Y-101179999I0J-249999D01*
G01*
X40803600Y-101820001D01*
G75*
G02*
X40553601Y-102070000I-249999J0D01*
G01*
X39913599Y-102070000D01*
G75*
G02*
X39663600Y-101820001I0J249999D01*
G01*
X39663600Y-101179999D01*
G75*
G02*
X39913599Y-100930000I249999J0D01*
G01*
G37*
G36*
G01*
X38543599Y-100930000D02*
X39183601Y-100930000D01*
G75*
G02*
X39433600Y-101179999I0J-249999D01*
G01*
X39433600Y-101820001D01*
G75*
G02*
X39183601Y-102070000I-249999J0D01*
G01*
X38543599Y-102070000D01*
G75*
G02*
X38293600Y-101820001I0J249999D01*
G01*
X38293600Y-101179999D01*
G75*
G02*
X38543599Y-100930000I249999J0D01*
G01*
G37*
G36*
G01*
X36446100Y-99995000D02*
X37121100Y-99995000D01*
G75*
G02*
X37183600Y-100057500I0J-62500D01*
G01*
X37183600Y-100182500D01*
G75*
G02*
X37121100Y-100245000I-62500J0D01*
G01*
X36446100Y-100245000D01*
G75*
G02*
X36383600Y-100182500I0J62500D01*
G01*
X36383600Y-100057500D01*
G75*
G02*
X36446100Y-99995000I62500J0D01*
G01*
G37*
G36*
G01*
X36446100Y-100495000D02*
X37121100Y-100495000D01*
G75*
G02*
X37183600Y-100557500I0J-62500D01*
G01*
X37183600Y-100682500D01*
G75*
G02*
X37121100Y-100745000I-62500J0D01*
G01*
X36446100Y-100745000D01*
G75*
G02*
X36383600Y-100682500I0J62500D01*
G01*
X36383600Y-100557500D01*
G75*
G02*
X36446100Y-100495000I62500J0D01*
G01*
G37*
G36*
G01*
X36446100Y-100995000D02*
X37121100Y-100995000D01*
G75*
G02*
X37183600Y-101057500I0J-62500D01*
G01*
X37183600Y-101182500D01*
G75*
G02*
X37121100Y-101245000I-62500J0D01*
G01*
X36446100Y-101245000D01*
G75*
G02*
X36383600Y-101182500I0J62500D01*
G01*
X36383600Y-101057500D01*
G75*
G02*
X36446100Y-100995000I62500J0D01*
G01*
G37*
G36*
G01*
X36446100Y-101495000D02*
X37121100Y-101495000D01*
G75*
G02*
X37183600Y-101557500I0J-62500D01*
G01*
X37183600Y-101682500D01*
G75*
G02*
X37121100Y-101745000I-62500J0D01*
G01*
X36446100Y-101745000D01*
G75*
G02*
X36383600Y-101682500I0J62500D01*
G01*
X36383600Y-101557500D01*
G75*
G02*
X36446100Y-101495000I62500J0D01*
G01*
G37*
G36*
G01*
X36446100Y-101995000D02*
X37121100Y-101995000D01*
G75*
G02*
X37183600Y-102057500I0J-62500D01*
G01*
X37183600Y-102182500D01*
G75*
G02*
X37121100Y-102245000I-62500J0D01*
G01*
X36446100Y-102245000D01*
G75*
G02*
X36383600Y-102182500I0J62500D01*
G01*
X36383600Y-102057500D01*
G75*
G02*
X36446100Y-101995000I62500J0D01*
G01*
G37*
G36*
G01*
X36446100Y-102495000D02*
X37121100Y-102495000D01*
G75*
G02*
X37183600Y-102557500I0J-62500D01*
G01*
X37183600Y-102682500D01*
G75*
G02*
X37121100Y-102745000I-62500J0D01*
G01*
X36446100Y-102745000D01*
G75*
G02*
X36383600Y-102682500I0J62500D01*
G01*
X36383600Y-102557500D01*
G75*
G02*
X36446100Y-102495000I62500J0D01*
G01*
G37*
G36*
G01*
X36446100Y-102995000D02*
X37121100Y-102995000D01*
G75*
G02*
X37183600Y-103057500I0J-62500D01*
G01*
X37183600Y-103182500D01*
G75*
G02*
X37121100Y-103245000I-62500J0D01*
G01*
X36446100Y-103245000D01*
G75*
G02*
X36383600Y-103182500I0J62500D01*
G01*
X36383600Y-103057500D01*
G75*
G02*
X36446100Y-102995000I62500J0D01*
G01*
G37*
G36*
G01*
X36446100Y-103495000D02*
X37121100Y-103495000D01*
G75*
G02*
X37183600Y-103557500I0J-62500D01*
G01*
X37183600Y-103682500D01*
G75*
G02*
X37121100Y-103745000I-62500J0D01*
G01*
X36446100Y-103745000D01*
G75*
G02*
X36383600Y-103682500I0J62500D01*
G01*
X36383600Y-103557500D01*
G75*
G02*
X36446100Y-103495000I62500J0D01*
G01*
G37*
G36*
G01*
X36446100Y-103995000D02*
X37121100Y-103995000D01*
G75*
G02*
X37183600Y-104057500I0J-62500D01*
G01*
X37183600Y-104182500D01*
G75*
G02*
X37121100Y-104245000I-62500J0D01*
G01*
X36446100Y-104245000D01*
G75*
G02*
X36383600Y-104182500I0J62500D01*
G01*
X36383600Y-104057500D01*
G75*
G02*
X36446100Y-103995000I62500J0D01*
G01*
G37*
G36*
G01*
X36446100Y-104495000D02*
X37121100Y-104495000D01*
G75*
G02*
X37183600Y-104557500I0J-62500D01*
G01*
X37183600Y-104682500D01*
G75*
G02*
X37121100Y-104745000I-62500J0D01*
G01*
X36446100Y-104745000D01*
G75*
G02*
X36383600Y-104682500I0J62500D01*
G01*
X36383600Y-104557500D01*
G75*
G02*
X36446100Y-104495000I62500J0D01*
G01*
G37*
G36*
G01*
X36446100Y-104995000D02*
X37121100Y-104995000D01*
G75*
G02*
X37183600Y-105057500I0J-62500D01*
G01*
X37183600Y-105182500D01*
G75*
G02*
X37121100Y-105245000I-62500J0D01*
G01*
X36446100Y-105245000D01*
G75*
G02*
X36383600Y-105182500I0J62500D01*
G01*
X36383600Y-105057500D01*
G75*
G02*
X36446100Y-104995000I62500J0D01*
G01*
G37*
G36*
G01*
X36446100Y-105495000D02*
X37121100Y-105495000D01*
G75*
G02*
X37183600Y-105557500I0J-62500D01*
G01*
X37183600Y-105682500D01*
G75*
G02*
X37121100Y-105745000I-62500J0D01*
G01*
X36446100Y-105745000D01*
G75*
G02*
X36383600Y-105682500I0J62500D01*
G01*
X36383600Y-105557500D01*
G75*
G02*
X36446100Y-105495000I62500J0D01*
G01*
G37*
G36*
G01*
X37421100Y-105920000D02*
X37546100Y-105920000D01*
G75*
G02*
X37608600Y-105982500I0J-62500D01*
G01*
X37608600Y-106657500D01*
G75*
G02*
X37546100Y-106720000I-62500J0D01*
G01*
X37421100Y-106720000D01*
G75*
G02*
X37358600Y-106657500I0J62500D01*
G01*
X37358600Y-105982500D01*
G75*
G02*
X37421100Y-105920000I62500J0D01*
G01*
G37*
G36*
G01*
X37921100Y-105920000D02*
X38046100Y-105920000D01*
G75*
G02*
X38108600Y-105982500I0J-62500D01*
G01*
X38108600Y-106657500D01*
G75*
G02*
X38046100Y-106720000I-62500J0D01*
G01*
X37921100Y-106720000D01*
G75*
G02*
X37858600Y-106657500I0J62500D01*
G01*
X37858600Y-105982500D01*
G75*
G02*
X37921100Y-105920000I62500J0D01*
G01*
G37*
G36*
G01*
X38421100Y-105920000D02*
X38546100Y-105920000D01*
G75*
G02*
X38608600Y-105982500I0J-62500D01*
G01*
X38608600Y-106657500D01*
G75*
G02*
X38546100Y-106720000I-62500J0D01*
G01*
X38421100Y-106720000D01*
G75*
G02*
X38358600Y-106657500I0J62500D01*
G01*
X38358600Y-105982500D01*
G75*
G02*
X38421100Y-105920000I62500J0D01*
G01*
G37*
G36*
G01*
X38921100Y-105920000D02*
X39046100Y-105920000D01*
G75*
G02*
X39108600Y-105982500I0J-62500D01*
G01*
X39108600Y-106657500D01*
G75*
G02*
X39046100Y-106720000I-62500J0D01*
G01*
X38921100Y-106720000D01*
G75*
G02*
X38858600Y-106657500I0J62500D01*
G01*
X38858600Y-105982500D01*
G75*
G02*
X38921100Y-105920000I62500J0D01*
G01*
G37*
G36*
G01*
X39421100Y-105920000D02*
X39546100Y-105920000D01*
G75*
G02*
X39608600Y-105982500I0J-62500D01*
G01*
X39608600Y-106657500D01*
G75*
G02*
X39546100Y-106720000I-62500J0D01*
G01*
X39421100Y-106720000D01*
G75*
G02*
X39358600Y-106657500I0J62500D01*
G01*
X39358600Y-105982500D01*
G75*
G02*
X39421100Y-105920000I62500J0D01*
G01*
G37*
G36*
G01*
X39921100Y-105920000D02*
X40046100Y-105920000D01*
G75*
G02*
X40108600Y-105982500I0J-62500D01*
G01*
X40108600Y-106657500D01*
G75*
G02*
X40046100Y-106720000I-62500J0D01*
G01*
X39921100Y-106720000D01*
G75*
G02*
X39858600Y-106657500I0J62500D01*
G01*
X39858600Y-105982500D01*
G75*
G02*
X39921100Y-105920000I62500J0D01*
G01*
G37*
G36*
G01*
X40421100Y-105920000D02*
X40546100Y-105920000D01*
G75*
G02*
X40608600Y-105982500I0J-62500D01*
G01*
X40608600Y-106657500D01*
G75*
G02*
X40546100Y-106720000I-62500J0D01*
G01*
X40421100Y-106720000D01*
G75*
G02*
X40358600Y-106657500I0J62500D01*
G01*
X40358600Y-105982500D01*
G75*
G02*
X40421100Y-105920000I62500J0D01*
G01*
G37*
G36*
G01*
X40921100Y-105920000D02*
X41046100Y-105920000D01*
G75*
G02*
X41108600Y-105982500I0J-62500D01*
G01*
X41108600Y-106657500D01*
G75*
G02*
X41046100Y-106720000I-62500J0D01*
G01*
X40921100Y-106720000D01*
G75*
G02*
X40858600Y-106657500I0J62500D01*
G01*
X40858600Y-105982500D01*
G75*
G02*
X40921100Y-105920000I62500J0D01*
G01*
G37*
G36*
G01*
X41421100Y-105920000D02*
X41546100Y-105920000D01*
G75*
G02*
X41608600Y-105982500I0J-62500D01*
G01*
X41608600Y-106657500D01*
G75*
G02*
X41546100Y-106720000I-62500J0D01*
G01*
X41421100Y-106720000D01*
G75*
G02*
X41358600Y-106657500I0J62500D01*
G01*
X41358600Y-105982500D01*
G75*
G02*
X41421100Y-105920000I62500J0D01*
G01*
G37*
G36*
G01*
X41921100Y-105920000D02*
X42046100Y-105920000D01*
G75*
G02*
X42108600Y-105982500I0J-62500D01*
G01*
X42108600Y-106657500D01*
G75*
G02*
X42046100Y-106720000I-62500J0D01*
G01*
X41921100Y-106720000D01*
G75*
G02*
X41858600Y-106657500I0J62500D01*
G01*
X41858600Y-105982500D01*
G75*
G02*
X41921100Y-105920000I62500J0D01*
G01*
G37*
G36*
G01*
X42421100Y-105920000D02*
X42546100Y-105920000D01*
G75*
G02*
X42608600Y-105982500I0J-62500D01*
G01*
X42608600Y-106657500D01*
G75*
G02*
X42546100Y-106720000I-62500J0D01*
G01*
X42421100Y-106720000D01*
G75*
G02*
X42358600Y-106657500I0J62500D01*
G01*
X42358600Y-105982500D01*
G75*
G02*
X42421100Y-105920000I62500J0D01*
G01*
G37*
G36*
G01*
X42921100Y-105920000D02*
X43046100Y-105920000D01*
G75*
G02*
X43108600Y-105982500I0J-62500D01*
G01*
X43108600Y-106657500D01*
G75*
G02*
X43046100Y-106720000I-62500J0D01*
G01*
X42921100Y-106720000D01*
G75*
G02*
X42858600Y-106657500I0J62500D01*
G01*
X42858600Y-105982500D01*
G75*
G02*
X42921100Y-105920000I62500J0D01*
G01*
G37*
G36*
G01*
X43346100Y-105495000D02*
X44021100Y-105495000D01*
G75*
G02*
X44083600Y-105557500I0J-62500D01*
G01*
X44083600Y-105682500D01*
G75*
G02*
X44021100Y-105745000I-62500J0D01*
G01*
X43346100Y-105745000D01*
G75*
G02*
X43283600Y-105682500I0J62500D01*
G01*
X43283600Y-105557500D01*
G75*
G02*
X43346100Y-105495000I62500J0D01*
G01*
G37*
G36*
G01*
X43346100Y-104995000D02*
X44021100Y-104995000D01*
G75*
G02*
X44083600Y-105057500I0J-62500D01*
G01*
X44083600Y-105182500D01*
G75*
G02*
X44021100Y-105245000I-62500J0D01*
G01*
X43346100Y-105245000D01*
G75*
G02*
X43283600Y-105182500I0J62500D01*
G01*
X43283600Y-105057500D01*
G75*
G02*
X43346100Y-104995000I62500J0D01*
G01*
G37*
G36*
G01*
X43346100Y-104495000D02*
X44021100Y-104495000D01*
G75*
G02*
X44083600Y-104557500I0J-62500D01*
G01*
X44083600Y-104682500D01*
G75*
G02*
X44021100Y-104745000I-62500J0D01*
G01*
X43346100Y-104745000D01*
G75*
G02*
X43283600Y-104682500I0J62500D01*
G01*
X43283600Y-104557500D01*
G75*
G02*
X43346100Y-104495000I62500J0D01*
G01*
G37*
G36*
G01*
X43346100Y-103995000D02*
X44021100Y-103995000D01*
G75*
G02*
X44083600Y-104057500I0J-62500D01*
G01*
X44083600Y-104182500D01*
G75*
G02*
X44021100Y-104245000I-62500J0D01*
G01*
X43346100Y-104245000D01*
G75*
G02*
X43283600Y-104182500I0J62500D01*
G01*
X43283600Y-104057500D01*
G75*
G02*
X43346100Y-103995000I62500J0D01*
G01*
G37*
G36*
G01*
X43346100Y-103495000D02*
X44021100Y-103495000D01*
G75*
G02*
X44083600Y-103557500I0J-62500D01*
G01*
X44083600Y-103682500D01*
G75*
G02*
X44021100Y-103745000I-62500J0D01*
G01*
X43346100Y-103745000D01*
G75*
G02*
X43283600Y-103682500I0J62500D01*
G01*
X43283600Y-103557500D01*
G75*
G02*
X43346100Y-103495000I62500J0D01*
G01*
G37*
G36*
G01*
X43346100Y-102995000D02*
X44021100Y-102995000D01*
G75*
G02*
X44083600Y-103057500I0J-62500D01*
G01*
X44083600Y-103182500D01*
G75*
G02*
X44021100Y-103245000I-62500J0D01*
G01*
X43346100Y-103245000D01*
G75*
G02*
X43283600Y-103182500I0J62500D01*
G01*
X43283600Y-103057500D01*
G75*
G02*
X43346100Y-102995000I62500J0D01*
G01*
G37*
G36*
G01*
X43346100Y-102495000D02*
X44021100Y-102495000D01*
G75*
G02*
X44083600Y-102557500I0J-62500D01*
G01*
X44083600Y-102682500D01*
G75*
G02*
X44021100Y-102745000I-62500J0D01*
G01*
X43346100Y-102745000D01*
G75*
G02*
X43283600Y-102682500I0J62500D01*
G01*
X43283600Y-102557500D01*
G75*
G02*
X43346100Y-102495000I62500J0D01*
G01*
G37*
G36*
G01*
X43346100Y-101995000D02*
X44021100Y-101995000D01*
G75*
G02*
X44083600Y-102057500I0J-62500D01*
G01*
X44083600Y-102182500D01*
G75*
G02*
X44021100Y-102245000I-62500J0D01*
G01*
X43346100Y-102245000D01*
G75*
G02*
X43283600Y-102182500I0J62500D01*
G01*
X43283600Y-102057500D01*
G75*
G02*
X43346100Y-101995000I62500J0D01*
G01*
G37*
G36*
G01*
X43346100Y-101495000D02*
X44021100Y-101495000D01*
G75*
G02*
X44083600Y-101557500I0J-62500D01*
G01*
X44083600Y-101682500D01*
G75*
G02*
X44021100Y-101745000I-62500J0D01*
G01*
X43346100Y-101745000D01*
G75*
G02*
X43283600Y-101682500I0J62500D01*
G01*
X43283600Y-101557500D01*
G75*
G02*
X43346100Y-101495000I62500J0D01*
G01*
G37*
G36*
G01*
X43346100Y-100995000D02*
X44021100Y-100995000D01*
G75*
G02*
X44083600Y-101057500I0J-62500D01*
G01*
X44083600Y-101182500D01*
G75*
G02*
X44021100Y-101245000I-62500J0D01*
G01*
X43346100Y-101245000D01*
G75*
G02*
X43283600Y-101182500I0J62500D01*
G01*
X43283600Y-101057500D01*
G75*
G02*
X43346100Y-100995000I62500J0D01*
G01*
G37*
G36*
G01*
X43346100Y-100495000D02*
X44021100Y-100495000D01*
G75*
G02*
X44083600Y-100557500I0J-62500D01*
G01*
X44083600Y-100682500D01*
G75*
G02*
X44021100Y-100745000I-62500J0D01*
G01*
X43346100Y-100745000D01*
G75*
G02*
X43283600Y-100682500I0J62500D01*
G01*
X43283600Y-100557500D01*
G75*
G02*
X43346100Y-100495000I62500J0D01*
G01*
G37*
G36*
G01*
X43346100Y-99995000D02*
X44021100Y-99995000D01*
G75*
G02*
X44083600Y-100057500I0J-62500D01*
G01*
X44083600Y-100182500D01*
G75*
G02*
X44021100Y-100245000I-62500J0D01*
G01*
X43346100Y-100245000D01*
G75*
G02*
X43283600Y-100182500I0J62500D01*
G01*
X43283600Y-100057500D01*
G75*
G02*
X43346100Y-99995000I62500J0D01*
G01*
G37*
G36*
G01*
X42921100Y-99020000D02*
X43046100Y-99020000D01*
G75*
G02*
X43108600Y-99082500I0J-62500D01*
G01*
X43108600Y-99757500D01*
G75*
G02*
X43046100Y-99820000I-62500J0D01*
G01*
X42921100Y-99820000D01*
G75*
G02*
X42858600Y-99757500I0J62500D01*
G01*
X42858600Y-99082500D01*
G75*
G02*
X42921100Y-99020000I62500J0D01*
G01*
G37*
G36*
G01*
X42421100Y-99020000D02*
X42546100Y-99020000D01*
G75*
G02*
X42608600Y-99082500I0J-62500D01*
G01*
X42608600Y-99757500D01*
G75*
G02*
X42546100Y-99820000I-62500J0D01*
G01*
X42421100Y-99820000D01*
G75*
G02*
X42358600Y-99757500I0J62500D01*
G01*
X42358600Y-99082500D01*
G75*
G02*
X42421100Y-99020000I62500J0D01*
G01*
G37*
G36*
G01*
X41921100Y-99020000D02*
X42046100Y-99020000D01*
G75*
G02*
X42108600Y-99082500I0J-62500D01*
G01*
X42108600Y-99757500D01*
G75*
G02*
X42046100Y-99820000I-62500J0D01*
G01*
X41921100Y-99820000D01*
G75*
G02*
X41858600Y-99757500I0J62500D01*
G01*
X41858600Y-99082500D01*
G75*
G02*
X41921100Y-99020000I62500J0D01*
G01*
G37*
G36*
G01*
X41421100Y-99020000D02*
X41546100Y-99020000D01*
G75*
G02*
X41608600Y-99082500I0J-62500D01*
G01*
X41608600Y-99757500D01*
G75*
G02*
X41546100Y-99820000I-62500J0D01*
G01*
X41421100Y-99820000D01*
G75*
G02*
X41358600Y-99757500I0J62500D01*
G01*
X41358600Y-99082500D01*
G75*
G02*
X41421100Y-99020000I62500J0D01*
G01*
G37*
G36*
G01*
X40921100Y-99020000D02*
X41046100Y-99020000D01*
G75*
G02*
X41108600Y-99082500I0J-62500D01*
G01*
X41108600Y-99757500D01*
G75*
G02*
X41046100Y-99820000I-62500J0D01*
G01*
X40921100Y-99820000D01*
G75*
G02*
X40858600Y-99757500I0J62500D01*
G01*
X40858600Y-99082500D01*
G75*
G02*
X40921100Y-99020000I62500J0D01*
G01*
G37*
G36*
G01*
X40421100Y-99020000D02*
X40546100Y-99020000D01*
G75*
G02*
X40608600Y-99082500I0J-62500D01*
G01*
X40608600Y-99757500D01*
G75*
G02*
X40546100Y-99820000I-62500J0D01*
G01*
X40421100Y-99820000D01*
G75*
G02*
X40358600Y-99757500I0J62500D01*
G01*
X40358600Y-99082500D01*
G75*
G02*
X40421100Y-99020000I62500J0D01*
G01*
G37*
G36*
G01*
X39921100Y-99020000D02*
X40046100Y-99020000D01*
G75*
G02*
X40108600Y-99082500I0J-62500D01*
G01*
X40108600Y-99757500D01*
G75*
G02*
X40046100Y-99820000I-62500J0D01*
G01*
X39921100Y-99820000D01*
G75*
G02*
X39858600Y-99757500I0J62500D01*
G01*
X39858600Y-99082500D01*
G75*
G02*
X39921100Y-99020000I62500J0D01*
G01*
G37*
G36*
G01*
X39421100Y-99020000D02*
X39546100Y-99020000D01*
G75*
G02*
X39608600Y-99082500I0J-62500D01*
G01*
X39608600Y-99757500D01*
G75*
G02*
X39546100Y-99820000I-62500J0D01*
G01*
X39421100Y-99820000D01*
G75*
G02*
X39358600Y-99757500I0J62500D01*
G01*
X39358600Y-99082500D01*
G75*
G02*
X39421100Y-99020000I62500J0D01*
G01*
G37*
G36*
G01*
X38921100Y-99020000D02*
X39046100Y-99020000D01*
G75*
G02*
X39108600Y-99082500I0J-62500D01*
G01*
X39108600Y-99757500D01*
G75*
G02*
X39046100Y-99820000I-62500J0D01*
G01*
X38921100Y-99820000D01*
G75*
G02*
X38858600Y-99757500I0J62500D01*
G01*
X38858600Y-99082500D01*
G75*
G02*
X38921100Y-99020000I62500J0D01*
G01*
G37*
G36*
G01*
X38421100Y-99020000D02*
X38546100Y-99020000D01*
G75*
G02*
X38608600Y-99082500I0J-62500D01*
G01*
X38608600Y-99757500D01*
G75*
G02*
X38546100Y-99820000I-62500J0D01*
G01*
X38421100Y-99820000D01*
G75*
G02*
X38358600Y-99757500I0J62500D01*
G01*
X38358600Y-99082500D01*
G75*
G02*
X38421100Y-99020000I62500J0D01*
G01*
G37*
G36*
G01*
X37921100Y-99020000D02*
X38046100Y-99020000D01*
G75*
G02*
X38108600Y-99082500I0J-62500D01*
G01*
X38108600Y-99757500D01*
G75*
G02*
X38046100Y-99820000I-62500J0D01*
G01*
X37921100Y-99820000D01*
G75*
G02*
X37858600Y-99757500I0J62500D01*
G01*
X37858600Y-99082500D01*
G75*
G02*
X37921100Y-99020000I62500J0D01*
G01*
G37*
G36*
G01*
X37421100Y-99020000D02*
X37546100Y-99020000D01*
G75*
G02*
X37608600Y-99082500I0J-62500D01*
G01*
X37608600Y-99757500D01*
G75*
G02*
X37546100Y-99820000I-62500J0D01*
G01*
X37421100Y-99820000D01*
G75*
G02*
X37358600Y-99757500I0J62500D01*
G01*
X37358600Y-99082500D01*
G75*
G02*
X37421100Y-99020000I62500J0D01*
G01*
G37*
G36*
G01*
X32187500Y-100734150D02*
X32187500Y-101246650D01*
G75*
G02*
X31968750Y-101465400I-218750J0D01*
G01*
X31531250Y-101465400D01*
G75*
G02*
X31312500Y-101246650I0J218750D01*
G01*
X31312500Y-100734150D01*
G75*
G02*
X31531250Y-100515400I218750J0D01*
G01*
X31968750Y-100515400D01*
G75*
G02*
X32187500Y-100734150I0J-218750D01*
G01*
G37*
G36*
G01*
X33762500Y-100734150D02*
X33762500Y-101246650D01*
G75*
G02*
X33543750Y-101465400I-218750J0D01*
G01*
X33106250Y-101465400D01*
G75*
G02*
X32887500Y-101246650I0J218750D01*
G01*
X32887500Y-100734150D01*
G75*
G02*
X33106250Y-100515400I218750J0D01*
G01*
X33543750Y-100515400D01*
G75*
G02*
X33762500Y-100734150I0J-218750D01*
G01*
G37*
G36*
G01*
X32174800Y-102207350D02*
X32174800Y-102719850D01*
G75*
G02*
X31956050Y-102938600I-218750J0D01*
G01*
X31518550Y-102938600D01*
G75*
G02*
X31299800Y-102719850I0J218750D01*
G01*
X31299800Y-102207350D01*
G75*
G02*
X31518550Y-101988600I218750J0D01*
G01*
X31956050Y-101988600D01*
G75*
G02*
X32174800Y-102207350I0J-218750D01*
G01*
G37*
G36*
G01*
X33749800Y-102207350D02*
X33749800Y-102719850D01*
G75*
G02*
X33531050Y-102938600I-218750J0D01*
G01*
X33093550Y-102938600D01*
G75*
G02*
X32874800Y-102719850I0J218750D01*
G01*
X32874800Y-102207350D01*
G75*
G02*
X33093550Y-101988600I218750J0D01*
G01*
X33531050Y-101988600D01*
G75*
G02*
X33749800Y-102207350I0J-218750D01*
G01*
G37*
G36*
G01*
X34330350Y-96690600D02*
X33817850Y-96690600D01*
G75*
G02*
X33599100Y-96471850I0J218750D01*
G01*
X33599100Y-96034350D01*
G75*
G02*
X33817850Y-95815600I218750J0D01*
G01*
X34330350Y-95815600D01*
G75*
G02*
X34549100Y-96034350I0J-218750D01*
G01*
X34549100Y-96471850D01*
G75*
G02*
X34330350Y-96690600I-218750J0D01*
G01*
G37*
G36*
G01*
X34330350Y-98265600D02*
X33817850Y-98265600D01*
G75*
G02*
X33599100Y-98046850I0J218750D01*
G01*
X33599100Y-97609350D01*
G75*
G02*
X33817850Y-97390600I218750J0D01*
G01*
X34330350Y-97390600D01*
G75*
G02*
X34549100Y-97609350I0J-218750D01*
G01*
X34549100Y-98046850D01*
G75*
G02*
X34330350Y-98265600I-218750J0D01*
G01*
G37*
G36*
G01*
X30807950Y-97073100D02*
X31320450Y-97073100D01*
G75*
G02*
X31539200Y-97291850I0J-218750D01*
G01*
X31539200Y-97729350D01*
G75*
G02*
X31320450Y-97948100I-218750J0D01*
G01*
X30807950Y-97948100D01*
G75*
G02*
X30589200Y-97729350I0J218750D01*
G01*
X30589200Y-97291850D01*
G75*
G02*
X30807950Y-97073100I218750J0D01*
G01*
G37*
G36*
G01*
X30807950Y-95498100D02*
X31320450Y-95498100D01*
G75*
G02*
X31539200Y-95716850I0J-218750D01*
G01*
X31539200Y-96154350D01*
G75*
G02*
X31320450Y-96373100I-218750J0D01*
G01*
X30807950Y-96373100D01*
G75*
G02*
X30589200Y-96154350I0J218750D01*
G01*
X30589200Y-95716850D01*
G75*
G02*
X30807950Y-95498100I218750J0D01*
G01*
G37*
G36*
G01*
X32306550Y-95879500D02*
X32819050Y-95879500D01*
G75*
G02*
X33037800Y-96098250I0J-218750D01*
G01*
X33037800Y-96535750D01*
G75*
G02*
X32819050Y-96754500I-218750J0D01*
G01*
X32306550Y-96754500D01*
G75*
G02*
X32087800Y-96535750I0J218750D01*
G01*
X32087800Y-96098250D01*
G75*
G02*
X32306550Y-95879500I218750J0D01*
G01*
G37*
G36*
G01*
X32306550Y-94304500D02*
X32819050Y-94304500D01*
G75*
G02*
X33037800Y-94523250I0J-218750D01*
G01*
X33037800Y-94960750D01*
G75*
G02*
X32819050Y-95179500I-218750J0D01*
G01*
X32306550Y-95179500D01*
G75*
G02*
X32087800Y-94960750I0J218750D01*
G01*
X32087800Y-94523250D01*
G75*
G02*
X32306550Y-94304500I218750J0D01*
G01*
G37*
G36*
G01*
X34440150Y-101632600D02*
X34952650Y-101632600D01*
G75*
G02*
X35171400Y-101851350I0J-218750D01*
G01*
X35171400Y-102288850D01*
G75*
G02*
X34952650Y-102507600I-218750J0D01*
G01*
X34440150Y-102507600D01*
G75*
G02*
X34221400Y-102288850I0J218750D01*
G01*
X34221400Y-101851350D01*
G75*
G02*
X34440150Y-101632600I218750J0D01*
G01*
G37*
G36*
G01*
X34440150Y-100057600D02*
X34952650Y-100057600D01*
G75*
G02*
X35171400Y-100276350I0J-218750D01*
G01*
X35171400Y-100713850D01*
G75*
G02*
X34952650Y-100932600I-218750J0D01*
G01*
X34440150Y-100932600D01*
G75*
G02*
X34221400Y-100713850I0J218750D01*
G01*
X34221400Y-100276350D01*
G75*
G02*
X34440150Y-100057600I218750J0D01*
G01*
G37*
G36*
G01*
X40405900Y-97703350D02*
X40405900Y-97190850D01*
G75*
G02*
X40624650Y-96972100I218750J0D01*
G01*
X41062150Y-96972100D01*
G75*
G02*
X41280900Y-97190850I0J-218750D01*
G01*
X41280900Y-97703350D01*
G75*
G02*
X41062150Y-97922100I-218750J0D01*
G01*
X40624650Y-97922100D01*
G75*
G02*
X40405900Y-97703350I0J218750D01*
G01*
G37*
G36*
G01*
X38830900Y-97703350D02*
X38830900Y-97190850D01*
G75*
G02*
X39049650Y-96972100I218750J0D01*
G01*
X39487150Y-96972100D01*
G75*
G02*
X39705900Y-97190850I0J-218750D01*
G01*
X39705900Y-97703350D01*
G75*
G02*
X39487150Y-97922100I-218750J0D01*
G01*
X39049650Y-97922100D01*
G75*
G02*
X38830900Y-97703350I0J218750D01*
G01*
G37*
G36*
G01*
X37459300Y-96623850D02*
X37459300Y-96111350D01*
G75*
G02*
X37678050Y-95892600I218750J0D01*
G01*
X38115550Y-95892600D01*
G75*
G02*
X38334300Y-96111350I0J-218750D01*
G01*
X38334300Y-96623850D01*
G75*
G02*
X38115550Y-96842600I-218750J0D01*
G01*
X37678050Y-96842600D01*
G75*
G02*
X37459300Y-96623850I0J218750D01*
G01*
G37*
G36*
G01*
X35884300Y-96623850D02*
X35884300Y-96111350D01*
G75*
G02*
X36103050Y-95892600I218750J0D01*
G01*
X36540550Y-95892600D01*
G75*
G02*
X36759300Y-96111350I0J-218750D01*
G01*
X36759300Y-96623850D01*
G75*
G02*
X36540550Y-96842600I-218750J0D01*
G01*
X36103050Y-96842600D01*
G75*
G02*
X35884300Y-96623850I0J218750D01*
G01*
G37*
G36*
G01*
X34605250Y-105747200D02*
X35117750Y-105747200D01*
G75*
G02*
X35336500Y-105965950I0J-218750D01*
G01*
X35336500Y-106403450D01*
G75*
G02*
X35117750Y-106622200I-218750J0D01*
G01*
X34605250Y-106622200D01*
G75*
G02*
X34386500Y-106403450I0J218750D01*
G01*
X34386500Y-105965950D01*
G75*
G02*
X34605250Y-105747200I218750J0D01*
G01*
G37*
G36*
G01*
X34605250Y-104172200D02*
X35117750Y-104172200D01*
G75*
G02*
X35336500Y-104390950I0J-218750D01*
G01*
X35336500Y-104828450D01*
G75*
G02*
X35117750Y-105047200I-218750J0D01*
G01*
X34605250Y-105047200D01*
G75*
G02*
X34386500Y-104828450I0J218750D01*
G01*
X34386500Y-104390950D01*
G75*
G02*
X34605250Y-104172200I218750J0D01*
G01*
G37*
G36*
G01*
X32187500Y-99273650D02*
X32187500Y-99786150D01*
G75*
G02*
X31968750Y-100004900I-218750J0D01*
G01*
X31531250Y-100004900D01*
G75*
G02*
X31312500Y-99786150I0J218750D01*
G01*
X31312500Y-99273650D01*
G75*
G02*
X31531250Y-99054900I218750J0D01*
G01*
X31968750Y-99054900D01*
G75*
G02*
X32187500Y-99273650I0J-218750D01*
G01*
G37*
G36*
G01*
X33762500Y-99273650D02*
X33762500Y-99786150D01*
G75*
G02*
X33543750Y-100004900I-218750J0D01*
G01*
X33106250Y-100004900D01*
G75*
G02*
X32887500Y-99786150I0J218750D01*
G01*
X32887500Y-99273650D01*
G75*
G02*
X33106250Y-99054900I218750J0D01*
G01*
X33543750Y-99054900D01*
G75*
G02*
X33762500Y-99273650I0J-218750D01*
G01*
G37*
G36*
G01*
X44038000Y-98274850D02*
X44038000Y-97762350D01*
G75*
G02*
X44256750Y-97543600I218750J0D01*
G01*
X44694250Y-97543600D01*
G75*
G02*
X44913000Y-97762350I0J-218750D01*
G01*
X44913000Y-98274850D01*
G75*
G02*
X44694250Y-98493600I-218750J0D01*
G01*
X44256750Y-98493600D01*
G75*
G02*
X44038000Y-98274850I0J218750D01*
G01*
G37*
G36*
G01*
X42463000Y-98274850D02*
X42463000Y-97762350D01*
G75*
G02*
X42681750Y-97543600I218750J0D01*
G01*
X43119250Y-97543600D01*
G75*
G02*
X43338000Y-97762350I0J-218750D01*
G01*
X43338000Y-98274850D01*
G75*
G02*
X43119250Y-98493600I-218750J0D01*
G01*
X42681750Y-98493600D01*
G75*
G02*
X42463000Y-98274850I0J218750D01*
G01*
G37*
G36*
G01*
X44038000Y-96801650D02*
X44038000Y-96289150D01*
G75*
G02*
X44256750Y-96070400I218750J0D01*
G01*
X44694250Y-96070400D01*
G75*
G02*
X44913000Y-96289150I0J-218750D01*
G01*
X44913000Y-96801650D01*
G75*
G02*
X44694250Y-97020400I-218750J0D01*
G01*
X44256750Y-97020400D01*
G75*
G02*
X44038000Y-96801650I0J218750D01*
G01*
G37*
G36*
G01*
X42463000Y-96801650D02*
X42463000Y-96289150D01*
G75*
G02*
X42681750Y-96070400I218750J0D01*
G01*
X43119250Y-96070400D01*
G75*
G02*
X43338000Y-96289150I0J-218750D01*
G01*
X43338000Y-96801650D01*
G75*
G02*
X43119250Y-97020400I-218750J0D01*
G01*
X42681750Y-97020400D01*
G75*
G02*
X42463000Y-96801650I0J218750D01*
G01*
G37*
G36*
G01*
X41074050Y-94899900D02*
X40561550Y-94899900D01*
G75*
G02*
X40342800Y-94681150I0J218750D01*
G01*
X40342800Y-94243650D01*
G75*
G02*
X40561550Y-94024900I218750J0D01*
G01*
X41074050Y-94024900D01*
G75*
G02*
X41292800Y-94243650I0J-218750D01*
G01*
X41292800Y-94681150D01*
G75*
G02*
X41074050Y-94899900I-218750J0D01*
G01*
G37*
G36*
G01*
X41074050Y-96474900D02*
X40561550Y-96474900D01*
G75*
G02*
X40342800Y-96256150I0J218750D01*
G01*
X40342800Y-95818650D01*
G75*
G02*
X40561550Y-95599900I218750J0D01*
G01*
X41074050Y-95599900D01*
G75*
G02*
X41292800Y-95818650I0J-218750D01*
G01*
X41292800Y-96256150D01*
G75*
G02*
X41074050Y-96474900I-218750J0D01*
G01*
G37*
G36*
G01*
X39164550Y-95333400D02*
X39677050Y-95333400D01*
G75*
G02*
X39895800Y-95552150I0J-218750D01*
G01*
X39895800Y-95989650D01*
G75*
G02*
X39677050Y-96208400I-218750J0D01*
G01*
X39164550Y-96208400D01*
G75*
G02*
X38945800Y-95989650I0J218750D01*
G01*
X38945800Y-95552150D01*
G75*
G02*
X39164550Y-95333400I218750J0D01*
G01*
G37*
G36*
G01*
X39164550Y-93758400D02*
X39677050Y-93758400D01*
G75*
G02*
X39895800Y-93977150I0J-218750D01*
G01*
X39895800Y-94414650D01*
G75*
G02*
X39677050Y-94633400I-218750J0D01*
G01*
X39164550Y-94633400D01*
G75*
G02*
X38945800Y-94414650I0J218750D01*
G01*
X38945800Y-93977150D01*
G75*
G02*
X39164550Y-93758400I218750J0D01*
G01*
G37*
G36*
G01*
X37462750Y-94495200D02*
X37975250Y-94495200D01*
G75*
G02*
X38194000Y-94713950I0J-218750D01*
G01*
X38194000Y-95151450D01*
G75*
G02*
X37975250Y-95370200I-218750J0D01*
G01*
X37462750Y-95370200D01*
G75*
G02*
X37244000Y-95151450I0J218750D01*
G01*
X37244000Y-94713950D01*
G75*
G02*
X37462750Y-94495200I218750J0D01*
G01*
G37*
G36*
G01*
X37462750Y-92920200D02*
X37975250Y-92920200D01*
G75*
G02*
X38194000Y-93138950I0J-218750D01*
G01*
X38194000Y-93576450D01*
G75*
G02*
X37975250Y-93795200I-218750J0D01*
G01*
X37462750Y-93795200D01*
G75*
G02*
X37244000Y-93576450I0J218750D01*
G01*
X37244000Y-93138950D01*
G75*
G02*
X37462750Y-92920200I218750J0D01*
G01*
G37*
G36*
G01*
X39634450Y-159912900D02*
X40146950Y-159912900D01*
G75*
G02*
X40365700Y-160131650I0J-218750D01*
G01*
X40365700Y-160569150D01*
G75*
G02*
X40146950Y-160787900I-218750J0D01*
G01*
X39634450Y-160787900D01*
G75*
G02*
X39415700Y-160569150I0J218750D01*
G01*
X39415700Y-160131650D01*
G75*
G02*
X39634450Y-159912900I218750J0D01*
G01*
G37*
G36*
G01*
X39634450Y-158337900D02*
X40146950Y-158337900D01*
G75*
G02*
X40365700Y-158556650I0J-218750D01*
G01*
X40365700Y-158994150D01*
G75*
G02*
X40146950Y-159212900I-218750J0D01*
G01*
X39634450Y-159212900D01*
G75*
G02*
X39415700Y-158994150I0J218750D01*
G01*
X39415700Y-158556650D01*
G75*
G02*
X39634450Y-158337900I218750J0D01*
G01*
G37*
G36*
G01*
X43072800Y-161292250D02*
X43072800Y-160779750D01*
G75*
G02*
X43291550Y-160561000I218750J0D01*
G01*
X43729050Y-160561000D01*
G75*
G02*
X43947800Y-160779750I0J-218750D01*
G01*
X43947800Y-161292250D01*
G75*
G02*
X43729050Y-161511000I-218750J0D01*
G01*
X43291550Y-161511000D01*
G75*
G02*
X43072800Y-161292250I0J218750D01*
G01*
G37*
G36*
G01*
X41497800Y-161292250D02*
X41497800Y-160779750D01*
G75*
G02*
X41716550Y-160561000I218750J0D01*
G01*
X42154050Y-160561000D01*
G75*
G02*
X42372800Y-160779750I0J-218750D01*
G01*
X42372800Y-161292250D01*
G75*
G02*
X42154050Y-161511000I-218750J0D01*
G01*
X41716550Y-161511000D01*
G75*
G02*
X41497800Y-161292250I0J218750D01*
G01*
G37*
G36*
G01*
X61067100Y-116774250D02*
X61067100Y-117286750D01*
G75*
G02*
X60848350Y-117505500I-218750J0D01*
G01*
X60410850Y-117505500D01*
G75*
G02*
X60192100Y-117286750I0J218750D01*
G01*
X60192100Y-116774250D01*
G75*
G02*
X60410850Y-116555500I218750J0D01*
G01*
X60848350Y-116555500D01*
G75*
G02*
X61067100Y-116774250I0J-218750D01*
G01*
G37*
G36*
G01*
X62642100Y-116774250D02*
X62642100Y-117286750D01*
G75*
G02*
X62423350Y-117505500I-218750J0D01*
G01*
X61985850Y-117505500D01*
G75*
G02*
X61767100Y-117286750I0J218750D01*
G01*
X61767100Y-116774250D01*
G75*
G02*
X61985850Y-116555500I218750J0D01*
G01*
X62423350Y-116555500D01*
G75*
G02*
X62642100Y-116774250I0J-218750D01*
G01*
G37*
D14*
X46291500Y-159232600D03*
X48291500Y-160182600D03*
X48291500Y-158282600D03*
G36*
G01*
X50505650Y-96819200D02*
X51018150Y-96819200D01*
G75*
G02*
X51236900Y-97037950I0J-218750D01*
G01*
X51236900Y-97475450D01*
G75*
G02*
X51018150Y-97694200I-218750J0D01*
G01*
X50505650Y-97694200D01*
G75*
G02*
X50286900Y-97475450I0J218750D01*
G01*
X50286900Y-97037950D01*
G75*
G02*
X50505650Y-96819200I218750J0D01*
G01*
G37*
G36*
G01*
X50505650Y-95244200D02*
X51018150Y-95244200D01*
G75*
G02*
X51236900Y-95462950I0J-218750D01*
G01*
X51236900Y-95900450D01*
G75*
G02*
X51018150Y-96119200I-218750J0D01*
G01*
X50505650Y-96119200D01*
G75*
G02*
X50286900Y-95900450I0J218750D01*
G01*
X50286900Y-95462950D01*
G75*
G02*
X50505650Y-95244200I218750J0D01*
G01*
G37*
G36*
G01*
X50480250Y-93822000D02*
X50992750Y-93822000D01*
G75*
G02*
X51211500Y-94040750I0J-218750D01*
G01*
X51211500Y-94478250D01*
G75*
G02*
X50992750Y-94697000I-218750J0D01*
G01*
X50480250Y-94697000D01*
G75*
G02*
X50261500Y-94478250I0J218750D01*
G01*
X50261500Y-94040750D01*
G75*
G02*
X50480250Y-93822000I218750J0D01*
G01*
G37*
G36*
G01*
X50480250Y-92247000D02*
X50992750Y-92247000D01*
G75*
G02*
X51211500Y-92465750I0J-218750D01*
G01*
X51211500Y-92903250D01*
G75*
G02*
X50992750Y-93122000I-218750J0D01*
G01*
X50480250Y-93122000D01*
G75*
G02*
X50261500Y-92903250I0J218750D01*
G01*
X50261500Y-92465750D01*
G75*
G02*
X50480250Y-92247000I218750J0D01*
G01*
G37*
G36*
G01*
X61800401Y-166221300D02*
X58900399Y-166221300D01*
G75*
G02*
X58650400Y-165971301I0J249999D01*
G01*
X58650400Y-165346299D01*
G75*
G02*
X58900399Y-165096300I249999J0D01*
G01*
X61800401Y-165096300D01*
G75*
G02*
X62050400Y-165346299I0J-249999D01*
G01*
X62050400Y-165971301D01*
G75*
G02*
X61800401Y-166221300I-249999J0D01*
G01*
G37*
G36*
G01*
X61800401Y-170496300D02*
X58900399Y-170496300D01*
G75*
G02*
X58650400Y-170246301I0J249999D01*
G01*
X58650400Y-169621299D01*
G75*
G02*
X58900399Y-169371300I249999J0D01*
G01*
X61800401Y-169371300D01*
G75*
G02*
X62050400Y-169621299I0J-249999D01*
G01*
X62050400Y-170246301D01*
G75*
G02*
X61800401Y-170496300I-249999J0D01*
G01*
G37*
D15*
X52360800Y-168249200D03*
X56960800Y-168249200D03*
X54660800Y-168249200D03*
D16*
X54660800Y-174549200D03*
D15*
X45096400Y-168249600D03*
X49696400Y-168249600D03*
X47396400Y-168249600D03*
D16*
X47396400Y-174549600D03*
D17*
X63930800Y-163677600D03*
X60630800Y-163677600D03*
D18*
X57810400Y-144284700D03*
X58760400Y-146904700D03*
X59710400Y-144284700D03*
G36*
G01*
X30449380Y-172574080D02*
X30749380Y-172574080D01*
G75*
G02*
X30899380Y-172724080I0J-150000D01*
G01*
X30899380Y-174374080D01*
G75*
G02*
X30749380Y-174524080I-150000J0D01*
G01*
X30449380Y-174524080D01*
G75*
G02*
X30299380Y-174374080I0J150000D01*
G01*
X30299380Y-172724080D01*
G75*
G02*
X30449380Y-172574080I150000J0D01*
G01*
G37*
G36*
G01*
X31719380Y-172574080D02*
X32019380Y-172574080D01*
G75*
G02*
X32169380Y-172724080I0J-150000D01*
G01*
X32169380Y-174374080D01*
G75*
G02*
X32019380Y-174524080I-150000J0D01*
G01*
X31719380Y-174524080D01*
G75*
G02*
X31569380Y-174374080I0J150000D01*
G01*
X31569380Y-172724080D01*
G75*
G02*
X31719380Y-172574080I150000J0D01*
G01*
G37*
G36*
G01*
X32989380Y-172574080D02*
X33289380Y-172574080D01*
G75*
G02*
X33439380Y-172724080I0J-150000D01*
G01*
X33439380Y-174374080D01*
G75*
G02*
X33289380Y-174524080I-150000J0D01*
G01*
X32989380Y-174524080D01*
G75*
G02*
X32839380Y-174374080I0J150000D01*
G01*
X32839380Y-172724080D01*
G75*
G02*
X32989380Y-172574080I150000J0D01*
G01*
G37*
G36*
G01*
X34259380Y-172574080D02*
X34559380Y-172574080D01*
G75*
G02*
X34709380Y-172724080I0J-150000D01*
G01*
X34709380Y-174374080D01*
G75*
G02*
X34559380Y-174524080I-150000J0D01*
G01*
X34259380Y-174524080D01*
G75*
G02*
X34109380Y-174374080I0J150000D01*
G01*
X34109380Y-172724080D01*
G75*
G02*
X34259380Y-172574080I150000J0D01*
G01*
G37*
G36*
G01*
X34259380Y-167624080D02*
X34559380Y-167624080D01*
G75*
G02*
X34709380Y-167774080I0J-150000D01*
G01*
X34709380Y-169424080D01*
G75*
G02*
X34559380Y-169574080I-150000J0D01*
G01*
X34259380Y-169574080D01*
G75*
G02*
X34109380Y-169424080I0J150000D01*
G01*
X34109380Y-167774080D01*
G75*
G02*
X34259380Y-167624080I150000J0D01*
G01*
G37*
G36*
G01*
X32989380Y-167624080D02*
X33289380Y-167624080D01*
G75*
G02*
X33439380Y-167774080I0J-150000D01*
G01*
X33439380Y-169424080D01*
G75*
G02*
X33289380Y-169574080I-150000J0D01*
G01*
X32989380Y-169574080D01*
G75*
G02*
X32839380Y-169424080I0J150000D01*
G01*
X32839380Y-167774080D01*
G75*
G02*
X32989380Y-167624080I150000J0D01*
G01*
G37*
G36*
G01*
X31719380Y-167624080D02*
X32019380Y-167624080D01*
G75*
G02*
X32169380Y-167774080I0J-150000D01*
G01*
X32169380Y-169424080D01*
G75*
G02*
X32019380Y-169574080I-150000J0D01*
G01*
X31719380Y-169574080D01*
G75*
G02*
X31569380Y-169424080I0J150000D01*
G01*
X31569380Y-167774080D01*
G75*
G02*
X31719380Y-167624080I150000J0D01*
G01*
G37*
G36*
G01*
X30449380Y-167624080D02*
X30749380Y-167624080D01*
G75*
G02*
X30899380Y-167774080I0J-150000D01*
G01*
X30899380Y-169424080D01*
G75*
G02*
X30749380Y-169574080I-150000J0D01*
G01*
X30449380Y-169574080D01*
G75*
G02*
X30299380Y-169424080I0J150000D01*
G01*
X30299380Y-167774080D01*
G75*
G02*
X30449380Y-167624080I150000J0D01*
G01*
G37*
G36*
G01*
X52135900Y-97915200D02*
X52435900Y-97915200D01*
G75*
G02*
X52585900Y-98065200I0J-150000D01*
G01*
X52585900Y-99515200D01*
G75*
G02*
X52435900Y-99665200I-150000J0D01*
G01*
X52135900Y-99665200D01*
G75*
G02*
X51985900Y-99515200I0J150000D01*
G01*
X51985900Y-98065200D01*
G75*
G02*
X52135900Y-97915200I150000J0D01*
G01*
G37*
G36*
G01*
X53405900Y-97915200D02*
X53705900Y-97915200D01*
G75*
G02*
X53855900Y-98065200I0J-150000D01*
G01*
X53855900Y-99515200D01*
G75*
G02*
X53705900Y-99665200I-150000J0D01*
G01*
X53405900Y-99665200D01*
G75*
G02*
X53255900Y-99515200I0J150000D01*
G01*
X53255900Y-98065200D01*
G75*
G02*
X53405900Y-97915200I150000J0D01*
G01*
G37*
G36*
G01*
X54675900Y-97915200D02*
X54975900Y-97915200D01*
G75*
G02*
X55125900Y-98065200I0J-150000D01*
G01*
X55125900Y-99515200D01*
G75*
G02*
X54975900Y-99665200I-150000J0D01*
G01*
X54675900Y-99665200D01*
G75*
G02*
X54525900Y-99515200I0J150000D01*
G01*
X54525900Y-98065200D01*
G75*
G02*
X54675900Y-97915200I150000J0D01*
G01*
G37*
G36*
G01*
X55945900Y-97915200D02*
X56245900Y-97915200D01*
G75*
G02*
X56395900Y-98065200I0J-150000D01*
G01*
X56395900Y-99515200D01*
G75*
G02*
X56245900Y-99665200I-150000J0D01*
G01*
X55945900Y-99665200D01*
G75*
G02*
X55795900Y-99515200I0J150000D01*
G01*
X55795900Y-98065200D01*
G75*
G02*
X55945900Y-97915200I150000J0D01*
G01*
G37*
G36*
G01*
X55945900Y-92765200D02*
X56245900Y-92765200D01*
G75*
G02*
X56395900Y-92915200I0J-150000D01*
G01*
X56395900Y-94365200D01*
G75*
G02*
X56245900Y-94515200I-150000J0D01*
G01*
X55945900Y-94515200D01*
G75*
G02*
X55795900Y-94365200I0J150000D01*
G01*
X55795900Y-92915200D01*
G75*
G02*
X55945900Y-92765200I150000J0D01*
G01*
G37*
G36*
G01*
X54675900Y-92765200D02*
X54975900Y-92765200D01*
G75*
G02*
X55125900Y-92915200I0J-150000D01*
G01*
X55125900Y-94365200D01*
G75*
G02*
X54975900Y-94515200I-150000J0D01*
G01*
X54675900Y-94515200D01*
G75*
G02*
X54525900Y-94365200I0J150000D01*
G01*
X54525900Y-92915200D01*
G75*
G02*
X54675900Y-92765200I150000J0D01*
G01*
G37*
G36*
G01*
X53405900Y-92765200D02*
X53705900Y-92765200D01*
G75*
G02*
X53855900Y-92915200I0J-150000D01*
G01*
X53855900Y-94365200D01*
G75*
G02*
X53705900Y-94515200I-150000J0D01*
G01*
X53405900Y-94515200D01*
G75*
G02*
X53255900Y-94365200I0J150000D01*
G01*
X53255900Y-92915200D01*
G75*
G02*
X53405900Y-92765200I150000J0D01*
G01*
G37*
G36*
G01*
X52135900Y-92765200D02*
X52435900Y-92765200D01*
G75*
G02*
X52585900Y-92915200I0J-150000D01*
G01*
X52585900Y-94365200D01*
G75*
G02*
X52435900Y-94515200I-150000J0D01*
G01*
X52135900Y-94515200D01*
G75*
G02*
X51985900Y-94365200I0J150000D01*
G01*
X51985900Y-92915200D01*
G75*
G02*
X52135900Y-92765200I150000J0D01*
G01*
G37*
G36*
G01*
X57677700Y-115292850D02*
X57677700Y-114780350D01*
G75*
G02*
X57896450Y-114561600I218750J0D01*
G01*
X58333950Y-114561600D01*
G75*
G02*
X58552700Y-114780350I0J-218750D01*
G01*
X58552700Y-115292850D01*
G75*
G02*
X58333950Y-115511600I-218750J0D01*
G01*
X57896450Y-115511600D01*
G75*
G02*
X57677700Y-115292850I0J218750D01*
G01*
G37*
G36*
G01*
X56102700Y-115292850D02*
X56102700Y-114780350D01*
G75*
G02*
X56321450Y-114561600I218750J0D01*
G01*
X56758950Y-114561600D01*
G75*
G02*
X56977700Y-114780350I0J-218750D01*
G01*
X56977700Y-115292850D01*
G75*
G02*
X56758950Y-115511600I-218750J0D01*
G01*
X56321450Y-115511600D01*
G75*
G02*
X56102700Y-115292850I0J218750D01*
G01*
G37*
G36*
G01*
X56737900Y-116766050D02*
X56737900Y-116253550D01*
G75*
G02*
X56956650Y-116034800I218750J0D01*
G01*
X57394150Y-116034800D01*
G75*
G02*
X57612900Y-116253550I0J-218750D01*
G01*
X57612900Y-116766050D01*
G75*
G02*
X57394150Y-116984800I-218750J0D01*
G01*
X56956650Y-116984800D01*
G75*
G02*
X56737900Y-116766050I0J218750D01*
G01*
G37*
G36*
G01*
X55162900Y-116766050D02*
X55162900Y-116253550D01*
G75*
G02*
X55381650Y-116034800I218750J0D01*
G01*
X55819150Y-116034800D01*
G75*
G02*
X56037900Y-116253550I0J-218750D01*
G01*
X56037900Y-116766050D01*
G75*
G02*
X55819150Y-116984800I-218750J0D01*
G01*
X55381650Y-116984800D01*
G75*
G02*
X55162900Y-116766050I0J218750D01*
G01*
G37*
G36*
G01*
X59281350Y-114649900D02*
X59793850Y-114649900D01*
G75*
G02*
X60012600Y-114868650I0J-218750D01*
G01*
X60012600Y-115306150D01*
G75*
G02*
X59793850Y-115524900I-218750J0D01*
G01*
X59281350Y-115524900D01*
G75*
G02*
X59062600Y-115306150I0J218750D01*
G01*
X59062600Y-114868650D01*
G75*
G02*
X59281350Y-114649900I218750J0D01*
G01*
G37*
G36*
G01*
X59281350Y-113074900D02*
X59793850Y-113074900D01*
G75*
G02*
X60012600Y-113293650I0J-218750D01*
G01*
X60012600Y-113731150D01*
G75*
G02*
X59793850Y-113949900I-218750J0D01*
G01*
X59281350Y-113949900D01*
G75*
G02*
X59062600Y-113731150I0J218750D01*
G01*
X59062600Y-113293650D01*
G75*
G02*
X59281350Y-113074900I218750J0D01*
G01*
G37*
G36*
G01*
X60957750Y-114649900D02*
X61470250Y-114649900D01*
G75*
G02*
X61689000Y-114868650I0J-218750D01*
G01*
X61689000Y-115306150D01*
G75*
G02*
X61470250Y-115524900I-218750J0D01*
G01*
X60957750Y-115524900D01*
G75*
G02*
X60739000Y-115306150I0J218750D01*
G01*
X60739000Y-114868650D01*
G75*
G02*
X60957750Y-114649900I218750J0D01*
G01*
G37*
G36*
G01*
X60957750Y-113074900D02*
X61470250Y-113074900D01*
G75*
G02*
X61689000Y-113293650I0J-218750D01*
G01*
X61689000Y-113731150D01*
G75*
G02*
X61470250Y-113949900I-218750J0D01*
G01*
X60957750Y-113949900D01*
G75*
G02*
X60739000Y-113731150I0J218750D01*
G01*
X60739000Y-113293650D01*
G75*
G02*
X60957750Y-113074900I218750J0D01*
G01*
G37*
G36*
G01*
X21333750Y-99333700D02*
X21846250Y-99333700D01*
G75*
G02*
X22065000Y-99552450I0J-218750D01*
G01*
X22065000Y-99989950D01*
G75*
G02*
X21846250Y-100208700I-218750J0D01*
G01*
X21333750Y-100208700D01*
G75*
G02*
X21115000Y-99989950I0J218750D01*
G01*
X21115000Y-99552450D01*
G75*
G02*
X21333750Y-99333700I218750J0D01*
G01*
G37*
G36*
G01*
X21333750Y-97758700D02*
X21846250Y-97758700D01*
G75*
G02*
X22065000Y-97977450I0J-218750D01*
G01*
X22065000Y-98414950D01*
G75*
G02*
X21846250Y-98633700I-218750J0D01*
G01*
X21333750Y-98633700D01*
G75*
G02*
X21115000Y-98414950I0J218750D01*
G01*
X21115000Y-97977450D01*
G75*
G02*
X21333750Y-97758700I218750J0D01*
G01*
G37*
G36*
G01*
X25164300Y-156708130D02*
X25164300Y-157220630D01*
G75*
G02*
X24945550Y-157439380I-218750J0D01*
G01*
X24508050Y-157439380D01*
G75*
G02*
X24289300Y-157220630I0J218750D01*
G01*
X24289300Y-156708130D01*
G75*
G02*
X24508050Y-156489380I218750J0D01*
G01*
X24945550Y-156489380D01*
G75*
G02*
X25164300Y-156708130I0J-218750D01*
G01*
G37*
G36*
G01*
X26739300Y-156708130D02*
X26739300Y-157220630D01*
G75*
G02*
X26520550Y-157439380I-218750J0D01*
G01*
X26083050Y-157439380D01*
G75*
G02*
X25864300Y-157220630I0J218750D01*
G01*
X25864300Y-156708130D01*
G75*
G02*
X26083050Y-156489380I218750J0D01*
G01*
X26520550Y-156489380D01*
G75*
G02*
X26739300Y-156708130I0J-218750D01*
G01*
G37*
G36*
G01*
X27450300Y-161280130D02*
X27450300Y-161792630D01*
G75*
G02*
X27231550Y-162011380I-218750J0D01*
G01*
X26794050Y-162011380D01*
G75*
G02*
X26575300Y-161792630I0J218750D01*
G01*
X26575300Y-161280130D01*
G75*
G02*
X26794050Y-161061380I218750J0D01*
G01*
X27231550Y-161061380D01*
G75*
G02*
X27450300Y-161280130I0J-218750D01*
G01*
G37*
G36*
G01*
X29025300Y-161280130D02*
X29025300Y-161792630D01*
G75*
G02*
X28806550Y-162011380I-218750J0D01*
G01*
X28369050Y-162011380D01*
G75*
G02*
X28150300Y-161792630I0J218750D01*
G01*
X28150300Y-161280130D01*
G75*
G02*
X28369050Y-161061380I218750J0D01*
G01*
X28806550Y-161061380D01*
G75*
G02*
X29025300Y-161280130I0J-218750D01*
G01*
G37*
G36*
G01*
X24821300Y-158359130D02*
X24821300Y-158871630D01*
G75*
G02*
X24602550Y-159090380I-218750J0D01*
G01*
X24165050Y-159090380D01*
G75*
G02*
X23946300Y-158871630I0J218750D01*
G01*
X23946300Y-158359130D01*
G75*
G02*
X24165050Y-158140380I218750J0D01*
G01*
X24602550Y-158140380D01*
G75*
G02*
X24821300Y-158359130I0J-218750D01*
G01*
G37*
G36*
G01*
X26396300Y-158359130D02*
X26396300Y-158871630D01*
G75*
G02*
X26177550Y-159090380I-218750J0D01*
G01*
X25740050Y-159090380D01*
G75*
G02*
X25521300Y-158871630I0J218750D01*
G01*
X25521300Y-158359130D01*
G75*
G02*
X25740050Y-158140380I218750J0D01*
G01*
X26177550Y-158140380D01*
G75*
G02*
X26396300Y-158359130I0J-218750D01*
G01*
G37*
G36*
G01*
X57155600Y-101927950D02*
X57155600Y-102440450D01*
G75*
G02*
X56936850Y-102659200I-218750J0D01*
G01*
X56499350Y-102659200D01*
G75*
G02*
X56280600Y-102440450I0J218750D01*
G01*
X56280600Y-101927950D01*
G75*
G02*
X56499350Y-101709200I218750J0D01*
G01*
X56936850Y-101709200D01*
G75*
G02*
X57155600Y-101927950I0J-218750D01*
G01*
G37*
G36*
G01*
X58730600Y-101927950D02*
X58730600Y-102440450D01*
G75*
G02*
X58511850Y-102659200I-218750J0D01*
G01*
X58074350Y-102659200D01*
G75*
G02*
X57855600Y-102440450I0J218750D01*
G01*
X57855600Y-101927950D01*
G75*
G02*
X58074350Y-101709200I218750J0D01*
G01*
X58511850Y-101709200D01*
G75*
G02*
X58730600Y-101927950I0J-218750D01*
G01*
G37*
G36*
G01*
X61676800Y-104874350D02*
X61676800Y-105386850D01*
G75*
G02*
X61458050Y-105605600I-218750J0D01*
G01*
X61020550Y-105605600D01*
G75*
G02*
X60801800Y-105386850I0J218750D01*
G01*
X60801800Y-104874350D01*
G75*
G02*
X61020550Y-104655600I218750J0D01*
G01*
X61458050Y-104655600D01*
G75*
G02*
X61676800Y-104874350I0J-218750D01*
G01*
G37*
G36*
G01*
X63251800Y-104874350D02*
X63251800Y-105386850D01*
G75*
G02*
X63033050Y-105605600I-218750J0D01*
G01*
X62595550Y-105605600D01*
G75*
G02*
X62376800Y-105386850I0J218750D01*
G01*
X62376800Y-104874350D01*
G75*
G02*
X62595550Y-104655600I218750J0D01*
G01*
X63033050Y-104655600D01*
G75*
G02*
X63251800Y-104874350I0J-218750D01*
G01*
G37*
G36*
G01*
X57363650Y-98800400D02*
X57876150Y-98800400D01*
G75*
G02*
X58094900Y-99019150I0J-218750D01*
G01*
X58094900Y-99456650D01*
G75*
G02*
X57876150Y-99675400I-218750J0D01*
G01*
X57363650Y-99675400D01*
G75*
G02*
X57144900Y-99456650I0J218750D01*
G01*
X57144900Y-99019150D01*
G75*
G02*
X57363650Y-98800400I218750J0D01*
G01*
G37*
G36*
G01*
X57363650Y-97225400D02*
X57876150Y-97225400D01*
G75*
G02*
X58094900Y-97444150I0J-218750D01*
G01*
X58094900Y-97881650D01*
G75*
G02*
X57876150Y-98100400I-218750J0D01*
G01*
X57363650Y-98100400D01*
G75*
G02*
X57144900Y-97881650I0J218750D01*
G01*
X57144900Y-97444150D01*
G75*
G02*
X57363650Y-97225400I218750J0D01*
G01*
G37*
D14*
X56267600Y-104688600D03*
X58267600Y-105638600D03*
X58267600Y-103738600D03*
X60534800Y-107736600D03*
X62534800Y-108686600D03*
X62534800Y-106786600D03*
D19*
X41884800Y-157073600D03*
X43484800Y-157073600D03*
X41884800Y-159273600D03*
X43484800Y-159273600D03*
G36*
G01*
X56080950Y-145269600D02*
X56593450Y-145269600D01*
G75*
G02*
X56812200Y-145488350I0J-218750D01*
G01*
X56812200Y-145925850D01*
G75*
G02*
X56593450Y-146144600I-218750J0D01*
G01*
X56080950Y-146144600D01*
G75*
G02*
X55862200Y-145925850I0J218750D01*
G01*
X55862200Y-145488350D01*
G75*
G02*
X56080950Y-145269600I218750J0D01*
G01*
G37*
G36*
G01*
X56080950Y-143694600D02*
X56593450Y-143694600D01*
G75*
G02*
X56812200Y-143913350I0J-218750D01*
G01*
X56812200Y-144350850D01*
G75*
G02*
X56593450Y-144569600I-218750J0D01*
G01*
X56080950Y-144569600D01*
G75*
G02*
X55862200Y-144350850I0J218750D01*
G01*
X55862200Y-143913350D01*
G75*
G02*
X56080950Y-143694600I218750J0D01*
G01*
G37*
D20*
X51627000Y-71120000D03*
X57277000Y-71120000D03*
G36*
G01*
X40510750Y-170870460D02*
X41023250Y-170870460D01*
G75*
G02*
X41242000Y-171089210I0J-218750D01*
G01*
X41242000Y-171526710D01*
G75*
G02*
X41023250Y-171745460I-218750J0D01*
G01*
X40510750Y-171745460D01*
G75*
G02*
X40292000Y-171526710I0J218750D01*
G01*
X40292000Y-171089210D01*
G75*
G02*
X40510750Y-170870460I218750J0D01*
G01*
G37*
G36*
G01*
X40510750Y-169295460D02*
X41023250Y-169295460D01*
G75*
G02*
X41242000Y-169514210I0J-218750D01*
G01*
X41242000Y-169951710D01*
G75*
G02*
X41023250Y-170170460I-218750J0D01*
G01*
X40510750Y-170170460D01*
G75*
G02*
X40292000Y-169951710I0J218750D01*
G01*
X40292000Y-169514210D01*
G75*
G02*
X40510750Y-169295460I218750J0D01*
G01*
G37*
G36*
G01*
X59548050Y-103956600D02*
X60060550Y-103956600D01*
G75*
G02*
X60279300Y-104175350I0J-218750D01*
G01*
X60279300Y-104612850D01*
G75*
G02*
X60060550Y-104831600I-218750J0D01*
G01*
X59548050Y-104831600D01*
G75*
G02*
X59329300Y-104612850I0J218750D01*
G01*
X59329300Y-104175350D01*
G75*
G02*
X59548050Y-103956600I218750J0D01*
G01*
G37*
G36*
G01*
X59548050Y-102381600D02*
X60060550Y-102381600D01*
G75*
G02*
X60279300Y-102600350I0J-218750D01*
G01*
X60279300Y-103037850D01*
G75*
G02*
X60060550Y-103256600I-218750J0D01*
G01*
X59548050Y-103256600D01*
G75*
G02*
X59329300Y-103037850I0J218750D01*
G01*
X59329300Y-102600350D01*
G75*
G02*
X59548050Y-102381600I218750J0D01*
G01*
G37*
G36*
G01*
X19835150Y-99333800D02*
X20347650Y-99333800D01*
G75*
G02*
X20566400Y-99552550I0J-218750D01*
G01*
X20566400Y-99990050D01*
G75*
G02*
X20347650Y-100208800I-218750J0D01*
G01*
X19835150Y-100208800D01*
G75*
G02*
X19616400Y-99990050I0J218750D01*
G01*
X19616400Y-99552550D01*
G75*
G02*
X19835150Y-99333800I218750J0D01*
G01*
G37*
G36*
G01*
X19835150Y-97758800D02*
X20347650Y-97758800D01*
G75*
G02*
X20566400Y-97977550I0J-218750D01*
G01*
X20566400Y-98415050D01*
G75*
G02*
X20347650Y-98633800I-218750J0D01*
G01*
X19835150Y-98633800D01*
G75*
G02*
X19616400Y-98415050I0J218750D01*
G01*
X19616400Y-97977550D01*
G75*
G02*
X19835150Y-97758800I218750J0D01*
G01*
G37*
G36*
G01*
X38627160Y-169502000D02*
X36577160Y-169502000D01*
G75*
G02*
X36327160Y-169252000I0J250000D01*
G01*
X36327160Y-167677000D01*
G75*
G02*
X36577160Y-167427000I250000J0D01*
G01*
X38627160Y-167427000D01*
G75*
G02*
X38877160Y-167677000I0J-250000D01*
G01*
X38877160Y-169252000D01*
G75*
G02*
X38627160Y-169502000I-250000J0D01*
G01*
G37*
G36*
G01*
X38627160Y-175727000D02*
X36577160Y-175727000D01*
G75*
G02*
X36327160Y-175477000I0J250000D01*
G01*
X36327160Y-173902000D01*
G75*
G02*
X36577160Y-173652000I250000J0D01*
G01*
X38627160Y-173652000D01*
G75*
G02*
X38877160Y-173902000I0J-250000D01*
G01*
X38877160Y-175477000D01*
G75*
G02*
X38627160Y-175727000I-250000J0D01*
G01*
G37*
G36*
G01*
X40515830Y-173837180D02*
X41028330Y-173837180D01*
G75*
G02*
X41247080Y-174055930I0J-218750D01*
G01*
X41247080Y-174493430D01*
G75*
G02*
X41028330Y-174712180I-218750J0D01*
G01*
X40515830Y-174712180D01*
G75*
G02*
X40297080Y-174493430I0J218750D01*
G01*
X40297080Y-174055930D01*
G75*
G02*
X40515830Y-173837180I218750J0D01*
G01*
G37*
G36*
G01*
X40515830Y-172262180D02*
X41028330Y-172262180D01*
G75*
G02*
X41247080Y-172480930I0J-218750D01*
G01*
X41247080Y-172918430D01*
G75*
G02*
X41028330Y-173137180I-218750J0D01*
G01*
X40515830Y-173137180D01*
G75*
G02*
X40297080Y-172918430I0J218750D01*
G01*
X40297080Y-172480930D01*
G75*
G02*
X40515830Y-172262180I218750J0D01*
G01*
G37*
G36*
G01*
X42014430Y-173842260D02*
X42526930Y-173842260D01*
G75*
G02*
X42745680Y-174061010I0J-218750D01*
G01*
X42745680Y-174498510D01*
G75*
G02*
X42526930Y-174717260I-218750J0D01*
G01*
X42014430Y-174717260D01*
G75*
G02*
X41795680Y-174498510I0J218750D01*
G01*
X41795680Y-174061010D01*
G75*
G02*
X42014430Y-173842260I218750J0D01*
G01*
G37*
G36*
G01*
X42014430Y-172267260D02*
X42526930Y-172267260D01*
G75*
G02*
X42745680Y-172486010I0J-218750D01*
G01*
X42745680Y-172923510D01*
G75*
G02*
X42526930Y-173142260I-218750J0D01*
G01*
X42014430Y-173142260D01*
G75*
G02*
X41795680Y-172923510I0J218750D01*
G01*
X41795680Y-172486010D01*
G75*
G02*
X42014430Y-172267260I218750J0D01*
G01*
G37*
G36*
G01*
X28623550Y-156488880D02*
X29136050Y-156488880D01*
G75*
G02*
X29354800Y-156707630I0J-218750D01*
G01*
X29354800Y-157145130D01*
G75*
G02*
X29136050Y-157363880I-218750J0D01*
G01*
X28623550Y-157363880D01*
G75*
G02*
X28404800Y-157145130I0J218750D01*
G01*
X28404800Y-156707630D01*
G75*
G02*
X28623550Y-156488880I218750J0D01*
G01*
G37*
G36*
G01*
X28623550Y-154913880D02*
X29136050Y-154913880D01*
G75*
G02*
X29354800Y-155132630I0J-218750D01*
G01*
X29354800Y-155570130D01*
G75*
G02*
X29136050Y-155788880I-218750J0D01*
G01*
X28623550Y-155788880D01*
G75*
G02*
X28404800Y-155570130I0J218750D01*
G01*
X28404800Y-155132630D01*
G75*
G02*
X28623550Y-154913880I218750J0D01*
G01*
G37*
G36*
G01*
X27226550Y-159600380D02*
X27739050Y-159600380D01*
G75*
G02*
X27957800Y-159819130I0J-218750D01*
G01*
X27957800Y-160256630D01*
G75*
G02*
X27739050Y-160475380I-218750J0D01*
G01*
X27226550Y-160475380D01*
G75*
G02*
X27007800Y-160256630I0J218750D01*
G01*
X27007800Y-159819130D01*
G75*
G02*
X27226550Y-159600380I218750J0D01*
G01*
G37*
G36*
G01*
X27226550Y-158025380D02*
X27739050Y-158025380D01*
G75*
G02*
X27957800Y-158244130I0J-218750D01*
G01*
X27957800Y-158681630D01*
G75*
G02*
X27739050Y-158900380I-218750J0D01*
G01*
X27226550Y-158900380D01*
G75*
G02*
X27007800Y-158681630I0J218750D01*
G01*
X27007800Y-158244130D01*
G75*
G02*
X27226550Y-158025380I218750J0D01*
G01*
G37*
G36*
G01*
X25126300Y-155184130D02*
X25126300Y-155696630D01*
G75*
G02*
X24907550Y-155915380I-218750J0D01*
G01*
X24470050Y-155915380D01*
G75*
G02*
X24251300Y-155696630I0J218750D01*
G01*
X24251300Y-155184130D01*
G75*
G02*
X24470050Y-154965380I218750J0D01*
G01*
X24907550Y-154965380D01*
G75*
G02*
X25126300Y-155184130I0J-218750D01*
G01*
G37*
G36*
G01*
X26701300Y-155184130D02*
X26701300Y-155696630D01*
G75*
G02*
X26482550Y-155915380I-218750J0D01*
G01*
X26045050Y-155915380D01*
G75*
G02*
X25826300Y-155696630I0J218750D01*
G01*
X25826300Y-155184130D01*
G75*
G02*
X26045050Y-154965380I218750J0D01*
G01*
X26482550Y-154965380D01*
G75*
G02*
X26701300Y-155184130I0J-218750D01*
G01*
G37*
G36*
G01*
X57930300Y-106931750D02*
X57930300Y-107444250D01*
G75*
G02*
X57711550Y-107663000I-218750J0D01*
G01*
X57274050Y-107663000D01*
G75*
G02*
X57055300Y-107444250I0J218750D01*
G01*
X57055300Y-106931750D01*
G75*
G02*
X57274050Y-106713000I218750J0D01*
G01*
X57711550Y-106713000D01*
G75*
G02*
X57930300Y-106931750I0J-218750D01*
G01*
G37*
G36*
G01*
X59505300Y-106931750D02*
X59505300Y-107444250D01*
G75*
G02*
X59286550Y-107663000I-218750J0D01*
G01*
X58849050Y-107663000D01*
G75*
G02*
X58630300Y-107444250I0J218750D01*
G01*
X58630300Y-106931750D01*
G75*
G02*
X58849050Y-106713000I218750J0D01*
G01*
X59286550Y-106713000D01*
G75*
G02*
X59505300Y-106931750I0J-218750D01*
G01*
G37*
G36*
G01*
X22972050Y-156526880D02*
X23484550Y-156526880D01*
G75*
G02*
X23703300Y-156745630I0J-218750D01*
G01*
X23703300Y-157183130D01*
G75*
G02*
X23484550Y-157401880I-218750J0D01*
G01*
X22972050Y-157401880D01*
G75*
G02*
X22753300Y-157183130I0J218750D01*
G01*
X22753300Y-156745630D01*
G75*
G02*
X22972050Y-156526880I218750J0D01*
G01*
G37*
G36*
G01*
X22972050Y-154951880D02*
X23484550Y-154951880D01*
G75*
G02*
X23703300Y-155170630I0J-218750D01*
G01*
X23703300Y-155608130D01*
G75*
G02*
X23484550Y-155826880I-218750J0D01*
G01*
X22972050Y-155826880D01*
G75*
G02*
X22753300Y-155608130I0J218750D01*
G01*
X22753300Y-155170630D01*
G75*
G02*
X22972050Y-154951880I218750J0D01*
G01*
G37*
G36*
G01*
X54556950Y-104413800D02*
X55069450Y-104413800D01*
G75*
G02*
X55288200Y-104632550I0J-218750D01*
G01*
X55288200Y-105070050D01*
G75*
G02*
X55069450Y-105288800I-218750J0D01*
G01*
X54556950Y-105288800D01*
G75*
G02*
X54338200Y-105070050I0J218750D01*
G01*
X54338200Y-104632550D01*
G75*
G02*
X54556950Y-104413800I218750J0D01*
G01*
G37*
G36*
G01*
X54556950Y-102838800D02*
X55069450Y-102838800D01*
G75*
G02*
X55288200Y-103057550I0J-218750D01*
G01*
X55288200Y-103495050D01*
G75*
G02*
X55069450Y-103713800I-218750J0D01*
G01*
X54556950Y-103713800D01*
G75*
G02*
X54338200Y-103495050I0J218750D01*
G01*
X54338200Y-103057550D01*
G75*
G02*
X54556950Y-102838800I218750J0D01*
G01*
G37*
G36*
G01*
X24821300Y-159819630D02*
X24821300Y-160332130D01*
G75*
G02*
X24602550Y-160550880I-218750J0D01*
G01*
X24165050Y-160550880D01*
G75*
G02*
X23946300Y-160332130I0J218750D01*
G01*
X23946300Y-159819630D01*
G75*
G02*
X24165050Y-159600880I218750J0D01*
G01*
X24602550Y-159600880D01*
G75*
G02*
X24821300Y-159819630I0J-218750D01*
G01*
G37*
G36*
G01*
X26396300Y-159819630D02*
X26396300Y-160332130D01*
G75*
G02*
X26177550Y-160550880I-218750J0D01*
G01*
X25740050Y-160550880D01*
G75*
G02*
X25521300Y-160332130I0J218750D01*
G01*
X25521300Y-159819630D01*
G75*
G02*
X25740050Y-159600880I218750J0D01*
G01*
X26177550Y-159600880D01*
G75*
G02*
X26396300Y-159819630I0J-218750D01*
G01*
G37*
G36*
G01*
X61640200Y-101576850D02*
X61640200Y-101064350D01*
G75*
G02*
X61858950Y-100845600I218750J0D01*
G01*
X62296450Y-100845600D01*
G75*
G02*
X62515200Y-101064350I0J-218750D01*
G01*
X62515200Y-101576850D01*
G75*
G02*
X62296450Y-101795600I-218750J0D01*
G01*
X61858950Y-101795600D01*
G75*
G02*
X61640200Y-101576850I0J218750D01*
G01*
G37*
G36*
G01*
X60065200Y-101576850D02*
X60065200Y-101064350D01*
G75*
G02*
X60283950Y-100845600I218750J0D01*
G01*
X60721450Y-100845600D01*
G75*
G02*
X60940200Y-101064350I0J-218750D01*
G01*
X60940200Y-101576850D01*
G75*
G02*
X60721450Y-101795600I-218750J0D01*
G01*
X60283950Y-101795600D01*
G75*
G02*
X60065200Y-101576850I0J218750D01*
G01*
G37*
G36*
G01*
X50992750Y-99395800D02*
X50480250Y-99395800D01*
G75*
G02*
X50261500Y-99177050I0J218750D01*
G01*
X50261500Y-98739550D01*
G75*
G02*
X50480250Y-98520800I218750J0D01*
G01*
X50992750Y-98520800D01*
G75*
G02*
X51211500Y-98739550I0J-218750D01*
G01*
X51211500Y-99177050D01*
G75*
G02*
X50992750Y-99395800I-218750J0D01*
G01*
G37*
G36*
G01*
X50992750Y-100970800D02*
X50480250Y-100970800D01*
G75*
G02*
X50261500Y-100752050I0J218750D01*
G01*
X50261500Y-100314550D01*
G75*
G02*
X50480250Y-100095800I218750J0D01*
G01*
X50992750Y-100095800D01*
G75*
G02*
X51211500Y-100314550I0J-218750D01*
G01*
X51211500Y-100752050D01*
G75*
G02*
X50992750Y-100970800I-218750J0D01*
G01*
G37*
G36*
G01*
X54731500Y-92001050D02*
X54731500Y-91488550D01*
G75*
G02*
X54950250Y-91269800I218750J0D01*
G01*
X55387750Y-91269800D01*
G75*
G02*
X55606500Y-91488550I0J-218750D01*
G01*
X55606500Y-92001050D01*
G75*
G02*
X55387750Y-92219800I-218750J0D01*
G01*
X54950250Y-92219800D01*
G75*
G02*
X54731500Y-92001050I0J218750D01*
G01*
G37*
G36*
G01*
X53156500Y-92001050D02*
X53156500Y-91488550D01*
G75*
G02*
X53375250Y-91269800I218750J0D01*
G01*
X53812750Y-91269800D01*
G75*
G02*
X54031500Y-91488550I0J-218750D01*
G01*
X54031500Y-92001050D01*
G75*
G02*
X53812750Y-92219800I-218750J0D01*
G01*
X53375250Y-92219800D01*
G75*
G02*
X53156500Y-92001050I0J218750D01*
G01*
G37*
G36*
G01*
X29216600Y-140316399D02*
X29216600Y-141166401D01*
G75*
G02*
X28966601Y-141416400I-249999J0D01*
G01*
X28066599Y-141416400D01*
G75*
G02*
X27816600Y-141166401I0J249999D01*
G01*
X27816600Y-140316399D01*
G75*
G02*
X28066599Y-140066400I249999J0D01*
G01*
X28966601Y-140066400D01*
G75*
G02*
X29216600Y-140316399I0J-249999D01*
G01*
G37*
G36*
G01*
X31916600Y-140316399D02*
X31916600Y-141166401D01*
G75*
G02*
X31666601Y-141416400I-249999J0D01*
G01*
X30766599Y-141416400D01*
G75*
G02*
X30516600Y-141166401I0J249999D01*
G01*
X30516600Y-140316399D01*
G75*
G02*
X30766599Y-140066400I249999J0D01*
G01*
X31666601Y-140066400D01*
G75*
G02*
X31916600Y-140316399I0J-249999D01*
G01*
G37*
G36*
G01*
X31439299Y-154590500D02*
X32289301Y-154590500D01*
G75*
G02*
X32539300Y-154840499I0J-249999D01*
G01*
X32539300Y-155740501D01*
G75*
G02*
X32289301Y-155990500I-249999J0D01*
G01*
X31439299Y-155990500D01*
G75*
G02*
X31189300Y-155740501I0J249999D01*
G01*
X31189300Y-154840499D01*
G75*
G02*
X31439299Y-154590500I249999J0D01*
G01*
G37*
G36*
G01*
X31439299Y-151890500D02*
X32289301Y-151890500D01*
G75*
G02*
X32539300Y-152140499I0J-249999D01*
G01*
X32539300Y-153040501D01*
G75*
G02*
X32289301Y-153290500I-249999J0D01*
G01*
X31439299Y-153290500D01*
G75*
G02*
X31189300Y-153040501I0J249999D01*
G01*
X31189300Y-152140499D01*
G75*
G02*
X31439299Y-151890500I249999J0D01*
G01*
G37*
M02*
